<svg version="1.1" xmlns="http://www.w3.org/2000/svg" xmlns:xlink="http://www.w3.org/1999/xlink" width="21" height="21" viewBox="0 0 21 21"><g id="attention"><path id="Ellipse-7-copy-6" d="M10.500,0.000 C16.299,0.000 21.000,4.701 21.000,10.500 C21.000,16.299 16.299,21.000 10.500,21.000 C4.701,21.000 0.000,16.299 0.000,10.500 C0.000,4.701 4.701,0.000 10.500,0.000 z" fill="#1F85B2" /><path id="!" d="M11.636,3.641 L9.374,3.641 L9.799,11.954 L11.220,11.954 L11.636,3.641 zM9.599,15.490 C9.814,15.708 10.115,15.817 10.501,15.817 C10.882,15.817 11.177,15.704 11.387,15.478 C11.597,15.252 11.702,14.946 11.702,14.559 C11.702,14.173 11.598,13.871 11.391,13.653 C11.184,13.435 10.888,13.326 10.501,13.326 C10.109,13.326 9.807,13.431 9.595,13.641 C9.382,13.850 9.276,14.157 9.276,14.559 C9.276,14.962 9.384,15.273 9.599,15.490 z" fill="#FFFFFF" /></g></svg>