<svg xmlns="http://www.w3.org/2000/svg" width="66" height="92" viewBox="0 0 66 92"><path d="M61.121 88.868l.008.061c-1.908.506-4.071.939-6.421 1.349-5.933.927-13.009 1.421-20.163 1.48l-.302.004c-.421.002-.844.002-1.269.002-.422 0-.845 0-1.268-.002l-.301-.004c-7.155-.059-14.228-.553-20.176-1.52-2.335-.369-4.5-.803-6.407-1.309l.007-.061c-1.57-.424-2.976-.892-4.163-1.41 0 0 1.353-12.905 2.544-16.478.998-2.991 5.736-6.979 10.972-8.474 3.931-1.123 6.733-1.745 8.729-2.243 0 0 .056.769.265 2.128-1.219.411-3.218.926-5.153 1.428l-.015.211c-.406 5.855 2.705 11.319 7.831 14.181 2.397 1.339 11.876 1.339 14.274 0 5.125-2.862 8.237-8.326 7.831-14.18l-.014-.194c-2.51-.628-5.185-1.257-5.185-1.257l.296-2.317c1.995.498 4.797 1.12 8.728 2.243 5.237 1.495 9.975 5.483 10.972 8.474 1.192 3.573 2.543 16.478 2.543 16.478-1.186.518-2.592.986-4.163 1.41zM14.962 64.635c-4.941 1.356-8.934 5.046-9.606 7.059-.791 2.372-1.766 9.999-2.252 14.286.698.241 1.472.478 2.317.705l1.06.33c1.215.291 2.542.558 3.956.802-.435-1.421-.736-2.635-.736-3.273 0-.727.422-1.843 1.003-3.035 2.387-4.901 3.707-10.252 4.16-15.684l.099-1.188-.001-.002zm45.633 7.059c-.671-2.013-4.665-5.704-9.607-7.059v.001l.099 1.187c.453 5.433 1.773 10.786 4.161 15.687.58 1.191 1.002 2.307 1.002 3.034 0 .638-.301 1.852-.737 3.275a67.147 67.147 0 0 0 3.186-.624c-.002-.015 1.832-.51 1.832-.51a34.891 34.891 0 0 0 2.316-.705c-.487-4.287-1.461-11.914-2.252-14.286zm-41.76-29.379l.163.894a24.081 24.081 0 0 0 1.69 4.627 11.929 11.929 0 0 1-2.556-2.207c.06-.888-.084-2.282-.333-2.965.408-.031.788-.142 1.036-.349zm32.402 1.811c-.745.579-1.556.873-2.421.888-.033 0-.067-.008-.101-.01-2.584 8.479-8.544 13.711-15.752 13.711-4.937 0-9.36-2.586-12.467-6.959 1.013.431 2.262.797 3.78 1.089 2.424 2.337 5.402 3.652 8.687 3.652 5.796.001 10.688-4.066 13.161-10.757a25.47 25.47 0 0 0 .797-2.54l.161-.885c.602.5 1.952.5 2.699-.063 1.46-1.101 2.666-4.411 2.18-7.519-.112-.713-.378-1.636-1.011-1.982-.43-.236-.963-.183-1.323-.103-.602 2.33-1.402 4.414-2.381 5.522 0 0 .491-5.3-.01-9.319-1.823-2.343-5.312-3.862-13.952-4.971-6.117-.786-8.547-3.048-9.471-5.055-2.569 2.483-4.467 5.629-5.113 8.213-.997 3.987-.333 11.132-.333 11.132-1.25-1.416-2.213-4.418-2.839-7.501 0 0-.443-1.996-1.262-2.446v-2.257c0-1.279.147-2.586.323-3.698.806-2.924 2.127-5.877 4.265-8.286 1.971-2.22 4.476-3.764 7.479-4.637.224-.06.446-.121.676-.175.103-.026.209-.045.312-.07 1.616-.351 3.397-.545 5.369-.543 2.444.014 4.597.327 6.524.883.263.077.51.167.763.251 7.298 2.635 10.271 9.243 11.319 15.767.005.17.009.339.009.508v4.394c.261.073.524.166.784.309 1.189.65 1.935 1.894 2.217 3.698.577 3.688-.771 7.976-3.069 9.759zm-31.399 7.028c.343.321.603.56.638.575l.02.027c-.187-.079-.368-.16-.539-.244l-.119-.358zm5.594-45.362C26.257 2.483 29.24.029 32.806.029c3.621 0 6.639 2.529 7.409 5.915-6.126-1.362-9.694-1.286-14.783-.152z" fill="#57585B"/><path d="M10.269 42.354c.291 1.658 2.04 2.964 3.54 3.166a14.44 14.44 0 0 0 6.432 6.069c.104.05.229.095.339.144.795.337 1.423.724 3.803 1.116 1.502.289 3.136.467 4.746.512.242.452.715.763 1.265.763h5.014a1.44 1.44 0 0 0 1.441-1.438v-.777a1.44 1.44 0 0 0-1.441-1.439h-5.014a1.44 1.44 0 0 0-1.334.896c-3.046-.101-6.161-.709-7.949-1.571a12.403 12.403 0 0 1-5.356-4.902c.89-.918.853-2.398.853-2.398l-1.665-9.304c-.586-2.709-2.29-3.295-2.686-3.396.377-8.137 3.454-22.578 20.548-22.557C49.16 7.33 52.557 20.747 53.1 28.964a4.118 4.118 0 0 1 1.565 1.15c-.191-16.364-7.914-22.467-14.327-24.16-6.221-1.642-9.276-1.332-14.797-.152-6.428 1.869-14.676 7.576-14.807 24.513-1.364.817-2.16 2.356-1.881 3.949l1.416 8.09z" fill="#FF2F4F"/></svg>