<svg xmlns="http://www.w3.org/2000/svg" width="66" height="86" viewBox="0 0 66 86"><path d="M61.048 82.306l.008.061c-6.773 1.787-16.666 2.718-26.701 2.801l-.301.003c-.421.003-.843.003-1.268.003-.422 0-.844 0-1.267-.003l-.301-.003c-10.035-.083-19.926-1.014-26.703-2.801l.008-.061c-1.568-.422-2.972-.888-4.158-1.404 0 0 .807-13.725 2.49-17.075 1.501-2.991 4.923-5.347 11.11-7.757l.022-.05a99.897 99.897 0 0 1 3.548-1.284c.708-.243 1.427-.485 2.171-.726.087.922.274 1.818.54 2.672.55 1.773 1.408 3.37 2.279 4.666a22.413 22.413 0 0 0 1.869 2.404c.596-.951 4.183-7.031 4.183-7.031l4.209 3.155 4.207-3.155s3.588 6.078 4.186 7.029a22.587 22.587 0 0 0 1.736-2.209c.916-1.329 1.831-2.997 2.409-4.858.267-.855.453-1.75.541-2.673.743.241 1.465.484 2.174.727 1.244.426 2.435.854 3.549 1.283l.022.05c6.187 2.41 9.606 4.766 11.106 7.757 1.684 3.35 2.492 17.075 2.492 17.075-1.185.516-2.59.982-4.16 1.404zM32.786 62.992c-.912 0-1.651.737-1.651 1.646a1.65 1.65 0 0 0 1.651 1.646 1.65 1.65 0 0 0 1.652-1.646c0-.909-.739-1.646-1.652-1.646zm0 6.242c-.912 0-1.651.736-1.651 1.645s.739 1.646 1.651 1.646c.913 0 1.652-.737 1.652-1.646 0-.909-.739-1.645-1.652-1.645zm18.399-31.456c-.756.586-1.584.884-2.417.884-.037 0-.073-.01-.109-.011-2.563 8.327-8.628 13.643-15.737 13.643-7.201 0-13.155-5.206-15.738-13.643-.035.001-.071.011-.108.011-.833 0-1.661-.298-2.418-.885-2.294-1.775-3.641-6.04-3.065-9.711.28-1.794 1.026-3.032 2.213-3.679.663-.361 1.239-.501 1.709-.533-.921-3.729-1.471-8.252-.442-12.074-1.803-1.244-2.485-1.187-3.887-3.186 0 0 .723.355 8.114-2.728-1.908-.541-2.88-1.131-2.88-1.131a59.078 59.078 0 0 1 7.265-1.931l-1.619-1.707s8.567-1.166 15.856 1.845c.295.097.564.192.778.277 3.818 1.103 6.876 4.791 6.808 5.815 0 0 3.046-.936 5.038 3.528a34.695 34.695 0 0 1-.734 11.382c.667-.048 1.456.025 2.226.443 1.187.647 1.933 1.884 2.214 3.679.577 3.671-.77 7.936-3.067 9.712zm.724-9.348c-.114-.709-.378-1.627-1.01-1.972-.71-.387-1.711.01-1.722.013l-.031-.071c-.977 3.1-1.75 4.883-1.784 4.883 0 0-.022-1.06-.064-2.56l-.023.005-.035-1.014c.009.003.019.004.029.006a261.154 261.154 0 0 0-.213-5.346l-.001-.022a95.146 95.146 0 0 0-.08-1.357c-.064-.94-3.761-6.818-5.148-7.606-9.965 3.72-16.287 1.755-18.933.91-1.424 1.504-4.345 4.613-4.483 6.696-.028.419-.05.879-.069 1.357h-.001v.021a129.889 129.889 0 0 0-.067 5.354l.03-.008c.009-.003.018-.003.027-.005l-.002 1.021-.022-.005-.025-.005c.015 1.511.042 2.58.042 2.58-.185 0-1.18-2.017-2.107-4.958-.361-.074-.868-.113-1.283.117-.624.347-.887 1.261-.998 1.966-.486 3.094.767 6.325 2.176 7.483.987.809 2.188.412 2.688.162l.241 1.059c2.141 7.991 7.461 12.954 13.881 12.954 6.51 0 11.856-5.067 13.95-13.223l.164-.889c.6.498 1.948.498 2.695-.063 1.458-1.097 2.663-4.389 2.178-7.483z" fill="#57585B"/><path d="M46.279 28.611c.001.044.004.087.004.131 0 3.193-2.603 5.781-5.812 5.781-3.212 0-5.814-2.588-5.815-5.781 0-.092.003-.183.007-.273-.112-.049-.728-.294-1.915-.304-1.187.01-1.803.255-1.915.304.004.09.007.181.007.273 0 3.193-2.602 5.781-5.814 5.781-3.209 0-5.812-2.588-5.814-5.781 0-.044.004-.087.005-.131h-.945c-.021 0-.04-.006-.06-.011v-1.022c.02-.005.039-.011.06-.011h1.004c.018 0 .037.004.056.006a5.807 5.807 0 0 1 5.694-4.612 5.809 5.809 0 0 1 5.697 4.62c.348-.116.998-.271 1.959-.287a1.475 1.475 0 0 1 .131.003c.963.013 1.613.168 1.96.284a5.81 5.81 0 0 1 5.698-4.62 5.806 5.806 0 0 1 5.693 4.612c.019-.002.038-.006.056-.006l1.102.001.035 1.018-1.078.025zM28.446 25.34a4.834 4.834 0 0 0-3.42-1.409 4.842 4.842 0 0 0-3.421 1.409 4.771 4.771 0 0 0-1.363 2.694.466.466 0 0 1-.037.321 4.783 4.783 0 0 0 1.4 3.789 4.842 4.842 0 0 0 3.421 1.41 4.835 4.835 0 0 0 3.42-1.41 4.773 4.773 0 0 0 1.418-3.402c0-1.33-.54-2.53-1.418-3.402zm16.843 3.015a.497.497 0 0 1-.036-.321 4.771 4.771 0 0 0-1.363-2.694 4.835 4.835 0 0 0-3.419-1.409 4.845 4.845 0 0 0-3.423 1.409 4.784 4.784 0 0 0-1.416 3.402c0 1.329.541 2.531 1.416 3.402a4.845 4.845 0 0 0 3.423 1.41 4.836 4.836 0 0 0 3.419-1.41 4.784 4.784 0 0 0 1.399-3.789zm-27.077 2.826v-.014l.001.015-.001-.001zm14.584 31.802c.917 0 1.66.74 1.66 1.652 0 .912-.743 1.652-1.66 1.652-.917 0-1.66-.74-1.66-1.652 0-.912.743-1.652 1.66-1.652zm0 6.266c.917 0 1.66.739 1.66 1.652 0 .912-.743 1.652-1.66 1.652-.917 0-1.66-.74-1.66-1.652 0-.913.743-1.652 1.66-1.652z" fill="#FF2F4F"/></svg>