<svg version="1.1" xmlns="http://www.w3.org/2000/svg" xmlns:xlink="http://www.w3.org/1999/xlink" width="66" height="84" viewBox="0 0 66 84"><g id="-BLock8_icon4.4"><path id="Shape-54" d="M61.492,80.785 C61.496,80.806 61.500,80.826 61.502,80.846 C54.702,82.641 44.776,83.576 34.706,83.659 C34.607,83.662 34.505,83.663 34.404,83.664 C33.980,83.665 33.556,83.666 33.132,83.665 C32.707,83.666 32.282,83.665 31.861,83.664 C31.759,83.663 31.657,83.662 31.559,83.659 C21.489,83.576 11.561,82.641 4.762,80.846 C4.764,80.826 4.769,80.806 4.770,80.785 C3.196,80.361 1.786,79.894 0.597,79.374 C0.597,79.374 1.407,65.588 3.097,62.224 C4.603,59.220 8.034,56.853 14.243,54.433 C14.250,54.414 14.258,54.398 14.263,54.382 C15.381,53.951 16.579,53.522 17.827,53.093 C18.536,52.848 19.260,52.605 20.006,52.362 C20.094,53.290 20.283,54.190 20.549,55.048 C21.131,56.915 22.049,58.592 22.966,59.927 C23.600,60.849 24.218,61.597 24.711,62.147 C25.308,61.192 29.908,55.087 29.908,55.087 L33.132,56.262 L36.354,55.087 C36.354,55.087 40.954,61.193 41.554,62.148 C42.077,61.562 42.753,60.739 43.427,59.734 C44.301,58.432 45.163,56.827 45.715,55.047 C45.983,54.190 46.168,53.289 46.257,52.362 C47.003,52.605 47.727,52.848 48.436,53.092 C49.686,53.521 50.882,53.951 51.998,54.382 C52.004,54.398 52.015,54.414 52.020,54.433 C58.229,56.853 61.662,59.220 63.167,62.224 C64.858,65.588 65.666,79.374 65.666,79.374 C64.476,79.894 63.067,80.361 61.492,80.785 zM28.257,60.950 C27.653,61.759 27.146,62.504 26.765,63.099 C26.485,63.537 26.269,63.897 26.127,64.145 C26.054,64.267 26.000,64.362 25.965,64.426 C25.965,64.426 25.925,64.495 25.916,64.515 C25.916,64.515 25.235,65.783 25.235,65.783 C25.235,65.783 24.166,64.814 24.166,64.814 C24.122,64.773 22.650,63.434 21.109,61.193 C20.045,59.639 18.945,57.635 18.289,55.322 C17.269,55.677 16.307,56.023 15.419,56.361 C15.306,56.431 15.190,56.490 15.069,56.536 C9.407,58.743 6.340,60.810 5.124,63.234 C4.201,65.075 3.360,72.397 2.967,77.872 C3.689,78.124 4.490,78.367 5.362,78.605 C5.528,78.649 5.686,78.710 5.833,78.788 C7.445,79.194 9.279,79.553 11.257,79.871 C11.288,78.633 11.371,76.581 11.611,74.705 C11.611,74.705 10.009,69.280 10.009,69.280 C9.835,68.693 10.173,68.078 10.761,67.905 C11.350,67.732 11.968,68.068 12.141,68.655 C12.141,68.655 13.809,74.301 13.809,74.301 C13.854,74.450 13.865,74.610 13.843,74.763 C13.578,76.698 13.497,79.012 13.474,80.203 C17.774,80.787 22.695,81.178 27.928,81.331 C27.928,81.331 30.908,64.317 30.908,64.317 C30.908,64.317 28.257,60.950 28.257,60.950 zM61.139,63.234 C59.924,60.811 56.857,58.744 51.194,56.536 C51.065,56.486 50.942,56.425 50.827,56.354 C49.946,56.019 48.977,55.675 47.971,55.325 C47.315,57.637 46.217,59.639 45.154,61.193 C43.613,63.434 42.140,64.773 42.097,64.814 C42.097,64.814 41.028,65.783 41.028,65.783 C41.028,65.783 40.347,64.515 40.337,64.495 C40.235,64.310 39.390,62.805 38.005,60.952 C38.005,60.952 35.357,64.317 35.357,64.317 C35.357,64.317 38.337,81.331 38.337,81.331 C43.569,81.178 48.489,80.787 52.789,80.202 C52.781,79.857 52.770,79.423 52.751,78.926 C52.703,77.707 52.607,76.133 52.418,74.763 C52.398,74.610 52.409,74.450 52.454,74.301 C52.454,74.301 54.122,68.655 54.122,68.655 C54.295,68.068 54.913,67.732 55.501,67.905 C56.090,68.078 56.427,68.693 56.254,69.280 C56.254,69.280 54.652,74.705 54.652,74.705 C54.891,76.581 54.974,78.632 55.005,79.871 C56.987,79.552 58.824,79.193 60.438,78.786 C60.583,78.710 60.736,78.648 60.901,78.605 C61.775,78.368 62.576,78.124 63.296,77.871 C62.904,72.396 62.064,65.076 61.139,63.234 zM51.459,36.058 C50.699,36.647 49.868,36.946 49.033,36.946 C48.998,36.946 48.960,36.936 48.924,36.935 C46.333,45.410 40.357,50.639 33.131,50.639 C25.998,50.639 19.911,45.299 17.339,36.935 C17.303,36.936 17.266,36.946 17.230,36.946 C16.395,36.946 15.565,36.647 14.804,36.058 C12.500,34.275 11.149,29.990 11.727,26.304 C12.010,24.500 12.759,23.258 13.949,22.608 C14.550,22.281 15.164,22.168 15.722,22.152 C15.162,19.237 14.901,16.317 14.990,14.659 C15.490,5.360 23.323,0.045 33.149,0.045 C42.941,0.045 50.774,5.360 51.274,14.659 C51.363,16.302 51.107,19.184 50.556,22.072 C51.037,22.097 51.627,22.233 52.315,22.608 C53.506,23.258 54.254,24.501 54.535,26.304 C55.113,29.990 53.763,34.275 51.459,36.058 zM52.184,26.670 C52.073,25.961 51.809,25.042 51.181,24.694 C50.807,24.486 50.354,24.496 50.003,24.556 C49.397,26.895 48.592,28.992 47.606,30.104 C47.606,30.104 48.273,22.963 47.273,18.978 C46.879,17.406 46.019,15.627 44.829,13.915 C41.894,16.791 34.942,22.086 24.419,20.887 C24.419,20.887 28.669,16.902 30.419,13.164 C30.419,13.164 25.168,17.400 19.920,18.646 C19.590,18.723 19.308,18.759 19.051,18.778 C19.034,18.842 19.007,18.913 18.990,18.978 C17.991,22.963 18.656,30.104 18.656,30.104 C17.672,28.992 16.867,26.895 16.261,24.556 C15.913,24.497 15.464,24.485 15.092,24.689 C14.457,25.035 14.191,25.957 14.078,26.670 C13.591,29.776 14.800,33.085 16.264,34.185 C17.013,34.749 18.367,34.749 18.969,34.248 C18.969,34.248 19.133,35.141 19.133,35.141 C21.233,43.334 26.598,48.423 33.131,48.423 C39.574,48.423 44.912,43.438 47.061,35.412 C47.061,35.412 47.304,34.348 47.304,34.348 C47.804,34.598 49.010,34.998 50.000,34.185 C51.414,33.021 52.671,29.776 52.184,26.670 z" fill="#57585B" /><path id="Shape-55" d="M36.349,57.262 L33.130,58.382 L29.914,57.262 L28.264,61.013 L30.911,64.366 L27.935,81.310 L33.131,83.635 L38.328,81.310 L35.353,64.366 L37.997,61.015 L36.349,57.262 z" fill="#FF2F4F" /></g></svg>