<svg xmlns="http://www.w3.org/2000/svg" width="312" height="318" viewBox="0 0 312 318"><defs><filter id="a" filterUnits="userSpaceOnUse"><feFlood flood-color="#000" flood-opacity=".15"/><feComposite operator="in" in2="SourceAlpha"/><feOffset dx=".105" dy="5.999"/><feGaussianBlur result="blur"/><feComposite operator="out" in="blur" in2="SourceAlpha" result="maskedShadow"/><feComposite in="maskedShadow" in2="SourceGraphic" result="dropShadow"/></filter><linearGradient id="b" gradientUnits="userSpaceOnUse" x1="42.897%" y1="47.987%" x2="116.532%" y2="107.388%"><stop offset="0%" stop-color="#FFF"/><stop offset="100%" stop-color="#E6E6E6"/></linearGradient><filter id="c" filterUnits="userSpaceOnUse"><feFlood flood-color="#000" flood-opacity=".36"/><feComposite operator="in" in2="SourceAlpha"/><feOffset/><feGaussianBlur result="blur"/><feComposite operator="out" in="blur" in2="SourceAlpha" result="maskedShadow"/><feComposite in="maskedShadow" in2="SourceGraphic" result="dropShadow"/><feFlood flood-color="#FAFAFA"/><feComposite operator="in" in2="SourceAlpha" result="sourceFill"/><feBlend in="dropShadow" in2="sourceFill" result="gradientFill"/></filter><linearGradient id="d" gradientUnits="userSpaceOnUse" x1="1.34%" y1="52.392%" x2="64.205%" y2="103.106%"><stop offset="0%" stop-color="#FFF"/><stop offset="100%" stop-color="#E6E6E6"/></linearGradient><filter id="e" filterUnits="userSpaceOnUse"><feFlood flood-color="#000" flood-opacity=".36"/><feComposite operator="in" in2="SourceAlpha"/><feOffset/><feGaussianBlur result="blur"/><feComposite operator="out" in="blur" in2="SourceAlpha" result="maskedShadow"/><feComposite in="maskedShadow" in2="SourceGraphic" result="dropShadow"/><feFlood flood-color="#F1F1F1"/><feComposite operator="in" in2="SourceAlpha" result="sourceFill"/><feBlend in="dropShadow" in2="sourceFill" result="gradientFill"/></filter><linearGradient id="f" gradientUnits="userSpaceOnUse" x1="1.557%" y1="3.838%" x2="75.46%" y2="63.457%"><stop offset="0%" stop-color="#FFF"/><stop offset="100%" stop-color="#E6E6E6"/></linearGradient><filter id="g" filterUnits="userSpaceOnUse"><feFlood flood-color="#000" flood-opacity=".36"/><feComposite operator="in" in2="SourceAlpha"/><feOffset/><feGaussianBlur result="blur"/><feComposite operator="out" in="blur" in2="SourceAlpha" result="maskedShadow"/><feComposite in="maskedShadow" in2="SourceGraphic" result="dropShadow"/><feFlood flood-color="#FAFAFA"/><feComposite operator="in" in2="SourceAlpha" result="sourceFill"/><feBlend in="dropShadow" in2="sourceFill" result="gradientFill"/></filter><linearGradient id="h" gradientUnits="userSpaceOnUse" x1="51.337%" y1="8.345%" x2="114.068%" y2="58.951%"><stop offset="0%" stop-color="#FFF"/><stop offset="100%" stop-color="#E6E6E6"/></linearGradient><filter id="i" filterUnits="userSpaceOnUse"><feFlood flood-color="#000" flood-opacity=".36"/><feComposite operator="in" in2="SourceAlpha"/><feOffset/><feGaussianBlur result="blur"/><feComposite operator="out" in="blur" in2="SourceAlpha" result="maskedShadow"/><feComposite in="maskedShadow" in2="SourceGraphic" result="dropShadow"/><feFlood flood-color="#F1F1F1"/><feComposite operator="in" in2="SourceAlpha" result="sourceFill"/><feBlend in="dropShadow" in2="sourceFill" result="gradientFill"/></filter></defs><path d="M15-.333h282.333C305.434-.333 312 6.233 312 14.333v283c0 8.101-6.566 14.667-14.667 14.667H15C6.9 312 .333 305.434.333 297.333v-283C.333 6.233 6.9-.333 15-.333z" fill="#FFF" fill-opacity="0" filter="url(#a)"/><path d="M175.333 207.667c.483 3.373 3.132 3.415 5.334 5 .74.533 3.133 2.926 3.666 3.666 1.21 1.68 2.433 4.823 4 6 2.516 1.89 5.493 3.109 7.334 5.667 1.831 2.544 3.129 5.921 4 9.333v3c.482 1.658 1.796 3.595 2.333 5.334 1.085 3.517.053 8.678-.667 11.333-.234.866.253 1.98.334 2.333.382 1.667-.225 6-.667 7.334-.779 2.353-2 4.763-3.333 6.666-.469.67-1.565 1.314-2 2-1.455 2.295-1.759 5.148-3.334 7.334-2.325 3.228-6.662 4.78-9 8-1.045 1.439-1.346 3.09-2.333 4.666-1.621 2.589-5.834 6.713-8.667 8-4.241 1.928-9.817 2.218-14.666 1h-7c-2.656-.657-6.082-1.271-8.667-2.333-4.756-1.955-8.771-5.514-11.333-9.667-.789-1.277-.827-2.822-1.667-4l-2.333-2c-1.205-1.676-2.557-4.13-3.334-6l-1-5c-4.911-.478-7.399-3.238-11-4.666-9.143-3.626-12.965-6.27-15.666-16.334-.942-3.509.836-6.735 0-10.333-.696-2.993-.816-7.274.333-10.333.955-2.544 3.008-4.684 4-7l.333-2.334c.776-2.044 2.069-4.578 3.334-6.333 1.59-2.206 4.111-3.372 6.333-5 1.159-.849 1.715-2.575 2.667-3.667h.666l.667-1v-2.666a36.041 36.041 0 0 1 1.667-4.667c1.025-2.339 2.949-4.61 4.666-6.333l2-1.667v-4.333c-2.473-.687-5.424-3.324-6.666-5.334h-.334v.334c-1.793 1.319-2.852 3.681-4.666 5-.784.57-3.173 1.366-3.667 2l-1.333 4c-1.977 3.734-6.331 7.297-10.334 9-3.839 1.633-10.854 1.899-15 .333-1.531-.578-3.898-2.811-5.666-2.667-.565.046-2.103.852-2.667 1h-7.333c-.767.197-2.476.789-3.334 1l-10-.333c-3.142.728-6.35.419-9.333-.333L35 203c-2.051-.512-4.454-.845-6.333-1.667-.568-.248-1.425-1.113-2-1.333l-4.334-.667c-2.661-.904-4.67-2.532-6.666-4-3.881-2.853-6.247-6.695-7.667-12v-2.666c-.086-.369-.541-1.453-.333-2.334.663-2.816 1.657-5.752 2-8.333-6.347-5.752-7.587-22.891-2.334-31.333 2.103-3.38 5.854-6.698 9.667-8.334l3.667-1c1.741-1.048 3.318-2.785 5.333-3.666 2.061-.902 3.905-.569 6.333-1.334 1.464-.461 2.964-1.749 4.334-2.333 1.657-.707 3.161-.316 5-1 1.431-.532 2.887-2.046 4.333-2.667l4.667-1c1.746-.678 3.609-2.26 5.333-3l3.333-.666c2.253-.896 4.204-3.065 6.667-4h1.333c1.82-.636 5.783-2.523 6-4.667-.468-.638-.244-1.527-.666-2.333-.58-1.106-1.992-2.236-2.667-3.334-.789-1.282-.709-3.202-1.667-4.333l-1-.333c-1.539-1.279-4.281-1.265-6-2.334-2.92-1.815-5.853-4.744-7.666-7.666-1.195-1.925-3.529-8.764-2.667-12.334.309-1.278 1.146-3.481.667-5.333-.61-2.355-2.161-4.021-3-6-.638-1.505-.965-3.522-1.334-5-.91-3.647.503-7.856 1.334-10C51.804 37.899 57.745 32.283 69 32.333c2.221-3.424 6.958-5.778 11.333-7l7-.333c1.67-.474 4.054-1.198 6-1.667l4.667.334c1.131-.253 2.804-1.031 4-1.334h7.667c.704-.185 2.246-.81 3-1h7.666c1.553-.408 3.198-.938 5.334-1 1.797-6.264 9.646-10.007 16.333-11.666l7.333.333c2.038-.316 5.096-.616 7.334 0 2.46.678 4.593 2.211 6.666 3 2.206.84 4.33.476 6.334 1.333 7.484 3.203 13.073 10.613 13 21.334 3.442.91 6.953 4.918 8.666 7.666.648 1.04.597 2.365 1.334 3.334.484.637 2.28 1.456 3 2 2.09 1.577 4.743 6.546 5.666 9.333l1 7.333c-.252 1.186-1.069 3.578-.333 4.667 1.001 3.208 5.49 4.437 7.333 7 1.316 1.829 1.702 4.075 3 6l2.334 2c1.747 2.384 3.419 5.594 4.333 8.667 2.106 7.081-1.311 15.289-4.667 18.333.209.623.025.302.334.667.745.833 1.73.993 2.666 1.666 1.728 1.244 3.862 3.847 5 5.667.332.529 2.334 6 2.334 6h2.666c.692.496 1.749.325 2.667.667 1.015.377 2.425 1.352 3.333 1.666 2.4.832 4.776.166 7 1 6.168 2.313 9.624 6.536 12.667 12 1.501-.281 3.858-1.083 5.667-.666 2.068.476 5.059 1.341 7.333.666 1.54-.457 3.185-1.783 4.667-2.333l6.333-1c1.983-.748 4.243-2.057 6.667-2.667 9.559-2.405 18.825 5.395 21.666 10l2.334 6.334c.75 2.766.295 6.327-.334 8.666-.405 1.508-.117 2.373-.666 3.667-1.921 4.523-6.182 9.043-10.667 11-2.078.907-4.443.699-6.667 1.667-1.43.622-3.066 2.072-4.666 2.666l-6.334 1c-3.278 1.176-5.092 2.89-10 3-1.41 4.574-6.174 5.561-9 8.667-1.721 1.892-3.119 3.946-5.333 5.333-1.27.796-2.76.83-4 1.667l-1.667 2c-1.703 1.259-3.715 2.813-5.666 3.667-1.347.588-2.609.375-4 1-.547.245-.891 1.028-1.334 1.333-1.652 1.14-4.083 2.347-6 3-1.893.645-3.471.078-5.666.667-3.304.885-7.824 3.842-12.667 2.666-2.041-.495-4.487-.542-6.333-1.333-.969-.415-2.07-1.669-3-2h-3c-2.353-.584-4.868-.752-7-1.667-2.694-1.156-4.47-4.319-7.667-4.666-.838.692-1.921.439-3 1-2.47 1.283-4.179 3.538-7.667 4zM102 63.667l-.667 7.666c.904 2.823 3.261 4.433 4.667 6.667 1.413 2.245 1.865 5.183 3 7.667 1.237-.513 3.16-.901 4.333-1.667 1.656-1.081 3.114-2.68 5-3.667l4-1.333v-5.333c-2.084-2.617-1.071-8.327-.666-11.667-6.551.365-12.666 1.61-19.667 1.667zM147.667 112c-1.643 2.098-4.646 1.54-7 3-1.506.934-2.898 2.573-4.667 3.333l-3 .667c-.754.395-1.333 1.524-2 2l-5 2.667c.499.867 3.186 6 3.667 6.333l3 1c.567.349 1.321 1.477 2 1.667 1.259.352 3.542-.759 5.333-.334 3.354.796 6.745-1.022 9.667-.333 1.65.389 3.908.97 5.333 1.333l5-.333c1.586.374 3.711.396 5.333 1 2.344.872 3.811 2.526 7 2.667v-.334c-3.178-2.05-3.601-4.944-5.666-8l-3.334-3L160 119c-4.424-.428-9.426-3.899-11.333-7h-1z" fill="#FFF"/><path d="M140.099 245.087c3.082 0 9.226-2.698 9.226-2.698 3.748-1.646 6.675.515 6.675 4.611v64.667h141A14.6 14.6 0 0 0 311.667 297V155.667h-8-56.334c-4.085.005-6.267 3.263-4.624 7.011 0 0 2.695 6.15 2.695 9.236 0 5.942-4.812 10.759-10.748 10.759-5.938 0-10.749-4.817-10.749-10.759 0-3.086 2.693-9.236 2.693-9.236 1.644-3.748-.514-7.006-4.6-7.011L156 156v65.667c0 4.097-2.927 6.244-6.675 4.598 0 0-6.144-2.697-9.226-2.697-5.936 0-10.748 4.816-10.748 10.759 0 5.943 4.812 10.76 10.748 10.76z" fill="url(#b)" filter="url(#c)"/><path d="M156 156l-64.71-.142c-4.095 0-6.099 3.07-4.455 6.821 0 0 2.696 6.15 2.696 9.236 0 5.942-4.814 10.759-10.753 10.759s-10.752-4.817-10.752-10.759c0-3.086 2.696-9.236 2.696-9.236 1.645-3.751-.36-6.821-4.454-6.821L.63 155.857H.347l.011 141.05c.001 8.151 6.6 14.76 14.746 14.769L156 311.667V247c-.005-4.089-2.927-6.256-6.673-4.611 0 0-6.146 2.698-9.229 2.698-5.939 0-10.752-4.817-10.752-10.76s4.813-10.76 10.752-10.76c3.083 0 9.229 2.698 9.229 2.698 3.746 1.644 6.668-.509 6.673-4.598V156z" fill="url(#d)" filter="url(#e)"/><path d="M172.577 67.435c-3.085 0-9.233 2.696-9.233 2.696-3.751 1.645-7.011-.37-7.011-4.465V0H15.1C6.945 0 .333 6.609.333 14.761V156h66.334c3.892.147 5.661 3.028 4.057 6.684 0 0-2.697 6.147-2.697 9.23 0 5.939 4.816 10.753 10.758 10.753 5.941 0 10.756-4.814 10.756-10.753 0-3.083-2.698-9.23-2.698-9.23-1.645-3.749.394-6.684 4.49-6.684H97c.096.004 3.901 0 4 0h55.667l-.143-65.301c0-4.095 3.069-6.098 6.82-4.454 0 0 6.148 2.696 9.233 2.696 5.941 0 10.756-4.814 10.756-10.753s-4.815-10.753-10.756-10.753z" fill="url(#f)" filter="url(#g)"/><path d="M245.349 171.914c0-3.083-2.696-9.23-2.696-9.23-1.644-3.749.36-6.817 4.456-6.817l64.558.133V14.667c0-8.153-5.846-14.667-14-14.667H156.333v65.666c.006 4.087 3.438 6.094 7.184 4.451 0 0 6.147-2.697 9.232-2.697 5.939 0 10.754 4.815 10.754 10.754 0 5.94-4.815 10.753-10.754 10.753-3.085 0-9.232-2.695-9.232-2.695-3.746-1.644-7.178.347-7.184 4.435V156H164l58.081-.133c4.095 0 6.101 3.068 4.455 6.817 0 0-2.697 6.147-2.697 9.23 0 5.939 4.815 10.753 10.755 10.753 5.941 0 10.755-4.814 10.755-10.753z" fill="url(#h)" filter="url(#i)"/><path d="M15.048.053h282.238c8.097 0 14.661 6.564 14.661 14.661v282.238c0 8.098-6.564 14.662-14.661 14.662H15.048c-8.098 0-14.662-6.564-14.662-14.662V14.714C.386 6.617 6.95.053 15.048.053z" fill="none" stroke="#C4C4C4" stroke-opacity=".85" stroke-width=".333"/></svg>