<svg xmlns="http://www.w3.org/2000/svg" width="66" height="84" viewBox="0 0 66 84"><path d="M61.254 80.583c.004.02.006.04.009.061-6.8 1.795-16.725 2.731-26.796 2.814-.099.001-.201.003-.303.003-.422.003-.845.003-1.271.003-.424 0-.847 0-1.272-.003-.101 0-.203-.002-.302-.003-10.071-.083-19.996-1.019-26.796-2.814l.008-.061c-1.574-.424-2.983-.893-4.173-1.411 0 0 .81-13.789 2.499-17.155 1.506-3.004 4.939-5.371 11.147-7.792l.021-.05a115.51 115.51 0 0 1 5.915-2.077c-.529 1.798-.685 4.539.517 8.594 2.586 8.723 11.853 19.459 12.45 20.114.569-.654 9.837-11.39 12.423-20.114 1.201-4.055 1.047-6.796.517-8.594 2.124.689 4.111 1.382 5.913 2.077l.022.05c6.209 2.421 9.641 4.788 11.147 7.792 1.689 3.366 2.498 17.155 2.498 17.155-1.189.518-2.598.987-4.173 1.411zm-4.383-8.875a1.223 1.223 0 0 0-1.363-1.06 127.879 127.879 0 0 1-7.859.718c-.417.024-.637.033-.637.033a1.22 1.22 0 1 0 .103 2.435c.023-.001 3.754-.159 8.692-.767a1.22 1.22 0 0 0 1.064-1.359zm-6.265-37.413c-.428.482-.925.905-1.51 1.193-1.111 4.05-2.901 7.663-5.489 10.34-2.703 2.806-6.328 4.543-10.742 4.533-4.356.01-7.981-1.727-10.685-4.533-2.588-2.677-4.378-6.29-5.489-10.34-.585-.288-1.083-.711-1.509-1.193-.578-.657-1.043-1.439-1.423-2.279-.756-1.685-1.178-3.593-1.183-5.247 0-.304.015-.6.048-.886.124-1.144.531-2.126 1.192-2.853.377-.417.833-.712 1.315-.95C12.84 7.994 21.112 5.535 21.112 5.535s6.278-7.72 17.503-4.364c11.823 3.535 13.213 13.776 12.169 19.302a29.493 29.493 0 0 1-.325 1.502c.557.246 1.082.58 1.511 1.055.661.727 1.069 1.709 1.194 2.851.032.288.047.583.047.887-.002 1.242-.245 2.623-.68 3.95-.439 1.325-1.062 2.591-1.925 3.577zm.255-8.156c-.09-.778-.322-1.238-.612-1.562a2.003 2.003 0 0 0-.422-.343c-.945 2.932-1.986 4.632-1.986 4.633l-.711-6.068-.273-2.326c-9.323 0-13.642-5.371-17.568-8.392-3.926-3.021-6.298 1.343-6.298 1.343-2.464 0-3.708 4.102-4.339 8.189h-.002l-.009.075a53.105 53.105 0 0 0-.392 3.278l-.121 1.581c-.119 1.861-.126 3.157-.126 3.157-.527-.405-1.37-2.982-2.191-5.373a2.004 2.004 0 0 0-.274.245c-.289.325-.52.785-.611 1.565-.021.188-.033.4-.033.628-.001.933.198 2.123.564 3.229.361 1.108.898 2.136 1.465 2.772.377.43.746.666 1.04.745l.646.179.166.648c1.021 4.007 2.733 7.47 5.074 9.883 2.346 2.407 5.264 3.812 9.089 3.826 3.737-.014 6.656-1.419 9.002-3.826 2.341-2.413 4.053-5.876 5.074-9.883l.165-.648.647-.179c.294-.079.664-.315 1.041-.745.376-.424.743-1.022 1.05-1.703.617-1.357.983-3.053.978-4.299 0-.227-.012-.439-.033-.629z" fill="#57585B"/><path d="M47.491 25.559h-.792c-.018.177-.043.141-.074.335a24.655 24.655 0 0 1-.456 2.152l-.025.083c-.291.755-.681 1.467-1.295 2.002-.61.537-1.437.847-2.423.844h-3.587c-.58-.004-1.249-.16-1.894-.472-.637-.315-1.265-.794-1.625-1.535-.148-.314-.265-.696-.381-1.132-.261-.979-.488-1.84-.585-2.38h-2.855c-.098.54-.324 1.401-.584 2.38-.117.436-.234.818-.382 1.132-.36.741-.987 1.22-1.624 1.535-.646.312-1.315.468-1.895.472h-3.586c-.987.003-1.813-.307-2.424-.844-.614-.535-1.003-1.247-1.295-2.002l-.026-.083c-.002-.009-.283-1.077-.456-2.152-.029-.194-.055-.158-.072-.335h-.792c-.055 0-.104-.027-.157-.045l.121-1.581h.891s.085-1.443 2.361-1.655h7.661c.944 0 1.754.592 2.115 1.437h3.144c.361-.845 1.171-1.437 2.115-1.437h7.66c2.277.212 2.362 1.655 2.362 1.655h.732l.188 1.607c-.022.003-.043.019-.065.019zm-18.633-1.602h-6.913a1.061 1.061 0 0 0-.564.175 1.195 1.195 0 0 0-.405.417.665.665 0 0 0-.084.316c-.001.117.02.336.057.581.037.247.088.526.142.797.109.546.233 1.06.292 1.301.216.558.478.994.809 1.279.338.288.75.468 1.42.472h3.237c.302.003.787-.103 1.201-.308.421-.203.762-.503.902-.808.056-.117.144-.37.227-.668.082-.298.166-.646.242-.991.15-.69.272-1.362.327-1.667-.02-.498-.409-.896-.89-.896zm16.103.86a.637.637 0 0 0-.084-.268 1.195 1.195 0 0 0-.405-.417 1.055 1.055 0 0 0-.563-.175h-6.914c-.481 0-.869.398-.881.938.046.263.168.935.318 1.625.076.345.16.693.243.991.082.298.17.551.228.668.139.305.48.605.9.808.415.205.899.311 1.201.308h3.238c.669-.004 1.082-.184 1.419-.472.331-.285.593-.721.819-1.321.05-.199.173-.713.283-1.259.054-.271.105-.55.142-.797.036-.245.058-.464.056-.581v-.048zM18.727 20.58h.002l-.011.074.009-.074zm10.942 34.732l3.212.215 3.213-.215 1.774 4.432-3.104 2.658 2.438 9.441-4.21 5.761-4.432-5.761 2.437-9.441-3.102-2.658 1.774-4.432z" fill="#FF2F4F"/></svg>