<svg version="1.1" xmlns="http://www.w3.org/2000/svg" xmlns:xlink="http://www.w3.org/1999/xlink" width="66" height="92" viewBox="0 0 66 92"><g id="-Block8_icon1.1"><path id="Shape-48" d="M61.121,88.868 C61.123,88.890 61.127,88.910 61.129,88.929 C59.221,89.435 57.058,89.868 54.708,90.278 C48.775,91.205 41.699,91.699 34.545,91.758 C34.446,91.760 34.344,91.761 34.243,91.762 C33.822,91.764 33.399,91.764 32.974,91.764 C32.552,91.764 32.129,91.764 31.706,91.762 C31.605,91.761 31.504,91.760 31.405,91.758 C24.250,91.699 17.177,91.205 11.229,90.238 C8.894,89.869 6.729,89.435 4.822,88.929 C4.824,88.910 4.827,88.890 4.829,88.868 C3.259,88.444 1.853,87.976 0.666,87.458 C0.666,87.458 2.019,74.553 3.210,70.980 C4.208,67.989 8.946,64.001 14.182,62.506 C18.113,61.383 20.915,60.761 22.911,60.263 C22.911,60.263 22.967,61.032 23.176,62.391 C21.957,62.802 19.958,63.317 18.023,63.819 C18.023,63.819 18.008,64.030 18.008,64.030 C17.602,69.885 20.713,75.349 25.839,78.211 C28.236,79.550 37.715,79.550 40.113,78.211 C45.238,75.349 48.350,69.885 47.944,64.031 C47.944,64.031 47.930,63.837 47.930,63.837 C45.420,63.209 42.745,62.580 42.745,62.580 C42.745,62.580 43.041,60.263 43.041,60.263 C45.036,60.761 47.838,61.383 51.769,62.506 C57.006,64.001 61.744,67.989 62.741,70.980 C63.933,74.553 65.284,87.458 65.284,87.458 C64.098,87.976 62.692,88.444 61.121,88.868 zM14.962,64.635 C10.021,65.991 6.028,69.681 5.356,71.694 C4.565,74.066 3.590,81.693 3.104,85.980 C3.802,86.221 4.576,86.458 5.421,86.685 C5.421,86.685 6.481,87.015 6.481,87.015 C7.696,87.306 9.023,87.573 10.437,87.817 C10.002,86.396 9.701,85.182 9.701,84.544 C9.701,83.817 10.123,82.701 10.704,81.509 C13.091,76.608 14.411,71.257 14.864,65.825 C14.864,65.825 14.963,64.637 14.963,64.637 C14.962,64.636 14.962,64.636 14.962,64.635 zM60.595,71.694 C59.924,69.681 55.930,65.990 50.988,64.635 C50.988,64.635 50.988,64.635 50.988,64.636 C50.988,64.636 51.087,65.823 51.087,65.823 C51.540,71.256 52.860,76.609 55.248,81.510 C55.828,82.701 56.250,83.817 56.250,84.544 C56.250,85.182 55.949,86.396 55.513,87.819 C56.635,87.626 57.701,87.417 58.699,87.195 C58.697,87.180 60.531,86.685 60.531,86.685 C61.375,86.458 62.149,86.221 62.847,85.980 C62.360,81.693 61.386,74.066 60.595,71.694 zM18.835,42.315 C18.835,42.315 18.998,43.209 18.998,43.209 C19.428,44.891 20.002,46.434 20.688,47.836 C19.605,47.131 18.769,46.370 18.132,45.629 C18.192,44.741 18.048,43.347 17.799,42.664 C18.207,42.633 18.587,42.522 18.835,42.315 zM51.237,44.126 C50.492,44.705 49.681,44.999 48.816,45.014 C48.783,45.014 48.749,45.006 48.715,45.004 C46.131,53.483 40.171,58.715 32.963,58.715 C28.026,58.715 23.603,56.129 20.496,51.756 C21.509,52.187 22.758,52.553 24.276,52.845 C26.700,55.182 29.678,56.497 32.963,56.497 C38.759,56.498 43.651,52.431 46.124,45.740 C46.422,44.934 46.692,44.096 46.921,43.200 C46.921,43.200 47.082,42.315 47.082,42.315 C47.684,42.815 49.034,42.815 49.781,42.252 C51.241,41.151 52.447,37.841 51.961,34.733 C51.849,34.020 51.583,33.097 50.950,32.751 C50.520,32.515 49.987,32.568 49.627,32.648 C49.025,34.978 48.225,37.062 47.246,38.170 C47.246,38.170 47.737,32.870 47.236,28.851 C45.413,26.508 41.924,24.989 33.284,23.880 C27.167,23.094 24.737,20.832 23.813,18.825 C21.244,21.308 19.346,24.454 18.700,27.038 C17.703,31.025 18.367,38.170 18.367,38.170 C17.117,36.754 16.154,33.752 15.528,30.669 C15.528,30.669 15.085,28.673 14.266,28.223 C14.266,28.223 14.266,25.966 14.266,25.966 C14.266,24.687 14.413,23.380 14.589,22.268 C15.395,19.344 16.716,16.391 18.854,13.982 C20.825,11.762 23.330,10.218 26.333,9.345 C26.557,9.285 26.779,9.224 27.009,9.170 C27.112,9.144 27.218,9.125 27.321,9.100 C28.937,8.749 30.718,8.555 32.690,8.557 C35.134,8.571 37.287,8.884 39.214,9.440 C39.477,9.517 39.724,9.607 39.977,9.691 C47.275,12.326 50.248,18.934 51.296,25.458 C51.301,25.628 51.305,25.797 51.305,25.966 C51.305,27.784 51.305,29.655 51.305,30.360 C51.566,30.433 51.829,30.526 52.089,30.669 C53.278,31.319 54.024,32.563 54.306,34.367 C54.883,38.055 53.535,42.343 51.237,44.126 zM19.838,51.154 C20.181,51.475 20.441,51.714 20.476,51.729 C20.483,51.739 20.490,51.747 20.496,51.756 C20.309,51.677 20.128,51.596 19.957,51.512 C19.957,51.512 19.838,51.154 19.838,51.154 zM25.432,5.792 C26.257,2.483 29.240,0.029 32.806,0.029 C36.427,0.029 39.445,2.558 40.215,5.944 C34.089,4.582 30.521,4.658 25.432,5.792 z" fill="#57585B" /><path id="Shape-49" d="M10.269,42.354 C10.560,44.012 12.309,45.318 13.809,45.520 C14.177,46.183 14.631,46.885 15.197,47.592 C16.360,49.046 17.994,50.505 20.241,51.589 C20.345,51.639 20.470,51.684 20.580,51.733 C21.375,52.070 22.003,52.457 24.383,52.849 C25.885,53.138 27.519,53.316 29.129,53.361 C29.371,53.813 29.844,54.124 30.394,54.124 C30.394,54.124 35.408,54.124 35.408,54.124 C36.204,54.124 36.849,53.480 36.849,52.686 C36.849,52.686 36.849,51.909 36.849,51.909 C36.849,51.113 36.204,50.470 35.408,50.470 C35.408,50.470 30.394,50.470 30.394,50.470 C29.790,50.470 29.276,50.840 29.060,51.366 C26.014,51.265 22.899,50.657 21.111,49.795 C18.390,48.479 16.754,46.575 15.755,44.893 C16.645,43.975 16.608,42.495 16.608,42.495 C16.608,42.495 14.943,33.191 14.943,33.191 C14.357,30.482 12.653,29.896 12.257,29.795 C12.634,21.658 15.711,7.217 32.805,7.238 C49.160,7.330 52.557,20.747 53.100,28.964 C53.728,29.231 54.255,29.623 54.665,30.114 C54.474,13.750 46.751,7.647 40.338,5.954 C34.117,4.312 31.062,4.622 25.541,5.802 C19.113,7.671 10.865,13.378 10.734,30.315 C9.370,31.132 8.574,32.671 8.853,34.264 C8.853,34.264 10.269,42.354 10.269,42.354 z" fill="#FF2F4F" /></g></svg>