<svg version="1.1" xmlns="http://www.w3.org/2000/svg" xmlns:xlink="http://www.w3.org/1999/xlink" width="66" height="84" viewBox="0 0 66 84"><g id="-Block8_icon.2.2"><path id="Shape-50" d="M61.254,80.583 C61.258,80.603 61.260,80.623 61.263,80.644 C54.463,82.439 44.538,83.375 34.467,83.458 C34.368,83.459 34.266,83.461 34.164,83.461 C33.742,83.464 33.319,83.464 32.893,83.464 C32.469,83.464 32.046,83.464 31.621,83.461 C31.520,83.461 31.418,83.459 31.319,83.458 C21.248,83.375 11.323,82.439 4.523,80.644 C4.525,80.623 4.529,80.603 4.531,80.583 C2.957,80.159 1.548,79.690 0.358,79.172 C0.358,79.172 1.168,65.383 2.857,62.017 C4.363,59.013 7.796,56.646 14.004,54.225 C14.011,54.208 14.019,54.191 14.025,54.175 C15.828,53.480 17.815,52.786 19.940,52.098 C19.411,53.896 19.255,56.637 20.457,60.692 C23.043,69.415 32.310,80.151 32.907,80.806 C33.476,80.152 42.744,69.416 45.330,60.692 C46.531,56.637 46.377,53.896 45.847,52.098 C47.971,52.787 49.958,53.480 51.760,54.175 C51.767,54.191 51.775,54.208 51.782,54.225 C57.991,56.646 61.423,59.013 62.929,62.017 C64.618,65.383 65.427,79.172 65.427,79.172 C64.238,79.690 62.829,80.159 61.254,80.583 zM56.871,71.708 C56.788,71.040 56.177,70.566 55.508,70.648 C53.087,70.946 50.957,71.134 49.435,71.247 C48.674,71.304 48.066,71.342 47.649,71.366 C47.232,71.390 47.012,71.399 47.012,71.399 C46.337,71.428 45.813,71.995 45.842,72.668 C45.871,73.341 46.441,73.863 47.115,73.834 C47.138,73.833 50.869,73.675 55.807,73.067 C56.478,72.984 56.953,72.376 56.871,71.708 zM50.606,34.295 C50.178,34.777 49.681,35.200 49.096,35.488 C47.985,39.538 46.195,43.151 43.607,45.828 C40.904,48.634 37.279,50.371 32.865,50.361 C28.509,50.371 24.884,48.634 22.180,45.828 C19.592,43.151 17.802,39.538 16.691,35.488 C16.106,35.200 15.608,34.777 15.182,34.295 C14.604,33.638 14.139,32.856 13.759,32.016 C13.003,30.331 12.581,28.423 12.576,26.769 C12.576,26.465 12.591,26.169 12.624,25.883 C12.748,24.739 13.155,23.757 13.816,23.030 C14.193,22.613 14.649,22.318 15.131,22.080 C12.840,7.994 21.112,5.535 21.112,5.535 C21.112,5.535 27.390,-2.185 38.615,1.171 C50.438,4.706 51.828,14.947 50.784,20.473 C50.686,20.997 50.575,21.494 50.459,21.975 C51.016,22.221 51.541,22.555 51.970,23.030 C52.631,23.757 53.039,24.739 53.164,25.881 C53.196,26.169 53.211,26.464 53.211,26.768 C53.209,28.010 52.966,29.391 52.531,30.718 C52.092,32.043 51.469,33.309 50.606,34.295 zM50.861,26.139 C50.771,25.361 50.539,24.901 50.249,24.577 C50.129,24.445 49.986,24.334 49.827,24.234 C48.882,27.166 47.841,28.866 47.841,28.867 C47.841,28.867 47.130,22.799 47.130,22.799 C47.130,22.799 46.857,20.473 46.857,20.473 C37.534,20.473 33.215,15.102 29.289,12.081 C25.363,9.060 22.991,13.424 22.991,13.424 C20.527,13.424 19.283,17.526 18.652,21.613 C18.652,21.613 18.650,21.613 18.650,21.613 C18.650,21.613 18.641,21.688 18.641,21.688 C18.469,22.813 18.341,23.934 18.249,24.966 C18.249,24.966 18.128,26.547 18.128,26.547 C18.009,28.408 18.002,29.704 18.002,29.704 C17.475,29.299 16.632,26.722 15.811,24.331 C15.712,24.406 15.619,24.486 15.537,24.576 C15.248,24.901 15.017,25.361 14.926,26.141 C14.905,26.329 14.893,26.541 14.893,26.769 C14.892,27.702 15.091,28.892 15.457,29.998 C15.818,31.106 16.355,32.134 16.922,32.770 C17.299,33.200 17.668,33.436 17.962,33.515 C17.962,33.515 18.608,33.694 18.608,33.694 C18.608,33.694 18.774,34.342 18.774,34.342 C19.795,38.349 21.507,41.812 23.848,44.225 C26.194,46.632 29.112,48.037 32.937,48.051 C36.674,48.037 39.593,46.632 41.939,44.225 C44.280,41.812 45.992,38.349 47.013,34.342 C47.013,34.342 47.178,33.694 47.178,33.694 C47.178,33.694 47.825,33.515 47.825,33.515 C48.119,33.436 48.489,33.200 48.866,32.770 C49.242,32.346 49.609,31.748 49.916,31.067 C50.533,29.710 50.899,28.014 50.894,26.768 C50.894,26.541 50.882,26.329 50.861,26.139 z" fill="#57585B" /><path id="Shape-51" d="M47.491,25.559 C47.491,25.559 46.699,25.559 46.699,25.559 C46.681,25.736 46.656,25.700 46.625,25.894 C46.454,26.969 46.172,28.037 46.169,28.046 C46.169,28.046 46.144,28.129 46.144,28.129 C45.853,28.884 45.463,29.596 44.849,30.131 C44.239,30.668 43.412,30.978 42.426,30.975 C42.426,30.975 38.839,30.975 38.839,30.975 C38.259,30.971 37.590,30.815 36.945,30.503 C36.308,30.188 35.680,29.709 35.320,28.968 C35.172,28.654 35.055,28.272 34.939,27.836 C34.678,26.857 34.451,25.996 34.354,25.456 C34.354,25.456 31.499,25.456 31.499,25.456 C31.401,25.996 31.175,26.857 30.915,27.836 C30.798,28.272 30.681,28.654 30.533,28.968 C30.173,29.709 29.546,30.188 28.909,30.503 C28.263,30.815 27.594,30.971 27.014,30.975 C27.014,30.975 23.428,30.975 23.428,30.975 C22.441,30.978 21.615,30.668 21.004,30.131 C20.390,29.596 20.001,28.884 19.709,28.129 C19.709,28.129 19.683,28.046 19.683,28.046 C19.681,28.037 19.400,26.969 19.227,25.894 C19.198,25.700 19.172,25.736 19.155,25.559 C19.155,25.559 18.363,25.559 18.363,25.559 C18.308,25.559 18.259,25.532 18.206,25.514 C18.206,25.514 18.327,23.933 18.327,23.933 C18.685,23.933 19.218,23.933 19.218,23.933 C19.218,23.933 19.303,22.490 21.579,22.278 C21.579,22.278 29.240,22.278 29.240,22.278 C30.184,22.278 30.994,22.870 31.355,23.715 C31.355,23.715 34.499,23.715 34.499,23.715 C34.860,22.870 35.670,22.278 36.614,22.278 C36.614,22.278 44.274,22.278 44.274,22.278 C46.551,22.490 46.636,23.933 46.636,23.933 C46.636,23.933 47.030,23.933 47.368,23.933 C47.368,23.933 47.556,25.540 47.556,25.540 C47.534,25.543 47.513,25.559 47.491,25.559 zM28.858,23.957 C28.858,23.957 21.945,23.957 21.945,23.957 C21.761,23.956 21.559,24.018 21.381,24.132 C21.203,24.244 21.056,24.401 20.976,24.549 C20.921,24.651 20.896,24.743 20.892,24.865 C20.891,24.982 20.912,25.201 20.949,25.446 C20.986,25.693 21.037,25.972 21.091,26.243 C21.200,26.789 21.324,27.303 21.383,27.544 C21.599,28.102 21.861,28.538 22.192,28.823 C22.530,29.111 22.942,29.291 23.612,29.295 C23.612,29.295 26.849,29.295 26.849,29.295 C27.151,29.298 27.636,29.192 28.050,28.987 C28.471,28.784 28.812,28.484 28.952,28.179 C29.008,28.062 29.096,27.809 29.179,27.511 C29.261,27.213 29.345,26.865 29.421,26.520 C29.571,25.830 29.693,25.158 29.748,24.853 C29.728,24.355 29.339,23.957 28.858,23.957 zM44.961,24.817 C44.957,24.743 44.933,24.651 44.877,24.549 C44.797,24.401 44.650,24.244 44.472,24.132 C44.295,24.018 44.093,23.956 43.909,23.957 C43.909,23.957 36.995,23.957 36.995,23.957 C36.514,23.957 36.126,24.355 36.114,24.895 C36.160,25.158 36.282,25.830 36.432,26.520 C36.508,26.865 36.592,27.213 36.675,27.511 C36.757,27.809 36.845,28.062 36.903,28.179 C37.042,28.484 37.383,28.784 37.803,28.987 C38.218,29.192 38.702,29.298 39.004,29.295 C39.004,29.295 42.242,29.295 42.242,29.295 C42.911,29.291 43.324,29.111 43.661,28.823 C43.992,28.538 44.254,28.102 44.480,27.502 C44.530,27.303 44.653,26.789 44.763,26.243 C44.817,25.972 44.868,25.693 44.905,25.446 C44.941,25.201 44.963,24.982 44.961,24.865 C44.961,24.818 44.961,24.817 44.961,24.817 zM18.727,20.580 C18.727,20.580 18.729,20.580 18.729,20.580 C18.725,20.604 18.722,20.629 18.718,20.654 C18.718,20.654 18.727,20.580 18.727,20.580 zM29.669,55.312 L32.881,55.527 L36.094,55.312 L37.868,59.744 L34.764,62.402 L37.202,71.843 L32.992,77.604 L28.560,71.843 L30.997,62.402 L27.895,59.744 L29.669,55.312 z" fill="#FF2F4F" /></g></svg>