<svg version="1.1" xmlns="http://www.w3.org/2000/svg" xmlns:xlink="http://www.w3.org/1999/xlink" width="470" height="476" viewBox="0 0 470 476"><defs><linearGradient id="gradient1" gradientUnits="userSpaceOnUse" x1="60.757%" y1="56.571%" x2="134.212%" y2="116.206%" ><stop offset="0%" stop-color="#FFFFFF" /><stop offset="100%" stop-color="#E6E6E6" /></linearGradient><filter id="Shape-46-fx" filterUnits="userSpaceOnUse"><feFlood flood-color="#000000" flood-opacity="0.360"/><feComposite operator="in" in2="SourceAlpha" /><feOffset dx="0.55919290347075" dy="0.82903757255504"/><feGaussianBlur stdDeviation="0.0" result="blur" /><feComposite operator="out" in="blur" in2="SourceAlpha" result="maskedShadow"/><feComposite operator="over" in="maskedShadow" in2="SourceGraphic" result="dropShadow"/><feFlood flood-color="#FAFAFA" /><feComposite operator="in" in2="SourceAlpha" result="sourceFill" /><feBlend mode="normal" in="dropShadow" in2="sourceFill" result="gradientFill" /></filter><linearGradient id="gradient2" gradientUnits="userSpaceOnUse" x1="16.778%" y1="60.822%" x2="79.242%" y2="111.534%" ><stop offset="0%" stop-color="#FFFFFF" /><stop offset="100%" stop-color="#E6E6E6" /></linearGradient><filter id="Shape-47-fx" filterUnits="userSpaceOnUse"><feFlood flood-color="#000000" flood-opacity="0.090"/><feComposite operator="in" in2="SourceAlpha" /><feOffset dx="0.55919290347075" dy="0.82903757255504"/><feGaussianBlur stdDeviation="0.0" result="blur" /><feComposite operator="out" in="blur" in2="SourceAlpha" result="maskedShadow"/><feComposite operator="over" in="maskedShadow" in2="SourceGraphic" result="dropShadow"/><feFlood flood-color="#F1F1F1" /><feComposite operator="in" in2="SourceAlpha" result="sourceFill" /><feBlend mode="normal" in="dropShadow" in2="sourceFill" result="gradientFill" /></filter><linearGradient id="gradient3" gradientUnits="userSpaceOnUse" x1="19.480%" y1="13.775%" x2="92.936%" y2="73.410%" ><stop offset="0%" stop-color="#FFFFFF" /><stop offset="100%" stop-color="#E6E6E6" /></linearGradient><filter id="Shape-45-fx" filterUnits="userSpaceOnUse"><feFlood flood-color="#000000" flood-opacity="0.130"/><feComposite operator="in" in2="SourceAlpha" /><feOffset dx="0.55919290347075" dy="0.82903757255504"/><feGaussianBlur stdDeviation="0.0" result="blur" /><feComposite operator="out" in="blur" in2="SourceAlpha" result="maskedShadow"/><feComposite operator="over" in="maskedShadow" in2="SourceGraphic" result="dropShadow"/><feFlood flood-color="#FAFAFA" /><feComposite operator="in" in2="SourceAlpha" result="sourceFill" /><feBlend mode="normal" in="dropShadow" in2="sourceFill" result="gradientFill" /></filter><linearGradient id="gradient4" gradientUnits="userSpaceOnUse" x1="66.424%" y1="18.128%" x2="129.156%" y2="69.057%" ><stop offset="0%" stop-color="#FFFFFF" /><stop offset="100%" stop-color="#E6E6E6" /></linearGradient><filter id="Shape-44-fx" filterUnits="userSpaceOnUse"><feFlood flood-color="#000000" flood-opacity="0.210"/><feComposite operator="in" in2="SourceAlpha" /><feOffset dx="0.55919290347075" dy="0.82903757255504"/><feGaussianBlur stdDeviation="0.0" result="blur" /><feComposite operator="out" in="blur" in2="SourceAlpha" result="maskedShadow"/><feComposite operator="over" in="maskedShadow" in2="SourceGraphic" result="dropShadow"/><feFlood flood-color="#F1F1F1" /><feComposite operator="in" in2="SourceAlpha" result="sourceFill" /><feBlend mode="normal" in="dropShadow" in2="sourceFill" result="gradientFill" /></filter></defs><g id="-Block8_bg_Icons"><path id="Rounded-Rectangl" d="M22.500,1.188 C22.500,1.188 447.000,1.188 447.000,1.188 C459.150,1.188 469.000,10.850 469.000,23.000 C469.000,23.000 469.000,446.000 469.000,446.000 C469.000,458.150 459.150,467.000 447.000,467.000 C447.000,467.000 23.000,467.000 23.000,467.000 C10.850,467.000 0.500,457.856 0.500,445.706 C0.500,445.706 0.500,23.187 0.500,23.187 C0.500,11.038 10.350,1.188 22.500,1.188 z" fill="#FFFFFF" fill-opacity="0.000" /><path id="Shape-46" d="M210.149,367.333 C214.772,367.333 223.988,363.285 223.988,363.285 C229.610,360.816 234.000,364.057 234.000,370.202 C234.000,370.202 234.000,467.206 234.000,467.206 C234.000,467.206 445.500,467.206 445.500,467.206 C457.724,467.206 468.000,457.236 468.000,445.000 C468.000,445.000 468.000,234.000 468.000,234.000 L456.000,234.000 C456.000,234.000 371.000,234.000 371.000,234.000 C364.873,234.007 361.599,238.092 364.064,243.714 C364.064,243.714 368.106,252.940 368.106,257.569 C368.106,266.482 360.889,273.707 351.984,273.707 C343.078,273.707 335.860,266.482 335.860,257.569 C335.860,252.940 339.900,243.714 339.900,243.714 C342.365,238.092 339.129,234.007 333.000,234.000 C333.000,234.000 234.000,234.000 234.000,234.000 C234.000,234.000 234.000,332.201 234.000,332.201 C234.000,338.346 229.610,341.568 223.988,339.099 C223.988,339.099 214.772,335.053 210.149,335.053 C201.244,335.053 194.027,342.278 194.027,351.192 C194.027,360.106 201.244,367.333 210.149,367.333 z" fill="url(#gradient1)" filter="url(#Shape-46-fx)" /><path id="Shape-47" d="M234.000,234.000 C234.000,234.000 137.000,234.000 137.000,234.000 C130.858,234.000 127.787,238.089 130.253,243.716 C130.253,243.716 134.296,252.941 134.296,257.570 C134.296,266.484 127.076,273.708 118.167,273.708 C109.259,273.708 102.039,266.484 102.039,257.570 C102.039,252.941 106.083,243.716 106.083,243.716 C108.551,238.089 106.142,234.000 100.000,234.000 C100.000,234.000 1.000,234.000 1.000,234.000 L1.000,233.000 C1.000,233.000 1.000,445.000 1.000,445.000 C1.001,457.227 10.781,466.987 23.000,467.000 C23.000,467.000 234.000,467.000 234.000,467.000 C234.000,467.000 234.000,370.202 234.000,370.202 C233.992,364.067 229.609,360.818 223.991,363.285 C223.991,363.285 214.771,367.332 210.146,367.332 C201.238,367.332 194.018,360.106 194.018,351.192 C194.018,342.278 201.238,335.052 210.146,335.052 C214.771,335.052 223.991,339.098 223.991,339.098 C229.609,341.565 233.992,338.335 234.000,332.201 C234.000,332.201 234.000,244.697 234.000,244.697 L234.000,233.697 L234.000,234.000 z" fill="url(#gradient2)" filter="url(#Shape-47-fx)" /><path id="Shape-45" d="M257.866,100.844 C253.239,100.844 244.016,104.888 244.016,104.888 C238.390,107.355 233.000,104.143 233.000,98.000 C233.000,98.000 233.000,-0.000 233.000,-0.000 C233.000,-0.000 21.000,-0.000 21.000,-0.000 C8.767,-0.000 -0.000,9.771 -0.000,22.000 C-0.000,22.000 -0.000,234.000 -0.000,234.000 C-0.000,234.000 99.000,234.000 99.000,234.000 C104.839,234.221 107.492,238.238 105.086,243.723 C105.086,243.723 101.041,252.944 101.041,257.569 C101.041,266.478 108.264,273.698 117.177,273.698 C126.089,273.698 133.311,266.478 133.311,257.569 C133.311,252.944 129.265,243.723 129.265,243.723 C126.797,238.099 129.856,234.000 136.000,234.000 C136.000,234.000 234.000,234.000 234.000,234.000 C234.000,234.000 233.786,135.741 233.786,135.741 C233.786,129.599 238.390,126.594 244.016,129.061 C244.016,129.061 253.239,133.104 257.866,133.104 C266.777,133.104 274.000,125.883 274.000,116.975 C274.000,108.065 266.777,100.844 257.866,100.844 z" fill="url(#gradient3)" filter="url(#Shape-45-fx)" /><path id="Shape-44" d="M368.024,257.569 C368.024,252.944 363.980,243.723 363.980,243.723 C361.513,238.099 364.856,234.000 371.000,234.000 C371.000,234.000 468.000,234.000 468.000,234.000 C468.000,234.000 468.000,22.000 468.000,22.000 C468.000,9.770 457.231,-0.000 445.000,-0.000 C445.000,-0.000 234.000,-0.000 234.000,-0.000 C234.000,-0.000 234.000,98.000 234.000,98.000 C234.008,104.130 239.656,107.332 245.275,104.867 C245.275,104.867 254.496,100.822 259.124,100.822 C268.033,100.822 275.254,108.044 275.254,116.953 C275.254,125.863 268.033,133.084 259.124,133.084 C254.496,133.084 245.275,129.041 245.275,129.041 C239.656,126.575 235.008,129.869 235.000,136.000 C235.000,136.000 235.000,234.000 235.000,234.000 C235.000,234.000 333.000,234.000 333.000,234.000 C339.143,234.000 342.272,238.099 339.804,243.723 C339.804,243.723 335.759,252.944 335.759,257.569 C335.759,266.478 342.980,273.698 351.891,273.698 C360.802,273.698 368.024,266.478 368.024,257.569 z" fill="url(#gradient4)" filter="url(#Shape-44-fx)" /><path id="Rectangle-31" d="M234.000,234.000 L236.000,234.000 L236.000,235.000 L234.000,235.000 L234.000,234.000 z" fill="#C9C9C9" /><g id="Rounded-Rectangl" ><path id="Rounded-Rectangl-stroke" d="M23.428,0.475 C23.428,0.475 446.570,0.475 446.570,0.475 C458.695,0.475 468.525,10.304 468.525,22.430 C468.525,22.430 468.525,444.571 468.525,444.571 C468.525,456.697 458.695,467.525 446.570,467.525 C446.570,467.525 23.428,467.525 23.428,467.525 C11.303,467.525 0.475,456.697 0.475,444.571 C0.475,444.571 0.475,22.430 0.475,22.430 C0.475,10.304 11.303,0.475 23.428,0.475 z" fill="none" stroke="#C4C4C4" stroke-opacity="0.850" stroke-width="1" /></g></g></svg>