<svg xmlns="http://www.w3.org/2000/svg" width="66" height="84" viewBox="0 0 66 84"><path d="M61.492 80.785c.004.021.008.041.01.061-6.8 1.795-16.726 2.73-26.796 2.813-.099.003-.201.004-.302.005-.424.001-.848.002-1.272.001-.425.001-.85 0-1.271-.001-.102-.001-.204-.002-.302-.005-10.07-.083-19.998-1.018-26.797-2.813.002-.02.007-.04.008-.061-1.574-.424-2.984-.891-4.173-1.411 0 0 .81-13.786 2.5-17.15 1.506-3.004 4.937-5.371 11.146-7.791.007-.019.015-.035.02-.051 1.118-.431 2.316-.86 3.564-1.289.709-.245 1.433-.488 2.179-.731.088.928.277 1.828.543 2.686.582 1.867 1.5 3.544 2.417 4.879.634.922 1.252 1.67 1.745 2.22.597-.955 5.197-7.06 5.197-7.06l3.224 1.175 3.222-1.175s4.6 6.106 5.2 7.061a22.405 22.405 0 0 0 1.873-2.414c.874-1.302 1.736-2.907 2.288-4.687.268-.857.453-1.758.542-2.685.746.243 1.47.486 2.179.73 1.25.429 2.446.859 3.562 1.29.006.016.017.032.022.051 6.209 2.42 9.642 4.787 11.147 7.791 1.691 3.364 2.499 17.15 2.499 17.15-1.19.52-2.599.987-4.174 1.411zM28.257 60.95a37.048 37.048 0 0 0-1.492 2.149 25.968 25.968 0 0 0-.8 1.327s-.04.069-.049.089l-.681 1.268-1.069-.969c-.044-.041-1.516-1.38-3.057-3.621-1.064-1.554-2.164-3.558-2.82-5.871-1.02.355-1.982.701-2.87 1.039-.113.07-.229.129-.35.175-5.662 2.207-8.729 4.274-9.945 6.698-.923 1.841-1.764 9.163-2.157 14.638a36.45 36.45 0 0 0 2.395.733c.166.044.324.105.471.183 1.612.406 3.446.765 5.424 1.083.031-1.238.114-3.29.354-5.166l-1.602-5.425a1.112 1.112 0 0 1 2.132-.625l1.668 5.646c.045.149.056.309.034.462-.265 1.935-.346 4.249-.369 5.44 4.3.584 9.221.975 14.454 1.128l2.98-17.014-2.651-3.367zm32.882 2.284c-1.215-2.423-4.282-4.49-9.945-6.698a2.24 2.24 0 0 1-.367-.182 108.61 108.61 0 0 0-2.856-1.029c-.656 2.312-1.754 4.314-2.817 5.868-1.541 2.241-3.014 3.58-3.057 3.621l-1.069.969-.691-1.288c-.102-.185-.947-1.69-2.332-3.543l-2.648 3.365 2.98 17.014c5.232-.153 10.152-.544 14.452-1.129a83.28 83.28 0 0 0-.038-1.276c-.048-1.219-.144-2.793-.333-4.163a1.112 1.112 0 0 1 .036-.462l1.668-5.646a1.11 1.11 0 0 1 2.132.625l-1.602 5.425c.239 1.876.322 3.927.353 5.166 1.982-.319 3.819-.678 5.433-1.085.145-.076.298-.138.463-.181a34.564 34.564 0 0 0 2.395-.734c-.392-5.475-1.232-12.795-2.157-14.637zm-9.68-27.176c-.76.589-1.591.888-2.426.888-.035 0-.073-.01-.109-.011-2.591 8.475-8.567 13.704-15.793 13.704-7.133 0-13.22-5.34-15.792-13.704-.036.001-.073.011-.109.011-.835 0-1.665-.299-2.426-.888-2.304-1.783-3.655-6.068-3.077-9.754.283-1.804 1.032-3.046 2.222-3.696a3.891 3.891 0 0 1 1.773-.456c-.56-2.915-.821-5.835-.732-7.493C15.49 5.36 23.323.045 33.149.045c9.792 0 17.625 5.315 18.125 14.614.089 1.643-.167 4.525-.718 7.413.481.025 1.071.161 1.759.536 1.191.65 1.939 1.893 2.22 3.696.578 3.686-.772 7.971-3.076 9.754zm.725-9.388c-.111-.709-.375-1.628-1.003-1.976-.374-.208-.827-.198-1.178-.138-.606 2.339-1.411 4.436-2.397 5.548 0 0 .667-7.141-.333-11.126-.394-1.572-1.254-3.351-2.444-5.063-2.935 2.876-9.887 8.171-20.41 6.972 0 0 4.25-3.985 6-7.723 0 0-5.251 4.236-10.499 5.482-.33.077-.612.113-.869.132-.017.064-.044.135-.061.2-.999 3.985-.334 11.126-.334 11.126-.984-1.112-1.789-3.209-2.395-5.548-.348-.059-.797-.071-1.169.133-.635.346-.901 1.268-1.014 1.981-.487 3.106.722 6.415 2.186 7.515.749.564 2.103.564 2.705.063l.164.893c2.1 8.193 7.465 13.282 13.998 13.282 6.443 0 11.781-4.985 13.93-13.011l.243-1.064c.5.25 1.706.65 2.696-.163 1.414-1.164 2.671-4.409 2.184-7.515z" fill="#57585B"/><path d="M36.349 57.262l-3.219 1.12-3.216-1.12-1.65 3.751 2.647 3.353-2.976 16.944 5.196 2.325 5.197-2.325-2.975-16.944 2.644-3.351-1.648-3.753z" fill="#FF2F4F"/></svg>