<svg version="1.1" xmlns="http://www.w3.org/2000/svg" xmlns:xlink="http://www.w3.org/1999/xlink" width="66" height="86" viewBox="0 0 66 86"><g id="-Block8_icon3.3"><path id="Shape-53" d="M61.048,82.306 C61.048,82.306 61.056,82.367 61.056,82.367 C54.283,84.154 44.390,85.085 34.355,85.168 C34.256,85.169 34.154,85.170 34.054,85.171 C33.633,85.174 33.211,85.174 32.786,85.174 C32.364,85.174 31.942,85.174 31.519,85.171 C31.418,85.170 31.317,85.169 31.218,85.168 C21.183,85.085 11.292,84.154 4.515,82.367 C4.515,82.367 4.523,82.306 4.523,82.306 C2.955,81.884 1.551,81.418 0.365,80.902 C0.365,80.902 1.172,67.177 2.855,63.827 C4.356,60.836 7.778,58.480 13.965,56.070 C13.965,56.070 13.987,56.020 13.987,56.020 C15.097,55.591 16.291,55.163 17.535,54.736 C18.243,54.493 18.962,54.251 19.706,54.010 C19.793,54.932 19.980,55.828 20.246,56.682 C20.796,58.455 21.654,60.052 22.525,61.348 C23.200,62.350 23.871,63.168 24.394,63.752 C24.990,62.801 28.577,56.721 28.577,56.721 L32.786,59.876 L36.993,56.721 C36.993,56.721 40.581,62.799 41.179,63.750 C41.667,63.203 42.283,62.458 42.915,61.541 C43.831,60.212 44.746,58.544 45.324,56.683 C45.591,55.828 45.777,54.933 45.865,54.010 C46.608,54.251 47.330,54.494 48.039,54.737 C49.283,55.163 50.474,55.591 51.588,56.020 C51.588,56.020 51.610,56.070 51.610,56.070 C57.797,58.480 61.216,60.836 62.716,63.827 C64.400,67.177 65.208,80.902 65.208,80.902 C64.023,81.418 62.618,81.884 61.048,82.306 zM32.786,62.992 C31.874,62.992 31.135,63.729 31.135,64.638 C31.135,65.546 31.874,66.284 32.786,66.284 C33.699,66.284 34.438,65.546 34.438,64.638 C34.438,63.729 33.699,62.992 32.786,62.992 zM32.786,69.234 C31.874,69.234 31.135,69.970 31.135,70.879 C31.135,71.788 31.874,72.525 32.786,72.525 C33.699,72.525 34.438,71.788 34.438,70.879 C34.438,69.970 33.699,69.234 32.786,69.234 zM51.185,37.778 C50.429,38.364 49.601,38.662 48.768,38.662 C48.731,38.662 48.695,38.652 48.659,38.651 C46.096,46.978 40.031,52.294 32.922,52.294 C25.721,52.294 19.767,47.088 17.184,38.651 C17.149,38.652 17.113,38.662 17.076,38.662 C16.243,38.662 15.415,38.364 14.658,37.777 C12.364,36.002 11.017,31.737 11.593,28.066 C11.873,26.272 12.619,25.034 13.806,24.387 C14.469,24.026 15.045,23.886 15.515,23.854 C14.594,20.125 14.044,15.602 15.073,11.780 C13.270,10.536 12.588,10.593 11.186,8.594 C11.186,8.594 11.909,8.949 19.300,5.866 C17.392,5.325 16.420,4.735 16.420,4.735 C19.101,3.846 21.508,3.230 23.685,2.804 C23.685,2.804 22.066,1.097 22.066,1.097 C22.066,1.097 30.633,-0.069 37.922,2.942 C38.217,3.039 38.486,3.134 38.700,3.219 C42.518,4.322 45.576,8.010 45.508,9.034 C45.508,9.034 48.554,8.098 50.546,12.562 C50.994,16.997 50.528,20.874 49.812,23.944 C50.479,23.896 51.268,23.969 52.038,24.387 C53.225,25.034 53.971,26.271 54.252,28.066 C54.829,31.737 53.482,36.002 51.185,37.778 zM51.909,28.430 C51.795,27.721 51.531,26.803 50.899,26.458 C50.189,26.071 49.188,26.468 49.177,26.471 C49.177,26.471 49.146,26.400 49.146,26.400 C48.169,29.500 47.396,31.283 47.362,31.283 C47.362,31.283 47.340,30.223 47.298,28.723 C47.290,28.725 47.282,28.726 47.275,28.728 C47.275,28.728 47.240,27.714 47.240,27.714 C47.249,27.717 47.259,27.718 47.269,27.720 C47.217,26.055 47.146,24.075 47.056,22.374 C47.056,22.374 47.055,22.352 47.055,22.352 C47.055,22.352 47.055,22.352 47.055,22.352 C47.030,21.874 47.003,21.414 46.975,20.995 C46.911,20.055 43.214,14.177 41.827,13.389 C31.862,17.109 25.540,15.144 22.894,14.299 C21.470,15.803 18.549,18.912 18.411,20.995 C18.383,21.414 18.361,21.874 18.342,22.352 C18.342,22.352 18.341,22.352 18.341,22.352 C18.341,22.352 18.341,22.373 18.341,22.373 C18.276,24.075 18.265,26.058 18.274,27.727 C18.284,27.724 18.294,27.722 18.304,27.719 C18.313,27.716 18.322,27.716 18.331,27.714 C18.331,27.714 18.329,28.735 18.329,28.735 C18.321,28.733 18.314,28.732 18.307,28.730 C18.299,28.728 18.291,28.726 18.282,28.725 C18.297,30.236 18.324,31.305 18.324,31.305 C18.139,31.305 17.144,29.288 16.217,26.347 C15.856,26.273 15.349,26.234 14.934,26.464 C14.310,26.811 14.047,27.725 13.936,28.430 C13.450,31.524 14.703,34.755 16.112,35.913 C17.099,36.722 18.300,36.325 18.800,36.075 C18.800,36.075 19.041,37.134 19.041,37.134 C21.182,45.125 26.502,50.088 32.922,50.088 C39.432,50.088 44.778,45.021 46.872,36.865 C46.872,36.865 47.036,35.976 47.036,35.976 C47.636,36.474 48.984,36.474 49.731,35.913 C51.189,34.816 52.394,31.524 51.909,28.430 z" fill="#57585B" /><path id="Shape-52" d="M46.279,28.611 C46.280,28.655 46.283,28.698 46.283,28.742 C46.283,31.935 43.680,34.523 40.471,34.523 C37.259,34.523 34.657,31.935 34.656,28.742 C34.656,28.650 34.659,28.559 34.663,28.469 C34.551,28.420 33.935,28.175 32.748,28.165 C31.561,28.175 30.945,28.420 30.833,28.469 C30.837,28.559 30.840,28.650 30.840,28.742 C30.840,31.935 28.238,34.523 25.026,34.523 C21.817,34.523 19.214,31.935 19.212,28.742 C19.212,28.698 19.216,28.655 19.217,28.611 C19.217,28.611 18.272,28.611 18.272,28.611 C18.251,28.611 18.232,28.605 18.212,28.600 C18.212,28.600 18.212,27.578 18.212,27.578 C18.232,27.573 18.251,27.567 18.272,27.567 C18.272,27.567 19.276,27.567 19.276,27.567 C19.294,27.567 19.313,27.571 19.332,27.573 C19.875,24.940 22.219,22.961 25.026,22.961 C27.837,22.961 30.182,24.945 30.723,27.581 C31.071,27.465 31.721,27.310 32.682,27.294 C32.704,27.294 32.725,27.294 32.748,27.295 C32.771,27.294 32.792,27.294 32.813,27.297 C33.776,27.310 34.426,27.465 34.773,27.581 C35.315,24.945 37.658,22.961 40.471,22.961 C43.278,22.961 45.621,24.940 46.164,27.573 C46.183,27.571 46.202,27.567 46.220,27.567 C46.220,27.567 47.322,27.568 47.322,27.568 L47.357,28.586 C47.357,28.586 46.279,28.611 46.279,28.611 zM28.446,25.340 C27.571,24.469 26.363,23.932 25.026,23.931 C23.690,23.932 22.482,24.469 21.605,25.340 C20.887,26.054 20.395,26.989 20.242,28.034 C20.251,28.070 20.256,28.108 20.256,28.147 C20.256,28.222 20.237,28.292 20.205,28.355 C20.194,28.483 20.190,28.612 20.190,28.742 C20.190,30.071 20.730,31.273 21.605,32.144 C22.482,33.015 23.690,33.553 25.026,33.554 C26.363,33.553 27.571,33.015 28.446,32.144 C29.324,31.273 29.864,30.071 29.864,28.742 C29.864,27.412 29.324,26.212 28.446,25.340 zM45.289,28.355 C45.260,28.292 45.240,28.222 45.240,28.147 C45.240,28.108 45.245,28.070 45.253,28.034 C45.101,26.989 44.607,26.054 43.890,25.340 C43.014,24.469 41.807,23.932 40.471,23.931 C39.134,23.932 37.925,24.469 37.048,25.340 C36.173,26.212 35.632,27.412 35.632,28.742 C35.632,30.071 36.173,31.273 37.048,32.144 C37.925,33.015 39.134,33.553 40.471,33.554 C41.807,33.553 43.014,33.015 43.890,32.144 C44.765,31.273 45.306,30.071 45.306,28.742 C45.306,28.612 45.300,28.483 45.289,28.355 zM18.212,31.181 C18.212,31.181 18.212,31.167 18.212,31.167 C18.212,31.170 18.213,31.182 18.213,31.182 L18.212,31.181 zM32.796,62.983 C33.713,62.983 34.456,63.723 34.456,64.635 C34.456,65.547 33.713,66.287 32.796,66.287 C31.879,66.287 31.136,65.547 31.136,64.635 C31.136,63.723 31.879,62.983 32.796,62.983 zM32.796,69.249 C33.713,69.249 34.456,69.988 34.456,70.901 C34.456,71.813 33.713,72.553 32.796,72.553 C31.879,72.553 31.136,71.813 31.136,70.901 C31.136,69.988 31.879,69.249 32.796,69.249 z" fill="#FF2F4F" /></g></svg>