<svg version="1.1" xmlns="http://www.w3.org/2000/svg" xmlns:xlink="http://www.w3.org/1999/xlink" width="312" height="318" viewBox="0 0 312 318"><defs><filter id="Rounded-Rectangl-fx" filterUnits="userSpaceOnUse"><feFlood flood-color="#000000" flood-opacity="0.150"/><feComposite operator="in" in2="SourceAlpha" /><feOffset dx="0.10471443862368" dy="5.99908617093834"/><feGaussianBlur stdDeviation="0.0" result="blur" /><feComposite operator="out" in="blur" in2="SourceAlpha" result="maskedShadow"/><feComposite operator="over" in="maskedShadow" in2="SourceGraphic" result="dropShadow"/></filter><linearGradient id="gradient1" gradientUnits="userSpaceOnUse" x1="42.897%" y1="47.987%" x2="116.532%" y2="107.388%" ><stop offset="0%" stop-color="#FFFFFF" /><stop offset="100%" stop-color="#E6E6E6" /></linearGradient><filter id="Shape-46-fx" filterUnits="userSpaceOnUse"><feFlood flood-color="#000000" flood-opacity="0.360"/><feComposite operator="in" in2="SourceAlpha" /><feOffset dx="0" dy="0"/><feGaussianBlur stdDeviation="0.0" result="blur" /><feComposite operator="out" in="blur" in2="SourceAlpha" result="maskedShadow"/><feComposite operator="over" in="maskedShadow" in2="SourceGraphic" result="dropShadow"/><feFlood flood-color="#FAFAFA" /><feComposite operator="in" in2="SourceAlpha" result="sourceFill" /><feBlend mode="normal" in="dropShadow" in2="sourceFill" result="gradientFill" /></filter><linearGradient id="gradient2" gradientUnits="userSpaceOnUse" x1="1.340%" y1="52.392%" x2="64.205%" y2="103.106%" ><stop offset="0%" stop-color="#FFFFFF" /><stop offset="100%" stop-color="#E6E6E6" /></linearGradient><filter id="Shape-47-fx" filterUnits="userSpaceOnUse"><feFlood flood-color="#000000" flood-opacity="0.360"/><feComposite operator="in" in2="SourceAlpha" /><feOffset dx="0" dy="0"/><feGaussianBlur stdDeviation="0.0" result="blur" /><feComposite operator="out" in="blur" in2="SourceAlpha" result="maskedShadow"/><feComposite operator="over" in="maskedShadow" in2="SourceGraphic" result="dropShadow"/><feFlood flood-color="#F1F1F1" /><feComposite operator="in" in2="SourceAlpha" result="sourceFill" /><feBlend mode="normal" in="dropShadow" in2="sourceFill" result="gradientFill" /></filter><linearGradient id="gradient3" gradientUnits="userSpaceOnUse" x1="1.557%" y1="3.838%" x2="75.460%" y2="63.457%" ><stop offset="0%" stop-color="#FFFFFF" /><stop offset="100%" stop-color="#E6E6E6" /></linearGradient><filter id="Shape-45-fx" filterUnits="userSpaceOnUse"><feFlood flood-color="#000000" flood-opacity="0.360"/><feComposite operator="in" in2="SourceAlpha" /><feOffset dx="0" dy="0"/><feGaussianBlur stdDeviation="0.0" result="blur" /><feComposite operator="out" in="blur" in2="SourceAlpha" result="maskedShadow"/><feComposite operator="over" in="maskedShadow" in2="SourceGraphic" result="dropShadow"/><feFlood flood-color="#FAFAFA" /><feComposite operator="in" in2="SourceAlpha" result="sourceFill" /><feBlend mode="normal" in="dropShadow" in2="sourceFill" result="gradientFill" /></filter><linearGradient id="gradient4" gradientUnits="userSpaceOnUse" x1="51.337%" y1="8.345%" x2="114.068%" y2="58.951%" ><stop offset="0%" stop-color="#FFFFFF" /><stop offset="100%" stop-color="#E6E6E6" /></linearGradient><filter id="Shape-44-fx" filterUnits="userSpaceOnUse"><feFlood flood-color="#000000" flood-opacity="0.360"/><feComposite operator="in" in2="SourceAlpha" /><feOffset dx="0" dy="0"/><feGaussianBlur stdDeviation="0.0" result="blur" /><feComposite operator="out" in="blur" in2="SourceAlpha" result="maskedShadow"/><feComposite operator="over" in="maskedShadow" in2="SourceGraphic" result="dropShadow"/><feFlood flood-color="#F1F1F1" /><feComposite operator="in" in2="SourceAlpha" result="sourceFill" /><feBlend mode="normal" in="dropShadow" in2="sourceFill" result="gradientFill" /></filter></defs><g id="-Block8_bg_Icons"><path id="Rounded-Rectangl" d="M15.000,-0.333 C15.000,-0.333 297.333,-0.333 297.333,-0.333 C305.434,-0.333 312.000,6.233 312.000,14.333 C312.000,14.333 312.000,297.333 312.000,297.333 C312.000,305.434 305.434,312.000 297.333,312.000 C297.333,312.000 15.000,312.000 15.000,312.000 C6.900,312.000 0.333,305.434 0.333,297.333 C0.333,297.333 0.333,14.333 0.333,14.333 C0.333,6.233 6.900,-0.333 15.000,-0.333 z" fill="#FFFFFF" fill-opacity="0.000" filter="url(#Rounded-Rectangl-fx)" /><path id="Layer-70" d="M175.333,207.667 C175.816,211.040 178.465,211.082 180.667,212.667 C181.407,213.200 183.800,215.593 184.333,216.333 C185.543,218.013 186.766,221.156 188.333,222.333 C190.849,224.223 193.826,225.442 195.667,228.000 C197.498,230.544 198.796,233.921 199.667,237.333 C199.667,238.333 199.667,239.333 199.667,240.333 C200.149,241.991 201.463,243.928 202.000,245.667 C203.085,249.184 202.053,254.345 201.333,257.000 C201.099,257.866 201.586,258.980 201.667,259.333 C202.049,261.000 201.442,265.333 201.000,266.667 C200.221,269.020 199.000,271.430 197.667,273.333 C197.198,274.003 196.102,274.647 195.667,275.333 C194.212,277.628 193.908,280.481 192.333,282.667 C190.008,285.895 185.671,287.447 183.333,290.667 C182.288,292.106 181.987,293.757 181.000,295.333 C179.379,297.922 175.166,302.046 172.333,303.333 C168.092,305.261 162.516,305.551 157.667,304.333 C155.334,304.333 153.000,304.333 150.667,304.333 C148.011,303.676 144.585,303.062 142.000,302.000 C137.244,300.045 133.229,296.486 130.667,292.333 C129.878,291.056 129.840,289.511 129.000,288.333 C128.222,287.667 127.444,287.000 126.667,286.333 C125.462,284.657 124.110,282.203 123.333,280.333 C123.000,278.667 122.667,277.000 122.333,275.333 C117.422,274.855 114.934,272.095 111.333,270.667 C102.190,267.041 98.368,264.397 95.667,254.333 C94.725,250.824 96.503,247.598 95.667,244.000 C94.971,241.007 94.851,236.726 96.000,233.667 C96.955,231.123 99.008,228.983 100.000,226.667 C100.111,225.889 100.222,225.111 100.333,224.333 C101.109,222.289 102.402,219.755 103.667,218.000 C105.257,215.794 107.778,214.628 110.000,213.000 C111.159,212.151 111.715,210.425 112.667,209.333 C112.889,209.333 113.111,209.333 113.333,209.333 C113.333,209.333 114.000,208.333 114.000,208.333 C114.000,207.445 114.000,206.555 114.000,205.667 C114.404,204.208 114.997,202.528 115.667,201.000 C116.692,198.661 118.616,196.390 120.333,194.667 C121.000,194.111 121.667,193.555 122.333,193.000 C122.333,191.556 122.333,190.111 122.333,188.667 C119.860,187.980 116.909,185.343 115.667,183.333 C115.556,183.333 115.444,183.333 115.333,183.333 C115.333,183.444 115.333,183.556 115.333,183.667 C113.540,184.986 112.481,187.348 110.667,188.667 C109.883,189.237 107.494,190.033 107.000,190.667 C106.556,192.000 106.111,193.333 105.667,194.667 C103.690,198.401 99.336,201.964 95.333,203.667 C91.494,205.300 84.479,205.566 80.333,204.000 C78.802,203.422 76.435,201.189 74.667,201.333 C74.102,201.379 72.564,202.185 72.000,202.333 C69.556,202.333 67.111,202.333 64.667,202.333 C63.900,202.530 62.191,203.122 61.333,203.333 C58.000,203.222 54.666,203.111 51.333,203.000 C48.191,203.728 44.983,203.419 42.000,202.667 C39.667,202.778 37.333,202.889 35.000,203.000 C32.949,202.488 30.546,202.155 28.667,201.333 C28.099,201.085 27.242,200.220 26.667,200.000 C25.222,199.778 23.778,199.556 22.333,199.333 C19.672,198.429 17.663,196.801 15.667,195.333 C11.786,192.480 9.420,188.638 8.000,183.333 C8.000,182.445 8.000,181.555 8.000,180.667 C7.914,180.298 7.459,179.214 7.667,178.333 C8.330,175.517 9.324,172.581 9.667,170.000 C3.320,164.248 2.080,147.109 7.333,138.667 C9.436,135.287 13.187,131.969 17.000,130.333 C18.222,130.000 19.445,129.667 20.667,129.333 C22.408,128.285 23.985,126.548 26.000,125.667 C28.061,124.765 29.905,125.098 32.333,124.333 C33.797,123.872 35.297,122.584 36.667,122.000 C38.324,121.293 39.828,121.684 41.667,121.000 C43.098,120.468 44.554,118.954 46.000,118.333 C47.555,118.000 49.111,117.667 50.667,117.333 C52.413,116.655 54.276,115.073 56.000,114.333 C57.111,114.111 58.222,113.889 59.333,113.667 C61.586,112.771 63.537,110.602 66.000,109.667 C66.444,109.667 66.889,109.667 67.333,109.667 C69.153,109.031 73.116,107.144 73.333,105.000 C72.865,104.362 73.089,103.473 72.667,102.667 C72.087,101.561 70.675,100.431 70.000,99.333 C69.211,98.051 69.291,96.131 68.333,95.000 C68.000,94.889 67.667,94.778 67.333,94.667 C65.794,93.388 63.052,93.402 61.333,92.333 C58.413,90.518 55.480,87.589 53.667,84.667 C52.472,82.742 50.138,75.903 51.000,72.333 C51.309,71.055 52.146,68.852 51.667,67.000 C51.057,64.645 49.506,62.979 48.667,61.000 C48.029,59.495 47.702,57.478 47.333,56.000 C46.423,52.353 47.836,48.144 48.667,46.000 C51.804,37.899 57.745,32.283 69.000,32.333 C71.221,28.909 75.958,26.555 80.333,25.333 C82.666,25.222 85.000,25.111 87.333,25.000 C89.003,24.526 91.387,23.802 93.333,23.333 C94.889,23.444 96.445,23.556 98.000,23.667 C99.131,23.414 100.804,22.636 102.000,22.333 C104.555,22.333 107.111,22.333 109.667,22.333 C110.371,22.148 111.913,21.523 112.667,21.333 C115.222,21.333 117.778,21.333 120.333,21.333 C121.886,20.925 123.531,20.395 125.667,20.333 C127.464,14.069 135.313,10.326 142.000,8.667 C144.444,8.778 146.889,8.889 149.333,9.000 C151.371,8.684 154.429,8.384 156.667,9.000 C159.127,9.678 161.260,11.211 163.333,12.000 C165.539,12.840 167.663,12.476 169.667,13.333 C177.151,16.536 182.740,23.946 182.667,34.667 C186.109,35.577 189.620,39.585 191.333,42.333 C191.981,43.373 191.930,44.698 192.667,45.667 C193.151,46.304 194.947,47.123 195.667,47.667 C197.757,49.244 200.410,54.213 201.333,57.000 C201.667,59.444 202.000,61.889 202.333,64.333 C202.081,65.519 201.264,67.911 202.000,69.000 C203.001,72.208 207.490,73.437 209.333,76.000 C210.649,77.829 211.035,80.075 212.333,82.000 C213.111,82.667 213.889,83.333 214.667,84.000 C216.414,86.384 218.086,89.594 219.000,92.667 C221.106,99.748 217.689,107.956 214.333,111.000 C214.542,111.623 214.358,111.302 214.667,111.667 C215.412,112.500 216.397,112.660 217.333,113.333 C219.061,114.577 221.195,117.180 222.333,119.000 C222.665,119.529 224.667,125.000 224.667,125.000 C225.555,125.000 226.445,125.000 227.333,125.000 C228.025,125.496 229.082,125.325 230.000,125.667 C231.015,126.044 232.425,127.019 233.333,127.333 C235.733,128.165 238.109,127.499 240.333,128.333 C246.501,130.646 249.957,134.869 253.000,140.333 C254.501,140.052 256.858,139.250 258.667,139.667 C260.735,140.143 263.726,141.008 266.000,140.333 C267.540,139.876 269.185,138.550 270.667,138.000 C272.778,137.667 274.889,137.333 277.000,137.000 C278.983,136.252 281.243,134.943 283.667,134.333 C293.226,131.928 302.492,139.728 305.333,144.333 C306.111,146.444 306.889,148.556 307.667,150.667 C308.417,153.433 307.962,156.994 307.333,159.333 C306.928,160.841 307.216,161.706 306.667,163.000 C304.746,167.523 300.485,172.043 296.000,174.000 C293.922,174.907 291.557,174.699 289.333,175.667 C287.903,176.289 286.267,177.739 284.667,178.333 C282.556,178.667 280.444,179.000 278.333,179.333 C275.055,180.509 273.241,182.223 268.333,182.333 C266.923,186.907 262.159,187.894 259.333,191.000 C257.612,192.892 256.214,194.946 254.000,196.333 C252.730,197.129 251.240,197.163 250.000,198.000 C249.445,198.667 248.889,199.333 248.333,200.000 C246.630,201.259 244.618,202.813 242.667,203.667 C241.320,204.255 240.058,204.042 238.667,204.667 C238.120,204.912 237.776,205.695 237.333,206.000 C235.681,207.140 233.250,208.347 231.333,209.000 C229.440,209.645 227.862,209.078 225.667,209.667 C222.363,210.552 217.843,213.509 213.000,212.333 C210.959,211.838 208.513,211.791 206.667,211.000 C205.698,210.585 204.597,209.331 203.667,209.000 C202.667,209.000 201.667,209.000 200.667,209.000 C198.314,208.416 195.799,208.248 193.667,207.333 C190.973,206.177 189.197,203.014 186.000,202.667 C185.162,203.359 184.079,203.106 183.000,203.667 C180.530,204.950 178.821,207.205 175.333,207.667 zM102.000,63.667 C101.778,66.222 101.556,68.778 101.333,71.333 C102.237,74.156 104.594,75.766 106.000,78.000 C107.413,80.245 107.865,83.183 109.000,85.667 C110.237,85.154 112.160,84.766 113.333,84.000 C114.989,82.919 116.447,81.320 118.333,80.333 C119.667,79.889 121.000,79.444 122.333,79.000 C122.333,77.222 122.333,75.444 122.333,73.667 C120.249,71.050 121.262,65.340 121.667,62.000 C115.116,62.365 109.001,63.610 102.000,63.667 zM147.667,112.000 C146.024,114.098 143.021,113.540 140.667,115.000 C139.161,115.934 137.769,117.573 136.000,118.333 C135.000,118.556 134.000,118.778 133.000,119.000 C132.246,119.395 131.667,120.524 131.000,121.000 C129.333,121.889 127.666,122.778 126.000,123.667 C126.499,124.534 129.186,129.667 129.667,130.000 C130.667,130.333 131.667,130.667 132.667,131.000 C133.234,131.349 133.988,132.477 134.667,132.667 C135.926,133.019 138.209,131.908 140.000,132.333 C143.354,133.129 146.745,131.311 149.667,132.000 C151.317,132.389 153.575,132.970 155.000,133.333 C156.667,133.222 158.334,133.111 160.000,133.000 C161.586,133.374 163.711,133.396 165.333,134.000 C167.677,134.872 169.144,136.526 172.333,136.667 C172.333,136.556 172.333,136.444 172.333,136.333 C169.155,134.283 168.732,131.389 166.667,128.333 C165.556,127.333 164.444,126.333 163.333,125.333 C162.222,123.222 161.111,121.111 160.000,119.000 C155.576,118.572 150.574,115.101 148.667,112.000 C148.333,112.000 148.000,112.000 147.667,112.000 z" fill="#FFFFFF" /><path id="Shape-46" d="M140.099,245.087 C143.181,245.087 149.325,242.389 149.325,242.389 C153.073,240.743 156.000,242.904 156.000,247.000 C156.000,247.000 156.000,311.667 156.000,311.667 C156.000,311.667 297.000,311.667 297.000,311.667 C305.149,311.667 311.667,305.157 311.667,297.000 C311.667,297.000 311.667,155.667 311.667,155.667 L303.667,155.667 C303.667,155.667 247.333,155.667 247.333,155.667 C243.248,155.672 241.066,158.930 242.709,162.678 C242.709,162.678 245.404,168.828 245.404,171.914 C245.404,177.856 240.592,182.673 234.656,182.673 C228.718,182.673 223.907,177.856 223.907,171.914 C223.907,168.828 226.600,162.678 226.600,162.678 C228.244,158.930 226.086,155.672 222.000,155.667 C222.000,155.667 156.000,156.000 156.000,156.000 C156.000,156.000 156.000,221.667 156.000,221.667 C156.000,225.764 153.073,227.911 149.325,226.265 C149.325,226.265 143.181,223.568 140.099,223.568 C134.163,223.568 129.351,228.384 129.351,234.327 C129.351,240.270 134.163,245.087 140.099,245.087 z" fill="url(#gradient1)" filter="url(#Shape-46-fx)" /><path id="Shape-47" d="M156.000,156.000 C156.000,156.000 91.290,155.858 91.290,155.858 C87.195,155.858 85.191,158.928 86.835,162.679 C86.835,162.679 89.531,168.829 89.531,171.915 C89.531,177.857 84.717,182.674 78.778,182.674 C72.839,182.674 68.026,177.857 68.026,171.915 C68.026,168.829 70.722,162.679 70.722,162.679 C72.367,158.928 70.362,155.858 66.268,155.858 C66.268,155.858 0.630,155.857 0.630,155.857 L0.347,155.857 C0.347,155.857 0.358,296.907 0.358,296.907 C0.359,305.058 6.958,311.667 15.104,311.676 C15.104,311.676 156.000,311.667 156.000,311.667 C156.000,311.667 156.000,247.000 156.000,247.000 C155.995,242.911 153.073,240.744 149.327,242.389 C149.327,242.389 143.181,245.087 140.098,245.087 C134.159,245.087 129.346,240.270 129.346,234.327 C129.346,228.384 134.159,223.567 140.098,223.567 C143.181,223.567 149.327,226.265 149.327,226.265 C153.073,227.909 155.995,225.756 156.000,221.667 C156.000,221.667 156.000,163.333 156.000,163.333 L156.000,156.000 L156.000,156.000 z" fill="url(#gradient2)" filter="url(#Shape-47-fx)" /><path id="Shape-45" d="M172.577,67.435 C169.492,67.435 163.344,70.131 163.344,70.131 C159.593,71.776 156.333,69.761 156.333,65.666 C156.333,65.666 156.333,-0.000 156.333,-0.000 C156.333,-0.000 15.100,-0.000 15.100,-0.000 C6.945,-0.000 0.333,6.609 0.333,14.761 C0.333,14.761 0.333,156.000 0.333,156.000 L0.333,156.000 C0.333,156.000 66.667,156.000 66.667,156.000 C70.559,156.147 72.328,159.028 70.724,162.684 C70.724,162.684 68.027,168.831 68.027,171.914 C68.027,177.853 72.843,182.667 78.785,182.667 C84.726,182.667 89.541,177.853 89.541,171.914 C89.541,168.831 86.843,162.684 86.843,162.684 C85.198,158.935 87.237,156.000 91.333,156.000 C91.333,156.000 97.000,156.000 97.000,156.000 C97.096,156.004 100.901,156.000 101.000,156.000 C101.000,156.000 156.667,156.000 156.667,156.000 C156.667,156.000 156.524,90.699 156.524,90.699 C156.524,86.604 159.593,84.601 163.344,86.245 C163.344,86.245 169.492,88.941 172.577,88.941 C178.518,88.941 183.333,84.127 183.333,78.188 C183.333,72.249 178.518,67.435 172.577,67.435 z" fill="url(#gradient3)" filter="url(#Shape-45-fx)" /><path id="Shape-44" d="M245.349,171.914 C245.349,168.831 242.653,162.684 242.653,162.684 C241.009,158.935 243.013,155.867 247.109,155.867 C247.109,155.867 311.667,156.000 311.667,156.000 C311.667,156.000 311.667,14.667 311.667,14.667 C311.667,6.514 305.821,-0.000 297.667,-0.000 C297.667,-0.000 156.333,-0.000 156.333,-0.000 C156.333,-0.000 156.333,65.666 156.333,65.666 C156.339,69.753 159.771,71.760 163.517,70.117 C163.517,70.117 169.664,67.420 172.749,67.420 C178.688,67.420 183.503,72.235 183.503,78.174 C183.503,84.114 178.688,88.927 172.749,88.927 C169.664,88.927 163.517,86.232 163.517,86.232 C159.771,84.588 156.339,86.579 156.333,90.667 C156.333,90.667 156.333,156.000 156.333,156.000 L164.000,156.000 C164.000,156.000 222.081,155.867 222.081,155.867 C226.176,155.867 228.182,158.935 226.536,162.684 C226.536,162.684 223.839,168.831 223.839,171.914 C223.839,177.853 228.654,182.667 234.594,182.667 C240.535,182.667 245.349,177.853 245.349,171.914 z" fill="url(#gradient4)" filter="url(#Shape-44-fx)" /><g id="Rounded-Rectangl" ><path id="Rounded-Rectangl-stroke" d="M15.048,0.053 C15.048,0.053 297.286,0.053 297.286,0.053 C305.383,0.053 311.947,6.617 311.947,14.714 C311.947,14.714 311.947,296.952 311.947,296.952 C311.947,305.050 305.383,311.614 297.286,311.614 C297.286,311.614 15.048,311.614 15.048,311.614 C6.950,311.614 0.386,305.050 0.386,296.952 C0.386,296.952 0.386,14.714 0.386,14.714 C0.386,6.617 6.950,0.053 15.048,0.053 z" fill="none" stroke="#C4C4C4" stroke-opacity="0.850" stroke-width="0.33333333333333" /></g></g></svg>