<svg xmlns="http://www.w3.org/2000/svg" width="73" height="29" viewBox="0 0 73 29"><defs><style>.cls-1,.cls-2{fill:#607db8;filter:url(#filter);fill-rule:evenodd}.cls-2{fill:#46639f;filter:url(#filter-2)}</style><filter id="filter" x=".75" y=".813" width="32.156" height="27.844" filterUnits="userSpaceOnUse"><feFlood result="flood" flood-color="#507ebc"/><feComposite result="composite" operator="in" in2="SourceGraphic"/><feBlend result="blend" in2="SourceGraphic"/></filter><filter id="filter-2" x="40.063" y=".813" width="32.156" height="27.844" filterUnits="userSpaceOnUse"><feFlood result="flood" flood-color="#3263a2"/><feComposite result="composite" operator="in" in2="SourceGraphic"/><feBlend result="blend" in2="SourceGraphic"/></filter></defs><path id="_copy_3" data-name="” copy 3" class="cls-1" d="M28.727.8Q18.461 8.237 18.461 18.111a12.411 12.411 0 0 0 2.181 7.642 6.842 6.842 0 0 0 5.75 2.909 6.061 6.061 0 0 0 4.736-1.983 7.662 7.662 0 0 0 1.784-5.321 8.065 8.065 0 0 0-1.762-5.41 5.819 5.819 0 0 0-4.67-2.074 13.56 13.56 0 0 0-3.084.54 15.2 15.2 0 0 1 2.247-6 18.927 18.927 0 0 1 5.2-4.687zM11.014.8Q.748 8.237.748 18.111a12.411 12.411 0 0 0 2.181 7.642 6.842 6.842 0 0 0 5.75 2.909 6.062 6.062 0 0 0 4.736-1.983 7.662 7.662 0 0 0 1.785-5.321 8.065 8.065 0 0 0-1.762-5.41 5.82 5.82 0 0 0-4.67-2.074 13.56 13.56 0 0 0-3.084.54 15.2 15.2 0 0 1 2.247-6 18.927 18.927 0 0 1 5.2-4.687z"/><path id="_copy_4" data-name="” copy 4" class="cls-2" d="M44.262 28.66q10.261-7.437 10.261-17.312a12.418 12.418 0 0 0-2.18-7.642A6.843 6.843 0 0 0 46.6.8a6.062 6.062 0 0 0-4.739 1.98 7.665 7.665 0 0 0-1.783 5.32 8.07 8.07 0 0 0 1.761 5.413 5.823 5.823 0 0 0 4.668 2.074 13.567 13.567 0 0 0 3.083-.541 15.2 15.2 0 0 1-2.246 6 18.9 18.9 0 0 1-5.2 4.689zm17.7 0q10.26-7.437 10.261-17.312a12.418 12.418 0 0 0-2.18-7.642A6.844 6.844 0 0 0 64.3.8a6.062 6.062 0 0 0-4.734 1.98 7.664 7.664 0 0 0-1.783 5.32 8.07 8.07 0 0 0 1.761 5.413 5.823 5.823 0 0 0 4.668 2.074 13.565 13.565 0 0 0 3.083-.541 15.2 15.2 0 0 1-2.246 6 18.9 18.9 0 0 1-5.2 4.689z"/></svg>