<svg xmlns="http://www.w3.org/2000/svg" width="13" height="11" viewBox="0 0 13 11"><path d="M12.359 9.425c-.047.047-.295.242-.359.242H1.333c-.064 0-.213-.195-.26-.242C1.026 9.378 1 9.398 1 9.333V3.667c.159.178.332.218.515.367 1.33 1.022 2.386 1.86 3.17 2.515.253.214.459.38.617.499.159.119.374.239.644.361.27.121.524.182.763.182h.014c.238 0 .493-.061.763-.182.27-.122.485-.242.644-.361.158-.119.364-.285.617-.499.784-.655 1.84-1.493 3.169-2.515.184-.149.259-.189.417-.367v5.666c0 .065.073.045.026.092zm-.275-7.009c-.231.36-.48.646-.748.859-.957.754-1.952 1.541-2.983 2.359l-.261.219c-.144.122-.258.215-.342.28a7.567 7.567 0 0 1-.331.234 1.92 1.92 0 0 1-.376.204.87.87 0 0 1-.32.067h-.007-.007a.87.87 0 0 1-.32-.067 1.892 1.892 0 0 1-.376-.204 7 7 0 0 1-.331-.234 8.68 8.68 0 0 1-.342-.28l-.261-.219c-1.032-.818-2.026-1.605-2.983-2.359-.729-.575-1.094-1.279-1.094-2.113a.23.23 0 0 1 .071-.167c.047-.047.196.005.26.005h11c.04 0-.067-.07-.037-.057.03.012.052.031.067.056l.041.067c.012.019.02.05.022.093.003.042.004.074.004.096v.183c0 .292-.115.618-.346.978zm.948-2.095C12.799.088 12.661 0 12.333 0h-11c-.327 0-.7.088-.934.321C.166.555 0 1.006 0 1.333v8c0 .328.166.532.399.765.234.233.607.569.934.569h11c.328 0 .466-.336.699-.569.234-.233.301-.437.301-.765v-8c0-.327-.067-.778-.301-1.012z" fill="#DA0909"/></svg>