<svg xmlns="http://www.w3.org/2000/svg" width="46" height="43" viewBox="0 0 46 43"><path d="M34.908 20.816v.079c1.758.302 2.637 1.225 2.637 2.771 0 1.035-.35 1.842-1.049 2.422-.7.582-1.678.871-2.934.871h-4.038V15.386h3.27c1.536 0 2.647.23 3.333.689.687.459 1.03 1.184 1.03 2.177 0 .685-.192 1.252-.574 1.698-.383.445-.941.734-1.675.866zm-4.038 4.996h2.415c.934 0 1.637-.181 2.11-.543.472-.361.709-.927.709-1.698 0-.717-.242-1.245-.725-1.583-.483-.338-1.218-.506-2.205-.506H30.87v4.33zm4.196-8.831c-.464-.288-1.203-.431-2.217-.431H30.87v3.792h2.217c.95 0 1.634-.149 2.051-.448.417-.298.625-.8.625-1.507 0-.65-.232-1.119-.697-1.406zm-12.154-5.34h1.117v19.244h-1.117V11.641zm-6.746 11.637h-4.64l-1.425 3.681H8.739l4.577-11.62h1.132l4.553 11.62h-1.394l-1.441-3.681zM14.4 18.481a19.455 19.455 0 0 1-.538-1.67 14.892 14.892 0 0 1-.499 1.67l-1.362 3.587h3.745L14.4 18.481z" fill="#2E8DD6"/></svg>