<svg version="1.1" xmlns="http://www.w3.org/2000/svg" xmlns:xlink="http://www.w3.org/1999/xlink" width="46" height="43" viewBox="0 0 46 43"><g id="-Block5_icon1"><g id="Rounded-Rectangl" ><!-- <path id="Rounded-Rectangl-fill" d="M4.987,0.000 C4.987,0.000 40.544,0.000 40.544,0.000 C43.195,0.000 45.344,2.149 45.344,4.800 C45.344,4.800 45.344,37.711 45.344,37.711 C45.344,40.362 43.195,42.510 40.544,42.510 C40.544,42.510 4.987,42.510 4.987,42.510 C2.336,42.510 0.187,40.362 0.187,37.711 C0.187,37.711 0.187,4.800 0.187,4.800 C0.187,2.149 2.336,0.000 4.987,0.000 z" fill="#FFFFFF" /> -->
<!-- <path id="Rounded-Rectangl-stroke" d="M5.110,0.158 C5.110,0.158 40.421,0.158 40.421,0.158 C43.053,0.158 45.187,2.291 45.187,4.922 C45.187,4.922 45.187,37.589 45.187,37.589 C45.187,40.220 43.053,42.353 40.421,42.353 C40.421,42.353 5.110,42.353 5.110,42.353 C2.478,42.353 0.344,40.220 0.344,37.589 C0.344,37.589 0.344,4.922 0.344,4.922 C0.344,2.291 2.478,0.158 5.110,0.158 z" fill="none" stroke="#C2E0F3" stroke-width="1" /> -->
</g><path id="A|B" d="M34.908,20.816 C34.908,20.816 34.908,20.895 34.908,20.895 C36.666,21.197 37.545,22.120 37.545,23.666 C37.545,24.701 37.195,25.508 36.496,26.088 C35.796,26.670 34.818,26.959 33.562,26.959 C33.562,26.959 29.524,26.959 29.524,26.959 L29.524,15.386 C29.524,15.386 32.794,15.386 32.794,15.386 C34.330,15.386 35.441,15.616 36.127,16.075 C36.814,16.534 37.157,17.259 37.157,18.252 C37.157,18.937 36.965,19.504 36.583,19.950 C36.200,20.395 35.642,20.684 34.908,20.816 zM30.870,25.812 C30.870,25.812 33.285,25.812 33.285,25.812 C34.219,25.812 34.922,25.631 35.395,25.269 C35.867,24.908 36.104,24.342 36.104,23.571 C36.104,22.854 35.862,22.326 35.379,21.988 C34.896,21.650 34.161,21.482 33.174,21.482 C33.174,21.482 30.870,21.482 30.870,21.482 L30.870,25.812 zM35.066,16.981 C34.602,16.693 33.863,16.550 32.849,16.550 C32.849,16.550 30.870,16.550 30.870,16.550 L30.870,20.342 C30.870,20.342 33.087,20.342 33.087,20.342 C34.037,20.342 34.721,20.193 35.138,19.894 C35.555,19.596 35.763,19.094 35.763,18.387 C35.763,17.737 35.531,17.268 35.066,16.981 zM22.912,11.641 L24.029,11.641 L24.029,30.885 L22.912,30.885 L22.912,11.641 zM16.166,23.278 L11.526,23.278 L10.101,26.959 L8.739,26.959 L13.316,15.339 L14.448,15.339 L19.001,26.959 L17.607,26.959 L16.166,23.278 zM14.400,18.481 C14.226,18.027 14.047,17.470 13.862,16.811 C13.746,17.317 13.580,17.874 13.363,18.481 C13.363,18.481 12.001,22.068 12.001,22.068 L15.746,22.068 C15.746,22.068 14.400,18.481 14.400,18.481 z" fill="#2E8DD6" /></g></svg>