<svg version="1.1" xmlns="http://www.w3.org/2000/svg" xmlns:xlink="http://www.w3.org/1999/xlink" width="75" height="41" viewBox="0 0 75 41"><g id="yaDirect"><path id="Shape-57" d="M72.119,23.633 C73.453,23.633 74.378,23.258 74.549,23.258 C74.651,23.258 74.686,23.292 74.719,23.394 C74.719,23.394 74.993,24.555 74.993,24.555 C75.027,24.691 74.993,24.828 74.857,24.930 C74.241,25.375 72.701,26.057 71.263,26.057 C67.841,26.057 65.446,23.087 65.446,17.931 C65.446,11.957 67.944,8.133 71.161,8.133 C71.982,8.133 72.939,8.269 74.343,8.987 C74.549,9.089 74.686,9.191 74.686,9.327 C74.686,9.429 74.651,9.533 74.583,9.636 C74.583,9.636 73.659,11.137 73.659,11.137 C73.556,11.308 73.453,11.377 73.350,11.377 C73.248,11.377 73.179,11.343 73.076,11.241 C72.154,10.386 71.572,10.250 71.092,10.250 C69.313,10.250 68.252,13.698 68.252,17.181 C68.252,21.141 69.519,23.633 72.119,23.633 zM64.809,25.647 C64.809,25.647 62.619,25.647 62.619,25.647 C62.174,25.647 61.866,25.545 61.661,25.135 C61.661,25.135 57.760,17.146 57.760,17.146 C57.692,17.009 57.623,16.907 57.521,16.839 C57.521,16.839 57.521,25.409 57.521,25.409 C57.521,25.545 57.452,25.647 57.315,25.647 C57.315,25.647 55.091,25.647 55.091,25.647 C54.954,25.647 54.886,25.511 54.886,25.409 C54.886,25.409 54.886,8.781 54.886,8.781 C54.886,8.645 54.989,8.543 55.091,8.543 C55.091,8.543 57.315,8.543 57.315,8.543 C57.452,8.543 57.521,8.645 57.521,8.781 C57.521,8.781 57.521,16.293 57.521,16.293 C57.692,16.190 57.863,15.952 58.033,15.576 C58.033,15.576 61.114,9.191 61.114,9.191 C61.318,8.747 61.524,8.543 62.105,8.543 C62.105,8.543 64.124,8.543 64.124,8.543 C64.261,8.543 64.296,8.679 64.227,8.781 C64.227,8.781 60.121,16.258 60.121,16.258 C60.121,16.258 64.911,25.409 64.911,25.409 C64.980,25.511 64.946,25.647 64.809,25.647 zM44.997,17.533 C44.997,17.533 44.997,17.931 44.997,18.342 C44.997,21.346 46.229,23.633 48.863,23.633 C50.267,23.633 51.260,23.258 51.396,23.258 C51.567,23.258 51.635,23.326 51.669,23.462 C51.669,23.462 51.943,24.623 51.943,24.623 C51.977,24.759 51.943,24.862 51.806,24.930 C51.054,25.409 49.582,26.057 47.906,26.057 C44.484,26.057 42.157,22.984 42.157,17.829 C42.157,12.776 43.800,8.133 47.495,8.133 C50.232,8.133 52.114,10.967 52.114,16.258 C52.114,16.258 52.114,17.692 52.114,17.692 C52.114,17.692 47.119,17.692 47.119,17.692 C46.331,17.692 44.997,17.533 44.997,17.533 zM49.343,14.381 C49.171,11.751 48.488,10.250 47.392,10.250 C46.194,10.250 45.475,11.717 45.169,14.619 C45.100,15.166 45.100,15.678 45.100,15.678 C45.100,15.678 46.331,15.542 47.119,15.542 C47.119,15.542 49.377,15.542 49.377,15.542 C49.377,15.542 49.377,14.927 49.343,14.381 zM40.378,28.993 C40.378,28.993 38.632,28.993 38.632,28.993 C38.495,28.993 38.394,28.890 38.394,28.754 C38.394,28.754 38.394,25.647 38.394,25.647 L31.070,25.647 C31.070,25.647 31.070,28.481 31.070,28.481 C31.070,28.720 30.933,28.993 30.558,28.993 C30.558,28.993 28.915,28.993 28.915,28.993 C28.812,28.993 28.675,28.926 28.675,28.754 C28.675,27.867 28.675,23.770 28.675,23.770 C28.675,23.600 28.743,23.496 28.949,23.496 C28.949,23.496 29.702,23.496 29.702,23.496 C31.892,19.467 32.131,14.141 32.131,10.010 C32.131,10.010 32.131,8.781 32.131,8.781 C32.131,8.645 32.234,8.543 32.405,8.543 C32.405,8.543 39.249,8.543 39.249,8.543 C39.385,8.543 39.454,8.611 39.454,8.781 C39.454,8.781 39.454,22.883 39.454,22.883 C39.454,23.292 39.591,23.496 40.104,23.496 C40.104,23.496 40.515,23.496 40.515,23.496 C40.685,23.496 40.788,23.600 40.788,23.770 C40.788,23.770 40.788,28.481 40.788,28.481 C40.788,28.823 40.583,28.993 40.378,28.993 zM36.819,10.694 C36.819,10.694 34.629,10.694 34.629,10.694 C34.629,11.273 34.595,12.196 34.527,13.084 C34.287,17.181 33.603,20.526 31.858,23.496 C31.858,23.496 36.819,23.496 36.819,23.496 L36.819,10.694 zM26.554,25.647 C26.554,25.647 24.432,25.647 24.432,25.647 C24.261,25.647 24.159,25.545 24.159,25.375 C24.159,25.375 24.159,17.454 24.159,17.454 L20.223,17.454 C20.223,17.454 20.223,25.375 20.223,25.375 C20.223,25.545 20.121,25.647 19.984,25.647 C19.984,25.647 17.828,25.647 17.828,25.647 C17.658,25.647 17.589,25.545 17.589,25.375 C17.589,25.375 17.589,8.781 17.589,8.781 C17.589,8.645 17.692,8.543 17.862,8.543 C17.862,8.543 19.984,8.543 19.984,8.543 C20.156,8.543 20.223,8.611 20.223,8.781 C20.223,8.781 20.223,15.302 20.223,15.302 L24.159,15.302 C24.159,15.302 24.159,8.781 24.159,8.781 C24.159,8.679 24.261,8.543 24.432,8.543 C24.432,8.543 26.554,8.543 26.554,8.543 C26.691,8.543 26.793,8.645 26.793,8.781 C26.793,8.781 26.793,25.375 26.793,25.375 C26.793,25.511 26.725,25.647 26.554,25.647 z" fill="#000000" /><path id="Shape-58" d="M13.899,0.003 C13.899,0.003 10.000,0.003 10.000,0.003 C6.171,0.003 2.922,2.907 2.922,8.545 C2.922,11.927 4.496,14.420 7.299,15.651 C7.299,15.651 2.068,25.080 2.068,25.080 C1.897,25.388 2.068,25.626 2.340,25.626 C2.340,25.626 4.768,25.626 4.768,25.626 C4.973,25.626 5.110,25.558 5.179,25.388 C5.179,25.388 9.932,16.129 9.932,16.129 L11.643,16.129 C11.643,16.129 11.643,25.388 11.643,25.388 C11.643,25.490 11.745,25.626 11.881,25.626 C11.881,25.626 14.002,25.626 14.002,25.626 C14.207,25.626 14.276,25.524 14.276,25.354 C14.276,25.354 14.276,0.345 14.276,0.345 C14.276,0.106 14.139,0.003 13.899,0.003 M11.643,13.943 C11.643,13.943 10.206,13.943 10.206,13.943 C7.949,13.943 5.760,12.303 5.760,8.203 C5.760,3.932 7.812,2.190 9.898,2.190 C9.898,2.190 11.643,2.190 11.643,2.190 L11.643,13.943 z" fill="#FF0000" /><path id="Директ" d="M38.481,32.783 L38.481,38.145 L37.548,38.145 L37.548,32.783 L35.570,32.783 L35.570,31.985 L40.482,31.985 L40.482,32.783 L38.481,32.783 zM34.097,38.145 L31.287,35.026 L31.287,38.145 L30.355,38.145 L30.355,31.985 L31.287,31.985 L31.287,34.981 L33.946,31.985 L34.968,31.985 L32.310,34.958 L35.188,38.145 L34.097,38.145 zM25.069,36.880 C25.416,37.255 25.904,37.442 26.533,37.442 C27.196,37.442 27.852,37.304 28.500,37.026 C28.500,37.026 28.500,37.858 28.500,37.858 C28.170,38.001 27.858,38.103 27.564,38.164 C27.270,38.226 26.915,38.257 26.499,38.257 C25.589,38.257 24.870,37.980 24.344,37.425 C23.818,36.871 23.554,36.101 23.554,35.115 C23.554,34.123 23.799,33.334 24.288,32.749 C24.777,32.165 25.433,31.873 26.258,31.873 C27.029,31.873 27.640,32.127 28.090,32.634 C28.539,33.142 28.764,33.812 28.764,34.643 C28.764,34.643 28.764,35.233 28.764,35.233 C28.764,35.233 24.521,35.233 24.521,35.233 C24.540,35.957 24.722,36.506 25.069,36.880 zM27.764,34.475 C27.764,33.887 27.633,33.436 27.370,33.123 C27.108,32.810 26.733,32.654 26.246,32.654 C25.752,32.654 25.357,32.815 25.063,33.137 C24.769,33.459 24.596,33.905 24.544,34.475 C24.544,34.475 27.764,34.475 27.764,34.475 zM19.710,38.257 C19.310,38.257 18.943,38.183 18.612,38.035 C18.280,37.887 18.002,37.660 17.777,37.352 C17.777,37.352 17.710,37.352 17.710,37.352 C17.755,37.712 17.777,38.053 17.777,38.375 C17.777,38.375 17.777,40.910 17.777,40.910 L16.844,40.910 L16.844,31.985 L17.603,31.985 L17.732,32.828 C17.732,32.828 17.777,32.828 17.777,32.828 C18.017,32.491 18.296,32.247 18.615,32.097 C18.933,31.948 19.298,31.873 19.710,31.873 C20.527,31.873 21.158,32.152 21.602,32.710 C22.046,33.268 22.268,34.051 22.268,35.059 C22.268,36.071 22.042,36.857 21.590,37.417 C21.139,37.977 20.512,38.257 19.710,38.257 zM20.849,33.281 C20.547,32.870 20.123,32.665 19.576,32.665 C18.946,32.665 18.491,32.839 18.210,33.188 C17.929,33.536 17.785,34.091 17.777,34.851 C17.777,34.851 17.777,35.059 17.777,35.059 C17.777,35.925 17.921,36.544 18.210,36.917 C18.498,37.290 18.961,37.476 19.598,37.476 C20.130,37.476 20.547,37.261 20.849,36.830 C21.150,36.399 21.301,35.805 21.301,35.048 C21.301,34.280 21.150,33.691 20.849,33.281 zM13.995,34.379 L14.012,33.637 L14.040,32.907 L10.713,38.145 L9.550,38.145 L9.550,31.985 L10.426,31.985 L10.426,35.891 L10.387,36.914 L10.370,37.234 L13.703,31.985 L14.866,31.985 L14.866,38.145 L13.995,38.145 L13.995,34.379 zM7.397,38.145 L1.688,38.145 L1.688,40.286 L0.777,40.286 L0.777,37.279 C0.777,37.279 1.412,37.279 1.412,37.279 C1.989,36.309 2.483,35.129 2.893,33.739 C3.303,32.349 3.531,31.078 3.576,29.928 C3.576,29.928 7.268,29.928 7.268,29.928 L7.268,37.279 L8.308,37.279 L8.308,40.286 L7.397,40.286 L7.397,38.145 zM6.313,30.788 C6.313,30.788 4.441,30.788 4.441,30.788 C4.374,31.695 4.147,32.784 3.761,34.056 C3.375,35.328 2.926,36.402 2.412,37.279 C2.412,37.279 6.313,37.279 6.313,37.279 L6.313,30.788 z" fill="#5D5D5D" /></g></svg>