<svg version="1.1" xmlns="http://www.w3.org/2000/svg" xmlns:xlink="http://www.w3.org/1999/xlink" width="94" height="34" viewBox="0 0 94 34"><g id="adW_Ya_setting"><path id="Shape-57-copy" d="M11.006,0.004 L11.005,0.016 L11.001,0.004 L0.008,32.983 L0.000,33.000 C0.000,33.000 8.041,33.000 8.041,33.000 C9.200,33.000 10.243,32.515 10.989,31.741 C11.393,31.324 11.716,30.830 11.916,30.272 C11.918,30.268 11.918,30.265 11.919,30.264 C11.919,30.264 22.022,0.000 22.022,0.000 L11.005,0.000 L11.005,0.004 L11.006,0.004 z" fill="#4284F4" /><path id="Shape-58-copy" d="M16.502,16.477 C16.502,16.477 21.091,29.240 21.091,29.240 C21.092,29.243 21.092,29.246 21.094,29.250 C21.294,29.807 21.596,30.584 22.000,31.000 C22.000,31.000 22.000,-0.000 22.000,-0.000 L22.009,0.000 L16.502,16.477 z" fill="#096D3C" /><path id="Shape-59-copy" d="M24.968,32.999 L33.004,33.000 L32.996,32.981 L22.000,-0.000 C22.000,-0.000 22.000,31.000 22.000,31.000 C22.746,31.771 23.808,32.999 24.968,32.999 " fill="#0F9D58" /><path id="-Block9_icon3" d="M70.025,13.572 C70.025,13.572 67.765,15.558 67.765,15.558 C67.805,15.943 67.821,16.359 67.821,16.818 C67.821,17.275 67.805,17.684 67.765,18.076 C67.765,18.076 70.154,20.159 70.154,20.159 C70.732,20.536 71.001,21.459 70.659,22.269 C70.064,24.107 68.993,25.978 67.586,27.590 C67.075,28.186 66.213,28.407 65.481,28.096 C65.481,28.096 62.572,27.083 62.572,27.083 C61.898,27.573 61.182,27.989 60.436,28.332 C60.436,28.332 59.832,31.464 59.832,31.464 C59.728,32.208 59.085,32.854 58.288,32.967 C57.257,33.155 56.250,33.261 55.249,33.261 C54.250,33.261 53.235,33.155 52.153,32.951 C51.406,32.854 50.772,32.208 50.657,31.406 C50.657,31.406 50.064,28.326 50.064,28.326 C49.292,27.980 48.568,27.556 47.919,27.083 C47.919,27.083 44.927,28.129 44.927,28.129 C44.782,28.193 44.538,28.242 44.295,28.242 C43.766,28.242 43.263,27.997 42.905,27.581 C41.507,25.978 40.433,24.107 39.801,22.162 C39.499,21.466 39.768,20.536 40.475,20.062 C40.475,20.062 42.734,18.076 42.734,18.076 C42.693,17.690 42.676,17.275 42.676,16.818 C42.676,16.359 42.693,15.943 42.734,15.558 C42.734,15.558 40.344,13.474 40.344,13.474 C39.759,13.097 39.499,12.175 39.840,11.365 C40.433,9.526 41.507,7.647 42.913,6.036 C43.408,5.448 44.286,5.220 45.008,5.538 C45.008,5.538 47.919,6.550 47.919,6.550 C48.568,6.077 49.292,5.652 50.064,5.301 C50.064,5.301 50.665,2.163 50.665,2.163 C50.772,1.418 51.414,0.773 52.217,0.667 C54.088,0.273 56.322,0.265 58.361,0.683 C59.085,0.773 59.728,1.418 59.841,2.228 C59.841,2.228 60.436,5.301 60.436,5.301 C61.182,5.644 61.890,6.060 62.572,6.550 C62.572,6.550 65.570,5.504 65.570,5.504 C65.718,5.439 65.962,5.391 66.205,5.391 C66.733,5.391 67.245,5.636 67.603,6.060 C68.985,7.647 70.064,9.526 70.699,11.471 C71.001,12.166 70.732,13.097 70.025,13.572 zM66.479,7.611 C66.479,7.611 63.101,8.785 63.101,8.785 C62.674,8.929 62.208,8.853 61.851,8.571 C60.991,7.869 60.046,7.314 59.051,6.928 C58.635,6.765 58.328,6.397 58.243,5.954 C58.243,5.954 57.564,2.427 57.564,2.427 C55.948,2.154 54.441,2.163 52.928,2.427 C52.928,2.427 52.254,5.954 52.254,5.954 C52.161,6.397 51.856,6.765 51.438,6.928 C50.401,7.329 49.439,7.894 48.657,8.553 C48.309,8.853 47.832,8.938 47.390,8.785 C47.390,8.785 44.012,7.611 44.012,7.611 C43.000,8.853 42.218,10.222 41.700,11.641 C41.700,11.641 44.395,13.986 44.395,13.986 C44.744,14.293 44.905,14.756 44.829,15.217 C44.744,15.670 44.703,16.191 44.703,16.818 C44.703,17.442 44.744,17.963 44.829,18.416 C44.914,18.878 44.753,19.340 44.395,19.648 C44.395,19.648 41.700,22.001 41.700,22.001 C42.253,23.464 43.035,24.825 44.021,26.023 C44.021,26.023 47.399,24.842 47.399,24.842 C47.832,24.697 48.309,24.790 48.666,25.081 C49.439,25.740 50.401,26.296 51.438,26.706 C51.865,26.868 52.170,27.236 52.254,27.681 C52.254,27.681 52.936,31.206 52.936,31.206 C54.602,31.471 55.963,31.462 57.564,31.206 C57.564,31.206 58.243,27.681 58.243,27.681 C58.328,27.236 58.635,26.868 59.060,26.706 C60.046,26.312 60.991,25.764 61.858,25.064 C62.208,24.781 62.674,24.705 63.101,24.842 C63.101,24.842 66.479,26.023 66.479,26.023 C67.489,24.790 68.282,23.412 68.800,21.993 C68.800,21.993 66.096,19.648 66.096,19.648 C65.747,19.340 65.584,18.878 65.669,18.416 C65.756,17.963 65.797,17.442 65.797,16.818 C65.797,16.191 65.756,15.670 65.669,15.217 C65.584,14.756 65.747,14.293 66.096,13.986 C66.096,13.986 68.791,11.631 68.791,11.631 C68.247,10.161 67.465,8.809 66.479,7.611 zM56.000,22.000 L55.000,22.000 L55.000,17.000 L50.000,17.000 L50.000,16.000 L55.000,16.000 L55.000,11.000 L56.000,10.935 L56.000,16.000 L61.000,16.000 L61.000,17.000 L56.000,17.000 L56.000,22.000 z" fill="#338BC3" /><path id="Shape-56" d="M93.497,0.003 C93.497,0.003 88.427,0.003 88.427,0.003 C83.448,0.003 79.223,3.742 79.223,10.999 C79.223,15.353 81.270,18.564 84.914,20.147 C84.914,20.147 78.113,32.287 78.113,32.287 C77.890,32.683 78.113,32.990 78.467,32.990 C78.467,32.990 81.624,32.990 81.624,32.990 C81.891,32.990 82.069,32.902 82.158,32.683 C82.158,32.683 88.338,20.763 88.338,20.763 L90.563,20.763 C90.563,20.763 90.563,32.683 90.563,32.683 C90.563,32.814 90.696,32.990 90.873,32.990 C90.873,32.990 93.631,32.990 93.631,32.990 C93.898,32.990 93.987,32.858 93.987,32.639 C93.987,32.639 93.987,0.443 93.987,0.443 C93.987,0.135 93.809,0.003 93.497,0.003 M90.563,17.948 C90.563,17.948 88.694,17.948 88.694,17.948 C85.760,17.948 82.914,15.837 82.914,10.559 C82.914,5.061 85.582,2.818 88.294,2.818 C88.294,2.818 90.563,2.818 90.563,2.818 L90.563,17.948 z" fill="#FF0000" /></g></svg>