<svg version="1.1" xmlns="http://www.w3.org/2000/svg" xmlns:xlink="http://www.w3.org/1999/xlink" width="95" height="33" viewBox="0 0 95 33"><g id="adWords"><path id="Google-Adwords" d="M90.824,14.549 C92.051,14.549 92.787,13.870 93.227,13.176 C93.227,13.176 94.922,14.323 94.922,14.323 C94.162,15.358 92.888,16.512 90.813,16.512 C88.327,16.512 85.999,14.649 85.999,11.508 C85.999,8.539 88.087,6.527 90.574,6.527 C90.574,6.527 90.575,6.527 90.575,6.527 C92.536,6.527 94.018,7.857 94.653,9.450 C94.653,9.450 94.995,10.263 94.995,10.263 C94.995,10.263 88.418,13.038 88.418,13.038 C88.811,13.781 89.445,14.549 90.824,14.549 zM92.475,9.510 C92.201,8.930 91.556,8.445 90.660,8.445 C89.240,8.445 87.894,9.932 88.083,11.377 C88.083,11.377 92.475,9.510 92.475,9.510 zM86.319,20.998 L87.000,21.000 L87.000,32.000 L86.405,31.658 C86.405,31.658 86.405,30.697 86.405,30.697 C85.923,31.453 85.044,31.924 84.109,31.924 C83.503,31.924 82.557,31.836 82.049,31.501 C81.541,31.166 81.148,30.699 80.868,30.099 C80.589,29.498 80.450,28.808 80.450,28.029 C80.450,27.268 80.554,26.871 80.807,26.252 C81.060,25.633 81.626,25.049 82.132,24.719 C82.637,24.389 83.213,24.149 84.200,24.159 C84.658,24.164 85.111,24.325 85.450,24.550 C85.887,24.841 86.094,25.115 86.319,25.425 C86.319,25.425 86.319,20.998 86.319,20.998 zM85.629,25.986 C85.228,25.498 84.445,25.425 83.858,25.425 C83.286,25.425 82.807,25.660 82.424,26.128 C82.039,26.597 81.792,27.083 81.792,28.092 C81.792,29.068 82.077,29.544 82.487,30.028 C82.897,30.511 83.381,30.752 83.939,30.752 C84.502,30.752 85.442,30.538 85.836,30.076 C86.229,29.614 86.426,28.910 86.426,27.963 C86.426,26.920 86.030,26.474 85.629,25.986 zM83.000,2.000 L85.000,2.000 L85.000,16.000 L83.000,16.000 L83.000,2.000 zM76.812,21.000 C74.415,21.000 73.069,19.501 72.400,18.063 C72.400,18.063 74.285,17.262 74.285,17.262 C74.546,17.904 75.298,19.037 76.796,19.037 C78.347,19.037 79.374,18.007 79.374,16.286 C79.374,16.286 79.374,15.303 79.374,15.303 C78.826,15.950 78.082,16.515 76.684,16.515 C74.424,16.515 72.021,14.524 72.021,11.522 C72.021,8.887 74.093,6.539 76.730,6.539 C76.730,6.539 76.730,6.539 76.730,6.539 C77.877,6.539 78.742,6.991 79.374,7.684 C79.374,7.684 79.374,6.839 79.374,6.839 L81.431,6.839 C81.431,6.839 81.431,15.800 81.431,15.800 C81.431,19.321 79.433,21.000 76.812,21.000 zM76.921,8.494 C76.921,8.494 76.921,8.494 76.921,8.494 C75.537,8.494 74.179,9.636 74.179,11.551 C74.179,13.394 75.487,14.554 76.892,14.554 C78.216,14.554 79.541,13.481 79.541,11.533 C79.541,9.616 78.213,8.494 76.921,8.494 zM73.797,25.239 C74.479,25.891 74.821,26.793 74.821,27.943 C74.821,28.875 74.669,29.608 74.368,30.142 C74.065,30.677 73.626,31.091 73.049,31.387 C72.472,31.683 71.842,31.830 71.159,31.830 C70.064,31.830 69.179,31.505 68.504,30.855 C67.828,30.205 67.491,29.268 67.491,28.045 C67.491,26.704 67.893,25.711 68.699,25.065 C69.372,24.528 70.192,24.260 71.159,24.260 C72.235,24.260 73.114,24.586 73.797,25.239 zM71.159,25.276 C70.496,25.276 69.946,25.506 69.509,25.965 C69.072,26.424 68.854,27.118 68.854,28.045 C68.854,28.973 69.072,29.667 69.509,30.129 C69.946,30.590 70.496,30.821 71.159,30.821 C71.818,30.821 72.365,30.589 72.802,30.125 C73.239,29.661 73.458,28.955 73.458,28.004 C73.458,27.109 73.238,26.430 72.798,25.969 C72.359,25.507 71.812,25.276 71.159,25.276 zM66.245,16.508 C63.277,16.508 61.281,14.182 61.281,11.480 C61.281,8.817 63.339,6.534 66.211,6.534 C66.211,6.534 66.212,6.534 66.212,6.534 C68.573,6.534 71.133,8.235 71.133,11.538 C71.133,14.420 68.932,16.508 66.245,16.508 zM66.240,8.492 C64.653,8.492 63.433,9.783 63.433,11.510 C63.433,13.276 64.668,14.550 66.234,14.550 C67.658,14.550 68.991,13.356 68.991,11.525 C68.991,9.654 67.653,8.492 66.240,8.492 zM55.522,16.508 C52.554,16.508 50.557,14.182 50.557,11.480 C50.557,8.817 52.615,6.534 55.488,6.534 C57.849,6.534 60.409,8.235 60.409,11.538 C60.409,14.420 58.208,16.508 55.522,16.508 zM55.516,8.492 C53.929,8.492 52.710,9.783 52.710,11.510 C52.710,13.276 53.944,14.550 55.510,14.550 C56.935,14.550 58.267,13.356 58.267,11.525 C58.267,9.654 56.929,8.492 55.516,8.492 zM42.805,16.517 C38.160,16.517 35.005,12.677 35.005,8.739 C35.005,4.720 38.359,1.000 42.694,1.000 C46.099,1.000 47.966,3.113 47.966,3.113 L46.511,4.645 C46.511,4.645 45.123,3.118 42.768,3.118 C39.716,3.118 37.282,5.580 37.282,8.777 C37.282,12.059 39.835,14.400 42.762,14.400 C45.050,14.400 47.473,13.137 47.718,10.175 C47.718,10.175 42.754,10.175 42.754,10.175 L42.754,8.063 C42.754,8.063 49.754,8.063 49.754,8.063 C49.754,8.064 49.880,8.576 49.880,9.464 C49.880,13.671 46.890,16.517 42.805,16.517 zM49.754,8.063 C49.754,8.063 49.754,8.063 49.754,8.063 C49.754,8.063 49.754,8.063 49.754,8.063 L49.754,8.063 zM41.529,20.998 L45.564,31.658 L44.115,31.658 L43.012,28.726 L38.626,28.726 L37.567,31.658 L36.000,31.658 L40.034,20.998 L41.529,20.998 zM42.499,27.522 C42.499,27.522 41.488,24.426 41.488,24.426 C41.154,23.541 40.782,22.669 40.782,22.669 C40.782,22.669 40.422,23.589 40.178,24.254 C40.178,24.254 39.094,27.522 39.094,27.522 L42.499,27.522 zM47.671,24.719 C48.176,24.389 48.752,24.149 49.739,24.159 C50.197,24.164 50.650,24.325 50.989,24.550 C51.425,24.841 51.633,25.115 51.857,25.425 C51.857,25.425 51.857,20.998 51.857,20.998 L53.252,20.998 L53.252,31.658 L51.943,31.658 C51.943,31.658 51.943,30.697 51.943,30.697 C51.461,31.453 50.582,31.924 49.648,31.924 C49.042,31.924 48.095,31.836 47.588,31.501 C47.079,31.166 46.686,30.699 46.407,30.099 C46.128,29.498 45.988,28.808 45.988,28.029 C45.988,27.268 46.093,26.871 46.345,26.252 C46.598,25.633 47.165,25.049 47.671,24.719 zM48.026,30.028 C48.436,30.511 48.920,30.752 49.478,30.752 C50.041,30.752 50.981,30.538 51.374,30.076 C51.768,29.614 51.965,28.910 51.965,27.963 C51.965,26.920 51.568,26.474 51.167,25.986 C50.767,25.498 49.983,25.425 49.397,25.425 C48.824,25.425 48.346,25.660 47.962,26.128 C47.578,26.597 47.331,27.083 47.331,28.092 C47.331,29.068 47.615,29.544 48.026,30.028 zM57.989,29.570 L60.278,22.423 L61.715,22.423 C61.715,22.423 63.989,29.470 63.989,29.470 C64.122,28.805 66.136,20.998 66.136,20.998 L67.531,20.998 L64.733,31.658 L63.395,31.658 C63.395,31.658 61.026,24.909 60.993,24.756 C60.883,25.239 58.683,31.658 58.683,31.658 L57.267,31.658 L54.312,20.998 L55.736,20.998 L57.989,29.570 zM77.221,25.520 C77.516,25.007 78.905,23.880 80.410,24.366 C80.410,24.366 79.958,25.622 79.958,25.622 C77.621,25.073 77.267,27.353 77.267,27.871 C77.267,27.871 77.267,31.658 77.267,31.658 L75.979,31.658 L75.979,24.424 L77.221,24.424 C77.221,24.424 77.221,25.520 77.221,25.520 zM90.781,30.372 C91.080,30.632 91.516,30.689 92.053,30.689 C92.593,30.689 92.981,30.592 93.242,30.362 C93.504,30.131 93.610,29.975 93.610,29.665 C93.610,29.387 93.481,29.112 93.250,28.952 C93.089,28.843 92.430,28.725 91.789,28.557 C90.926,28.329 90.387,28.058 90.053,27.892 C89.720,27.726 89.636,27.590 89.464,27.296 C89.292,27.002 89.206,26.678 89.206,26.323 C89.206,25.999 89.276,25.699 89.418,25.424 C89.560,25.148 89.753,24.919 89.997,24.737 C90.180,24.596 90.555,24.429 90.871,24.331 C91.187,24.233 91.543,24.165 91.905,24.165 C92.450,24.165 93.037,24.226 93.449,24.390 C93.861,24.554 94.165,24.776 94.361,25.056 C94.557,25.336 94.671,25.497 94.826,25.970 C94.826,25.970 93.616,26.344 93.616,26.344 C93.564,25.970 93.340,25.800 93.089,25.590 C92.839,25.381 92.434,25.329 91.976,25.329 C91.436,25.329 91.204,25.427 90.942,25.566 C90.689,25.701 90.564,25.964 90.564,26.214 C90.564,26.374 90.612,26.517 90.708,26.645 C90.804,26.777 90.954,26.887 91.159,26.973 C91.277,27.019 91.531,27.102 92.107,27.266 C92.939,27.498 93.520,27.688 93.849,27.836 C94.178,27.984 94.437,28.200 94.624,28.482 C94.811,28.765 95.000,29.140 95.000,29.559 C95.000,29.969 94.913,30.390 94.684,30.752 C94.456,31.114 94.147,31.441 93.716,31.639 C93.284,31.837 92.682,31.998 92.137,31.998 C91.234,31.998 90.494,31.756 90.021,31.364 C89.548,30.973 89.046,30.646 88.916,29.876 C88.916,29.876 90.078,29.401 90.078,29.401 C90.175,29.725 90.482,30.113 90.781,30.372 z" fill="#0F679F" /><path id="Shape-57-copy-2" d="M11.006,0.004 L11.005,0.016 L11.001,0.004 L0.008,32.983 L0.000,33.000 C0.000,33.000 8.041,33.000 8.041,33.000 C9.200,33.000 10.243,32.515 10.989,31.741 C11.393,31.324 11.716,30.830 11.916,30.272 C11.918,30.268 11.918,30.265 11.919,30.264 C11.919,30.264 22.022,0.000 22.022,0.000 L11.005,0.000 L11.005,0.004 L11.006,0.004 z" fill="#4284F4" /><path id="Shape-58-copy-2" d="M16.502,16.477 C16.502,16.477 21.091,29.240 21.091,29.240 C21.092,29.243 21.092,29.246 21.094,29.250 C21.294,29.807 21.596,30.584 22.000,31.000 C22.000,31.000 22.000,-0.000 22.000,-0.000 L22.009,0.000 L16.502,16.477 z" fill="#096D3C" /><path id="Shape-59-copy-2" d="M24.968,32.999 L33.004,33.000 L32.996,32.981 L22.000,-0.000 C22.000,-0.000 22.000,31.000 22.000,31.000 C22.746,31.771 23.808,32.999 24.968,32.999 " fill="#0F9D58" /></g></svg>