<svg version="1.1" xmlns="http://www.w3.org/2000/svg" xmlns:xlink="http://www.w3.org/1999/xlink" width="51" height="55" viewBox="0 0 51 55"><path id="-Block6_icon3" d="M49.271,35.544 C49.271,35.544 40.712,35.544 40.712,35.544 C39.575,35.544 38.650,34.620 38.650,33.486 C38.650,33.486 38.650,32.974 38.650,32.974 C38.650,30.867 40.367,29.153 42.477,29.153 C42.477,29.153 43.123,29.153 43.123,29.153 C43.123,29.153 43.123,29.696 43.123,29.696 C43.123,30.381 43.945,30.932 44.626,30.932 C44.626,30.932 45.358,30.932 45.358,30.932 C46.038,30.932 46.860,30.381 46.860,29.696 C46.860,29.696 46.860,29.153 46.860,29.153 C46.860,29.153 47.506,29.153 47.506,29.153 C49.617,29.153 51.333,30.867 51.333,32.974 C51.333,32.974 51.333,33.486 51.333,33.486 C51.333,34.620 50.408,35.544 49.271,35.544 zM50.246,32.974 C50.246,31.586 49.205,30.437 47.862,30.262 C47.546,31.298 46.399,32.018 45.358,32.018 C45.358,32.018 44.626,32.018 44.626,32.018 C43.584,32.018 42.438,31.298 42.121,30.262 C40.778,30.437 39.738,31.586 39.738,32.974 C39.738,32.974 39.738,33.486 39.738,33.486 C39.738,34.021 40.175,34.457 40.712,34.457 C40.712,34.457 49.271,34.457 49.271,34.457 C49.809,34.457 50.246,34.021 50.246,33.486 C50.246,33.486 50.246,32.974 50.246,32.974 zM45.035,28.822 C42.879,28.822 41.125,27.071 41.125,24.918 C41.125,24.918 41.125,23.766 41.125,23.766 C41.125,21.613 42.879,19.862 45.035,19.862 C47.190,19.862 48.944,21.613 48.944,23.766 C48.944,23.766 48.944,24.918 48.944,24.918 C48.944,27.071 47.190,28.822 45.035,28.822 zM47.856,23.766 C47.856,22.212 46.590,20.949 45.035,20.949 C43.479,20.949 42.213,22.212 42.213,23.766 C42.213,23.766 42.213,24.918 42.213,24.918 C42.213,26.472 43.479,27.737 45.035,27.737 C46.590,27.737 47.856,26.472 47.856,24.918 C47.856,24.918 47.856,23.766 47.856,23.766 zM45.262,18.329 C45.176,18.378 45.084,18.400 44.992,18.400 C44.803,18.400 44.620,18.302 44.519,18.127 C41.866,13.487 37.587,10.113 32.470,8.626 C32.207,8.549 31.942,8.478 31.675,8.412 C31.383,8.340 31.205,8.045 31.278,7.754 C31.350,7.463 31.645,7.285 31.936,7.358 C32.218,7.428 32.497,7.502 32.774,7.583 C38.163,9.150 42.670,12.702 45.464,17.588 C45.613,17.849 45.522,18.180 45.262,18.329 zM26.952,9.225 C24.796,9.225 23.042,7.473 23.042,5.322 C23.042,5.322 23.042,4.168 23.042,4.168 C23.042,2.016 24.796,0.264 26.952,0.264 C29.108,0.264 30.862,2.016 30.862,4.168 C30.862,4.168 30.862,5.322 30.862,5.322 C30.862,7.473 29.108,9.225 26.952,9.225 zM29.774,4.168 C29.774,2.614 28.508,1.351 26.952,1.351 C25.396,1.351 24.130,2.614 24.130,4.168 C24.130,4.168 24.130,5.322 24.130,5.322 C24.130,6.875 25.396,8.139 26.952,8.139 C28.508,8.139 29.774,6.875 29.774,5.322 C29.774,5.322 29.774,4.168 29.774,4.168 zM25.041,9.555 C25.041,9.555 25.041,10.098 25.041,10.098 C25.041,10.784 25.863,11.334 26.543,11.334 C26.543,11.334 27.275,11.334 27.275,11.334 C27.955,11.334 28.777,10.784 28.777,10.098 C28.777,10.098 28.777,9.555 28.777,9.555 C28.777,9.555 29.424,9.555 29.424,9.555 C31.534,9.555 33.251,11.270 33.251,13.377 C33.251,13.377 33.251,13.888 33.251,13.888 C33.251,15.022 32.326,15.946 31.189,15.946 C31.189,15.946 22.629,15.946 22.629,15.946 C21.492,15.946 20.567,15.022 20.567,13.888 C20.567,13.888 20.567,13.377 20.567,13.377 C20.567,11.270 22.284,9.555 24.395,9.555 C24.395,9.555 25.041,9.555 25.041,9.555 zM21.655,13.377 C21.655,13.377 21.655,13.888 21.655,13.888 C21.655,14.423 22.092,14.860 22.629,14.860 C22.629,14.860 31.189,14.860 31.189,14.860 C31.726,14.860 32.163,14.423 32.163,13.888 C32.163,13.888 32.163,13.377 32.163,13.377 C32.163,11.989 31.123,10.840 29.780,10.665 C29.463,11.700 28.317,12.421 27.275,12.421 C27.275,12.421 26.543,12.421 26.543,12.421 C25.501,12.421 24.355,11.700 24.038,10.665 C22.695,10.840 21.655,11.989 21.655,13.377 zM21.008,8.627 C15.929,10.104 11.518,13.601 8.908,18.221 C8.808,18.399 8.624,18.498 8.434,18.498 C8.344,18.498 8.252,18.476 8.168,18.427 C7.906,18.280 7.813,17.949 7.961,17.688 C10.709,12.822 15.354,9.140 20.704,7.584 C20.994,7.501 21.295,7.665 21.379,7.953 C21.463,8.242 21.297,8.543 21.008,8.627 zM10.294,23.766 C10.294,23.766 10.294,24.918 10.294,24.918 C10.294,27.071 8.540,28.822 6.384,28.822 C4.229,28.822 2.475,27.071 2.475,24.918 C2.475,24.918 2.475,23.766 2.475,23.766 C2.475,21.613 4.229,19.862 6.384,19.862 C8.540,19.862 10.294,21.613 10.294,23.766 zM6.384,20.949 C4.829,20.949 3.563,22.212 3.563,23.766 C3.563,23.766 3.563,24.918 3.563,24.918 C3.563,26.472 4.829,27.737 6.384,27.737 C7.940,27.737 9.206,26.472 9.206,24.918 C9.206,24.918 9.206,23.766 9.206,23.766 C9.206,22.212 7.940,20.949 6.384,20.949 zM4.473,29.153 C4.473,29.153 4.473,29.696 4.473,29.696 C4.473,30.381 5.295,30.932 5.975,30.932 C5.975,30.932 6.708,30.932 6.708,30.932 C7.388,30.932 8.210,30.381 8.210,29.696 C8.210,29.696 8.210,29.153 8.210,29.153 C8.210,29.153 8.856,29.153 8.856,29.153 C10.966,29.153 12.683,30.867 12.683,32.974 C12.683,32.974 12.683,33.486 12.683,33.486 C12.683,34.620 11.758,35.544 10.621,35.544 C10.621,35.544 2.062,35.544 2.062,35.544 C0.925,35.544 -0.000,34.620 -0.000,33.486 C-0.000,33.486 -0.000,32.974 -0.000,32.974 C-0.000,30.867 1.717,29.153 3.827,29.153 C3.827,29.153 4.473,29.153 4.473,29.153 zM1.088,32.974 C1.088,32.974 1.088,33.486 1.088,33.486 C1.088,34.021 1.525,34.457 2.062,34.457 C2.062,34.457 10.621,34.457 10.621,34.457 C11.158,34.457 11.595,34.021 11.595,33.486 C11.595,33.486 11.595,32.974 11.595,32.974 C11.595,31.586 10.555,30.437 9.212,30.262 C8.896,31.298 7.749,32.018 6.708,32.018 C6.708,32.018 5.975,32.018 5.975,32.018 C4.934,32.018 3.787,31.298 3.471,30.262 C2.128,30.437 1.088,31.586 1.088,32.974 zM7.626,36.959 C7.896,36.828 8.222,36.939 8.354,37.208 C10.641,41.875 14.571,45.467 19.421,47.322 C19.701,47.429 19.842,47.744 19.734,48.024 C19.651,48.240 19.445,48.373 19.226,48.373 C19.161,48.373 19.096,48.362 19.032,48.336 C13.924,46.382 9.785,42.599 7.377,37.686 C7.245,37.416 7.356,37.091 7.626,36.959 zM23.042,44.331 C23.042,44.331 23.042,43.178 23.042,43.178 C23.042,41.025 24.796,39.274 26.952,39.274 C29.108,39.274 30.862,41.025 30.862,43.178 C30.862,43.178 30.862,44.331 30.862,44.331 C30.862,46.484 29.108,48.235 26.952,48.235 C24.796,48.235 23.042,46.484 23.042,44.331 zM29.774,44.331 C29.774,44.331 29.774,43.178 29.774,43.178 C29.774,41.625 28.508,40.361 26.952,40.361 C25.396,40.361 24.130,41.625 24.130,43.178 C24.130,43.178 24.130,44.331 24.130,44.331 C24.130,45.885 25.396,47.149 26.952,47.149 C28.508,47.149 29.774,45.885 29.774,44.331 zM24.395,48.565 C24.395,48.565 25.041,48.565 25.041,48.565 C25.041,48.565 25.041,49.108 25.041,49.108 C25.041,49.793 25.863,50.345 26.543,50.345 C26.543,50.345 27.275,50.345 27.275,50.345 C27.955,50.345 28.777,49.793 28.777,49.108 C28.777,49.108 28.777,48.565 28.777,48.565 C28.777,48.565 29.424,48.565 29.424,48.565 C31.534,48.565 33.251,50.279 33.251,52.387 C33.251,52.387 33.251,52.897 33.251,52.897 C33.251,54.033 32.326,54.956 31.189,54.956 C31.189,54.956 22.629,54.956 22.629,54.956 C21.492,54.956 20.567,54.033 20.567,52.897 C20.567,52.897 20.567,52.387 20.567,52.387 C20.567,50.279 22.284,48.565 24.395,48.565 zM21.655,52.897 C21.655,53.434 22.092,53.870 22.629,53.870 C22.629,53.870 31.189,53.870 31.189,53.870 C31.726,53.870 32.163,53.434 32.163,52.897 C32.163,52.897 32.163,52.387 32.163,52.387 C32.163,50.999 31.123,49.849 29.780,49.675 C29.463,50.709 28.317,51.431 27.275,51.431 C27.275,51.431 26.543,51.431 26.543,51.431 C25.501,51.431 24.355,50.709 24.038,49.675 C22.695,49.849 21.655,50.999 21.655,52.387 C21.655,52.387 21.655,52.897 21.655,52.897 zM34.057,47.324 C38.907,45.469 42.838,41.878 45.126,37.213 C45.258,36.943 45.585,36.832 45.854,36.963 C46.123,37.095 46.235,37.421 46.103,37.690 C43.694,42.603 39.554,46.384 34.446,48.338 C34.382,48.363 34.316,48.374 34.251,48.374 C34.033,48.374 33.827,48.242 33.743,48.025 C33.636,47.745 33.776,47.431 34.057,47.324 z" fill="#338BC3" /></svg>