<svg xmlns="http://www.w3.org/2000/svg" width="42" height="62" viewBox="0 0 42 62"><path d="M39.721 61.75H22.169a1.4 1.4 0 0 1-1.404-1.396V47.239a1.4 1.4 0 0 1 1.404-1.395h17.552a1.4 1.4 0 0 1 1.404 1.395v13.115a1.4 1.4 0 0 1-1.404 1.396zm-1.404-13.115H23.573v10.324h14.744V48.635zm-3.159-5.466h-8.461a1.4 1.4 0 0 1-1.404-1.396 1.4 1.4 0 0 1 1.404-1.395h8.461c.776 0 1.404.624 1.404 1.395a1.4 1.4 0 0 1-1.404 1.396zm-10.18-4.002a1.284 1.284 0 0 1-1.492-1.043l-.323-1.77c-.361-1.985-1.438-3.472-2.864-4.497l-1.929 7.019a1.277 1.277 0 0 1-1.233.944h-5.943a1.277 1.277 0 0 1-1.233-.943l-1.859-6.76a6.945 6.945 0 0 0-2.547 4.262L2.819 51.402h12.613c.706 0 1.28.582 1.28 1.301s-.574 1.302-1.28 1.302H1.28a1.28 1.28 0 0 1-.984-.476 1.334 1.334 0 0 1-.275-1.076l3.017-16.562c1.06-5.818 6.457-8.433 11.336-8.433 4.866 0 10.249 2.608 11.307 8.413l.322 1.779a1.301 1.301 0 0 1-1.025 1.517zm-10.604-9.091c-1.331 0-2.709.233-3.973.725l1.764 6.417h4l1.803-6.555a11.088 11.088 0 0 0-3.594-.587zm9.479-27.474h-1.567V8.13c.896 1.358 1.359 2.943 1.425 4.719.177 4.828-1.624 8.727-4.888 10.699a8.603 8.603 0 0 1-4.449 1.243 8.6 8.6 0 0 1-4.448-1.243c-2.925-1.767-4.649-5.082-4.848-9.225-.002-.03-.002-.059-.002-.089a17.766 17.766 0 0 1 0-1.385c.066-1.776.568-3.361 1.464-4.719V2.602H4.895a1.29 1.29 0 0 1-1.28-1.301A1.29 1.29 0 0 1 4.895 0h18.958c.707 0 1.28.582 1.28 1.301a1.29 1.29 0 0 1-1.28 1.301zm-12.62 18.707a6.056 6.056 0 0 0 6.282 0c1.848-1.115 3.051-3.143 3.46-5.739-2.572.475-5.231-.261-7.257-2.033a8.9 8.9 0 0 1-1.418 1.015 8.58 8.58 0 0 1-4.505 1.155c.43 2.531 1.622 4.506 3.438 5.602zm-3.606-8.342a6.734 6.734 0 0 0-.004.14c1.734.102 3.649-.54 5.061-2.168.037-.051.079-.089.124-.136.232-.283.45-.653.649-.914H8.484c-.526.911-.814 1.914-.857 3.078zM19.725 2.546H9.101v4.741h10.624V2.546zm.538 7.343h-3.946c-.257.521-.562 1.188-.91 1.724 1.594 1.379 3.726 1.853 5.71 1.274-.052-1.132-.339-2.217-.854-2.998z" fill="#208BCE"/></svg>