<svg xmlns="http://www.w3.org/2000/svg" width="52" height="62" viewBox="0 0 52 62"><path d="M10.959 20.93a9.028 9.028 0 0 0 4.69 1.317 9.03 9.03 0 0 0 4.691-1.317c3.442-2.088 5.308-6.219 5.121-11.333-.227-6.188-5.22-9.181-9.764-9.345-.032-.001-.063-.002-.095 0-4.544.163-9.537 3.157-9.764 9.344-.187 5.115 1.679 9.246 5.121 11.334zm4.69-17.921c2.296.095 4.63 1.072 5.974 3.037-3.786 1.741-8.489 2.868-13.051 3.128.41-4.074 3.784-6.03 7.077-6.165zm6.999 5.588a8 8 0 0 1 .116 1.103c.149 4.074-1.237 7.303-3.802 8.86a6.369 6.369 0 0 1-6.625 0c-2.076-1.26-3.379-3.615-3.722-6.627 4.881-.266 9.936-1.47 14.033-3.336zm22.09 35.907a1.394 1.394 0 0 1 .617-1.846l2.129-1.067a1.338 1.338 0 0 1 1.807.63c.328.683.052 1.51-.617 1.845l-2.129 1.067a1.326 1.326 0 0 1-.594.142 1.35 1.35 0 0 1-1.213-.771zm-19.856-9.986l.777 4.299a1.352 1.352 0 0 0 1.573 1.105 1.377 1.377 0 0 0 1.082-1.606l-.778-4.301c-1.114-6.144-6.787-8.916-11.918-8.916h-.022c-5.127 0-10.792 2.776-11.906 8.916L.512 51.58c-.073.402.034.824.29 1.139.257.315.637.504 1.038.504h16.368c.745 0 1.35-.624 1.35-1.386 0-.761-.605-1.382-1.35-1.382l-14.746-.001L6.345 34.52c.513-2.829 2.391-4.704 4.697-5.723l2.657 6.78h-.646c-.746 0-1.36.63-1.36 1.391v7.719c0 .761.614 1.367 1.36 1.367h5.158c.745 0 1.311-.606 1.311-1.367v-7.719c0-.761-.566-1.391-1.311-1.391H17.6l2.647-6.754c2.277 1.025 4.126 2.892 4.635 5.695zm-8.06 8.779h-2.429v-4.964h2.429v4.964zm-1.173-10.151l-2.003-5.117a12.029 12.029 0 0 1 1.967-.168c.673.002 1.358.061 2.035.18l-1.999 5.105zm35.862 16.429c0 .761-.604 1.379-1.349 1.379h-2.35c-.745 0-1.35-.618-1.35-1.379 0-.762.605-1.378 1.35-1.379h2.349c.746 0 1.35.616 1.35 1.379zm-2.22 7.354a1.348 1.348 0 0 1-1.213.771c-.2 0-.402-.045-.594-.141l-2.129-1.068a1.394 1.394 0 0 1-.617-1.846 1.338 1.338 0 0 1 1.807-.629l2.129 1.068c.669.335.945 1.161.617 1.845zm-7.948-16.795a1.328 1.328 0 0 0-1.243-.141l-9.399 3.58h-6.533c-.746 0-1.407.576-1.407 1.337v15.46c0 .761.604 1.379 1.35 1.379.745 0 1.35-.618 1.35-1.379v-4.804h5.24l9.397 3.585c.414.157.883.11 1.245-.148a1.37 1.37 0 0 0 .585-1.119V41.265c0-.45-.222-.874-.585-1.131zM29.645 52.809h-4.184v-6.48h4.184v6.48zm9.583 3.094l-6.884-2.623v-7.411l6.884-2.622v12.656z" fill="#208BCE"/></svg>