<svg xmlns="http://www.w3.org/2000/svg" width="65" height="65" viewBox="0 0 65 65"><path d="M52.212 64.998H12.788C5.727 64.998.002 59.274.002 52.212V12.788C.002 5.727 5.727.002 12.788.002h39.424c7.062 0 12.786 5.725 12.786 12.786v39.424c0 7.062-5.724 12.786-12.786 12.786zM47.8 33.523c-1.396-1.505-3.255-2.502-5.577-2.99v-.202c1.615-.673 2.881-1.724 3.798-3.155.917-1.429 1.375-3.061 1.375-4.895 0-1.582-.332-2.978-.996-4.19-.665-1.211-1.67-2.178-3.016-2.902a12.09 12.09 0 0 0-4-1.325c-1.422-.21-3.512-.315-6.271-.315H19.839v37.576h15.04c2.608 0 4.757-.235 6.448-.706a13.215 13.215 0 0 0 4.656-2.372c1.195-.925 2.145-2.095 2.852-3.508.707-1.413 1.06-3.054 1.06-4.921 0-2.557-.698-4.589-2.095-6.095zm-10.094 9.981c-.976.421-1.935.648-2.877.681-.942.034-2.642.051-5.098.051h-.504v-9.413h1.741c1.682 0 3.024.013 4.025.038 1.001.025 1.787.147 2.36.366.942.336 1.648.832 2.119 1.489.471.656.707 1.564.707 2.725 0 .909-.198 1.72-.593 2.435-.395.716-1.022 1.258-1.88 1.628zm-1.893-15.697c-.69.32-1.359.497-2.006.53-.648.034-1.779.051-3.394.051h-1.186v-7.95h.656c1.682 0 2.948.013 3.798.038.849.026 1.585.173 2.208.442a2.82 2.82 0 0 1 1.451 1.388c.311.639.467 1.262.467 1.867 0 .825-.143 1.548-.429 2.171-.286.622-.808 1.11-1.565 1.463z" fill="#4D75A3"/></svg>