<svg xmlns="http://www.w3.org/2000/svg" width="65" height="65" viewBox="0 0 65 65"><path d="M61.427 61.426c-2.384 2.384-5.255 3.578-8.612 3.578H12.187c-3.359 0-6.229-1.194-8.613-3.578-2.384-2.382-3.576-5.254-3.576-8.611V12.187c0-3.358 1.192-6.228 3.576-8.614C5.959 1.191 8.829-.002 12.187-.002h40.628c3.357 0 6.228 1.193 8.612 3.575 2.384 2.386 3.577 5.256 3.577 8.614v40.628c0 3.357-1.193 6.229-3.577 8.611zM24.46 4.019l-2.158 8.252-2.243-8.252h-3.302l1.016 2.919c.451 1.3.776 2.273.974 2.921.987 2.907 1.636 5.135 1.947 6.687v8.506h3.132v-8.506l3.808-12.527H24.46zm11.594 10.452c0-1.634-.295-2.862-.888-3.681-.819-1.071-1.919-1.608-3.3-1.608-1.439 0-2.54.537-3.301 1.608-.593.818-.889 2.047-.889 3.681v5.502c0 1.638.296 2.865.889 3.681.761 1.073 1.862 1.609 3.301 1.609 1.381 0 2.481-.535 3.3-1.609.593-.76.888-1.988.888-3.681v-5.502zm10.497-5.078h-2.835V21.37c-.621.876-1.213 1.313-1.778 1.313-.422 0-.648-.225-.676-.678-.028-.056-.043-.424-.043-1.101V9.393h-2.835v12.4c0 1.045.084 1.82.253 2.328.31.762.917 1.143 1.82 1.143 1.016 0 2.102-.636 3.259-1.905v1.693h2.835V9.393zm8.424 23.7c-.283-1.24-.888-2.277-1.82-3.109a5.711 5.711 0 0 0-3.217-1.462c-3.837-.424-9.649-.635-17.436-.635-7.76 0-13.558.212-17.394.635a5.65 5.65 0 0 0-3.238 1.462c-.916.832-1.516 1.869-1.798 3.109-.564 2.455-.846 6.123-.846 11.003 0 4.966.282 8.634.846 11.004a5.928 5.928 0 0 0 1.798 3.09c.917.846 1.982 1.341 3.196 1.481 3.864.424 9.676.635 17.435.635 7.759 0 13.571-.212 17.437-.635 1.213-.14 2.278-.634 3.195-1.481a5.945 5.945 0 0 0 1.798-3.09c.565-2.37.846-6.038.848-11.004 0-4.994-.268-8.661-.804-11.003zM46.679 49.64c0 1.438.479 2.158 1.439 2.158.677 0 1.1-.366 1.27-1.1 0-.029.005-.127.02-.295.013-.171.021-.404.021-.7v-.909h2.878v.381c0 .818-.028 1.427-.084 1.82a3.982 3.982 0 0 1-.635 1.693c-.762 1.13-1.891 1.693-3.386 1.693-1.467 0-2.61-.535-3.428-1.608-.593-.762-.889-1.974-.889-3.639v-5.461c0-1.662.282-2.878.846-3.638.819-1.071 1.947-1.609 3.386-1.609s2.54.538 3.302 1.608c.592.79.889 2.004.889 3.639v3.216h-5.629v2.751zm2.793-5.077v-1.44c0-1.438-.466-2.158-1.398-2.158-.93 0-1.396.719-1.396 2.158v1.44h2.794zm-10.326 9.818c-.989 0-1.947-.579-2.878-1.736v1.524h-2.836V33.304h2.836v6.815c.902-1.129 1.862-1.693 2.878-1.693 1.157 0 1.904.592 2.242 1.777.197.592.297 1.636.297 3.131v6.179c0 1.468-.1 2.497-.297 3.09-.338 1.186-1.085 1.778-2.242 1.778zm-.254-11.299c0-1.411-.41-2.117-1.228-2.117-.48 0-.945.227-1.396.677v9.481c.451.451.916.676 1.396.676.818 0 1.228-.69 1.228-2.074v-6.643zm-10.708 9.394c-1.1 1.27-2.173 1.905-3.216 1.905-.931 0-1.524-.393-1.777-1.186-.169-.451-.254-1.211-.254-2.284V38.638h2.792v11.426c0 .676.014 1.045.043 1.099.027.424.239.636.634.636.564 0 1.157-.437 1.778-1.312V38.638h2.836v15.531h-2.836v-1.693zm-9.057 1.693h-3.131V36.267h-3.301v-2.963h9.818v2.963h-3.386v17.902zm12.739-31.486c-.903 0-1.354-.721-1.354-2.16V13.92c0-1.466.451-2.2 1.354-2.2s1.355.734 1.355 2.2v6.603c0 1.439-.452 2.16-1.355 2.16z" fill="#FFF"/></svg>