<svg xmlns="http://www.w3.org/2000/svg" width="45" height="43" viewBox="0 0 45 43"><path d="M38.333 22c0 1.712-1.732 3.274-4.878 4.398-.09.033-.182.064-.274.096.043.087.085.173.126.261 1.43 3.019 1.551 5.348.34 6.559-.552.552-1.338.828-2.316.828-1.165 0-2.602-.391-4.243-1.168a10.41 10.41 0 0 1-.261-.127 28.6 28.6 0 0 1-.096.275c-1.123 3.146-2.685 4.877-4.398 4.877-1.712 0-3.274-1.731-4.397-4.878-.033-.089-.064-.181-.096-.274a10.41 10.41 0 0 1-.261.127c-1.641.777-3.078 1.168-4.243 1.168-.978 0-1.764-.276-2.317-.828-1.21-1.211-1.09-3.54.34-6.559.041-.088.084-.175.127-.261a28.323 28.323 0 0 1-.274-.096C8.066 25.274 6.333 23.712 6.333 22c0-1.713 1.733-3.274 4.879-4.398l.274-.096a15.53 15.53 0 0 1-.127-.26c-1.43-3.019-1.55-5.349-.34-6.56 1.212-1.21 3.541-1.09 6.56.34l.261.126c.032-.092.063-.183.096-.274C19.059 7.732 20.621 6 22.333 6c1.713 0 3.275 1.732 4.398 4.878l.096.274.261-.126c3.019-1.43 5.348-1.55 6.559-.34 1.211 1.211 1.09 3.541-.34 6.56a15.46 15.46 0 0 1-.126.26l.274.096c3.146 1.124 4.878 2.685 4.878 4.398zM27.531 32.037c2.556 1.211 4.518 1.409 5.383.544.865-.866.667-2.827-.543-5.383-.062-.129-.126-.26-.192-.391a29.914 29.914 0 0 1-4.174.864 30.252 30.252 0 0 1-.864 4.175c.131.065.261.13.39.191zm.842-9.216c.23-.273.453-.547.67-.821a34.97 34.97 0 0 0-.67-.821 44.769 44.769 0 0 1 0 1.642zm1.32-1.667a29.068 29.068 0 0 0 1.987-3.025 28.988 28.988 0 0 0-3.544-.734c.076.694.135 1.405.175 2.129.483.54.945 1.085 1.382 1.63zm-1.382 3.322c-.04.724-.099 1.435-.175 2.13a28.988 28.988 0 0 0 3.544-.734 28.803 28.803 0 0 0-1.987-3.025 39.71 39.71 0 0 1-1.382 1.629zm-5.978-7.487c-.693 0-1.379.017-2.055.049a43.683 43.683 0 0 0-2.906 2.907 42.11 42.11 0 0 0 0 4.111 43.644 43.644 0 0 0 2.906 2.906 42.18 42.18 0 0 0 4.111 0 43.668 43.668 0 0 0 2.906-2.906 43.428 43.428 0 0 0 .001-4.111 42.812 42.812 0 0 0-2.907-2.907 43.492 43.492 0 0 0-2.056-.049zm.822-1.029c-.274-.23-.548-.452-.822-.669a34.91 34.91 0 0 0-.821.669 44.789 44.789 0 0 1 1.643 0zm-1.643 12.08c.273.229.547.453.821.67.274-.217.548-.441.822-.67a44.878 44.878 0 0 1-1.643 0zm5.673-2.35c-.189.196-.381.391-.575.586-.195.194-.39.386-.587.576.356-.031.708-.068 1.055-.108.04-.347.076-.698.107-1.054zm-.246 2.113c-.695.076-1.406.134-2.13.175-.54.483-1.084.944-1.629 1.382 1.024.762 2.04 1.43 3.025 1.987.303-1.09.549-2.281.734-3.544zm-8.027 4.97c.951 2.663 2.198 4.19 3.421 4.19 1.224 0 2.471-1.527 3.422-4.19.048-.135.095-.273.141-.412a30.07 30.07 0 0 1-3.563-2.341 30.06 30.06 0 0 1-3.562 2.341c.046.139.093.277.141.412zm-.45-1.426a29.124 29.124 0 0 0 3.025-1.987 41.246 41.246 0 0 1-1.63-1.382 40.83 40.83 0 0 1-2.129-.175c.185 1.263.431 2.454.734 3.544zm-.873-4.603c.347.04.699.077 1.055.108a63.53 63.53 0 0 1-.587-.575 63.01 63.01 0 0 1-.575-.587c.031.356.067.707.107 1.054zm-5.836 5.837c.865.865 2.826.667 5.382-.543.13-.062.26-.127.391-.192a30.252 30.252 0 0 1-.864-4.175 29.914 29.914 0 0 1-4.174-.864c-.066.131-.13.262-.192.391-1.21 2.556-1.408 4.518-.543 5.383zm4.541-11.402c-.23.273-.453.547-.67.821.217.274.44.548.67.821a37.271 37.271 0 0 1 0-1.642zm.061-1.655c.041-.724.1-1.435.176-2.129a28.988 28.988 0 0 0-3.544.734 29.052 29.052 0 0 0 1.986 3.025c.438-.545.9-1.09 1.382-1.63zm0 4.952a41.355 41.355 0 0 1-1.382-1.629 28.947 28.947 0 0 0-1.986 3.025c1.09.303 2.281.549 3.544.734a40.858 40.858 0 0 1-.176-2.13zM7.37 22c0 1.223 1.528 2.471 4.19 3.422.135.048.273.095.412.141A30.07 30.07 0 0 1 14.313 22a30.143 30.143 0 0 1-2.341-3.562c-.139.045-.277.092-.412.141-2.662.95-4.19 2.198-4.19 3.421zm9.765-10.037c-1.505-.713-2.805-1.075-3.796-1.075-.69 0-1.231.176-1.586.531-.865.865-.667 2.827.543 5.383.062.129.126.26.192.391a29.914 29.914 0 0 1 4.174-.864c.208-1.497.498-2.903.864-4.175-.131-.065-.261-.13-.391-.191zm.347 6.347a45.21 45.21 0 0 1 1.162-1.162c-.356.032-.708.067-1.055.108-.04.347-.076.698-.107 1.054zm.246-2.112a40.82 40.82 0 0 1 2.129-.176 41.246 41.246 0 0 1 1.63-1.382 29.124 29.124 0 0 0-3.025-1.987 28.966 28.966 0 0 0-.734 3.545zm8.027-4.971c-.951-2.662-2.198-4.191-3.422-4.191-1.223 0-2.47 1.529-3.421 4.191-.048.136-.095.273-.141.412a30.048 30.048 0 0 1 3.562 2.34 30.056 30.056 0 0 1 3.563-2.34 22.073 22.073 0 0 0-.141-.412zm.45 1.426a29.124 29.124 0 0 0-3.025 1.987c.545.438 1.089.899 1.629 1.382.724.041 1.435.1 2.13.176a28.966 28.966 0 0 0-.734-3.545zm.873 4.603a37.985 37.985 0 0 0-1.055-.108 45.366 45.366 0 0 1 1.162 1.162 37.933 37.933 0 0 0-.107-1.054zm5.836-5.837c-.355-.354-.896-.531-1.587-.531-.99 0-2.29.362-3.796 1.075-.129.061-.259.126-.391.191a29.96 29.96 0 0 1 .864 4.175c1.498.207 2.904.498 4.175.864.066-.131.13-.262.191-.391 1.211-2.556 1.409-4.518.544-5.383zm.192 7.16a12.386 12.386 0 0 0-.411-.141A30.156 30.156 0 0 1 30.353 22a30.082 30.082 0 0 1 2.342 3.563c.139-.046.276-.093.411-.141 2.664-.951 4.191-2.199 4.191-3.422 0-1.223-1.527-2.471-4.191-3.421zM26.169 22a3.84 3.84 0 0 1-3.836 3.836A3.84 3.84 0 0 1 18.498 22a3.84 3.84 0 0 1 3.835-3.836A3.84 3.84 0 0 1 26.169 22zm-3.836-2.799A2.802 2.802 0 0 0 19.534 22c0 1.544 1.256 2.8 2.799 2.8 1.544 0 2.8-1.256 2.8-2.8a2.802 2.802 0 0 0-2.8-2.799zm1.106 3.317a.518.518 0 0 1-.518-.518.589.589 0 0 0-.588-.588.518.518 0 0 1 0-1.036c.896 0 1.625.729 1.625 1.624a.519.519 0 0 1-.519.518z" fill="#2E8DD6"/></svg>