<svg xmlns="http://www.w3.org/2000/svg" width="28" height="30" viewBox="0 0 28 30"><defs><filter id="a" filterUnits="userSpaceOnUse"><feFlood flood-color="#338BC3" flood-opacity="1"/><feComposite operator="in" in2="SourceGraphic"/><feBlend in2="SourceGraphic" result="colorOverlay"/></filter></defs><path d="M26.404 21.05h-6.567l2.659 7.087a.45.45 0 1 1-.845.316l-2.777-7.403h-4.529v7.245a.451.451 0 0 1-.903 0V21.05H8.913l-2.777 7.403a.452.452 0 0 1-.845-.316L7.95 21.05H1.383a.451.451 0 0 1 0-.902h.512V3.763c0-.779.634-1.413 1.413-1.413h10.134v-.993a.45.45 0 0 1 .903 0v.993h10.134c.779 0 1.414.634 1.414 1.413v16.385h.511a.451.451 0 0 1 0 .902zM24.99 3.763a.512.512 0 0 0-.511-.511H3.308a.512.512 0 0 0-.511.511v16.385H24.99V3.763zM9.563 10.527c.779 0 1.414.634 1.414 1.413s-.635 1.413-1.414 1.413A1.415 1.415 0 0 1 8.15 11.94c0-.779.634-1.413 1.413-1.413zm0 1.924a.511.511 0 1 0 0-1.023.511.511 0 0 0 0 1.023zm1.282-3.559a.452.452 0 0 1-.638 0l-.644-.643-.643.643a.45.45 0 1 1-.638-.638l.643-.643-.643-.643a.451.451 0 0 1 .638-.638l.643.643.643-.643a.451.451 0 0 1 .638.638l-.643.643.644.643a.451.451 0 0 1 0 .638zm3.049 1.635c.779 0 1.413.634 1.413 1.413s-.634 1.413-1.413 1.413c-.78 0-1.414-.634-1.414-1.413s.634-1.413 1.414-1.413zm0 1.924a.512.512 0 1 0-.002-1.024.512.512 0 0 0 .002 1.024zm0 2.405c.779 0 1.413.635 1.413 1.414a1.415 1.415 0 0 1-2.827 0c0-.779.634-1.414 1.414-1.414zm0 1.924a.511.511 0 1 0 0-1.022.511.511 0 0 0 0 1.022zm1.281-7.888a.45.45 0 0 1-.638 0l-.643-.643-.644.643a.449.449 0 0 1-.638 0 .451.451 0 0 1 0-.638l.644-.643-.644-.643a.451.451 0 0 1 .638-.638l.644.643.643-.643a.451.451 0 0 1 .638.638l-.643.643.643.643a.451.451 0 0 1 0 .638zm1.606 6.927a4.365 4.365 0 0 0 4.36-4.361v-.975l-.107.215a.45.45 0 1 1-.807-.403l.962-1.924.002-.004a.555.555 0 0 1 .029-.048l.004-.007.031-.038.01-.011a.388.388 0 0 1 .086-.07l.011-.007a.355.355 0 0 1 .043-.023l.007-.003a.83.83 0 0 1 .053-.02l.01-.002.046-.01.014-.002a.364.364 0 0 1 .114 0l.015.002.046.01.009.002a.677.677 0 0 1 .054.02l.007.003a.355.355 0 0 1 .054.03.479.479 0 0 1 .095.081c.011.013.022.025.031.038l.004.007a.264.264 0 0 1 .029.049l.003.003.962 1.924a.451.451 0 1 1-.807.403l-.108-.215v.975a5.269 5.269 0 0 1-5.262 5.263.45.45 0 1 1 0-.902zm1.443-5.292c.779 0 1.413.634 1.413 1.413s-.634 1.413-1.413 1.413a1.415 1.415 0 0 1-1.413-1.413c0-.779.634-1.413 1.413-1.413zm0 1.924a.511.511 0 1 0 0-1.023.511.511 0 0 0 0 1.023zm1.281-3.559a.449.449 0 0 1-.638 0l-.643-.643-.643.643a.45.45 0 1 1-.638-.638l.643-.643-.643-.643a.451.451 0 0 1 .638-.638l.643.643.643-.643a.451.451 0 0 1 .638.638l-.643.643.643.643a.45.45 0 0 1 0 .638z" filter="url(#a)"/></svg>