<svg xmlns="http://www.w3.org/2000/svg" width="34" height="16" viewBox="0 0 34 16"><path d="M32.634 6.874a.941.941 0 0 0-.205.024L32 7V5.333c0-.315-.278-.577-.525-.773a1.017 1.017 0 0 0-.871-.191c-2.445.582-8.392 1.992-10.817 2.514-1.002.215-2.05.762-2.651 1.703.142-.906.649-1.697 1.431-2.105l10.775-5.165a.341.341 0 0 0-.295-.615l-10.78 5.168-.009.004c-1.426.74-2.125 2.479-1.737 4.18h-1.258L1.51 6.959a.905.905 0 0 0-.201-.023c-.538 0-.976.475-.976 1.058v.492c0 .508.336.945.798 1.038l13.202 2.81V13c0 1.272 1.488 2.32 2.638 2.32 1.151 0 2.696-1.048 2.696-2.32v-.666l13.149-2.873c.46-.094.794-.531.794-1.038v-.491c0-.582-.438-1.058-.976-1.058zm-12.703.675c2.431-.523 8.384-1.934 10.831-2.517a.333.333 0 0 1 .29.065c.082.064.281.131.281.236V7l-12.654 3.053h-.774l.567-.479.015-.013a3.686 3.686 0 0 1 2.082-1.016l.027-.004 9.915-2.067a.341.341 0 1 0-.139-.668L20.47 7.87a4.361 4.361 0 0 0-2.446 1.189l-.592.5c.439-1.446 1.974-1.897 2.499-2.01zm-3.264 3.118l.303.068.03-.068c.022-.081 0 0 0 0h.333v2c0 .122-.239.307-.361.307-.123 0-.305-.185-.305-.307v-2zm16.261-2.244c0 .182-.108.341-.25.37l-13.696 2.894a.343.343 0 0 0-.272.335v.993c0 .895-.935 1.318-1.71 1.318-.775 0-1.667-.438-1.667-1.333v-.999c0-.164-.214-.281-.373-.314L1.266 8.856C1.123 8.827 1 8.516 1 8.334V8c0-.225.168-.382.309-.382a.23.23 0 0 1 .052.006l13.524 3.043v.209a.34.34 0 1 0 .682 0v-.141l.433-.068v2c0 .498.473.989.971.989.499 0 1.029-.491 1.029-.989v-2l.377.068v.141a.34.34 0 1 0 .682 0v-.21l13.522-3.103a.193.193 0 0 1 .053-.007c.142 0 .294.151.294.376v.491z" fill="#208BCE"/></svg>