<svg xmlns="http://www.w3.org/2000/svg" width="75" height="68" viewBox="0 0 75 68"><path d="M73.828 67.999H52.734a1.173 1.173 0 0 1 0-2.346V51.587c0-.649.525-1.175 1.171-1.175h18.751c.647 0 1.172.526 1.172 1.175v14.066c.647 0 1.172.527 1.172 1.175 0 .647-.525 1.171-1.172 1.171zm-2.344-15.242H55.078v12.896h16.406V52.757zm-12.891 2.347a1.17 1.17 0 0 1 1.172 1.171v1.174a1.172 1.172 0 1 1-2.343 0v-1.174a1.17 1.17 0 0 1 1.171-1.171zm0 4.69a1.17 1.17 0 0 1 1.172 1.17v1.174a1.17 1.17 0 0 1-1.172 1.171 1.17 1.17 0 0 1-1.171-1.171v-1.174c0-.646.524-1.17 1.171-1.17zm4.688-4.69a1.17 1.17 0 0 1 1.172 1.171v1.174a1.172 1.172 0 0 1-2.344 0v-1.174a1.17 1.17 0 0 1 1.172-1.171zm0 4.69c.647 0 1.172.524 1.172 1.17v1.174a1.17 1.17 0 1 1-2.344 0v-1.174c0-.646.525-1.17 1.172-1.17zm4.687-4.69c.648 0 1.173.523 1.173 1.171v1.174a1.173 1.173 0 0 1-2.344 0v-1.174a1.17 1.17 0 0 1 1.171-1.171zm0 4.69c.648 0 1.173.524 1.173 1.17v1.174a1.171 1.171 0 0 1-2.344 0v-1.174c0-.646.524-1.17 1.171-1.17zm-4.687-11.727a1.17 1.17 0 0 1-1.172-1.17v-7.034a3.52 3.52 0 0 0-3.516-3.519H38.672v10.553a1.17 1.17 0 0 1-1.172 1.17 1.17 1.17 0 0 1-1.172-1.17V36.344H16.407a3.521 3.521 0 0 0-3.517 3.519v7.034a1.17 1.17 0 0 1-1.171 1.17 1.17 1.17 0 0 1-1.172-1.17v-7.034a5.867 5.867 0 0 1 5.86-5.862h19.921v-3.52a1.172 1.172 0 0 1 2.344 0v3.52h19.921a5.867 5.867 0 0 1 5.86 5.862v7.034a1.17 1.17 0 0 1-1.172 1.17zm-9.376-21.103H21.093a1.17 1.17 0 1 1 0-2.343h1.173V1.171c0-.647.524-1.172 1.171-1.172h28.126c.646 0 1.171.525 1.171 1.172v23.45h1.171a1.172 1.172 0 1 1 0 2.343zM50.39 2.344H24.609v22.277H50.39V2.344zM28.125 4.691c.647 0 1.172.523 1.172 1.172v1.172a1.172 1.172 0 0 1-2.344 0V5.863c0-.649.525-1.172 1.172-1.172zm0 4.687c.647 0 1.172.526 1.172 1.174v1.171a1.172 1.172 0 1 1-2.344 0v-1.171c0-.648.525-1.174 1.172-1.174zm0 4.69c.647 0 1.172.525 1.172 1.172v1.175a1.172 1.172 0 0 1-2.344 0V15.24c0-.647.525-1.172 1.172-1.172zm0 4.691c.647 0 1.172.524 1.172 1.171v1.174a1.172 1.172 0 0 1-2.344 0V19.93c0-.647.525-1.171 1.172-1.171zm4.687-14.068c.647 0 1.172.523 1.172 1.172v1.172a1.172 1.172 0 0 1-2.343 0V5.863a1.17 1.17 0 0 1 1.171-1.172zm0 4.687c.647 0 1.172.526 1.172 1.174v1.171a1.172 1.172 0 1 1-2.343 0v-1.171c0-.648.524-1.174 1.171-1.174zm0 4.69c.647 0 1.172.525 1.172 1.172v1.175a1.172 1.172 0 0 1-2.343 0V15.24c0-.647.524-1.172 1.171-1.172zm0 4.691c.647 0 1.172.524 1.172 1.171v1.174a1.172 1.172 0 0 1-2.343 0V19.93a1.17 1.17 0 0 1 1.171-1.171zM37.5 4.691c.647 0 1.172.523 1.172 1.172v1.172a1.172 1.172 0 0 1-2.344 0V5.863c0-.649.525-1.172 1.172-1.172zm0 4.687c.647 0 1.172.526 1.172 1.174v1.171a1.172 1.172 0 1 1-2.344 0v-1.171c0-.648.525-1.174 1.172-1.174zm0 4.69c.647 0 1.172.525 1.172 1.172v1.175a1.172 1.172 0 0 1-2.344 0V15.24c0-.647.525-1.172 1.172-1.172zm0 4.691c.647 0 1.172.524 1.172 1.171v1.174a1.172 1.172 0 0 1-2.344 0V19.93c0-.647.525-1.171 1.172-1.171zm4.687-14.068c.647 0 1.172.523 1.172 1.172v1.172a1.172 1.172 0 0 1-2.344 0V5.863c0-.649.525-1.172 1.172-1.172zm0 4.687c.647 0 1.172.526 1.172 1.174v1.171a1.172 1.172 0 1 1-2.344 0v-1.171c0-.648.525-1.174 1.172-1.174zm0 4.69c.647 0 1.172.525 1.172 1.172v1.175a1.172 1.172 0 0 1-2.344 0V15.24c0-.647.525-1.172 1.172-1.172zm0 4.691c.647 0 1.172.524 1.172 1.171v1.174a1.172 1.172 0 0 1-2.344 0V19.93c0-.647.525-1.171 1.172-1.171zm4.688-14.068a1.17 1.17 0 0 1 1.171 1.172v1.172a1.17 1.17 0 1 1-2.343 0V5.863a1.17 1.17 0 0 1 1.172-1.172zm0 4.687c.647 0 1.171.526 1.171 1.174v1.171a1.17 1.17 0 1 1-2.343 0v-1.171c0-.648.524-1.174 1.172-1.174zm0 4.69c.647 0 1.171.525 1.171 1.172v1.175a1.171 1.171 0 0 1-2.343 0V15.24c0-.647.524-1.172 1.172-1.172zm0 4.691a1.17 1.17 0 0 1 1.171 1.171v1.174a1.172 1.172 0 1 1-2.343 0V19.93a1.17 1.17 0 0 1 1.172-1.171zM22.266 51.587v14.066a1.174 1.174 0 0 1 0 2.346H1.172A1.172 1.172 0 0 1 0 66.828c0-.648.525-1.175 1.172-1.175V51.587c0-.649.525-1.175 1.172-1.175h18.749c.648 0 1.173.526 1.173 1.175zm-2.344 1.17H3.515v12.896h16.407V52.757zM7.031 55.104a1.17 1.17 0 0 1 1.172 1.171v1.174a1.172 1.172 0 0 1-2.344 0v-1.174a1.17 1.17 0 0 1 1.172-1.171zm0 4.69c.647 0 1.172.524 1.172 1.17v1.174a1.17 1.17 0 1 1-2.344 0v-1.174c0-.646.525-1.17 1.172-1.17zm4.688-4.69a1.17 1.17 0 0 1 1.171 1.171v1.174a1.172 1.172 0 1 1-2.343 0v-1.174a1.17 1.17 0 0 1 1.172-1.171zm0 4.69a1.17 1.17 0 0 1 1.171 1.17v1.174a1.17 1.17 0 0 1-1.171 1.171 1.17 1.17 0 0 1-1.172-1.171v-1.174c0-.646.524-1.17 1.172-1.17zm4.688-4.69a1.17 1.17 0 0 1 1.171 1.171v1.174a1.172 1.172 0 0 1-2.344 0v-1.174c0-.648.525-1.171 1.173-1.171zm0 4.69c.646 0 1.171.524 1.171 1.17v1.174a1.171 1.171 0 1 1-2.344 0v-1.174c0-.646.525-1.17 1.173-1.17zm10.546 5.859V51.587c0-.649.525-1.175 1.172-1.175h18.75c.647 0 1.171.526 1.171 1.175v14.066c.648 0 1.173.527 1.173 1.175 0 .647-.525 1.171-1.173 1.171H26.953a1.174 1.174 0 0 1 0-2.346zm2.344 0h16.406V52.757H29.297v12.896zm12.89-2.344a1.17 1.17 0 0 1-1.172-1.171v-1.174a1.171 1.171 0 0 1 2.344 0v1.174a1.17 1.17 0 0 1-1.172 1.171zm0-4.688a1.172 1.172 0 0 1-1.172-1.172v-1.174a1.17 1.17 0 1 1 2.344 0v1.174c0 .647-.525 1.172-1.172 1.172zM37.5 63.309a1.17 1.17 0 0 1-1.172-1.171v-1.174a1.171 1.171 0 0 1 2.344 0v1.174a1.17 1.17 0 0 1-1.172 1.171zm0-4.688a1.172 1.172 0 0 1-1.172-1.172v-1.174a1.17 1.17 0 1 1 2.344 0v1.174c0 .647-.525 1.172-1.172 1.172zm-4.688 4.688a1.17 1.17 0 0 1-1.171-1.171v-1.174a1.17 1.17 0 0 1 2.343 0v1.174a1.17 1.17 0 0 1-1.172 1.171zm0-4.688a1.172 1.172 0 0 1-1.171-1.172v-1.174a1.17 1.17 0 1 1 2.343 0v1.174c0 .647-.525 1.172-1.172 1.172z" fill="#2E8DD6"/></svg>