<svg version="1.1" xmlns="http://www.w3.org/2000/svg" xmlns:xlink="http://www.w3.org/1999/xlink" width="75" height="68" viewBox="0 0 75 68"><path id="brunches" d="M73.828,67.999 C73.828,67.999 52.734,67.999 52.734,67.999 C52.087,67.999 51.563,67.475 51.563,66.828 C51.563,66.180 52.087,65.653 52.734,65.653 C52.734,65.653 52.734,51.587 52.734,51.587 C52.734,50.938 53.259,50.412 53.905,50.412 C53.905,50.412 72.656,50.412 72.656,50.412 C73.303,50.412 73.828,50.938 73.828,51.587 C73.828,51.587 73.828,65.653 73.828,65.653 C74.475,65.653 75.000,66.180 75.000,66.828 C75.000,67.475 74.475,67.999 73.828,67.999 zM71.484,52.757 L55.078,52.757 L55.078,65.653 L71.484,65.653 L71.484,52.757 zM58.593,55.104 C59.241,55.104 59.765,55.627 59.765,56.275 C59.765,56.275 59.765,57.449 59.765,57.449 C59.765,58.096 59.241,58.621 58.593,58.621 C57.946,58.621 57.422,58.096 57.422,57.449 C57.422,57.449 57.422,56.275 57.422,56.275 C57.422,55.627 57.946,55.104 58.593,55.104 zM58.593,59.794 C59.241,59.794 59.765,60.318 59.765,60.964 C59.765,60.964 59.765,62.138 59.765,62.138 C59.765,62.786 59.241,63.309 58.593,63.309 C57.946,63.309 57.422,62.786 57.422,62.138 C57.422,62.138 57.422,60.964 57.422,60.964 C57.422,60.318 57.946,59.794 58.593,59.794 zM63.281,55.104 C63.928,55.104 64.453,55.627 64.453,56.275 C64.453,56.275 64.453,57.449 64.453,57.449 C64.453,58.096 63.928,58.621 63.281,58.621 C62.634,58.621 62.109,58.096 62.109,57.449 C62.109,57.449 62.109,56.275 62.109,56.275 C62.109,55.627 62.634,55.104 63.281,55.104 zM63.281,59.794 C63.928,59.794 64.453,60.318 64.453,60.964 C64.453,60.964 64.453,62.138 64.453,62.138 C64.453,62.786 63.928,63.309 63.281,63.309 C62.634,63.309 62.109,62.786 62.109,62.138 C62.109,62.138 62.109,60.964 62.109,60.964 C62.109,60.318 62.634,59.794 63.281,59.794 zM67.968,55.104 C68.616,55.104 69.141,55.627 69.141,56.275 C69.141,56.275 69.141,57.449 69.141,57.449 C69.141,58.096 68.616,58.621 67.968,58.621 C67.321,58.621 66.797,58.096 66.797,57.449 C66.797,57.449 66.797,56.275 66.797,56.275 C66.797,55.627 67.321,55.104 67.968,55.104 zM67.968,59.794 C68.616,59.794 69.141,60.318 69.141,60.964 C69.141,60.964 69.141,62.138 69.141,62.138 C69.141,62.786 68.616,63.309 67.968,63.309 C67.321,63.309 66.797,62.786 66.797,62.138 C66.797,62.138 66.797,60.964 66.797,60.964 C66.797,60.318 67.321,59.794 67.968,59.794 zM63.281,48.067 C62.634,48.067 62.109,47.544 62.109,46.897 C62.109,46.897 62.109,39.863 62.109,39.863 C62.109,37.922 60.532,36.344 58.593,36.344 C58.593,36.344 38.672,36.344 38.672,36.344 C38.672,36.344 38.672,46.897 38.672,46.897 C38.672,47.544 38.147,48.067 37.500,48.067 C36.853,48.067 36.328,47.544 36.328,46.897 C36.328,46.897 36.328,36.344 36.328,36.344 C36.328,36.344 16.407,36.344 16.407,36.344 C14.467,36.344 12.890,37.922 12.890,39.863 C12.890,39.863 12.890,46.897 12.890,46.897 C12.890,47.544 12.366,48.067 11.719,48.067 C11.071,48.067 10.547,47.544 10.547,46.897 C10.547,46.897 10.547,39.863 10.547,39.863 C10.547,36.630 13.176,34.001 16.407,34.001 C16.407,34.001 36.328,34.001 36.328,34.001 C36.328,34.001 36.328,30.481 36.328,30.481 C36.328,29.835 36.853,29.310 37.500,29.310 C38.147,29.310 38.672,29.835 38.672,30.481 C38.672,30.481 38.672,34.001 38.672,34.001 C38.672,34.001 58.593,34.001 58.593,34.001 C61.824,34.001 64.453,36.630 64.453,39.863 C64.453,39.863 64.453,46.897 64.453,46.897 C64.453,47.544 63.928,48.067 63.281,48.067 zM53.905,26.964 C53.905,26.964 21.093,26.964 21.093,26.964 C20.446,26.964 19.922,26.441 19.922,25.792 C19.922,25.145 20.446,24.621 21.093,24.621 C21.093,24.621 22.266,24.621 22.266,24.621 C22.266,24.621 22.266,1.171 22.266,1.171 C22.266,0.524 22.790,-0.001 23.437,-0.001 C23.437,-0.001 51.563,-0.001 51.563,-0.001 C52.209,-0.001 52.734,0.524 52.734,1.171 C52.734,1.171 52.734,24.621 52.734,24.621 C52.734,24.621 53.905,24.621 53.905,24.621 C54.553,24.621 55.078,25.145 55.078,25.792 C55.078,26.441 54.553,26.964 53.905,26.964 zM50.390,2.344 L24.609,2.344 L24.609,24.621 L50.390,24.621 L50.390,2.344 zM28.125,4.691 C28.772,4.691 29.297,5.214 29.297,5.863 C29.297,5.863 29.297,7.035 29.297,7.035 C29.297,7.682 28.772,8.206 28.125,8.206 C27.478,8.206 26.953,7.682 26.953,7.035 C26.953,7.035 26.953,5.863 26.953,5.863 C26.953,5.214 27.478,4.691 28.125,4.691 zM28.125,9.378 C28.772,9.378 29.297,9.904 29.297,10.552 C29.297,10.552 29.297,11.723 29.297,11.723 C29.297,12.371 28.772,12.895 28.125,12.895 C27.478,12.895 26.953,12.371 26.953,11.723 C26.953,11.723 26.953,10.552 26.953,10.552 C26.953,9.904 27.478,9.378 28.125,9.378 zM28.125,14.068 C28.772,14.068 29.297,14.593 29.297,15.240 C29.297,15.240 29.297,16.415 29.297,16.415 C29.297,17.060 28.772,17.585 28.125,17.585 C27.478,17.585 26.953,17.060 26.953,16.415 C26.953,16.415 26.953,15.240 26.953,15.240 C26.953,14.593 27.478,14.068 28.125,14.068 zM28.125,18.759 C28.772,18.759 29.297,19.283 29.297,19.930 C29.297,19.930 29.297,21.104 29.297,21.104 C29.297,21.751 28.772,22.276 28.125,22.276 C27.478,22.276 26.953,21.751 26.953,21.104 C26.953,21.104 26.953,19.930 26.953,19.930 C26.953,19.283 27.478,18.759 28.125,18.759 zM32.812,4.691 C33.459,4.691 33.984,5.214 33.984,5.863 C33.984,5.863 33.984,7.035 33.984,7.035 C33.984,7.682 33.459,8.206 32.812,8.206 C32.165,8.206 31.641,7.682 31.641,7.035 C31.641,7.035 31.641,5.863 31.641,5.863 C31.641,5.214 32.165,4.691 32.812,4.691 zM32.812,9.378 C33.459,9.378 33.984,9.904 33.984,10.552 C33.984,10.552 33.984,11.723 33.984,11.723 C33.984,12.371 33.459,12.895 32.812,12.895 C32.165,12.895 31.641,12.371 31.641,11.723 C31.641,11.723 31.641,10.552 31.641,10.552 C31.641,9.904 32.165,9.378 32.812,9.378 zM32.812,14.068 C33.459,14.068 33.984,14.593 33.984,15.240 C33.984,15.240 33.984,16.415 33.984,16.415 C33.984,17.060 33.459,17.585 32.812,17.585 C32.165,17.585 31.641,17.060 31.641,16.415 C31.641,16.415 31.641,15.240 31.641,15.240 C31.641,14.593 32.165,14.068 32.812,14.068 zM32.812,18.759 C33.459,18.759 33.984,19.283 33.984,19.930 C33.984,19.930 33.984,21.104 33.984,21.104 C33.984,21.751 33.459,22.276 32.812,22.276 C32.165,22.276 31.641,21.751 31.641,21.104 C31.641,21.104 31.641,19.930 31.641,19.930 C31.641,19.283 32.165,18.759 32.812,18.759 zM37.500,4.691 C38.147,4.691 38.672,5.214 38.672,5.863 C38.672,5.863 38.672,7.035 38.672,7.035 C38.672,7.682 38.147,8.206 37.500,8.206 C36.853,8.206 36.328,7.682 36.328,7.035 C36.328,7.035 36.328,5.863 36.328,5.863 C36.328,5.214 36.853,4.691 37.500,4.691 zM37.500,9.378 C38.147,9.378 38.672,9.904 38.672,10.552 C38.672,10.552 38.672,11.723 38.672,11.723 C38.672,12.371 38.147,12.895 37.500,12.895 C36.853,12.895 36.328,12.371 36.328,11.723 C36.328,11.723 36.328,10.552 36.328,10.552 C36.328,9.904 36.853,9.378 37.500,9.378 zM37.500,14.068 C38.147,14.068 38.672,14.593 38.672,15.240 C38.672,15.240 38.672,16.415 38.672,16.415 C38.672,17.060 38.147,17.585 37.500,17.585 C36.853,17.585 36.328,17.060 36.328,16.415 C36.328,16.415 36.328,15.240 36.328,15.240 C36.328,14.593 36.853,14.068 37.500,14.068 zM37.500,18.759 C38.147,18.759 38.672,19.283 38.672,19.930 C38.672,19.930 38.672,21.104 38.672,21.104 C38.672,21.751 38.147,22.276 37.500,22.276 C36.853,22.276 36.328,21.751 36.328,21.104 C36.328,21.104 36.328,19.930 36.328,19.930 C36.328,19.283 36.853,18.759 37.500,18.759 zM42.187,4.691 C42.834,4.691 43.359,5.214 43.359,5.863 C43.359,5.863 43.359,7.035 43.359,7.035 C43.359,7.682 42.834,8.206 42.187,8.206 C41.540,8.206 41.015,7.682 41.015,7.035 C41.015,7.035 41.015,5.863 41.015,5.863 C41.015,5.214 41.540,4.691 42.187,4.691 zM42.187,9.378 C42.834,9.378 43.359,9.904 43.359,10.552 C43.359,10.552 43.359,11.723 43.359,11.723 C43.359,12.371 42.834,12.895 42.187,12.895 C41.540,12.895 41.015,12.371 41.015,11.723 C41.015,11.723 41.015,10.552 41.015,10.552 C41.015,9.904 41.540,9.378 42.187,9.378 zM42.187,14.068 C42.834,14.068 43.359,14.593 43.359,15.240 C43.359,15.240 43.359,16.415 43.359,16.415 C43.359,17.060 42.834,17.585 42.187,17.585 C41.540,17.585 41.015,17.060 41.015,16.415 C41.015,16.415 41.015,15.240 41.015,15.240 C41.015,14.593 41.540,14.068 42.187,14.068 zM42.187,18.759 C42.834,18.759 43.359,19.283 43.359,19.930 C43.359,19.930 43.359,21.104 43.359,21.104 C43.359,21.751 42.834,22.276 42.187,22.276 C41.540,22.276 41.015,21.751 41.015,21.104 C41.015,21.104 41.015,19.930 41.015,19.930 C41.015,19.283 41.540,18.759 42.187,18.759 zM46.875,4.691 C47.522,4.691 48.046,5.214 48.046,5.863 C48.046,5.863 48.046,7.035 48.046,7.035 C48.046,7.682 47.522,8.206 46.875,8.206 C46.227,8.206 45.703,7.682 45.703,7.035 C45.703,7.035 45.703,5.863 45.703,5.863 C45.703,5.214 46.227,4.691 46.875,4.691 zM46.875,9.378 C47.522,9.378 48.046,9.904 48.046,10.552 C48.046,10.552 48.046,11.723 48.046,11.723 C48.046,12.371 47.522,12.895 46.875,12.895 C46.227,12.895 45.703,12.371 45.703,11.723 C45.703,11.723 45.703,10.552 45.703,10.552 C45.703,9.904 46.227,9.378 46.875,9.378 zM46.875,14.068 C47.522,14.068 48.046,14.593 48.046,15.240 C48.046,15.240 48.046,16.415 48.046,16.415 C48.046,17.060 47.522,17.585 46.875,17.585 C46.227,17.585 45.703,17.060 45.703,16.415 C45.703,16.415 45.703,15.240 45.703,15.240 C45.703,14.593 46.227,14.068 46.875,14.068 zM46.875,18.759 C47.522,18.759 48.046,19.283 48.046,19.930 C48.046,19.930 48.046,21.104 48.046,21.104 C48.046,21.751 47.522,22.276 46.875,22.276 C46.227,22.276 45.703,21.751 45.703,21.104 C45.703,21.104 45.703,19.930 45.703,19.930 C45.703,19.283 46.227,18.759 46.875,18.759 zM22.266,51.587 C22.266,51.587 22.266,65.653 22.266,65.653 C22.912,65.653 23.437,66.180 23.437,66.828 C23.437,67.475 22.912,67.999 22.266,67.999 C22.266,67.999 1.172,67.999 1.172,67.999 C0.525,67.999 -0.000,67.475 -0.000,66.828 C-0.000,66.180 0.525,65.653 1.172,65.653 C1.172,65.653 1.172,51.587 1.172,51.587 C1.172,50.938 1.697,50.412 2.344,50.412 C2.344,50.412 21.093,50.412 21.093,50.412 C21.741,50.412 22.266,50.938 22.266,51.587 zM19.922,52.757 L3.515,52.757 L3.515,65.653 L19.922,65.653 L19.922,52.757 zM7.031,55.104 C7.678,55.104 8.203,55.627 8.203,56.275 C8.203,56.275 8.203,57.449 8.203,57.449 C8.203,58.096 7.678,58.621 7.031,58.621 C6.384,58.621 5.859,58.096 5.859,57.449 C5.859,57.449 5.859,56.275 5.859,56.275 C5.859,55.627 6.384,55.104 7.031,55.104 zM7.031,59.794 C7.678,59.794 8.203,60.318 8.203,60.964 C8.203,60.964 8.203,62.138 8.203,62.138 C8.203,62.786 7.678,63.309 7.031,63.309 C6.384,63.309 5.859,62.786 5.859,62.138 C5.859,62.138 5.859,60.964 5.859,60.964 C5.859,60.318 6.384,59.794 7.031,59.794 zM11.719,55.104 C12.366,55.104 12.890,55.627 12.890,56.275 C12.890,56.275 12.890,57.449 12.890,57.449 C12.890,58.096 12.366,58.621 11.719,58.621 C11.071,58.621 10.547,58.096 10.547,57.449 C10.547,57.449 10.547,56.275 10.547,56.275 C10.547,55.627 11.071,55.104 11.719,55.104 zM11.719,59.794 C12.366,59.794 12.890,60.318 12.890,60.964 C12.890,60.964 12.890,62.138 12.890,62.138 C12.890,62.786 12.366,63.309 11.719,63.309 C11.071,63.309 10.547,62.786 10.547,62.138 C10.547,62.138 10.547,60.964 10.547,60.964 C10.547,60.318 11.071,59.794 11.719,59.794 zM16.407,55.104 C17.053,55.104 17.578,55.627 17.578,56.275 C17.578,56.275 17.578,57.449 17.578,57.449 C17.578,58.096 17.053,58.621 16.407,58.621 C15.759,58.621 15.234,58.096 15.234,57.449 C15.234,57.449 15.234,56.275 15.234,56.275 C15.234,55.627 15.759,55.104 16.407,55.104 zM16.407,59.794 C17.053,59.794 17.578,60.318 17.578,60.964 C17.578,60.964 17.578,62.138 17.578,62.138 C17.578,62.786 17.053,63.309 16.407,63.309 C15.759,63.309 15.234,62.786 15.234,62.138 C15.234,62.138 15.234,60.964 15.234,60.964 C15.234,60.318 15.759,59.794 16.407,59.794 zM26.953,65.653 C26.953,65.653 26.953,51.587 26.953,51.587 C26.953,50.938 27.478,50.412 28.125,50.412 C28.125,50.412 46.875,50.412 46.875,50.412 C47.522,50.412 48.046,50.938 48.046,51.587 C48.046,51.587 48.046,65.653 48.046,65.653 C48.694,65.653 49.219,66.180 49.219,66.828 C49.219,67.475 48.694,67.999 48.046,67.999 C48.046,67.999 26.953,67.999 26.953,67.999 C26.305,67.999 25.781,67.475 25.781,66.828 C25.781,66.180 26.305,65.653 26.953,65.653 zM29.297,65.653 L45.703,65.653 L45.703,52.757 L29.297,52.757 L29.297,65.653 zM42.187,63.309 C41.540,63.309 41.015,62.786 41.015,62.138 C41.015,62.138 41.015,60.964 41.015,60.964 C41.015,60.318 41.540,59.794 42.187,59.794 C42.834,59.794 43.359,60.318 43.359,60.964 C43.359,60.964 43.359,62.138 43.359,62.138 C43.359,62.786 42.834,63.309 42.187,63.309 zM42.187,58.621 C41.540,58.621 41.015,58.096 41.015,57.449 C41.015,57.449 41.015,56.275 41.015,56.275 C41.015,55.627 41.540,55.104 42.187,55.104 C42.834,55.104 43.359,55.627 43.359,56.275 C43.359,56.275 43.359,57.449 43.359,57.449 C43.359,58.096 42.834,58.621 42.187,58.621 zM37.500,63.309 C36.853,63.309 36.328,62.786 36.328,62.138 C36.328,62.138 36.328,60.964 36.328,60.964 C36.328,60.318 36.853,59.794 37.500,59.794 C38.147,59.794 38.672,60.318 38.672,60.964 C38.672,60.964 38.672,62.138 38.672,62.138 C38.672,62.786 38.147,63.309 37.500,63.309 zM37.500,58.621 C36.853,58.621 36.328,58.096 36.328,57.449 C36.328,57.449 36.328,56.275 36.328,56.275 C36.328,55.627 36.853,55.104 37.500,55.104 C38.147,55.104 38.672,55.627 38.672,56.275 C38.672,56.275 38.672,57.449 38.672,57.449 C38.672,58.096 38.147,58.621 37.500,58.621 zM32.812,63.309 C32.165,63.309 31.641,62.786 31.641,62.138 C31.641,62.138 31.641,60.964 31.641,60.964 C31.641,60.318 32.165,59.794 32.812,59.794 C33.459,59.794 33.984,60.318 33.984,60.964 C33.984,60.964 33.984,62.138 33.984,62.138 C33.984,62.786 33.459,63.309 32.812,63.309 zM32.812,58.621 C32.165,58.621 31.641,58.096 31.641,57.449 C31.641,57.449 31.641,56.275 31.641,56.275 C31.641,55.627 32.165,55.104 32.812,55.104 C33.459,55.104 33.984,55.627 33.984,56.275 C33.984,56.275 33.984,57.449 33.984,57.449 C33.984,58.096 33.459,58.621 32.812,58.621 z" fill="#2E8DD6" /></svg>