<svg xmlns="http://www.w3.org/2000/svg" width="43" height="62" viewBox="0 0 43 62"><path d="M27.697 40.378h8.461a1.4 1.4 0 0 1 1.404 1.395 1.4 1.4 0 0 1-1.404 1.395h-8.461a1.4 1.4 0 0 1-1.404-1.395 1.4 1.4 0 0 1 1.404-1.395zm14.428 19.977a1.4 1.4 0 0 1-1.404 1.394H23.169a1.4 1.4 0 0 1-1.404-1.394V47.239c0-.771.629-1.394 1.404-1.394h17.552c.775 0 1.404.623 1.404 1.394v13.116zm-2.808-11.721H24.573v10.325h14.744V48.634zM16.643 32.38a1.4 1.4 0 0 0-1.404 1.396l.001 9.703c0 .771.628 1.395 1.404 1.395a1.4 1.4 0 0 0 1.404-1.395v-9.703a1.4 1.4 0 0 0-1.405-1.396zM6.448 9.708C6.684 3.446 11.879.415 16.606.251a.818.818 0 0 1 .099 0c1.933.067 3.945.614 5.663 1.665.093.045.179.099.258.163 2.354 1.537 4.102 4.057 4.236 7.629.195 5.176-1.747 9.357-5.327 11.47a9.595 9.595 0 0 1-9.759.001c-3.581-2.114-5.522-6.295-5.328-11.471zm6.762 9.072a6.78 6.78 0 0 0 6.891-.001c2.669-1.576 4.11-4.843 3.955-8.966-.068-1.794-.694-3.213-1.649-4.279-1.419 2.902-4.35 4.839-8.074 5.211a1.401 1.401 0 0 1-1.537-1.248 1.398 1.398 0 0 1 1.256-1.528c2.32-.232 4.989-1.444 6.033-4.123a9.093 9.093 0 0 0-3.429-.805c-3.571.143-7.232 2.287-7.401 6.772-.155 4.123 1.286 7.391 3.955 8.967zm13.14 16.151l.084.536a1.396 1.396 0 0 0 1.628 1.118 1.393 1.393 0 0 0 1.12-1.627l-.102-.569c-1.161-6.232-7.083-9.053-12.435-9.053h-.001c-5.352 0-11.273 2.821-12.434 9.053L.9 52.157a1.41 1.41 0 0 0 .301 1.155c.267.319.663.507 1.08.507l14.363.002a1.4 1.4 0 0 0 1.404-1.395c0-.77-.629-1.393-1.404-1.393H3.969l3.035-16.102c.771-4.138 4.511-6.244 8.302-6.661v.766a1.4 1.4 0 0 0 1.404 1.396 1.4 1.4 0 0 0 1.404-1.396v-.766c3.651.416 7.465 2.523 8.236 6.661z" fill="#208BCE"/></svg>