<svg xmlns="http://www.w3.org/2000/svg" width="42" height="39" viewBox="0 0 42 39"><path d="M33.062 10.187c0-.449.489-.687.938-.687h1.5c.449 0 .812.238.812.687a.812.812 0 0 1-.813.812h-1.624a.812.812 0 0 1-.813-.812zM35.88 14.5h1.413a.708.708 0 0 1 0 1.416H35.88a.708.708 0 0 1 0-1.416zm0 3.542h1.413a.708.708 0 0 1 0 1.416H35.88a.708.708 0 0 1 0-1.416zm0 3.541h1.413a.708.708 0 0 1 0 1.417H35.88a.708.708 0 0 1 0-1.417zm0 7.084h1.413a.708.708 0 0 1 0 1.416H35.88a.708.708 0 0 1 0-1.416zm0-3.542h1.413a.708.708 0 0 1 0 1.416H35.88a.708.708 0 0 1 0-1.416zM6.62 30.083H5.206a.707.707 0 0 1 0-1.416H6.62a.707.707 0 1 1 0 1.416zm0-3.542H5.206a.707.707 0 0 1 0-1.416H6.62a.707.707 0 0 1 0 1.416zm0-3.541H5.206a.707.707 0 0 1-.706-.709c0-.391.316-.708.706-.708H6.62c.39 0 .706.317.706.708A.707.707 0 0 1 6.62 23zm0-7.084H5.206a.707.707 0 0 1 0-1.416H6.62a.707.707 0 0 1 0 1.416zm0 3.542H5.206a.707.707 0 0 1 0-1.416H6.62a.707.707 0 1 1 0 1.416zM38 38h-7.5c-.449 0-.813-.427-.813-.875 0-.45.364-.625.813-.625H38c1.344 0 2.5-1.156 2.5-2.5V11l-1.75-.001a.812.812 0 0 1-.813-.812c0-.449.114-.687.563-.687h2V7.499C40.5 6.156 39.344 5 38 5h-1v1c0 1.344-1.156 2.5-2.5 2.5S32 7.344 32 6V5H10.5v1c0 1.344-1.156 2.5-2.5 2.5S5.5 7.344 5.5 6V5h-1C3.156 5 2 6.156 2 7.499V9.5h28.5c.449 0 .937.238.937.687a.811.811 0 0 1-.812.812L2 11v23c0 1.344 1.156 2.5 2.5 2.5H12c.449 0 .812.175.812.625a.813.813 0 0 1-.812.813H4.562A4.067 4.067 0 0 1 .5 33.875V7.625c0-2.24 1.76-4.125 4-4.125h1v-1C5.5 1.156 6.656 0 8 0s2.5 1.156 2.5 2.5v1H32v-1C32 1.156 33.156 0 34.5 0S37 1.156 37 2.5v1h1c2.24 0 4 1.885 4 4.125v26.25C42 36.115 40.24 38 38 38zM9 2.5c0-.448-.552-1-1-1-.448 0-1 .489-1 .937V6c0 .449.552 1 1 1 .448 0 1-.551 1-1V2.5zm26.5 0c0-.448-.552-1-1-1-.448 0-1 .552-1 1V6c0 .449.552 1 1 1 .448 0 1-.551 1-1l-.001-1.623v-.004L35.5 2.5zM10.652 21.79a.714.714 0 0 1 0 1.002.706.706 0 0 1-1.207-.501c0-.187.075-.369.207-.501a.711.711 0 0 1 1 0zm.913-5.874h-1.413a.708.708 0 0 1 0-1.416h1.413a.708.708 0 0 1 0 1.416zm0 3.542h-1.413a.708.708 0 0 1 0-1.416h1.413a.708.708 0 0 1 0 1.416zm4.033-3.542a.708.708 0 0 1 0-1.416h1.412a.707.707 0 0 1 0 1.416h-1.412zm4.945 0a.707.707 0 0 1 0-1.416h1.413a.707.707 0 0 1 0 1.416h-1.413zm4.946 0a.707.707 0 0 1 0-1.416h1.413a.707.707 0 0 1 0 1.416h-1.413zm7.358 6.876a.704.704 0 0 1-.999 0 .71.71 0 0 1 .5-1.209.709.709 0 0 1 .499 1.209zm-.499-6.876h-1.413a.707.707 0 0 1 0-1.416h1.413a.707.707 0 0 1 0 1.416zm0 3.542h-1.413a.707.707 0 0 1 0-1.416h1.413a.707.707 0 1 1 0 1.416zM21.25 17.75c5.843 0 10.598 4.765 10.598 10.625C31.848 34.233 27.093 39 21.25 39c-5.844 0-10.598-4.767-10.598-10.625 0-5.86 4.754-10.625 10.598-10.625zm-.707 19.806v-.682a.708.708 0 0 1 1.413 0v.682c4.503-.344 8.108-3.959 8.452-8.473h-.68a.708.708 0 0 1 0-1.417h.68c-.344-4.513-3.949-8.127-8.452-8.473v.682a.707.707 0 1 1-1.413 0v-.682c-4.502.346-8.107 3.96-8.451 8.473h.68a.708.708 0 0 1 0 1.417h-.68c.344 4.514 3.949 8.129 8.451 8.473zM22 23.5v10h-1.5V26l-2 1.5v-2l2-2H22z" fill="#338BC3"/></svg>