<svg xmlns="http://www.w3.org/2000/svg" width="24" height="34" viewBox="0 0 24 34"><path d="M17.119 32.891a6.547 6.547 0 0 1-4.235-1.558H2.667C1.044 31.333 0 30.33 0 28.667V8c0-1.331.981-2.333 2.333-2.333H5V4.334c0-.289.378-.668.667-.668h1.988a2.802 2.802 0 0 1 5.603.044c0 .009.075-.051.075-.044h2c.29 0 .334.379.334.668v1.333h3C20.435 5.667 21 7.023 21 8v13c1.711 1.189 2.713 3.082 2.713 5.316 0 3.625-2.957 6.575-6.594 6.575zM14.667 4.667h-2c-.161 0-.324.041-.424-.085a.521.521 0 0 1-.094-.451c.041-.159.059-.291.059-.42a1.754 1.754 0 0 0-3.508 0c0 .129.019.266.058.423a.522.522 0 0 1-.095.448c-.098.126-.168.085-.33.085H6v2.666h8.667V4.667zM20 8c0-.667-.437-1.334-1.333-1.334h-3l-.074 1.197c0 .288-.303.47-.593.47H5.667c-.29 0-.687-.182-.687-.47L5 6.666H2.312c-.68 0-1.308.716-1.309 1.313C1.001 12.39.987 28.489 1 28.667c0 1.597 1.667 1.666 1.667 1.666H12c-.777-1.078-1.475-2.591-1.475-4.017 0-3.626 2.958-6.577 6.593-6.577.966 0 2.054.222 2.882.594V8zm-2.881 12.784c-3.057 0-5.545 2.482-5.545 5.532 0 3.049 2.488 5.53 5.545 5.53s5.545-2.481 5.545-5.53c0-3.05-2.488-5.532-5.545-5.532zm.074 7.493a.52.52 0 0 1-.69.034l-2.53-2.021a.521.521 0 0 1-.081-.734.525.525 0 0 1 .736-.081l2.172 1.733 3.209-3.071a.523.523 0 1 1 .724.756l-3.54 3.384zM9 17.666c-.289 0-.514-.205-.514-.494A.5.5 0 0 1 9 16.666h7.667c.288 0 .556.218.556.506 0 .288-.268.494-.556.494H9zM16.667 13H9c-.289 0-.514-.068-.514-.358 0-.288.225-.642.514-.642h7.667c.288 0 .556.354.556.642 0 .289-.268.358-.556.358zM5.032 18.357a.52.52 0 0 1-.69.034l-1.25-1.06a.522.522 0 1 1 .655-.815l.892.772 1.608-1.79a.523.523 0 1 1 .725.755l-1.94 2.104zm0-4.479a.519.519 0 0 1-.363.146.54.54 0 0 1-.327-.112l-1.25-1.061a.522.522 0 1 1 .655-.815l.892.771 1.608-1.789a.524.524 0 0 1 .725.755l-1.94 2.105zM4.062 20h1.542c.586 0 1.063.476 1.063 1.062v1.542c0 .586-.477 1.062-1.063 1.062H4.062A1.063 1.063 0 0 1 3 22.604v-1.542C3 20.476 3.477 20 4.062 20zm-.437 2.604c0 .241.196.437.437.437h1.542a.438.438 0 0 0 .438-.437v-1.542a.438.438 0 0 0-.438-.437H4.062a.437.437 0 0 0-.437.437v1.542zm.437 1.729h1.542c.586 0 1.063.477 1.063 1.063v1.541c0 .586-.477 1.063-1.063 1.063H4.062A1.064 1.064 0 0 1 3 26.937v-1.541c0-.586.477-1.063 1.062-1.063zm-.437 2.604c0 .242.196.438.437.438h1.542a.439.439 0 0 0 .438-.438v-1.541a.439.439 0 0 0-.438-.438H4.062a.438.438 0 0 0-.437.438v1.541zM9 21h1.333c.29 0 .441.412.441.7 0 .289-.151.3-.441.3H9c-.289 0-.513-.011-.513-.3 0-.288.224-.7.513-.7zm-.039 4.717a.518.518 0 0 1 .473.513.52.52 0 0 1-.473.513.52.52 0 0 1-.474-.513c0-.271.209-.487.474-.513zm.05-.01c-.018 0-.033.008-.05.01-.018-.002-.033-.01-.051-.01h.101zm-.101 1.046c.018 0 .033-.009.051-.01.017.001.032.01.05.01H8.91z" fill="#338BC3"/></svg>