<svg version="1.1" xmlns="http://www.w3.org/2000/svg" xmlns:xlink="http://www.w3.org/1999/xlink" width="24" height="34" viewBox="0 0 24 34"><path id="-Block7_icon5" d="M17.119,32.891 C15.504,32.891 14.031,32.300 12.884,31.333 C12.884,31.333 2.667,31.333 2.667,31.333 C1.044,31.333 0.000,30.330 0.000,28.667 C0.000,28.667 0.000,8.000 0.000,8.000 C0.000,6.669 0.981,5.667 2.333,5.667 C2.333,5.667 5.000,5.667 5.000,5.667 C5.000,5.667 5.000,4.334 5.000,4.334 C5.000,4.045 5.378,3.666 5.667,3.666 C5.667,3.666 7.655,3.666 7.655,3.666 C7.679,2.147 8.925,0.917 10.455,0.917 C12.000,0.917 13.258,2.170 13.258,3.710 C13.258,3.719 13.333,3.659 13.333,3.666 C13.333,3.666 15.333,3.666 15.333,3.666 C15.623,3.666 15.667,4.045 15.667,4.334 C15.667,4.334 15.667,5.667 15.667,5.667 C15.667,5.667 18.667,5.667 18.667,5.667 C20.435,5.667 21.000,7.023 21.000,8.000 C21.000,8.000 21.000,21.000 21.000,21.000 C22.711,22.189 23.713,24.082 23.713,26.316 C23.713,29.941 20.756,32.891 17.119,32.891 zM14.667,4.667 C14.667,4.667 12.667,4.667 12.667,4.667 C12.506,4.667 12.343,4.708 12.243,4.582 C12.143,4.454 12.109,4.289 12.149,4.131 C12.190,3.972 12.208,3.840 12.208,3.711 C12.208,2.748 11.421,1.963 10.454,1.963 C9.487,1.963 8.700,2.748 8.700,3.711 C8.700,3.840 8.719,3.977 8.758,4.134 C8.797,4.290 8.762,4.455 8.663,4.582 C8.565,4.708 8.495,4.667 8.333,4.667 C8.333,4.667 6.000,4.667 6.000,4.667 L6.000,7.333 L14.667,7.333 L14.667,4.667 zM20.000,8.000 C20.000,7.333 19.563,6.666 18.667,6.666 C17.500,6.666 15.667,6.666 15.667,6.666 C15.667,6.666 15.593,7.863 15.593,7.863 C15.593,8.151 15.290,8.333 15.000,8.333 C15.000,8.333 5.667,8.333 5.667,8.333 C5.377,8.333 4.980,8.151 4.980,7.863 C4.980,7.863 5.000,6.666 5.000,6.666 C5.000,6.666 3.497,6.666 2.312,6.666 C1.632,6.666 1.004,7.382 1.003,7.979 C1.001,12.390 0.987,28.489 1.000,28.667 C1.000,30.264 2.667,30.333 2.667,30.333 C2.667,30.333 12.000,30.333 12.000,30.333 C11.223,29.255 10.525,27.742 10.525,26.316 C10.525,22.690 13.483,19.739 17.118,19.739 C18.084,19.739 19.172,19.961 20.000,20.333 C20.000,20.333 20.000,11.423 20.000,8.000 zM17.119,20.784 C14.062,20.784 11.574,23.266 11.574,26.316 C11.574,29.365 14.062,31.846 17.119,31.846 C20.176,31.846 22.664,29.365 22.664,26.316 C22.664,23.266 20.176,20.784 17.119,20.784 zM17.193,28.277 C17.092,28.375 16.961,28.425 16.830,28.425 C16.715,28.425 16.601,28.386 16.503,28.311 C16.503,28.311 13.973,26.290 13.973,26.290 C13.748,26.111 13.711,25.784 13.892,25.556 C14.075,25.331 14.402,25.295 14.628,25.475 C14.628,25.475 16.800,27.208 16.800,27.208 C16.800,27.208 20.009,24.137 20.009,24.137 C20.217,23.937 20.549,23.943 20.750,24.154 C20.949,24.360 20.940,24.694 20.733,24.893 C20.733,24.893 17.193,28.277 17.193,28.277 zM9.000,17.666 C8.711,17.666 8.486,17.461 8.486,17.172 C8.486,16.883 8.711,16.666 9.000,16.666 C9.000,16.666 16.667,16.666 16.667,16.666 C16.955,16.666 17.223,16.884 17.223,17.172 C17.223,17.460 16.955,17.666 16.667,17.666 C16.667,17.666 9.000,17.666 9.000,17.666 zM16.667,13.000 C16.667,13.000 9.000,13.000 9.000,13.000 C8.711,13.000 8.486,12.932 8.486,12.642 C8.486,12.354 8.711,12.000 9.000,12.000 C9.000,12.000 16.667,12.000 16.667,12.000 C16.955,12.000 17.223,12.354 17.223,12.642 C17.223,12.931 16.955,13.000 16.667,13.000 zM5.032,18.357 C4.931,18.455 4.800,18.505 4.669,18.505 C4.554,18.505 4.439,18.466 4.342,18.391 C4.342,18.391 3.092,17.331 3.092,17.331 C2.867,17.151 2.830,16.823 3.011,16.597 C3.194,16.371 3.521,16.334 3.747,16.516 C3.747,16.516 4.639,17.288 4.639,17.288 C4.639,17.288 6.247,15.498 6.247,15.498 C6.456,15.297 6.788,15.304 6.988,15.514 C7.188,15.719 7.179,16.053 6.972,16.253 C6.972,16.253 5.032,18.357 5.032,18.357 zM5.032,13.878 C4.931,13.976 4.800,14.024 4.669,14.024 C4.554,14.024 4.439,13.986 4.342,13.912 C4.342,13.912 3.092,12.851 3.092,12.851 C2.867,12.671 2.830,12.344 3.011,12.116 C3.194,11.892 3.521,11.855 3.747,12.036 C3.747,12.036 4.639,12.807 4.639,12.807 C4.639,12.807 6.247,11.018 6.247,11.018 C6.456,10.817 6.788,10.823 6.988,11.034 C7.188,11.240 7.179,11.574 6.972,11.773 C6.972,11.773 5.032,13.878 5.032,13.878 zM4.062,20.000 C4.062,20.000 5.604,20.000 5.604,20.000 C6.190,20.000 6.667,20.476 6.667,21.062 C6.667,21.062 6.667,22.604 6.667,22.604 C6.667,23.190 6.190,23.666 5.604,23.666 C5.604,23.666 4.062,23.666 4.062,23.666 C3.477,23.666 3.000,23.190 3.000,22.604 C3.000,22.604 3.000,21.062 3.000,21.062 C3.000,20.476 3.477,20.000 4.062,20.000 zM3.625,22.604 C3.625,22.845 3.821,23.041 4.062,23.041 C4.062,23.041 5.604,23.041 5.604,23.041 C5.845,23.041 6.042,22.845 6.042,22.604 C6.042,22.604 6.042,21.062 6.042,21.062 C6.042,20.821 5.845,20.625 5.604,20.625 C5.604,20.625 4.062,20.625 4.062,20.625 C3.821,20.625 3.625,20.821 3.625,21.062 C3.625,21.062 3.625,22.604 3.625,22.604 zM4.062,24.333 C4.062,24.333 5.604,24.333 5.604,24.333 C6.190,24.333 6.667,24.810 6.667,25.396 C6.667,25.396 6.667,26.937 6.667,26.937 C6.667,27.523 6.190,28.000 5.604,28.000 C5.604,28.000 4.062,28.000 4.062,28.000 C3.477,28.000 3.000,27.523 3.000,26.937 C3.000,26.937 3.000,25.396 3.000,25.396 C3.000,24.810 3.477,24.333 4.062,24.333 zM3.625,26.937 C3.625,27.179 3.821,27.375 4.062,27.375 C4.062,27.375 5.604,27.375 5.604,27.375 C5.845,27.375 6.042,27.179 6.042,26.937 C6.042,26.937 6.042,25.396 6.042,25.396 C6.042,25.154 5.845,24.958 5.604,24.958 C5.604,24.958 4.062,24.958 4.062,24.958 C3.821,24.958 3.625,25.154 3.625,25.396 C3.625,25.396 3.625,26.937 3.625,26.937 zM9.000,21.000 C9.000,21.000 10.333,21.000 10.333,21.000 C10.623,21.000 10.774,21.412 10.774,21.700 C10.774,21.989 10.623,22.000 10.333,22.000 C10.333,22.000 9.000,22.000 9.000,22.000 C8.711,22.000 8.487,21.989 8.487,21.700 C8.487,21.412 8.711,21.000 9.000,21.000 zM8.961,25.717 C9.225,25.743 9.434,25.959 9.434,26.230 C9.434,26.500 9.225,26.716 8.961,26.743 C8.696,26.716 8.487,26.500 8.487,26.230 C8.487,25.959 8.696,25.743 8.961,25.717 zM9.011,25.707 C8.993,25.707 8.978,25.715 8.961,25.717 C8.943,25.715 8.928,25.707 8.910,25.707 C8.910,25.707 9.011,25.707 9.011,25.707 zM8.910,26.753 C8.928,26.753 8.943,26.744 8.961,26.743 C8.978,26.744 8.993,26.753 9.011,26.753 C9.011,26.753 8.910,26.753 8.910,26.753 z" fill="#338BC3" /></svg>