<svg xmlns="http://www.w3.org/2000/svg" width="46" height="43" viewBox="0 0 46 43"><path d="M4.987.167h35.568a4.8 4.8 0 0 1 4.799 4.799v32.911a4.8 4.8 0 0 1-4.799 4.8H4.987a4.8 4.8 0 0 1-4.799-4.8V4.966A4.799 4.799 0 0 1 4.987.167z" fill="#FFF"/><path d="M5.11.323h35.321a4.766 4.766 0 0 1 4.767 4.765v32.668a4.766 4.766 0 0 1-4.767 4.765H5.11a4.766 4.766 0 0 1-4.766-4.765V5.088A4.765 4.765 0 0 1 5.11.323z" fill="none" stroke="#C2E0F3"/><path d="M40.487 13.468c-.483 0-.923-.194-1.246-.507l-6.647 3.347c.067.249.103.511.103.781 0 1.665-1.344 3.019-2.996 3.019a2.97 2.97 0 0 1-1.542-.431l-3.409 3.747a.579.579 0 0 1-.057.054c.136.255.214.546.214.855 0 .998-.807 1.811-1.798 1.811a1.807 1.807 0 0 1-1.691-2.425l-3.969-3.27a1.784 1.784 0 0 1-1.105.254l-2.762 5.961c.332.329.538.786.538 1.291 0 .998-.806 1.811-1.797 1.811-.462 0-.882-.176-1.201-.465l-3.617 1.988a1.806 1.806 0 0 1-1.775 2.098 1.806 1.806 0 0 1-1.797-1.811c0-.998.806-1.81 1.797-1.81.461 0 .882.176 1.201.464l3.616-1.988a1.812 1.812 0 0 1 1.776-2.098c.058 0 .116.003.173.009l2.762-5.961a1.817 1.817 0 0 1-.539-1.291c0-.999.807-1.812 1.798-1.812a1.807 1.807 0 0 1 1.691 2.426l3.969 3.27a1.784 1.784 0 0 1 1.641-.115.57.57 0 0 1 .048-.062l3.411-3.748a3.01 3.01 0 0 1-.573-1.771c0-1.664 1.345-3.018 2.997-3.018.955 0 1.807.454 2.356 1.157l6.647-3.348a1.807 1.807 0 0 1 1.783-2.034c.992 0 1.799.813 1.799 1.812 0 .998-.807 1.81-1.799 1.81zM5.73 30.973a.602.602 0 0 0-.599.603c0 .333.269.604.599.604a.603.603 0 0 0 0-1.207zm6.593-3.622a.603.603 0 0 0 0 1.207c.33 0 .599-.271.599-.603a.602.602 0 0 0-.599-.604zm4.194-9.054a.602.602 0 0 0-.599.604c0 .333.269.603.599.603a.6.6 0 0 0 .599-.603.602.602 0 0 0-.599-.604zm6.592 5.432a.602.602 0 0 0-.599.604c0 .333.269.604.599.604.33 0 .599-.271.599-.604a.602.602 0 0 0-.599-.604zm6.592-8.45c-.991 0-1.798.812-1.798 1.81 0 .999.807 1.812 1.798 1.812s1.798-.813 1.798-1.812c0-.998-.807-1.81-1.798-1.81zm10.786-4.225c-.33 0-.599.27-.599.604 0 .332.269.603.599.603.331 0 .6-.271.6-.603a.602.602 0 0 0-.6-.604zm-10.786 6.64a.602.602 0 0 1-.599-.605.605.605 0 0 1 .599-.603.6.6 0 0 1 .599.603.604.604 0 0 1-.599.605zm0-4.829a.599.599 0 0 1-.599-.604.597.597 0 0 1 1.023-.427.61.61 0 0 1 0 .853.602.602 0 0 1-.424.178zm0-2.415a.598.598 0 0 1-.599-.604.602.602 0 0 1 .599-.604.604.604 0 0 1 0 1.208zm0-2.414a.604.604 0 0 1 0-1.207.6.6 0 0 1 .599.603.613.613 0 0 1-.175.427.607.607 0 0 1-.424.177zm0-2.415a.603.603 0 1 1 .424-1.031.613.613 0 0 1 0 .855.605.605 0 0 1-.424.176zm0 15.694c.157 0 .312.064.424.176a.61.61 0 0 1 0 .854.598.598 0 0 1-1.023-.426.601.601 0 0 1 .599-.604zm0 2.414a.604.604 0 0 1 0 1.208.599.599 0 0 1-.599-.604.602.602 0 0 1 .599-.604zm0 2.415a.6.6 0 0 1 .599.604.61.61 0 0 1-.175.427.603.603 0 1 1-.424-1.031zm0 2.414a.6.6 0 0 1 .599.604.601.601 0 0 1-.599.604.598.598 0 0 1-.599-.604.598.598 0 0 1 .599-.604zm0 2.415a.603.603 0 1 1-.424 1.03.61.61 0 0 1 0-.854.601.601 0 0 1 .424-.176zm0 2.414a.604.604 0 0 1 0 1.208.602.602 0 0 1-.599-.604.602.602 0 0 1 .599-.604zm0 2.414a.604.604 0 0 1 0 1.208.598.598 0 0 1-.599-.604.602.602 0 0 1 .599-.604zm0 2.415a.6.6 0 0 1 .599.604.603.603 0 0 1-1.023.427.609.609 0 0 1 0-.854.598.598 0 0 1 .424-.177z" fill="#2E8DD6"/></svg>