<svg version="1.1" xmlns="http://www.w3.org/2000/svg" xmlns:xlink="http://www.w3.org/1999/xlink" width="46" height="43" viewBox="0 0 46 43"><g id="-Block5_icon8"><g id="Rounded-Rectangl" ><path id="Rounded-Rectangl-fill" d="M4.987,0.167 C4.987,0.167 40.555,0.167 40.555,0.167 C43.205,0.167 45.354,2.316 45.354,4.966 C45.354,4.966 45.354,37.877 45.354,37.877 C45.354,40.528 43.205,42.677 40.555,42.677 C40.555,42.677 4.987,42.677 4.987,42.677 C2.336,42.677 0.188,40.528 0.188,37.877 C0.188,37.877 0.188,4.966 0.188,4.966 C0.188,2.316 2.336,0.167 4.987,0.167 z" fill="#FFFFFF" /><path id="Rounded-Rectangl-stroke" d="M5.110,0.323 C5.110,0.323 40.431,0.323 40.431,0.323 C43.064,0.323 45.198,2.456 45.198,5.088 C45.198,5.088 45.198,37.756 45.198,37.756 C45.198,40.387 43.064,42.521 40.431,42.521 C40.431,42.521 5.110,42.521 5.110,42.521 C2.478,42.521 0.344,40.387 0.344,37.756 C0.344,37.756 0.344,5.088 0.344,5.088 C0.344,2.456 2.478,0.323 5.110,0.323 z" fill="none" stroke="#C2E0F3" stroke-width="1" /></g><path id="Shape-36" d="M40.487,13.468 C40.004,13.468 39.564,13.274 39.241,12.961 C39.241,12.961 32.594,16.308 32.594,16.308 C32.661,16.557 32.697,16.819 32.697,17.089 C32.697,18.754 31.353,20.108 29.701,20.108 C29.138,20.108 28.610,19.950 28.159,19.677 C28.159,19.677 24.750,23.424 24.750,23.424 C24.732,23.444 24.713,23.461 24.693,23.478 C24.829,23.733 24.907,24.024 24.907,24.333 C24.907,25.331 24.100,26.144 23.109,26.144 C22.118,26.144 21.311,25.331 21.311,24.333 C21.311,24.117 21.349,23.911 21.418,23.719 C21.418,23.719 17.449,20.449 17.449,20.449 C17.177,20.615 16.858,20.712 16.517,20.712 C16.458,20.712 16.401,20.708 16.344,20.703 C16.344,20.703 13.582,26.664 13.582,26.664 C13.914,26.993 14.120,27.450 14.120,27.955 C14.120,28.953 13.314,29.766 12.323,29.766 C11.861,29.766 11.441,29.590 11.122,29.301 C11.122,29.301 7.505,31.289 7.505,31.289 C7.520,31.382 7.528,31.478 7.528,31.576 C7.528,32.575 6.722,33.387 5.730,33.387 C4.739,33.387 3.933,32.575 3.933,31.576 C3.933,30.578 4.739,29.766 5.730,29.766 C6.191,29.766 6.612,29.942 6.931,30.230 C6.931,30.230 10.547,28.242 10.547,28.242 C10.532,28.148 10.524,28.053 10.524,27.955 C10.524,26.956 11.331,26.144 12.323,26.144 C12.381,26.144 12.439,26.147 12.496,26.153 C12.496,26.153 15.258,20.192 15.258,20.192 C14.926,19.862 14.719,19.405 14.719,18.901 C14.719,17.902 15.526,17.089 16.517,17.089 C17.509,17.089 18.315,17.902 18.315,18.901 C18.315,19.116 18.277,19.323 18.208,19.515 C18.208,19.515 22.177,22.785 22.177,22.785 C22.449,22.619 22.768,22.522 23.109,22.522 C23.361,22.522 23.600,22.575 23.818,22.670 C23.833,22.648 23.848,22.628 23.866,22.608 C23.866,22.608 27.277,18.860 27.277,18.860 C26.917,18.363 26.704,17.751 26.704,17.089 C26.704,15.425 28.049,14.071 29.701,14.071 C30.656,14.071 31.508,14.525 32.057,15.228 C32.057,15.228 38.704,11.880 38.704,11.880 C38.695,11.808 38.690,11.733 38.690,11.658 C38.690,10.659 39.496,9.846 40.487,9.846 C41.479,9.846 42.286,10.659 42.286,11.658 C42.286,12.656 41.479,13.468 40.487,13.468 zM5.730,30.973 C5.400,30.973 5.131,31.244 5.131,31.576 C5.131,31.909 5.400,32.180 5.730,32.180 C6.061,32.180 6.330,31.909 6.330,31.576 C6.330,31.244 6.061,30.973 5.730,30.973 zM12.323,27.351 C11.992,27.351 11.723,27.622 11.723,27.955 C11.723,28.287 11.992,28.558 12.323,28.558 C12.653,28.558 12.922,28.287 12.922,27.955 C12.922,27.622 12.653,27.351 12.323,27.351 zM16.517,18.297 C16.187,18.297 15.918,18.568 15.918,18.901 C15.918,19.234 16.187,19.504 16.517,19.504 C16.848,19.504 17.116,19.234 17.116,18.901 C17.116,18.568 16.848,18.297 16.517,18.297 zM23.109,23.729 C22.779,23.729 22.510,24.000 22.510,24.333 C22.510,24.666 22.779,24.937 23.109,24.937 C23.439,24.937 23.708,24.666 23.708,24.333 C23.708,24.000 23.439,23.729 23.109,23.729 zM29.701,15.279 C28.710,15.279 27.903,16.091 27.903,17.089 C27.903,18.088 28.710,18.901 29.701,18.901 C30.692,18.901 31.499,18.088 31.499,17.089 C31.499,16.091 30.692,15.279 29.701,15.279 zM40.487,11.054 C40.157,11.054 39.888,11.324 39.888,11.658 C39.888,11.990 40.157,12.261 40.487,12.261 C40.818,12.261 41.087,11.990 41.087,11.658 C41.087,11.324 40.818,11.054 40.487,11.054 zM29.701,17.694 C29.543,17.694 29.388,17.629 29.277,17.517 C29.165,17.404 29.102,17.249 29.102,17.089 C29.102,16.930 29.165,16.775 29.277,16.663 C29.388,16.550 29.543,16.486 29.701,16.486 C29.859,16.486 30.013,16.550 30.125,16.663 C30.237,16.775 30.300,16.930 30.300,17.089 C30.300,17.249 30.237,17.404 30.125,17.517 C30.013,17.629 29.859,17.694 29.701,17.694 zM29.701,12.865 C29.543,12.865 29.388,12.800 29.277,12.687 C29.165,12.575 29.102,12.419 29.102,12.261 C29.102,12.102 29.165,11.947 29.277,11.834 C29.388,11.721 29.543,11.658 29.701,11.658 C29.858,11.658 30.013,11.721 30.125,11.834 C30.236,11.947 30.300,12.102 30.300,12.261 C30.300,12.420 30.236,12.575 30.125,12.687 C30.013,12.800 29.858,12.865 29.701,12.865 zM29.701,10.450 C29.543,10.450 29.388,10.386 29.277,10.273 C29.165,10.161 29.102,10.006 29.102,9.846 C29.102,9.687 29.165,9.532 29.277,9.419 C29.388,9.307 29.543,9.242 29.701,9.242 C29.859,9.242 30.013,9.307 30.125,9.419 C30.237,9.532 30.300,9.688 30.300,9.846 C30.300,10.005 30.237,10.161 30.125,10.273 C30.013,10.386 29.859,10.450 29.701,10.450 zM29.701,8.036 C29.544,8.036 29.388,7.971 29.277,7.859 C29.165,7.747 29.102,7.590 29.102,7.432 C29.102,7.274 29.165,7.117 29.277,7.005 C29.388,6.892 29.544,6.829 29.701,6.829 C29.858,6.829 30.013,6.892 30.125,7.005 C30.237,7.117 30.300,7.274 30.300,7.432 C30.300,7.590 30.237,7.745 30.125,7.859 C30.012,7.971 29.858,8.036 29.701,8.036 zM29.701,5.621 C29.544,5.621 29.388,5.557 29.277,5.445 C29.165,5.332 29.102,5.177 29.102,5.017 C29.102,4.860 29.165,4.703 29.277,4.590 C29.388,4.478 29.543,4.415 29.701,4.415 C29.859,4.415 30.013,4.478 30.125,4.590 C30.237,4.703 30.300,4.860 30.300,5.017 C30.300,5.177 30.237,5.332 30.125,5.445 C30.013,5.557 29.858,5.621 29.701,5.621 zM29.701,21.315 C29.858,21.315 30.013,21.379 30.125,21.491 C30.237,21.604 30.300,21.759 30.300,21.919 C30.300,22.078 30.237,22.233 30.125,22.345 C30.013,22.458 29.858,22.522 29.701,22.522 C29.543,22.522 29.388,22.458 29.277,22.345 C29.165,22.233 29.102,22.078 29.102,21.919 C29.102,21.759 29.165,21.604 29.277,21.491 C29.388,21.379 29.543,21.315 29.701,21.315 zM29.701,23.729 C29.859,23.729 30.013,23.794 30.125,23.906 C30.237,24.018 30.300,24.174 30.300,24.333 C30.300,24.493 30.237,24.648 30.125,24.759 C30.013,24.872 29.859,24.937 29.701,24.937 C29.543,24.937 29.388,24.872 29.277,24.759 C29.165,24.648 29.102,24.493 29.102,24.333 C29.102,24.174 29.165,24.018 29.277,23.906 C29.388,23.794 29.543,23.729 29.701,23.729 zM29.701,26.144 C29.859,26.144 30.013,26.208 30.125,26.321 C30.237,26.433 30.300,26.589 30.300,26.748 C30.300,26.906 30.237,27.062 30.125,27.175 C30.013,27.287 29.858,27.351 29.701,27.351 C29.544,27.351 29.388,27.287 29.277,27.175 C29.165,27.062 29.102,26.906 29.102,26.748 C29.102,26.589 29.165,26.433 29.277,26.321 C29.388,26.208 29.543,26.144 29.701,26.144 zM29.701,28.558 C29.859,28.558 30.013,28.622 30.125,28.735 C30.237,28.847 30.300,29.003 30.300,29.162 C30.300,29.321 30.237,29.476 30.125,29.589 C30.013,29.702 29.858,29.766 29.701,29.766 C29.543,29.766 29.388,29.702 29.277,29.589 C29.165,29.476 29.102,29.321 29.102,29.162 C29.102,29.003 29.165,28.847 29.277,28.735 C29.388,28.622 29.543,28.558 29.701,28.558 zM29.701,30.973 C29.859,30.973 30.013,31.037 30.125,31.149 C30.236,31.262 30.300,31.417 30.300,31.576 C30.300,31.736 30.236,31.891 30.125,32.003 C30.013,32.116 29.858,32.180 29.701,32.180 C29.544,32.180 29.388,32.116 29.277,32.003 C29.166,31.891 29.102,31.736 29.102,31.576 C29.102,31.417 29.166,31.262 29.277,31.149 C29.388,31.037 29.543,30.973 29.701,30.973 zM29.701,33.387 C29.859,33.387 30.013,33.452 30.125,33.564 C30.237,33.677 30.300,33.831 30.300,33.991 C30.300,34.149 30.237,34.306 30.125,34.418 C30.013,34.530 29.859,34.595 29.701,34.595 C29.543,34.595 29.388,34.530 29.277,34.418 C29.165,34.306 29.102,34.149 29.102,33.991 C29.102,33.831 29.165,33.677 29.277,33.564 C29.388,33.452 29.543,33.387 29.701,33.387 zM29.701,35.801 C29.859,35.801 30.013,35.866 30.125,35.978 C30.237,36.090 30.300,36.247 30.300,36.405 C30.300,36.564 30.237,36.720 30.125,36.832 C30.013,36.945 29.859,37.009 29.701,37.009 C29.543,37.009 29.388,36.945 29.277,36.832 C29.165,36.720 29.102,36.564 29.102,36.405 C29.102,36.246 29.165,36.090 29.277,35.978 C29.388,35.866 29.543,35.801 29.701,35.801 zM29.701,38.216 C29.859,38.216 30.013,38.280 30.125,38.393 C30.237,38.506 30.300,38.661 30.300,38.820 C30.300,38.979 30.237,39.134 30.125,39.247 C30.013,39.359 29.859,39.423 29.701,39.423 C29.543,39.423 29.388,39.359 29.277,39.247 C29.165,39.134 29.102,38.979 29.102,38.820 C29.102,38.661 29.165,38.506 29.277,38.393 C29.388,38.280 29.543,38.216 29.701,38.216 z" fill="#2E8DD6" /></g></svg>