<svg xmlns="http://www.w3.org/2000/svg" width="32" height="54" viewBox="0 0 32 54"><path d="M11.047 21.012a9.798 9.798 0 0 0 4.952 1.341 9.794 9.794 0 0 0 4.951-1.341c3.633-2.124 5.603-6.328 5.406-11.533-.137-3.589-1.909-6.122-4.295-7.668a13.32 13.32 0 0 0-.889-.516A12.068 12.068 0 0 0 16.831.023a17.667 17.667 0 0 0-1.593-.007C10.646.444 5.87 3.493 5.642 9.479c-.197 5.205 1.773 9.409 5.405 11.533zM8.49 9.584c.171-4.508 3.886-6.663 7.509-6.808a9.322 9.322 0 0 1 3.481.81c-1.077 2.748-3.854 3.956-6.266 4.158a1.41 1.41 0 0 0-1.299 1.517 1.417 1.417 0 0 0 1.54 1.278c3.809-.319 6.897-2.313 8.374-5.263.973 1.072 1.611 2.501 1.679 4.308.158 4.146-1.305 7.432-4.013 9.016a6.93 6.93 0 0 1-6.992 0c-2.708-1.584-4.171-4.87-4.013-9.016zm22.343 44.23a1.423 1.423 0 0 1-1.661-1.123l-3.357-17.845c-.881-4.68-5.565-6.769-9.816-6.769s-8.935 2.108-9.815 6.787l-3.048 16.33h17.692c.787 0 1.425.628 1.425 1.403S21.615 54 20.828 54H1.425a1.455 1.455 0 0 1-1.402-1.706l3.358-17.962c1.179-6.268 7.187-9.072 12.618-9.073 5.431 0 11.439 2.805 12.618 9.07l3.357 17.848a1.406 1.406 0 0 1-1.141 1.637zM20.88 34.639c.787 0 1.424.628 1.425 1.403 0 .775-.638 1.403-1.425 1.403h-2.779a1.414 1.414 0 0 1-1.425-1.403c0-.774.638-1.403 1.425-1.403h2.779z" fill="#208BCF"/></svg>