<svg xmlns="http://www.w3.org/2000/svg" width="40" height="30" viewBox="0 0 40 30"><path d="M39.333 30H.667C.309 30 0 30.042 0 29.685c0-.358.29-.647.648-.647l1.019-.039V2c0-1.12.626-2 1.746-2h32.92c1.349 0 2 .88 2 2v26.999l1.019.039c.358 0 .648.289.648.647 0 .357-.308.315-.667.315zm-2-28c-.02-.488-.366-1-1-1H3.667c-.405 0-1 .595-1 1v26.999h34.666V2zm-33 1.667A.68.68 0 0 1 5 3h30a.68.68 0 0 1 .667.667v22.999a.68.68 0 0 1-.667.667H4.667c-.358 0-.334.025-.334-.333V3.667zm1 22.666h29.334V4H5.333v22.333zM32 12.667c.358 0 .743.154.743.512s-.385.488-.743.488h-2.333A.68.68 0 0 1 29 13v-1c0-.929.738-1.333 1.667-1.333h.666c.215 0 .334-.453.334-.667 0-.215-.453-.667-.667-.667h-.667c-.023 0-.333.309-.333.333 0 .359-.309.334-.667.334-.358 0-.305.08-.305-.277 0-.739.567-1.39 1.305-1.39H31c.929 0 1.667.738 1.667 1.667s-.738 1.667-1.667 1.667h-.333c-.215 0-.676.261-.676.475l.009.525h2zm-1.771 2.159a.649.649 0 0 1-.06.915c-.269.236-.6.195-.836-.075-.266-.303-.646-.666-1-.666-.785 0-1.666 1.023-1.666 2 0 .977.881 2 1.666 2 .354 0 .656-.414.922-.717a.647.647 0 1 1 .974.854c-.515.588-1.203.913-1.935.913-1.501 0-2.627-1.358-2.627-3.05 0-1.692 1.166-3 2.666-3 .733 0 1.381.238 1.896.826zm-6.082 5.224c-.358 0-.48-.359-.48-.717V16c0-.405-.22-1.021-1-1-.405.011-.667.595-.667 1v3.333c0 .358-.26.717-.618.717-.357 0-.382-.359-.382-.717V16c0-.405-.116-1-1-1-.676 0-1 .595-1 1v3.333c0 .358-.024.717-.382.717S18 20.024 18 19.667V15c0-.357-.024-.988.333-1 .628-.02.548.203.667.333.272-.136.676-.333 1-.333.534 0 1.02.121 1.382.458.363-.337.746-.447 1.28-.44 1.105.014 2.002.865 2.005 1.982v3.333c0 .358-.162.717-.52.717zM16 17.667h-1.529a.648.648 0 0 1-.648-.649c0-.357.153-.351.51-.351H16c.358 0 .501-.006.501.351 0 .359-.143.649-.501.649zm0-2.001h-1.667c-.357 0-.51-.055-.51-.413s.153-.587.51-.587H16c.358 0 .501.229.501.587s-.143.413-.501.413zM12.667 19c.357 0 .379.376.379.735 0 .358-.022.265-.379.265h-4-.334a.68.68 0 0 1-.666-.667v-7.999a.68.68 0 0 1 .666-.667h4c.358 0 .713.08.713.438s-.355.562-.713.562H8.667v2.999H11c.358 0 .663.229.663.587s-.305.413-.663.413H8.667V19h4z" fill="#338BC3"/></svg>