<svg version="1.1" xmlns="http://www.w3.org/2000/svg" xmlns:xlink="http://www.w3.org/1999/xlink" width="21" height="21" viewBox="0 0 21 21"><g id="false"><path id="Ellipse-7" d="M10.500,0.000 C16.299,0.000 21.000,4.701 21.000,10.500 C21.000,16.299 16.299,21.000 10.500,21.000 C4.701,21.000 0.000,16.299 0.000,10.500 C0.000,4.701 4.701,0.000 10.500,0.000 z" fill="#FF304F" /><path id="Rounded-Rectangl" d="M11.602,10.504 C11.602,10.504 14.357,13.259 14.357,13.259 C14.688,13.591 14.688,14.127 14.357,14.459 C14.026,14.789 13.490,14.789 13.159,14.459 C13.159,14.459 10.404,11.702 10.404,11.702 C10.404,11.702 7.409,14.697 7.409,14.697 C7.078,15.028 6.542,15.028 6.211,14.697 C5.880,14.366 5.880,13.830 6.211,13.500 C6.211,13.500 9.206,10.505 9.206,10.505 C9.206,10.505 6.211,7.509 6.211,7.509 C5.880,7.179 5.880,6.642 6.211,6.311 C6.542,5.981 7.078,5.981 7.409,6.311 C7.409,6.311 10.404,9.306 10.404,9.306 C10.404,9.306 13.159,6.551 13.159,6.551 C13.490,6.220 14.026,6.220 14.357,6.551 C14.688,6.881 14.688,7.419 14.357,7.749 C14.357,7.749 11.602,10.504 11.602,10.504 z" fill="#FFFFFF" /></g></svg>