<svg xmlns="http://www.w3.org/2000/svg" width="45" height="26" viewBox="0 0 45 26"><path d="M42.234 20.192h-.048v1.633a3.015 3.015 0 0 1-2.303 2.93c-2.108.519-4.378.783-6.747.783-2.37 0-4.64-.264-6.748-.784a3.014 3.014 0 0 1-2.304-2.93v-3.113a1.57 1.57 0 0 0-1.564-1.575 1.57 1.57 0 0 0-1.563 1.575v3.114a3.016 3.016 0 0 1-2.305 2.93c-2.107.519-4.377.783-6.746.783-2.37 0-4.641-.264-6.748-.784a3.014 3.014 0 0 1-2.304-2.93v-1.632h-.047A2.239 2.239 0 0 1 .58 17.947V6.095c0-1.416.547-2.746 1.54-3.747L3.821.635a.706.706 0 0 1 1.005 0 .718.718 0 0 1 0 1.012L3.125 3.362a3.856 3.856 0 0 0-1.124 2.733v8.797c0 .447.362.81.806.81h.404a3.028 3.028 0 0 1 1.947-1.507c2.107-.521 4.378-.784 6.748-.784 2.369 0 4.639.263 6.747.784a3.023 3.023 0 0 1 2.171 2.043 2.95 2.95 0 0 1 3.393 0 3.022 3.022 0 0 1 2.171-2.043c2.108-.521 4.378-.784 6.748-.784 2.369 0 4.639.263 6.747.784a3.03 3.03 0 0 1 1.947 1.507h.404a.808.808 0 0 0 .805-.81V6.095a3.856 3.856 0 0 0-1.124-2.734l-1.7-1.714a.718.718 0 0 1 0-1.012.706.706 0 0 1 1.005 0l1.701 1.713a5.285 5.285 0 0 1 1.54 3.747v11.852a2.239 2.239 0 0 1-2.227 2.245zm-39.38-3.056h-.047c-.284 0-.556-.054-.806-.153v.964a.81.81 0 0 0 .806.811h.047v-1.622zm16.681-.01a1.59 1.59 0 0 0-1.22-1.54c-1.997-.492-4.153-.742-6.409-.742-2.256 0-4.413.25-6.41.742a1.59 1.59 0 0 0-1.22 1.54v4.698c0 .729.502 1.362 1.22 1.54 1.997.493 4.154.742 6.41.742 2.256 0 4.412-.249 6.409-.742a1.591 1.591 0 0 0 1.22-1.54v-4.698zm21.23 0c0-.729-.502-1.362-1.221-1.54-1.996-.492-4.152-.742-6.408-.742-2.257 0-4.413.25-6.41.742a1.591 1.591 0 0 0-1.22 1.54v4.699c0 .728.502 1.361 1.22 1.539 1.997.493 4.153.742 6.41.742 2.256 0 4.412-.249 6.408-.742a1.591 1.591 0 0 0 1.221-1.54v-4.698zm2.274-.143a2.18 2.18 0 0 1-.805.153h-.048v1.622h.048a.81.81 0 0 0 .805-.811v-.964zm-4.446 4.935c-.505.11-1.031.206-1.564.284a.714.714 0 0 1-.806-.605.716.716 0 0 1 .601-.812c.501-.074.995-.162 1.469-.266a.715.715 0 1 1 .3 1.399zm-4.68.553c-.26.007-.521.011-.777.011-1.875 0-3.762-.195-5.458-.564a.715.715 0 0 1 .3-1.399c1.598.348 3.382.531 5.158.531.243 0 .491-.003.738-.011a.715.715 0 0 1 .73.698.714.714 0 0 1-.691.734zm-16.55-.553c-.505.11-1.031.206-1.564.284a.713.713 0 0 1-.806-.605.716.716 0 0 1 .6-.812c.502-.074.996-.162 1.47-.266a.715.715 0 1 1 .3 1.399zm-4.679.553c-.26.007-.522.011-.778.011-1.876 0-3.763-.194-5.458-.564a.715.715 0 0 1 .3-1.399c1.598.348 3.382.531 5.158.531.243 0 .491-.003.738-.011a.716.716 0 0 1 .73.698.713.713 0 0 1-.69.734z" fill="#338BC3"/></svg>