<svg xmlns="http://www.w3.org/2000/svg" width="34" height="26" viewBox="0 0 34 26"><path d="M32.769 2.07c0 .1-.029.2-.089.285L16.677 25.318l-.001-.001a.502.502 0 0 1-.764.068l-6.001-5.992a.499.499 0 0 1 .708-.702l5.579 5.569L31.77 1.916v-.181L2.214 10.302l6.115 6.103L25.991 4.652a.498.498 0 0 1 .555.826L8.765 17.312v6.519l1.647-1.644a.499.499 0 0 1 .707.702l-2.5 2.498a.5.5 0 1 1-.853-.352h-.002v-7.781L.911 10.411l.001-.001a.498.498 0 0 1 .214-.829L32.089.607a.5.5 0 0 1 .681.466v.997h-.001z" fill="#338BC3"/></svg>