<svg version="1.1" xmlns="http://www.w3.org/2000/svg" xmlns:xlink="http://www.w3.org/1999/xlink" width="34" height="26" viewBox="0 0 34 26"><path id="-Block7_icon7" d="M32.769,2.070 C32.769,2.170 32.740,2.270 32.680,2.355 C32.680,2.355 16.677,25.318 16.677,25.318 C16.677,25.318 16.676,25.317 16.676,25.317 C16.659,25.343 16.640,25.366 16.618,25.387 C16.423,25.580 16.106,25.579 15.912,25.385 C15.912,25.385 9.911,19.393 9.911,19.393 C9.718,19.198 9.719,18.882 9.914,18.689 C10.108,18.495 10.425,18.496 10.619,18.691 C10.619,18.691 16.198,24.260 16.198,24.260 L31.770,1.916 L31.770,1.735 L2.214,10.302 L8.329,16.405 C8.329,16.405 25.991,4.652 25.991,4.652 C26.219,4.499 26.530,4.559 26.683,4.787 C26.836,5.015 26.775,5.325 26.546,5.478 C26.546,5.478 8.765,17.312 8.765,17.312 L8.765,23.831 C8.765,23.831 10.412,22.187 10.412,22.187 C10.605,21.992 10.922,21.991 11.117,22.184 C11.312,22.379 11.313,22.695 11.119,22.889 C11.119,22.889 8.619,25.387 8.619,25.387 C8.425,25.581 8.108,25.582 7.913,25.389 C7.815,25.291 7.766,25.163 7.766,25.035 C7.766,25.035 7.764,25.035 7.764,25.035 L7.764,17.254 L0.911,10.411 C0.911,10.411 0.912,10.410 0.912,10.410 C0.855,10.352 0.810,10.282 0.786,10.197 C0.710,9.934 0.862,9.657 1.126,9.581 C1.126,9.581 32.089,0.607 32.089,0.607 C32.145,0.585 32.206,0.574 32.270,0.574 C32.546,0.574 32.770,0.797 32.770,1.073 C32.770,1.073 32.770,2.070 32.770,2.070 C32.770,2.070 32.769,2.070 32.769,2.070 z" fill="#338BC3" /></svg>