<svg xmlns="http://www.w3.org/2000/svg" width="24" height="16" viewBox="0 0 24 16"><path d="M24 .541v3.486c0 .299-.201.472-.505.472-.305 0-.506-.2-.506-.499V1.75L11.301 13.159a.56.56 0 0 1-.781 0L7.481 10.18a.558.558 0 0 0-.78 0l-5.76 5.644a.558.558 0 0 1-.78 0 .533.533 0 0 1 0-.764l6.54-6.41a.56.56 0 0 1 .78 0l3.039 2.979a.56.56 0 0 0 .781 0L22.232 1h-2.274c-.305 0-.505-.201-.505-.5 0-.298.2-.5.505-.5h3.49c.305 0 .552.242.552.541zM6.974 12.023l-3.113 3.052a.531.531 0 0 0 0 .764.558.558 0 0 0 .78 0l3.114-3.051a.534.534 0 0 0 0-.765.56.56 0 0 0-.781 0zm14.352-6.306l-9.548 9.358a.531.531 0 0 0 0 .764.558.558 0 0 0 .78 0l9.548-9.357a.533.533 0 0 0 0-.765.56.56 0 0 0-.78 0zm-5.478 10.122a.559.559 0 0 0 .781 0l6.82-6.684a.534.534 0 0 0 0-.765.56.56 0 0 0-.78 0l-6.821 6.685a.533.533 0 0 0 0 .764zm4.07 0a.558.558 0 0 0 .78 0l2.633-2.58a.533.533 0 0 0 0-.765.558.558 0 0 0-.78 0l-2.633 2.581a.531.531 0 0 0 0 .764zm-12.033-.015v.001a.56.56 0 0 0 .781 0l.94-.922a.533.533 0 0 0 0-.765.558.558 0 0 0-.78 0l-.941.922a.533.533 0 0 0 0 .764z" fill="#208BCE"/></svg>