<svg version="1.1" xmlns="http://www.w3.org/2000/svg" xmlns:xlink="http://www.w3.org/1999/xlink" width="24" height="16" viewBox="0 0 24 16"><path id="-Block2_icon2" d="M24.000,0.541 C24.000,0.541 24.000,4.027 24.000,4.027 C24.000,4.326 23.799,4.499 23.495,4.499 C23.495,4.499 23.495,4.499 23.495,4.499 C23.190,4.499 22.989,4.299 22.989,4.000 C22.989,4.000 22.989,1.750 22.989,1.750 C22.989,1.750 11.301,13.159 11.301,13.159 C11.085,13.370 10.736,13.370 10.520,13.159 C10.520,13.159 7.481,10.180 7.481,10.180 C7.265,9.968 6.916,9.968 6.701,10.180 C6.701,10.180 0.941,15.824 0.941,15.824 C0.726,16.036 0.377,16.036 0.161,15.824 C0.161,15.824 0.161,15.824 0.161,15.824 C-0.054,15.613 -0.054,15.270 0.161,15.060 C0.161,15.060 6.701,8.650 6.701,8.650 C6.916,8.439 7.265,8.439 7.481,8.650 C7.481,8.650 10.520,11.629 10.520,11.629 C10.736,11.840 11.085,11.840 11.301,11.629 C11.301,11.629 22.232,1.000 22.232,1.000 C22.232,1.000 19.958,1.000 19.958,1.000 C19.653,1.000 19.453,0.799 19.453,0.500 C19.453,0.500 19.453,0.500 19.453,0.500 C19.453,0.202 19.653,0.000 19.958,0.000 C19.958,0.000 23.448,0.000 23.448,0.000 C23.753,0.000 24.000,0.242 24.000,0.541 zM6.974,12.023 C6.974,12.023 3.861,15.075 3.861,15.075 C3.645,15.285 3.645,15.628 3.861,15.839 C3.861,15.839 3.861,15.839 3.861,15.839 C4.076,16.051 4.426,16.051 4.641,15.839 C4.641,15.839 7.755,12.788 7.755,12.788 C7.970,12.577 7.970,12.234 7.755,12.023 C7.755,12.023 7.755,12.023 7.755,12.023 C7.539,11.812 7.190,11.812 6.974,12.023 zM21.326,5.717 C21.326,5.717 11.778,15.075 11.778,15.075 C11.562,15.285 11.562,15.628 11.778,15.839 C11.778,15.839 11.778,15.839 11.778,15.839 C11.993,16.051 12.343,16.051 12.558,15.839 C12.558,15.839 22.106,6.482 22.106,6.482 C22.321,6.270 22.322,5.928 22.106,5.717 C22.106,5.717 22.106,5.717 22.106,5.717 C21.891,5.506 21.541,5.506 21.326,5.717 zM15.848,15.839 C15.848,15.839 15.848,15.839 15.848,15.839 C16.064,16.051 16.413,16.051 16.629,15.839 C16.629,15.839 23.449,9.155 23.449,9.155 C23.664,8.944 23.664,8.601 23.449,8.390 C23.449,8.390 23.449,8.390 23.449,8.390 C23.233,8.179 22.884,8.179 22.669,8.390 C22.669,8.390 15.848,15.075 15.848,15.075 C15.633,15.285 15.633,15.628 15.848,15.839 zM19.918,15.839 C19.918,15.839 19.918,15.839 19.918,15.839 C20.133,16.051 20.483,16.051 20.698,15.839 C20.698,15.839 23.331,13.259 23.331,13.259 C23.547,13.047 23.547,12.705 23.331,12.494 C23.331,12.494 23.331,12.494 23.331,12.494 C23.116,12.282 22.767,12.282 22.551,12.494 C22.551,12.494 19.918,15.075 19.918,15.075 C19.702,15.285 19.702,15.628 19.918,15.839 zM7.885,15.824 C7.885,15.824 7.885,15.825 7.885,15.825 C8.101,16.036 8.450,16.036 8.666,15.825 C8.666,15.825 9.606,14.903 9.606,14.903 C9.822,14.691 9.822,14.350 9.606,14.138 C9.606,14.138 9.606,14.138 9.606,14.138 C9.391,13.926 9.041,13.926 8.826,14.138 C8.826,14.138 7.885,15.060 7.885,15.060 C7.670,15.271 7.670,15.613 7.885,15.824 z" fill="#208BCE" /></svg>