<svg xmlns="http://www.w3.org/2000/svg" width="11" height="11" viewBox="0 0 11 11"><path d="M10.503 8.137c-.03-.089-.218-.221-.566-.394a19.1 19.1 0 0 0-.401-.224 42.685 42.685 0 0 1-.473-.26 13.902 13.902 0 0 1-.398-.231l-.186-.13a2.086 2.086 0 0 0-.264-.16.497.497 0 0 0-.212-.052c-.099 0-.223.071-.372.212a3.662 3.662 0 0 0-.409.461c-.124.167-.256.32-.394.462-.139.141-.253.212-.343.212a.524.524 0 0 1-.167-.037 1.524 1.524 0 0 1-.153-.064 2.698 2.698 0 0 1-.178-.104 4.241 4.241 0 0 0-.142-.085 7.822 7.822 0 0 1-1.748-1.295 7.772 7.772 0 0 1-1.294-1.749l-.086-.141a1.348 1.348 0 0 1-.167-.331.503.503 0 0 1-.038-.167c0-.09.071-.204.212-.343.142-.138.295-.27.462-.394.166-.124.32-.26.461-.409.141-.149.212-.273.212-.372a.48.48 0 0 0-.052-.212 2.086 2.086 0 0 0-.16-.264 5.957 5.957 0 0 0-.13-.186 12.741 12.741 0 0 1-.231-.399 34.686 34.686 0 0 1-.26-.472 23.335 23.335 0 0 0-.223-.402C2.629.26 2.498.071 2.408.042a.413.413 0 0 0-.156-.023c-.134 0-.309.025-.525.075a2.967 2.967 0 0 0-.509.156C.97.354.707.657.429 1.158.176 1.624.05 2.085.05 2.542a2.757 2.757 0 0 0 .119.818c.044.159.08.277.108.354.027.077.078.214.152.413.075.198.119.319.134.364.174.486.38.92.618 1.302.391.635.926 1.291 1.603 1.968.677.677 1.333 1.212 1.968 1.604.382.238.816.444 1.302.617.044.015.166.06.364.134a6.609 6.609 0 0 0 .767.261c.158.044.301.075.427.093.127.017.257.026.391.026.456 0 .918-.127 1.384-.38.501-.278.803-.54.908-.789a3 3 0 0 0 .156-.509c.049-.216.074-.391.074-.525a.416.416 0 0 0-.022-.156z" fill="#fff"/></svg>