<svg version="1.1" xmlns="http://www.w3.org/2000/svg" xmlns:xlink="http://www.w3.org/1999/xlink" width="67" height="61" viewBox="0 0 67 61"><path id="highConversion" d="M63.866,15.771 C63.021,15.771 62.252,15.432 61.687,14.886 C61.687,14.886 50.074,20.718 50.074,20.718 C50.190,21.153 50.253,21.609 50.253,22.080 C50.253,24.980 47.904,27.339 45.017,27.339 C44.033,27.339 43.112,27.065 42.324,26.589 C42.324,26.589 36.366,33.117 36.366,33.117 C36.335,33.153 36.301,33.182 36.268,33.211 C36.505,33.656 36.641,34.162 36.641,34.701 C36.641,36.441 35.232,37.856 33.500,37.856 C31.767,37.856 30.358,36.441 30.358,34.701 C30.358,34.325 30.424,33.967 30.544,33.632 C30.544,33.632 23.610,27.933 23.610,27.933 C23.134,28.223 22.577,28.391 21.981,28.391 C21.878,28.391 21.777,28.386 21.678,28.376 C21.678,28.376 16.852,38.762 16.852,38.762 C17.432,39.336 17.793,40.132 17.793,41.011 C17.793,42.752 16.384,44.167 14.652,44.167 C13.846,44.167 13.111,43.860 12.554,43.357 C12.554,43.357 6.234,46.820 6.234,46.820 C6.260,46.984 6.274,47.151 6.274,47.321 C6.274,49.060 4.865,50.477 3.133,50.477 C1.401,50.477 -0.008,49.060 -0.008,47.321 C-0.008,45.582 1.401,44.167 3.133,44.167 C3.938,44.167 4.673,44.474 5.230,44.975 C5.230,44.975 11.550,41.511 11.550,41.511 C11.524,41.349 11.510,41.182 11.510,41.011 C11.510,39.271 12.919,37.856 14.652,37.856 C14.754,37.856 14.855,37.862 14.954,37.871 C14.954,37.871 19.780,27.486 19.780,27.486 C19.201,26.912 18.840,26.116 18.840,25.236 C18.840,23.496 20.249,22.080 21.981,22.080 C23.713,22.080 25.123,23.496 25.123,25.236 C25.123,25.611 25.057,25.972 24.936,26.306 C24.936,26.306 31.871,32.004 31.871,32.004 C32.346,31.714 32.904,31.546 33.500,31.546 C33.939,31.546 34.358,31.638 34.738,31.803 C34.764,31.765 34.791,31.730 34.822,31.695 C34.822,31.695 40.782,25.165 40.782,25.165 C40.154,24.298 39.782,23.233 39.782,22.080 C39.782,19.181 42.131,16.822 45.017,16.822 C46.687,16.822 48.175,17.612 49.134,18.837 C49.134,18.837 60.749,13.004 60.749,13.004 C60.733,12.878 60.724,12.748 60.724,12.617 C60.724,10.876 62.133,9.460 63.866,9.460 C65.598,9.460 67.008,10.876 67.008,12.617 C67.008,14.355 65.598,15.771 63.866,15.771 zM3.133,46.271 C2.556,46.271 2.086,46.742 2.086,47.321 C2.086,47.901 2.556,48.372 3.133,48.372 C3.710,48.372 4.180,47.901 4.180,47.321 C4.180,46.742 3.710,46.271 3.133,46.271 zM14.652,39.960 C14.074,39.960 13.604,40.432 13.604,41.011 C13.604,41.590 14.074,42.063 14.652,42.063 C15.229,42.063 15.698,41.590 15.698,41.011 C15.698,40.432 15.229,39.960 14.652,39.960 zM21.981,24.184 C21.404,24.184 20.934,24.657 20.934,25.236 C20.934,25.817 21.404,26.288 21.981,26.288 C22.559,26.288 23.028,25.817 23.028,25.236 C23.028,24.657 22.559,24.184 21.981,24.184 zM33.500,33.650 C32.922,33.650 32.452,34.121 32.452,34.701 C32.452,35.281 32.922,35.753 33.500,35.753 C34.077,35.753 34.546,35.281 34.546,34.701 C34.546,34.121 34.077,33.650 33.500,33.650 zM45.017,18.925 C43.286,18.925 41.876,20.342 41.876,22.080 C41.876,23.821 43.286,25.236 45.017,25.236 C46.749,25.236 48.159,23.821 48.159,22.080 C48.159,20.342 46.749,18.925 45.017,18.925 zM63.866,11.565 C63.288,11.565 62.819,12.035 62.819,12.617 C62.819,13.196 63.288,13.667 63.866,13.667 C64.443,13.667 64.913,13.196 64.913,12.617 C64.913,12.035 64.443,11.565 63.866,11.565 zM45.017,23.133 C44.742,23.133 44.472,23.021 44.277,22.825 C44.082,22.629 43.971,22.359 43.971,22.080 C43.971,21.803 44.082,21.532 44.277,21.337 C44.472,21.141 44.742,21.029 45.017,21.029 C45.294,21.029 45.563,21.141 45.758,21.337 C45.954,21.532 46.065,21.803 46.065,22.080 C46.065,22.359 45.954,22.629 45.758,22.825 C45.563,23.021 45.294,23.133 45.017,23.133 zM45.017,14.719 C44.742,14.719 44.472,14.606 44.277,14.410 C44.082,14.215 43.971,13.943 43.971,13.667 C43.971,13.391 44.082,13.120 44.277,12.924 C44.472,12.728 44.742,12.617 45.017,12.617 C45.292,12.617 45.563,12.728 45.758,12.924 C45.952,13.120 46.065,13.391 46.065,13.667 C46.065,13.945 45.952,14.215 45.758,14.410 C45.563,14.606 45.292,14.719 45.017,14.719 zM45.017,10.512 C44.742,10.512 44.472,10.401 44.277,10.204 C44.082,10.009 43.971,9.738 43.971,9.460 C43.971,9.183 44.082,8.913 44.277,8.716 C44.472,8.520 44.742,8.408 45.017,8.408 C45.294,8.408 45.563,8.520 45.758,8.716 C45.954,8.913 46.065,9.185 46.065,9.460 C46.065,9.737 45.954,10.009 45.758,10.204 C45.563,10.401 45.294,10.512 45.017,10.512 zM45.017,6.306 C44.743,6.306 44.472,6.194 44.277,5.998 C44.082,5.803 43.971,5.530 43.971,5.254 C43.971,4.977 44.082,4.705 44.277,4.510 C44.472,4.313 44.743,4.202 45.017,4.202 C45.292,4.202 45.563,4.313 45.758,4.510 C45.954,4.705 46.065,4.977 46.065,5.254 C46.065,5.530 45.954,5.800 45.758,5.998 C45.562,6.194 45.292,6.306 45.017,6.306 zM45.017,2.099 C44.743,2.099 44.472,1.987 44.277,1.792 C44.082,1.594 43.971,1.324 43.971,1.046 C43.971,0.771 44.082,0.499 44.277,0.303 C44.472,0.108 44.742,-0.004 45.017,-0.004 C45.294,-0.004 45.563,0.108 45.758,0.303 C45.954,0.499 46.065,0.771 46.065,1.046 C46.065,1.324 45.954,1.594 45.758,1.792 C45.563,1.987 45.292,2.099 45.017,2.099 zM45.017,29.443 C45.292,29.443 45.563,29.555 45.758,29.750 C45.954,29.947 46.065,30.216 46.065,30.495 C46.065,30.772 45.954,31.043 45.758,31.237 C45.563,31.434 45.292,31.546 45.017,31.546 C44.742,31.546 44.472,31.434 44.277,31.237 C44.082,31.043 43.971,30.772 43.971,30.495 C43.971,30.216 44.082,29.947 44.277,29.750 C44.472,29.555 44.742,29.443 45.017,29.443 zM45.017,33.650 C45.294,33.650 45.563,33.762 45.758,33.958 C45.954,34.153 46.065,34.425 46.065,34.701 C46.065,34.979 45.954,35.249 45.758,35.443 C45.563,35.640 45.294,35.753 45.017,35.753 C44.742,35.753 44.472,35.640 44.277,35.443 C44.082,35.249 43.971,34.979 43.971,34.701 C43.971,34.425 44.082,34.153 44.277,33.958 C44.472,33.762 44.742,33.650 45.017,33.650 zM45.017,37.856 C45.294,37.856 45.563,37.967 45.758,38.164 C45.954,38.360 46.065,38.631 46.065,38.908 C46.065,39.184 45.954,39.457 45.758,39.653 C45.563,39.849 45.292,39.960 45.017,39.960 C44.743,39.960 44.472,39.849 44.277,39.653 C44.082,39.457 43.971,39.184 43.971,38.908 C43.971,38.631 44.082,38.360 44.277,38.164 C44.472,37.967 44.742,37.856 45.017,37.856 zM45.017,42.063 C45.294,42.063 45.563,42.174 45.758,42.370 C45.954,42.565 46.065,42.838 46.065,43.115 C46.065,43.392 45.954,43.663 45.758,43.859 C45.563,44.055 45.292,44.167 45.017,44.167 C44.742,44.167 44.472,44.055 44.277,43.859 C44.082,43.663 43.971,43.392 43.971,43.115 C43.971,42.838 44.082,42.565 44.277,42.370 C44.472,42.174 44.742,42.063 45.017,42.063 zM45.017,46.271 C45.294,46.271 45.563,46.383 45.758,46.578 C45.952,46.774 46.065,47.045 46.065,47.321 C46.065,47.599 45.952,47.869 45.758,48.065 C45.563,48.261 45.292,48.372 45.017,48.372 C44.743,48.372 44.472,48.261 44.277,48.065 C44.083,47.869 43.971,47.599 43.971,47.321 C43.971,47.045 44.083,46.774 44.277,46.578 C44.472,46.383 44.742,46.271 45.017,46.271 zM45.017,50.477 C45.294,50.477 45.563,50.589 45.758,50.784 C45.954,50.981 46.065,51.251 46.065,51.529 C46.065,51.804 45.954,52.077 45.758,52.273 C45.563,52.468 45.294,52.580 45.017,52.580 C44.742,52.580 44.472,52.468 44.277,52.273 C44.082,52.077 43.971,51.804 43.971,51.529 C43.971,51.251 44.082,50.981 44.277,50.784 C44.472,50.589 44.742,50.477 45.017,50.477 zM45.017,54.683 C45.294,54.683 45.563,54.796 45.758,54.990 C45.954,55.186 46.065,55.459 46.065,55.734 C46.065,56.011 45.954,56.284 45.758,56.478 C45.563,56.675 45.294,56.786 45.017,56.786 C44.742,56.786 44.472,56.675 44.277,56.478 C44.082,56.284 43.971,56.011 43.971,55.734 C43.971,55.457 44.082,55.186 44.277,54.990 C44.472,54.796 44.742,54.683 45.017,54.683 zM45.017,58.890 C45.294,58.890 45.563,59.001 45.758,59.198 C45.954,59.394 46.065,59.666 46.065,59.943 C46.065,60.220 45.954,60.490 45.758,60.687 C45.563,60.882 45.294,60.993 45.017,60.993 C44.742,60.993 44.472,60.882 44.277,60.687 C44.082,60.490 43.971,60.220 43.971,59.943 C43.971,59.666 44.082,59.394 44.277,59.198 C44.472,59.001 44.742,58.890 45.017,58.890 z" fill="#2E8DD6" /></svg>