<svg xmlns="http://www.w3.org/2000/svg" width="67" height="61" viewBox="0 0 67 61"><path d="M63.866 15.771a3.13 3.13 0 0 1-2.179-.885l-11.613 5.832c.116.435.179.891.179 1.362 0 2.9-2.349 5.259-5.236 5.259a5.19 5.19 0 0 1-2.693-.75l-5.958 6.528c-.031.036-.065.065-.098.094a3.158 3.158 0 0 1-2.768 4.645 3.152 3.152 0 0 1-2.956-4.224l-6.934-5.699a3.12 3.12 0 0 1-1.932.443l-4.826 10.386c.58.574.941 1.37.941 2.249a3.152 3.152 0 0 1-3.141 3.156 3.12 3.12 0 0 1-2.098-.81l-6.32 3.463a3.153 3.153 0 0 1-3.101 3.657 3.153 3.153 0 0 1-3.141-3.156 3.151 3.151 0 0 1 3.141-3.154c.805 0 1.54.307 2.097.808l6.32-3.464a3.152 3.152 0 0 1 3.404-3.64l4.826-10.385a3.16 3.16 0 0 1-.94-2.25 3.152 3.152 0 0 1 3.141-3.156 3.153 3.153 0 0 1 2.955 4.226l6.935 5.698a3.118 3.118 0 0 1 2.867-.201 1.08 1.08 0 0 1 .084-.108l5.96-6.53a5.24 5.24 0 0 1-1-3.085c0-2.899 2.349-5.258 5.235-5.258 1.67 0 3.158.79 4.117 2.015l11.615-5.833a3.153 3.153 0 0 1 3.117-3.544 3.153 3.153 0 0 1 3.142 3.157 3.153 3.153 0 0 1-3.142 3.154zm-60.733 30.5a1.05 1.05 0 0 0 0 2.101 1.05 1.05 0 0 0 0-2.101zm11.519-6.311a1.05 1.05 0 0 0 0 2.103 1.05 1.05 0 0 0 0-2.103zm7.329-15.776a1.052 1.052 0 0 0 0 2.104 1.05 1.05 0 0 0 1.047-1.052 1.05 1.05 0 0 0-1.047-1.052zM33.5 33.65a1.051 1.051 0 1 0 0 2.103 1.05 1.05 0 0 0 1.046-1.052A1.05 1.05 0 0 0 33.5 33.65zm11.517-14.725a3.153 3.153 0 0 0-3.141 3.155 3.152 3.152 0 0 0 3.141 3.156 3.152 3.152 0 0 0 3.142-3.156 3.153 3.153 0 0 0-3.142-3.155zm18.849-7.36c-.578 0-1.047.47-1.047 1.052 0 .579.469 1.05 1.047 1.05a1.05 1.05 0 0 0 1.047-1.05 1.05 1.05 0 0 0-1.047-1.052zM45.017 23.133a1.051 1.051 0 0 1 0-2.104 1.05 1.05 0 0 1 1.048 1.051 1.05 1.05 0 0 1-1.048 1.053zm0-8.414a1.052 1.052 0 0 1-.74-1.795 1.05 1.05 0 0 1 1.481 0c.194.196.307.467.307.743a1.055 1.055 0 0 1-1.048 1.052zm0-4.207a1.047 1.047 0 0 1-1.046-1.052 1.051 1.051 0 0 1 1.046-1.052 1.05 1.05 0 0 1 1.048 1.052 1.046 1.046 0 0 1-1.048 1.052zm0-4.206c-.274 0-.545-.112-.74-.308a1.061 1.061 0 0 1 0-1.488c.195-.197.466-.308.74-.308a1.05 1.05 0 0 1 1.048 1.052c0 .276-.111.546-.307.744a1.055 1.055 0 0 1-.741.308zm0-4.207c-.274 0-.545-.112-.74-.307a1.062 1.062 0 0 1 0-1.489c.195-.195.465-.307.74-.307.277 0 .546.112.741.307a1.06 1.06 0 0 1 0 1.489 1.057 1.057 0 0 1-.741.307zm0 27.344c.275 0 .546.112.741.307a1.05 1.05 0 0 1-.741 1.796 1.048 1.048 0 0 1-1.046-1.051c0-.279.111-.548.306-.745.195-.195.465-.307.74-.307zm0 4.207a1.05 1.05 0 0 1 .741 1.793c-.195.197-.464.31-.741.31a1.05 1.05 0 0 1-1.046-1.052 1.051 1.051 0 0 1 1.046-1.051zm0 4.206a1.046 1.046 0 0 1 1.048 1.052c0 .276-.111.549-.307.745a1.053 1.053 0 0 1-.741.307c-.274 0-.545-.111-.74-.307a1.061 1.061 0 0 1 0-1.489c.195-.197.465-.308.74-.308zm0 4.207a1.05 1.05 0 0 1 1.048 1.052 1.054 1.054 0 0 1-1.048 1.052 1.051 1.051 0 0 1 0-2.104zm0 4.208c.277 0 .546.112.741.307.194.196.307.467.307.743 0 .278-.113.548-.307.744a1.053 1.053 0 0 1-.741.307c-.274 0-.545-.111-.74-.307a1.064 1.064 0 0 1-.306-.744c0-.276.112-.547.306-.743.195-.195.465-.307.74-.307zm0 4.206c.277 0 .546.112.741.307a1.06 1.06 0 0 1 0 1.489 1.053 1.053 0 0 1-.741.307c-.275 0-.545-.112-.74-.307a1.065 1.065 0 0 1-.306-.744c0-.278.111-.548.306-.745.195-.195.465-.307.74-.307zm0 4.206c.277 0 .546.113.741.307a1.054 1.054 0 0 1 0 1.488 1.046 1.046 0 0 1-1.787-.744c0-.277.111-.548.306-.744.195-.194.465-.307.74-.307zm0 4.207a1.046 1.046 0 0 1 1.048 1.053c0 .277-.111.547-.307.744a1.052 1.052 0 0 1-1.481 0 1.063 1.063 0 0 1 0-1.489c.195-.197.465-.308.74-.308z" fill="#2E8DD6"/></svg>