<svg xmlns="http://www.w3.org/2000/svg" width="22" height="26" viewBox="0 0 22 26"><path d="M21.333 21.167a4.167 4.167 0 1 1-4.166-4.166c.813 0 1.275-.071 1.833.333" fill="none" stroke="#208BCE"/><path d="M21.209 18.938l-3.534 3.826a.398.398 0 0 1-.562 0l-1.638-1.621a.391.391 0 0 1 0-.555l.316-.311a.4.4 0 0 1 .561-.001l.956 1.057 3.021-3.264a.4.4 0 0 1 .562 0l.318.314a.39.39 0 0 1 0 .555zM4.49 20.667h4.333a.5.5 0 0 1 0 1H4.49a.5.5 0 1 1 0-1zm0-3.667a.5.5 0 1 1 0-1h2.333a.5.5 0 0 1 0 1H4.49zm6.166 1.833a.5.5 0 0 1-.5.5H4.49a.5.5 0 1 1 0-1h5.666a.5.5 0 0 1 .5.5zm8.011-2.5c-.436.004-.458.012-1 0v-2.7a.492.492 0 0 1-.167.034h-16a.492.492 0 0 1-.167-.034V22c0 1.008.695 1.667 1.667 1.667h9.648c.001.549.666.567.666 1H3C1.575 24.667.333 23.832.333 22V3.333C.333 1.641 1.482.667 3 .667h10.98c.125 0 .577.246.665.333l3.994 4c.089.087.028.21.028.333v11zm-4.022-14v1.968c0 .154.201.366.333.366h1.664l-1.997-2.334zm3.022 3.333h-3.354c-.323 0-.666-.348-.666-.666V1.667H3c-.988 0-1.667.662-1.667 1.666V12.7a.491.491 0 0 1 .167-.033h16c.059 0 .114.014.167.033V5.666zm-3.5 5.001a.5.5 0 0 1-.5-.5v-.334a.5.5 0 0 1 1 0v.334a.5.5 0 0 1-.5.5zm-2 0a.5.5 0 0 1-.5-.5V8.833a.5.5 0 0 1 1 0v1.334a.5.5 0 0 1-.5.5zm-1.667 0a.5.5 0 0 1-.5-.5V7.833a.5.5 0 0 1 1 0v2.334a.5.5 0 0 1-.5.5zm-2 0a.5.5 0 0 1-.5-.5v-5a.5.5 0 0 1 1 0v5a.5.5 0 0 1-.5.5zm-2 0a.5.5 0 0 1-.5-.5V6.5a.5.5 0 0 1 1 0v3.667a.5.5 0 0 1-.5.5zm-2 0a.5.5 0 0 1-.5-.5V8.5a.5.5 0 0 1 1 0v1.667a.5.5 0 0 1-.5.5z" fill="#208BCE"/></svg>