<svg xmlns="http://www.w3.org/2000/svg" width="100" height="54" viewBox="0 0 100 54"><path d="M96.688 14.406c-.436 0-.839-.122-1.195-.318L82.912 26.222c.189.35.307.744.307 1.169a2.492 2.492 0 0 1-2.5 2.484 2.492 2.492 0 0 1-2.5-2.484c0-.21.034-.41.083-.604l-11.349-7.719a2.474 2.474 0 0 1-1.234.338 2.5 2.5 0 1 1 2.5-2.5c0 .32-.066.623-.175.904l11.152 7.585v.038a2.49 2.49 0 0 1 1.523-.527c.425 0 .82.116 1.17.302l12.597-12.149a2.503 2.503 0 0 1-.298-1.168 2.508 2.508 0 0 1 2.5-2.516c1.38 0 2.5 1.126 2.5 2.516a2.508 2.508 0 0 1-2.5 2.515zm-30.969 1.5a1 1 0 1 0 0 2 .99.99 0 0 0 .98-.901v-.11l.019.013.001-.002a1 1 0 0 0-1-1zm15 10.5c-.553 0-1 .441-1 .985 0 .543.447.984 1 .984.552 0 1-.441 1-.984 0-.006-.003-.01-.003-.015l-.02.019v-.117a.983.983 0 0 0-.977-.872zm15.969-15.531c-.553 0-1.001.455-1.001 1.016l.002.007.004-.003v.022c.014.548.451.989.995.989.552 0 1-.454 1-1.015 0-.561-.448-1.016-1-1.016zM74.699 49.39a3.98 3.98 0 0 1-1.173 2.833 3.982 3.982 0 0 1-2.832 1.174 3.98 3.98 0 0 1-2.832-1.174l-10.96-10.962a3.981 3.981 0 0 1-1.173-2.832c0-.82.245-1.601.699-2.261l-2.558-2.559a18.788 18.788 0 0 1-12.799 5.02c-10.401 0-18.864-8.464-18.864-18.867C22.207 9.358 30.67.893 41.071.893c10.402 0 18.865 8.465 18.865 18.869 0 4.878-1.861 9.331-4.91 12.683l2.585 2.586a3.968 3.968 0 0 1 2.123-.609c1.07 0 2.076.418 2.832 1.173l10.96 10.962a3.98 3.98 0 0 1 1.173 2.833zM58.295 19.762c0-9.5-7.727-17.227-17.224-17.227s-17.224 7.727-17.224 17.227 7.727 17.227 17.224 17.227 17.224-7.727 17.224-17.227zm14.071 27.955l-10.96-10.961a2.346 2.346 0 0 0-1.672-.693c-.632 0-1.225.246-1.672.693a2.348 2.348 0 0 0-.693 1.673c0 .631.246 1.225.693 1.672l10.96 10.961c.446.448 1.04.694 1.672.694.632 0 1.225-.246 1.672-.694a2.344 2.344 0 0 0 .693-1.672c0-.632-.246-1.225-.693-1.673zM48.693 25.265v-.001l-2.46-2.462h-.001a2.458 2.458 0 0 1-1.868.104l-3.665 4.581c.236.377.372.822.372 1.299a2.464 2.464 0 0 1-2.461 2.461 2.464 2.464 0 0 1-2.46-2.461c0-.645.249-1.231.655-1.67l-6.041-11.482a2.463 2.463 0 0 1-2.816-2.435 2.464 2.464 0 0 1 2.46-2.461 2.465 2.465 0 0 1 2.462 2.461c0 .643-.249 1.23-.656 1.67l6.042 11.481a2.432 2.432 0 0 1 1.163.112l3.664-4.582a2.44 2.44 0 0 1-.372-1.298 2.465 2.465 0 0 1 2.462-2.462 2.464 2.464 0 0 1 2.22 3.523l2.46 2.461.001.001c.32-.155.68-.242 1.059-.242a2.464 2.464 0 0 1 2.461 2.461 2.464 2.464 0 0 1-2.461 2.462 2.464 2.464 0 0 1-2.22-3.521zM30.408 12.379a.82.82 0 1 0 .003 1.64.82.82 0 0 0-.003-1.64zm8.202 15.587a.82.82 0 1 0 .001 1.64.82.82 0 0 0-.001-1.64zm6.563-8.204a.821.821 0 0 0-.821.82.82.82 0 1 0 .821-.82zm5.74 7.383a.822.822 0 0 0 0-1.641.821.821 0 0 0 0 1.641zm-33.694-2.239c-.457 0-.88-.132-1.249-.348L5.171 31.903c.029.153.048.31.048.472a2.5 2.5 0 1 1-2.5-2.5c.616 0 1.173.232 1.609.601l10.563-7.184a2.508 2.508 0 0 1 2.328-3.417c1.38 0 2.5 1.126 2.5 2.516a2.508 2.508 0 0 1-2.5 2.515zM3.713 32.344a.997.997 0 0 0-1.994.031.997.997 0 0 0 1.994.031v-.062zm13.506-10.969c-.553 0-1 .455-1 1.016 0 .561.447 1.015 1 1.015.552 0 1-.454 1-1.015 0-.561-.448-1.016-1-1.016z" fill="#2E8DD6"/></svg>