<svg version="1.1" xmlns="http://www.w3.org/2000/svg" xmlns:xlink="http://www.w3.org/1999/xlink" width="100" height="54" viewBox="0 0 100 54"><path id="-icon_diagram_zo" d="M96.688,14.406 C96.252,14.406 95.849,14.284 95.493,14.088 C95.493,14.088 82.912,26.222 82.912,26.222 C83.101,26.572 83.219,26.966 83.219,27.391 C83.219,28.763 82.099,29.875 80.719,29.875 C79.338,29.875 78.219,28.763 78.219,27.391 C78.219,27.181 78.253,26.981 78.302,26.787 C78.302,26.787 66.953,19.068 66.953,19.068 C66.588,19.277 66.170,19.406 65.719,19.406 C64.338,19.406 63.219,18.287 63.219,16.906 C63.219,15.526 64.338,14.406 65.719,14.406 C67.099,14.406 68.219,15.526 68.219,16.906 C68.219,17.226 68.153,17.529 68.044,17.810 C68.044,17.810 79.196,25.395 79.196,25.395 C79.196,25.395 79.196,25.433 79.196,25.433 C79.619,25.108 80.143,24.906 80.719,24.906 C81.144,24.906 81.539,25.022 81.889,25.208 C81.889,25.208 94.486,13.059 94.486,13.059 C94.302,12.708 94.188,12.315 94.188,11.891 C94.188,10.501 95.307,9.375 96.688,9.375 C98.068,9.375 99.188,10.501 99.188,11.891 C99.188,13.280 98.068,14.406 96.688,14.406 zM65.719,15.906 C65.166,15.906 64.719,16.354 64.719,16.906 C64.719,17.459 65.166,17.906 65.719,17.906 C66.236,17.906 66.647,17.508 66.699,17.005 C66.699,17.005 66.699,16.895 66.699,16.895 C66.699,16.895 66.718,16.908 66.718,16.908 C66.718,16.907 66.719,16.907 66.719,16.906 C66.719,16.354 66.271,15.906 65.719,15.906 zM80.719,26.406 C80.166,26.406 79.719,26.847 79.719,27.391 C79.719,27.934 80.166,28.375 80.719,28.375 C81.271,28.375 81.719,27.934 81.719,27.391 C81.719,27.385 81.716,27.381 81.716,27.376 C81.716,27.376 81.696,27.395 81.696,27.395 C81.696,27.395 81.696,27.278 81.696,27.278 C81.637,26.790 81.231,26.406 80.719,26.406 zM96.688,10.875 C96.135,10.875 95.687,11.330 95.687,11.891 C95.687,11.893 95.689,11.896 95.689,11.898 C95.689,11.898 95.693,11.895 95.693,11.895 C95.693,11.895 95.693,11.917 95.693,11.917 C95.707,12.465 96.144,12.906 96.688,12.906 C97.240,12.906 97.688,12.452 97.688,11.891 C97.688,11.330 97.240,10.875 96.688,10.875 zM74.699,49.390 C74.699,50.460 74.283,51.466 73.526,52.223 C72.769,52.979 71.764,53.397 70.694,53.397 C69.624,53.397 68.618,52.979 67.862,52.223 C67.862,52.223 56.902,41.261 56.902,41.261 C56.146,40.504 55.729,39.499 55.729,38.429 C55.729,37.609 55.974,36.828 56.428,36.168 C56.428,36.168 53.870,33.609 53.870,33.609 C50.504,36.724 46.006,38.629 41.071,38.629 C30.670,38.629 22.207,30.165 22.207,19.762 C22.207,9.358 30.670,0.893 41.071,0.893 C51.473,0.893 59.936,9.358 59.936,19.762 C59.936,24.640 58.075,29.093 55.026,32.445 C55.026,32.445 57.611,35.031 57.611,35.031 C58.242,34.634 58.971,34.422 59.734,34.422 C60.804,34.422 61.810,34.840 62.566,35.595 C62.566,35.595 73.526,46.557 73.526,46.557 C74.283,47.314 74.699,48.320 74.699,49.390 zM58.295,19.762 C58.295,10.262 50.568,2.535 41.071,2.535 C31.574,2.535 23.847,10.262 23.847,19.762 C23.847,29.262 31.574,36.989 41.071,36.989 C50.568,36.989 58.295,29.262 58.295,19.762 zM72.366,47.717 C72.366,47.717 61.406,36.756 61.406,36.756 C60.960,36.309 60.366,36.063 59.734,36.063 C59.102,36.063 58.509,36.309 58.062,36.756 C57.615,37.202 57.369,37.797 57.369,38.429 C57.369,39.060 57.615,39.654 58.062,40.101 C58.062,40.101 69.022,51.062 69.022,51.062 C69.468,51.510 70.062,51.756 70.694,51.756 C71.326,51.756 71.919,51.510 72.366,51.062 C72.813,50.616 73.059,50.023 73.059,49.390 C73.059,48.758 72.813,48.165 72.366,47.717 zM48.693,25.265 C48.693,25.265 48.693,25.264 48.693,25.264 L46.233,22.802 C46.233,22.802 46.233,22.802 46.232,22.802 C45.911,22.957 45.552,23.043 45.173,23.043 C44.889,23.043 44.617,22.994 44.364,22.906 C44.364,22.906 40.699,27.487 40.699,27.487 C40.935,27.864 41.071,28.309 41.071,28.786 C41.071,30.142 39.968,31.247 38.610,31.247 C37.254,31.247 36.150,30.142 36.150,28.786 C36.150,28.141 36.399,27.555 36.805,27.116 C36.805,27.116 30.764,15.634 30.764,15.634 C30.647,15.650 30.529,15.659 30.408,15.659 C29.052,15.659 27.948,14.555 27.948,13.199 C27.948,11.843 29.052,10.738 30.408,10.738 C31.766,10.738 32.870,11.843 32.870,13.199 C32.870,13.842 32.621,14.429 32.214,14.869 C32.214,14.869 38.256,26.350 38.256,26.350 C38.372,26.334 38.490,26.324 38.610,26.324 C38.894,26.324 39.166,26.373 39.419,26.462 C39.419,26.462 43.083,21.880 43.083,21.880 C42.848,21.505 42.711,21.059 42.711,20.582 C42.711,19.225 43.815,18.120 45.173,18.120 C46.529,18.120 47.633,19.225 47.633,20.582 C47.633,20.962 47.546,21.322 47.393,21.643 C47.393,21.643 49.853,24.104 49.853,24.104 C49.853,24.104 49.853,24.104 49.854,24.105 C50.174,23.950 50.534,23.863 50.913,23.863 C52.270,23.863 53.374,24.967 53.374,26.324 C53.374,27.682 52.270,28.786 50.913,28.786 C49.557,28.786 48.453,27.682 48.453,26.324 C48.453,25.945 48.539,25.585 48.693,25.265 zM30.408,12.379 C29.957,12.379 29.589,12.746 29.589,13.199 C29.589,13.651 29.957,14.018 30.408,14.018 C30.861,14.018 31.229,13.651 31.229,13.199 C31.229,12.746 30.861,12.379 30.408,12.379 zM38.610,27.966 C38.158,27.966 37.791,28.333 37.791,28.786 C37.791,29.238 38.158,29.606 38.610,29.606 C39.063,29.606 39.431,29.238 39.431,28.786 C39.431,28.333 39.063,27.966 38.610,27.966 zM45.173,19.762 C44.720,19.762 44.352,20.130 44.352,20.582 C44.352,21.034 44.720,21.402 45.173,21.402 C45.624,21.402 45.992,21.034 45.992,20.582 C45.992,20.130 45.624,19.762 45.173,19.762 zM50.913,27.145 C51.366,27.145 51.734,26.777 51.734,26.324 C51.734,25.872 51.366,25.504 50.913,25.504 C50.461,25.504 50.093,25.872 50.093,26.324 C50.093,26.777 50.461,27.145 50.913,27.145 zM17.219,24.906 C16.762,24.906 16.339,24.774 15.970,24.558 C15.970,24.558 5.171,31.903 5.171,31.903 C5.200,32.056 5.219,32.213 5.219,32.375 C5.219,33.756 4.099,34.875 2.719,34.875 C1.338,34.875 0.219,33.756 0.219,32.375 C0.219,30.994 1.338,29.875 2.719,29.875 C3.335,29.875 3.892,30.107 4.328,30.476 C4.328,30.476 14.891,23.292 14.891,23.292 C14.784,23.011 14.719,22.709 14.719,22.391 C14.719,21.001 15.838,19.875 17.219,19.875 C18.599,19.875 19.719,21.001 19.719,22.391 C19.719,23.780 18.599,24.906 17.219,24.906 zM3.713,32.344 C3.695,31.807 3.260,31.375 2.719,31.375 C2.166,31.375 1.719,31.823 1.719,32.375 C1.719,32.927 2.166,33.375 2.719,33.375 C3.260,33.375 3.695,32.943 3.713,32.406 C3.713,32.406 3.713,32.344 3.713,32.344 zM17.219,21.375 C16.666,21.375 16.219,21.830 16.219,22.391 C16.219,22.952 16.666,23.406 17.219,23.406 C17.771,23.406 18.219,22.952 18.219,22.391 C18.219,21.830 17.771,21.375 17.219,21.375 z" fill="#2E8DD6" /></svg>