<svg version="1.1" xmlns="http://www.w3.org/2000/svg" xmlns:xlink="http://www.w3.org/1999/xlink" width="45" height="26" viewBox="0 0 45 26"><path id="-icon_glasses" d="M42.234,20.192 C42.234,20.192 42.186,20.192 42.186,20.192 C42.186,20.192 42.186,21.825 42.186,21.825 C42.186,23.216 41.239,24.421 39.883,24.755 C37.775,25.274 35.505,25.538 33.136,25.538 C30.766,25.538 28.496,25.274 26.388,24.754 C25.032,24.421 24.084,23.216 24.084,21.824 C24.084,21.824 24.084,18.711 24.084,18.711 C24.084,17.842 23.383,17.136 22.520,17.136 C21.658,17.136 20.957,17.842 20.957,18.711 C20.957,18.711 20.957,21.825 20.957,21.825 C20.957,23.216 20.009,24.421 18.652,24.755 C16.545,25.274 14.275,25.538 11.906,25.538 C9.536,25.538 7.265,25.274 5.158,24.754 C3.802,24.421 2.854,23.216 2.854,21.824 C2.854,21.824 2.854,20.192 2.854,20.192 C2.854,20.192 2.807,20.192 2.807,20.192 C1.579,20.192 0.580,19.185 0.580,17.947 C0.580,17.947 0.580,6.095 0.580,6.095 C0.580,4.679 1.127,3.349 2.120,2.348 C2.120,2.348 3.821,0.635 3.821,0.635 C4.098,0.355 4.548,0.355 4.826,0.635 C5.104,0.915 5.104,1.368 4.826,1.647 C4.826,1.647 3.125,3.362 3.125,3.362 C2.401,4.091 2.001,5.063 2.001,6.095 C2.001,6.095 2.001,14.892 2.001,14.892 C2.001,15.339 2.363,15.702 2.807,15.702 C2.807,15.702 3.211,15.702 3.211,15.702 C3.605,14.968 4.299,14.407 5.158,14.195 C7.265,13.674 9.536,13.411 11.906,13.411 C14.275,13.411 16.545,13.674 18.653,14.195 C19.709,14.456 20.518,15.244 20.824,16.238 C21.306,15.901 21.890,15.702 22.520,15.702 C23.151,15.702 23.735,15.901 24.217,16.238 C24.523,15.244 25.331,14.456 26.388,14.195 C28.496,13.674 30.766,13.411 33.136,13.411 C35.505,13.411 37.775,13.674 39.883,14.195 C40.741,14.407 41.436,14.968 41.830,15.702 C41.830,15.702 42.234,15.702 42.234,15.702 C42.678,15.702 43.039,15.339 43.039,14.892 C43.039,14.892 43.039,6.095 43.039,6.095 C43.039,5.063 42.640,4.091 41.915,3.361 C41.915,3.361 40.215,1.647 40.215,1.647 C39.937,1.368 39.937,0.915 40.215,0.635 C40.492,0.355 40.942,0.355 41.220,0.635 C41.220,0.635 42.921,2.348 42.921,2.348 C43.914,3.349 44.461,4.679 44.461,6.095 C44.461,6.095 44.461,17.947 44.461,17.947 C44.461,19.185 43.462,20.192 42.234,20.192 zM2.854,17.136 C2.854,17.136 2.807,17.136 2.807,17.136 C2.523,17.136 2.251,17.082 2.001,16.983 C2.001,16.983 2.001,17.947 2.001,17.947 C2.001,18.394 2.363,18.758 2.807,18.758 C2.807,18.758 2.854,18.758 2.854,18.758 L2.854,17.136 zM19.535,17.126 C19.535,16.397 19.033,15.763 18.315,15.586 C16.318,15.094 14.162,14.844 11.906,14.844 C9.650,14.844 7.493,15.094 5.496,15.586 C4.778,15.763 4.276,16.397 4.276,17.126 C4.276,17.126 4.276,21.824 4.276,21.824 C4.276,22.553 4.778,23.186 5.496,23.364 C7.493,23.857 9.650,24.106 11.906,24.106 C14.162,24.106 16.318,23.857 18.315,23.364 C19.033,23.186 19.535,22.553 19.535,21.824 C19.535,21.824 19.535,17.126 19.535,17.126 zM40.765,17.126 C40.765,16.397 40.263,15.764 39.544,15.586 C37.548,15.094 35.392,14.844 33.136,14.844 C30.879,14.844 28.723,15.094 26.726,15.586 C26.008,15.764 25.506,16.397 25.506,17.126 C25.506,17.126 25.506,21.825 25.506,21.825 C25.506,22.553 26.008,23.186 26.726,23.364 C28.723,23.857 30.879,24.106 33.136,24.106 C35.392,24.106 37.548,23.857 39.544,23.364 C40.263,23.186 40.765,22.553 40.765,21.824 C40.765,21.824 40.765,17.126 40.765,17.126 zM43.039,16.983 C42.789,17.082 42.518,17.136 42.234,17.136 C42.234,17.136 42.186,17.136 42.186,17.136 L42.186,18.758 C42.186,18.758 42.234,18.758 42.234,18.758 C42.678,18.758 43.039,18.393 43.039,17.947 C43.039,17.947 43.039,16.983 43.039,16.983 zM38.593,21.918 C38.088,22.028 37.562,22.124 37.029,22.202 C36.994,22.207 36.959,22.210 36.926,22.210 C36.579,22.210 36.275,21.953 36.223,21.597 C36.166,21.206 36.435,20.843 36.824,20.785 C37.325,20.711 37.819,20.623 38.293,20.519 C38.677,20.436 39.055,20.682 39.138,21.068 C39.221,21.454 38.977,21.835 38.593,21.918 zM33.913,22.471 C33.653,22.478 33.392,22.482 33.136,22.482 C31.261,22.482 29.374,22.287 27.678,21.918 C27.294,21.835 27.050,21.454 27.133,21.068 C27.216,20.682 27.594,20.436 27.978,20.519 C29.576,20.867 31.360,21.050 33.136,21.050 C33.379,21.050 33.627,21.047 33.874,21.039 C34.263,21.027 34.593,21.340 34.604,21.737 C34.615,22.130 34.306,22.459 33.913,22.471 zM17.363,21.918 C16.858,22.028 16.332,22.124 15.799,22.202 C15.764,22.207 15.730,22.210 15.695,22.210 C15.348,22.210 15.045,21.953 14.993,21.597 C14.936,21.206 15.205,20.843 15.593,20.785 C16.095,20.711 16.589,20.623 17.063,20.519 C17.446,20.436 17.825,20.682 17.908,21.068 C17.991,21.454 17.747,21.835 17.363,21.918 zM12.684,22.471 C12.424,22.478 12.162,22.482 11.906,22.482 C10.030,22.482 8.143,22.288 6.448,21.918 C6.064,21.835 5.820,21.454 5.903,21.068 C5.986,20.682 6.364,20.436 6.748,20.519 C8.346,20.867 10.130,21.050 11.906,21.050 C12.149,21.050 12.397,21.047 12.644,21.039 C13.032,21.027 13.363,21.340 13.374,21.737 C13.385,22.130 13.076,22.461 12.684,22.471 z" fill="#338BC3" /></svg>