<svg version="1.1" xmlns="http://www.w3.org/2000/svg" xmlns:xlink="http://www.w3.org/1999/xlink" width="38" height="38" viewBox="0 0 38 38"><path id="icon_tie" d="M37.407,7.122 C37.369,7.122 37.329,7.118 37.290,7.110 C37.290,7.110 28.384,5.329 28.384,5.329 C28.344,5.321 28.307,5.310 28.271,5.294 C28.271,5.294 23.598,10.488 23.598,10.488 C23.485,10.613 23.324,10.684 23.156,10.684 C23.149,10.684 23.142,10.684 23.135,10.684 C22.960,10.678 22.796,10.594 22.688,10.455 C22.688,10.455 21.968,9.530 21.968,9.530 C21.959,10.035 21.738,10.491 21.390,10.810 C21.390,10.810 21.549,12.408 21.549,12.408 C21.551,12.424 21.553,12.441 21.554,12.458 C21.554,12.458 21.887,15.825 21.887,15.825 C21.900,15.878 21.905,15.934 21.904,15.988 C21.904,15.988 23.625,33.363 23.625,33.363 C23.642,33.540 23.579,33.716 23.454,33.841 C23.454,33.841 19.470,37.826 19.470,37.826 C19.354,37.942 19.202,38.000 19.050,38.000 C18.898,38.000 18.746,37.942 18.630,37.826 C18.630,37.826 14.646,33.841 14.646,33.841 C14.521,33.717 14.458,33.542 14.475,33.366 C14.475,33.366 16.610,10.810 16.610,10.810 C16.262,10.491 16.041,10.036 16.032,9.530 C16.032,9.530 15.313,10.455 15.313,10.455 C15.205,10.594 15.041,10.678 14.865,10.684 C14.858,10.684 14.851,10.684 14.844,10.684 C14.676,10.684 14.515,10.613 14.402,10.488 C14.402,10.488 9.729,5.294 9.729,5.294 C9.693,5.310 9.655,5.321 9.616,5.329 C9.616,5.329 0.710,7.110 0.710,7.110 C0.671,7.118 0.631,7.122 0.593,7.122 C0.316,7.122 0.068,6.927 0.011,6.644 C-0.053,6.323 0.155,6.009 0.477,5.946 C0.477,5.946 8.917,4.258 8.917,4.258 C8.894,4.134 8.910,4.004 8.969,3.887 C8.969,3.887 10.170,1.484 10.170,1.484 C10.393,1.038 10.795,0.704 11.275,0.568 C11.747,0.433 12.257,0.500 12.678,0.752 C12.678,0.752 19.000,4.075 19.000,4.075 C19.000,4.075 25.322,0.752 25.322,0.752 C25.743,0.500 26.253,0.433 26.725,0.568 C27.204,0.704 27.607,1.038 27.830,1.484 C27.830,1.484 29.031,3.887 29.031,3.887 C29.090,4.004 29.105,4.134 29.083,4.258 C29.083,4.258 37.523,5.946 37.523,5.946 C37.844,6.009 38.053,6.323 37.989,6.644 C37.932,6.927 37.684,7.122 37.407,7.122 zM21.387,22.818 L17.075,18.506 L16.963,19.683 L21.528,24.249 L21.387,22.818 zM19.400,10.091 C19.400,10.091 20.188,10.091 20.188,10.091 C20.379,10.091 20.549,9.999 20.658,9.857 C20.648,9.849 20.637,9.841 20.628,9.831 C20.628,9.831 17.911,7.114 17.911,7.114 L17.260,7.951 L19.400,10.091 zM17.228,9.597 C17.270,9.844 17.465,10.039 17.712,10.081 C17.712,10.081 17.228,9.597 17.228,9.597 zM17.733,11.547 L20.549,14.363 L20.390,12.760 L18.909,11.278 C18.909,11.278 17.812,11.278 17.812,11.278 C17.795,11.278 17.777,11.277 17.759,11.277 C17.759,11.277 17.733,11.547 17.733,11.547 zM17.588,13.082 C17.588,13.082 17.476,14.263 17.476,14.263 C17.491,14.275 17.505,14.287 17.518,14.301 C17.518,14.301 20.875,17.658 20.875,17.658 L20.734,16.228 L17.588,13.082 zM17.331,15.794 C17.331,15.794 17.217,16.998 17.217,16.998 C17.261,17.025 17.304,17.056 17.342,17.093 C17.342,17.093 21.202,20.954 21.202,20.954 C21.202,20.954 21.060,19.523 21.060,19.523 C21.059,19.521 21.058,19.520 21.057,19.520 C21.057,19.520 17.331,15.794 17.331,15.794 zM21.708,26.063 C21.650,26.035 21.597,25.997 21.549,25.949 C21.549,25.949 16.818,21.218 16.818,21.218 C16.818,21.218 16.706,22.397 16.706,22.397 C16.712,22.403 16.718,22.408 16.724,22.414 C16.724,22.414 21.855,27.544 21.855,27.544 C21.855,27.544 21.708,26.063 21.708,26.063 zM15.683,33.199 L19.050,36.566 L19.669,35.947 L15.791,32.067 L15.683,33.199 zM15.936,30.533 L20.509,35.107 L21.154,34.462 L16.047,29.355 L15.936,30.533 zM16.192,27.821 L21.994,33.622 L22.415,33.201 C22.415,33.201 22.366,32.701 22.366,32.701 C22.353,32.690 22.339,32.679 22.327,32.667 C22.327,32.667 16.304,26.642 16.304,26.642 L16.192,27.821 zM16.561,23.930 C16.561,23.930 16.449,25.109 16.449,25.109 C16.450,25.109 16.450,25.109 16.451,25.110 C16.451,25.110 22.181,30.841 22.181,30.841 L22.039,29.409 L16.561,23.930 zM12.109,1.795 C12.098,1.789 12.086,1.782 12.074,1.775 C11.931,1.686 11.762,1.663 11.600,1.710 C11.438,1.756 11.308,1.864 11.232,2.015 C11.232,2.015 10.212,4.056 10.212,4.056 L14.811,9.166 L18.096,4.942 C18.096,4.942 12.109,1.795 12.109,1.795 zM18.646,6.169 C18.646,6.169 20.781,8.305 20.781,8.305 C20.782,8.221 20.800,8.142 20.832,8.070 C20.832,8.070 19.000,5.714 19.000,5.714 L18.646,6.169 zM26.768,2.015 C26.692,1.864 26.562,1.756 26.400,1.710 C26.237,1.663 26.069,1.686 25.925,1.775 C25.914,1.782 25.903,1.789 25.891,1.795 C25.891,1.795 19.904,4.942 19.904,4.942 L23.190,9.166 L27.788,4.056 C27.788,4.056 26.768,2.015 26.768,2.015 zM4.750,16.029 C4.750,16.029 11.875,16.029 11.875,16.029 C12.857,16.029 13.656,16.828 13.656,17.811 C13.656,17.811 13.656,24.936 13.656,24.936 C13.656,25.918 12.857,26.717 11.875,26.717 C11.875,26.717 4.750,26.717 4.750,26.717 C3.767,26.717 2.968,25.918 2.968,24.936 C2.968,24.936 2.968,17.811 2.968,17.811 C2.968,16.827 3.767,16.029 4.750,16.029 zM4.156,24.936 C4.156,25.263 4.422,25.530 4.750,25.530 C4.750,25.530 11.875,25.530 11.875,25.530 C12.202,25.530 12.469,25.263 12.469,24.936 C12.469,24.936 12.469,21.042 12.469,21.042 C12.469,21.042 8.521,22.523 8.521,22.523 C8.454,22.548 8.383,22.560 8.312,22.560 C8.242,22.560 8.171,22.548 8.104,22.523 C8.104,22.523 4.156,21.042 4.156,21.042 C4.156,21.042 4.156,24.936 4.156,24.936 zM4.156,19.774 L8.312,21.333 L12.469,19.774 C12.469,19.774 12.469,17.811 12.469,17.811 C12.469,17.482 12.202,17.216 11.875,17.216 C11.875,17.216 4.750,17.216 4.750,17.216 C4.422,17.216 4.156,17.482 4.156,17.811 C4.156,17.811 4.156,19.774 4.156,19.774 zM8.312,19.592 C8.469,19.592 8.622,19.655 8.732,19.766 C8.843,19.876 8.906,20.028 8.906,20.185 C8.906,20.342 8.843,20.496 8.732,20.605 C8.622,20.716 8.469,20.779 8.312,20.779 C8.156,20.779 8.003,20.716 7.892,20.605 C7.782,20.496 7.719,20.342 7.719,20.185 C7.719,20.028 7.782,19.876 7.892,19.766 C8.003,19.655 8.156,19.592 8.312,19.592 zM24.938,17.216 C24.938,17.216 27.313,17.216 27.313,17.216 C27.313,17.216 27.313,14.247 27.313,14.247 C27.313,13.593 27.846,13.060 28.500,13.060 C28.500,13.060 29.688,13.060 29.688,13.060 C30.342,13.060 30.875,13.593 30.875,14.247 C30.875,14.247 30.875,15.435 30.875,15.435 C31.857,15.435 32.656,16.234 32.656,17.216 C32.656,17.216 34.438,17.216 34.438,17.216 C34.765,17.216 35.032,17.482 35.032,17.811 C35.032,17.811 35.032,24.936 35.032,24.936 C35.032,25.918 34.232,26.717 33.250,26.717 C33.250,26.717 26.125,26.717 26.125,26.717 C25.143,26.717 24.344,25.918 24.344,24.936 C24.344,24.936 24.344,17.811 24.344,17.811 C24.344,17.482 24.610,17.216 24.938,17.216 zM29.688,14.247 L28.500,14.247 L28.500,17.216 L29.688,17.216 L29.688,14.247 zM30.875,16.623 C30.875,16.623 30.875,17.216 30.875,17.216 C30.875,17.216 31.469,17.216 31.469,17.216 C31.469,16.889 31.203,16.623 30.875,16.623 zM25.531,24.936 C25.531,25.263 25.798,25.530 26.125,25.530 C26.125,25.530 33.250,25.530 33.250,25.530 C33.578,25.530 33.844,25.263 33.844,24.936 C33.844,24.936 33.844,18.404 33.844,18.404 L32.656,18.404 C32.656,18.404 32.656,20.779 32.656,20.779 C32.656,21.107 32.391,21.373 32.063,21.373 C31.735,21.373 31.469,21.107 31.469,20.779 C31.469,20.779 31.469,18.404 31.469,18.404 L25.531,18.404 C25.531,18.404 25.531,24.936 25.531,24.936 z" fill="#338BC3" /></svg>