<svg xmlns="http://www.w3.org/2000/svg" width="53" height="53" viewBox="0 0 53 53"><path d="M51.679 27.07h-1.656c-.203 6.046-2.653 11.702-6.952 16.001a23.611 23.611 0 0 1-16.001 6.951v1.658a.82.82 0 0 1-1.641 0v-1.658a23.61 23.61 0 0 1-16-6.951A23.62 23.62 0 0 1 2.476 27.07H.82a.82.82 0 1 1 0-1.641h1.656a23.62 23.62 0 0 1 6.953-16c4.299-4.3 9.954-6.75 16-6.952V.82a.821.821 0 0 1 1.641 0v1.657c6.047.202 11.702 2.652 16.001 6.952 4.299 4.299 6.749 9.955 6.952 16h1.656a.822.822 0 0 1 0 1.641zM25.429 4.118a21.986 21.986 0 0 0-14.84 6.471 21.986 21.986 0 0 0-6.471 14.84H5.76c.421-10.655 9.013-19.247 19.669-19.67V4.118zm16.482 6.471A21.986 21.986 0 0 0 27.07 4.118v1.641a20.42 20.42 0 0 1 10.289 3.25.82.82 0 0 1-.89 1.378 18.786 18.786 0 0 0-9.399-2.986v4.084a.82.82 0 0 1-1.641 0V7.401c-9.751.42-17.608 8.276-18.028 18.028h4.084a.821.821 0 0 1 0 1.641H7.401a18.842 18.842 0 0 0 4.698 11.659.82.82 0 1 1-1.23 1.085 20.479 20.479 0 0 1-5.11-12.744H4.118a21.986 21.986 0 0 0 6.471 14.841 21.986 21.986 0 0 0 14.84 6.471V46.74a20.555 20.555 0 0 1-11.993-4.478.82.82 0 1 1 1.025-1.281A18.633 18.633 0 0 0 25.429 45.1v-4.085a.82.82 0 0 1 1.641 0v4.083c9.752-.42 17.609-8.276 18.028-18.028h-4.083a.82.82 0 1 1 0-1.641h4.083a18.767 18.767 0 0 0-2.986-9.399.819.819 0 1 1 1.378-.889 20.415 20.415 0 0 1 3.251 10.288h1.641a21.99 21.99 0 0 0-6.471-14.84zM46.74 27.07c-.422 10.657-9.013 19.247-19.67 19.669v1.643a21.986 21.986 0 0 0 14.841-6.471 21.99 21.99 0 0 0 6.471-14.841H46.74zm-5.725-13.022a.82.82 0 0 1-.615-.278 19.08 19.08 0 0 0-1.571-1.583.82.82 0 1 1 1.094-1.221c.6.536 1.174 1.115 1.707 1.718a.82.82 0 0 1-.615 1.364zM36.094 27.07h-2.508a7.397 7.397 0 0 1-6.516 6.516v2.508a.82.82 0 0 1-1.641 0v-2.508a7.399 7.399 0 0 1-6.516-6.516h-2.507a.82.82 0 1 1 0-1.641h2.507a7.398 7.398 0 0 1 6.516-6.515v-2.508a.82.82 0 0 1 1.641 0v2.508a7.396 7.396 0 0 1 6.516 6.515h2.508a.821.821 0 0 1 0 1.641zm-10.665-6.503a5.754 5.754 0 0 0-4.862 4.862h4.862v-4.862zm0 6.503h-4.862a5.753 5.753 0 0 0 4.862 4.862V27.07zm1.641-6.503v4.862h4.863a5.755 5.755 0 0 0-4.863-4.862zm0 6.503v4.862a5.754 5.754 0 0 0 4.863-4.862H27.07z" fill="#2E8DD6"/></svg>