<svg version="1.1" xmlns="http://www.w3.org/2000/svg" xmlns:xlink="http://www.w3.org/1999/xlink" width="53" height="53" viewBox="0 0 53 53"><path id="icon_target" d="M51.679,27.070 C51.679,27.070 50.023,27.070 50.023,27.070 C49.820,33.116 47.370,38.772 43.071,43.071 C38.772,47.371 33.117,49.819 27.070,50.022 C27.070,50.022 27.070,51.680 27.070,51.680 C27.070,52.132 26.703,52.499 26.250,52.499 C25.797,52.499 25.429,52.132 25.429,51.680 C25.429,51.680 25.429,50.022 25.429,50.022 C19.383,49.819 13.728,47.371 9.429,43.071 C5.129,38.772 2.680,33.116 2.476,27.070 C2.476,27.070 0.820,27.070 0.820,27.070 C0.367,27.070 -0.000,26.703 -0.000,26.250 C-0.000,25.797 0.367,25.429 0.820,25.429 C0.820,25.429 2.476,25.429 2.476,25.429 C2.680,19.384 5.129,13.728 9.429,9.429 C13.728,5.129 19.383,2.679 25.429,2.477 C25.429,2.477 25.429,0.820 25.429,0.820 C25.429,0.368 25.797,0.000 26.250,0.000 C26.703,0.000 27.070,0.368 27.070,0.820 C27.070,0.820 27.070,2.477 27.070,2.477 C33.117,2.679 38.772,5.129 43.071,9.429 C47.370,13.728 49.820,19.384 50.023,25.429 C50.023,25.429 51.679,25.429 51.679,25.429 C52.132,25.429 52.500,25.797 52.500,26.250 C52.500,26.703 52.132,27.070 51.679,27.070 zM25.429,4.118 C19.821,4.321 14.578,6.599 10.589,10.589 C6.599,14.577 4.321,19.822 4.118,25.429 C4.118,25.429 5.760,25.429 5.760,25.429 C6.181,14.774 14.773,6.182 25.429,5.759 C25.429,5.759 25.429,4.118 25.429,4.118 zM41.911,10.589 C37.922,6.599 32.679,4.321 27.070,4.118 C27.070,4.118 27.070,5.759 27.070,5.759 C30.737,5.904 34.278,7.020 37.359,9.009 C37.739,9.255 37.849,9.762 37.603,10.143 C37.357,10.524 36.850,10.633 36.469,10.387 C33.654,8.570 30.420,7.545 27.070,7.401 C27.070,7.401 27.070,11.485 27.070,11.485 C27.070,11.937 26.703,12.305 26.250,12.305 C25.797,12.305 25.429,11.937 25.429,11.485 C25.429,11.485 25.429,7.401 25.429,7.401 C15.678,7.821 7.821,15.677 7.401,25.429 C7.401,25.429 11.485,25.429 11.485,25.429 C11.937,25.429 12.305,25.797 12.305,26.250 C12.305,26.703 11.937,27.070 11.485,27.070 C11.485,27.070 7.401,27.070 7.401,27.070 C7.588,31.376 9.239,35.489 12.099,38.729 C12.399,39.068 12.366,39.587 12.027,39.886 C11.871,40.025 11.677,40.092 11.484,40.092 C11.257,40.092 11.031,39.997 10.869,39.814 C7.744,36.274 5.947,31.776 5.759,27.070 C5.759,27.070 4.118,27.070 4.118,27.070 C4.321,32.679 6.599,37.922 10.589,41.911 C14.578,45.901 19.821,48.179 25.429,48.382 C25.429,48.382 25.429,46.740 25.429,46.740 C21.071,46.565 16.840,44.990 13.436,42.262 C13.082,41.979 13.025,41.463 13.308,41.109 C13.592,40.755 14.108,40.698 14.461,40.981 C17.624,43.516 21.400,44.931 25.429,45.100 C25.429,45.100 25.429,41.015 25.429,41.015 C25.429,40.562 25.797,40.195 26.250,40.195 C26.703,40.195 27.070,40.562 27.070,41.015 C27.070,41.015 27.070,45.098 27.070,45.098 C36.822,44.678 44.679,36.822 45.098,27.070 C45.098,27.070 41.015,27.070 41.015,27.070 C40.562,27.070 40.195,26.703 40.195,26.250 C40.195,25.797 40.562,25.429 41.015,25.429 C41.015,25.429 45.098,25.429 45.098,25.429 C44.955,22.079 43.930,18.845 42.112,16.030 C41.867,15.650 41.976,15.142 42.356,14.896 C42.737,14.650 43.245,14.759 43.490,15.141 C45.480,18.221 46.595,21.762 46.741,25.429 C46.741,25.429 48.382,25.429 48.382,25.429 C48.179,19.822 45.900,14.577 41.911,10.589 zM46.740,27.070 C46.318,37.727 37.727,46.317 27.070,46.739 C27.070,46.739 27.070,48.382 27.070,48.382 C32.679,48.179 37.922,45.901 41.911,41.911 C45.900,37.922 48.179,32.679 48.382,27.070 C48.382,27.070 46.740,27.070 46.740,27.070 zM41.015,14.048 C40.788,14.048 40.562,13.953 40.400,13.770 C39.909,13.214 39.381,12.681 38.829,12.187 C38.492,11.886 38.463,11.368 38.765,11.030 C39.067,10.692 39.585,10.663 39.923,10.966 C40.523,11.502 41.097,12.081 41.630,12.684 C41.930,13.023 41.898,13.542 41.558,13.842 C41.402,13.979 41.208,14.048 41.015,14.048 zM36.094,27.070 C36.094,27.070 33.586,27.070 33.586,27.070 C33.206,30.486 30.487,33.206 27.070,33.586 C27.070,33.586 27.070,36.094 27.070,36.094 C27.070,36.546 26.703,36.913 26.250,36.913 C25.797,36.913 25.429,36.546 25.429,36.094 C25.429,36.094 25.429,33.586 25.429,33.586 C22.013,33.206 19.294,30.486 18.913,27.070 C18.913,27.070 16.406,27.070 16.406,27.070 C15.953,27.070 15.586,26.703 15.586,26.250 C15.586,25.797 15.953,25.429 16.406,25.429 C16.406,25.429 18.913,25.429 18.913,25.429 C19.294,22.013 22.013,19.294 25.429,18.914 C25.429,18.914 25.429,16.406 25.429,16.406 C25.429,15.953 25.797,15.587 26.250,15.587 C26.703,15.587 27.070,15.953 27.070,16.406 C27.070,16.406 27.070,18.914 27.070,18.914 C30.487,19.294 33.206,22.013 33.586,25.429 C33.586,25.429 36.094,25.429 36.094,25.429 C36.546,25.429 36.914,25.797 36.914,26.250 C36.914,26.703 36.546,27.070 36.094,27.070 zM25.429,20.567 C22.918,20.929 20.928,22.918 20.567,25.429 C20.567,25.429 25.429,25.429 25.429,25.429 C25.429,25.429 25.429,20.567 25.429,20.567 zM25.429,27.070 C25.429,27.070 20.567,27.070 20.567,27.070 C20.928,29.581 22.918,31.571 25.429,31.932 C25.429,31.932 25.429,27.070 25.429,27.070 zM27.070,20.567 C27.070,20.567 27.070,25.429 27.070,25.429 C27.070,25.429 31.933,25.429 31.933,25.429 C31.572,22.918 29.581,20.929 27.070,20.567 zM27.070,27.070 C27.070,27.070 27.070,31.932 27.070,31.932 C29.581,31.571 31.572,29.581 31.933,27.070 C31.933,27.070 27.070,27.070 27.070,27.070 z" fill="#2E8DD6" /></svg>