<svg xmlns="http://www.w3.org/2000/svg" width="41" height="36" viewBox="0 0 41 36"><path d="M40.194 2.137L37.841 6.19a3.988 3.988 0 0 1 1.155 2.808 4.005 4.005 0 0 1-4 4.002 3.953 3.953 0 0 1-1.854-.477l-6.023 5.064c-.113-.15-.247-.282-.38-.414.472.656.757 1.455.757 2.324a4.005 4.005 0 0 1-4 4.002 3.98 3.98 0 0 1-2.767-1.123l-7.052 2.058A4.005 4.005 0 0 1 9.996 30c-.99 0-1.885-.375-2.585-.973l-5.616 5.682a.747.747 0 0 1-1.054.091.75.75 0 0 1-.091-1.057l5.813-5.907a3.95 3.95 0 0 1-.468-1.838 4.007 4.007 0 0 1 4.001-4.002c1.109 0 2.112.455 2.838 1.186l7-2.084a3.98 3.98 0 0 1-.339-1.601 4.006 4.006 0 0 1 4.001-4.002c1.004 0 1.912.385 2.615.998l5.848-4.92a3.969 3.969 0 0 1-.964-2.575 4.006 4.006 0 0 1 4.001-4.002c.573 0 1.116.126 1.609.344l2.203-3.77a.75.75 0 0 1 1.386.567zM9.996 23.216a2.785 2.785 0 0 0-2.78 2.782 2.783 2.783 0 0 0 2.78 2.78 2.783 2.783 0 0 0 2.78-2.78 2.785 2.785 0 0 0-2.78-2.782zm13.5-6.5a2.784 2.784 0 0 0-2.78 2.781 2.784 2.784 0 0 0 2.78 2.782 2.784 2.784 0 0 0 2.78-2.782 2.784 2.784 0 0 0-2.78-2.781zm11.5-10.5a2.784 2.784 0 0 0-2.78 2.782 2.784 2.784 0 0 0 2.78 2.781 2.784 2.784 0 0 0 2.78-2.781 2.784 2.784 0 0 0-2.78-2.782zm.084 4.284a1.5 1.5 0 0 1-1.497-1.501 1.5 1.5 0 0 1 1.497-1.5c.827 0 1.497.672 1.497 1.5 0 .829-.67 1.501-1.497 1.501zM23.58 21a1.5 1.5 0 0 1 0-3c.827 0 1.497.671 1.497 1.5 0 .828-.67 1.5-1.497 1.5zm-13.5 6.501a1.5 1.5 0 0 1 0-3.001c.827 0 1.497.671 1.497 1.5a1.5 1.5 0 0 1-1.497 1.501zM1 27.497c-.552 0-1-.48-1-1.071 0-.59.448-1.07 1-1.07s1 .48 1 1.07c0 .591-.448 1.071-1 1.071zm0-5.964c-.552 0-1-.48-1-1.071 0-.59.448-1.069 1-1.069s1 .479 1 1.069c0 .591-.448 1.071-1 1.071zm0-5.964c-.552 0-1-.479-1-1.07 0-.591.448-1.07 1-1.07s1 .479 1 1.07c0 .591-.448 1.07-1 1.07zm0-6.464c-.552 0-1-.479-1-1.07 0-.59.448-1.07 1-1.07s1 .48 1 1.07c0 .591-.448 1.07-1 1.07zm0-6.463c-.552 0-1-.479-1-1.07C0 .98.448.502 1 .502s1 .478 1 1.07c0 .591-.448 1.07-1 1.07zM10.074 33.5c.591 0 1.07.448 1.07.999 0 .553-.479 1.001-1.07 1.001-.591 0-1.07-.448-1.07-1.001 0-.551.479-.999 1.07-.999zm6.463 0c.591 0 1.07.448 1.07.999 0 .553-.479 1.001-1.07 1.001-.591 0-1.07-.448-1.07-1.001 0-.551.479-.999 1.07-.999zm6.464 0c.591 0 1.07.448 1.07.999 0 .553-.479 1.001-1.07 1.001-.591 0-1.07-.448-1.07-1.001 0-.551.479-.999 1.07-.999zm6.463 0c.591 0 1.07.448 1.07.999 0 .553-.479 1.001-1.07 1.001-.591 0-1.07-.448-1.07-1.001 0-.551.479-.999 1.07-.999zm6.464 0c.591 0 1.07.448 1.07.999 0 .553-.479 1.001-1.07 1.001-.591 0-1.07-.448-1.07-1.001 0-.551.479-.999 1.07-.999z" fill="#208BCE"/></svg>