<svg version="1.1" xmlns="http://www.w3.org/2000/svg" xmlns:xlink="http://www.w3.org/1999/xlink" width="22" height="26" viewBox="0 0 22 26"><g id="-Block2_icon3"><g id="Ellipse-16" ><path id="Ellipse-16-stroke" d="M21.333,21.167 C21.333,23.468 19.468,25.334 17.167,25.334 C14.865,25.334 13.000,23.468 13.000,21.167 C13.000,18.865 14.865,17.001 17.167,17.001 C17.980,17.001 18.442,16.930 19.000,17.334 " fill="none" stroke="#208BCE" stroke-width="1" /></g><path id="Rounded-Rectangl" d="M21.209,18.938 C21.209,18.938 17.675,22.764 17.675,22.764 C17.600,22.838 17.499,22.879 17.394,22.879 C17.394,22.879 17.394,22.879 17.394,22.879 C17.289,22.879 17.187,22.838 17.113,22.764 C17.113,22.764 15.475,21.143 15.475,21.143 C15.321,20.990 15.321,20.741 15.475,20.588 C15.475,20.588 15.791,20.277 15.791,20.277 C15.946,20.123 16.197,20.123 16.352,20.276 C16.352,20.276 17.308,21.333 17.308,21.333 C17.308,21.333 20.329,18.069 20.329,18.069 C20.404,17.995 20.505,17.954 20.610,17.954 C20.716,17.954 20.817,17.995 20.891,18.069 C20.891,18.069 21.209,18.383 21.209,18.383 C21.364,18.536 21.364,18.784 21.209,18.938 zM4.490,20.667 C4.490,20.667 8.823,20.667 8.823,20.667 C9.099,20.667 9.323,20.891 9.323,21.167 C9.323,21.443 9.099,21.667 8.823,21.667 C8.823,21.667 4.490,21.667 4.490,21.667 C4.213,21.667 3.990,21.443 3.990,21.167 C3.990,20.891 4.213,20.667 4.490,20.667 zM4.490,17.000 C4.213,17.000 3.990,16.776 3.990,16.500 C3.990,16.224 4.213,16.000 4.490,16.000 C4.490,16.000 6.823,16.000 6.823,16.000 C7.099,16.000 7.323,16.224 7.323,16.500 C7.323,16.776 7.099,17.000 6.823,17.000 C6.823,17.000 4.490,17.000 4.490,17.000 zM10.656,18.833 C10.656,19.109 10.432,19.333 10.156,19.333 C10.156,19.333 4.490,19.333 4.490,19.333 C4.213,19.333 3.990,19.109 3.990,18.833 C3.990,18.557 4.213,18.333 4.490,18.333 C4.490,18.333 10.156,18.333 10.156,18.333 C10.432,18.333 10.656,18.557 10.656,18.833 zM18.667,16.333 C18.231,16.337 18.209,16.345 17.667,16.333 C17.667,16.333 17.667,13.633 17.667,13.633 C17.614,13.652 17.559,13.667 17.500,13.667 C17.500,13.667 1.500,13.667 1.500,13.667 C1.441,13.667 1.386,13.652 1.333,13.633 C1.333,17.205 1.333,20.559 1.333,22.000 C1.333,23.008 2.028,23.667 3.000,23.667 C10.232,23.667 12.648,23.667 12.648,23.667 C12.649,24.216 13.314,24.234 13.314,24.667 C13.314,24.667 3.000,24.667 3.000,24.667 C1.575,24.667 0.333,23.832 0.333,22.000 C0.333,22.000 0.333,8.245 0.333,3.333 C0.333,1.641 1.482,0.667 3.000,0.667 C6.301,0.667 13.980,0.667 13.980,0.667 C14.105,0.667 14.557,0.913 14.645,1.000 C14.645,1.000 18.639,5.000 18.639,5.000 C18.728,5.087 18.667,5.210 18.667,5.333 C18.667,5.333 18.667,16.333 18.667,16.333 zM14.645,2.333 C14.645,2.333 14.645,3.645 14.645,4.301 C14.645,4.455 14.846,4.667 14.978,4.667 C15.546,4.667 16.642,4.667 16.642,4.667 L14.645,2.333 zM17.667,5.666 C17.667,5.666 14.313,5.666 14.313,5.666 C13.990,5.666 13.647,5.318 13.647,5.000 C13.647,5.000 13.647,1.667 13.647,1.667 C13.647,1.667 6.188,1.667 3.000,1.667 C2.012,1.667 1.333,2.329 1.333,3.333 C1.333,5.366 1.333,9.069 1.333,12.700 C1.386,12.681 1.441,12.667 1.500,12.667 C1.500,12.667 17.500,12.667 17.500,12.667 C17.559,12.667 17.614,12.681 17.667,12.700 C17.667,12.700 17.667,5.666 17.667,5.666 zM14.167,10.667 C13.891,10.667 13.667,10.443 13.667,10.167 C13.667,10.167 13.667,9.833 13.667,9.833 C13.667,9.557 13.891,9.333 14.167,9.333 C14.443,9.333 14.667,9.557 14.667,9.833 C14.667,9.833 14.667,10.167 14.667,10.167 C14.667,10.443 14.443,10.667 14.167,10.667 zM12.167,10.667 C11.891,10.667 11.667,10.443 11.667,10.167 C11.667,10.167 11.667,8.833 11.667,8.833 C11.667,8.557 11.891,8.333 12.167,8.333 C12.443,8.333 12.667,8.557 12.667,8.833 C12.667,8.833 12.667,10.167 12.667,10.167 C12.667,10.443 12.443,10.667 12.167,10.667 zM10.500,10.667 C10.224,10.667 10.000,10.443 10.000,10.167 C10.000,10.167 10.000,7.833 10.000,7.833 C10.000,7.557 10.224,7.333 10.500,7.333 C10.776,7.333 11.000,7.557 11.000,7.833 C11.000,7.833 11.000,10.167 11.000,10.167 C11.000,10.443 10.776,10.667 10.500,10.667 zM8.500,10.667 C8.224,10.667 8.000,10.443 8.000,10.167 C8.000,10.167 8.000,5.167 8.000,5.167 C8.000,4.891 8.224,4.667 8.500,4.667 C8.776,4.667 9.000,4.891 9.000,5.167 C9.000,5.167 9.000,10.167 9.000,10.167 C9.000,10.443 8.776,10.667 8.500,10.667 zM6.500,10.667 C6.224,10.667 6.000,10.443 6.000,10.167 C6.000,10.167 6.000,6.500 6.000,6.500 C6.000,6.224 6.224,6.000 6.500,6.000 C6.776,6.000 7.000,6.224 7.000,6.500 C7.000,6.500 7.000,10.167 7.000,10.167 C7.000,10.443 6.776,10.667 6.500,10.667 zM4.500,10.667 C4.224,10.667 4.000,10.443 4.000,10.167 C4.000,10.167 4.000,8.500 4.000,8.500 C4.000,8.224 4.224,8.000 4.500,8.000 C4.776,8.000 5.000,8.224 5.000,8.500 C5.000,8.500 5.000,10.167 5.000,10.167 C5.000,10.443 4.776,10.667 4.500,10.667 z" fill="#208BCE" /></g></svg>