<svg xmlns="http://www.w3.org/2000/svg" width="138" height="71" viewBox="0 0 138 71"><path d="M87 64.5h-1.5l6-6H93l-6 6zm-7.5 0l6-6H87l-6 6h-1.5zm-6 0l6-6H81l-6 6h-1.5zm-6 0l6-6H75l-6 6h-1.5zm-6 0l6-6H69l-6 6h-1.5zm-6 0l6-6H63l-6 6h-1.5zm-6 0l6-6H57l-6 6h-1.5zm-6 0l6-6H51l-6 6h-1.5z" fill="#2E8DD6"/><path d="M26 64.5h-1.5l6-6H32l-6 6zm-7.5 0l6-6H26l-6 6h-1.5zm-6 0l6-6H20l-6 6h-1.5zm-6 0l6-6H14l-6 6H6.5zm-6 0l6-6H8l-6 6H.5zM132 64.5h-1.5l6-6h1.5l-6 6zm-7.5 0l6-6h1.5l-6 6h-1.5zm-6 0l6-6h1.5l-6 6h-1.5zm-6 0l6-6h1.5l-6 6h-1.5zm-6 0l6-6h1.5l-6 6h-1.5z" fill="#CCC"/><path d="M46.533 28.265c2.462 9.277-4.777 13.1-6.033 22.996-.102.804-1.12 1.075-1.607.431-5.4-7.155-12.569-7.578-15.729-14.398-3.111-6.714-.076-14.937 6.851-17.533 7.046-2.64 14.632 1.398 16.518 8.504zM122.432 22.956c-1.764 14.487-14.106 15.689-21.451 28.898-.597 1.074-2.182.868-2.503-.321-3.568-13.197-13.417-17.935-14.02-29.366-.593-11.253 8.311-21.08 19.523-20.733 11.403.353 19.802 10.424 18.451 21.522z" fill="none" stroke="#2E8DD6" stroke-width="2"/><path d="M98.5 54.5a7 7 0 1 1 0 14 7 7 0 0 1 0-14z" fill="#FFF"/><path d="M98.5 54.943a6.557 6.557 0 1 1 0 13.115 6.557 6.557 0 0 1 0-13.115z" fill="none" stroke="#2E8DD6"/><path d="M98.5 59a2.5 2.5 0 1 1 0 5 2.5 2.5 0 0 1 0-5z" fill="#2E8DD6"/><path d="M39.5 54.5a7 7 0 1 1 0 14 7 7 0 0 1 0-14z" fill="#FFF"/><path d="M39.5 54.943a6.557 6.557 0 1 1 0 13.115 6.557 6.557 0 0 1 0-13.115z" fill="none" stroke="#2E8DD6"/><path d="M39.5 59a2.5 2.5 0 1 1 0 5 2.5 2.5 0 0 1 0-5zM41.148 35.716c-.567.861-1.434 1.291-2.6 1.291-1.13 0-1.986-.444-2.569-1.333-.584-.889-.875-2.192-.875-3.91 0-1.801.283-3.128.85-3.983.567-.854 1.432-1.281 2.594-1.281 1.134 0 1.992.447 2.576 1.341.583.893.875 2.201.875 3.923 0 1.773-.284 3.091-.851 3.952zm-1.229-6.922c-.289-.612-.746-.918-1.371-.918s-1.08.3-1.365.9c-.284.601-.427 1.597-.427 2.988 0 1.392.143 2.385.427 2.981.285.596.74.894 1.365.894s1.082-.303 1.371-.908c.289-.605.434-1.594.434-2.967 0-1.368-.145-2.358-.434-2.97zM27 35.625l2.618-2.646c.773-.796 1.286-1.36 1.538-1.693.252-.333.436-.646.552-.939.116-.293.174-.607.174-.943 0-.46-.138-.823-.413-1.089-.276-.265-.657-.398-1.143-.398-.388 0-.765.073-1.128.217-.363.144-.783.405-1.26.782l-.882-1.082c.565-.48 1.113-.82 1.646-1.02.532-.2 1.099-.3 1.701-.3.944 0 1.701.248 2.27.744.57.495.854 1.162.854 2 0 .461-.082.898-.246 1.313a5.346 5.346 0 0 1-.757 1.281c-.34.44-.906 1.034-1.698 1.783l-1.763 1.718v.069h4.819v1.446H27v-1.243zM114.169 24.216c-.556.861-1.407 1.291-2.552 1.291-1.109 0-1.95-.444-2.522-1.333-.573-.889-.859-2.192-.859-3.91 0-1.801.278-3.129.835-3.983.557-.854 1.405-1.281 2.546-1.281 1.113 0 1.956.447 2.529 1.341.572.893.859 2.201.859 3.923 0 1.774-.279 3.091-.836 3.952zm-1.206-6.922c-.284-.612-.733-.918-1.346-.918-.614 0-1.06.3-1.339.9-.28.601-.42 1.597-.42 2.988 0 1.392.14 2.386.42 2.981.279.596.725.894 1.339.894.613 0 1.062-.303 1.346-.908.284-.605.426-1.594.426-2.967 0-1.368-.142-2.358-.426-2.97zm-9.314 8.213c-1.109 0-1.95-.444-2.522-1.333-.573-.889-.859-2.192-.859-3.91 0-1.801.278-3.129.835-3.983.556-.854 1.405-1.281 2.546-1.281 1.113 0 1.956.447 2.529 1.341.572.893.858 2.201.858 3.923 0 1.774-.278 3.091-.835 3.952-.556.861-1.407 1.291-2.552 1.291zm1.346-8.213c-.284-.612-.733-.918-1.346-.918-.614 0-1.06.3-1.34.9-.279.601-.419 1.597-.419 2.988 0 1.392.14 2.386.419 2.981.28.596.726.894 1.34.894.613 0 1.062-.303 1.346-.908.284-.605.426-1.594.426-2.967 0-1.368-.142-2.358-.426-2.97zm-9.301 1.7c1.004 0 1.8.272 2.386.817.586.544.879 1.286.879 2.227 0 1.088-.333 1.939-.998 2.551-.666.612-1.612.918-2.839.918-1.114 0-1.988-.184-2.624-.551v-1.487c.368.214.79.379 1.267.495.477.117.921.175 1.329.175.723 0 1.273-.165 1.65-.496.377-.33.566-.814.566-1.452 0-1.219-.759-1.829-2.277-1.829a5.86 5.86 0 0 0-.791.066 9.434 9.434 0 0 0-.824.151l-.716-.434.382-4.984h5.18v1.459h-3.769l-.225 2.527c.159-.028.353-.06.583-.098a5.4 5.4 0 0 1 .841-.055z" fill="#2E8DD6"/></svg>