<svg version="1.1" xmlns="http://www.w3.org/2000/svg" xmlns:xlink="http://www.w3.org/1999/xlink" width="20" height="30" viewBox="0 0 20 30"><path id="-Block2_icon5" d="M19.508,8.812 C19.236,8.812 19.016,8.594 19.016,8.324 C19.016,4.273 15.705,0.979 11.635,0.979 C11.363,0.979 11.143,0.760 11.143,0.490 C11.143,0.219 11.363,-0.000 11.635,-0.000 C16.247,-0.000 20.000,3.734 20.000,8.324 C20.000,8.594 19.780,8.812 19.508,8.812 zM14.000,8.000 C14.000,8.000 14.000,27.334 14.000,27.334 C14.000,28.683 12.992,29.668 11.635,29.668 C11.635,29.668 2.460,29.668 2.460,29.668 C1.104,29.668 -0.000,28.683 -0.000,27.334 C-0.000,27.334 -0.000,8.000 -0.000,8.000 C-0.000,6.650 0.977,5.667 2.333,5.667 C2.333,5.667 11.667,5.667 11.667,5.667 C13.023,5.667 14.000,6.650 14.000,8.000 zM1.000,27.334 C1.000,28.143 1.646,28.688 2.460,28.688 C2.460,28.688 11.635,28.688 11.635,28.688 C12.449,28.688 13.000,28.143 13.000,27.334 C13.000,27.334 13.000,26.667 13.000,26.667 L1.000,26.667 C1.000,26.667 1.000,27.334 1.000,27.334 zM1.000,25.666 L13.000,25.666 L13.000,10.000 L1.000,10.000 L1.000,25.666 zM1.000,8.000 C1.000,8.000 1.000,8.999 1.000,8.999 L13.000,8.999 C13.000,8.999 13.000,8.000 13.000,8.000 C13.000,7.190 12.481,6.667 11.667,6.667 C11.667,6.667 2.333,6.667 2.333,6.667 C1.519,6.667 1.000,7.190 1.000,8.000 zM8.699,8.324 C8.699,8.324 6.730,8.324 6.730,8.324 C6.458,8.324 6.238,8.103 6.238,7.833 C6.238,7.563 6.458,7.344 6.730,7.344 C6.730,7.344 8.699,7.344 8.699,7.344 C8.970,7.344 9.190,7.563 9.190,7.833 C9.190,8.103 8.970,8.324 8.699,8.324 zM5.254,8.324 C5.124,8.324 4.997,8.271 4.906,8.180 C4.814,8.088 4.762,7.963 4.762,7.833 C4.762,7.704 4.814,7.578 4.906,7.487 C4.997,7.396 5.124,7.344 5.254,7.344 C5.384,7.344 5.510,7.396 5.602,7.487 C5.694,7.578 5.746,7.704 5.746,7.833 C5.746,7.962 5.694,8.088 5.602,8.180 C5.510,8.271 5.384,8.324 5.254,8.324 zM10.000,22.333 C10.000,22.333 4.000,22.333 4.000,22.333 C3.502,22.333 3.000,21.828 3.000,21.334 C3.000,21.334 3.000,20.334 3.000,20.334 C3.000,19.435 3.969,18.443 5.075,18.443 C5.075,18.443 5.493,18.443 5.493,18.443 C5.663,18.443 5.822,18.532 5.912,18.676 C6.199,19.141 6.613,19.406 7.048,19.406 C7.482,19.406 7.897,19.141 8.183,18.676 C8.273,18.532 8.432,18.443 8.603,18.443 C8.603,18.443 9.020,18.443 9.020,18.443 C9.557,18.443 10.065,18.680 10.450,19.110 C10.785,19.483 10.984,19.960 10.984,20.386 C10.984,20.386 10.984,21.448 10.984,21.448 C10.984,21.942 10.496,22.333 10.000,22.333 zM10.000,20.386 C10.000,20.055 9.618,19.423 9.020,19.423 C9.020,19.423 8.862,19.423 8.862,19.423 C8.397,20.038 7.748,20.386 7.048,20.386 C6.347,20.386 5.699,20.038 5.233,19.423 C5.233,19.423 5.075,19.423 5.075,19.423 C4.477,19.423 4.000,20.003 4.000,20.334 C4.000,20.334 4.000,21.334 4.000,21.334 L10.000,21.334 C10.000,21.334 10.000,20.386 10.000,20.386 zM7.048,18.427 C5.691,18.427 4.587,17.329 4.587,15.980 C4.587,15.980 4.587,15.490 4.587,15.490 C4.587,14.140 5.691,13.042 7.048,13.042 C8.404,13.042 9.508,14.140 9.508,15.490 C9.508,15.490 9.508,15.980 9.508,15.980 C9.508,17.329 8.404,18.427 7.048,18.427 zM8.524,15.490 C8.524,14.680 7.862,14.021 7.048,14.021 C6.234,14.021 5.572,14.680 5.572,15.490 C5.572,15.490 5.572,15.980 5.572,15.980 C5.572,16.790 6.234,17.448 7.048,17.448 C7.862,17.448 8.524,16.790 8.524,15.980 C8.524,15.980 8.524,15.490 8.524,15.490 zM7.333,28.333 C7.333,28.333 6.667,28.333 6.667,28.333 C6.395,28.333 6.079,27.979 6.079,27.709 C6.079,27.438 6.395,27.334 6.667,27.334 C6.667,27.334 7.333,27.334 7.333,27.334 C7.605,27.334 8.016,27.438 8.016,27.709 C8.016,27.979 7.605,28.333 7.333,28.333 zM11.143,4.406 C11.143,4.136 11.363,3.917 11.635,3.917 C14.077,3.917 16.064,5.893 16.064,8.324 C16.064,8.594 15.843,8.812 15.571,8.812 C15.299,8.812 15.079,8.594 15.079,8.324 C15.079,6.433 13.534,4.896 11.635,4.896 C11.363,4.896 11.143,4.676 11.143,4.406 zM11.143,2.448 C11.143,2.178 11.363,1.958 11.635,1.958 C15.162,1.958 18.032,4.814 18.032,8.324 C18.032,8.594 17.811,8.812 17.540,8.812 C17.268,8.812 17.047,8.594 17.047,8.324 C17.047,5.354 14.620,2.937 11.635,2.937 C11.363,2.937 11.143,2.719 11.143,2.448 z" fill="#2E8DD6" /></svg>