<svg xmlns="http://www.w3.org/2000/svg" width="36" height="24" viewBox="0 0 36 24"><defs><style>.cls-1{fill:#208bce;fill-rule:evenodd}</style></defs><path id="SVG:_Block2_icon2" data-name="SVG: Block2_icon2" class="cls-1" d="M637.437 2180.96v5.22a.68.68 0 0 1-.757.71.711.711 0 0 1-.758-.75v-3.37l-17.533 17.11a.834.834 0 0 1-1.171 0l-4.559-4.47a.853.853 0 0 0-1.171 0l-8.638 8.47a.834.834 0 0 1-1.171 0 .8.8 0 0 1 0-1.15l9.809-9.61a.834.834 0 0 1 1.171 0l4.559 4.47a.834.834 0 0 0 1.171 0l16.4-15.95h-3.411a.709.709 0 0 1-.758-.74.711.711 0 0 1 .758-.75h5.235a.817.817 0 0 1 .824.81zm-25.537 17.22l-4.67 4.58a.792.792 0 0 0 0 1.14.834.834 0 0 0 1.171 0l4.67-4.57a.8.8 0 0 0 0-1.15.833.833 0 0 0-1.171 0zm21.527-9.46l-14.327 14.04a.792.792 0 0 0 0 1.14.834.834 0 0 0 1.171 0l14.321-14.03a.8.8 0 0 0 0-1.15.833.833 0 0 0-1.166 0zm-8.216 15.18a.834.834 0 0 0 1.171 0l10.23-10.02a.8.8 0 0 0 0-1.15.834.834 0 0 0-1.171 0l-10.23 10.03a.792.792 0 0 0-.001 1.14zm6.1 0a.834.834 0 0 0 1.171 0l3.95-3.87a.792.792 0 0 0 0-1.14.834.834 0 0 0-1.171 0l-3.95 3.87a.792.792 0 0 0 .003 1.14zm-18.049-.02a.834.834 0 0 0 1.171 0l1.411-1.38a.8.8 0 0 0 0-1.15.834.834 0 0 0-1.171 0l-1.411 1.38a.8.8 0 0 0 .003 1.15zm-.585-.57" transform="translate(-601.438 -2180.16)"/></svg>