<svg xmlns="http://www.w3.org/2000/svg" width="153" height="50" viewBox="0 0 153 50"><path d="M30.497 36.669l5.764-5.83a.784.784 0 0 1 1.12 0l2.387 2.415a.806.806 0 0 1 0 1.131l-5.764 5.83a.78.78 0 0 1-1.119 0l-.387-.39-1.479 1.495a3.281 3.281 0 0 1-2.35.985h-.015l-3.509-.07v2.749h3.429c1.833 0 3.324 1.507 3.324 3.361v.854a.796.796 0 0 1-.792.801H10.847a.796.796 0 0 1-.791-.801v-.854c0-1.854 1.492-3.361 3.325-3.361h3.428v-4.112a15.695 15.695 0 0 1-8.023-5.383 15.654 15.654 0 0 1-3.375-9.77c0-2.307.498-4.543 1.478-6.653a5.137 5.137 0 0 1-.212-1.459c0-1.049.316-2.024.858-2.834a.88.88 0 0 1-.08-.069l-.278-.281a2.532 2.532 0 0 1-.033-3.511L3.872 7.604a2.453 2.453 0 0 1-.919.179 2.425 2.425 0 0 1-1.734-.726A2.474 2.474 0 0 1 .5 5.303c0-.662.255-1.285.718-1.754l2.297-2.323A2.424 2.424 0 0 1 5.25.5c.655 0 1.271.258 1.734.726a2.48 2.48 0 0 1 .718 1.755c0 .323-.061.638-.178.93l3.27 3.306a2.455 2.455 0 0 1 1.718-.699c.662 0 1.285.26 1.754.734l9.795 9.86.009.01a.1.1 0 0 1 .01.011.292.292 0 0 1 .041.045l.011.014c.013.015.024.032.036.049l.011.017.028.049c.006.009.01.019.014.028a.428.428 0 0 1 .02.043c.006.013.01.027.015.04l.011.03 1.154 3.71 1.654 1.673a1.668 1.668 0 0 1 0 2.339l-2.183 2.208a1.62 1.62 0 0 1-1.157.483c-.418 0-.837-.16-1.156-.483l-1.658-1.675-3.633-1.209-.018-.007c-.015-.006-.031-.011-.046-.018l-.029-.015a.233.233 0 0 1-.039-.019c-.011-.006-.023-.012-.033-.02a.32.32 0 0 1-.031-.019l-.037-.027c-.008-.007-.017-.012-.024-.021l-.038-.033c-.004-.004-.009-.007-.013-.013l-2.494-2.491a4.948 4.948 0 0 1-1.868.777 9.018 9.018 0 0 0-.56 3.131c0 3.884 2.515 7.358 6.155 8.562a4.124 4.124 0 0 1 4.062-.854l11.65-11.783a.788.788 0 0 1 1.119 0l2.387 2.415a.808.808 0 0 1 0 1.133L25.145 37.619v3.015l3.531.068a1.716 1.716 0 0 0 1.224-.514l1.478-1.496-.881-.891a.805.805 0 0 1 0-1.132zM5.865 2.359a.866.866 0 0 0-1.231-.002L2.338 4.682a.872.872 0 0 0-.255.621c0 .236.09.456.255.623a.864.864 0 0 0 1.23 0l2.297-2.323a.88.88 0 0 0 .255-.622.88.88 0 0 0-.255-.622zm.678 2.823L5.129 6.611l3.132 3.168 1.413-1.43-3.131-3.167zm17.155 21.064c.021.021.054.02.075 0l2.183-2.208a.053.053 0 0 0 0-.074l-1.231-1.246L22.467 25l1.231 1.246zm-2.565-2.16l2.693-2.723-.676-2.175-4.144 4.191 2.127.707zm-3.6-1.481l4.859-4.916-9.244-9.303a.892.892 0 0 0-1.27-.002l-3.582 3.624a.914.914 0 0 0 0 1.282l.278.281.035.041a4.947 4.947 0 0 1 3.08-1.075c2.764 0 5.013 2.274 5.013 5.07 0 1.17-.396 2.25-1.059 3.109l1.89 1.889zm-2.414-4.998c0-1.913-1.539-3.47-3.43-3.47-1.891 0-3.43 1.557-3.43 3.47 0 1.913 1.539 3.468 3.43 3.468 1.891 0 3.43-1.555 3.43-3.468zm-4.644 8.112c0-1.059.157-2.098.461-3.1a4.996 4.996 0 0 1-3.08-1.751 13.993 13.993 0 0 0-.863 4.851c0 3.218 1.048 6.252 3.032 8.771a14.099 14.099 0 0 0 6.784 4.71v-1.767c0-.648.145-1.263.405-1.813-4.01-1.562-6.739-5.509-6.739-9.901zm13.087 11.714c0-1.442-1.16-2.615-2.585-2.615-1.426 0-2.585 1.173-2.585 2.615v7.551h5.17v-7.551zm12.19-12.807l-1.268-1.283-10.782 10.904c.46.402.831.905 1.082 1.473l10.968-11.094zM13.38 46.584c-.96 0-1.741.79-1.741 1.761v.054h18.675v-.054c0-.971-.781-1.761-1.741-1.761H13.38zm20.064-8.067l4.645-4.698-1.268-1.283-4.645 4.699 1.268 1.282zm-12.468-1.219a.792.792 0 0 1 .792.801.817.817 0 0 1-.231.567.798.798 0 0 1-.561.233.794.794 0 0 1-.791-.8c0-.211.085-.417.232-.566a.79.79 0 0 1 .559-.235zM10.899 17.607c0-.443.354-.801.791-.801h.001c.437 0 .792.358.792.801 0 .441-.355.8-.792.8a.797.797 0 0 1-.792-.8z" fill="#2E8DD6"/><path d="M38.5 38.5L48 48l83-27" fill="none" stroke="#B8B8B8" stroke-width="1.5" stroke-linecap="round" stroke-dasharray="0.5,3"/><path d="M132 19h2c.392 3.527 3.473 6.608 7 7v2c0 .467.532 1.007 1 1.007.468 0 1-.54 1-1.007v-2c3.527-.392 6.608-3.473 7-7h2c.467 0 1.008-.532 1.008-1 0-.468-.541-1-1.008-1h-2c-.392-3.527-3.473-6.608-7-7V8c0-.468-.532-1.007-1-1.007-.468 0-1 .539-1 1.007v2c-3.527.392-6.608 3.473-7 7h-2c-.468 0-1.008.532-1.008 1 0 .468.379.846.847.846L132 19zm4 0h5v5c-2.592-.373-4.494-2.561-4.866-5.154L136 19zm7 5v-5h5c-.373 2.593-2.562 4.493-5.154 4.866L143 24zm5-7h-5v-5c2.592.373 4.493 2.561 4.866 5.153L148 17zm-7-5v5h-5c.373-2.592 2.561-4.493 5.153-4.866L141 12z" fill="#2E8DD6"/></svg>