<svg xmlns="http://www.w3.org/2000/svg" width="27" height="35" viewBox="0 0 27 35"><path d="M23.145 14.259V9.721c0-5.369-4.328-9.72-9.642-9.72-5.325 0-9.642 4.351-9.642 9.72v4.538C1.73 14.265.005 15.995.005 18.16v12.937c0 2.155 1.729 3.901 3.868 3.901h19.26c2.136 0 3.868-1.732 3.868-3.901V18.16c0-2.151-1.724-3.895-3.856-3.901zM5.147 9.714c0-4.647 3.741-8.418 8.356-8.418 4.605 0 8.356 3.769 8.356 8.418v4.545h-1.285V9.734c0-3.944-3.174-7.141-7.071-7.141-3.905 0-7.071 3.19-7.071 7.141v4.525H5.147V9.714zm14.141.009v4.536H7.718V9.723c0-3.23 2.59-5.834 5.785-5.834 3.188 0 5.785 2.612 5.785 5.834zm6.428 9.721v2.592h-11.57v1.296h11.57v2.593h-11.57v1.296h11.57v2.592h-11.57v1.296h11.57c-.004 1.434-1.153 2.593-2.568 2.593H3.858c-1.422 0-2.568-1.165-2.568-2.6V18.155c0-1.437 1.15-2.6 2.568-2.6h19.29c1.42 0 2.564 1.16 2.568 2.592h-11.57v1.297h11.57z" fill="#208BCE"/></svg>