<svg xmlns="http://www.w3.org/2000/svg" width="44" height="44" viewBox="0 0 44 44"><path d="M.408 43.12V.559h42.877V43.12H.408zM41.045 2.799H2.648v38.08h38.397V2.799zM28.284 11.02c1.471.468 2.749 1.177 3.833 2.124 1.084.95 1.936 2.147 2.556 3.592.62 1.446.93 3.147.93 5.103s-.31 3.657-.93 5.102c-.62 1.446-1.472 2.644-2.556 3.592-1.084.949-2.362 1.657-3.833 2.124-1.472.469-3.134.862-4.837.862H8.088v-1.92c.712 0 3.183-.339 3.183-.864v-6.183l7.056.007v5.121h2.56c1.456 0 2.446-.204 3.531-.439 1.084-.233 1.631-.65 2.344-1.248.712-.598 1.246-1.394 1.603-2.387.356-.993.534-2.248.534-3.767 0-1.518-.178-2.774-.534-3.767-.357-.992-.891-1.788-1.603-2.387-.713-.598-1.26-1.015-2.344-1.248-1.085-.234-2.075-.437-3.531-.437h-2.56v4.479h-7.04l-.016-5.536c0-.526-2.471-.864-3.183-.864v-1.92h15.359c1.703 0 3.365.395 4.837.861z" fill="#338BC3"/></svg>