<svg version="1.1" xmlns="http://www.w3.org/2000/svg" xmlns:xlink="http://www.w3.org/1999/xlink" width="44" height="44" viewBox="0 0 44 44"><path id="-Block7_icon14_L" d="M0.408,43.120 L0.408,0.559 L43.285,0.559 L43.285,43.120 L0.408,43.120 zM41.045,2.799 L2.648,2.799 L2.648,40.879 L41.045,40.879 L41.045,2.799 zM28.284,11.020 C29.755,11.488 31.033,12.197 32.117,13.144 C33.201,14.094 34.053,15.291 34.673,16.736 C35.293,18.182 35.603,19.883 35.603,21.839 C35.603,23.795 35.293,25.496 34.673,26.941 C34.053,28.387 33.201,29.585 32.117,30.533 C31.033,31.482 29.755,32.190 28.284,32.657 C26.812,33.126 25.150,33.519 23.447,33.519 C23.447,33.519 8.088,33.519 8.088,33.519 C8.088,33.519 8.088,31.599 8.088,31.599 C8.800,31.599 11.271,31.260 11.271,30.735 C11.271,30.735 11.271,24.552 11.271,24.552 L18.327,24.559 L18.327,29.680 C18.327,29.680 20.887,29.680 20.887,29.680 C22.343,29.680 23.333,29.476 24.418,29.241 C25.502,29.008 26.049,28.591 26.762,27.993 C27.474,27.395 28.008,26.599 28.365,25.606 C28.721,24.613 28.899,23.358 28.899,21.839 C28.899,20.321 28.721,19.065 28.365,18.072 C28.008,17.080 27.474,16.284 26.762,15.685 C26.049,15.087 25.502,14.670 24.418,14.437 C23.333,14.203 22.343,14.000 20.887,14.000 C20.887,14.000 18.327,14.000 18.327,14.000 L18.327,18.479 L11.287,18.479 C11.287,18.479 11.271,12.943 11.271,12.943 C11.271,12.417 8.800,12.079 8.088,12.079 C8.088,12.079 8.088,10.159 8.088,10.159 C8.088,10.159 23.447,10.159 23.447,10.159 C25.150,10.159 26.812,10.554 28.284,11.020 z" fill="#338BC3" /></svg>