<svg version="1.1" xmlns="http://www.w3.org/2000/svg" xmlns:xlink="http://www.w3.org/1999/xlink" width="48" height="45" viewBox="0 0 48 45"><path id="-Block6_icon1" d="M48.014,16.719 C48.014,19.358 46.004,21.536 43.433,21.808 C43.433,21.808 43.433,30.612 43.433,30.612 C43.433,31.604 42.747,32.671 41.837,33.095 C41.569,33.220 41.298,33.282 41.036,33.282 C40.653,33.282 40.289,33.151 39.980,32.891 C33.413,27.381 26.726,25.985 20.282,25.657 C20.282,25.657 24.180,39.817 24.180,39.817 C24.476,40.894 24.333,42.022 23.777,42.991 C23.221,43.961 22.320,44.653 21.240,44.943 C20.879,45.039 20.513,45.087 20.151,45.087 C19.408,45.087 18.677,44.887 18.021,44.497 C17.045,43.913 16.363,42.984 16.102,41.879 C16.102,41.879 12.159,25.562 12.159,25.562 C12.159,25.562 8.927,25.562 8.927,25.562 C4.045,25.562 0.074,21.595 0.074,16.719 C0.074,11.844 4.045,7.877 8.927,7.877 C8.927,7.877 15.925,7.877 15.925,7.877 C22.515,7.877 27.755,7.363 40.065,0.489 C40.701,0.135 41.447,0.155 42.114,0.546 C42.915,1.015 43.433,1.910 43.433,2.827 C43.433,2.827 43.433,11.631 43.433,11.631 C46.004,11.904 48.014,14.081 48.014,16.719 zM17.160,41.626 C17.354,42.446 17.858,43.132 18.579,43.563 C19.301,43.993 20.145,44.110 20.958,43.893 C21.756,43.679 22.422,43.167 22.833,42.451 C23.244,41.734 23.350,40.901 23.131,40.105 C23.131,40.105 19.140,25.609 19.140,25.609 C18.061,25.574 16.988,25.562 15.925,25.562 C15.925,25.562 13.278,25.562 13.278,25.562 C13.278,25.562 17.160,41.626 17.160,41.626 zM7.240,9.154 C3.768,9.926 1.162,13.022 1.162,16.719 C1.162,20.417 3.768,23.514 7.240,24.286 C7.240,24.286 7.240,9.154 7.240,9.154 zM10.152,8.964 C10.152,8.964 8.927,8.964 8.927,8.964 C8.725,8.964 8.527,8.979 8.328,8.994 C8.328,8.994 8.328,24.445 8.328,24.445 C8.527,24.460 8.725,24.475 8.927,24.475 C8.927,24.475 10.152,24.475 10.152,24.475 L10.152,8.964 zM42.345,16.719 C42.345,16.719 42.345,2.827 42.345,2.827 C42.345,2.297 42.031,1.757 41.563,1.483 C41.330,1.346 40.973,1.228 40.596,1.438 C28.056,8.440 22.686,8.964 15.925,8.964 C15.925,8.964 11.240,8.964 11.240,8.964 L11.240,24.475 C11.240,24.475 15.925,24.475 15.925,24.475 C21.803,24.475 31.640,24.475 40.680,32.059 C40.751,32.119 40.968,32.300 41.377,32.111 C41.911,31.862 42.345,31.189 42.345,30.612 C42.345,30.612 42.345,16.719 42.345,16.719 zM43.433,12.729 C43.433,12.729 43.433,16.719 43.433,16.719 C43.433,16.719 43.433,20.710 43.433,20.710 C45.402,20.444 46.926,18.758 46.926,16.719 C46.926,14.681 45.402,12.996 43.433,12.729 z" fill="#338BC3" /></svg>