<svg xmlns="http://www.w3.org/2000/svg" width="48" height="45" viewBox="0 0 48 45"><path d="M48.014 16.719a5.127 5.127 0 0 1-4.581 5.089v8.804c0 .992-.686 2.059-1.596 2.483a1.894 1.894 0 0 1-.801.187c-.383 0-.747-.131-1.056-.391-6.567-5.51-13.254-6.906-19.698-7.234l3.898 14.16a4.134 4.134 0 0 1-.403 3.174 4.14 4.14 0 0 1-2.537 1.952 4.155 4.155 0 0 1-3.219-.446 4.136 4.136 0 0 1-1.919-2.618l-3.943-16.317H8.927c-4.882 0-8.853-3.967-8.853-8.843 0-4.875 3.971-8.842 8.853-8.842h6.998c6.59 0 11.83-.514 24.14-7.388.636-.354 1.382-.334 2.049.057a2.694 2.694 0 0 1 1.319 2.281v8.804c2.571.273 4.581 2.45 4.581 5.088zM17.16 41.626c.194.82.698 1.506 1.419 1.937.722.43 1.566.547 2.379.33a3.061 3.061 0 0 0 1.875-1.442c.411-.717.517-1.55.298-2.346L19.14 25.609a99.14 99.14 0 0 0-3.215-.047h-2.647l3.882 16.064zM7.24 9.154c-3.472.772-6.078 3.868-6.078 7.565 0 3.698 2.606 6.795 6.078 7.567V9.154zm2.912-.19H8.927c-.202 0-.4.015-.599.03v15.451c.199.015.397.03.599.03h1.225V8.964zm32.193 7.755V2.827c0-.53-.314-1.07-.782-1.344-.233-.137-.59-.255-.967-.045-12.54 7.002-17.91 7.526-24.671 7.526H11.24v15.511h4.685c5.878 0 15.715 0 24.755 7.584.071.06.288.241.697.052.534-.249.968-.922.968-1.499V16.719zm1.088-3.99v7.981a4.036 4.036 0 0 0 3.493-3.991 4.036 4.036 0 0 0-3.493-3.99z" fill="#338BC3"/></svg>