<svg xmlns="http://www.w3.org/2000/svg" width="46" height="43" viewBox="0 0 46 43"><path d="M29.665 29.446l3.842-3.887a.523.523 0 0 1 .747 0l1.591 1.61a.54.54 0 0 1 .001.755l-3.843 3.886a.52.52 0 0 1-.747 0l-.257-.26-.986.997a2.192 2.192 0 0 1-1.567.657h-.01l-2.339-.047v1.832h2.286c1.221 0 2.216 1.006 2.216 2.242v.569a.53.53 0 0 1-.528.533H16.565a.53.53 0 0 1-.528-.533v-.569c0-1.236.995-2.242 2.217-2.242h2.285v-2.741a10.456 10.456 0 0 1-5.348-3.589 10.434 10.434 0 0 1-2.251-6.513c0-1.538.333-3.029.986-4.435a3.432 3.432 0 0 1-.141-.973c0-.699.211-1.349.572-1.889a.47.47 0 0 1-.054-.046l-.185-.187a1.688 1.688 0 0 1-.022-2.341l-2.181-2.206a1.628 1.628 0 0 1-1.769-.364 1.652 1.652 0 0 1-.479-1.169c0-.442.17-.857.479-1.17l1.531-1.548a1.616 1.616 0 0 1 1.156-.484c.437 0 .848.172 1.156.484.309.312.479.728.479 1.169 0 .216-.041.426-.119.62l2.181 2.205a1.63 1.63 0 0 1 1.145-.466c.441 0 .857.173 1.169.489l6.53 6.574.006.006a.385.385 0 0 1 .034.037l.007.01c.009.01.017.021.024.032l.008.012.019.033.009.018.013.028.01.027.007.02.77 2.474 1.102 1.115a1.11 1.11 0 0 1 0 1.559l-1.455 1.473a1.079 1.079 0 0 1-.771.321c-.279 0-.559-.106-.771-.321l-1.105-1.118-2.422-.805a.061.061 0 0 1-.012-.005l-.031-.012-.019-.01a.09.09 0 0 1-.026-.013.267.267 0 0 1-.023-.013l-.02-.013-.025-.018c-.005-.005-.011-.008-.016-.014l-.025-.021-.009-.009-1.662-1.661a3.3 3.3 0 0 1-1.246.518 6.025 6.025 0 0 0-.373 2.087c0 2.589 1.677 4.906 4.103 5.709a2.751 2.751 0 0 1 2.708-.57l7.767-7.855a.524.524 0 0 1 .746 0l1.592 1.61a.538.538 0 0 1 0 .755l-8.191 8.284v2.011l2.354.045c.308-.001.597-.122.815-.343l.986-.997-.587-.594a.537.537 0 0 1 0-.755zM13.243 6.573a.572.572 0 0 0-.82-.001l-1.531 1.55a.58.58 0 0 0-.17.414c0 .157.06.304.17.415a.577.577 0 0 0 .82 0l1.531-1.549a.585.585 0 0 0 .17-.415.584.584 0 0 0-.17-.414zm.452 1.882l-.942.953 2.088 2.112.942-.954-2.088-2.111zm11.437 14.043a.036.036 0 0 0 .05 0l1.455-1.472a.035.035 0 0 0 0-.05l-.82-.831-1.505 1.522.82.831zm-1.71-1.44l1.795-1.816-.451-1.45-2.762 2.795 1.418.471zm-3.66-2.247l1.26 1.259 3.239-3.277-6.163-6.202a.592.592 0 0 0-.846-.001l-2.388 2.415a.61.61 0 0 0 0 .855l.185.188.024.027a3.294 3.294 0 0 1 2.053-.716c1.843 0 3.342 1.515 3.342 3.379 0 .781-.264 1.5-.706 2.073zm-.35-2.073c0-1.275-1.025-2.313-2.286-2.313-1.261 0-2.286 1.038-2.286 2.313 0 1.276 1.025 2.312 2.286 2.312 1.261 0 2.286-1.036 2.286-2.312zm-3.095 5.408c0-.706.104-1.398.307-2.066a3.334 3.334 0 0 1-2.053-1.168 9.33 9.33 0 0 0-.575 3.234c0 2.146.698 4.168 2.02 5.848a9.407 9.407 0 0 0 4.523 3.14v-1.179c0-.432.097-.841.271-1.208-2.674-1.041-4.493-3.672-4.493-6.601zm8.725 7.809c0-.961-.774-1.743-1.724-1.743-.951 0-1.724.782-1.724 1.743v5.034h3.448v-5.034zm8.126-8.537l-.845-.856-7.188 7.27c.306.268.554.603.721.982l7.312-7.396zM18.254 36.056c-.641 0-1.161.527-1.161 1.175v.035h12.45v-.035a1.17 1.17 0 0 0-1.161-1.175H18.254zm13.375-5.378l3.097-3.132-.845-.855-3.097 3.133.845.854zm-8.312-.813a.537.537 0 0 1 .374.912.528.528 0 0 1-.901-.377.538.538 0 0 1 .527-.535zm-6.718-13.127a.53.53 0 0 1 .528-.534.53.53 0 0 1 .528.534.531.531 0 0 1-.528.534.532.532 0 0 1-.528-.534z" fill="#2E8DD6"/></svg>