<svg version="1.1" xmlns="http://www.w3.org/2000/svg" xmlns:xlink="http://www.w3.org/1999/xlink" width="46" height="43" viewBox="0 0 46 43"><g id="-Block5_icon4"><g id="Rounded-Rectangl" ><!-- <path id="Rounded-Rectangl-fill" d="M5.070,0.312 C5.070,0.312 40.607,0.312 40.607,0.312 C43.257,0.312 45.406,2.461 45.406,5.112 C45.406,5.112 45.406,38.013 45.406,38.013 C45.406,40.664 43.257,42.813 40.607,42.813 C40.607,42.813 5.070,42.813 5.070,42.813 C2.420,42.813 0.271,40.664 0.271,38.013 C0.271,38.013 0.271,5.112 0.271,5.112 C0.271,2.461 2.420,0.312 5.070,0.312 z" fill="#FFFFFF" /> -->
<!-- <path id="Rounded-Rectangl-stroke" d="M5.194,0.469 C5.194,0.469 40.483,0.469 40.483,0.469 C43.116,0.469 45.250,2.602 45.250,5.233 C45.250,5.233 45.250,37.892 45.250,37.892 C45.250,40.523 43.116,42.656 40.483,42.656 C40.483,42.656 5.194,42.656 5.194,42.656 C2.561,42.656 0.427,40.523 0.427,37.892 C0.427,37.892 0.427,5.233 0.427,5.233 C0.427,2.602 2.561,0.469 5.194,0.469 z" fill="none" stroke="#C2E0F3" stroke-width="1" /> -->
</g><path id="Shape-33" d="M29.665,29.446 C29.665,29.446 33.507,25.559 33.507,25.559 C33.713,25.350 34.048,25.350 34.254,25.559 C34.254,25.559 35.845,27.169 35.845,27.169 C36.051,27.378 36.051,27.715 35.846,27.924 C35.846,27.924 32.003,31.810 32.003,31.810 C31.900,31.915 31.765,31.967 31.630,31.967 C31.494,31.967 31.359,31.915 31.256,31.810 C31.256,31.810 30.999,31.550 30.999,31.550 C30.999,31.550 30.013,32.547 30.013,32.547 C29.594,32.970 29.038,33.204 28.446,33.204 C28.442,33.204 28.439,33.204 28.436,33.204 C28.436,33.204 26.097,33.157 26.097,33.157 L26.097,34.989 C26.097,34.989 28.383,34.989 28.383,34.989 C29.604,34.989 30.599,35.995 30.599,37.231 C30.599,37.231 30.599,37.800 30.599,37.800 C30.599,38.095 30.362,38.333 30.071,38.333 C30.071,38.333 16.565,38.333 16.565,38.333 C16.274,38.333 16.037,38.095 16.037,37.800 C16.037,37.800 16.037,37.231 16.037,37.231 C16.037,35.995 17.032,34.989 18.254,34.989 C18.254,34.989 20.539,34.989 20.539,34.989 C20.539,34.989 20.539,32.248 20.539,32.248 C18.444,31.657 16.554,30.391 15.191,28.659 C13.719,26.788 12.940,24.536 12.940,22.146 C12.940,20.608 13.273,19.117 13.926,17.711 C13.835,17.403 13.785,17.076 13.785,16.738 C13.785,16.039 13.996,15.389 14.357,14.849 C14.338,14.835 14.320,14.820 14.303,14.803 C14.303,14.803 14.118,14.616 14.118,14.616 C13.481,13.972 13.475,12.929 14.096,12.275 C14.096,12.275 11.915,10.069 11.915,10.069 C11.718,10.149 11.510,10.189 11.302,10.189 C10.883,10.189 10.465,10.028 10.146,9.705 C9.837,9.393 9.667,8.977 9.667,8.536 C9.667,8.094 9.837,7.679 10.146,7.366 C10.146,7.366 11.677,5.818 11.677,5.818 C11.986,5.506 12.396,5.334 12.833,5.334 C13.270,5.334 13.681,5.506 13.989,5.818 C14.298,6.130 14.468,6.546 14.468,6.987 C14.468,7.203 14.427,7.413 14.349,7.607 C14.349,7.607 16.530,9.812 16.530,9.812 C16.839,9.511 17.244,9.346 17.675,9.346 C18.116,9.346 18.532,9.519 18.844,9.835 C18.844,9.835 25.374,16.409 25.374,16.409 C25.374,16.409 25.380,16.415 25.380,16.415 C25.383,16.417 25.385,16.419 25.387,16.422 C25.396,16.431 25.406,16.442 25.414,16.452 C25.417,16.455 25.419,16.459 25.421,16.462 C25.430,16.472 25.438,16.483 25.445,16.494 C25.448,16.498 25.450,16.502 25.453,16.506 C25.459,16.517 25.466,16.528 25.472,16.539 C25.475,16.544 25.478,16.551 25.481,16.557 C25.485,16.566 25.490,16.576 25.494,16.585 C25.498,16.594 25.501,16.604 25.504,16.612 C25.507,16.619 25.509,16.626 25.511,16.632 C25.511,16.632 26.281,19.106 26.281,19.106 C26.281,19.106 27.383,20.221 27.383,20.221 C27.809,20.651 27.809,21.350 27.383,21.780 C27.383,21.780 25.928,23.253 25.928,23.253 C25.716,23.468 25.436,23.574 25.157,23.574 C24.878,23.574 24.598,23.468 24.386,23.253 C24.386,23.253 23.281,22.135 23.281,22.135 C23.281,22.135 20.859,21.330 20.859,21.330 C20.855,21.329 20.851,21.327 20.847,21.325 C20.837,21.321 20.826,21.317 20.816,21.313 C20.810,21.310 20.803,21.306 20.797,21.303 C20.788,21.300 20.779,21.296 20.771,21.290 C20.763,21.286 20.756,21.282 20.748,21.277 C20.742,21.273 20.735,21.269 20.728,21.264 C20.720,21.258 20.711,21.252 20.703,21.246 C20.698,21.241 20.692,21.238 20.687,21.232 C20.679,21.225 20.670,21.218 20.662,21.211 C20.659,21.207 20.656,21.205 20.653,21.202 C20.653,21.202 18.991,19.541 18.991,19.541 C18.622,19.794 18.199,19.972 17.745,20.059 C17.499,20.728 17.372,21.429 17.372,22.146 C17.372,24.735 19.049,27.052 21.475,27.855 C21.966,27.414 22.612,27.145 23.318,27.145 C23.620,27.145 23.911,27.195 24.183,27.285 C24.183,27.285 31.950,19.430 31.950,19.430 C32.156,19.222 32.490,19.222 32.696,19.430 C32.696,19.430 34.288,21.040 34.288,21.040 C34.494,21.249 34.494,21.586 34.288,21.795 C34.288,21.795 26.097,30.079 26.097,30.079 L26.097,32.090 C26.097,32.090 28.451,32.135 28.451,32.135 C28.759,32.134 29.048,32.013 29.266,31.792 C29.266,31.792 30.252,30.795 30.252,30.795 C30.252,30.795 29.665,30.201 29.665,30.201 C29.458,29.993 29.458,29.655 29.665,29.446 zM13.243,6.573 C13.134,6.461 12.988,6.401 12.833,6.401 C12.678,6.401 12.533,6.461 12.423,6.572 C12.423,6.572 10.892,8.122 10.892,8.122 C10.782,8.232 10.722,8.379 10.722,8.536 C10.722,8.693 10.782,8.840 10.892,8.951 C11.118,9.179 11.486,9.179 11.712,8.951 C11.712,8.951 13.243,7.402 13.243,7.402 C13.353,7.291 13.413,7.144 13.413,6.987 C13.413,6.831 13.353,6.684 13.243,6.573 zM13.695,8.455 L12.753,9.408 L14.841,11.520 L15.783,10.566 L13.695,8.455 zM25.132,22.498 C25.146,22.512 25.168,22.511 25.182,22.498 C25.182,22.498 26.637,21.026 26.637,21.026 C26.651,21.012 26.651,20.989 26.637,20.976 C26.637,20.976 25.817,20.145 25.817,20.145 L24.312,21.667 C24.312,21.667 25.132,22.498 25.132,22.498 zM23.422,21.058 L25.217,19.242 L24.766,17.792 L22.004,20.587 L23.422,21.058 zM19.762,18.811 C19.762,18.811 21.022,20.070 21.022,20.070 L24.261,16.793 C24.261,16.793 18.098,10.591 18.098,10.591 C17.985,10.476 17.835,10.413 17.675,10.413 C17.515,10.413 17.365,10.476 17.252,10.590 C17.252,10.590 14.864,13.005 14.864,13.005 C14.631,13.241 14.631,13.625 14.864,13.860 C14.864,13.860 15.049,14.048 15.049,14.048 C15.057,14.057 15.065,14.065 15.073,14.075 C15.640,13.626 16.352,13.359 17.126,13.359 C18.969,13.359 20.468,14.874 20.468,16.738 C20.468,17.519 20.204,18.238 19.762,18.811 zM19.412,16.738 C19.412,15.463 18.387,14.425 17.126,14.425 C15.865,14.425 14.840,15.463 14.840,16.738 C14.840,18.014 15.865,19.050 17.126,19.050 C18.387,19.050 19.412,18.014 19.412,16.738 zM16.317,22.146 C16.317,21.440 16.421,20.748 16.624,20.080 C15.805,19.954 15.082,19.526 14.571,18.912 C14.189,19.952 13.996,21.035 13.996,22.146 C13.996,24.292 14.694,26.314 16.016,27.994 C17.180,29.473 18.770,30.572 20.539,31.134 C20.539,31.134 20.539,29.955 20.539,29.955 C20.539,29.523 20.636,29.114 20.810,28.747 C18.136,27.706 16.317,25.075 16.317,22.146 zM25.042,29.955 C25.042,28.994 24.268,28.212 23.318,28.212 C22.367,28.212 21.594,28.994 21.594,29.955 C21.594,29.955 21.594,34.989 21.594,34.989 L25.042,34.989 C25.042,34.989 25.042,29.955 25.042,29.955 zM33.168,21.418 L32.323,20.562 C32.323,20.562 25.135,27.832 25.135,27.832 C25.441,28.100 25.689,28.435 25.856,28.814 C25.856,28.814 33.168,21.418 33.168,21.418 zM18.254,36.056 C17.613,36.056 17.093,36.583 17.093,37.231 C17.093,37.231 17.093,37.266 17.093,37.266 L29.543,37.266 C29.543,37.266 29.543,37.231 29.543,37.231 C29.543,36.583 29.022,36.056 28.382,36.056 C28.382,36.056 18.254,36.056 18.254,36.056 zM31.629,30.678 L34.726,27.546 L33.881,26.691 L30.784,29.824 L31.629,30.678 zM23.317,29.865 C23.457,29.865 23.593,29.922 23.691,30.023 C23.789,30.121 23.845,30.259 23.845,30.400 C23.845,30.540 23.789,30.677 23.691,30.777 C23.593,30.876 23.457,30.933 23.317,30.933 C23.179,30.933 23.043,30.876 22.945,30.777 C22.847,30.677 22.790,30.540 22.790,30.400 C22.790,30.259 22.847,30.121 22.945,30.023 C23.043,29.922 23.179,29.865 23.317,29.865 zM16.599,16.738 C16.599,16.443 16.835,16.204 17.127,16.204 C17.127,16.204 17.127,16.204 17.127,16.204 C17.419,16.204 17.655,16.443 17.655,16.738 C17.655,17.032 17.419,17.272 17.127,17.272 C16.836,17.272 16.599,17.032 16.599,16.738 z" fill="#2E8DD6" /></g></svg>