<svg xmlns="http://www.w3.org/2000/svg" width="43" height="57" viewBox="0 0 43 57"><path d="M40.863 56.666a2.471 2.471 0 0 1-2.469-2.468 2.471 2.471 0 0 1 2.469-2.467 2.47 2.47 0 0 1 2.468 2.467 2.47 2.47 0 0 1-2.468 2.468zm0-3.847c-.762 0-1.381.619-1.381 1.379a1.382 1.382 0 0 0 2.761 0c0-.76-.619-1.379-1.38-1.379zm.097-1.815a.545.545 0 0 1-.544-.544v-5.438a3.415 3.415 0 0 0-3.412-3.411H22.313v8.849a.545.545 0 0 1-1.088 0v-8.849H6.427a3.416 3.416 0 0 0-3.413 3.411v5.438a.544.544 0 1 1-1.087 0v-5.438a4.503 4.503 0 0 1 4.5-4.498h14.798v-3.365a.543.543 0 0 1 1.088 0v3.365h14.691c2.481 0 4.5 2.017 4.5 4.498v5.438c0 .3-.243.544-.544.544zm-5.674-17.058H21.438 8.069a2.664 2.664 0 0 1-2.661-2.66c0-3.605 2.817-6.641 6.414-6.912l1.869-.141 1.178-1.19a1.345 1.345 0 0 1 1.792-.109l5.016 3.96 5.016-3.96a1.345 1.345 0 0 1 1.792.109l1.179 1.19 1.869.141c3.596.271 6.413 3.307 6.413 6.912a2.663 2.663 0 0 1-2.66 2.66zm-19.299-10.16a.261.261 0 0 0-.344.021l-.967.977 4.176 4.811 1.955-2.002-4.82-3.807zm11.725.021a.26.26 0 0 0-.344-.021l-4.821 3.807 1.955 2.002 4.177-4.811-.967-.977zm3.739 1.652l-1.799-.135-4.715 5.429a.542.542 0 0 1-.8.023l-2.46-2.517-2.459 2.517a.517.517 0 0 1-.405.164.542.542 0 0 1-.395-.187l-4.715-5.429-1.8.135c-3.032.228-5.407 2.788-5.407 5.827 0 .868.705 1.573 1.573 1.573h27.217c.867 0 1.572-.705 1.572-1.573 0-3.039-2.375-5.599-5.407-5.827zM29.869 11.5c.193 1.12.189 2.585-.194 4.499-.697 3.486-2.531 5.317-3.947 6.239-1.546 1.008-2.929 1.177-2.987 1.184-.009.001-.245.031-.636.031-1.651 0-6.078-.542-8.059-6.1-.803-2.252-.925-4.122-.726-5.625-.021-.035-.043-.071-.055-.112-.084-.277-2.006-6.8.35-9.483.809-.92 1.988-1.285 3.51-1.087C19.277-.46 21.117-.047 23.43.47c1.743.391 3.718.833 6.466.678a.548.548 0 0 1 .558.408c1.213 4.75-.418 9.577-.488 9.78a.52.52 0 0 1-.097.164zM15.07 16.988c.909 2.549 2.457 4.224 4.602 4.977 1.595.56 2.916.38 2.929.378.209-.025 4.827-.656 6.007-6.557.627-3.132.151-4.826-.359-5.696-.483-.825-1.07-1.041-1.076-1.044a.52.52 0 0 1-.135-.063c-.026-.017-3.036-1.873-10.885-.987-.583.586-3.045 3.487-1.083 8.992zM29.501 2.254c-2.67.09-4.678-.357-6.309-.723-2.27-.508-3.77-.844-5.603.52a.537.537 0 0 1-.412.101c-1.254-.205-2.152.024-2.744.699-1.231 1.401-.969 4.526-.544 6.713.659-1.608 1.59-2.433 1.668-2.5a.545.545 0 0 1 .291-.128c7.932-.928 11.247.814 11.73 1.102.259.104 1.09.513 1.705 1.672.377-1.619.846-4.556.218-7.456zM4.939 54.198a2.47 2.47 0 0 1-2.468 2.468 2.471 2.471 0 0 1-2.469-2.468 2.471 2.471 0 0 1 2.469-2.467 2.47 2.47 0 0 1 2.468 2.467zm-3.849 0a1.382 1.382 0 0 0 2.761 0 1.381 1.381 0 0 0-2.761 0zm20.679-2.467a2.47 2.47 0 0 1 2.468 2.467 2.47 2.47 0 0 1-2.468 2.468 2.471 2.471 0 0 1-2.469-2.468 2.471 2.471 0 0 1 2.469-2.467zm0 3.848c.761 0 1.38-.619 1.38-1.381a1.381 1.381 0 0 0-2.761 0c0 .762.62 1.381 1.381 1.381z" fill="#338BC3"/></svg>