<svg version="1.1" xmlns="http://www.w3.org/2000/svg" xmlns:xlink="http://www.w3.org/1999/xlink" width="43" height="57" viewBox="0 0 43 57"><path id="-Block6_icon2" d="M40.863,56.666 C39.502,56.666 38.394,55.559 38.394,54.198 C38.394,52.838 39.502,51.731 40.863,51.731 C42.224,51.731 43.331,52.838 43.331,54.198 C43.331,55.559 42.224,56.666 40.863,56.666 zM40.863,52.819 C40.101,52.819 39.482,53.438 39.482,54.198 C39.482,54.960 40.101,55.579 40.863,55.579 C41.624,55.579 42.243,54.960 42.243,54.198 C42.243,53.438 41.624,52.819 40.863,52.819 zM40.960,51.004 C40.660,51.004 40.416,50.760 40.416,50.460 C40.416,50.460 40.416,45.022 40.416,45.022 C40.416,43.141 38.886,41.611 37.004,41.611 C37.004,41.611 22.313,41.611 22.313,41.611 C22.313,41.611 22.313,50.460 22.313,50.460 C22.313,50.760 22.069,51.004 21.769,51.004 C21.468,51.004 21.225,50.760 21.225,50.460 C21.225,50.460 21.225,41.611 21.225,41.611 C21.225,41.611 6.427,41.611 6.427,41.611 C4.545,41.611 3.014,43.141 3.014,45.022 C3.014,45.022 3.014,50.460 3.014,50.460 C3.014,50.760 2.771,51.004 2.471,51.004 C2.170,51.004 1.927,50.760 1.927,50.460 C1.927,50.460 1.927,45.022 1.927,45.022 C1.927,42.541 3.945,40.524 6.427,40.524 C6.427,40.524 21.225,40.524 21.225,40.524 C21.225,40.524 21.225,37.159 21.225,37.159 C21.225,36.859 21.468,36.616 21.769,36.616 C22.069,36.616 22.313,36.859 22.313,37.159 C22.313,37.159 22.313,40.524 22.313,40.524 C22.313,40.524 37.004,40.524 37.004,40.524 C39.485,40.524 41.504,42.541 41.504,45.022 C41.504,45.022 41.504,50.460 41.504,50.460 C41.504,50.760 41.261,51.004 40.960,51.004 zM35.286,33.946 C35.286,33.946 21.917,33.946 21.917,33.946 L21.438,33.946 C21.438,33.946 8.069,33.946 8.069,33.946 C6.602,33.946 5.408,32.753 5.408,31.286 C5.408,27.681 8.225,24.645 11.822,24.374 C11.822,24.374 13.691,24.233 13.691,24.233 C13.691,24.233 14.869,23.043 14.869,23.043 C15.352,22.555 16.122,22.508 16.661,22.934 C16.661,22.934 21.677,26.894 21.677,26.894 C21.677,26.894 26.693,22.934 26.693,22.934 C27.232,22.508 28.002,22.555 28.485,23.043 C28.485,23.043 29.664,24.233 29.664,24.233 C29.664,24.233 31.533,24.374 31.533,24.374 C35.129,24.645 37.946,27.681 37.946,31.286 C37.946,32.753 36.753,33.946 35.286,33.946 zM15.987,23.786 C15.884,23.706 15.736,23.714 15.643,23.807 C15.643,23.807 14.676,24.784 14.676,24.784 L18.852,29.595 L20.807,27.593 C20.807,27.593 15.987,23.786 15.987,23.786 zM27.712,23.807 C27.619,23.714 27.471,23.705 27.368,23.786 C27.368,23.786 22.547,27.593 22.547,27.593 L24.502,29.595 L28.679,24.784 C28.679,24.784 27.712,23.807 27.712,23.807 zM31.451,25.459 C31.451,25.459 29.652,25.324 29.652,25.324 C29.652,25.324 24.937,30.753 24.937,30.753 C24.837,30.868 24.694,30.936 24.542,30.940 C24.392,30.950 24.243,30.885 24.137,30.776 C24.137,30.776 21.677,28.259 21.677,28.259 C21.677,28.259 19.218,30.776 19.218,30.776 C19.112,30.885 18.967,30.951 18.813,30.940 C18.661,30.936 18.518,30.868 18.418,30.753 C18.418,30.753 13.703,25.324 13.703,25.324 C13.703,25.324 11.903,25.459 11.903,25.459 C8.871,25.687 6.496,28.247 6.496,31.286 C6.496,32.154 7.201,32.859 8.069,32.859 C8.069,32.859 21.438,32.859 21.438,32.859 L21.917,32.859 C21.917,32.859 35.286,32.859 35.286,32.859 C36.153,32.859 36.858,32.154 36.858,31.286 C36.858,28.247 34.483,25.687 31.451,25.459 zM29.869,11.500 C30.062,12.620 30.058,14.085 29.675,15.999 C28.978,19.485 27.144,21.316 25.728,22.238 C24.182,23.246 22.799,23.415 22.741,23.422 C22.732,23.423 22.496,23.453 22.105,23.453 C20.454,23.453 16.027,22.911 14.046,17.353 C13.243,15.101 13.121,13.231 13.320,11.728 C13.299,11.693 13.277,11.657 13.265,11.616 C13.181,11.339 11.259,4.816 13.615,2.133 C14.424,1.213 15.603,0.848 17.125,1.046 C19.277,-0.460 21.117,-0.047 23.430,0.470 C25.173,0.861 27.148,1.303 29.896,1.148 C30.153,1.135 30.389,1.304 30.454,1.556 C31.667,6.306 30.036,11.133 29.966,11.336 C29.945,11.398 29.909,11.452 29.869,11.500 zM15.070,16.988 C15.979,19.537 17.527,21.212 19.672,21.965 C21.267,22.525 22.588,22.345 22.601,22.343 C22.810,22.318 27.428,21.687 28.608,15.786 C29.235,12.654 28.759,10.960 28.249,10.090 C27.766,9.265 27.179,9.049 27.173,9.046 C27.125,9.032 27.080,9.010 27.038,8.983 C27.012,8.966 24.002,7.110 16.153,7.996 C15.570,8.582 13.108,11.483 15.070,16.988 zM29.501,2.254 C26.831,2.344 24.823,1.897 23.192,1.531 C20.922,1.023 19.422,0.687 17.589,2.051 C17.471,2.140 17.323,2.176 17.177,2.152 C15.923,1.947 15.025,2.176 14.433,2.851 C13.202,4.252 13.464,7.377 13.889,9.564 C14.548,7.956 15.479,7.131 15.557,7.064 C15.639,6.993 15.741,6.949 15.848,6.936 C23.780,6.008 27.095,7.750 27.578,8.038 C27.837,8.142 28.668,8.551 29.283,9.710 C29.660,8.091 30.129,5.154 29.501,2.254 zM4.939,54.198 C4.939,55.559 3.832,56.666 2.471,56.666 C1.110,56.666 0.002,55.559 0.002,54.198 C0.002,52.838 1.110,51.731 2.471,51.731 C3.832,51.731 4.939,52.838 4.939,54.198 zM1.090,54.198 C1.090,54.960 1.709,55.579 2.471,55.579 C3.232,55.579 3.851,54.960 3.851,54.198 C3.851,53.438 3.232,52.819 2.471,52.819 C1.709,52.819 1.090,53.438 1.090,54.198 zM21.769,51.731 C23.130,51.731 24.237,52.838 24.237,54.198 C24.237,55.559 23.130,56.666 21.769,56.666 C20.408,56.666 19.300,55.559 19.300,54.198 C19.300,52.838 20.408,51.731 21.769,51.731 zM21.769,55.579 C22.530,55.579 23.149,54.960 23.149,54.198 C23.149,53.438 22.530,52.819 21.769,52.819 C21.008,52.819 20.388,53.438 20.388,54.198 C20.388,54.960 21.008,55.579 21.769,55.579 z" fill="#338BC3" /></svg>