<svg xmlns="http://www.w3.org/2000/svg" width="20" height="30" viewBox="0 0 20 30"><path d="M19.508 8.812a.49.49 0 0 1-.492-.488c0-4.051-3.311-7.345-7.381-7.345a.49.49 0 1 1 0-.979C16.247 0 20 3.734 20 8.324a.49.49 0 0 1-.492.488zM14 8v19.334c0 1.349-1.008 2.334-2.365 2.334H2.46c-1.356 0-2.46-.985-2.46-2.334V8c0-1.35.977-2.333 2.333-2.333h9.334C13.023 5.667 14 6.65 14 8zM1 27.334c0 .809.646 1.354 1.46 1.354h9.175c.814 0 1.365-.545 1.365-1.354v-.667H1v.667zm0-1.668h12V10H1v15.666zM1 8v.999h12V8c0-.81-.519-1.333-1.333-1.333H2.333C1.519 6.667 1 7.19 1 8zm7.699.324H6.73a.49.49 0 0 1 0-.98h1.969a.49.49 0 1 1 0 .98zm-3.445 0a.491.491 0 0 1-.348-.837.495.495 0 0 1 .696 0 .489.489 0 0 1-.348.837zM10 22.333H4c-.498 0-1-.505-1-.999v-1c0-.899.969-1.891 2.075-1.891h.418c.17 0 .329.089.419.233.287.465.701.73 1.136.73.434 0 .849-.265 1.135-.73a.496.496 0 0 1 .42-.233h.417c.537 0 1.045.237 1.43.667.335.373.534.85.534 1.276v1.062c0 .494-.488.885-.984.885zm0-1.947c0-.331-.382-.963-.98-.963h-.158c-.465.615-1.114.963-1.814.963-.701 0-1.349-.348-1.815-.963h-.158c-.598 0-1.075.58-1.075.911v1h6v-.948zm-2.952-1.959a2.457 2.457 0 0 1-2.461-2.447v-.49a2.457 2.457 0 0 1 2.461-2.448 2.457 2.457 0 0 1 2.46 2.448v.49a2.457 2.457 0 0 1-2.46 2.447zm1.476-2.937c0-.81-.662-1.469-1.476-1.469s-1.476.659-1.476 1.469v.49c0 .81.662 1.468 1.476 1.468s1.476-.658 1.476-1.468v-.49zM7.333 28.333h-.666c-.272 0-.588-.354-.588-.624 0-.271.316-.375.588-.375h.666c.272 0 .683.104.683.375 0 .27-.411.624-.683.624zm3.81-23.927c0-.27.22-.489.492-.489 2.442 0 4.429 1.976 4.429 4.407a.49.49 0 0 1-.493.488.49.49 0 0 1-.492-.488 3.44 3.44 0 0 0-3.444-3.428.491.491 0 0 1-.492-.49zm0-1.958c0-.27.22-.49.492-.49 3.527 0 6.397 2.856 6.397 6.366a.49.49 0 0 1-.492.488.49.49 0 0 1-.493-.488c0-2.97-2.427-5.387-5.412-5.387a.49.49 0 0 1-.492-.489z" fill="#2E8DD6"/></svg>