<svg xmlns="http://www.w3.org/2000/svg" width="53" height="53" viewBox="0 0 53 53"><path d="M49.835 28.914A2.668 2.668 0 0 1 47.31 27.1H35.223a8.985 8.985 0 0 1-.356 1.799l4.461 1.848a2.669 2.669 0 0 1 3.027-.711 2.669 2.669 0 0 1 1.442 3.483 2.651 2.651 0 0 1-1.442 1.442 2.702 2.702 0 0 1-1.02.204c-.345 0-.691-.069-1.02-.204a2.666 2.666 0 0 1-1.637-2.642l-4.465-1.85a9.022 9.022 0 0 1-1.019 1.522l8.549 8.55a2.635 2.635 0 0 1 1.185-.278c.711 0 1.38.278 1.884.78.503.503.78 1.173.78 1.885 0 .711-.277 1.38-.78 1.883-.52.52-1.202.78-1.884.78-.683 0-1.365-.26-1.885-.78a2.667 2.667 0 0 1-.501-3.066l-8.55-8.55c-.47.388-.98.73-1.523 1.018l1.849 4.464a2.67 2.67 0 0 1 2.642 1.639 2.64 2.64 0 0 1 0 2.039 2.645 2.645 0 0 1-1.442 1.442 2.668 2.668 0 0 1-3.481-1.442 2.64 2.64 0 0 1 0-2.039c.16-.387.404-.721.71-.986l-1.848-4.464a8.917 8.917 0 0 1-1.799.357V47.31a2.671 2.671 0 0 1 1.815 2.525A2.669 2.669 0 0 1 26.25 52.5a2.669 2.669 0 0 1-2.665-2.665c0-1.171.761-2.168 1.815-2.525V35.223a8.917 8.917 0 0 1-1.799-.357l-1.848 4.463c.306.266.55.6.71.987a2.64 2.64 0 0 1 0 2.039 2.668 2.668 0 0 1-3.481 1.442 2.666 2.666 0 0 1-1.442-3.481 2.668 2.668 0 0 1 2.642-1.639l1.849-4.464a9.107 9.107 0 0 1-1.523-1.018l-8.548 8.547c.181.365.277.767.277 1.186 0 .71-.277 1.38-.78 1.883a2.653 2.653 0 0 1-1.884.779 2.651 2.651 0 0 1-1.885-.779 2.648 2.648 0 0 1-.78-1.883c0-.712.277-1.382.781-1.885a2.649 2.649 0 0 1 1.884-.78c.418 0 .821.096 1.184.278l8.549-8.55a9.022 9.022 0 0 1-1.019-1.522l-4.465 1.85a2.654 2.654 0 0 1-1.637 2.642 2.705 2.705 0 0 1-1.02.203c-.346 0-.691-.069-1.02-.204a2.65 2.65 0 0 1-1.442-1.441 2.655 2.655 0 0 1 0-2.041 2.661 2.661 0 0 1 4.468-.731l4.462-1.848a8.916 8.916 0 0 1-.356-1.799H5.19a2.668 2.668 0 0 1-2.525 1.814A2.667 2.667 0 0 1 0 26.249a2.667 2.667 0 0 1 2.665-2.664 2.67 2.67 0 0 1 2.525 1.814h12.087a8.92 8.92 0 0 1 .356-1.798l-4.462-1.848c-.267.305-.6.55-.986.709a2.65 2.65 0 0 1-2.04.001 2.661 2.661 0 0 1 0-4.923 2.643 2.643 0 0 1 2.04 0 2.657 2.657 0 0 1 1.637 2.642l4.465 1.849a9.03 9.03 0 0 1 1.019-1.523l-8.549-8.548a2.66 2.66 0 0 1-1.184.277 2.65 2.65 0 0 1-1.885-.78 2.65 2.65 0 0 1-.78-1.885c0-.711.277-1.381.781-1.885a2.67 2.67 0 0 1 3.768 0c.503.504.78 1.174.78 1.885 0 .418-.096.822-.277 1.185l8.548 8.548c.471-.389.98-.73 1.523-1.019l-1.849-4.464a2.668 2.668 0 0 1-2.642-1.638 2.666 2.666 0 0 1 4.923-2.04 2.643 2.643 0 0 1 0 2.04c-.16.386-.404.72-.71.986l1.848 4.463a8.86 8.86 0 0 1 1.799-.356V5.189a2.67 2.67 0 0 1-1.815-2.524A2.668 2.668 0 0 1 26.25 0a2.668 2.668 0 0 1 2.665 2.665A2.669 2.669 0 0 1 27.1 5.189v12.088c.62.058 1.222.177 1.799.356l1.849-4.463a2.652 2.652 0 0 1-.711-3.026 2.666 2.666 0 0 1 4.924 2.04 2.67 2.67 0 0 1-2.643 1.638l-1.848 4.464c.542.289 1.052.63 1.522 1.019l8.55-8.55a2.672 2.672 0 0 1 .501-3.068 2.672 2.672 0 0 1 3.769 0c.503.504.78 1.174.78 1.886a2.65 2.65 0 0 1-.78 1.884 2.65 2.65 0 0 1-1.884.781c-.418 0-.822-.097-1.185-.278l-8.548 8.548c.389.47.73.98 1.018 1.523l4.466-1.849a2.65 2.65 0 0 1 .195-1.201 2.64 2.64 0 0 1 1.442-1.441 2.643 2.643 0 0 1 2.04 0 2.641 2.641 0 0 1 1.441 1.441 2.667 2.667 0 0 1-2.458 3.685 2.675 2.675 0 0 1-2.01-.913l-4.462 1.848c.177.578.298 1.179.356 1.798h12.088a2.67 2.67 0 0 1 2.525-1.814 2.667 2.667 0 0 1 2.664 2.664 2.667 2.667 0 0 1-2.665 2.665zm-9.39 3.953a.953.953 0 0 0 .522.521c.238.099.5.099.738 0a.965.965 0 0 0-.368-1.853.964.964 0 0 0-.892 1.332zm1.801 10.742a.965.965 0 0 0 1.646-.681.951.951 0 0 0-.283-.681.954.954 0 0 0-.681-.283.963.963 0 0 0-.682 1.645zm-10.638-1.905a.966.966 0 0 0 1.26.522.956.956 0 0 0 .521-.522.963.963 0 1 0-1.781 0zm-10.716-.737a.96.96 0 0 0-.889-.595.963.963 0 1 0 .889 1.332.952.952 0 0 0 0-.737zm-10.637 1.28h-.001a.954.954 0 0 0-.681-.283c-.257 0-.5.1-.682.283a.95.95 0 0 0-.282.681.965.965 0 0 0 1.927 0 .95.95 0 0 0-.281-.681zm1.8-10.117a.958.958 0 0 0-.89-.596.965.965 0 0 0-.369 1.854.952.952 0 0 0 .737 0 .953.953 0 0 0 .522-.521.952.952 0 0 0 0-.737zm-9.39-6.844a.965.965 0 1 0 .964.963.966.966 0 0 0-.964-.963zm9.39-5.654a.963.963 0 1 0-.522 1.26.955.955 0 0 0 .522-.522.954.954 0 0 0 0-.738zm-1.8-10.741a.965.965 0 0 0-1.364 1.363.96.96 0 0 0 1.363 0 .964.964 0 0 0 .001-1.363zm10.637 1.904a.964.964 0 1 0-1.781.74.964.964 0 0 0 1.781-.74zm10.716.738a.964.964 0 1 0 1.782-.738.964.964 0 0 0-1.782.738zm10.638-1.279a.957.957 0 0 0 .682.282c.257 0 .499-.1.681-.282a.96.96 0 0 0 0-1.363.961.961 0 0 0-1.363 0 .964.964 0 0 0 0 1.363zm-16.96 39.581a.965.965 0 1 0 1.929-.001.965.965 0 0 0-1.929.001zm1.928-47.17a.966.966 0 0 0-.964-.965.964.964 0 1 0 .964.965zm-.964 16.271a7.32 7.32 0 0 0-7.313 7.313c0 4.034 3.28 7.314 7.313 7.314 4.033 0 7.314-3.28 7.314-7.314 0-4.033-3.281-7.313-7.314-7.313zm14.195 1.434a.966.966 0 0 0 1.26.522.966.966 0 0 0-.369-1.855.968.968 0 0 0-.891.595.954.954 0 0 0 0 .738zm9.391 4.916a.965.965 0 1 0 .963.963.965.965 0 0 0-.963-.963zM30.788 27.1a.851.851 0 0 1-.001-1.701h.001a.85.85 0 1 1 0 1.701zm-3.63 5.444a2.668 2.668 0 0 1-2.665-2.665 2.668 2.668 0 0 1 2.665-2.666 2.669 2.669 0 0 1 2.664 2.666 2.668 2.668 0 0 1-2.664 2.665zm0-3.63a.965.965 0 0 0 0 1.928.965.965 0 0 0 0-1.928zm.909-5.441a.852.852 0 0 1-.851-.852.85.85 0 0 1 .85-.849h.001a.851.851 0 0 1 0 1.701zm-4.538 2.72a2.667 2.667 0 0 1-2.665-2.664 2.667 2.667 0 0 1 2.665-2.665 2.668 2.668 0 0 1 2.665 2.665 2.667 2.667 0 0 1-2.665 2.664zm0-3.628a.965.965 0 1 0 .001 1.929.965.965 0 0 0-.001-1.929z" fill="#2E8DD6"/></svg>