<svg xmlns="http://www.w3.org/2000/svg" width="56" height="60" viewBox="0 0 56 60"><path d="M46.829 58H44.72a3.177 3.177 0 0 1-3.171-3.176L41 54H8l.451.824A3.177 3.177 0 0 1 5.28 58H3.171A3.176 3.176 0 0 1 0 54.824V5.219c0-2.878 2.369-5.22 5.282-5.22h39.436C47.631-.001 50 2.341 50 5.219v49.605A3.176 3.176 0 0 1 46.829 58zm-3.167-3.176c0 .584.475 1.061 1.058 1.061h2.109c.584 0 1.058-.477 1.058-1.061v-1.056h-4.225v1.056zm-41.549 0c0 .584.474 1.061 1.058 1.061H5.28c.583 0 1.058-.477 1.058-1.061v-1.056H2.113v1.056zM48 5c0-1.712-1.253-3-3-3H5C3.253 2 2 3.288 2 5v47h46V5zM25.055 18.585c4.951-.373 9.1 3.558 9.1 8.441 0 4.667-3.791 8.467-8.451 8.467-4.874 0-8.798-4.157-8.426-9.118.31-4.138 3.646-7.479 7.777-7.79zm.649 14.791c3.644 0 6.579-3.097 6.322-6.802-.217-3.127-2.745-5.662-5.867-5.882-3.699-.259-6.792 2.682-6.792 6.334 0 3.502 2.843 6.35 6.337 6.35zm0-10.584c.735 0 1.294.752.955 1.53-.164.375-.554.585-.963.587a2.118 2.118 0 0 0-.259 4.218 2.118 2.118 0 0 0 2.38-2.092c.002-.41.212-.801.587-.966.776-.339 1.526.221 1.526.957a4.233 4.233 0 0 1-4.709 4.207 4.236 4.236 0 0 1 .483-8.441zM6 10V7c0-.584.416-1 1-1h36c.584 0 1 .416 1 1v39c0 .585-.416 2-1 2H8c-.584 0-2-1.415-2-2v-2c-1.229-.435-2-1.619-2-3v-2c0-1.38.771-2.564 2-3V21c0-.629.357-1.078 1-1 .536.066 1 .458 1 1v15c1.229.436 2 1.62 2 3v2c0 1.381-.771 2.565-2 3v2h34l-.451-8.498a5.298 5.298 0 0 1-4.225-5.185V21.736c0-2.557 2.268-4.244 4.676-4.736V8H8v2c1.229.439 2 1.619 2 3v2c0 1.848-1.022 3.149-2.901 2.978C5.456 17.827 4 16.653 4 15v-2c0-1.381.771-2.561 2-3zm2 29c0-.5-.512-.894-1-1-.685-.149-1 .34-1 1v2c0 .663.315 1.149 1 1 .488-.107 1-.499 1-1v-2zm33.549-20.259a3.181 3.181 0 0 0-2.112 2.995v10.581a3.18 3.18 0 0 0 2.112 2.993V18.741zM6 15c0 .501.45 1.017 1 1 .701-.023 1-.339 1-1v-2c-.028-.621-.528-.958-1.067-1.017C6.436 11.928 6 12.5 6 13v2z" fill="#208BCE"/><path d="M32 16h19a5 5 0 0 1 5 5v34a5 5 0 0 1-5 5H32a5 5 0 0 1-5-5V21a5 5 0 0 1 5-5z" fill="#FFF"/><path d="M54 27H29v-7c0-1.08.933-2 2-2h21c1.067 0 2 .92 2 2v8-1zm.067 29.089a1.945 1.945 0 0 1-1.934 1.955H30.867a1.945 1.945 0 0 1-1.934-1.955L29 29h25l.067 27.089zM52.133 16H30.867C28.731 16 27 17.751 27 19.911v36.178C27 58.249 28.731 60 30.867 60h21.266C54.269 60 56 58.249 56 56.089V19.911C56 17.751 54.269 16 52.133 16z" fill="#208BCE"/><path d="M50.5 57h-2a1.5 1.5 0 0 1-1.5-1.5v-9a1.5 1.5 0 0 1 1.5-1.5h2a1.5 1.5 0 0 1 1.5 1.5v9a1.5 1.5 0 0 1-1.5 1.5zm0-14h-2a1.5 1.5 0 0 1-1.5-1.5v-2a1.5 1.5 0 0 1 1.5-1.5h2a1.5 1.5 0 0 1 1.5 1.5v2a1.5 1.5 0 0 1-1.5 1.5zm0-7h-2a1.5 1.5 0 0 1-1.5-1.5v-2a1.5 1.5 0 0 1 1.5-1.5h2a1.5 1.5 0 0 1 1.5 1.5v2a1.5 1.5 0 0 1-1.5 1.5zm-8 21h-2a1.5 1.5 0 0 1-1.5-1.5v-2a1.5 1.5 0 0 1 1.5-1.5h2a1.5 1.5 0 0 1 1.5 1.5v2a1.5 1.5 0 0 1-1.5 1.5zm0-7h-2a1.5 1.5 0 0 1-1.5-1.5v-2a1.5 1.5 0 0 1 1.5-1.5h2a1.5 1.5 0 0 1 1.5 1.5v2a1.5 1.5 0 0 1-1.5 1.5zm0-7h-2a1.5 1.5 0 0 1-1.5-1.5v-2a1.5 1.5 0 0 1 1.5-1.5h2a1.5 1.5 0 0 1 1.5 1.5v2a1.5 1.5 0 0 1-1.5 1.5zm0-7h-2a1.5 1.5 0 0 1-1.5-1.5v-2a1.5 1.5 0 0 1 1.5-1.5h2a1.5 1.5 0 0 1 1.5 1.5v2a1.5 1.5 0 0 1-1.5 1.5zm-8 21h-2a1.5 1.5 0 0 1-1.5-1.5v-2a1.5 1.5 0 0 1 1.5-1.5h2a1.5 1.5 0 0 1 1.5 1.5v2a1.5 1.5 0 0 1-1.5 1.5zm0-7h-2a1.5 1.5 0 0 1-1.5-1.5v-2a1.5 1.5 0 0 1 1.5-1.5h2a1.5 1.5 0 0 1 1.5 1.5v2a1.5 1.5 0 0 1-1.5 1.5zm0-7h-2a1.5 1.5 0 0 1-1.5-1.5v-2a1.5 1.5 0 0 1 1.5-1.5h2a1.5 1.5 0 0 1 1.5 1.5v2a1.5 1.5 0 0 1-1.5 1.5zm0-7h-2a1.5 1.5 0 0 1-1.5-1.5v-2a1.5 1.5 0 0 1 1.5-1.5h2a1.5 1.5 0 0 1 1.5 1.5v2a1.5 1.5 0 0 1-1.5 1.5z" fill="#208BCE"/><path d="M32.326 19.95h18.348c.76 0 1.376.489 1.376 1.093v2.914c0 .604-.616 1.093-1.376 1.093H32.326c-.76 0-1.376-.489-1.376-1.093v-2.914c0-.604.616-1.093 1.376-1.093z" fill="none" stroke="#208BCE" stroke-width="2"/></svg>