<svg xmlns="http://www.w3.org/2000/svg" width="44" height="62" viewBox="0 0 44 62"><path d="M17.702 33.628a1.376 1.376 0 0 1-.383-1.927l2.289-3.352a13.011 13.011 0 0 0-4.592-.536c-.948.058-1.959.234-2.95.545l2.282 3.343a1.374 1.374 0 0 1-.383 1.925 1.422 1.422 0 0 1-1.955-.379l-2.521-3.695c-1.642 1.069-2.948 2.667-3.373 4.928L3.104 50.483h9.825c.778 0 1.408.622 1.408 1.387 0 .766-.63 1.388-1.408 1.388H1.41c-.419 0-.815-.173-1.083-.49a1.344 1.344 0 0 1-.302-1.129l3.32-17.654c.953-5.062 5.465-8.573 11.496-8.941 2.801-.171 5.604.4 7.892 1.609 2.596 1.372 4.408 3.466 5.243 6.056.235.73-.176 1.51-.917 1.742a1.413 1.413 0 0 1-1.769-.903c-.565-1.755-1.691-3.072-3.104-4.001l-2.528 3.703a1.424 1.424 0 0 1-1.956.378zM44 38.784v17.097c0 .695-.502 1.284-1.201 1.376l-11.494 1.522c-.001.001-2.453-.28-2.453-.28v2.113A1.4 1.4 0 0 1 27.442 62a1.4 1.4 0 0 1-1.41-1.388l-.004-2.486-6.578-.869c-.7-.092-1.233-.681-1.233-1.376V38.784c0-.4.186-.781.492-1.044a1.444 1.444 0 0 1 1.125-.331l11.301 1.495 11.299-1.495c.402-.053.799.067 1.105.331.306.263.461.644.461 1.044zm-14.23 2.734l-8.735-1.147v14.297l6.571.866.07.006 2.094.275V41.518zm11.412-1.147l-8.594 1.147v14.297l8.594-1.147v-8.937l-4.233.562a1.39 1.39 0 0 1-1.569-1.19 1.383 1.383 0 0 1 1.199-1.56l4.603-.611v-2.561zM5.592 9.406C5.829 3.178 11.042.165 15.784.001a.818.818 0 0 1 .099 0c.534.018 1.074.072 1.612.164.069.007.136.019.201.036 4.17.778 8.173 3.765 8.379 9.205.196 5.148-1.752 9.305-5.345 11.407a9.686 9.686 0 0 1-4.896 1.326 9.695 9.695 0 0 1-4.896-1.325c-3.593-2.102-5.541-6.26-5.346-11.408zm11.117-1.395c1.772 1.684 4.233 2.316 6.556 1.674a5.114 5.114 0 0 0-.006-.175c-.126-3.316-2.188-5.345-4.71-6.227-.317 1.778-.942 3.377-1.84 4.728zM8.403 9.678a6.88 6.88 0 0 0 4.285-1.4 7.295 7.295 0 0 0 1.182-1.132c.815-.975 1.57-2.376 1.911-4.368-3.565.161-7.204 2.294-7.373 6.732l-.005.168zm.19 2.776c.473 2.698 1.785 4.805 3.784 5.973a6.852 6.852 0 0 0 6.914 0c1.968-1.151 3.271-3.212 3.761-5.851-2.948.502-5.953-.392-8.192-2.466a9.73 9.73 0 0 1-6.267 2.344z" fill="#238CCF"/></svg>