<svg xmlns="http://www.w3.org/2000/svg" width="36" height="36" viewBox="0 0 36 36"><path d="M17.885.469c9.545 0 17.282 7.737 17.282 17.281 0 9.544-7.737 17.281-17.282 17.281C8.341 35.031.604 27.294.604 17.75.604 8.206 8.341.469 17.885.469z" fill="#FFF"/><path d="M17.885.573c9.487 0 17.177 7.69 17.177 17.177 0 9.487-7.69 17.177-17.177 17.177-9.486 0-17.177-7.69-17.177-17.177C.708 8.263 8.399.573 17.885.573z" fill="none" stroke="#ECECEC" stroke-width=".667"/><path d="M21.726 18.025l-.066.09.016.023-.057.032-5.103 6.946-.549-.307 4.926-6.703-4.876-6.769.539-.305 4.951 6.871.219.122z" fill="#C8C8C8"/></svg>