<svg xmlns="http://www.w3.org/2000/svg" width="53" height="72" viewBox="0 0 53 72"><g fill="#338BC3"><path d="M8.954 26.397c0-.648.504-1.446 1.15-1.446h27.139c.645 0 1.243.798 1.243 1.446 0 .65.147.805-.498.805H10.849c-.646 0-1.895-.152-1.895-.805zm1.15 11.315h27.139c.645 0 1.243-.466 1.243-1.114 0-.648-.598-1.139-1.243-1.139H10.104c-.646 0-1.15.489-1.15 1.139s.504 1.114 1.15 1.114zm12.981 7.507H10.104c-.646 0-1.147.926-1.147 1.575 0 .652.501.676 1.147.676h12.981c.647 0 .984-.024.984-.676 0-.649-.337-1.575-.984-1.575zm-3.181 10.599h.224c-.647 0-1.171.529-1.171 1.178 0 .648.524 1.178 1.171 1.178h-.224c.647 0 1.171-.53 1.171-1.178 0-.649-.524-1.178-1.171-1.178zm33.09 1.371c0 8.165-6.61 14.807-14.739 14.807-3.8 0-7.255-1.461-9.872-3.843-.003 0 1.413.336 1.408.336H5.946c-3.628 0-5.962-2.259-5.962-6.005V15.942c0-2.996 2.194-5.253 5.217-5.253h5.961V7.686c0-.648.844-1.502 1.49-1.502h4.471c0-.016-.03.117-.03.098 0-3.467 2.811-6.29 6.264-6.29 3.454 0 6.266 2.823 6.266 6.29 0 .019.168-.114.168-.098h4.471c.648 0 .745.854.745 1.502v3.003h6.707c3.954 0 5.216 3.055 5.216 5.253v29.277c3.825 2.678 6.064 6.94 6.064 11.97zM13.397 14.441h19.375V8.437h-4.471c-.359 0-.724.093-.947-.192a1.181 1.181 0 0 1-.21-1.014 3.78 3.78 0 0 0 .133-.947c0-2.168-1.76-3.936-3.922-3.936s-3.922 1.768-3.922 3.936c0 .29.043.599.131.953.087.352.008.724-.213 1.009-.22.284-.376.191-.737.191h-5.217v6.004zM5.946 66.237h20.865c-1.738-2.428-3.297-5.837-3.297-9.048 0-8.165 6.612-14.812 14.739-14.812 2.157 0 4.591.501 6.442 1.341V15.942c0-1.501-.979-3.002-2.981-3.002h-6.707l-.165 2.695c0 .648-.678 1.058-1.325 1.058H12.652c-.646 0-1.534-.41-1.534-1.058l.044-2.695H5.154c-1.521 0-2.926 1.611-2.927 2.956-.005 9.933-.036 46.188-.007 46.588 0 3.596 3.726 3.753 3.726 3.753zm44.705-9.048c0-6.867-5.562-12.458-12.396-12.458-6.834 0-12.396 5.591-12.396 12.458s5.562 12.454 12.396 12.454c6.834 0 12.396-5.587 12.396-12.454z"/><path d="M39.968 57.488l3.712 3.713a1.045 1.045 0 1 1-1.479 1.479l-3.712-3.712-3.712 3.712a1.047 1.047 0 0 1-1.479-1.479l3.712-3.713-3.712-3.712a1.045 1.045 0 1 1 1.479-1.479l3.712 3.712 3.712-3.712a1.047 1.047 0 0 1 1.479 1.479l-3.712 3.712z"/></g></svg>