<svg version="1.1" xmlns="http://www.w3.org/2000/svg" xmlns:xlink="http://www.w3.org/1999/xlink" width="28" height="32" viewBox="0 0 28 32"><path id="-Block7_icon2" d="M26.846,16.281 C26.577,16.281 26.359,16.062 26.359,15.794 C26.359,15.794 26.359,3.936 26.359,3.936 C26.359,3.439 26.061,3.013 25.635,2.823 C25.635,2.823 25.635,26.534 25.635,26.534 C25.635,27.231 25.182,27.823 24.556,28.034 C24.556,28.034 24.556,28.846 24.556,28.846 C24.556,29.115 24.338,29.333 24.069,29.333 C23.800,29.333 23.582,29.115 23.582,28.846 C23.582,28.846 23.582,28.047 23.582,28.047 C22.937,27.847 22.468,27.244 22.468,26.534 C22.468,26.534 22.468,2.238 22.468,2.238 C22.468,1.969 22.686,1.751 22.955,1.751 C22.955,1.751 25.268,1.745 25.331,1.751 C26.451,1.847 27.333,2.790 27.333,3.936 C27.333,3.936 27.333,15.794 27.333,15.794 C27.333,16.062 27.115,16.281 26.846,16.281 zM24.660,2.725 L23.443,2.725 L23.443,9.259 L24.660,9.259 L24.660,2.725 zM24.660,10.234 L23.443,10.234 C23.443,10.234 23.443,26.534 23.443,26.534 C23.443,26.870 23.715,27.143 24.051,27.143 C24.387,27.143 24.660,26.870 24.660,26.534 C24.660,26.534 24.660,10.234 24.660,10.234 zM19.789,29.296 C19.789,29.296 1.154,29.296 1.154,29.296 C0.885,29.296 0.667,29.078 0.667,28.809 C0.667,28.809 0.667,2.116 0.667,2.116 C0.667,1.847 0.885,1.629 1.154,1.629 C1.154,1.629 2.795,1.629 2.795,1.629 C2.795,1.629 2.795,0.487 2.795,0.487 C2.795,0.218 3.013,-0.000 3.282,-0.000 C3.551,-0.000 3.769,0.218 3.769,0.487 C3.769,0.487 3.769,1.629 3.769,1.629 L5.637,1.629 C5.637,1.629 5.637,0.487 5.637,0.487 C5.637,0.218 5.855,-0.000 6.124,-0.000 C6.393,-0.000 6.611,0.218 6.611,0.487 C6.611,0.487 6.611,1.629 6.611,1.629 L8.479,1.629 C8.479,1.629 8.479,0.487 8.479,0.487 C8.479,0.218 8.697,-0.000 8.966,-0.000 C9.235,-0.000 9.453,0.218 9.453,0.487 C9.453,0.487 9.453,1.629 9.453,1.629 L11.402,1.629 C11.402,1.629 11.402,0.487 11.402,0.487 C11.402,0.218 11.620,-0.000 11.889,-0.000 C12.158,-0.000 12.376,0.218 12.376,0.487 C12.376,0.487 12.376,1.629 12.376,1.629 L14.244,1.629 C14.244,1.629 14.244,0.487 14.244,0.487 C14.244,0.218 14.462,-0.000 14.731,-0.000 C15.000,-0.000 15.218,0.218 15.218,0.487 C15.218,0.487 15.218,1.629 15.218,1.629 L17.086,1.629 C17.086,1.629 17.086,0.487 17.086,0.487 C17.086,0.218 17.304,-0.000 17.573,-0.000 C17.842,-0.000 18.060,0.218 18.060,0.487 C18.060,0.487 18.060,1.629 18.060,1.629 C18.060,1.629 19.789,1.629 19.789,1.629 C20.058,1.629 20.276,1.847 20.276,2.116 C20.276,2.116 20.276,28.809 20.276,28.809 C20.276,29.078 20.058,29.296 19.789,29.296 zM19.301,2.604 L18.060,2.604 C18.060,2.604 18.060,3.817 18.060,3.817 C18.060,4.086 17.842,4.305 17.573,4.305 C17.568,4.305 17.563,4.305 17.558,4.304 C17.291,4.296 17.086,4.064 17.086,3.797 C17.086,3.797 17.086,2.604 17.086,2.604 L15.218,2.604 C15.218,2.604 15.218,3.817 15.218,3.817 C15.218,4.086 15.000,4.305 14.731,4.305 C14.726,4.305 14.721,4.305 14.716,4.304 C14.449,4.296 14.244,4.064 14.244,3.797 C14.244,3.797 14.244,2.604 14.244,2.604 L12.376,2.604 C12.376,2.604 12.376,3.817 12.376,3.817 C12.376,4.086 12.158,4.305 11.889,4.305 C11.884,4.305 11.879,4.305 11.874,4.304 C11.607,4.296 11.402,4.064 11.402,3.797 C11.402,3.797 11.402,2.604 11.402,2.604 L9.453,2.604 C9.453,2.604 9.453,3.817 9.453,3.817 C9.453,4.086 9.235,4.305 8.966,4.305 C8.961,4.305 8.956,4.305 8.951,4.304 C8.684,4.296 8.479,4.064 8.479,3.797 C8.479,3.797 8.479,2.604 8.479,2.604 L6.611,2.604 C6.611,2.604 6.611,3.817 6.611,3.817 C6.611,4.086 6.393,4.305 6.124,4.305 C6.119,4.305 6.114,4.305 6.109,4.304 C5.842,4.296 5.637,4.064 5.637,3.797 C5.637,3.797 5.637,2.604 5.637,2.604 L3.769,2.604 C3.769,2.604 3.769,3.817 3.769,3.817 C3.769,4.086 3.551,4.305 3.282,4.305 C3.277,4.305 3.272,4.305 3.267,4.304 C3.000,4.296 2.795,4.064 2.795,3.797 C2.795,3.797 2.795,2.604 2.795,2.604 L1.641,2.604 L1.641,26.616 C1.641,26.616 12.074,26.616 12.074,26.616 C12.570,26.616 13.057,26.448 13.432,26.121 C13.961,25.659 14.510,24.785 14.594,23.140 C14.607,22.879 14.820,22.674 15.081,22.674 C15.081,22.674 19.301,22.674 19.301,22.674 L19.301,2.604 zM14.544,26.356 C16.643,25.791 18.064,24.482 18.793,23.648 C18.793,23.648 15.531,23.648 15.531,23.648 C15.436,24.525 15.177,25.546 14.544,26.356 zM19.301,24.548 C18.701,25.194 17.797,25.995 16.584,26.616 C16.584,26.616 19.301,26.616 19.301,26.616 C19.301,26.616 19.301,24.548 19.301,24.548 zM19.301,27.590 L1.641,27.590 L1.641,28.321 L19.301,28.321 L19.301,27.590 zM15.056,17.543 L17.735,17.543 L17.735,18.518 L15.056,18.518 L15.056,17.543 zM9.778,13.807 L17.735,13.807 L17.735,14.782 L9.778,14.782 L9.778,13.807 zM13.919,9.990 L17.735,9.990 L17.735,10.964 L13.919,10.964 L13.919,9.990 zM7.991,6.254 L17.735,6.254 L17.735,7.228 L7.991,7.228 L7.991,6.254 zM11.727,10.964 L3.201,10.964 L3.201,9.990 L11.727,9.990 L11.727,10.964 zM3.201,6.254 L6.286,6.254 L6.286,7.228 L3.201,7.228 L3.201,6.254 zM8.235,14.782 L3.201,14.782 L3.201,13.807 L8.235,13.807 L8.235,14.782 zM5.555,18.518 L3.201,18.518 L3.201,17.543 L5.555,17.543 L5.555,18.518 zM8.235,22.173 L3.201,22.173 L3.201,21.198 L8.235,21.198 L8.235,22.173 zM7.098,17.543 L13.919,17.543 L13.919,18.518 L7.098,18.518 L7.098,17.543 z" fill="#338BC3" /></svg>