<svg xmlns="http://www.w3.org/2000/svg" width="28" height="32" viewBox="0 0 28 32"><path d="M26.846 16.281a.488.488 0 0 1-.487-.487V3.936c0-.497-.298-.923-.724-1.113v23.711c0 .697-.453 1.289-1.079 1.5v.812a.487.487 0 1 1-.974 0v-.799a1.586 1.586 0 0 1-1.114-1.513V2.238c0-.269.218-.487.487-.487 0 0 2.313-.006 2.376 0a2.195 2.195 0 0 1 2.002 2.185v11.858a.488.488 0 0 1-.487.487zM24.66 2.725h-1.217v6.534h1.217V2.725zm0 7.509h-1.217v16.3a.609.609 0 1 0 1.217 0v-16.3zm-4.871 19.062H1.154a.487.487 0 0 1-.487-.487V2.116c0-.269.218-.487.487-.487h1.641V.487a.487.487 0 1 1 .974 0v1.142h1.868V.487a.487.487 0 1 1 .974 0v1.142h1.868V.487a.487.487 0 1 1 .974 0v1.142h1.949V.487a.487.487 0 1 1 .974 0v1.142h1.868V.487a.487.487 0 1 1 .974 0v1.142h1.868V.487a.487.487 0 1 1 .974 0v1.142h1.729c.269 0 .487.218.487.487v26.693a.487.487 0 0 1-.487.487zm-.488-26.692H18.06v1.213a.488.488 0 0 1-.487.488l-.015-.001a.5.5 0 0 1-.472-.507V2.604h-1.868v1.213a.488.488 0 0 1-.487.488l-.015-.001a.5.5 0 0 1-.472-.507V2.604h-1.868v1.213a.488.488 0 0 1-.487.488l-.015-.001a.5.5 0 0 1-.472-.507V2.604H9.453v1.213a.488.488 0 0 1-.487.488l-.015-.001a.5.5 0 0 1-.472-.507V2.604H6.611v1.213a.488.488 0 0 1-.487.488l-.015-.001a.5.5 0 0 1-.472-.507V2.604H3.769v1.213a.488.488 0 0 1-.487.488l-.015-.001a.5.5 0 0 1-.472-.507V2.604H1.641v24.012h10.433c.496 0 .983-.168 1.358-.495.529-.462 1.078-1.336 1.162-2.981a.488.488 0 0 1 .487-.466h4.22V2.604zm-4.757 23.752c2.099-.565 3.52-1.874 4.249-2.708h-3.262c-.095.877-.354 1.898-.987 2.708zm4.757-1.808a9.903 9.903 0 0 1-2.717 2.068h2.717v-2.068zm0 3.042H1.641v.731h17.66v-.731zm-4.245-10.047h2.679v.975h-2.679v-.975zm-5.278-3.736h7.957v.975H9.778v-.975zm4.141-3.817h3.816v.974h-3.816V9.99zM7.991 6.254h9.744v.974H7.991v-.974zm3.736 4.71H3.201V9.99h8.526v.974zm-8.526-4.71h3.085v.974H3.201v-.974zm5.034 8.528H3.201v-.975h5.034v.975zm-2.68 3.736H3.201v-.975h2.354v.975zm2.68 3.655H3.201v-.975h5.034v.975zm-1.137-4.63h6.821v.975H7.098v-.975z" fill="#338BC3"/></svg>