<svg version="1.1" xmlns="http://www.w3.org/2000/svg" xmlns:xlink="http://www.w3.org/1999/xlink" width="45" height="61" viewBox="0 0 45 61"><g id="payment"><path id="Forma-1" d="M15.584,22.147 C18.179,22.147 20.616,21.100 22.446,19.198 C24.025,17.557 25.866,14.524 25.674,9.391 C25.454,3.512 20.880,0.492 16.443,0.026 C16.172,-0.002 15.114,-0.010 14.903,0.009 C10.410,0.412 5.716,3.433 5.493,9.391 C5.302,14.524 7.143,17.557 8.721,19.198 C10.551,21.100 12.988,22.147 15.584,22.147 zM20.447,17.269 C19.145,18.622 17.418,19.367 15.584,19.367 C13.750,19.367 12.023,18.622 10.721,17.269 C9.406,15.902 8.602,14.018 8.346,11.746 C13.366,11.478 18.565,10.265 22.779,8.384 C22.843,8.737 22.885,9.106 22.900,9.496 C23.023,12.785 22.175,15.473 20.447,17.269 zM15.584,2.749 C17.944,2.845 20.343,3.833 21.724,5.812 C17.832,7.566 12.997,8.703 8.307,8.965 C8.730,4.859 12.197,2.886 15.584,2.749 zM32.691,36.351 C25.904,36.351 20.383,41.880 20.383,48.675 C20.383,55.471 25.904,61.000 32.691,61.000 C39.478,61.000 45.000,55.471 45.000,48.675 C45.000,41.880 39.478,36.351 32.691,36.351 zM32.691,58.219 C27.435,58.219 23.159,53.938 23.159,48.675 C23.159,43.412 27.435,39.131 32.691,39.131 C37.947,39.131 42.224,43.412 42.224,48.675 C42.224,53.938 37.947,58.219 32.691,58.219 zM15.876,51.923 C15.876,52.692 15.255,53.314 14.488,53.314 C14.488,53.314 1.387,53.314 1.387,53.314 C0.975,53.314 0.584,53.143 0.320,52.826 C0.056,52.508 -0.053,52.103 0.022,51.697 C0.022,51.697 3.297,34.012 3.297,34.012 C4.445,27.806 10.301,25.027 15.596,25.027 C21.255,25.027 25.924,27.950 27.489,32.472 C27.741,33.198 27.357,33.988 26.632,34.240 C25.908,34.491 25.117,34.106 24.866,33.380 C23.442,29.264 18.982,27.800 15.596,27.800 C11.451,27.800 6.884,29.869 6.027,34.506 C6.027,34.506 3.056,50.534 3.056,50.534 C3.056,50.534 14.488,50.534 14.488,50.534 C15.255,50.534 15.876,51.157 15.876,51.923 z" fill="#208BCE" /><path id="$" d="M36.303,50.066 C35.917,49.638 35.223,49.232 34.219,48.846 C34.219,48.846 33.618,48.617 33.618,48.617 C33.618,48.617 33.618,45.734 33.618,45.734 C34.436,45.797 35.260,45.993 36.089,46.320 C36.089,46.320 36.667,44.871 36.667,44.871 C35.706,44.474 34.689,44.258 33.618,44.221 C33.618,44.221 33.618,42.914 33.618,42.914 L32.564,42.914 C32.564,42.914 32.564,44.245 32.564,44.245 C31.593,44.345 30.823,44.630 30.255,45.100 C29.688,45.570 29.404,46.169 29.404,46.898 C29.404,47.579 29.603,48.151 30.002,48.613 C30.401,49.075 31.033,49.472 31.899,49.805 C31.899,49.805 32.564,50.050 32.564,50.050 C32.564,50.050 32.564,53.013 32.564,53.013 C32.084,53.007 31.540,52.929 30.933,52.779 C30.325,52.628 29.795,52.442 29.341,52.220 C29.341,52.220 29.341,53.892 29.341,53.892 C30.180,54.272 31.255,54.473 32.564,54.494 C32.564,54.494 32.564,56.165 32.564,56.165 L33.618,56.165 C33.618,56.165 33.618,54.446 33.618,54.446 C34.674,54.330 35.481,54.024 36.041,53.527 C36.601,53.031 36.881,52.400 36.881,51.634 C36.881,51.017 36.688,50.494 36.303,50.066 zM33.618,52.949 C33.618,52.949 33.618,50.423 33.618,50.423 C34.119,50.607 34.477,50.799 34.691,50.997 C34.905,51.195 35.012,51.447 35.012,51.753 C35.012,52.408 34.547,52.807 33.618,52.949 C33.618,52.949 33.618,52.949 33.618,52.949 zM31.598,46.154 C31.820,45.958 32.142,45.829 32.564,45.765 C32.564,45.765 32.564,48.229 32.564,48.229 C32.073,48.033 31.734,47.835 31.546,47.635 C31.359,47.434 31.265,47.183 31.265,46.882 C31.265,46.592 31.376,46.349 31.598,46.154 z" fill="#208BCE" /></g></svg>