<svg xmlns="http://www.w3.org/2000/svg" width="45" height="61" viewBox="0 0 45 61"><g fill="#208BCE"><path d="M15.584 22.147c2.595 0 5.032-1.047 6.862-2.949 1.579-1.641 3.42-4.674 3.228-9.807-.22-5.879-4.794-8.899-9.231-9.365a17.057 17.057 0 0 0-1.54-.017c-4.493.403-9.187 3.424-9.41 9.382-.191 5.133 1.65 8.166 3.228 9.807 1.83 1.902 4.267 2.949 6.863 2.949zm4.863-4.878c-1.302 1.353-3.029 2.098-4.863 2.098-1.834 0-3.561-.745-4.863-2.098-1.315-1.367-2.119-3.251-2.375-5.523 5.02-.268 10.219-1.481 14.433-3.362.064.353.106.722.121 1.112.123 3.289-.725 5.977-2.453 7.773zm-4.863-14.52c2.36.096 4.759 1.084 6.14 3.063-3.892 1.754-8.727 2.891-13.417 3.153.423-4.106 3.89-6.079 7.277-6.216zm17.107 33.602c-6.787 0-12.308 5.529-12.308 12.324C20.383 55.471 25.904 61 32.691 61S45 55.471 45 48.675c0-6.795-5.522-12.324-12.309-12.324zm0 21.868c-5.256 0-9.532-4.281-9.532-9.544 0-5.263 4.276-9.544 9.532-9.544s9.533 4.281 9.533 9.544c0 5.263-4.277 9.544-9.533 9.544zm-16.815-6.296c0 .769-.621 1.391-1.388 1.391H1.387c-.412 0-.803-.171-1.067-.488a1.363 1.363 0 0 1-.298-1.129l3.275-17.685c1.148-6.206 7.004-8.985 12.299-8.985 5.659 0 10.328 2.923 11.893 7.445a1.389 1.389 0 1 1-2.623.908c-1.424-4.116-5.884-5.58-9.27-5.58-4.145 0-8.712 2.069-9.569 6.706L3.056 50.534h11.432c.767 0 1.388.623 1.388 1.389z"/><path d="M36.303 50.066c-.386-.428-1.08-.834-2.084-1.22l-.601-.229v-2.883a8.496 8.496 0 0 1 2.471.586l.578-1.449a8.708 8.708 0 0 0-3.049-.65v-1.307h-1.054v1.331c-.971.1-1.741.385-2.309.855-.567.47-.851 1.069-.851 1.798 0 .681.199 1.253.598 1.715.399.462 1.031.859 1.897 1.192l.665.245v2.963a7.26 7.26 0 0 1-1.631-.234 8.04 8.04 0 0 1-1.592-.559v1.672c.839.38 1.914.581 3.223.602v1.671h1.054v-1.719c1.056-.116 1.863-.422 2.423-.919.56-.496.84-1.127.84-1.893 0-.617-.193-1.14-.578-1.568zm-2.685 2.883v-2.526c.501.184.859.376 1.073.574.214.198.321.45.321.756 0 .655-.465 1.054-1.394 1.196zm-2.02-6.795c.222-.196.544-.325.966-.389v2.464c-.491-.196-.83-.394-1.018-.594a1.063 1.063 0 0 1-.281-.753.93.93 0 0 1 .333-.728z"/></g></svg>