<svg xmlns="http://www.w3.org/2000/svg" width="45" height="61" viewBox="0 0 45 61"><path d="M11.008 21.074a9.153 9.153 0 0 0 4.758 1.336c1.645 0 3.29-.445 4.757-1.336 3.491-2.119 5.384-6.312 5.194-11.502-.201-5.484-4.088-8.496-8.139-9.281-.04-.01-.501-.077-.971-.131a12.02 12.02 0 0 0-1.53-.021c-.217.019-.439.04-.593.063-4.236.617-8.46 3.648-8.67 9.371-.19 5.189 1.703 9.382 5.194 11.501zm7.396-17.675c2.45.889 4.455 2.935 4.577 6.277l.006.178c-2.258.647-4.65.011-6.371-1.689.873-1.361 1.48-2.973 1.788-4.766zM8.583 9.181c.398-4.139 3.797-6.135 7.132-6.292-.332 2.007-1.064 3.42-1.856 4.403-.036.039-.811.875-1.15 1.142a6.511 6.511 0 0 1-4.164 1.412c.001-.056.023-.503.038-.665zm5.799 1.469c.149-.119.295-.241.437-.367 2.175 2.091 5.096 2.992 7.961 2.485-.477 2.661-1.743 4.74-3.655 5.9a6.45 6.45 0 0 1-6.719 0c-1.941-1.178-3.217-3.302-3.676-6.023a9.235 9.235 0 0 0 5.652-1.995zm30.305 26.887l-.543 4.96c-.084.769-.76 1.321-1.512 1.235-.752-.086-1.293-.778-1.209-1.545l.108-.989-3.847 3.932a10.909 10.909 0 0 1 1.196 4.985c0 5.933-4.724 10.759-10.53 10.759-5.806 0-10.529-4.826-10.529-10.759 0-5.934 4.723-10.761 10.529-10.761 1.262 0 2.496.226 3.67.672a1.41 1.41 0 0 1 .806 1.799 1.36 1.36 0 0 1-1.76.823 7.628 7.628 0 0 0-2.716-.496c-4.296 0-7.791 3.572-7.791 7.963 0 4.39 3.495 7.961 7.791 7.961 4.297 0 7.792-3.571 7.792-7.961 0-.993-.179-1.966-.523-2.875l-1.875 1.917c-.257.262-.605.41-.968.41h-4.283l-2.883 2.946a1.348 1.348 0 0 1-1.936-.001 1.42 1.42 0 0 1 0-1.978l3.284-3.356c.257-.263.605-.41.968-.41h4.282l7.387-7.549-.967.11c-.751.086-1.428-.469-1.513-1.236-.083-.768.458-1.463 1.209-1.548 0 0 4.893-.573 4.915-.573h.003c.228 0 .461.039.677.144.524.258.832.831.768 1.421zm-27.47-4.369a1.42 1.42 0 0 1-.215-1.967l2.057-2.631a12.032 12.032 0 0 0-3.293-.462 12.036 12.036 0 0 0-3.293.461l2.057 2.63a1.419 1.419 0 0 1-.215 1.964 1.35 1.35 0 0 1-1.925-.224l-2.523-3.235c-1.756 1.104-3.104 2.781-3.529 5.126l-2.92 16.112h10.101c.756 0 1.369.627 1.369 1.398 0 .773-.613 1.4-1.369 1.4H1.773c-.406 0-.792-.147-1.052-.467a1.339 1.339 0 0 1-.294-1.112L3.646 34.37c1.128-6.222 6.861-9.03 12.071-9.03h.1c5.21 0 10.942 2.807 12.07 9.03l.03.147c.137.76-.354 1.49-1.098 1.631a1.374 1.374 0 0 1-1.595-1.122l-.029-.162c-.425-2.345-1.774-4.038-3.53-5.144l-2.524 3.228a1.35 1.35 0 0 1-1.924.22z" fill="#208BCE"/></svg>