<svg version="1.1" xmlns="http://www.w3.org/2000/svg" xmlns:xlink="http://www.w3.org/1999/xlink" width="36" height="36" viewBox="0 0 36 36"><g id="-Block4.1_prev"><g id="circle" ><path id="circle-fill" d="M17.792,0.469 C27.336,0.469 35.073,8.206 35.073,17.750 C35.073,27.294 27.336,35.031 17.792,35.031 C8.247,35.031 0.510,27.294 0.510,17.750 C0.510,8.206 8.247,0.469 17.792,0.469 z" fill="#FFFFFF" /><path id="circle-stroke" d="M17.792,0.573 C27.278,0.573 34.969,8.263 34.969,17.750 C34.969,27.237 27.278,34.927 17.792,34.927 C8.305,34.927 0.615,27.237 0.615,17.750 C0.615,8.263 8.305,0.573 17.792,0.573 z" fill="none" stroke="#ECECEC" stroke-opacity="1.000" stroke-width="0.66666666666667" /></g><path id="" d="M19.713,24.809 L19.164,25.116 L14.061,18.170 L14.004,18.138 L14.020,18.115 L13.954,18.025 L14.173,17.903 L19.124,11.032 L19.663,11.337 L14.787,18.106 L19.713,24.809 z" fill="#C8C8C8" /></g></svg>