<svg xmlns="http://www.w3.org/2000/svg" width="36" height="36" viewBox="0 0 36 36"><path d="M17.792.469c9.544 0 17.281 7.737 17.281 17.281 0 9.544-7.737 17.281-17.281 17.281C8.247 35.031.51 27.294.51 17.75.51 8.206 8.247.469 17.792.469z" fill="#FFF"/><path d="M17.792.573c9.486 0 17.177 7.69 17.177 17.177 0 9.487-7.691 17.177-17.177 17.177-9.487 0-17.177-7.69-17.177-17.177C.615 8.263 8.305.573 17.792.573z" fill="none" stroke="#ECECEC" stroke-width=".667"/><path d="M19.713 24.809l-.549.307-5.103-6.946-.057-.032.016-.023-.066-.09.219-.122 4.951-6.871.539.305-4.876 6.769 4.926 6.703z" fill="#C8C8C8"/></svg>