<svg version="1.1" xmlns="http://www.w3.org/2000/svg" xmlns:xlink="http://www.w3.org/1999/xlink" width="148" height="68" viewBox="0 0 148 68"><g id="-icon_price_from"><path id="Rectangle-31-cop" d="M75.000,61.500 L73.500,61.500 L79.500,55.500 L81.000,55.500 L75.000,61.500 zM67.500,61.500 L73.500,55.500 L75.000,55.500 L69.000,61.500 L67.500,61.500 zM61.500,61.500 L67.500,55.500 L69.000,55.500 L63.000,61.500 L61.500,61.500 zM55.500,61.500 L61.500,55.500 L63.000,55.500 L57.000,61.500 L55.500,61.500 zM49.500,61.500 L55.500,55.500 L57.000,55.500 L51.000,61.500 L49.500,61.500 zM43.500,61.500 L49.500,55.500 L51.000,55.500 L45.000,61.500 L43.500,61.500 zM37.500,61.500 L43.500,55.500 L45.000,55.500 L39.000,61.500 L37.500,61.500 zM31.500,61.500 L37.500,55.500 L39.000,55.500 L33.000,61.500 L31.500,61.500 z" fill="#2E8DD6" /><path id="Rectangle-31-cop" d="M107.000,61.500 L105.500,61.500 L111.500,55.500 L113.000,55.500 L107.000,61.500 zM99.500,61.500 L105.500,55.500 L107.000,55.500 L101.000,61.500 L99.500,61.500 zM93.500,61.500 L99.500,55.500 L101.000,55.500 L95.000,61.500 L93.500,61.500 zM87.500,61.500 L93.500,55.500 L95.000,55.500 L89.000,61.500 L87.500,61.500 zM81.500,61.500 L87.500,55.500 L89.000,55.500 L83.000,61.500 L81.500,61.500 z" fill="#9ACDF4" /><path id="Rectangle-31-cop" d="M14.000,61.500 L12.500,61.500 L18.500,55.500 L20.000,55.500 L14.000,61.500 zM6.500,61.500 L12.500,55.500 L14.000,55.500 L8.000,61.500 L6.500,61.500 zM0.500,61.500 L6.500,55.500 L8.000,55.500 L2.000,61.500 L0.500,61.500 z" fill="#CCCCCC" /><path id="Rectangle-31-cop" d="M141.000,61.500 L139.500,61.500 L145.500,55.500 L147.000,55.500 L141.000,61.500 zM133.500,61.500 L139.500,55.500 L141.000,55.500 L135.000,61.500 L133.500,61.500 zM127.500,61.500 L133.500,55.500 L135.000,55.500 L129.000,61.500 L127.500,61.500 z" fill="#CCCCCC" /><g id="Forma-1" ><path id="Forma-1-stroke" d="M30.533,25.265 C32.995,34.542 25.756,38.365 24.500,48.261 C24.398,49.065 23.380,49.336 22.893,48.692 C17.493,41.537 10.324,41.114 7.164,34.294 C4.053,27.580 7.088,19.357 14.015,16.761 C21.061,14.121 28.647,18.159 30.533,25.265 z" fill="none" stroke="#1C75BA" stroke-width="2" /></g><path id="20" d="M25.148,32.716 C24.581,33.577 23.714,34.007 22.548,34.007 C21.418,34.007 20.562,33.563 19.979,32.674 C19.395,31.785 19.104,30.482 19.104,28.764 C19.104,26.963 19.387,25.636 19.954,24.781 C20.521,23.927 21.386,23.500 22.548,23.500 C23.682,23.500 24.540,23.947 25.124,24.841 C25.707,25.734 25.999,27.042 25.999,28.764 C25.999,30.537 25.715,31.855 25.148,32.716 zM23.919,25.794 C23.630,25.182 23.173,24.876 22.548,24.876 C21.923,24.876 21.468,25.176 21.183,25.776 C20.899,26.377 20.756,27.373 20.756,28.764 C20.756,30.156 20.899,31.149 21.183,31.745 C21.468,32.341 21.923,32.639 22.548,32.639 C23.173,32.639 23.630,32.336 23.919,31.731 C24.208,31.126 24.353,30.137 24.353,28.764 C24.353,27.396 24.208,26.406 23.919,25.794 zM11.000,32.625 C11.000,32.625 13.618,29.979 13.618,29.979 C14.391,29.183 14.904,28.619 15.156,28.286 C15.408,27.953 15.592,27.640 15.708,27.347 C15.824,27.054 15.882,26.740 15.882,26.404 C15.882,25.944 15.744,25.581 15.469,25.315 C15.193,25.050 14.812,24.917 14.326,24.917 C13.938,24.917 13.561,24.990 13.198,25.134 C12.835,25.278 12.415,25.539 11.938,25.916 C11.938,25.916 11.056,24.834 11.056,24.834 C11.621,24.354 12.169,24.014 12.702,23.814 C13.234,23.614 13.801,23.514 14.403,23.514 C15.347,23.514 16.104,23.762 16.673,24.258 C17.243,24.753 17.527,25.420 17.527,26.258 C17.527,26.719 17.445,27.156 17.281,27.571 C17.117,27.985 16.864,28.412 16.524,28.852 C16.184,29.292 15.618,29.886 14.826,30.635 C14.826,30.635 13.063,32.353 13.063,32.353 L13.063,32.422 L17.882,32.422 L17.882,33.868 L11.000,33.868 L11.000,32.625 z" fill="#1C75BA" /><path id="600" d="M140.056,20.369 C139.966,20.978 139.795,21.536 139.543,22.044 C139.291,22.553 138.939,22.971 138.488,23.299 C138.036,23.627 137.454,23.791 136.742,23.791 C136.029,23.791 135.447,23.627 134.995,23.299 C134.544,22.971 134.192,22.553 133.940,22.044 C133.688,21.536 133.517,20.978 133.427,20.369 C133.337,19.761 133.292,19.172 133.292,18.602 C133.292,18.032 133.337,17.442 133.427,16.834 C133.517,16.226 133.688,15.668 133.940,15.159 C134.192,14.651 134.544,14.232 134.995,13.905 C135.447,13.577 136.029,13.413 136.742,13.413 C137.454,13.413 138.036,13.577 138.488,13.905 C138.939,14.232 139.291,14.651 139.543,15.159 C139.795,15.668 139.966,16.226 140.056,16.834 C140.146,17.442 140.191,18.032 140.191,18.602 C140.191,19.172 140.146,19.761 140.056,20.369 zM138.481,17.126 C138.424,16.665 138.326,16.259 138.189,15.907 C138.051,15.556 137.863,15.278 137.625,15.073 C137.388,14.869 137.093,14.767 136.742,14.767 C136.380,14.767 136.083,14.869 135.851,15.073 C135.618,15.278 135.432,15.556 135.295,15.907 C135.157,16.259 135.059,16.665 135.002,17.126 C134.945,17.587 134.917,18.079 134.917,18.602 C134.917,19.125 134.945,19.619 135.002,20.084 C135.059,20.550 135.157,20.956 135.295,21.303 C135.432,21.650 135.618,21.926 135.851,22.130 C136.083,22.334 136.380,22.436 136.742,22.436 C137.093,22.436 137.388,22.334 137.625,22.130 C137.863,21.926 138.051,21.650 138.189,21.303 C138.326,20.956 138.424,20.550 138.481,20.084 C138.538,19.619 138.566,19.125 138.566,18.602 C138.566,18.079 138.538,17.587 138.481,17.126 zM131.617,22.044 C131.365,22.553 131.013,22.971 130.562,23.299 C130.110,23.627 129.528,23.791 128.816,23.791 C128.103,23.791 127.521,23.627 127.069,23.299 C126.618,22.971 126.266,22.553 126.014,22.044 C125.762,21.536 125.591,20.978 125.501,20.369 C125.411,19.761 125.366,19.172 125.366,18.602 C125.366,18.032 125.411,17.442 125.501,16.834 C125.591,16.226 125.762,15.668 126.014,15.159 C126.266,14.651 126.618,14.232 127.069,13.905 C127.521,13.577 128.103,13.413 128.816,13.413 C129.528,13.413 130.110,13.577 130.562,13.905 C131.013,14.232 131.365,14.651 131.617,15.159 C131.868,15.668 132.040,16.226 132.130,16.834 C132.220,17.442 132.265,18.032 132.265,18.602 C132.265,19.172 132.220,19.761 132.130,20.369 C132.040,20.978 131.868,21.536 131.617,22.044 zM130.555,17.126 C130.498,16.665 130.400,16.259 130.262,15.907 C130.125,15.556 129.937,15.278 129.699,15.073 C129.462,14.869 129.167,14.767 128.816,14.767 C128.454,14.767 128.157,14.869 127.925,15.073 C127.692,15.278 127.506,15.556 127.369,15.907 C127.231,16.259 127.133,16.665 127.076,17.126 C127.019,17.587 126.991,18.079 126.991,18.602 C126.991,19.125 127.019,19.619 127.076,20.084 C127.133,20.550 127.231,20.956 127.369,21.303 C127.506,21.650 127.692,21.926 127.925,22.130 C128.157,22.334 128.454,22.436 128.816,22.436 C129.167,22.436 129.462,22.334 129.699,22.130 C129.937,21.926 130.125,21.650 130.262,21.303 C130.400,20.956 130.498,20.550 130.555,20.084 C130.612,19.619 130.640,19.125 130.640,18.602 C130.640,18.079 130.612,17.587 130.555,17.126 zM119.970,17.326 C120.355,17.131 120.771,17.034 121.217,17.034 C121.711,17.034 122.153,17.119 122.543,17.290 C122.933,17.461 123.263,17.697 123.534,17.996 C123.805,18.295 124.011,18.649 124.154,19.058 C124.297,19.467 124.368,19.909 124.368,20.384 C124.368,20.868 124.289,21.317 124.133,21.731 C123.976,22.144 123.750,22.506 123.455,22.814 C123.161,23.123 122.809,23.363 122.401,23.534 C121.992,23.705 121.540,23.791 121.046,23.791 C120.314,23.791 119.713,23.655 119.243,23.384 C118.773,23.114 118.402,22.743 118.131,22.273 C117.860,21.802 117.672,21.251 117.568,20.619 C117.463,19.987 117.411,19.305 117.411,18.573 C117.411,17.974 117.475,17.371 117.604,16.763 C117.732,16.155 117.943,15.601 118.238,15.102 C118.532,14.603 118.920,14.197 119.400,13.883 C119.880,13.570 120.471,13.413 121.175,13.413 C121.574,13.413 121.949,13.479 122.301,13.612 C122.652,13.746 122.964,13.931 123.235,14.168 C123.505,14.406 123.726,14.691 123.897,15.024 C124.068,15.356 124.163,15.727 124.183,16.136 C124.183,16.136 122.557,16.136 122.557,16.136 C122.519,15.727 122.374,15.397 122.123,15.145 C121.871,14.893 121.531,14.767 121.103,14.767 C120.809,14.767 120.554,14.822 120.341,14.931 C120.127,15.040 119.946,15.185 119.799,15.366 C119.651,15.546 119.533,15.753 119.443,15.986 C119.352,16.219 119.279,16.463 119.222,16.720 C119.165,16.977 119.124,17.231 119.100,17.483 C119.077,17.735 119.055,17.970 119.036,18.188 C119.036,18.188 119.065,18.217 119.065,18.217 C119.283,17.818 119.585,17.521 119.970,17.326 zM119.307,21.139 C119.383,21.386 119.497,21.607 119.649,21.802 C119.801,21.997 119.989,22.151 120.212,22.265 C120.436,22.379 120.695,22.436 120.989,22.436 C121.284,22.436 121.540,22.377 121.759,22.258 C121.978,22.140 122.160,21.985 122.308,21.795 C122.455,21.605 122.565,21.384 122.636,21.132 C122.707,20.880 122.743,20.621 122.743,20.355 C122.743,20.089 122.707,19.833 122.636,19.585 C122.565,19.338 122.455,19.122 122.308,18.937 C122.160,18.751 121.978,18.602 121.759,18.488 C121.540,18.374 121.284,18.317 120.989,18.317 C120.695,18.317 120.436,18.371 120.212,18.481 C119.989,18.590 119.801,18.737 119.649,18.922 C119.497,19.108 119.383,19.324 119.307,19.571 C119.231,19.818 119.193,20.080 119.193,20.355 C119.193,20.631 119.231,20.892 119.307,21.139 z" fill="#9ACDF4" /><path id="130" d="M84.056,23.369 C83.966,23.978 83.795,24.536 83.543,25.044 C83.291,25.553 82.939,25.971 82.488,26.299 C82.036,26.627 81.454,26.791 80.742,26.791 C80.029,26.791 79.447,26.627 78.995,26.299 C78.544,25.971 78.192,25.553 77.940,25.044 C77.688,24.536 77.517,23.978 77.427,23.369 C77.337,22.761 77.292,22.172 77.292,21.602 C77.292,21.032 77.337,20.442 77.427,19.834 C77.517,19.226 77.688,18.668 77.940,18.159 C78.192,17.651 78.544,17.232 78.995,16.905 C79.447,16.577 80.029,16.413 80.742,16.413 C81.454,16.413 82.036,16.577 82.488,16.905 C82.939,17.232 83.291,17.651 83.543,18.159 C83.795,18.668 83.966,19.226 84.056,19.834 C84.146,20.442 84.191,21.032 84.191,21.602 C84.191,22.172 84.146,22.761 84.056,23.369 zM82.481,20.126 C82.424,19.665 82.326,19.259 82.189,18.907 C82.051,18.556 81.863,18.278 81.625,18.073 C81.388,17.869 81.093,17.767 80.742,17.767 C80.380,17.767 80.083,17.869 79.851,18.073 C79.618,18.278 79.432,18.556 79.295,18.907 C79.157,19.259 79.059,19.665 79.002,20.126 C78.945,20.587 78.917,21.079 78.917,21.602 C78.917,22.125 78.945,22.619 79.002,23.084 C79.059,23.550 79.157,23.956 79.295,24.303 C79.432,24.650 79.618,24.926 79.851,25.130 C80.083,25.334 80.380,25.436 80.742,25.436 C81.093,25.436 81.388,25.334 81.625,25.130 C81.863,24.926 82.051,24.650 82.189,24.303 C82.326,23.956 82.424,23.550 82.481,23.084 C82.538,22.619 82.566,22.125 82.566,21.602 C82.566,21.079 82.538,20.587 82.481,20.126 zM75.859,22.094 C76.177,22.545 76.337,23.094 76.337,23.740 C76.337,24.215 76.242,24.641 76.052,25.016 C75.861,25.391 75.605,25.710 75.282,25.971 C74.959,26.233 74.583,26.434 74.156,26.577 C73.728,26.719 73.276,26.791 72.801,26.791 C72.221,26.791 71.715,26.707 71.283,26.541 C70.851,26.375 70.489,26.140 70.200,25.836 C69.910,25.532 69.689,25.166 69.537,24.738 C69.385,24.310 69.304,23.835 69.294,23.312 C69.294,23.312 70.920,23.312 70.920,23.312 C70.900,23.921 71.050,24.427 71.369,24.831 C71.687,25.235 72.164,25.436 72.801,25.436 C73.343,25.436 73.797,25.282 74.163,24.973 C74.528,24.664 74.712,24.225 74.712,23.655 C74.712,23.265 74.635,22.956 74.483,22.728 C74.331,22.500 74.132,22.327 73.885,22.208 C73.637,22.089 73.359,22.015 73.051,21.987 C72.742,21.958 72.426,21.949 72.103,21.958 C72.103,21.958 72.103,20.746 72.103,20.746 C72.369,20.756 72.635,20.737 72.901,20.689 C73.167,20.642 73.405,20.559 73.614,20.440 C73.823,20.321 73.992,20.157 74.120,19.948 C74.248,19.739 74.312,19.483 74.312,19.178 C74.312,18.751 74.167,18.408 73.878,18.152 C73.588,17.895 73.215,17.767 72.759,17.767 C72.473,17.767 72.226,17.824 72.017,17.938 C71.808,18.052 71.635,18.207 71.497,18.401 C71.359,18.596 71.257,18.815 71.190,19.057 C71.124,19.299 71.095,19.549 71.105,19.806 C71.105,19.806 69.480,19.806 69.480,19.806 C69.499,19.321 69.589,18.872 69.751,18.458 C69.912,18.045 70.133,17.686 70.413,17.382 C70.694,17.078 71.034,16.840 71.433,16.669 C71.832,16.498 72.283,16.413 72.787,16.413 C73.177,16.413 73.559,16.470 73.935,16.584 C74.310,16.698 74.647,16.864 74.947,17.083 C75.246,17.301 75.486,17.579 75.667,17.917 C75.847,18.254 75.938,18.641 75.938,19.079 C75.938,19.582 75.823,20.022 75.595,20.397 C75.367,20.773 75.011,21.046 74.526,21.217 C74.526,21.217 74.526,21.245 74.526,21.245 C75.096,21.359 75.541,21.642 75.859,22.094 zM64.134,19.549 L61.682,19.549 C61.682,19.549 61.682,18.266 61.682,18.266 C62.024,18.266 62.357,18.237 62.680,18.180 C63.003,18.123 63.295,18.029 63.557,17.895 C63.818,17.762 64.041,17.591 64.227,17.382 C64.412,17.173 64.533,16.917 64.590,16.612 C64.590,16.612 65.916,16.612 65.916,16.612 L65.916,26.591 L64.134,26.591 L64.134,19.549 z" fill="#1C75BA" /><g id="Forma-1-copy" ><path id="Forma-1-copy-stroke" d="M146.213,23.067 C143.452,36.799 131.703,37.007 123.768,49.091 C123.123,50.073 121.641,49.755 121.427,48.592 C119.054,35.689 110.108,30.402 110.401,19.415 C110.690,8.598 119.843,-0.128 130.408,1.060 C141.152,2.268 148.327,12.548 146.213,23.067 z" fill="none" stroke="#9ACDF4" stroke-width="2" /></g><g id="Forma-1-copy-2" ><path id="Forma-1-copy-2-stroke" d="M89.050,22.585 C88.828,34.267 78.912,36.258 74.055,47.391 C73.660,48.296 72.357,48.265 71.996,47.345 C68.000,37.138 59.611,34.191 58.167,25.141 C56.746,16.231 63.151,7.662 72.279,6.998 C81.562,6.323 89.220,13.636 89.050,22.585 z" fill="none" stroke="#1C75BA" stroke-width="2" /></g><g id="Ellipse-17-copy-" ><path id="Ellipse-17-copy--fill" d="M73.500,51.500 C77.366,51.500 80.500,54.634 80.500,58.500 C80.500,62.366 77.366,65.500 73.500,65.500 C69.634,65.500 66.500,62.366 66.500,58.500 C66.500,54.634 69.634,51.500 73.500,51.500 z" fill="#FFFFFF" /><path id="Ellipse-17-copy--stroke" d="M73.500,51.943 C77.121,51.943 80.057,54.879 80.057,58.500 C80.057,62.121 77.121,65.057 73.500,65.057 C69.879,65.057 66.943,62.121 66.943,58.500 C66.943,54.879 69.879,51.943 73.500,51.943 z" fill="none" stroke="#1C75BA" stroke-width="1" /></g><path id="Ellipse-17-copy-" d="M73.500,56.000 C74.881,56.000 76.000,57.119 76.000,58.500 C76.000,59.881 74.881,61.000 73.500,61.000 C72.119,61.000 71.000,59.881 71.000,58.500 C71.000,57.119 72.119,56.000 73.500,56.000 z" fill="#1C75BA" /><g id="Ellipse-17-copy-" ><path id="Ellipse-17-copy--fill" d="M119.500,51.500 C123.366,51.500 126.500,54.634 126.500,58.500 C126.500,62.366 123.366,65.500 119.500,65.500 C115.634,65.500 112.500,62.366 112.500,58.500 C112.500,54.634 115.634,51.500 119.500,51.500 z" fill="#FFFFFF" /><path id="Ellipse-17-copy--stroke" d="M119.500,51.943 C123.121,51.943 126.057,54.879 126.057,58.500 C126.057,62.121 123.121,65.057 119.500,65.057 C115.879,65.057 112.943,62.121 112.943,58.500 C112.943,54.879 115.879,51.943 119.500,51.943 z" fill="none" stroke="#9ACDF4" stroke-width="1" /></g><path id="Ellipse-17-copy-" d="M119.500,56.000 C120.881,56.000 122.000,57.119 122.000,58.500 C122.000,59.881 120.881,61.000 119.500,61.000 C118.119,61.000 117.000,59.881 117.000,58.500 C117.000,57.119 118.119,56.000 119.500,56.000 z" fill="#9ACDF4" /><g id="Ellipse-17-copy-" ><path id="Ellipse-17-copy--fill" d="M25.500,51.500 C29.366,51.500 32.500,54.634 32.500,58.500 C32.500,62.366 29.366,65.500 25.500,65.500 C21.634,65.500 18.500,62.366 18.500,58.500 C18.500,54.634 21.634,51.500 25.500,51.500 z" fill="#FFFFFF" /><path id="Ellipse-17-copy--stroke" d="M25.500,51.943 C29.121,51.943 32.057,54.879 32.057,58.500 C32.057,62.121 29.121,65.057 25.500,65.057 C21.879,65.057 18.943,62.121 18.943,58.500 C18.943,54.879 21.879,51.943 25.500,51.943 z" fill="none" stroke="#1C75BA" stroke-width="1" /></g><path id="Ellipse-17-copy-" d="M25.500,56.000 C26.881,56.000 28.000,57.119 28.000,58.500 C28.000,59.881 26.881,61.000 25.500,61.000 C24.119,61.000 23.000,59.881 23.000,58.500 C23.000,57.119 24.119,56.000 25.500,56.000 z" fill="#1C75BA" /></g></svg>