<svg xmlns="http://www.w3.org/2000/svg" width="148" height="68" viewBox="0 0 148 68"><path d="M75 61.5h-1.5l6-6H81l-6 6zm-7.5 0l6-6H75l-6 6h-1.5zm-6 0l6-6H69l-6 6h-1.5zm-6 0l6-6H63l-6 6h-1.5zm-6 0l6-6H57l-6 6h-1.5zm-6 0l6-6H51l-6 6h-1.5zm-6 0l6-6H45l-6 6h-1.5zm-6 0l6-6H39l-6 6h-1.5z" fill="#2E8DD6"/><path d="M107 61.5h-1.5l6-6h1.5l-6 6zm-7.5 0l6-6h1.5l-6 6h-1.5zm-6 0l6-6h1.5l-6 6h-1.5zm-6 0l6-6H95l-6 6h-1.5zm-6 0l6-6H89l-6 6h-1.5z" fill="#9ACDF4"/><path d="M14 61.5h-1.5l6-6H20l-6 6zm-7.5 0l6-6H14l-6 6H6.5zm-6 0l6-6H8l-6 6H.5zM141 61.5h-1.5l6-6h1.5l-6 6zm-7.5 0l6-6h1.5l-6 6h-1.5zm-6 0l6-6h1.5l-6 6h-1.5z" fill="#CCC"/><path d="M30.533 25.265c2.462 9.277-4.777 13.1-6.033 22.996-.102.804-1.12 1.075-1.607.431-5.4-7.155-12.569-7.578-15.729-14.398-3.111-6.714-.076-14.937 6.851-17.533 7.046-2.64 14.632 1.398 16.518 8.504z" fill="none" stroke="#1C75BA" stroke-width="2"/><path d="M25.148 32.716c-.567.861-1.434 1.291-2.6 1.291-1.13 0-1.986-.444-2.569-1.333-.584-.889-.875-2.192-.875-3.91 0-1.801.283-3.128.85-3.983.567-.854 1.432-1.281 2.594-1.281 1.134 0 1.992.447 2.576 1.341.583.893.875 2.201.875 3.923 0 1.773-.284 3.091-.851 3.952zm-1.229-6.922c-.289-.612-.746-.918-1.371-.918s-1.08.3-1.365.9c-.284.601-.427 1.597-.427 2.988 0 1.392.143 2.385.427 2.981.285.596.74.894 1.365.894s1.082-.303 1.371-.908c.289-.605.434-1.594.434-2.967 0-1.368-.145-2.358-.434-2.97zM11 32.625l2.618-2.646c.773-.796 1.286-1.36 1.538-1.693.252-.333.436-.646.552-.939.116-.293.174-.607.174-.943 0-.46-.138-.823-.413-1.089-.276-.265-.657-.398-1.143-.398-.388 0-.765.073-1.128.217-.363.144-.783.405-1.26.782l-.882-1.082c.565-.48 1.113-.82 1.646-1.02.532-.2 1.099-.3 1.701-.3.944 0 1.701.248 2.27.744.57.495.854 1.162.854 2 0 .461-.082.898-.246 1.313a5.346 5.346 0 0 1-.757 1.281c-.34.44-.906 1.034-1.698 1.783l-1.763 1.718v.069h4.819v1.446H11v-1.243z" fill="#1C75BA"/><path d="M140.056 20.369a5.577 5.577 0 0 1-.513 1.675 3.384 3.384 0 0 1-1.055 1.255c-.452.328-1.034.492-1.746.492-.713 0-1.295-.164-1.747-.492a3.384 3.384 0 0 1-1.055-1.255 5.577 5.577 0 0 1-.513-1.675 12.066 12.066 0 0 1-.135-1.767c0-.57.045-1.16.135-1.768.09-.608.261-1.166.513-1.675a3.38 3.38 0 0 1 1.055-1.254c.452-.328 1.034-.492 1.747-.492.712 0 1.294.164 1.746.492a3.38 3.38 0 0 1 1.055 1.254c.252.509.423 1.067.513 1.675.09.608.135 1.198.135 1.768 0 .57-.045 1.159-.135 1.767zm-1.575-3.243a5.081 5.081 0 0 0-.292-1.219 2.079 2.079 0 0 0-.564-.834c-.237-.204-.532-.306-.883-.306-.362 0-.659.102-.891.306a2.107 2.107 0 0 0-.556.834 5.033 5.033 0 0 0-.293 1.219 12.05 12.05 0 0 0-.085 1.476c0 .523.028 1.017.085 1.482.057.466.155.872.293 1.219.137.347.323.623.556.827.232.204.529.306.891.306.351 0 .646-.102.883-.306.238-.204.426-.48.564-.827.137-.347.235-.753.292-1.219.057-.465.085-.959.085-1.482s-.028-1.015-.085-1.476zm-6.864 4.918a3.384 3.384 0 0 1-1.055 1.255c-.452.328-1.034.492-1.746.492-.713 0-1.295-.164-1.747-.492a3.384 3.384 0 0 1-1.055-1.255 5.577 5.577 0 0 1-.513-1.675 12.066 12.066 0 0 1-.135-1.767c0-.57.045-1.16.135-1.768.09-.608.261-1.166.513-1.675a3.38 3.38 0 0 1 1.055-1.254c.452-.328 1.034-.492 1.747-.492.712 0 1.294.164 1.746.492a3.38 3.38 0 0 1 1.055 1.254c.251.509.423 1.067.513 1.675.09.608.135 1.198.135 1.768 0 .57-.045 1.159-.135 1.767a5.606 5.606 0 0 1-.513 1.675zm-1.062-4.918a5.033 5.033 0 0 0-.293-1.219 2.067 2.067 0 0 0-.563-.834c-.237-.204-.532-.306-.883-.306-.362 0-.659.102-.891.306a2.107 2.107 0 0 0-.556.834 5.033 5.033 0 0 0-.293 1.219 12.05 12.05 0 0 0-.085 1.476c0 .523.028 1.017.085 1.482.057.466.155.872.293 1.219.137.347.323.623.556.827.232.204.529.306.891.306.351 0 .646-.102.883-.306.238-.204.426-.48.563-.827a4.92 4.92 0 0 0 .293-1.219c.057-.465.085-.959.085-1.482s-.028-1.015-.085-1.476zm-10.585.2a2.721 2.721 0 0 1 1.247-.292c.494 0 .936.085 1.326.256.39.171.72.407.991.706s.477.653.62 1.062c.143.409.214.851.214 1.326 0 .484-.079.933-.235 1.347a3.183 3.183 0 0 1-.678 1.083 3.08 3.08 0 0 1-1.054.72 3.48 3.48 0 0 1-1.355.257c-.732 0-1.333-.136-1.803-.407a2.972 2.972 0 0 1-1.112-1.111c-.271-.471-.459-1.022-.563-1.654a12.5 12.5 0 0 1-.157-2.046c0-.599.064-1.202.193-1.81a5.441 5.441 0 0 1 .634-1.661 3.654 3.654 0 0 1 1.162-1.219c.48-.313 1.071-.47 1.775-.47.399 0 .774.066 1.126.199.351.134.663.319.934.556.27.238.491.523.662.856.171.332.266.703.286 1.112h-1.626c-.038-.409-.183-.739-.434-.991-.252-.252-.592-.378-1.02-.378-.294 0-.549.055-.762.164a1.66 1.66 0 0 0-.542.435c-.148.18-.266.387-.356.62a4.968 4.968 0 0 0-.221.734 6.264 6.264 0 0 0-.122.763l-.064.705.029.029c.218-.399.52-.696.905-.891zm-.663 3.813c.076.247.19.468.342.663.152.195.34.349.563.463.224.114.483.171.777.171.295 0 .551-.059.77-.178.219-.118.401-.273.549-.463.147-.19.257-.411.328-.663a2.852 2.852 0 0 0 0-1.547 1.852 1.852 0 0 0-.328-.648 1.684 1.684 0 0 0-.549-.449 1.644 1.644 0 0 0-.77-.171c-.294 0-.553.054-.777.164a1.665 1.665 0 0 0-.563.441 1.892 1.892 0 0 0-.342.649 2.655 2.655 0 0 0-.114.784c0 .276.038.537.114.784z" fill="#9ACDF4"/><path d="M84.056 23.369a5.577 5.577 0 0 1-.513 1.675 3.384 3.384 0 0 1-1.055 1.255c-.452.328-1.034.492-1.746.492-.713 0-1.295-.164-1.747-.492a3.384 3.384 0 0 1-1.055-1.255 5.577 5.577 0 0 1-.513-1.675 12.066 12.066 0 0 1-.135-1.767c0-.57.045-1.16.135-1.768.09-.608.261-1.166.513-1.675a3.38 3.38 0 0 1 1.055-1.254c.452-.328 1.034-.492 1.747-.492.712 0 1.294.164 1.746.492a3.38 3.38 0 0 1 1.055 1.254c.252.509.423 1.067.513 1.675.09.608.135 1.198.135 1.768 0 .57-.045 1.159-.135 1.767zm-1.575-3.243a5.081 5.081 0 0 0-.292-1.219 2.079 2.079 0 0 0-.564-.834c-.237-.204-.532-.306-.883-.306-.362 0-.659.102-.891.306a2.107 2.107 0 0 0-.556.834 5.033 5.033 0 0 0-.293 1.219 12.05 12.05 0 0 0-.085 1.476c0 .523.028 1.017.085 1.482.057.466.155.872.293 1.219.137.347.323.623.556.827.232.204.529.306.891.306.351 0 .646-.102.883-.306.238-.204.426-.48.564-.827.137-.347.235-.753.292-1.219.057-.465.085-.959.085-1.482s-.028-1.015-.085-1.476zm-6.622 1.968c.318.451.478 1 .478 1.646 0 .475-.095.901-.285 1.276a2.91 2.91 0 0 1-.77.955 3.565 3.565 0 0 1-1.126.606c-.428.142-.88.214-1.355.214-.58 0-1.086-.084-1.518-.25a2.909 2.909 0 0 1-1.083-.705 3.042 3.042 0 0 1-.663-1.098 4.496 4.496 0 0 1-.243-1.426h1.626c-.02.609.13 1.115.449 1.519.318.404.795.605 1.432.605.542 0 .996-.154 1.362-.463.365-.309.549-.748.549-1.318 0-.39-.077-.699-.229-.927a1.475 1.475 0 0 0-.598-.52 2.419 2.419 0 0 0-.834-.221c-.309-.029-.625-.038-.948-.029v-1.212c.266.01.532-.009.798-.057.266-.047.504-.13.713-.249.209-.119.378-.283.506-.492.128-.209.192-.465.192-.77 0-.427-.145-.77-.434-1.026-.29-.257-.663-.385-1.119-.385-.286 0-.533.057-.742.171a1.53 1.53 0 0 0-.52.463c-.138.195-.24.414-.307.656a2.468 2.468 0 0 0-.085.749H69.48c.019-.485.109-.934.271-1.348.161-.413.382-.772.662-1.076a2.956 2.956 0 0 1 1.02-.713c.399-.171.85-.256 1.354-.256.39 0 .772.057 1.148.171.375.114.712.28 1.012.499.299.218.539.496.72.834.18.337.271.724.271 1.162 0 .503-.115.943-.343 1.318-.228.376-.584.649-1.069.82v.028c.57.114 1.015.397 1.333.849zm-11.725-2.545h-2.452v-1.283c.342 0 .675-.029.998-.086.323-.057.615-.151.877-.285a2.26 2.26 0 0 0 .67-.513 1.57 1.57 0 0 0 .363-.77h1.326v9.979h-1.782v-7.042z" fill="#1C75BA"/><path d="M146.213 23.067c-2.761 13.732-14.51 13.94-22.445 26.024-.645.982-2.127.664-2.341-.499-2.373-12.903-11.319-18.19-11.026-29.177.289-10.817 9.442-19.543 20.007-18.355 10.744 1.208 17.919 11.488 15.805 22.007z" fill="none" stroke="#9ACDF4" stroke-width="2"/><path d="M89.05 22.585c-.222 11.682-10.138 13.673-14.995 24.806-.395.905-1.698.874-2.059-.046C68 37.138 59.611 34.191 58.167 25.141c-1.421-8.91 4.984-17.479 14.112-18.143 9.283-.675 16.941 6.638 16.771 15.587z" fill="none" stroke="#1C75BA" stroke-width="2"/><path d="M73.5 51.5a7 7 0 1 1 0 14 7 7 0 0 1 0-14z" fill="#FFF"/><path d="M73.5 51.943a6.557 6.557 0 1 1 0 13.115 6.557 6.557 0 0 1 0-13.115z" fill="none" stroke="#1C75BA"/><path d="M73.5 56a2.5 2.5 0 1 1 0 5 2.5 2.5 0 0 1 0-5z" fill="#1C75BA"/><path d="M119.5 51.5a7 7 0 1 1 0 14 7 7 0 0 1 0-14z" fill="#FFF"/><path d="M119.5 51.943a6.557 6.557 0 1 1 0 13.115 6.557 6.557 0 0 1 0-13.115z" fill="none" stroke="#9ACDF4"/><path d="M119.5 56a2.5 2.5 0 1 1 0 5 2.5 2.5 0 0 1 0-5z" fill="#9ACDF4"/><g><path d="M25.5 51.5a7 7 0 1 1 0 14 7 7 0 0 1 0-14z" fill="#FFF"/><path d="M25.5 51.943a6.557 6.557 0 1 1 0 13.115 6.557 6.557 0 0 1 0-13.115z" fill="none" stroke="#1C75BA"/></g><path d="M25.5 56a2.5 2.5 0 1 1 0 5 2.5 2.5 0 0 1 0-5z" fill="#1C75BA"/></svg>