<svg version="1.1" xmlns="http://www.w3.org/2000/svg" xmlns:xlink="http://www.w3.org/1999/xlink" width="20" height="20" viewBox="0 0 20 20"><g id="-Block6_icon_NO"><path id="Ellipse-7" d="M10.141,0.177 C15.620,0.177 20.062,4.617 20.062,10.094 C20.062,15.571 15.620,20.010 10.141,20.010 C4.661,20.010 0.219,15.571 0.219,10.094 C0.219,4.617 4.661,0.177 10.141,0.177 z" fill="#FF304F" /><path id="Rounded-Rectangl" d="M11.181,10.098 C11.181,10.098 13.783,12.701 13.783,12.701 C14.095,13.013 14.095,13.520 13.783,13.833 C13.470,14.145 12.964,14.145 12.651,13.833 C12.651,13.833 10.049,11.230 10.049,11.230 C10.049,11.230 7.221,14.058 7.221,14.058 C6.908,14.371 6.402,14.371 6.089,14.058 C5.777,13.746 5.777,13.239 6.089,12.927 C6.089,12.927 8.918,10.099 8.918,10.099 C8.918,10.099 6.089,7.270 6.089,7.270 C5.777,6.958 5.777,6.451 6.089,6.138 C6.402,5.827 6.908,5.827 7.221,6.138 C7.221,6.138 10.049,8.967 10.049,8.967 C10.049,8.967 12.651,6.365 12.651,6.365 C12.964,6.052 13.470,6.052 13.783,6.365 C14.095,6.677 14.095,7.185 13.783,7.496 C13.783,7.496 11.181,10.098 11.181,10.098 z" fill="#FFFFFF" /></g></svg>