<svg version="1.1" xmlns="http://www.w3.org/2000/svg" xmlns:xlink="http://www.w3.org/1999/xlink" width="37" height="42" viewBox="0 0 37 42"><path id="-icon_safe" d="M33.847,41.424 C33.847,41.424 32.350,41.424 32.350,41.424 C31.109,41.424 30.100,40.416 30.100,39.177 C30.100,39.177 30.100,38.430 30.100,38.430 L6.605,38.430 C6.605,38.430 6.605,39.177 6.605,39.177 C6.605,40.416 5.595,41.424 4.354,41.424 C4.354,41.424 2.857,41.424 2.857,41.424 C1.615,41.424 0.606,40.416 0.606,39.177 C0.606,39.177 0.606,4.102 0.606,4.102 C0.606,2.066 2.288,0.410 4.355,0.410 C4.355,0.410 32.349,0.410 32.349,0.410 C34.416,0.410 36.098,2.066 36.098,4.102 C36.098,4.102 36.098,39.177 36.098,39.177 C36.098,40.416 35.089,41.424 33.847,41.424 zM2.106,39.177 C2.106,39.590 2.442,39.927 2.857,39.927 C2.857,39.927 4.354,39.927 4.354,39.927 C4.768,39.927 5.105,39.590 5.105,39.177 C5.105,39.177 5.105,38.430 5.105,38.430 L2.106,38.430 C2.106,38.430 2.106,39.177 2.106,39.177 zM34.598,4.102 C34.598,2.891 33.589,1.907 32.349,1.907 C32.349,1.907 4.355,1.907 4.355,1.907 C3.115,1.907 2.106,2.891 2.106,4.102 C2.106,4.102 2.106,36.933 2.106,36.933 L34.598,36.933 C34.598,36.933 34.598,4.102 34.598,4.102 zM34.598,38.430 L31.599,38.430 C31.599,38.430 31.599,39.177 31.599,39.177 C31.599,39.590 31.936,39.927 32.350,39.927 C32.350,39.927 33.847,39.927 33.847,39.927 C34.262,39.927 34.598,39.590 34.598,39.177 C34.598,39.177 34.598,38.430 34.598,38.430 zM24.851,19.521 C24.851,22.821 22.159,25.508 18.852,25.508 C15.392,25.508 12.607,22.568 12.871,19.061 C13.091,16.134 15.459,13.772 18.391,13.553 C21.906,13.289 24.851,16.068 24.851,19.521 zM14.353,19.521 C14.353,21.998 16.371,24.011 18.852,24.011 C21.438,24.011 23.522,21.821 23.340,19.202 C23.186,16.990 21.391,15.198 19.175,15.042 C16.549,14.859 14.353,16.939 14.353,19.521 zM19.530,17.609 C19.413,17.875 19.136,18.023 18.846,18.025 C17.959,18.028 17.252,18.803 17.364,19.710 C17.447,20.381 17.990,20.924 18.663,21.007 C19.572,21.118 20.348,20.412 20.352,19.528 C20.353,19.237 20.502,18.961 20.768,18.844 C21.319,18.605 21.852,19.001 21.852,19.521 C21.852,21.285 20.316,22.697 18.509,22.496 C17.133,22.342 16.025,21.236 15.872,19.863 C15.670,18.060 17.085,16.528 18.852,16.528 C19.373,16.528 19.770,17.059 19.530,17.609 zM5.105,7.273 C5.105,7.273 5.105,5.649 5.105,5.649 C5.105,5.236 5.441,4.900 5.855,4.900 C5.855,4.900 30.849,4.900 30.849,4.900 C31.264,4.900 31.599,5.236 31.599,5.649 C31.599,5.649 31.599,33.192 31.599,33.192 C31.599,33.606 31.264,33.941 30.849,33.941 C30.849,33.941 5.855,33.941 5.855,33.941 C5.441,33.941 5.105,33.606 5.105,33.192 C5.105,33.192 5.105,31.567 5.105,31.567 C4.233,31.259 3.606,30.427 3.606,29.450 C3.606,29.450 3.606,27.954 3.606,27.954 C3.606,26.979 4.233,26.146 5.105,25.838 C5.105,25.838 5.105,15.377 5.105,15.377 C5.105,14.932 5.493,14.579 5.949,14.634 C6.329,14.680 6.605,15.022 6.605,15.405 C6.605,15.405 6.605,25.838 6.605,25.838 C7.477,26.146 8.104,26.979 8.104,27.954 C8.104,27.954 8.104,29.450 8.104,29.450 C8.104,30.427 7.477,31.259 6.605,31.567 C6.605,31.567 6.605,32.444 6.605,32.444 L30.100,32.444 C30.100,32.444 30.100,26.929 30.100,26.929 C28.390,26.581 27.100,25.069 27.100,23.263 C27.100,23.263 27.100,15.780 27.100,15.780 C27.100,13.973 28.390,12.462 30.100,12.114 C30.100,12.114 30.100,6.397 30.100,6.397 L6.605,6.397 C6.605,6.397 6.605,7.273 6.605,7.273 C7.477,7.584 8.104,8.414 8.104,9.391 C8.104,9.391 8.104,10.887 8.104,10.887 C8.104,12.194 6.979,13.244 5.645,13.123 C4.479,13.016 3.606,12.004 3.606,10.835 C3.606,10.835 3.606,9.391 3.606,9.391 C3.606,8.414 4.233,7.584 5.105,7.273 zM6.605,27.977 C6.605,27.623 6.369,27.299 6.022,27.224 C5.536,27.119 5.105,27.488 5.105,27.954 C5.105,27.954 5.105,29.450 5.105,29.450 C5.105,29.919 5.536,30.287 6.022,30.181 C6.369,30.105 6.605,29.782 6.605,29.428 C6.605,29.428 6.605,27.977 6.605,27.977 zM28.600,15.780 C28.600,15.780 28.600,23.263 28.600,23.263 C28.600,24.238 29.227,25.070 30.100,25.379 C30.100,25.379 30.100,13.663 30.100,13.663 C29.227,13.972 28.600,14.804 28.600,15.780 zM5.105,10.863 C5.105,11.217 5.340,11.541 5.686,11.617 C6.173,11.723 6.605,11.355 6.605,10.887 C6.605,10.887 6.605,9.391 6.605,9.391 C6.605,8.923 6.173,8.554 5.686,8.660 C5.340,8.737 5.105,9.060 5.105,9.414 C5.105,9.414 5.105,10.863 5.105,10.863 z" fill="#208BCE" /></svg>