<svg xmlns="http://www.w3.org/2000/svg" width="37" height="42" viewBox="0 0 37 42"><path d="M33.847 41.424H32.35a2.25 2.25 0 0 1-2.25-2.247v-.747H6.605v.747a2.252 2.252 0 0 1-2.251 2.247H2.857a2.251 2.251 0 0 1-2.251-2.247V4.102C.606 2.066 2.288.41 4.355.41h27.994c2.067 0 3.749 1.656 3.749 3.692v35.075a2.251 2.251 0 0 1-2.251 2.247zM2.106 39.177c0 .413.336.75.751.75h1.497a.752.752 0 0 0 .751-.75v-.747H2.106v.747zM34.598 4.102c0-1.211-1.009-2.195-2.249-2.195H4.355c-1.24 0-2.249.984-2.249 2.195v32.831h32.492V4.102zm0 34.328h-2.999v.747c0 .413.337.75.751.75h1.497a.751.751 0 0 0 .751-.75v-.747zm-9.747-18.909c0 3.3-2.692 5.987-5.999 5.987-3.46 0-6.245-2.94-5.981-6.447.22-2.927 2.588-5.289 5.52-5.508 3.515-.264 6.46 2.515 6.46 5.968zm-10.498 0a4.499 4.499 0 0 0 4.499 4.49c2.586 0 4.67-2.19 4.488-4.809-.154-2.212-1.949-4.004-4.165-4.16a4.501 4.501 0 0 0-4.822 4.479zm5.177-1.912c-.117.266-.394.414-.684.416a1.499 1.499 0 0 0-1.482 1.685 1.501 1.501 0 0 0 2.988-.182c.001-.291.15-.567.416-.684a.757.757 0 0 1 1.084.677 3.001 3.001 0 0 1-5.98.342 2.998 2.998 0 0 1 2.98-3.335c.521 0 .918.531.678 1.081zM5.105 7.273V5.649a.75.75 0 0 1 .75-.749h24.994a.75.75 0 0 1 .75.749v27.543a.749.749 0 0 1-.75.749H5.855a.75.75 0 0 1-.75-.749v-1.625a2.248 2.248 0 0 1-1.499-2.117v-1.496c0-.975.627-1.808 1.499-2.116V15.377a.75.75 0 0 1 .844-.743c.38.046.656.388.656.771v10.433a2.249 2.249 0 0 1 1.499 2.116v1.496c0 .977-.627 1.809-1.499 2.117v.877H30.1v-5.515a3.75 3.75 0 0 1-3-3.666V15.78a3.75 3.75 0 0 1 3-3.666V6.397H6.605v.876a2.252 2.252 0 0 1 1.499 2.118v1.496a2.25 2.25 0 0 1-2.459 2.236c-1.166-.107-2.039-1.119-2.039-2.288V9.391c0-.977.627-1.807 1.499-2.118zm1.5 20.704c0-.354-.236-.678-.583-.753a.751.751 0 0 0-.917.73v1.496a.75.75 0 0 0 .917.731.763.763 0 0 0 .583-.753v-1.451zM28.6 15.78v7.483a2.25 2.25 0 0 0 1.5 2.116V13.663a2.25 2.25 0 0 0-1.5 2.117zM5.105 10.863c0 .354.235.678.581.754a.751.751 0 0 0 .919-.73V9.391a.752.752 0 0 0-.919-.731c-.346.077-.581.4-.581.754v1.449z" fill="#208BCE"/></svg>