<svg xmlns="http://www.w3.org/2000/svg" width="68" height="75" viewBox="0 0 68 75"><path d="M64.198 74.624H13.277c-.654 0-1.184-.52-1.184-1.161s.53-1.159 1.184-1.159h50.921c.652 0 1.183-.521 1.183-1.161V17.096L52.355 4.336v9.96c0 .641.532 1.161 1.184 1.161h7.105c.654 0 1.185.518 1.185 1.159 0 .642-.531 1.162-1.185 1.162h-7.105c-1.959 0-3.552-1.563-3.552-3.482V2.694H12.092c-.653 0-1.184.522-1.184 1.162V53.74c0 .641-.53 1.161-1.185 1.161-.654 0-1.183-.52-1.183-1.161V3.856c0-1.921 1.593-3.482 3.552-3.482h39.079l.039.002.041.002a1.812 1.812 0 0 1 .152.019 1.136 1.136 0 0 1 .181.051c.046.017.09.036.134.058l.01.005a1.26 1.26 0 0 1 .281.203l15.394 15.082a1.672 1.672 0 0 1 .078.085l.033.044.037.046.031.052.028.046c.01.017.018.037.026.055l.024.048.02.054.018.054c.006.017.01.035.015.053l.014.056.01.065.007.049c.004.037.006.076.006.113v54.527c0 1.919-1.594 3.481-3.552 3.481zM16.829 53.74c.86 0 1.685.225 2.406.643l3.87-3.79c-3.166-3.485-5.092-8.072-5.092-13.093 0-10.875 9.031-19.722 20.132-19.722 11.1 0 20.131 8.847 20.131 19.722 0 10.876-9.031 19.722-20.131 19.722a20.282 20.282 0 0 1-13.366-4.989l-3.868 3.791a4.57 4.57 0 0 1-.733 5.641l-11.841 11.6a4.777 4.777 0 0 1-3.35 1.356 4.773 4.773 0 0 1-3.349-1.356A4.562 4.562 0 0 1 .25 69.984c0-1.24.493-2.403 1.388-3.281L13.48 55.1a4.757 4.757 0 0 1 3.349-1.36zm21.316 1.161c9.794 0 17.763-7.806 17.763-17.401 0-9.597-7.969-17.402-17.763-17.402-9.795 0-17.763 7.805-17.763 17.402 0 9.595 7.968 17.401 17.763 17.401zM2.619 69.984c0 .619.246 1.2.693 1.64a2.407 2.407 0 0 0 3.35 0l11.842-11.601a2.284 2.284 0 0 0 .693-1.641c0-.62-.246-1.204-.693-1.64a2.381 2.381 0 0 0-1.676-.68c-.632 0-1.227.242-1.674.68L3.312 68.344a2.278 2.278 0 0 0-.693 1.64zm21.315-33.645h23.684c.654 0 1.184.519 1.184 1.161 0 .641-.53 1.159-1.184 1.159H23.934A1.171 1.171 0 0 1 22.75 37.5c0-.642.53-1.161 1.184-1.161zm3.552 5.801h22.501c.654 0 1.184.52 1.184 1.16 0 .64-.53 1.16-1.184 1.16H27.486c-.654 0-1.183-.52-1.183-1.16 0-.64.529-1.16 1.183-1.16zm13.925-16.999a1.158 1.158 0 0 1-.851-1.412c.163-.62.808-.994 1.442-.833 5.875 1.484 10.319 6.23 11.324 12.088a1.163 1.163 0 0 1-.972 1.337 1.178 1.178 0 0 1-1.364-.952c-.849-4.956-4.61-8.971-9.579-10.228zm5.023 6.558c0 .64-.53 1.16-1.184 1.16H27.486c-.654 0-1.183-.52-1.183-1.16 0-.64.529-1.16 1.183-1.16H45.25c.654 0 1.184.52 1.184 1.16z" fill="#2E8DD6"/></svg>