<svg version="1.1" xmlns="http://www.w3.org/2000/svg" xmlns:xlink="http://www.w3.org/1999/xlink" width="68" height="75" viewBox="0 0 68 75"><path id="searchDoc" d="M64.198,74.624 C64.198,74.624 13.277,74.624 13.277,74.624 C12.623,74.624 12.093,74.104 12.093,73.463 C12.093,72.822 12.623,72.304 13.277,72.304 C13.277,72.304 64.198,72.304 64.198,72.304 C64.850,72.304 65.381,71.783 65.381,71.143 C65.381,71.143 65.381,17.096 65.381,17.096 L52.355,4.336 C52.355,4.336 52.355,14.296 52.355,14.296 C52.355,14.937 52.887,15.457 53.539,15.457 C53.539,15.457 60.644,15.457 60.644,15.457 C61.298,15.457 61.829,15.975 61.829,16.616 C61.829,17.258 61.298,17.778 60.644,17.778 C60.644,17.778 53.539,17.778 53.539,17.778 C51.580,17.778 49.987,16.215 49.987,14.296 C49.987,14.296 49.987,2.694 49.987,2.694 C49.987,2.694 12.092,2.694 12.092,2.694 C11.439,2.694 10.908,3.216 10.908,3.856 C10.908,3.856 10.908,53.740 10.908,53.740 C10.908,54.381 10.378,54.901 9.723,54.901 C9.069,54.901 8.540,54.381 8.540,53.740 C8.540,53.740 8.540,3.856 8.540,3.856 C8.540,1.935 10.133,0.374 12.092,0.374 C12.092,0.374 51.171,0.374 51.171,0.374 C51.184,0.374 51.198,0.376 51.210,0.376 C51.224,0.377 51.238,0.377 51.251,0.378 C51.301,0.382 51.350,0.388 51.399,0.396 C51.400,0.396 51.401,0.396 51.403,0.397 C51.455,0.406 51.505,0.422 51.555,0.438 C51.565,0.440 51.574,0.443 51.584,0.448 C51.630,0.465 51.674,0.484 51.718,0.506 C51.722,0.507 51.725,0.510 51.728,0.511 C51.774,0.535 51.818,0.563 51.860,0.592 C51.870,0.599 51.879,0.606 51.888,0.613 C51.930,0.644 51.970,0.676 52.007,0.713 C52.008,0.713 52.008,0.713 52.009,0.714 C52.009,0.714 67.403,15.796 67.403,15.796 C67.405,15.799 67.407,15.802 67.410,15.803 C67.435,15.829 67.459,15.855 67.481,15.881 C67.493,15.896 67.503,15.910 67.514,15.925 C67.527,15.940 67.539,15.956 67.551,15.971 C67.562,15.989 67.572,16.006 67.582,16.023 C67.592,16.039 67.601,16.053 67.610,16.069 C67.620,16.086 67.628,16.106 67.636,16.124 C67.644,16.140 67.652,16.157 67.660,16.172 C67.667,16.189 67.673,16.208 67.680,16.226 C67.686,16.243 67.693,16.262 67.698,16.280 C67.704,16.297 67.708,16.315 67.713,16.333 C67.717,16.352 67.723,16.370 67.727,16.389 C67.731,16.410 67.733,16.432 67.737,16.454 C67.739,16.470 67.742,16.485 67.744,16.503 C67.748,16.540 67.750,16.579 67.750,16.616 C67.750,16.616 67.750,71.143 67.750,71.143 C67.750,73.062 66.156,74.624 64.198,74.624 zM16.829,53.740 C17.689,53.740 18.514,53.965 19.235,54.383 C19.235,54.383 23.105,50.593 23.105,50.593 C19.939,47.108 18.013,42.521 18.013,37.500 C18.013,26.625 27.044,17.778 38.145,17.778 C49.245,17.778 58.276,26.625 58.276,37.500 C58.276,48.376 49.245,57.222 38.145,57.222 C33.020,57.222 28.337,55.335 24.779,52.233 C24.779,52.233 20.911,56.024 20.911,56.024 C21.337,56.731 21.566,57.539 21.566,58.382 C21.566,59.621 21.073,60.787 20.178,61.665 C20.178,61.665 8.337,73.265 8.337,73.265 C7.413,74.169 6.200,74.621 4.987,74.621 C3.774,74.621 2.561,74.169 1.638,73.265 C0.743,72.389 0.250,71.223 0.250,69.984 C0.250,68.744 0.743,67.581 1.638,66.703 C1.638,66.703 13.480,55.100 13.480,55.100 C14.374,54.224 15.564,53.740 16.829,53.740 zM38.145,54.901 C47.939,54.901 55.908,47.095 55.908,37.500 C55.908,27.903 47.939,20.098 38.145,20.098 C28.350,20.098 20.382,27.903 20.382,37.500 C20.382,47.095 28.350,54.901 38.145,54.901 zM2.619,69.984 C2.619,70.603 2.865,71.184 3.312,71.624 C4.235,72.528 5.738,72.529 6.662,71.624 C6.662,71.624 18.504,60.023 18.504,60.023 C18.951,59.584 19.197,59.002 19.197,58.382 C19.197,57.762 18.951,57.178 18.504,56.742 C18.056,56.304 17.462,56.062 16.828,56.062 C16.196,56.062 15.601,56.304 15.154,56.742 C15.154,56.742 3.312,68.344 3.312,68.344 C2.865,68.781 2.619,69.364 2.619,69.984 zM23.934,36.339 C23.934,36.339 47.618,36.339 47.618,36.339 C48.272,36.339 48.802,36.858 48.802,37.500 C48.802,38.141 48.272,38.659 47.618,38.659 C47.618,38.659 23.934,38.659 23.934,38.659 C23.280,38.659 22.750,38.141 22.750,37.500 C22.750,36.858 23.280,36.339 23.934,36.339 zM27.486,42.140 C27.486,42.140 49.987,42.140 49.987,42.140 C50.641,42.140 51.171,42.660 51.171,43.300 C51.171,43.940 50.641,44.460 49.987,44.460 C49.987,44.460 27.486,44.460 27.486,44.460 C26.832,44.460 26.303,43.940 26.303,43.300 C26.303,42.660 26.832,42.140 27.486,42.140 zM41.411,25.141 C40.778,24.982 40.397,24.347 40.560,23.729 C40.723,23.109 41.368,22.735 42.002,22.896 C47.877,24.380 52.321,29.126 53.326,34.984 C53.435,35.617 52.999,36.214 52.354,36.321 C52.287,36.332 52.222,36.337 52.156,36.337 C51.588,36.337 51.088,35.936 50.990,35.369 C50.141,30.413 46.380,26.398 41.411,25.141 zM46.434,31.699 C46.434,32.339 45.904,32.859 45.250,32.859 C45.250,32.859 27.486,32.859 27.486,32.859 C26.832,32.859 26.303,32.339 26.303,31.699 C26.303,31.059 26.832,30.539 27.486,30.539 C27.486,30.539 45.250,30.539 45.250,30.539 C45.904,30.539 46.434,31.059 46.434,31.699 z" fill="#2E8DD6" /></svg>