<svg xmlns="http://www.w3.org/2000/svg" width="24" height="34" viewBox="0 0 24 34"><path d="M17.119 32.891a6.547 6.547 0 0 1-4.235-1.558H2.667C1.044 31.333 0 30.33 0 28.667V8c0-1.331.981-2.333 2.333-2.333H5V4.334c0-.289.378-.668.667-.668h1.988a2.802 2.802 0 0 1 5.603.044c0 .009.075-.051.075-.044h2c.29 0 .334.379.334.668v1.333h3C20.436 5.667 21 7.023 21 8v13c1.711 1.189 2.713 3.082 2.713 5.316 0 3.625-2.957 6.575-6.594 6.575zM14.667 4.667h-2c-.161 0-.324.041-.424-.085a.521.521 0 0 1-.094-.451c.041-.159.059-.291.059-.42a1.754 1.754 0 0 0-3.508 0c0 .129.019.266.058.423a.522.522 0 0 1-.095.448c-.098.126-.168.085-.33.085H6v2.666h8.667V4.667zM20 8c0-.667-.437-1.334-1.333-1.334h-3l-.074 1.197c0 .288-.303.47-.593.47H5.667c-.289 0-.687-.182-.687-.47L5 6.666H2.313c-.681 0-1.309.716-1.31 1.313C1.001 12.39.987 28.489 1 28.667c0 1.597 1.667 1.666 1.667 1.666H12c-.777-1.078-1.475-2.591-1.475-4.017 0-3.626 2.958-6.577 6.594-6.577.965 0 2.053.222 2.881.594V8zm-2.881 12.784c-3.057 0-5.545 2.482-5.545 5.532 0 3.049 2.488 5.53 5.545 5.53s5.546-2.481 5.546-5.53c0-3.05-2.489-5.532-5.546-5.532zm3.687 4.758l-.557.483c.01.094.014.195.014.307 0 .111-.004.21-.014.306l.589.507c.142.091.208.316.124.513-.147.447-.41.903-.757 1.295a.458.458 0 0 1-.518.123l-.717-.247c-.166.12-.342.221-.526.304l-.149.763a.447.447 0 0 1-.38.365 4.19 4.19 0 0 1-.749.072c-.246 0-.496-.026-.762-.076a.442.442 0 0 1-.369-.376l-.146-.749a2.901 2.901 0 0 1-.528-.303l-.737.255a.419.419 0 0 1-.156.028.456.456 0 0 1-.342-.161 3.816 3.816 0 0 1-.765-1.319.428.428 0 0 1 .166-.511l.557-.483a2.645 2.645 0 0 1-.015-.306c0-.112.004-.213.015-.307l-.589-.507c-.144-.092-.208-.316-.124-.513a3.76 3.76 0 0 1 .757-1.297.453.453 0 0 1 .516-.121l.717.246c.16-.115.338-.218.528-.304l.148-.764a.446.446 0 0 1 .382-.364 3.936 3.936 0 0 1 1.514.004.44.44 0 0 1 .364.376l.147.748c.184.084.358.185.526.304l.739-.254a.456.456 0 0 1 .5.135c.341.386.606.843.763 1.317a.428.428 0 0 1-.166.511zm-.997-1.351l-.795.273a.312.312 0 0 1-.294-.05 2.456 2.456 0 0 0-.659-.382.304.304 0 0 1-.19-.226l-.16-.82a3.172 3.172 0 0 0-1.091 0l-.158.82a.311.311 0 0 1-.193.226c-.244.093-.47.225-.654.378a.303.303 0 0 1-.298.054l-.795-.273a3.235 3.235 0 0 0-.544.937l.634.545a.31.31 0 0 1 .102.286 2.01 2.01 0 0 0-.03.373c0 .145.01.266.03.371a.3.3 0 0 1-.102.286l-.634.548c.13.34.314.656.546.935l.795-.275a.315.315 0 0 1 .298.056c.182.153.408.282.652.377a.305.305 0 0 1 .193.227l.16.82c.392.061.712.059 1.089 0l.16-.82a.305.305 0 0 1 .192-.227c.232-.091.455-.219.659-.381a.313.313 0 0 1 .292-.052l.795.275c.238-.287.424-.607.546-.937l-.636-.546a.303.303 0 0 1-.101-.286c.021-.105.031-.226.031-.371 0-.146-.01-.267-.031-.373a.305.305 0 0 1 .101-.286l.634-.547a3.231 3.231 0 0 0-.544-.935zm-2.643 2.751a.677.677 0 1 1 0-1.353.68.68 0 0 1 .681.677.679.679 0 0 1-.681.676zM9 17.666c-.289 0-.514-.205-.514-.494A.5.5 0 0 1 9 16.666h7.667c.288 0 .556.218.556.506 0 .288-.268.494-.556.494H9zM17 13H9.333c-.289 0-.847-.068-.847-.358 0-.288.225-.642.514-.642h7.667c.288 0 .556.354.556.642 0 .289.066.358-.223.358zM5.032 27.357a.52.52 0 0 1-.69.034l-1.25-1.06a.523.523 0 0 1 .655-.815l.892.772 1.608-1.791a.523.523 0 0 1 .725.755l-1.94 2.105zm0-4.48a.515.515 0 0 1-.363.147.54.54 0 0 1-.327-.112l-1.25-1.061a.522.522 0 1 1 .655-.815l.892.771 1.608-1.789a.523.523 0 1 1 .725.754l-1.94 2.105zm0-4.52a.52.52 0 0 1-.69.034l-1.25-1.06a.522.522 0 1 1 .655-.815l.892.772 1.608-1.79a.523.523 0 1 1 .725.755l-1.94 2.104zm0-4.479a.519.519 0 0 1-.363.146.54.54 0 0 1-.327-.112l-1.25-1.061a.522.522 0 1 1 .655-.815l.892.771 1.608-1.789a.524.524 0 0 1 .725.755l-1.94 2.105zM9 21h1.333c.29 0 .44.412.44.7 0 .289-.15.3-.44.3H9c-.289 0-.513-.011-.513-.3 0-.288.224-.7.513-.7zm-.039 4.717a.518.518 0 0 1 .473.513.52.52 0 0 1-.473.513.52.52 0 0 1-.474-.513c0-.271.209-.487.474-.513zm.05-.01c-.018 0-.033.008-.05.01-.018-.002-.033-.01-.051-.01h.101zm-.101 1.046c.018 0 .033-.009.051-.01.017.001.032.01.05.01H8.91z" fill="#338BC3"/></svg>