<svg version="1.1" xmlns="http://www.w3.org/2000/svg" xmlns:xlink="http://www.w3.org/1999/xlink" width="24" height="34" viewBox="0 0 24 34"><path id="-Block7_icon6" d="M17.119,32.891 C15.504,32.891 14.031,32.300 12.884,31.333 C12.884,31.333 2.667,31.333 2.667,31.333 C1.044,31.333 0.000,30.330 0.000,28.667 C0.000,28.667 0.000,8.000 0.000,8.000 C0.000,6.669 0.981,5.667 2.333,5.667 C2.333,5.667 5.000,5.667 5.000,5.667 C5.000,5.667 5.000,4.334 5.000,4.334 C5.000,4.045 5.378,3.666 5.667,3.666 C5.667,3.666 7.655,3.666 7.655,3.666 C7.679,2.147 8.925,0.917 10.455,0.917 C12.000,0.917 13.258,2.170 13.258,3.710 C13.258,3.719 13.333,3.659 13.333,3.666 C13.333,3.666 15.333,3.666 15.333,3.666 C15.623,3.666 15.667,4.045 15.667,4.334 C15.667,4.334 15.667,5.667 15.667,5.667 C15.667,5.667 18.667,5.667 18.667,5.667 C20.436,5.667 21.000,7.023 21.000,8.000 C21.000,8.000 21.000,21.000 21.000,21.000 C22.711,22.189 23.713,24.082 23.713,26.316 C23.713,29.941 20.756,32.891 17.119,32.891 zM14.667,4.667 C14.667,4.667 12.667,4.667 12.667,4.667 C12.506,4.667 12.343,4.708 12.243,4.582 C12.143,4.454 12.109,4.289 12.149,4.131 C12.190,3.972 12.208,3.840 12.208,3.711 C12.208,2.748 11.421,1.963 10.454,1.963 C9.487,1.963 8.700,2.748 8.700,3.711 C8.700,3.840 8.719,3.977 8.758,4.134 C8.797,4.290 8.762,4.455 8.663,4.582 C8.565,4.708 8.495,4.667 8.333,4.667 C8.333,4.667 6.000,4.667 6.000,4.667 L6.000,7.333 L14.667,7.333 L14.667,4.667 zM20.000,8.000 C20.000,7.333 19.563,6.666 18.667,6.666 C17.500,6.666 15.667,6.666 15.667,6.666 C15.667,6.666 15.593,7.863 15.593,7.863 C15.593,8.151 15.290,8.333 15.000,8.333 C15.000,8.333 5.667,8.333 5.667,8.333 C5.378,8.333 4.980,8.151 4.980,7.863 C4.980,7.863 5.000,6.666 5.000,6.666 C5.000,6.666 3.497,6.666 2.313,6.666 C1.632,6.666 1.004,7.382 1.003,7.979 C1.001,12.390 0.987,28.489 1.000,28.667 C1.000,30.264 2.667,30.333 2.667,30.333 C2.667,30.333 12.000,30.333 12.000,30.333 C11.223,29.255 10.525,27.742 10.525,26.316 C10.525,22.690 13.483,19.739 17.119,19.739 C18.084,19.739 19.172,19.961 20.000,20.333 C20.000,20.333 20.000,11.423 20.000,8.000 zM17.119,20.784 C14.062,20.784 11.574,23.266 11.574,26.316 C11.574,29.365 14.062,31.846 17.119,31.846 C20.176,31.846 22.665,29.365 22.665,26.316 C22.665,23.266 20.176,20.784 17.119,20.784 zM20.806,25.542 C20.806,25.542 20.249,26.025 20.249,26.025 C20.259,26.119 20.263,26.220 20.263,26.332 C20.263,26.443 20.259,26.542 20.249,26.638 C20.249,26.638 20.838,27.145 20.838,27.145 C20.980,27.236 21.046,27.461 20.962,27.658 C20.815,28.105 20.552,28.561 20.205,28.953 C20.079,29.098 19.867,29.152 19.687,29.076 C19.687,29.076 18.970,28.829 18.970,28.829 C18.804,28.949 18.628,29.050 18.444,29.133 C18.444,29.133 18.295,29.896 18.295,29.896 C18.270,30.076 18.111,30.234 17.915,30.261 C17.661,30.307 17.413,30.333 17.166,30.333 C16.920,30.333 16.670,30.307 16.404,30.257 C16.220,30.234 16.063,30.076 16.035,29.881 C16.035,29.881 15.889,29.132 15.889,29.132 C15.699,29.048 15.521,28.945 15.361,28.829 C15.361,28.829 14.624,29.084 14.624,29.084 C14.588,29.100 14.528,29.112 14.468,29.112 C14.338,29.112 14.214,29.052 14.126,28.951 C13.781,28.561 13.517,28.105 13.361,27.632 C13.287,27.463 13.353,27.236 13.527,27.121 C13.527,27.121 14.084,26.638 14.084,26.638 C14.073,26.544 14.069,26.443 14.069,26.332 C14.069,26.220 14.073,26.119 14.084,26.025 C14.084,26.025 13.495,25.518 13.495,25.518 C13.351,25.426 13.287,25.202 13.371,25.005 C13.517,24.557 13.781,24.100 14.128,23.708 C14.250,23.565 14.466,23.509 14.644,23.587 C14.644,23.587 15.361,23.833 15.361,23.833 C15.521,23.718 15.699,23.615 15.889,23.529 C15.889,23.529 16.037,22.765 16.037,22.765 C16.063,22.584 16.222,22.427 16.419,22.401 C16.880,22.306 17.431,22.304 17.933,22.405 C18.111,22.427 18.270,22.584 18.297,22.781 C18.297,22.781 18.444,23.529 18.444,23.529 C18.628,23.613 18.802,23.714 18.970,23.833 C18.970,23.833 19.709,23.579 19.709,23.579 C19.745,23.563 19.805,23.551 19.865,23.551 C19.995,23.551 20.121,23.611 20.209,23.714 C20.550,24.100 20.815,24.557 20.972,25.031 C21.046,25.200 20.980,25.426 20.806,25.542 zM19.809,24.191 C19.809,24.191 19.014,24.464 19.014,24.464 C18.914,24.498 18.804,24.480 18.720,24.414 C18.518,24.251 18.295,24.122 18.061,24.032 C17.963,23.995 17.891,23.909 17.871,23.806 C17.871,23.806 17.711,22.986 17.711,22.986 C17.331,22.922 16.976,22.924 16.620,22.986 C16.620,22.986 16.462,23.806 16.462,23.806 C16.439,23.909 16.368,23.995 16.269,24.032 C16.025,24.125 15.799,24.257 15.615,24.410 C15.533,24.480 15.421,24.500 15.317,24.464 C15.317,24.464 14.522,24.191 14.522,24.191 C14.283,24.480 14.100,24.798 13.978,25.128 C13.978,25.128 14.612,25.673 14.612,25.673 C14.694,25.745 14.732,25.852 14.714,25.959 C14.694,26.065 14.684,26.186 14.684,26.332 C14.684,26.477 14.694,26.598 14.714,26.703 C14.734,26.811 14.696,26.918 14.612,26.989 C14.612,26.989 13.978,27.537 13.978,27.537 C14.108,27.877 14.292,28.193 14.524,28.472 C14.524,28.472 15.319,28.197 15.319,28.197 C15.421,28.163 15.533,28.185 15.617,28.253 C15.799,28.406 16.025,28.535 16.269,28.630 C16.370,28.668 16.442,28.754 16.462,28.857 C16.462,28.857 16.622,29.677 16.622,29.677 C17.014,29.738 17.334,29.736 17.711,29.677 C17.711,29.677 17.871,28.857 17.871,28.857 C17.891,28.754 17.963,28.668 18.063,28.630 C18.295,28.539 18.518,28.411 18.722,28.249 C18.804,28.183 18.914,28.165 19.014,28.197 C19.014,28.197 19.809,28.472 19.809,28.472 C20.047,28.185 20.233,27.865 20.355,27.535 C20.355,27.535 19.719,26.989 19.719,26.989 C19.637,26.918 19.598,26.811 19.618,26.703 C19.639,26.598 19.649,26.477 19.649,26.332 C19.649,26.186 19.639,26.065 19.618,25.959 C19.598,25.852 19.637,25.745 19.719,25.673 C19.719,25.673 20.353,25.126 20.353,25.126 C20.225,24.784 20.041,24.470 19.809,24.191 zM17.166,26.942 C16.790,26.942 16.486,26.640 16.486,26.266 C16.486,25.894 16.790,25.589 17.166,25.589 C17.541,25.589 17.847,25.894 17.847,26.266 C17.847,26.640 17.541,26.942 17.166,26.942 zM9.000,17.666 C8.711,17.666 8.486,17.461 8.486,17.172 C8.486,16.883 8.711,16.666 9.000,16.666 C9.000,16.666 16.667,16.666 16.667,16.666 C16.955,16.666 17.223,16.884 17.223,17.172 C17.223,17.460 16.955,17.666 16.667,17.666 C16.667,17.666 9.000,17.666 9.000,17.666 zM17.000,13.000 C17.000,13.000 9.333,13.000 9.333,13.000 C9.044,13.000 8.486,12.932 8.486,12.642 C8.486,12.354 8.711,12.000 9.000,12.000 C9.000,12.000 16.667,12.000 16.667,12.000 C16.955,12.000 17.223,12.354 17.223,12.642 C17.223,12.931 17.289,13.000 17.000,13.000 zM5.032,27.357 C4.931,27.455 4.800,27.505 4.669,27.505 C4.554,27.505 4.439,27.466 4.342,27.391 C4.342,27.391 3.092,26.331 3.092,26.331 C2.867,26.151 2.830,25.823 3.011,25.597 C3.194,25.372 3.521,25.334 3.747,25.516 C3.747,25.516 4.639,26.288 4.639,26.288 C4.639,26.288 6.247,24.497 6.247,24.497 C6.456,24.297 6.788,24.304 6.988,24.514 C7.188,24.719 7.179,25.053 6.972,25.252 C6.972,25.252 5.032,27.357 5.032,27.357 zM5.032,22.877 C4.931,22.976 4.800,23.024 4.669,23.024 C4.554,23.024 4.439,22.986 4.342,22.912 C4.342,22.912 3.092,21.851 3.092,21.851 C2.867,21.671 2.830,21.344 3.011,21.116 C3.194,20.892 3.521,20.855 3.747,21.036 C3.747,21.036 4.639,21.807 4.639,21.807 C4.639,21.807 6.247,20.018 6.247,20.018 C6.456,19.817 6.788,19.824 6.988,20.034 C7.188,20.240 7.179,20.573 6.972,20.772 C6.972,20.772 5.032,22.877 5.032,22.877 zM5.032,18.357 C4.931,18.455 4.800,18.505 4.669,18.505 C4.554,18.505 4.439,18.466 4.342,18.391 C4.342,18.391 3.092,17.331 3.092,17.331 C2.867,17.151 2.830,16.823 3.011,16.597 C3.194,16.371 3.521,16.334 3.747,16.516 C3.747,16.516 4.639,17.288 4.639,17.288 C4.639,17.288 6.247,15.498 6.247,15.498 C6.456,15.297 6.788,15.304 6.988,15.514 C7.188,15.719 7.179,16.053 6.972,16.253 C6.972,16.253 5.032,18.357 5.032,18.357 zM5.032,13.878 C4.931,13.976 4.800,14.024 4.669,14.024 C4.554,14.024 4.439,13.986 4.342,13.912 C4.342,13.912 3.092,12.851 3.092,12.851 C2.867,12.671 2.830,12.344 3.011,12.116 C3.194,11.892 3.521,11.855 3.747,12.036 C3.747,12.036 4.639,12.807 4.639,12.807 C4.639,12.807 6.247,11.018 6.247,11.018 C6.456,10.817 6.788,10.823 6.988,11.034 C7.188,11.240 7.179,11.574 6.972,11.773 C6.972,11.773 5.032,13.878 5.032,13.878 zM9.000,21.000 C9.000,21.000 10.333,21.000 10.333,21.000 C10.623,21.000 10.773,21.412 10.773,21.700 C10.773,21.989 10.623,22.000 10.333,22.000 C10.333,22.000 9.000,22.000 9.000,22.000 C8.711,22.000 8.487,21.989 8.487,21.700 C8.487,21.412 8.711,21.000 9.000,21.000 zM8.961,25.717 C9.225,25.743 9.434,25.959 9.434,26.230 C9.434,26.500 9.225,26.716 8.961,26.743 C8.696,26.716 8.487,26.500 8.487,26.230 C8.487,25.959 8.696,25.743 8.961,25.717 zM9.011,25.707 C8.993,25.707 8.978,25.715 8.961,25.717 C8.943,25.715 8.928,25.707 8.910,25.707 C8.910,25.707 9.011,25.707 9.011,25.707 zM8.910,26.753 C8.928,26.753 8.943,26.744 8.961,26.743 C8.978,26.744 8.993,26.753 9.011,26.753 C9.011,26.753 8.910,26.753 8.910,26.753 z" fill="#338BC3" /></svg>