<svg xmlns="http://www.w3.org/2000/svg" width="30" height="30" viewBox="0 0 30 30"><path d="M24.85 24.85A14.072 14.072 0 0 1 14.833 29a14.073 14.073 0 0 1-10.017-4.15A14.07 14.07 0 0 1 .667 14.833c0-3.783 1.473-7.341 4.149-10.017A14.072 14.072 0 0 1 14.833.667 14.07 14.07 0 0 1 24.85 4.816 14.075 14.075 0 0 1 29 14.833c0 3.784-1.474 7.342-4.15 10.017zm-.625-19.408a13.198 13.198 0 0 0-9.392-3.89 13.198 13.198 0 0 0-9.391 3.89 13.193 13.193 0 0 0-3.89 9.391c0 3.547 1.381 6.883 3.89 9.392a13.198 13.198 0 0 0 9.391 3.89c3.548 0 6.883-1.382 9.392-3.89a13.2 13.2 0 0 0 3.89-9.392c0-3.547-1.382-6.882-3.89-9.391zm1.842 6.194a.463.463 0 0 1-.294.098h-.315a.442.442 0 0 0-.442.443v1.674a.443.443 0 0 1-.886 0v-1.674h-4.982a.442.442 0 0 1-.359-.185 4.89 4.89 0 0 0-3.956-2.029 4.887 4.887 0 0 0-3.955 2.029.443.443 0 0 1-.36.185H5.536v.007h-.878a.007.007 0 0 1-.007-.007.442.442 0 0 0-.442-.443H3.89a.443.443 0 0 1-.432-.579 11.9 11.9 0 0 1 4.275-5.938 11.853 11.853 0 0 1 7.1-2.337c.557 0 1.108.038 1.651.112a.443.443 0 0 1-.119.878 11.275 11.275 0 0 0-1.532-.105c-2.387 0-4.66.749-6.574 2.164a11.024 11.024 0 0 0-3.766 4.951c.276.06.52.208.703.411h5.101a5.773 5.773 0 0 1 4.536-2.213c1.77 0 3.449.823 4.537 2.213h5.1a1.33 1.33 0 0 1 .703-.411 10.98 10.98 0 0 0-3.029-4.356.442.442 0 0 1 .584-.665 11.865 11.865 0 0 1 3.481 5.296.445.445 0 0 1-.142.481zm-5.482-6.261a11.08 11.08 0 0 0-1.491-.762.443.443 0 0 1-.253-.543.444.444 0 0 1 .597-.272c.553.231 1.09.505 1.607.821a.443.443 0 0 1-.46.756zM9.078 14.39h.885a.443.443 0 0 1 0 .886h-.885a.443.443 0 0 1 0-.886zm-.443 2.214a.442.442 0 1 1-.885 0v-.885a.443.443 0 1 1 .885 0v.885zm-1.328-1.328h-.885a.443.443 0 1 1 0-.886h.885a.443.443 0 0 1 0 .886zm.886-2.656c.244 0 .442.198.442.442v.886a.442.442 0 0 1-.885 0v-.886c0-.244.198-.442.443-.442zm8.411 7.083a.443.443 0 0 1 0 .885h-.885a.442.442 0 1 1 0-.885h.885zm-2.656 0a.443.443 0 0 1 0 .885h-.886a.442.442 0 0 1 0-.885h.886zm-3.099-4.87a3.99 3.99 0 0 1 3.984-3.985 3.99 3.99 0 0 1 3.984 3.985 3.988 3.988 0 0 1-3.984 3.984 3.988 3.988 0 0 1-3.984-3.984zm3.984 3.099a3.102 3.102 0 0 0 3.099-3.099 3.103 3.103 0 0 0-3.099-3.099 3.104 3.104 0 0 0-3.099 3.099 3.103 3.103 0 0 0 3.099 3.099zm0-5.312c1.221 0 2.214.992 2.214 2.213a.443.443 0 1 1-.886 0 1.33 1.33 0 0 0-1.328-1.328.443.443 0 0 1 0-.885zm4.427 2.213a.665.665 0 1 1 1.33.002.665.665 0 0 1-1.33-.002zm2.214-.885a.665.665 0 1 1 .002-1.33.665.665 0 0 1-.002 1.33zm0 3.099a.665.665 0 0 1 0-1.328.664.664 0 0 1 0 1.328zm.885-2.214a.665.665 0 0 1 1.328 0 .665.665 0 0 1-1.328 0zm-18.48 3.099h.33a.442.442 0 0 0 .442-.443v-.988a.443.443 0 1 1 .885 0v.988h4.43c1.221 0 2.211.99 2.211 2.211v4.43h5.312V19.7c0-1.221.99-2.211 2.211-2.211h4.43v-.013h.872c.007 0 .014.006.014.013 0 .245.198.443.442.443h.316a.443.443 0 0 1 .435.579 11.982 11.982 0 0 1-7.698 7.698.444.444 0 0 1-.579-.433v-.318a.443.443 0 0 0-.443-.443h-5.312a.443.443 0 0 0-.443.443v.329a.442.442 0 0 1-.578.422 11.98 11.98 0 0 1-7.698-7.698.441.441 0 0 1 .421-.579zm14.496 6.539c.203.182.351.426.412.702a11.101 11.101 0 0 0 6.386-6.386 1.337 1.337 0 0 1-.703-.412H19.7c-.73 0-1.325.594-1.325 1.325v4.771zm-7.495.702c.06-.277.208-.52.412-.702V19.7c0-.731-.595-1.325-1.326-1.325h-4.77a1.334 1.334 0 0 1-.702.412 11.098 11.098 0 0 0 6.386 6.386z" fill="#358CC3"/></svg>