<svg version="1.1" xmlns="http://www.w3.org/2000/svg" xmlns:xlink="http://www.w3.org/1999/xlink" width="30" height="30" viewBox="0 0 30 30"><path id="-Block7_icon9" d="M24.850,24.850 C22.175,27.526 18.617,29.000 14.833,29.000 C11.049,29.000 7.492,27.526 4.816,24.850 C2.140,22.175 0.667,18.617 0.667,14.833 C0.667,11.050 2.140,7.492 4.816,4.816 C7.492,2.140 11.049,0.667 14.833,0.667 C18.617,0.667 22.175,2.140 24.850,4.816 C27.526,7.492 29.000,11.050 29.000,14.833 C29.000,18.617 27.526,22.175 24.850,24.850 zM24.225,5.442 C21.716,2.934 18.381,1.552 14.833,1.552 C11.286,1.552 7.951,2.934 5.442,5.442 C2.933,7.951 1.552,11.286 1.552,14.833 C1.552,18.380 2.933,21.716 5.442,24.225 C7.951,26.733 11.286,28.115 14.833,28.115 C18.381,28.115 21.716,26.733 24.225,24.225 C26.733,21.716 28.115,18.380 28.115,14.833 C28.115,11.286 26.733,7.951 24.225,5.442 zM26.067,11.636 C25.985,11.703 25.879,11.734 25.773,11.734 C25.773,11.734 25.458,11.734 25.458,11.734 C25.214,11.734 25.016,11.932 25.016,12.177 C25.016,12.177 25.016,13.851 25.016,13.851 C25.016,14.095 24.817,14.293 24.573,14.293 C24.328,14.293 24.130,14.095 24.130,13.851 C24.130,13.851 24.130,12.177 24.130,12.177 C24.130,12.177 19.148,12.177 19.148,12.177 C19.006,12.177 18.872,12.108 18.789,11.992 C17.875,10.723 16.396,9.963 14.833,9.963 C13.271,9.963 11.792,10.722 10.878,11.992 C10.795,12.108 10.661,12.177 10.518,12.177 C10.518,12.177 5.536,12.177 5.536,12.177 L5.536,12.184 C5.536,12.184 4.658,12.184 4.658,12.184 C4.654,12.184 4.651,12.181 4.651,12.177 C4.651,11.932 4.453,11.734 4.209,11.734 C4.209,11.734 3.890,11.734 3.890,11.734 C3.801,11.734 3.713,11.713 3.639,11.664 C3.464,11.549 3.398,11.340 3.458,11.155 C4.229,8.769 5.707,6.716 7.733,5.217 C9.799,3.688 12.255,2.880 14.833,2.880 C15.390,2.880 15.941,2.918 16.484,2.992 C16.758,3.030 16.932,3.304 16.849,3.567 C16.783,3.772 16.579,3.900 16.365,3.870 C15.862,3.801 15.350,3.765 14.833,3.765 C12.446,3.765 10.173,4.514 8.259,5.929 C6.540,7.201 5.247,8.904 4.493,10.880 C4.769,10.940 5.013,11.088 5.196,11.291 C5.196,11.291 10.297,11.291 10.297,11.291 C11.384,9.901 13.063,9.078 14.833,9.078 C16.603,9.078 18.282,9.901 19.370,11.291 C19.370,11.291 24.470,11.291 24.470,11.291 C24.653,11.088 24.897,10.940 25.173,10.880 C24.532,9.197 23.498,7.713 22.144,6.524 C21.952,6.356 21.944,6.060 22.124,5.880 C22.289,5.716 22.554,5.705 22.728,5.859 C24.348,7.280 25.543,9.093 26.209,11.155 C26.264,11.326 26.212,11.517 26.067,11.636 zM20.585,5.375 C20.105,5.082 19.607,4.828 19.094,4.613 C18.882,4.525 18.771,4.290 18.841,4.070 C18.841,4.070 18.841,4.070 18.841,4.070 C18.920,3.821 19.196,3.697 19.438,3.798 C19.991,4.029 20.528,4.303 21.045,4.619 C21.290,4.768 21.331,5.108 21.128,5.311 C20.983,5.455 20.759,5.482 20.585,5.375 zM9.078,14.390 C9.078,14.390 9.963,14.390 9.963,14.390 C10.208,14.390 10.406,14.589 10.406,14.833 C10.406,15.078 10.208,15.276 9.963,15.276 C9.963,15.276 9.078,15.276 9.078,15.276 C8.834,15.276 8.635,15.078 8.635,14.833 C8.635,14.589 8.834,14.390 9.078,14.390 zM8.635,16.604 C8.635,16.849 8.437,17.047 8.193,17.047 C7.948,17.047 7.750,16.849 7.750,16.604 C7.750,16.604 7.750,15.719 7.750,15.719 C7.750,15.474 7.948,15.276 8.193,15.276 C8.437,15.276 8.635,15.474 8.635,15.719 C8.635,15.719 8.635,16.604 8.635,16.604 zM7.307,15.276 C7.307,15.276 6.422,15.276 6.422,15.276 C6.177,15.276 5.979,15.078 5.979,14.833 C5.979,14.589 6.177,14.390 6.422,14.390 C6.422,14.390 7.307,14.390 7.307,14.390 C7.552,14.390 7.750,14.589 7.750,14.833 C7.750,15.078 7.552,15.276 7.307,15.276 zM8.193,12.620 C8.437,12.620 8.635,12.818 8.635,13.062 C8.635,13.062 8.635,13.948 8.635,13.948 C8.635,14.192 8.437,14.390 8.193,14.390 C7.948,14.390 7.750,14.192 7.750,13.948 C7.750,13.948 7.750,13.062 7.750,13.062 C7.750,12.818 7.948,12.620 8.193,12.620 zM16.604,19.703 C16.849,19.703 17.047,19.902 17.047,20.146 C17.047,20.390 16.849,20.588 16.604,20.588 C16.604,20.588 15.719,20.588 15.719,20.588 C15.474,20.588 15.276,20.390 15.276,20.146 C15.276,19.902 15.474,19.703 15.719,19.703 C15.719,19.703 16.604,19.703 16.604,19.703 zM13.948,19.703 C14.192,19.703 14.390,19.902 14.390,20.146 C14.390,20.390 14.192,20.588 13.948,20.588 C13.948,20.588 13.062,20.588 13.062,20.588 C12.818,20.588 12.620,20.390 12.620,20.146 C12.620,19.902 12.818,19.703 13.062,19.703 C13.062,19.703 13.948,19.703 13.948,19.703 zM10.849,14.833 C10.849,12.636 12.636,10.848 14.833,10.848 C17.030,10.848 18.817,12.636 18.817,14.833 C18.817,17.030 17.030,18.817 14.833,18.817 C12.636,18.817 10.849,17.030 10.849,14.833 zM14.833,17.932 C16.542,17.932 17.932,16.542 17.932,14.833 C17.932,13.125 16.542,11.734 14.833,11.734 C13.125,11.734 11.734,13.125 11.734,14.833 C11.734,16.542 13.125,17.932 14.833,17.932 zM14.833,12.620 C16.054,12.620 17.047,13.612 17.047,14.833 C17.047,15.078 16.849,15.276 16.604,15.276 C16.360,15.276 16.161,15.078 16.161,14.833 C16.161,14.101 15.566,13.505 14.833,13.505 C14.589,13.505 14.390,13.307 14.390,13.062 C14.390,12.818 14.589,12.620 14.833,12.620 zM19.260,14.833 C19.260,14.467 19.558,14.169 19.924,14.169 C20.291,14.169 20.588,14.467 20.588,14.833 C20.588,15.199 20.291,15.497 19.924,15.497 C19.558,15.497 19.260,15.199 19.260,14.833 zM21.474,13.948 C21.108,13.948 20.810,13.650 20.810,13.284 C20.810,12.917 21.108,12.620 21.474,12.620 C21.840,12.620 22.138,12.917 22.138,13.284 C22.138,13.650 21.840,13.948 21.474,13.948 zM21.474,17.047 C21.108,17.047 20.810,16.749 20.810,16.382 C20.810,16.016 21.108,15.719 21.474,15.719 C21.840,15.719 22.138,16.016 22.138,16.382 C22.138,16.749 21.840,17.047 21.474,17.047 zM22.359,14.833 C22.359,14.467 22.657,14.169 23.023,14.169 C23.389,14.169 23.687,14.467 23.687,14.833 C23.687,15.199 23.389,15.497 23.023,15.497 C22.657,15.497 22.359,15.199 22.359,14.833 zM3.879,17.932 C3.879,17.932 4.209,17.932 4.209,17.932 C4.453,17.932 4.651,17.734 4.651,17.489 C4.651,17.489 4.651,16.501 4.651,16.501 C4.651,16.256 4.849,16.058 5.094,16.058 C5.338,16.058 5.536,16.256 5.536,16.501 C5.536,16.501 5.536,17.489 5.536,17.489 C5.536,17.489 9.966,17.489 9.966,17.489 C11.187,17.489 12.177,18.479 12.177,19.700 C12.177,19.700 12.177,24.130 12.177,24.130 L17.489,24.130 C17.489,24.130 17.489,19.700 17.489,19.700 C17.489,18.479 18.479,17.489 19.700,17.489 C19.700,17.489 24.130,17.489 24.130,17.489 L24.130,17.476 C24.130,17.476 25.002,17.476 25.002,17.476 C25.009,17.476 25.016,17.482 25.016,17.489 C25.016,17.734 25.214,17.932 25.458,17.932 C25.458,17.932 25.774,17.932 25.774,17.932 C25.880,17.932 25.986,17.964 26.068,18.032 C26.212,18.151 26.264,18.341 26.209,18.511 C25.032,22.154 22.154,25.032 18.511,26.209 C18.466,26.223 18.421,26.231 18.375,26.231 C18.224,26.231 18.076,26.153 17.992,26.010 C17.950,25.939 17.932,25.857 17.932,25.776 C17.932,25.776 17.932,25.458 17.932,25.458 C17.932,25.213 17.734,25.015 17.489,25.015 C17.489,25.015 12.177,25.015 12.177,25.015 C11.932,25.015 11.734,25.213 11.734,25.458 C11.734,25.458 11.734,25.787 11.734,25.787 C11.734,25.930 11.667,26.062 11.552,26.146 C11.438,26.229 11.290,26.252 11.156,26.209 C7.512,25.032 4.635,22.154 3.458,18.511 C3.414,18.376 3.438,18.228 3.521,18.115 C3.604,18.000 3.737,17.932 3.879,17.932 zM18.375,24.471 C18.578,24.653 18.726,24.897 18.787,25.173 C21.719,24.051 24.051,21.719 25.173,18.787 C24.897,18.726 24.653,18.578 24.470,18.375 C24.470,18.375 19.700,18.375 19.700,18.375 C18.970,18.375 18.375,18.969 18.375,19.700 C18.375,19.700 18.375,24.471 18.375,24.471 zM10.880,25.173 C10.940,24.896 11.088,24.653 11.292,24.471 C11.292,24.471 11.292,19.700 11.292,19.700 C11.292,18.969 10.697,18.375 9.966,18.375 C9.966,18.375 5.196,18.375 5.196,18.375 C5.013,18.578 4.770,18.726 4.494,18.787 C5.615,21.719 7.948,24.051 10.880,25.173 z" fill="#358CC3" /></svg>