<svg version="1.1" xmlns="http://www.w3.org/2000/svg" xmlns:xlink="http://www.w3.org/1999/xlink" width="34" height="34" viewBox="0 0 34 34"><path id="-Block7_icon1" d="M32.187,14.088 C32.187,14.088 29.585,14.925 29.585,14.925 C29.486,14.957 29.384,14.973 29.281,14.973 C29.281,14.973 29.281,14.973 29.281,14.973 C28.939,14.973 28.631,14.800 28.452,14.525 C28.452,14.525 19.652,16.130 19.652,16.130 C19.652,16.130 26.241,32.314 26.241,32.314 C26.298,32.454 26.230,32.615 26.088,32.672 C26.054,32.685 26.019,32.692 25.984,32.692 C25.875,32.692 25.377,32.774 25.333,32.666 C25.333,32.666 18.667,16.333 18.667,16.333 C18.667,16.333 19.096,16.231 19.096,16.231 C19.096,16.231 16.639,16.679 16.639,16.679 C16.632,16.695 16.625,16.711 16.617,16.727 C16.497,16.961 16.292,17.134 16.041,17.215 C16.041,17.215 16.000,17.334 16.000,17.334 C16.000,17.334 16.000,32.333 16.000,32.333 C16.000,32.485 15.638,32.692 15.485,32.692 C15.331,32.692 15.000,32.818 15.000,32.666 C15.000,32.666 15.000,17.667 15.000,17.667 C15.000,17.667 14.654,17.661 14.654,17.661 C14.555,17.693 14.453,17.709 14.350,17.709 C14.350,17.709 14.350,17.709 14.350,17.709 C13.959,17.709 13.612,17.482 13.452,17.136 C13.452,17.136 11.667,17.334 11.667,17.334 C11.667,17.334 5.333,32.333 5.333,32.333 C5.290,32.440 4.772,32.692 4.663,32.692 C4.628,32.692 4.593,32.685 4.559,32.672 C4.417,32.615 4.349,32.454 4.406,32.313 C4.406,32.313 10.382,17.693 10.382,17.693 C10.382,17.693 4.852,18.696 4.852,18.696 C4.846,18.708 4.841,18.722 4.835,18.734 C4.714,18.968 4.510,19.141 4.259,19.221 C4.259,19.221 3.627,19.425 3.627,19.425 C3.528,19.457 3.426,19.473 3.323,19.473 C2.893,19.473 2.515,19.199 2.383,18.792 C2.383,18.792 0.916,14.284 0.916,14.284 C0.834,14.035 0.856,13.769 0.976,13.535 C1.096,13.301 1.301,13.129 1.552,13.048 C1.552,13.048 2.183,12.845 2.183,12.845 C2.282,12.813 2.385,12.796 2.488,12.796 C2.665,12.796 2.832,12.844 2.978,12.926 C2.978,12.926 10.864,9.181 10.864,9.181 C10.767,8.700 11.047,8.210 11.528,8.055 C11.528,8.055 12.915,7.609 12.915,7.609 C13.014,7.577 13.116,7.562 13.220,7.562 C13.400,7.562 13.570,7.610 13.717,7.696 C13.717,7.696 24.559,2.561 24.559,2.561 C24.538,2.129 24.807,1.717 25.241,1.577 C25.241,1.577 27.843,0.741 27.843,0.741 C27.942,0.708 28.044,0.692 28.147,0.692 C28.577,0.692 28.955,0.966 29.087,1.373 C29.087,1.373 32.823,12.851 32.823,12.851 C32.990,13.366 32.705,13.921 32.187,14.088 zM2.901,13.647 C2.843,13.468 2.677,13.348 2.488,13.348 C2.443,13.348 2.398,13.354 2.354,13.368 C2.354,13.368 1.722,13.572 1.722,13.572 C1.612,13.607 2.053,13.897 2.000,14.000 C2.000,14.000 3.333,18.667 3.333,18.667 C3.392,18.845 3.134,18.922 3.323,18.922 C3.323,18.922 3.323,18.922 3.323,18.922 C3.368,18.922 3.413,18.915 3.457,18.901 C3.457,18.901 4.088,18.697 4.088,18.697 C4.199,18.662 4.288,18.586 4.341,18.483 C4.394,18.381 4.403,18.264 4.368,18.154 C4.368,18.154 2.901,13.647 2.901,13.647 zM11.000,10.000 L3.720,13.482 C3.720,13.482 5.333,18.000 5.333,18.000 C5.348,18.045 5.325,17.621 5.333,17.667 C5.333,17.667 13.000,16.333 13.000,16.333 C13.000,16.333 11.333,11.667 11.333,11.667 C11.326,11.671 11.567,11.418 11.559,11.421 C11.559,11.421 9.343,12.482 9.343,12.482 C9.304,12.500 9.263,12.508 9.223,12.508 C9.119,12.508 9.020,12.452 8.973,12.353 C8.906,12.216 8.964,12.051 9.102,11.986 C9.102,11.986 11.319,10.925 11.319,10.925 C11.350,10.910 11.382,10.902 11.415,10.900 C11.415,10.900 11.000,10.000 11.000,10.000 zM13.633,8.411 C13.574,8.232 13.408,8.112 13.220,8.112 C13.174,8.112 13.130,8.119 13.086,8.133 C13.086,8.133 12.557,8.303 12.557,8.303 C12.557,8.303 13.934,12.174 13.934,12.174 C13.986,12.318 13.911,12.475 13.767,12.527 C13.736,12.538 13.705,12.543 13.673,12.543 C13.560,12.543 13.453,12.473 13.413,12.360 C13.413,12.360 12.030,8.473 12.030,8.473 C12.030,8.473 11.699,8.580 11.699,8.580 C11.471,8.652 11.346,8.897 11.419,9.123 C11.419,9.123 13.937,16.860 13.937,16.860 C13.995,17.038 14.161,17.158 14.350,17.158 C14.395,17.158 14.440,17.151 14.484,17.137 C14.484,17.137 15.871,16.692 15.871,16.692 C15.981,16.655 16.071,16.579 16.124,16.476 C16.176,16.375 16.186,16.257 16.150,16.148 C16.150,16.148 13.633,8.411 13.633,8.411 zM24.667,3.333 L14.432,8.285 C14.432,8.285 17.000,15.667 17.000,15.667 C17.007,15.688 17.005,15.677 17.002,15.666 C17.002,15.666 28.000,13.667 28.000,13.667 L24.667,3.333 zM32.000,13.333 C32.000,13.333 28.333,1.667 28.333,1.667 C28.275,1.489 28.336,1.244 28.147,1.244 C28.102,1.244 28.057,1.251 28.013,1.265 C28.013,1.265 25.412,2.101 25.412,2.101 C25.184,2.174 25.260,2.441 25.333,2.667 C25.333,2.667 29.000,14.333 29.000,14.333 C29.058,14.513 29.092,14.422 29.281,14.422 C29.326,14.422 29.371,14.415 29.415,14.400 C29.415,14.400 30.670,13.997 30.670,13.997 C30.670,13.997 29.316,10.231 29.316,10.231 C29.264,10.087 29.339,9.930 29.483,9.879 C29.627,9.827 29.786,9.902 29.837,10.046 C29.837,10.046 31.198,13.827 31.198,13.827 C31.198,13.827 32.016,13.564 32.016,13.564 C32.244,13.491 32.074,13.560 32.000,13.333 zM24.939,5.196 C24.939,5.196 21.191,6.971 21.191,6.971 C21.153,6.989 21.112,6.998 21.072,6.998 C20.969,6.998 20.869,6.940 20.822,6.840 C20.756,6.704 20.815,6.539 20.953,6.474 C20.953,6.474 24.700,4.699 24.700,4.699 C24.838,4.633 25.004,4.691 25.070,4.829 C25.135,4.966 25.077,5.131 24.939,5.196 zM19.862,7.600 C19.862,7.600 17.714,8.618 17.714,8.618 C17.676,8.635 17.635,8.644 17.595,8.644 C17.492,8.644 17.392,8.587 17.345,8.487 C17.279,8.349 17.338,8.185 17.476,8.120 C17.476,8.120 19.624,7.103 19.624,7.103 C19.762,7.037 19.927,7.096 19.993,7.233 C20.059,7.371 20.000,7.535 19.862,7.600 zM17.002,15.666 C17.002,15.666 17.000,15.667 17.000,15.667 C16.996,15.645 16.999,15.656 17.002,15.666 zM8.238,12.981 C8.238,12.981 6.859,13.640 6.859,13.640 C6.820,13.658 6.779,13.667 6.739,13.667 C6.636,13.667 6.537,13.610 6.489,13.511 C6.423,13.374 6.481,13.210 6.619,13.144 C6.619,13.144 7.998,12.484 7.998,12.484 C8.136,12.418 8.301,12.475 8.368,12.613 C8.434,12.749 8.376,12.914 8.238,12.981 z" fill="#338BC3" /></svg>