<svg xmlns="http://www.w3.org/2000/svg" width="34" height="34" viewBox="0 0 34 34"><path d="M32.187 14.088l-2.602.837a.986.986 0 0 1-1.133-.4l-8.8 1.605 6.589 16.184a.275.275 0 0 1-.257.378c-.109 0-.607.082-.651-.026l-6.666-16.333.429-.102-2.457.448a.98.98 0 0 1-.598.536l-.041.119v14.999c0 .152-.362.359-.515.359-.154 0-.485.126-.485-.026V17.667l-.346-.006a.987.987 0 0 1-1.202-.525l-1.785.198-6.334 14.999c-.043.107-.561.359-.67.359a.276.276 0 0 1-.257-.379l5.976-14.62-5.53 1.003-.017.038a.979.979 0 0 1-.576.487l-.632.204a.985.985 0 0 1-1.244-.633L.916 14.284a.98.98 0 0 1 .636-1.236l.631-.203a.993.993 0 0 1 .795.081l7.886-3.745a.983.983 0 0 1 .664-1.126l1.387-.446a.986.986 0 0 1 .802.087l10.842-5.135a.986.986 0 0 1 .682-.984l2.602-.836a.985.985 0 0 1 1.244.632l3.736 11.478a.983.983 0 0 1-.636 1.237zm-29.286-.441a.432.432 0 0 0-.547-.279l-.632.204c-.11.035.331.325.278.428l1.333 4.667c.059.178-.199.255-.01.255.045 0 .09-.007.134-.021l.631-.204a.426.426 0 0 0 .253-.214.428.428 0 0 0 .027-.329l-1.467-4.507zM11 10l-7.28 3.482L5.333 18c.015.045-.008-.379 0-.333L13 16.333l-1.667-4.666c-.007.004.234-.249.226-.246l-2.216 1.061a.286.286 0 0 1-.12.026.274.274 0 0 1-.121-.522l2.217-1.061a.253.253 0 0 1 .096-.025L11 10zm2.633-1.589a.434.434 0 0 0-.547-.278l-.529.17 1.377 3.871a.275.275 0 0 1-.261.369.276.276 0 0 1-.26-.183L12.03 8.473l-.331.107a.431.431 0 0 0-.28.543l2.518 7.737a.433.433 0 0 0 .547.277l1.387-.445a.44.44 0 0 0 .253-.216.425.425 0 0 0 .026-.328l-2.517-7.737zm11.034-5.078L14.432 8.285 17 15.667c.007.021.005.01.002-.001L28 13.667 24.667 3.333zm7.333 10L28.333 1.667c-.058-.178.003-.423-.186-.423a.441.441 0 0 0-.134.021l-2.601.836c-.228.073-.152.34-.079.566L29 14.333c.058.18.092.089.281.089.045 0 .09-.007.134-.022l1.255-.403-1.354-3.766a.274.274 0 0 1 .167-.352.276.276 0 0 1 .354.167l1.361 3.781.818-.263c.228-.073.058-.004-.016-.231zm-7.061-8.137l-3.748 1.775a.276.276 0 0 1-.238-.497L24.7 4.699a.275.275 0 1 1 .239.497zM19.862 7.6l-2.148 1.018a.293.293 0 0 1-.119.026.275.275 0 0 1-.119-.524l2.148-1.017a.277.277 0 0 1 .369.13.274.274 0 0 1-.131.367zm-2.86 8.066l-.002.001c-.004-.022-.001-.011.002-.001zm-8.764-2.685l-1.379.659a.277.277 0 0 1-.37-.129.274.274 0 0 1 .13-.367l1.379-.66a.276.276 0 0 1 .24.497z" fill="#338BC3"/></svg>