<svg xmlns="http://www.w3.org/2000/svg" width="38" height="38" viewBox="0 0 38 38"><path d="M37.407 7.122a.588.588 0 0 1-.117-.012l-8.906-1.781a.53.53 0 0 1-.113-.035l-4.673 5.194a.596.596 0 0 1-.442.196h-.021a.593.593 0 0 1-.447-.229l-.72-.925c-.009.505-.23.961-.578 1.28l.159 1.598a.769.769 0 0 1 .005.05l.333 3.367a.64.64 0 0 1 .017.163l1.721 17.375a.596.596 0 0 1-.171.478l-3.984 3.985a.592.592 0 0 1-.84 0l-3.984-3.985a.59.59 0 0 1-.171-.475L16.61 10.81a1.776 1.776 0 0 1-.578-1.28l-.719.925a.593.593 0 0 1-.448.229h-.021a.596.596 0 0 1-.442-.196L9.729 5.294a.548.548 0 0 1-.113.035L.71 7.11a.595.595 0 0 1-.233-1.164l8.44-1.688a.585.585 0 0 1 .052-.371l1.201-2.403a1.78 1.78 0 0 1 2.508-.732L19 4.075 25.322.752a1.783 1.783 0 0 1 2.508.732l1.201 2.403a.591.591 0 0 1 .052.371l8.44 1.688a.594.594 0 0 1-.116 1.176zm-16.02 15.696l-4.312-4.312-.112 1.177 4.565 4.566-.141-1.431zM19.4 10.091h.788a.592.592 0 0 0 .47-.234c-.01-.008-.021-.016-.03-.026l-2.717-2.717-.651.837 2.14 2.14zm-2.172-.494a.593.593 0 0 0 .484.484l-.484-.484zm.505 1.95l2.816 2.816-.159-1.603-1.481-1.482h-1.097l-.053-.001-.026.27zm-.145 1.535l-.112 1.181a.38.38 0 0 1 .042.038l3.357 3.357-.141-1.43-3.146-3.146zm-.257 2.712l-.114 1.204a.711.711 0 0 1 .125.095l3.86 3.861-.142-1.431-.003-.003-3.726-3.726zm4.377 10.269a.582.582 0 0 1-.159-.114l-4.731-4.731-.112 1.179.018.017 5.131 5.13-.147-1.481zm-6.025 7.136l3.367 3.367.619-.619-3.878-3.88-.108 1.132zm.253-2.666l4.573 4.574.645-.645-5.107-5.107-.111 1.178zm.256-2.712l5.802 5.801.421-.421-.049-.5c-.013-.011-.027-.022-.039-.034l-6.023-6.025-.112 1.179zm.369-3.891l-.112 1.179.002.001 5.73 5.731-.142-1.432-5.478-5.479zM12.109 1.795a1.455 1.455 0 0 1-.035-.02.581.581 0 0 0-.474-.065.587.587 0 0 0-.368.305l-1.02 2.041 4.599 5.11 3.285-4.224-5.987-3.147zm6.537 4.374l2.135 2.136a.593.593 0 0 1 .051-.235L19 5.714l-.354.455zm8.122-4.154a.587.587 0 0 0-.368-.305.584.584 0 0 0-.509.085l-5.987 3.147 3.286 4.224 4.598-5.11-1.02-2.041zM4.75 16.029h7.125c.982 0 1.781.799 1.781 1.782v7.125c0 .982-.799 1.781-1.781 1.781H4.75a1.783 1.783 0 0 1-1.782-1.781v-7.125c0-.984.799-1.782 1.782-1.782zm-.594 8.907c0 .327.266.594.594.594h7.125a.595.595 0 0 0 .594-.594v-3.894l-3.948 1.481a.598.598 0 0 1-.417 0l-3.948-1.481v3.894zm0-5.162l4.156 1.559 4.157-1.559v-1.963a.595.595 0 0 0-.594-.595H4.75a.594.594 0 0 0-.594.595v1.963zm4.156-.182a.594.594 0 1 1 0 1.188.594.594 0 0 1 0-1.188zm16.626-2.376h2.375v-2.969c0-.654.533-1.187 1.187-1.187h1.188c.654 0 1.187.533 1.187 1.187v1.188c.982 0 1.781.799 1.781 1.781h1.782c.327 0 .594.266.594.595v7.125c0 .982-.8 1.781-1.782 1.781h-7.125a1.783 1.783 0 0 1-1.781-1.781v-7.125c0-.329.266-.595.594-.595zm4.75-2.969H28.5v2.969h1.188v-2.969zm1.187 2.376v.593h.594a.594.594 0 0 0-.594-.593zm-5.344 8.313c0 .327.267.594.594.594h7.125a.595.595 0 0 0 .594-.594v-6.532h-1.188v2.375a.593.593 0 1 1-1.187 0v-2.375h-5.938v6.532z" fill="#338BC3"/></svg>