<svg version="1.1" xmlns="http://www.w3.org/2000/svg" xmlns:xlink="http://www.w3.org/1999/xlink" width="21" height="21" viewBox="0 0 21 21"><g id="true"><path id="Ellipse-7-copy-5" d="M10.500,0.000 C16.299,0.000 21.000,4.701 21.000,10.500 C21.000,16.299 16.299,21.000 10.500,21.000 C4.701,21.000 0.000,16.299 0.000,10.500 C0.000,4.701 4.701,0.000 10.500,0.000 z" fill="#68A723" /><path id="Rounded-Rectangl" d="M15.357,8.749 C15.357,8.749 9.409,14.697 9.409,14.697 C9.078,15.028 8.542,15.028 8.211,14.697 C8.099,14.585 8.039,14.446 8.003,14.302 C8.003,14.302 5.211,11.509 5.211,11.509 C4.880,11.179 4.880,10.642 5.211,10.311 C5.542,9.981 6.078,9.981 6.409,10.311 C6.409,10.311 8.904,12.807 8.904,12.807 C8.904,12.807 14.159,7.551 14.159,7.551 C14.490,7.220 15.026,7.220 15.357,7.551 C15.688,7.881 15.688,8.419 15.357,8.749 z" fill="#FFFFFF" /></g></svg>