<svg xmlns="http://www.w3.org/2000/svg" width="44" height="55" viewBox="0 0 44 55"><path d="M40.499 9.974h-3.501l-2.834 2.724a.613.613 0 0 1-.665.131c-.229-.094-.503-.115-.503-.361V9.974h-8.503c-1.683 0-2.971-1.499-2.971-3.175v-3.76a3.05 3.05 0 0 1 3.053-3.04h15.872a3.05 3.05 0 0 1 3.053 3.04v3.76c0 1.676-1.318 3.175-3.001 3.175zm1.5-6.981c0-1.007-.49-1.497-1.5-1.497H24.493c-1.01 0-1.501.49-1.501 1.497v3.989c0 1.005.491 1.496 1.501 1.496h9.003c.338 0 .846.416.846.751v1.572L36.353 8.8c.115-.114.483-.322.645-.322h4.001c1.01 0 1-.491 1-1.496V2.993zm-2 3.989H25.493c-.336 0-.918-.569-.918-.905 0-.336.273-.608.61-.608h14.652c.337 0 .61.272.61.608 0 .336-.111.905-.448.905zm0-2.494H29.495c-.337 0-.647-.507-.647-.842 0-.336.273-.607.611-.607h10.378c.337 0 .61.271.61.607 0 .335-.111.842-.448.842zm-13.005 0h-2.001c-.337 0-.418-.507-.418-.842 0-.336.273-.607.61-.607h1.832c.337 0 .61.271.61.607 0 .335-.296.842-.633.842zm3.478 10.05a.675.675 0 0 1 .682.497c1.485 5.79-.511 11.671-.596 11.919a.658.658 0 0 1-.121.205c.236 1.364.233 3.145-.236 5.478-.853 4.247-3.098 6.478-4.831 7.603-1.891 1.227-3.584 1.434-3.655 1.442-.011.002-.299.04-.778.04-2.02 0-7.438-.662-9.863-7.435-.988-2.762-1.127-5.044-.877-6.881-.023-.041-.065-.065-.079-.111-.101-.337-2.453-8.287.429-11.555.99-1.123 2.434-1.569 4.296-1.326 2.634-1.834 4.886-1.333 7.716-.701 2.133.475 4.548 1.014 7.913.825zM12.329 33.841c1.111 3.108 3.006 5.148 5.631 6.066 1.952.681 3.568.464 3.584.461.256-.031 5.907-.801 7.352-7.99.767-3.817.184-5.882-.439-6.942-.592-1.005-1.311-1.269-1.318-1.271a.736.736 0 0 1-.165-.079c-.032-.02-3.715-2.282-13.321-1.202-.713.715-3.726 4.249-1.324 10.957zm3.082-18.202a.669.669 0 0 1-.505.123c-1.533-.249-2.632.03-3.358.851-1.505 1.706-1.183 5.519-.664 8.187.807-1.96 1.944-2.97 2.04-3.052a.67.67 0 0 1 .356-.155c9.706-1.131 13.763.992 14.355 1.342.317.127 1.334.627 2.087 2.038.46-1.973 1.034-5.552.266-9.087-3.268.116-5.725-.435-7.72-.88-2.779-.62-4.615-1.03-6.857.633zM12.083 41.22a1.652 1.652 0 0 1 2.192-.134l6.139 4.828 6.138-4.827a1.651 1.651 0 0 1 2.193.134l1.442 1.45 2.288.172c4.401.329 7.849 4.03 7.849 8.424 0 1.787-1.137 3.241-2.932 3.241H3.63c-1.795 0-3.126-1.454-3.126-3.241 0-4.394 3.447-8.095 7.848-8.424l2.288-.172 1.443-1.451zm1.367.907a.317.317 0 0 0-.421.025l-1.184 1.19 5.112 5.862 2.392-2.438-5.899-4.639zm14.349.025a.32.32 0 0 0-.422-.025l-5.899 4.639 2.393 2.438 5.111-5.862-1.183-1.19zM1.835 51.267c0 1.056.734 1.994 1.795 1.994h33.137c1.061 0 2.225-.938 2.225-1.994 0-3.704-2.906-6.825-6.617-7.102l-2.202-.166-5.771 6.617a.664.664 0 0 1-.483.228.651.651 0 0 1-.496-.2l-3.009-3.067-3.01 3.067a.636.636 0 0 1-.496.2.664.664 0 0 1-.483-.228l-5.77-6.617-2.202.166c-3.711.277-6.618 3.398-6.618 7.102z" fill="#338BC3"/></svg>