<svg version="1.1" xmlns="http://www.w3.org/2000/svg" xmlns:xlink="http://www.w3.org/1999/xlink" width="44" height="55" viewBox="0 0 44 55"><path id="icon_user_speach" d="M40.499,9.974 C40.499,9.974 36.998,9.974 36.998,9.974 C36.998,9.974 34.164,12.698 34.164,12.698 C34.047,12.814 33.891,12.876 33.732,12.876 C33.653,12.876 33.574,12.860 33.499,12.829 C33.270,12.735 32.996,12.714 32.996,12.468 C32.996,12.468 32.996,9.974 32.996,9.974 C32.996,9.974 24.493,9.974 24.493,9.974 C22.810,9.974 21.522,8.475 21.522,6.799 C21.522,6.799 21.522,3.039 21.522,3.039 C21.522,1.363 22.892,-0.001 24.575,-0.001 C24.575,-0.001 40.447,-0.001 40.447,-0.001 C42.131,-0.001 43.500,1.363 43.500,3.039 C43.500,3.039 43.500,6.799 43.500,6.799 C43.500,8.475 42.182,9.974 40.499,9.974 zM41.999,2.993 C41.999,1.986 41.509,1.496 40.499,1.496 C40.499,1.496 24.493,1.496 24.493,1.496 C23.483,1.496 22.992,1.986 22.992,2.993 C22.992,2.993 22.992,6.982 22.992,6.982 C22.992,7.987 23.483,8.478 24.493,8.478 C24.493,8.478 33.496,8.478 33.496,8.478 C33.834,8.478 34.342,8.894 34.342,9.229 C34.342,9.229 34.342,10.801 34.342,10.801 C34.342,10.801 36.353,8.800 36.353,8.800 C36.468,8.686 36.836,8.478 36.998,8.478 C36.998,8.478 40.999,8.478 40.999,8.478 C42.009,8.478 41.999,7.987 41.999,6.982 C41.999,6.982 41.999,2.993 41.999,2.993 zM39.999,6.982 C39.999,6.982 25.493,6.982 25.493,6.982 C25.157,6.982 24.575,6.413 24.575,6.077 C24.575,5.741 24.848,5.469 25.185,5.469 C25.185,5.469 39.837,5.469 39.837,5.469 C40.174,5.469 40.447,5.741 40.447,6.077 C40.447,6.413 40.336,6.982 39.999,6.982 zM39.999,4.488 C39.999,4.488 29.495,4.488 29.495,4.488 C29.158,4.488 28.848,3.981 28.848,3.646 C28.848,3.310 29.121,3.039 29.459,3.039 C29.459,3.039 39.837,3.039 39.837,3.039 C40.174,3.039 40.447,3.310 40.447,3.646 C40.447,3.981 40.336,4.488 39.999,4.488 zM26.994,4.488 C26.994,4.488 24.993,4.488 24.993,4.488 C24.656,4.488 24.575,3.981 24.575,3.646 C24.575,3.310 24.848,3.039 25.185,3.039 C25.185,3.039 27.017,3.039 27.017,3.039 C27.354,3.039 27.627,3.310 27.627,3.646 C27.627,3.981 27.331,4.488 26.994,4.488 zM30.472,14.538 C30.787,14.527 31.075,14.729 31.154,15.035 C32.639,20.825 30.643,26.706 30.558,26.954 C30.531,27.032 30.487,27.099 30.437,27.159 C30.673,28.523 30.670,30.304 30.201,32.637 C29.348,36.884 27.103,39.115 25.370,40.240 C23.479,41.467 21.786,41.674 21.715,41.682 C21.704,41.684 21.416,41.722 20.937,41.722 C18.917,41.722 13.499,41.060 11.074,34.287 C10.086,31.525 9.947,29.243 10.197,27.406 C10.174,27.365 10.132,27.341 10.118,27.295 C10.017,26.958 7.665,19.008 10.547,15.740 C11.537,14.617 12.981,14.171 14.843,14.414 C17.477,12.580 19.729,13.081 22.559,13.713 C24.692,14.188 27.107,14.727 30.472,14.538 zM12.329,33.841 C13.440,36.949 15.335,38.989 17.960,39.907 C19.912,40.588 21.528,40.371 21.544,40.368 C21.800,40.337 27.451,39.567 28.896,32.378 C29.663,28.561 29.080,26.496 28.457,25.436 C27.865,24.431 27.146,24.167 27.139,24.165 C27.081,24.146 27.026,24.119 26.974,24.086 C26.942,24.066 23.259,21.804 13.653,22.884 C12.940,23.599 9.927,27.133 12.329,33.841 zM15.411,15.639 C15.266,15.746 15.085,15.791 14.906,15.762 C13.373,15.513 12.274,15.792 11.548,16.613 C10.043,18.319 10.365,22.132 10.884,24.800 C11.691,22.840 12.828,21.830 12.924,21.748 C13.025,21.662 13.148,21.609 13.280,21.593 C22.986,20.462 27.043,22.585 27.635,22.935 C27.952,23.062 28.969,23.562 29.722,24.973 C30.182,23.000 30.756,19.421 29.988,15.886 C26.720,16.002 24.263,15.451 22.268,15.006 C19.489,14.386 17.653,13.976 15.411,15.639 zM12.083,41.220 C12.673,40.626 13.616,40.568 14.275,41.086 C14.275,41.086 20.414,45.914 20.414,45.914 C20.414,45.914 26.552,41.087 26.552,41.087 C27.211,40.568 28.154,40.626 28.745,41.221 C28.745,41.221 30.187,42.671 30.187,42.671 C30.187,42.671 32.475,42.843 32.475,42.843 C36.876,43.172 40.324,46.873 40.324,51.267 C40.324,53.054 39.187,54.508 37.392,54.508 C37.392,54.508 20.511,54.508 20.511,54.508 C20.511,54.508 3.630,54.508 3.630,54.508 C1.835,54.508 0.504,53.054 0.504,51.267 C0.504,46.873 3.951,43.172 8.352,42.843 C8.352,42.843 10.640,42.671 10.640,42.671 C10.640,42.671 12.083,41.220 12.083,41.220 zM13.450,42.127 C13.323,42.027 13.142,42.038 13.029,42.152 C13.029,42.152 11.845,43.342 11.845,43.342 L16.957,49.204 L19.349,46.766 C19.349,46.766 13.450,42.127 13.450,42.127 zM27.799,42.152 C27.685,42.038 27.504,42.028 27.377,42.127 C27.377,42.127 21.478,46.766 21.478,46.766 L23.871,49.204 L28.982,43.342 C28.982,43.342 27.799,42.152 27.799,42.152 zM1.835,51.267 C1.835,52.323 2.569,53.261 3.630,53.261 C3.630,53.261 19.886,53.261 19.886,53.261 L21.136,53.261 C21.136,53.261 36.767,53.261 36.767,53.261 C37.828,53.261 38.992,52.323 38.992,51.267 C38.992,47.563 36.086,44.442 32.375,44.165 C32.375,44.165 30.173,43.999 30.173,43.999 C30.173,43.999 24.402,50.616 24.402,50.616 C24.280,50.756 24.105,50.839 23.919,50.844 C23.738,50.856 23.554,50.777 23.423,50.644 C23.423,50.644 20.414,47.577 20.414,47.577 C20.414,47.577 17.404,50.644 17.404,50.644 C17.274,50.777 17.099,50.856 16.908,50.844 C16.722,50.839 16.547,50.756 16.425,50.616 C16.425,50.616 10.655,43.999 10.655,43.999 C10.655,43.999 8.453,44.165 8.453,44.165 C4.742,44.442 1.835,47.563 1.835,51.267 z" fill="#338BC3" /></svg>