<svg version="1.1" xmlns="http://www.w3.org/2000/svg" xmlns:xlink="http://www.w3.org/1999/xlink" width="26" height="24" viewBox="0 0 26 24"><g id="-Block7_icon12"><path id="Rectangle-19" d="M0.034,15.159 L8.674,15.159 L8.674,22.839 L0.034,22.839 L0.034,15.159 z" fill="#EC462F" /><path id="Rectangle-19-cop" d="M8.674,7.798 L17.313,7.798 L17.313,22.839 L8.674,22.839 L8.674,7.798 z" fill="#4078CC" /><path id="Rectangle-19-cop" d="M17.313,0.759 L25.952,0.759 L25.952,22.839 L17.313,22.839 L17.313,0.759 z" fill="#FBCD33" /><path id="Rectangle-19-cop" d="M6.114,15.159 L8.674,15.159 L8.674,22.839 L6.114,22.839 L6.114,15.159 z" fill="#CB3B27" /><path id="Rectangle-19-cop" d="M14.753,7.798 L17.313,7.798 L17.313,22.839 L14.753,22.839 L14.753,7.798 z" fill="#3C5B94" /><path id="Rectangle-19-cop" d="M23.393,0.759 L25.952,0.759 L25.952,22.839 L23.393,22.839 L23.393,0.759 z" fill="#EBBB2F" /></g></svg>