<svg xmlns="http://www.w3.org/2000/svg" width="45" height="61" viewBox="0 0 45 61"><path d="M10.968 21.073a9.132 9.132 0 0 0 4.753 1.337 9.133 9.133 0 0 0 4.754-1.337c3.487-2.118 5.378-6.31 5.189-11.5-.201-5.485-4.085-8.496-8.132-9.282-.04-.01-.501-.077-.97-.131a11.806 11.806 0 0 0-1.528-.021c-.218.019-.439.04-.593.063-4.232.617-8.452 3.648-8.662 9.371-.189 5.19 1.702 9.382 5.189 11.5zM18.357 3.4c2.448.888 4.451 2.934 4.573 6.276l.006.178c-2.256.647-4.645.011-6.365-1.689.872-1.361 1.479-2.972 1.786-4.765zM8.546 9.181c.397-4.139 3.793-6.135 7.125-6.292-.332 2.007-1.063 3.42-1.854 4.403-.036.039-.811.875-1.149 1.142a6.502 6.502 0 0 1-4.16 1.412c.001-.056.022-.503.038-.665zm5.793 1.469a9.53 9.53 0 0 0 .437-.367c2.173 2.091 5.091 2.992 7.953 2.486-.476 2.661-1.741 4.739-3.652 5.9a6.445 6.445 0 0 1-6.712 0c-1.94-1.179-3.214-3.303-3.673-6.023a9.226 9.226 0 0 0 5.647-1.996zm30.276 26.888l-.542 4.959c-.084.768-.759 1.321-1.511 1.236-.751-.087-1.291-.778-1.207-1.547l.108-.987-3.844 3.931a10.924 10.924 0 0 1 1.195 4.985c0 5.933-4.719 10.76-10.52 10.76-5.8 0-10.519-4.827-10.519-10.76 0-5.934 4.719-10.761 10.519-10.761 1.26 0 2.494.226 3.666.672a1.41 1.41 0 0 1 .806 1.799 1.359 1.359 0 0 1-1.759.823 7.612 7.612 0 0 0-2.713-.496c-4.292 0-7.784 3.572-7.784 7.963 0 4.39 3.492 7.961 7.784 7.961s7.784-3.571 7.784-7.961c0-.993-.178-1.966-.522-2.875l-1.873 1.917c-.257.262-.605.41-.968.41h-4.278l-2.881 2.945c-.534.547-1.4.547-1.934 0a1.421 1.421 0 0 1 0-1.978l3.282-3.356c.256-.263.604-.41.967-.41h4.278l7.38-7.549-.967.11c-.75.086-1.427-.468-1.511-1.236-.084-.768.457-1.463 1.208-1.548 0 0 4.888-.573 4.91-.573h.003c.228 0 .461.039.677.145.523.257.831.83.766 1.421zm-27.444-4.37a1.421 1.421 0 0 1-.214-1.967l2.054-2.631a12.004 12.004 0 0 0-3.289-.462 12.015 12.015 0 0 0-3.29.461l2.055 2.63a1.419 1.419 0 0 1-.215 1.964 1.348 1.348 0 0 1-1.922-.224l-2.521-3.235c-1.755 1.104-3.102 2.782-3.526 5.126L3.386 50.942h10.091c.755 0 1.368.627 1.368 1.398 0 .773-.613 1.399-1.368 1.399H1.742c-.406 0-.791-.146-1.051-.466a1.339 1.339 0 0 1-.294-1.112L3.613 34.37c1.127-6.222 6.854-9.03 12.06-9.03H15.772c5.206 0 10.933 2.807 12.06 9.029l.029.148c.137.76-.353 1.49-1.096 1.631-.742.139-1.456-.362-1.594-1.122l-.029-.162c-.425-2.345-1.773-4.038-3.527-5.143l-2.521 3.227a1.349 1.349 0 0 1-1.923.22z" fill="#208BCE"/></svg>