<svg xmlns="http://www.w3.org/2000/svg" width="28" height="28" viewBox="0 0 28 28"><path d="M27.375 27.375c-.403.403-.94.626-1.511.626-.57 0-1.107-.223-1.51-.626l-5.847-5.846a2.126 2.126 0 0 1-.626-1.511c0-.437.131-.854.373-1.206l-1.364-1.365a10.022 10.022 0 0 1-6.828 2.678c-5.549 0-10.063-4.514-10.063-10.063 0-5.548 4.514-10.063 10.063-10.063s10.064 4.515 10.064 10.063c0 2.602-.993 4.977-2.62 6.765l1.379 1.379a2.118 2.118 0 0 1 1.133-.325c.571 0 1.107.223 1.511.626l5.846 5.846c.404.404.626.94.626 1.511s-.222 1.107-.626 1.511zM19.25 10.062c0-5.066-4.121-9.188-9.188-9.188C4.996.874.874 4.996.874 10.062c0 5.067 4.122 9.188 9.188 9.188 5.067 0 9.188-4.121 9.188-9.188zm7.507 14.91l-5.847-5.846a1.25 1.25 0 0 0-.892-.37 1.25 1.25 0 0 0-.892.37c-.238.238-.37.555-.37.892 0 .337.131.654.37.892l5.846 5.846c.239.239.555.37.892.37.337 0 .654-.131.893-.37.238-.238.369-.554.369-.892 0-.337-.131-.653-.369-.892zM15.312 14.875a1.314 1.314 0 0 1-1.184-1.878l-1.312-1.313h-.001a1.309 1.309 0 0 1-.996.055l-1.955 2.443a1.314 1.314 0 1 1-2.427.693c0-.344.133-.656.35-.891L4.564 7.861a1.314 1.314 0 0 1-1.502-1.299c0-.723.589-1.312 1.312-1.312a1.314 1.314 0 0 1 .964 2.203l3.223 6.123a1.314 1.314 0 0 1 .62.059l1.955-2.443a1.296 1.296 0 0 1-.199-.692c0-.724.589-1.313 1.313-1.313a1.314 1.314 0 0 1 1.184 1.878l1.313 1.313a1.314 1.314 0 1 1 .565 2.497zM4.374 6.125a.437.437 0 1 0 0 .875.437.437 0 0 0 0-.875zm4.376 8.313a.438.438 0 1 0 0 .875.438.438 0 0 0 0-.875zm3.5-4.376a.439.439 0 0 0 0 .875.437.437 0 0 0 0-.875zm3.062 3.063a.437.437 0 1 0 0 .875.437.437 0 0 0 0-.875z" fill="#338BC3"/></svg>