<svg xmlns="http://www.w3.org/2000/svg" width="472" height="506" viewBox="0 0 472 506"><path d="M41.537 368.675a.433.433 0 0 1-.36-.19 234.968 234.968 0 0 1-27.11-53.569.436.436 0 0 1 .821-.29 234.087 234.087 0 0 0 27.009 53.368.438.438 0 0 1-.36.681zm390.195-1.02a.437.437 0 0 1-.362-.678 234.181 234.181 0 0 0 25.627-50.415.437.437 0 0 1 .819.301 235.19 235.19 0 0 1-25.723 50.599.433.433 0 0 1-.361.193zm38.775-108.984a.435.435 0 0 1-.434-.476 238.65 238.65 0 0 0 1.009-21.919c0-12.693-1.022-25.432-3.037-37.862a.436.436 0 0 1 .859-.141 238.189 238.189 0 0 1 3.049 38.003c0 7.337-.341 14.739-1.013 21.999a.435.435 0 0 1-.433.396zM1.893 256.624a.435.435 0 0 1-.433-.4c-.553-6.589-.833-13.3-.833-19.948 0-13.429 1.139-26.894 3.385-40.021a.436.436 0 1 1 .858.146 237.218 237.218 0 0 0-3.372 39.875c0 6.624.279 13.312.829 19.876a.431.431 0 0 1-.397.469l-.037.003zM451.389 141.36a.437.437 0 0 1-.398-.26 234.852 234.852 0 0 0-31.033-51.102.435.435 0 1 1 .68-.544 235.705 235.705 0 0 1 31.149 51.294.437.437 0 0 1-.398.612zm-429.351-1.884a.415.415 0 0 1-.18-.041.434.434 0 0 1-.216-.576 235.817 235.817 0 0 1 31.612-51.036.435.435 0 1 1 .676.549 235.014 235.014 0 0 0-31.496 50.848.433.433 0 0 1-.396.256zm355.271-91.051a.428.428 0 0 1-.261-.088A234.685 234.685 0 0 0 325.02 18.83a.436.436 0 0 1 .33-.807 235.479 235.479 0 0 1 52.22 29.618.436.436 0 0 1-.261.784zM96.948 47.179a.436.436 0 0 1-.258-.787 235.436 235.436 0 0 1 52.452-29.14.434.434 0 1 1 .322.809 234.502 234.502 0 0 0-52.258 29.033.436.436 0 0 1-.258.085zM267.254 3.506a.39.39 0 0 1-.058-.005c-19.681-2.588-40.097-2.673-59.8-.257a.433.433 0 0 1-.484-.378.432.432 0 0 1 .379-.484c19.775-2.43 40.264-2.341 60.019.256a.435.435 0 0 1-.056.868z" fill="#D6D6D6"/><path d="M383.863 420.014c-34.163 27.245-74.911 44.287-118.336 49.417C249.901 471.278 238 484.147 238 499.779v6h-1v-6c0-16.07 12.363-29.309 28.426-31.207 43.318-5.118 83.964-22.134 118.028-49.339" fill="#B7B7B7" opacity=".678"/><path d="M237 468.778H96.5c-17.375 0-31.5 13.565-31.5 31.001v5.501M405.5 420.776v84.504" fill="none" stroke="#B7B7B7" opacity=".678"/><path d="M421.328 275.688c-.334 0-.651-.06-.958-.145l-46.33 93.249h-.357l-.123.48-139.757-50.955c-.839 1.753-2.687 2.898-4.737 2.718a4.785 4.785 0 0 1-3.724-2.377l-121.229 47.317c.119.359.199.736.199 1.134a3.609 3.609 0 1 1-7.218 0 3.6 3.6 0 0 1 1.653-3.026l-46.49-87.786a4.768 4.768 0 0 1-1.71.328 4.797 4.797 0 0 1-4.797-4.797 4.79 4.79 0 0 1 4.659-4.783l6.266-89.8c-.122.009-.238.036-.362.036-2.658 0-4.813-2.147-4.813-4.797 0-2.649 2.155-4.796 4.813-4.796.299 0 .588.034.871.087.127.023.247.061.37.094a4.507 4.507 0 0 1 .879.329c.074.037.146.077.218.118.177.099.349.201.511.321l45.331-66.77a3.565 3.565 0 0 1-1.149-2.617 3.602 3.602 0 0 1 3.609-3.594 3.59 3.59 0 0 1 2.686 1.215l75.508-41.566a3.567 3.567 0 0 1-.21-1.164 3.606 3.606 0 1 1 7.118-.817l93.501.296-.11.192.16-.152 73.295 40.154a3.582 3.582 0 0 1 2.911-1.501 3.593 3.593 0 0 1 3.594 3.593c0 1.01-.419 1.919-1.089 2.571l46.893 68.794a4.767 4.767 0 0 1 2.196-.552c2.658 0 4.813 2.147 4.813 4.797 0 2.302-1.629 4.221-3.799 4.685l6.906 92.268h.002a3.61 3.61 0 1 1 0 7.219zm-47.768 92.148l46.413-92.417a3.598 3.598 0 0 1-2.24-3.203l-116.181 11.756c.001.036.011.07.011.106 0 1.05-.454 1.987-1.167 2.647l73.164 80.628v.483zm-114.656-205.53l48.412 42.283a4.778 4.778 0 0 1 3.387-1.401c2.176 0 3.993 1.458 4.58 3.444l36.722-7.65c-.012-.119-.036-.235-.036-.357a3.58 3.58 0 0 1 1.503-2.913l-48.092-66.874a3.595 3.595 0 0 1-1.646.412 3.598 3.598 0 0 1-2.493-1.004l-42.138 28.79c.441.725.71 1.568.71 2.48a4.763 4.763 0 0 1-.909 2.79zm51.799 50.475c-.12 0-.233-.026-.351-.035l-11.588 67.818c.373.085.719.234 1.039.426l53.586-79.52a3.586 3.586 0 0 1-1.328-2.058l-36.655 7.636a4.797 4.797 0 0 1-4.703 5.733zm-10.537 68.46a3.592 3.592 0 0 1 1.328 2.156l116.255-11.619a3.59 3.59 0 0 1 1.078-2.295l-60.866-68.199a3.568 3.568 0 0 1-2.398.935 3.563 3.563 0 0 1-1.808-.504l-53.589 79.526zm72.932 87.036l-72.963-81.336a3.55 3.55 0 0 1-2.166.746c-1.383 0-2.57-.793-3.171-1.943l-60.718 29.152c.166.561.241 1.159.187 1.777a4.75 4.75 0 0 1-.296 1.233l139.127 50.371zm-143.192-56.806c1.872.165 3.381 1.392 4.028 3.029l60.686-29.137a3.607 3.607 0 0 1-.245-1.285 3.602 3.602 0 0 1 3.594-3.609c.111 0 .216.023.325.033l11.586-67.804a4.789 4.789 0 0 1-3.974-4.714 4.76 4.76 0 0 1 .985-2.883l-48.472-42.208a4.779 4.779 0 0 1-3.403 1.42 4.797 4.797 0 0 1-4.693-3.81l-66.401 14.139c.02.155.047.307.047.467a3.602 3.602 0 0 1-3.594 3.61c-.067 0-.129-.016-.194-.02l-20.339 85.342a3.585 3.585 0 0 1 2.064 3.24 3.57 3.57 0 0 1-.549 1.891l64.251 44.283c.957-1.324 2.552-2.137 4.298-1.984zM156.22 264.37l-26.966-42.936a4.74 4.74 0 0 1-2.863.972 4.79 4.79 0 0 1-3.982-2.128l-67.821 48.985c.445.7.71 1.521.74 2.405l99.391-4.382v-.005c0-1.201.595-2.258 1.501-2.911zm-29.829-51.589c1.156 0 2.202.427 3.03 1.111l47.781-37.121a3.59 3.59 0 0 1-.405-1.503l-115.679-2.712c-.004.235-.03.463-.07.686a4.584 4.584 0 0 1-.145.607l62.054 40.393a4.765 4.765 0 0 1 3.434-1.461zm3.694 1.778a4.772 4.772 0 0 1 1.102 3.035 4.784 4.784 0 0 1-1.589 3.555l27.001 42.991a3.566 3.566 0 0 1 1.713-.453c.232 0 .457.027.676.069l20.385-85.197a3.568 3.568 0 0 1-1.693-1.084l-47.595 37.084zm-26.107 151.052l121.191-47.304a4.76 4.76 0 0 1-.465-2.475c.066-.75.316-1.434.68-2.039l-64.265-44.292a3.573 3.573 0 0 1-2.807 1.374 3.557 3.557 0 0 1-1.54-.359l-54.141 93.552a3.607 3.607 0 0 1 1.347 1.543zm-4.864-1.727a3.568 3.568 0 0 1 1.589-.384c.554 0 1.073.135 1.542.358l54.142-93.552a3.574 3.574 0 0 1-1.623-2.578l-99.449 4.386a4.774 4.774 0 0 1-2.677 4.013l46.476 87.757zM58.865 176.537a5.076 5.076 0 0 1-.418.226 4.855 4.855 0 0 1-.861.327 4.856 4.856 0 0 1-.466.11l-6.27 89.862a4.765 4.765 0 0 1 3.487 1.856l67.868-49.017a4.781 4.781 0 0 1-.611-2.307c0-1.148.417-2.188 1.086-3.015l-61.91-40.301c-.039.096-.089.184-.133.276-.072.149-.15.293-.236.433-.061.098-.121.195-.188.289-.133.183-.276.36-.433.522-.085.088-.178.165-.27.247-.1.089-.203.175-.31.255a4.6 4.6 0 0 1-.335.237zm50.561-74.68a3.598 3.598 0 0 1-2.473.987 3.59 3.59 0 0 1-2.166-.735l-45.331 66.77c.19.165.364.344.526.536l.06.072c.144.178.277.363.395.561.033.055.061.113.092.17.1.183.194.367.269.563.031.08.05.165.077.247.061.192.124.381.162.582l115.778 3.165a3.58 3.58 0 0 1 .842-2.003l-68.231-70.915zm75.855-46.202l-75.4 41.507c.425.589.681 1.307.681 2.088 0 .772-.249 1.482-.665 2.068l68.206 71.016a3.553 3.553 0 0 1 2.225-.829l7.646-113.813a3.596 3.596 0 0 1-2.693-2.037zm5.322 1.447a3.582 3.582 0 0 1-1.961.638l-7.828 113.804a3.58 3.58 0 0 1 3.019 2.636l66.438-14.145c-.019-.173-.052-.341-.052-.519 0-1.658.841-3.119 2.12-3.981l-61.736-98.433zm.408-.336l61.831 98.496a4.742 4.742 0 0 1 2.174-.543c1.494 0 2.811.697 3.691 1.768l42.124-28.714a3.55 3.55 0 0 1-.415-3.53L191.825 55.634c-.197.43-.474.812-.814 1.132zm94.334-2.767l-.005-.003-.006.01-93.221-.296c.017.143.043.283.043.431 0 .402-.081.782-.202 1.143l108.638 68.638a3.59 3.59 0 0 1 1.972-1.65l-17.219-68.273zm.342.187l17.151 68.002c.288-.074.585-.125.896-.125a3.6 3.6 0 0 1 3.265 2.083l51.673-26.527a3.549 3.549 0 0 1-.453-1.713c0-.631.177-1.216.463-1.731l-72.995-39.989zM361.812 99.5a3.584 3.584 0 0 1-2.93-1.525l-51.735 26.56c.117.355.197.727.197 1.121a3.583 3.583 0 0 1-1.573 2.965l48.082 66.861a3.56 3.56 0 0 1 1.71-.451c.059 0 .114.015.173.018l6.216-95.563c-.048.002-.092.014-.14.014zm2.211-.78a3.557 3.557 0 0 1-1.698.728l-6.22 95.638a3.574 3.574 0 0 1 2.558 1.751l50.384-23.317a4.74 4.74 0 0 1-.453-2.004c0-1.72.916-3.217 2.28-4.064L364.023 98.72zm50.005 77.53c-.206.027-.409.063-.622.063-1.79 0-3.334-.987-4.163-2.433l-50.385 23.317c.19.438.298.92.298 1.428 0 .905-.345 1.721-.897 2.353l60.898 68.234a3.562 3.562 0 0 1 1.776-.703l-6.905-92.259z" fill="#C4D0D8"/><path d="M204.612 268.95v-63.844l64.316.001v63.843h-64.316zm60.956-60.483h-57.596v57.122h57.596v-57.122zm-19.142 12.332c2.206.701 4.123 1.765 5.75 3.185 1.626 1.426 2.904 3.221 3.834 5.39.929 2.167 1.394 4.719 1.394 7.654 0 2.935-.465 5.486-1.394 7.654-.93 2.169-2.208 3.965-3.834 5.387-1.627 1.423-3.544 2.486-5.75 3.187-2.208.702-4.701 1.293-7.256 1.293h-23.038v-2.88c1.068 0 4.774-.509 4.774-1.297v-9.275l10.584.011v7.681h3.84c2.184 0 3.67-.306 5.297-.658 1.626-.349 2.446-.974 3.516-1.873 1.068-.897 1.87-2.09 2.404-3.579.534-1.49.802-3.373.802-5.651 0-2.278-.268-4.161-.802-5.651-.534-1.488-1.336-2.683-2.404-3.58-1.07-.898-1.89-1.523-3.516-1.873-1.627-.35-3.113-.655-5.297-.655h-3.84v6.719h-10.559l-.025-8.305c0-.789-3.706-1.295-4.774-1.295v-2.881h23.038c2.555 0 5.048.592 7.256 1.292z" fill="#338BC3"/><path d="M100.75 354.215c7.354 0 13.316 5.962 13.316 13.316 0 7.355-5.962 13.317-13.316 13.317-7.354 0-13.316-5.962-13.316-13.317 0-7.354 5.962-13.316 13.316-13.316z" fill="none" stroke="#338BC3" stroke-width="2"/><path d="M51.25 258.215c7.354 0 13.316 5.962 13.316 13.316 0 7.355-5.962 13.317-13.316 13.317-7.354 0-13.316-5.962-13.316-13.317 0-7.354 5.962-13.316 13.316-13.316zM56.75 158.684c7.354 0 13.316 5.976 13.316 13.347 0 7.372-5.962 13.348-13.316 13.348-7.354 0-13.316-5.976-13.316-13.348 0-7.371 5.962-13.347 13.316-13.347zM106.75 82.184c7.354 0 13.316 5.962 13.316 13.316 0 7.354-5.962 13.316-13.316 13.316-7.354 0-13.316-5.962-13.316-13.316 0-7.354 5.962-13.316 13.316-13.316z" fill="none" stroke="#D6EBF9" stroke-width="2"/><path d="M188.25 40.184c7.354 0 13.316 5.962 13.316 13.316 0 7.354-5.962 13.316-13.316 13.316-7.354 0-13.316-5.962-13.316-13.316 0-7.354 5.962-13.316 13.316-13.316z" fill="none" stroke="#D8E4F6" stroke-width="2"/><path d="M285.25 40.184c7.354 0 13.316 5.962 13.316 13.316 0 7.354-5.962 13.316-13.316 13.316-7.354 0-13.316-5.962-13.316-13.316 0-7.354 5.962-13.316 13.316-13.316z" fill="none" stroke="#E3DEF8" stroke-width="2"/><path d="M362.25 82.653c7.354 0 13.316 5.975 13.316 13.347s-5.962 13.347-13.316 13.347c-7.354 0-13.316-5.975-13.316-13.347s5.962-13.347 13.316-13.347z" fill="none" stroke="#E7D3F1" stroke-width="2"/><path d="M413.75 158.684c7.354 0 13.316 5.976 13.316 13.347 0 7.372-5.962 13.348-13.316 13.348-7.354 0-13.316-5.976-13.316-13.348 0-7.371 5.962-13.347 13.316-13.347zM421.75 258.215c7.354 0 13.316 5.962 13.316 13.316 0 7.355-5.962 13.317-13.316 13.317-7.354 0-13.316-5.962-13.316-13.317 0-7.354 5.962-13.316 13.316-13.316z" fill="none" stroke="#EFD5F3" stroke-width="2"/><path d="M373.75 354.215c7.354 0 13.316 5.962 13.316 13.316 0 7.355-5.962 13.317-13.316 13.317-7.354 0-13.316-5.962-13.316-13.317 0-7.354 5.962-13.316 13.316-13.316z" fill="none" stroke="#B764D9" stroke-width="2"/><path d="M100.953 358.219c5.031 0 9.11 4.085 9.11 9.125 0 5.039-4.079 9.125-9.11 9.125s-9.109-4.086-9.109-9.125c0-5.04 4.078-9.125 9.109-9.125zM51.031 262.219a9.125 9.125 0 1 1 0 18.25 9.125 9.125 0 0 1 0-18.25zM56.781 162.875A9.124 9.124 0 0 1 65.906 172a9.125 9.125 0 1 1-9.125-9.125z" fill="#338BC3"/><path d="M106.703 86.531c5.031 0 9.11 4.086 9.11 9.125 0 5.04-4.079 9.125-9.11 9.125s-9.109-4.085-9.109-9.125c0-5.039 4.078-9.125 9.109-9.125z" fill="#358AC3"/><path d="M188.297 44.312a9.11 9.11 0 0 1 9.109 9.11 9.109 9.109 0 0 1-9.109 9.109 9.11 9.11 0 1 1 0-18.219z" fill="#5382C8"/><path d="M285.25 44.312c5.04 0 9.125 4.079 9.125 9.11s-4.085 9.109-9.125 9.109-9.125-4.078-9.125-9.109 4.085-9.11 9.125-9.11z" fill="#8772D1"/><path d="M362.047 86.531c5.031 0 9.109 4.086 9.109 9.125 0 5.04-4.078 9.125-9.109 9.125s-9.11-4.085-9.11-9.125c0-5.039 4.079-9.125 9.11-9.125z" fill="#B266D8"/><path d="M413.891 162.875c5.031 0 9.109 4.085 9.109 9.125s-4.078 9.125-9.109 9.125-9.11-4.085-9.11-9.125 4.079-9.125 9.11-9.125z" fill="#CC5EDD"/><path d="M421.557 262.23a9.12 9.12 0 1 1-.001 18.24 9.12 9.12 0 0 1 .001-18.24z" fill="#CF5DDE"/><path d="M373.562 358.219a9.125 9.125 0 1 1 0 18.25 9.125 9.125 0 0 1 0-18.25z" fill="#B764D9"/><path d="M104.431 371.152v-5.492c0-.498.021-1.016.062-1.552a3.227 3.227 0 0 1-.16.15c-.055.048-.586.466-1.593 1.253l-.294-.366 2.047-1.532h.443v7.539h-.505zm-6.038.103c-.787 0-1.385-.327-1.794-.982-.409-.655-.613-1.625-.613-2.911 0-1.313.198-2.286.595-2.919.397-.632 1.001-.948 1.812-.948.794 0 1.399.327 1.815.982.416.655.624 1.616.624 2.885 0 1.323-.202 2.303-.606 2.939-.404.636-1.015.954-1.833.954zm1.421-6.43c-.298-.578-.771-.866-1.421-.866-.649 0-1.12.288-1.412.866-.293.577-.439 1.423-.439 2.537 0 1.169.153 2.032.459 2.591.306.559.77.838 1.392.838.65 0 1.123-.289 1.421-.866.297-.578.446-1.432.446-2.563 0-1.114-.149-1.96-.446-2.537zM56.324 275.133v.495h-4.718v-.453l2.006-2.094c.563-.584.959-1.031 1.186-1.34.226-.31.393-.605.5-.887.106-.282.16-.578.16-.887 0-.451-.148-.817-.444-1.099-.295-.281-.679-.422-1.15-.422-.629 0-1.23.228-1.804.685l-.279-.355c.629-.53 1.327-.795 2.094-.795.656 0 1.173.176 1.549.526.376.351.565.834.565 1.449 0 .499-.127.981-.379 1.447-.253.466-.714 1.041-1.385 1.725l-1.933 1.985v.02h4.032zm-8.327.599c-.787 0-1.385-.328-1.794-.983-.409-.655-.614-1.625-.614-2.91 0-1.314.199-2.286.596-2.919.397-.633 1.001-.949 1.812-.949.794 0 1.399.328 1.815.982.416.655.624 1.617.624 2.886 0 1.323-.202 2.303-.606 2.939-.404.636-1.015.954-1.833.954zm1.42-6.43c-.297-.578-.77-.867-1.42-.867-.65 0-1.121.289-1.413.867-.292.577-.438 1.423-.438 2.537 0 1.168.153 2.032.459 2.591.306.558.77.838 1.392.838.65 0 1.123-.289 1.42-.867.298-.577.446-1.431.446-2.562 0-1.114-.148-1.96-.446-2.537zM60.207 171.814v.031c.605.076 1.065.269 1.381.578.317.309.475.725.475 1.248 0 .705-.24 1.25-.72 1.637-.479.387-1.169.58-2.07.58-.766 0-1.435-.143-2.005-.428v-.51c.288.151.612.269.972.355.359.086.696.129 1.013.129.759 0 1.33-.154 1.712-.461.381-.308.572-.742.572-1.302 0-.499-.195-.882-.585-1.15-.391-.268-.964-.402-1.72-.402h-.814v-.495h.824c.626 0 1.122-.149 1.488-.446.366-.298.549-.701.549-1.21 0-.419-.149-.755-.446-1.008-.297-.252-.687-.379-1.168-.379-.374 0-.716.053-1.026.158a4.645 4.645 0 0 0-1.041.539l-.253-.346a3.336 3.336 0 0 1 1.057-.58c.413-.143.83-.214 1.253-.214.694 0 1.23.164 1.609.492.378.329.567.792.567 1.39 0 .468-.147.861-.441 1.181-.294.32-.688.524-1.183.613zm-6.45 4.074c-.788 0-1.386-.327-1.795-.982-.409-.655-.613-1.625-.613-2.911 0-1.313.198-2.286.595-2.919.397-.632 1.001-.948 1.813-.948.794 0 1.399.327 1.814.982.416.655.624 1.616.624 2.885 0 1.323-.202 2.303-.605 2.939-.404.636-1.015.954-1.833.954zm1.42-6.43c-.297-.578-.771-.866-1.42-.866-.65 0-1.121.288-1.413.866-.292.577-.438 1.423-.438 2.537 0 1.169.153 2.032.459 2.591.305.559.769.838 1.392.838.649 0 1.123-.289 1.42-.866.297-.578.446-1.432.446-2.563 0-1.114-.149-1.96-.446-2.537zM111.283 97.539v1.923h-.485v-1.923h-3.877v-.346l3.738-5.311h.624v5.213h1.299v.444h-1.299zm-.454-5.213c-.068.127-.28.45-.634.969l-2.66 3.8h3.263V94.94c0-1.038.024-1.91.073-2.614h-.042zm-7.156 7.239c-.787 0-1.385-.327-1.794-.982-.409-.655-.614-1.625-.614-2.911 0-1.313.199-2.286.596-2.918.397-.633 1.001-.949 1.812-.949.794 0 1.399.327 1.815.982.416.655.624 1.617.624 2.885 0 1.324-.202 2.303-.606 2.939-.404.636-1.015.954-1.833.954zm1.42-6.43c-.297-.577-.77-.866-1.42-.866-.65 0-1.121.289-1.413.866-.292.578-.438 1.423-.438 2.537 0 1.169.153 2.033.459 2.591.306.559.77.838 1.392.838.65 0 1.123-.289 1.42-.866.298-.578.446-1.432.446-2.563 0-1.114-.148-1.959-.446-2.537zM189.804 52.838c.536-.1.956-.15 1.258-.15.805 0 1.438.194 1.9.583.462.388.694.923.694 1.604 0 .773-.241 1.375-.722 1.804-.481.43-1.145.645-1.99.645a4.97 4.97 0 0 1-1.068-.111 2.797 2.797 0 0 1-.845-.317v-.531c.371.189.701.32.99.394.289.074.596.111.923.111.66 0 1.189-.174 1.588-.523.398-.349.598-.821.598-1.416 0-.56-.194-1-.583-1.32-.388-.32-.916-.479-1.583-.479a5.29 5.29 0 0 0-1.402.201l-.309-.201.299-3.45h3.629v.495h-3.145l-.232 2.661zm-4.537 4.486c-.787 0-1.385-.328-1.794-.982-.409-.655-.614-1.626-.614-2.911 0-1.313.199-2.286.596-2.919.397-.632 1.001-.949 1.812-.949.794 0 1.399.328 1.815.983.416.655.624 1.616.624 2.885 0 1.323-.202 2.303-.606 2.939-.404.636-1.015.954-1.833.954zm1.42-6.43c-.297-.578-.77-.867-1.42-.867-.65 0-1.121.289-1.413.867-.292.577-.438 1.423-.438 2.537 0 1.169.153 2.032.459 2.591.306.558.77.838 1.392.838.65 0 1.123-.289 1.42-.867.298-.577.446-1.431.446-2.562 0-1.114-.148-1.96-.446-2.537zM287.224 51.394c-.473.612-.738 1.503-.797 2.671h.067c.261-.336.56-.591.897-.763a2.318 2.318 0 0 1 1.068-.258c.704 0 1.255.202 1.652.604.397.402.596.957.596 1.665 0 .77-.209 1.378-.627 1.823-.417.445-.98.668-1.688.668-.763 0-1.366-.292-1.808-.874-.441-.583-.662-1.397-.662-2.442 0-.979.133-1.804.4-2.472.266-.669.644-1.165 1.134-1.488.49-.323 1.08-.485 1.771-.485.323 0 .619.04.887.119v.454a2.623 2.623 0 0 0-.908-.139c-.849 0-1.51.306-1.982.917zm-.485 4.809c.17.352.401.631.691.838.29.206.611.309.962.309.563 0 1.002-.177 1.314-.531.313-.354.47-.859.47-1.516 0-.578-.155-1.028-.464-1.351-.31-.323-.731-.485-1.264-.485-.35 0-.676.078-.977.232-.301.155-.54.36-.719.617a1.357 1.357 0 0 0-.268.786c0 .381.085.748.255 1.101zm-4.519 1.601c-.787 0-1.385-.328-1.794-.982-.409-.655-.614-1.626-.614-2.911 0-1.313.199-2.286.596-2.919.397-.632 1.001-.949 1.812-.949.794 0 1.399.328 1.815.983.416.655.624 1.616.624 2.885 0 1.323-.202 2.303-.606 2.939-.404.636-1.015.954-1.833.954zm1.42-6.43c-.297-.578-.77-.867-1.42-.867-.65 0-1.121.289-1.413.867-.292.577-.438 1.423-.438 2.537 0 1.169.153 2.032.459 2.591.306.559.77.838 1.392.838.65 0 1.123-.289 1.42-.867.298-.577.446-1.431.446-2.562 0-1.114-.148-1.96-.446-2.537zM364.846 99.942h-.603l3.104-7.043h-4.264v-.495h4.877v.376l-3.114 7.162zm-5.352.103c-.787 0-1.385-.327-1.794-.982-.409-.655-.613-1.625-.613-2.911 0-1.313.198-2.286.595-2.918.397-.633 1.001-.949 1.812-.949.794 0 1.399.327 1.815.982.416.655.624 1.617.624 2.885 0 1.324-.202 2.303-.606 2.939-.404.636-1.015.954-1.833.954zm1.421-6.43c-.297-.577-.771-.866-1.421-.866-.649 0-1.12.289-1.412.866-.292.578-.439 1.423-.439 2.537 0 1.169.153 2.033.459 2.591.306.559.77.838 1.392.838.65 0 1.124-.288 1.421-.866.297-.578.446-1.432.446-2.563 0-1.114-.149-1.959-.446-2.537zM417.466 171.773c.66.272 1.124.569 1.392.892.268.323.402.715.402 1.176 0 .622-.218 1.119-.652 1.49-.435.371-1.019.557-1.751.557-.759 0-1.342-.173-1.748-.521-.405-.347-.608-.852-.608-1.516 0-.45.143-.845.428-1.186.285-.34.727-.63 1.325-.871-.553-.261-.943-.537-1.17-.828a1.643 1.643 0 0 1-.341-1.044c0-.361.091-.678.274-.951.182-.274.437-.484.765-.632a2.637 2.637 0 0 1 1.096-.222c.639 0 1.154.164 1.544.49.39.327.585.768.585 1.325 0 .385-.121.726-.363 1.021-.243.296-.635.569-1.178.82zm-2.042 1.042c-.265.296-.397.667-.397 1.114 0 .474.161.842.482 1.103.321.261.771.392 1.348.392.564 0 1.018-.138 1.361-.415.344-.277.516-.652.516-1.127 0-.426-.135-.772-.405-1.039-.27-.266-.789-.546-1.559-.838-.633.244-1.081.514-1.346.81zm2.632-3.873c-.29-.24-.687-.361-1.188-.361-.485 0-.874.12-1.168.359-.294.239-.441.566-.441.982 0 .241.054.453.162.637.109.184.265.351.47.5.204.15.547.324 1.028.523.56-.216.963-.455 1.207-.716.244-.262.366-.576.366-.944 0-.412-.146-.739-.436-.98zm-7.205 6.946c-.787 0-1.386-.327-1.795-.982-.409-.655-.613-1.625-.613-2.911 0-1.313.198-2.286.595-2.919.397-.632 1.001-.948 1.813-.948.794 0 1.399.327 1.815.982.415.655.623 1.616.623 2.885 0 1.323-.202 2.303-.605 2.939-.404.636-1.015.954-1.833.954zm1.42-6.43c-.297-.578-.771-.866-1.42-.866-.65 0-1.121.288-1.413.866-.292.577-.438 1.423-.438 2.537 0 1.169.153 2.032.459 2.591.305.559.77.838 1.392.838.649 0 1.123-.289 1.42-.866.297-.578.446-1.432.446-2.563 0-1.114-.149-1.96-.446-2.537zM426.989 273.292c-.26.667-.638 1.16-1.134 1.48-.497.32-1.098.48-1.802.48a3.49 3.49 0 0 1-.99-.134v-.444c.147.048.325.085.533.111.208.026.367.039.477.039.849 0 1.514-.307 1.995-.921.482-.613.75-1.508.805-2.684h-.062c-.251.33-.55.584-.897.761-.347.177-.71.265-1.088.265-.698 0-1.242-.192-1.632-.577-.39-.385-.585-.932-.585-1.64 0-.756.214-1.368.642-1.836.428-.467.984-.701 1.668-.701.495 0 .928.13 1.299.389.371.26.657.641.858 1.143.202.502.302 1.096.302 1.784 0 .99-.13 1.818-.389 2.485zm-.408-4.228a1.952 1.952 0 0 0-.67-.823 1.711 1.711 0 0 0-.992-.296c-.543 0-.977.183-1.3.549-.323.366-.484.867-.484 1.503 0 .598.149 1.052.448 1.361.299.31.727.465 1.284.465.347 0 .671-.078.972-.232.301-.155.54-.361.717-.617a1.36 1.36 0 0 0 .265-.781c0-.402-.08-.778-.24-1.129zm-7.571 6.188c-.787 0-1.385-.328-1.794-.983-.409-.655-.614-1.625-.614-2.911 0-1.313.199-2.286.596-2.918.397-.633 1.001-.949 1.812-.949.794 0 1.399.328 1.815.982.416.655.624 1.617.624 2.885 0 1.324-.202 2.304-.606 2.94-.404.636-1.015.954-1.833.954zm1.421-6.43c-.298-.578-.771-.867-1.421-.867s-1.121.289-1.413.867c-.292.577-.438 1.423-.438 2.536 0 1.169.153 2.033.459 2.592.306.558.77.838 1.392.838.65 0 1.123-.289 1.421-.867.297-.577.446-1.431.446-2.563 0-1.113-.149-1.959-.446-2.536zM377.914 370.281c-.404.636-1.015.954-1.833.954-.787 0-1.385-.327-1.794-.982-.409-.655-.614-1.625-.614-2.911 0-1.313.199-2.286.596-2.919.397-.632 1.001-.948 1.812-.948.794 0 1.399.327 1.815.982.416.655.624 1.616.624 2.885 0 1.323-.202 2.303-.606 2.939zm-.413-5.476c-.297-.578-.771-.866-1.42-.866-.65 0-1.121.288-1.413.866-.292.577-.438 1.423-.438 2.537 0 1.169.153 2.032.459 2.591.306.559.77.838 1.392.838.649 0 1.123-.289 1.42-.866.298-.578.446-1.432.446-2.563 0-1.114-.148-1.96-.446-2.537zm-7.437.835c0-.498.021-1.016.062-1.552a3.227 3.227 0 0 1-.16.15c-.055.048-.586.466-1.593 1.253l-.294-.366 2.047-1.532h.443v7.539h-.505v-5.492z" fill="#FFF"/><g><path d="M89.366 346.576l-3.406 3.301 1.024-8.259 7.088 4.361-4.706.597zM76.96 332.877l1.024-8.259 7.088 4.36-4.706.598-3.406 3.301zm-9-17.001l1.024-8.259 7.088 4.361-4.706.597-3.406 3.301zm-9-17.001l1.024-8.258 7.088 4.36-4.706.597-3.406 3.301z" fill="#338BC3"/><path d="M55.553 194.879l-4.625 1.055 5.16-6.529 3.797 7.405-4.332-1.931zm3.206 21.134l-4.332-1.93-4.625 1.054 5.16-6.529 3.797 7.405zm-1.626 19.203l-4.332-1.931-4.625 1.055 5.16-6.529 3.797 7.405zm-1.126 19.204l-4.333-1.931-4.624 1.055 5.16-6.529 3.797 7.405z" fill="#D6EBF9"/><path d="M413.719 227.784l4.58 1.237 4.406-1.757-4.089 7.248-4.897-6.728zm-1.362-19.224l4.579 1.237 4.406-1.757-4.089 7.248-4.896-6.728zm-1.857-19.146l4.579 1.237 4.406-1.758-4.088 7.249-4.897-6.728zm13.561 56.996l-4.088 7.248-4.897-6.728 4.579 1.237 4.406-1.757z" fill="#E7D3F1"/><path d="M408.613 298.169l-.638-8.298 3.249 3.456 4.673.816-7.284 4.026zm-9.103 8.976l3.249 3.456 4.673.815-7.283 4.026-.639-8.297zm-8.425 17.08l3.248 3.456 4.673.816-7.283 4.026-.638-8.298zm-8.391 17.011l3.249 3.457 4.673.815-7.284 4.026-.638-8.298z" fill="#B864DA"/><path d="M266.095 53.781l-7.201 4.209 1.708-4.477-1.288-4.621 6.781 4.889zm-23.224-.444l-1.288-4.622 6.781 4.89-7.201 4.209 1.708-4.477zm-17.756-.181l-1.288-4.622 6.781 4.889-7.201 4.21 1.708-4.477zm-17.731-.176l-1.288-4.622 6.781 4.889-7.201 4.21 1.708-4.477z" fill="#D6D6F0"/><path d="M334.435 85.708l3.601-3.161 1.019-4.689 3.714 7.49-8.334.36zm-12.016-11.611l1.019-4.69 3.713 7.49-8.333.36 3.601-3.16zm-15.598-8.435l1.019-4.689 3.714 7.489-8.333.361 3.6-3.161z" fill="#F1E4F4"/><path d="M395.5 151.85l4.625-1.251 2.982-3.759.032 8.36-7.639-3.35zm-7.668-18.72l2.981-3.76.032 8.36-7.639-3.349 4.626-1.251zm-12.284-18.446l2.982-3.76.032 8.36-7.639-3.35 4.625-1.25z" fill="#E7D3F1"/><path d="M95.862 122.791l-2.809-3.822-4.541-1.371 7.714-3.122-.364 8.315zm-13.723 12.061l-4.541-1.371 7.715-3.121-.364 8.314-2.81-3.822zM71.16 151.484l-4.54-1.372 7.714-3.12-.364 8.314-2.81-3.822z" fill="#D6EBF9"/><path d="M164.315 72.295l-.736-4.687-3.4-3.307 8.285.781-4.149 7.213zm-17.735 4.391l-3.4-3.308 8.285.78-4.15 7.214-.735-4.686zm-17.402 9.71l-3.4-3.308 8.285.781-4.15 7.213-.735-4.686z" fill="#D8E4F6"/></g></svg>