<svg version="1.1" xmlns="http://www.w3.org/2000/svg" xmlns:xlink="http://www.w3.org/1999/xlink" width="472" height="506" viewBox="0 0 472 506"><g id="scheme"><path id="bg_speedometer-c" d="M41.537,368.675 C41.398,368.675 41.261,368.609 41.177,368.485 C29.876,351.840 20.755,333.817 14.067,314.916 C13.987,314.689 14.105,314.442 14.332,314.360 C14.560,314.280 14.808,314.400 14.888,314.626 C21.551,333.457 30.639,351.412 41.897,367.994 C42.032,368.194 41.980,368.466 41.781,368.601 C41.706,368.650 41.621,368.675 41.537,368.675 zM431.732,367.655 C431.648,367.655 431.564,367.631 431.489,367.582 C431.290,367.447 431.236,367.177 431.370,366.977 C441.922,351.259 450.545,334.298 456.997,316.562 C457.081,316.337 457.329,316.222 457.555,316.303 C457.781,316.387 457.898,316.636 457.816,316.863 C451.339,334.662 442.684,351.684 432.093,367.462 C432.009,367.588 431.871,367.655 431.732,367.655 zM470.507,258.671 C470.494,258.671 470.480,258.670 470.466,258.669 C470.227,258.647 470.050,258.434 470.073,258.195 C470.743,250.961 471.082,243.587 471.082,236.276 C471.082,223.583 470.060,210.844 468.045,198.414 C468.006,198.175 468.168,197.953 468.405,197.913 C468.640,197.875 468.866,198.035 468.904,198.273 C470.927,210.751 471.953,223.537 471.953,236.276 C471.953,243.613 471.612,251.015 470.940,258.275 C470.919,258.502 470.729,258.671 470.507,258.671 zM1.893,256.624 C1.669,256.624 1.479,256.452 1.460,256.224 C0.907,249.635 0.627,242.924 0.627,236.276 C0.627,222.847 1.766,209.382 4.012,196.255 C4.053,196.018 4.275,195.858 4.515,195.898 C4.751,195.939 4.911,196.164 4.870,196.401 C2.633,209.481 1.498,222.897 1.498,236.276 C1.498,242.900 1.777,249.588 2.327,256.152 C2.348,256.393 2.170,256.603 1.930,256.621 C1.917,256.622 1.905,256.624 1.893,256.624 zM451.389,141.360 C451.222,141.360 451.063,141.262 450.991,141.100 C442.890,122.853 432.449,105.660 419.958,89.998 C419.807,89.810 419.839,89.535 420.027,89.386 C420.215,89.236 420.489,89.266 420.638,89.454 C433.176,105.175 443.656,122.432 451.787,140.748 C451.885,140.966 451.785,141.223 451.566,141.323 C451.508,141.347 451.449,141.360 451.389,141.360 zM22.038,139.476 C21.978,139.476 21.916,139.463 21.858,139.435 C21.639,139.338 21.542,139.077 21.642,138.859 C29.937,120.610 40.573,103.439 53.254,87.823 C53.406,87.637 53.680,87.609 53.867,87.760 C54.053,87.911 54.082,88.185 53.930,88.372 C41.296,103.932 30.699,121.038 22.434,139.220 C22.362,139.381 22.204,139.476 22.038,139.476 zM377.309,48.425 C377.218,48.425 377.127,48.397 377.048,48.337 C361.012,36.310 343.508,26.382 325.020,18.830 C324.798,18.740 324.691,18.485 324.782,18.262 C324.873,18.039 325.125,17.932 325.350,18.023 C343.906,25.603 361.476,35.568 377.570,47.641 C377.763,47.786 377.802,48.058 377.658,48.251 C377.572,48.364 377.441,48.425 377.309,48.425 zM96.948,47.179 C96.814,47.179 96.683,47.117 96.597,47.001 C96.455,46.809 96.496,46.536 96.690,46.392 C112.881,34.470 130.528,24.665 149.142,17.252 C149.365,17.162 149.619,17.271 149.708,17.495 C149.796,17.718 149.688,17.971 149.464,18.061 C130.919,25.446 113.337,35.215 97.206,47.094 C97.128,47.151 97.038,47.179 96.948,47.179 zM267.254,3.506 C267.235,3.506 267.216,3.504 267.196,3.501 C247.515,0.913 227.099,0.828 207.396,3.244 C207.159,3.275 206.940,3.104 206.912,2.866 C206.882,2.627 207.052,2.409 207.291,2.382 C227.066,-0.048 247.555,0.041 267.310,2.638 C267.548,2.668 267.716,2.889 267.685,3.125 C267.657,3.345 267.469,3.506 267.254,3.506 z" fill="#D6D6D6" /><path id="Shape-8" d="M383.863,420.014 C349.700,447.259 308.952,464.301 265.527,469.431 C249.901,471.278 238.000,484.147 238.000,499.779 C238.000,499.779 238.000,505.779 238.000,505.779 L237.000,505.779 C237.000,505.779 237.000,499.779 237.000,499.779 C237.000,483.709 249.363,470.470 265.426,468.572 C308.744,463.454 349.390,446.438 383.454,419.233 " fill="#B7B7B7" opacity="0.678" /><g id="Shape-9"  opacity="0.678"><path id="Shape-9-stroke" d="M237.000,468.778 C237.000,468.778 96.500,468.778 96.500,468.778 C79.125,468.778 65.000,482.343 65.000,499.779 C65.000,499.779 65.000,505.280 65.000,505.280 " fill="none" stroke="#B7B7B7" stroke-width="1" /></g><g id="Shape-10"  opacity="0.678"><path id="Shape-10-stroke" d="M405.500,420.776 L405.500,505.280 " fill="none" stroke="#B7B7B7" stroke-width="1" /></g><g id="logo_center_spee"><path id="bg_circle-copy" d="M421.328,275.688 C420.994,275.688 420.677,275.628 420.370,275.543 C420.370,275.543 374.040,368.792 374.040,368.792 L373.683,368.792 L373.560,369.272 C373.560,369.272 233.803,318.317 233.803,318.317 C232.964,320.070 231.116,321.215 229.066,321.035 C227.450,320.893 226.099,319.961 225.342,318.658 C225.342,318.658 104.113,365.975 104.113,365.975 C104.232,366.334 104.312,366.711 104.312,367.109 C104.312,369.103 102.697,370.719 100.703,370.719 C98.710,370.719 97.094,369.103 97.094,367.109 C97.094,365.839 97.754,364.726 98.747,364.083 C98.747,364.083 52.257,276.297 52.257,276.297 C51.724,276.501 51.151,276.625 50.547,276.625 C47.898,276.625 45.750,274.477 45.750,271.828 C45.750,269.226 47.825,267.120 50.409,267.045 C50.409,267.045 56.675,177.245 56.675,177.245 C56.553,177.254 56.437,177.281 56.313,177.281 C53.655,177.281 51.500,175.134 51.500,172.484 C51.500,169.835 53.655,167.688 56.313,167.688 C56.612,167.688 56.901,167.722 57.184,167.775 C57.311,167.798 57.431,167.836 57.554,167.869 C57.694,167.907 57.833,167.946 57.968,167.997 C58.128,168.056 58.281,168.123 58.433,168.198 C58.507,168.235 58.579,168.275 58.651,168.316 C58.828,168.415 59.000,168.517 59.162,168.637 C59.162,168.637 59.162,168.637 59.162,168.637 C59.162,168.637 104.493,101.867 104.493,101.867 C103.789,101.211 103.344,100.285 103.344,99.250 C103.344,97.265 104.960,95.656 106.953,95.656 C108.026,95.656 108.978,96.131 109.639,96.871 C109.639,96.871 185.147,55.305 185.147,55.305 C185.021,54.938 184.937,54.551 184.937,54.141 C184.937,52.147 186.553,50.531 188.547,50.531 C190.258,50.531 191.684,51.726 192.055,53.324 C192.055,53.324 285.556,53.620 285.556,53.620 L285.446,53.812 L285.606,53.660 C285.606,53.660 358.901,93.814 358.901,93.814 C359.554,92.908 360.611,92.313 361.812,92.313 C363.797,92.313 365.406,93.921 365.406,95.906 C365.406,96.916 364.987,97.825 364.317,98.477 C364.317,98.477 411.210,167.271 411.210,167.271 C411.871,166.930 412.610,166.719 413.406,166.719 C416.064,166.719 418.219,168.866 418.219,171.516 C418.219,173.818 416.590,175.737 414.420,176.201 C414.420,176.201 421.326,268.469 421.326,268.469 C421.326,268.469 421.327,268.469 421.328,268.469 C423.322,268.469 424.938,270.085 424.938,272.078 C424.938,274.072 423.322,275.688 421.328,275.688 zM373.560,367.836 C373.560,367.836 419.973,275.419 419.973,275.419 C418.693,274.900 417.788,273.668 417.733,272.216 C417.733,272.216 301.552,283.972 301.552,283.972 C301.553,284.008 301.563,284.042 301.563,284.078 C301.563,285.128 301.109,286.065 300.396,286.725 C300.396,286.725 373.560,367.353 373.560,367.353 L373.560,367.836 zM258.904,162.306 C258.904,162.306 307.316,204.589 307.316,204.589 C308.183,203.723 309.381,203.188 310.703,203.188 C312.879,203.188 314.696,204.646 315.283,206.632 C315.283,206.632 352.005,198.982 352.005,198.982 C351.993,198.863 351.969,198.747 351.969,198.625 C351.969,197.422 352.565,196.364 353.472,195.712 C353.472,195.712 305.380,128.838 305.380,128.838 C304.884,129.092 304.330,129.250 303.734,129.250 C302.765,129.250 301.889,128.865 301.241,128.246 C301.241,128.246 259.103,157.036 259.103,157.036 C259.544,157.761 259.813,158.604 259.813,159.516 C259.813,160.560 259.470,161.518 258.904,162.306 zM310.703,212.781 C310.583,212.781 310.470,212.755 310.352,212.746 C310.352,212.746 298.764,280.564 298.764,280.564 C299.137,280.649 299.483,280.798 299.803,280.990 C299.803,280.990 353.389,201.470 353.389,201.470 C352.731,200.966 352.249,200.248 352.061,199.412 C352.061,199.412 315.406,207.048 315.406,207.048 C315.466,207.351 315.500,207.664 315.500,207.984 C315.500,210.634 313.352,212.781 310.703,212.781 zM300.166,281.241 C300.840,281.768 301.327,282.521 301.494,283.397 C301.494,283.397 417.749,271.778 417.749,271.778 C417.824,270.880 418.215,270.074 418.827,269.483 C418.827,269.483 357.961,201.284 357.961,201.284 C357.324,201.859 356.488,202.219 355.563,202.219 C354.900,202.219 354.288,202.027 353.755,201.715 C353.755,201.715 300.166,281.241 300.166,281.241 zM373.098,368.277 C373.098,368.277 300.135,286.941 300.135,286.941 C299.531,287.403 298.786,287.687 297.969,287.687 C296.586,287.687 295.399,286.894 294.798,285.744 C294.798,285.744 234.080,314.896 234.080,314.896 C234.246,315.457 234.321,316.055 234.267,316.673 C234.229,317.108 234.115,317.515 233.971,317.906 C233.971,317.906 373.098,368.277 373.098,368.277 zM229.906,311.471 C231.778,311.636 233.287,312.863 233.934,314.500 C233.934,314.500 294.620,285.363 294.620,285.363 C294.468,284.963 294.375,284.532 294.375,284.078 C294.375,282.085 295.984,280.469 297.969,280.469 C298.080,280.469 298.185,280.492 298.294,280.502 C298.294,280.502 309.880,212.698 309.880,212.698 C307.625,212.306 305.906,210.352 305.906,207.984 C305.906,206.897 306.282,205.906 306.891,205.101 C306.891,205.101 258.419,162.893 258.419,162.893 C257.550,163.769 256.347,164.313 255.016,164.313 C252.705,164.313 250.778,162.678 250.323,160.503 C250.323,160.503 183.922,174.642 183.922,174.642 C183.942,174.797 183.969,174.949 183.969,175.109 C183.969,177.103 182.360,178.719 180.375,178.719 C180.308,178.719 180.246,178.703 180.181,178.699 C180.181,178.699 159.842,264.041 159.842,264.041 C161.059,264.617 161.906,265.846 161.906,267.281 C161.906,267.977 161.699,268.622 161.357,269.172 C161.357,269.172 225.608,313.455 225.608,313.455 C226.565,312.131 228.160,311.318 229.906,311.471 zM156.220,264.370 C156.220,264.370 129.254,221.434 129.254,221.434 C128.453,222.037 127.469,222.406 126.391,222.406 C124.732,222.406 123.271,221.561 122.409,220.278 C122.409,220.278 54.588,269.263 54.588,269.263 C55.033,269.963 55.298,270.784 55.328,271.668 C55.328,271.668 154.719,267.286 154.719,267.286 C154.719,267.285 154.719,267.283 154.719,267.281 C154.719,266.080 155.314,265.023 156.220,264.370 zM126.391,212.781 C127.547,212.781 128.593,213.208 129.421,213.892 C129.421,213.892 177.202,176.771 177.202,176.771 C176.966,176.316 176.821,175.811 176.797,175.268 C176.797,175.268 61.118,172.556 61.118,172.556 C61.118,172.556 61.118,172.556 61.118,172.556 C61.114,172.791 61.088,173.019 61.048,173.242 C61.015,173.450 60.963,173.650 60.903,173.849 C60.903,173.849 60.903,173.849 60.903,173.849 C60.903,173.849 122.957,214.242 122.957,214.242 C123.828,213.343 125.042,212.781 126.391,212.781 zM130.085,214.559 C130.764,215.389 131.187,216.436 131.187,217.594 C131.187,219.009 130.568,220.269 129.598,221.149 C129.598,221.149 156.599,264.140 156.599,264.140 C157.111,263.861 157.689,263.687 158.312,263.687 C158.544,263.687 158.769,263.714 158.988,263.756 C158.988,263.756 179.373,178.559 179.373,178.559 C178.707,178.364 178.125,177.986 177.680,177.475 C177.680,177.475 130.085,214.559 130.085,214.559 zM103.978,365.611 C103.978,365.611 225.169,318.307 225.169,318.307 C224.812,317.559 224.627,316.718 224.704,315.832 C224.770,315.082 225.020,314.398 225.384,313.793 C225.384,313.793 161.119,269.501 161.119,269.501 C160.460,270.332 159.455,270.875 158.312,270.875 C157.759,270.875 157.241,270.740 156.772,270.516 C156.772,270.516 102.631,364.068 102.631,364.068 C103.218,364.440 103.686,364.975 103.978,365.611 zM99.114,363.884 C99.595,363.646 100.130,363.500 100.703,363.500 C101.257,363.500 101.776,363.635 102.245,363.858 C102.245,363.858 156.387,270.306 156.387,270.306 C155.507,269.745 154.900,268.813 154.764,267.728 C154.764,267.728 55.315,272.114 55.315,272.114 C55.209,273.885 54.152,275.388 52.638,276.127 C52.638,276.127 99.114,363.884 99.114,363.884 zM58.865,176.537 C58.731,176.620 58.590,176.692 58.447,176.763 C58.264,176.854 58.076,176.931 57.881,176.999 C57.784,177.032 57.686,177.063 57.586,177.090 C57.432,177.132 57.279,177.173 57.120,177.200 C57.120,177.200 57.120,177.200 57.120,177.200 C57.120,177.200 50.850,267.062 50.850,267.062 C52.273,267.152 53.518,267.855 54.337,268.918 C54.337,268.918 122.205,219.901 122.205,219.901 C121.828,219.213 121.594,218.434 121.594,217.594 C121.594,216.446 122.011,215.406 122.680,214.579 C122.680,214.579 60.770,174.278 60.770,174.278 C60.731,174.374 60.681,174.462 60.637,174.554 C60.565,174.703 60.487,174.847 60.401,174.987 C60.340,175.085 60.280,175.182 60.213,175.276 C60.080,175.459 59.937,175.636 59.780,175.798 C59.695,175.886 59.602,175.963 59.510,176.045 C59.410,176.134 59.307,176.220 59.200,176.300 C59.090,176.383 58.982,176.464 58.865,176.537 zM109.426,101.857 C108.779,102.465 107.913,102.844 106.953,102.844 C106.137,102.844 105.392,102.564 104.787,102.109 C104.787,102.109 59.456,168.879 59.456,168.879 C59.646,169.044 59.820,169.223 59.982,169.415 C60.003,169.439 60.022,169.463 60.042,169.487 C60.186,169.665 60.319,169.850 60.437,170.048 C60.470,170.103 60.498,170.161 60.529,170.218 C60.629,170.401 60.723,170.585 60.798,170.781 C60.829,170.861 60.848,170.946 60.875,171.028 C60.936,171.220 60.999,171.409 61.037,171.610 C61.037,171.610 61.037,171.610 61.037,171.610 C61.037,171.610 176.815,174.775 176.815,174.775 C176.886,174.012 177.187,173.323 177.657,172.772 C177.657,172.772 109.426,101.857 109.426,101.857 zM185.281,55.655 C185.281,55.655 109.881,97.162 109.881,97.162 C110.306,97.751 110.562,98.469 110.562,99.250 C110.562,100.022 110.313,100.732 109.897,101.318 C109.897,101.318 178.103,172.334 178.103,172.334 C178.712,171.831 179.480,171.516 180.328,171.505 C180.328,171.505 187.974,57.692 187.974,57.692 C186.774,57.500 185.777,56.722 185.281,55.655 zM190.603,57.102 C190.044,57.491 189.370,57.721 188.642,57.740 C188.642,57.740 180.814,171.544 180.814,171.544 C182.278,171.726 183.460,172.779 183.833,174.180 C183.833,174.180 250.271,160.035 250.271,160.035 C250.252,159.862 250.219,159.694 250.219,159.516 C250.219,157.858 251.060,156.397 252.339,155.535 C252.339,155.535 190.603,57.102 190.603,57.102 zM191.011,56.766 C191.011,56.766 252.842,155.262 252.842,155.262 C253.497,154.926 254.229,154.719 255.016,154.719 C256.510,154.719 257.827,155.416 258.707,156.487 C258.707,156.487 300.831,127.773 300.831,127.773 C300.392,127.178 300.125,126.451 300.125,125.656 C300.125,125.154 300.230,124.677 300.416,124.243 C300.416,124.243 191.825,55.634 191.825,55.634 C191.628,56.064 191.351,56.446 191.011,56.766 zM285.345,53.999 L285.340,53.996 L285.334,54.006 C285.334,54.006 192.113,53.710 192.113,53.710 C192.130,53.853 192.156,53.993 192.156,54.141 C192.156,54.543 192.075,54.923 191.954,55.284 C191.954,55.284 300.592,123.922 300.592,123.922 C301.021,123.153 301.717,122.563 302.564,122.272 C302.564,122.272 285.345,53.999 285.345,53.999 zM285.687,54.186 C285.687,54.186 302.838,122.188 302.838,122.188 C303.126,122.114 303.423,122.063 303.734,122.063 C305.184,122.063 306.425,122.918 306.999,124.146 C306.999,124.146 358.672,97.619 358.672,97.619 C358.392,97.108 358.219,96.530 358.219,95.906 C358.219,95.275 358.396,94.690 358.682,94.175 C358.682,94.175 285.687,54.186 285.687,54.186 zM361.812,99.500 C360.600,99.500 359.533,98.895 358.882,97.975 C358.882,97.975 307.147,124.535 307.147,124.535 C307.264,124.890 307.344,125.262 307.344,125.656 C307.344,126.888 306.720,127.974 305.771,128.621 C305.771,128.621 353.853,195.482 353.853,195.482 C354.364,195.204 354.940,195.031 355.563,195.031 C355.622,195.031 355.677,195.046 355.736,195.049 C355.736,195.049 361.952,99.486 361.952,99.486 C361.904,99.488 361.860,99.500 361.812,99.500 zM364.023,98.720 C363.540,99.100 362.962,99.356 362.325,99.448 C362.325,99.448 356.105,195.086 356.105,195.086 C357.203,195.253 358.128,195.913 358.663,196.837 C358.663,196.837 409.047,173.520 409.047,173.520 C408.763,172.908 408.594,172.234 408.594,171.516 C408.594,169.796 409.510,168.299 410.874,167.452 C410.874,167.452 364.023,98.720 364.023,98.720 zM414.028,176.250 C413.822,176.277 413.619,176.313 413.406,176.313 C411.616,176.313 410.072,175.326 409.243,173.880 C409.243,173.880 358.858,197.197 358.858,197.197 C359.048,197.635 359.156,198.117 359.156,198.625 C359.156,199.530 358.811,200.346 358.259,200.978 C358.259,200.978 419.157,269.212 419.157,269.212 C419.662,268.828 420.269,268.582 420.933,268.509 C420.933,268.509 414.028,176.250 414.028,176.250 z" fill="#C4D0D8" /><path id="-Block7_icon14_L" d="M204.612,268.950 L204.612,205.106 L268.928,205.107 L268.928,268.950 L204.612,268.950 zM265.568,208.467 L207.972,208.467 L207.972,265.589 L265.568,265.589 L265.568,208.467 zM246.426,220.799 C248.632,221.500 250.549,222.564 252.176,223.984 C253.802,225.410 255.080,227.205 256.010,229.374 C256.939,231.541 257.404,234.093 257.404,237.028 C257.404,239.963 256.939,242.514 256.010,244.682 C255.080,246.851 253.802,248.647 252.176,250.069 C250.549,251.492 248.632,252.555 246.426,253.256 C244.218,253.958 241.725,254.549 239.170,254.549 C239.170,254.549 216.132,254.549 216.132,254.549 C216.132,254.549 216.132,251.669 216.132,251.669 C217.200,251.669 220.906,251.160 220.906,250.372 C220.906,250.372 220.906,241.097 220.906,241.097 L231.490,241.108 L231.490,248.789 C231.490,248.789 235.330,248.789 235.330,248.789 C237.514,248.789 239.000,248.483 240.627,248.131 C242.253,247.782 243.073,247.157 244.143,246.258 C245.211,245.361 246.013,244.168 246.547,242.679 C247.081,241.189 247.349,239.306 247.349,237.028 C247.349,234.750 247.081,232.867 246.547,231.377 C246.013,229.889 245.211,228.694 244.143,227.797 C243.073,226.899 242.253,226.274 240.627,225.924 C239.000,225.574 237.514,225.269 235.330,225.269 C235.330,225.269 231.490,225.269 231.490,225.269 L231.490,231.988 L220.931,231.988 C220.931,231.988 220.906,223.683 220.906,223.683 C220.906,222.894 217.200,222.388 216.132,222.388 C216.132,222.388 216.132,219.507 216.132,219.507 C216.132,219.507 239.170,219.507 239.170,219.507 C241.725,219.507 244.218,220.099 246.426,220.799 z" fill="#338BC3" /></g><g id="numbers-+-circle"><g id="circles_bg-copy" ><path id="circles_bg-copy-stroke" d="M100.750,354.215 C108.104,354.215 114.066,360.177 114.066,367.531 C114.066,374.886 108.104,380.848 100.750,380.848 C93.396,380.848 87.434,374.886 87.434,367.531 C87.434,360.177 93.396,354.215 100.750,354.215 z" fill="none" stroke="#338BC3" stroke-opacity="1.000" stroke-width="2" /></g><g id="circles_bg-copy-" ><path id="circles_bg-copy--stroke" d="M51.250,258.215 C58.604,258.215 64.566,264.177 64.566,271.531 C64.566,278.886 58.604,284.848 51.250,284.848 C43.896,284.848 37.934,278.886 37.934,271.531 C37.934,264.177 43.896,258.215 51.250,258.215 z" fill="none" stroke="#D6EBF9" stroke-opacity="1.000" stroke-width="2" /></g><g id="circles_bg-copy-" ><path id="circles_bg-copy--stroke" d="M56.750,158.684 C64.104,158.684 70.066,164.660 70.066,172.031 C70.066,179.403 64.104,185.379 56.750,185.379 C49.396,185.379 43.434,179.403 43.434,172.031 C43.434,164.660 49.396,158.684 56.750,158.684 z" fill="none" stroke="#D6EBF9" stroke-opacity="1.000" stroke-width="2" /></g><g id="circles_bg-copy-" ><path id="circles_bg-copy--stroke" d="M106.750,82.184 C114.104,82.184 120.066,88.146 120.066,95.500 C120.066,102.854 114.104,108.816 106.750,108.816 C99.396,108.816 93.434,102.854 93.434,95.500 C93.434,88.146 99.396,82.184 106.750,82.184 z" fill="none" stroke="#D6EBF9" stroke-opacity="1.000" stroke-width="2" /></g><g id="circles_bg-copy-" ><path id="circles_bg-copy--stroke" d="M188.250,40.184 C195.604,40.184 201.566,46.146 201.566,53.500 C201.566,60.854 195.604,66.816 188.250,66.816 C180.896,66.816 174.934,60.854 174.934,53.500 C174.934,46.146 180.896,40.184 188.250,40.184 z" fill="none" stroke="#D8E4F6" stroke-opacity="1.000" stroke-width="2" /></g><g id="circles_bg-copy-" ><path id="circles_bg-copy--stroke" d="M285.250,40.184 C292.604,40.184 298.566,46.146 298.566,53.500 C298.566,60.854 292.604,66.816 285.250,66.816 C277.896,66.816 271.934,60.854 271.934,53.500 C271.934,46.146 277.896,40.184 285.250,40.184 z" fill="none" stroke="#E3DEF8" stroke-opacity="1.000" stroke-width="2" /></g><g id="circles_bg-copy-" ><path id="circles_bg-copy--stroke" d="M362.250,82.653 C369.604,82.653 375.566,88.628 375.566,96.000 C375.566,103.372 369.604,109.347 362.250,109.347 C354.896,109.347 348.934,103.372 348.934,96.000 C348.934,88.628 354.896,82.653 362.250,82.653 z" fill="none" stroke="#E7D3F1" stroke-opacity="1.000" stroke-width="2" /></g><g id="circles_bg-copy-" ><path id="circles_bg-copy--stroke" d="M413.750,158.684 C421.104,158.684 427.066,164.660 427.066,172.031 C427.066,179.403 421.104,185.379 413.750,185.379 C406.396,185.379 400.434,179.403 400.434,172.031 C400.434,164.660 406.396,158.684 413.750,158.684 z" fill="none" stroke="#EFD5F3" stroke-opacity="1.000" stroke-width="2" /></g><g id="circles_bg-copy-" ><path id="circles_bg-copy--stroke" d="M421.750,258.215 C429.104,258.215 435.066,264.177 435.066,271.531 C435.066,278.886 429.104,284.848 421.750,284.848 C414.396,284.848 408.434,278.886 408.434,271.531 C408.434,264.177 414.396,258.215 421.750,258.215 z" fill="none" stroke="#EFD5F3" stroke-opacity="1.000" stroke-width="2" /></g><g id="circles_bg-copy-" ><path id="circles_bg-copy--stroke" d="M373.750,354.215 C381.104,354.215 387.066,360.177 387.066,367.531 C387.066,374.886 381.104,380.848 373.750,380.848 C366.396,380.848 360.434,374.886 360.434,367.531 C360.434,360.177 366.396,354.215 373.750,354.215 z" fill="none" stroke="#B764D9" stroke-opacity="1.000" stroke-width="2" /></g><path id="circles_bg" d="M100.953,358.219 C105.984,358.219 110.063,362.304 110.063,367.344 C110.063,372.383 105.984,376.469 100.953,376.469 C95.922,376.469 91.844,372.383 91.844,367.344 C91.844,362.304 95.922,358.219 100.953,358.219 z" fill="#338BC3" /><path id="circles_bg-copy-" d="M51.031,262.219 C56.071,262.219 60.156,266.304 60.156,271.344 C60.156,276.383 56.071,280.469 51.031,280.469 C45.992,280.469 41.906,276.383 41.906,271.344 C41.906,266.304 45.992,262.219 51.031,262.219 z" fill="#338BC3" /><path id="circles_bg-copy-" d="M56.781,162.875 C61.821,162.875 65.906,166.960 65.906,172.000 C65.906,177.040 61.821,181.125 56.781,181.125 C51.742,181.125 47.656,177.040 47.656,172.000 C47.656,166.960 51.742,162.875 56.781,162.875 z" fill="#338BC3" /><path id="circles_bg-copy-" d="M106.703,86.531 C111.734,86.531 115.813,90.617 115.813,95.656 C115.813,100.696 111.734,104.781 106.703,104.781 C101.672,104.781 97.594,100.696 97.594,95.656 C97.594,90.617 101.672,86.531 106.703,86.531 z" fill="#358AC3" /><path id="circles_bg-copy-" d="M188.297,44.312 C193.328,44.312 197.406,48.391 197.406,53.422 C197.406,58.453 193.328,62.531 188.297,62.531 C183.266,62.531 179.187,58.453 179.187,53.422 C179.187,48.391 183.266,44.312 188.297,44.312 z" fill="#5382C8" /><path id="circles_bg-copy-" d="M285.250,44.312 C290.290,44.312 294.375,48.391 294.375,53.422 C294.375,58.453 290.290,62.531 285.250,62.531 C280.210,62.531 276.125,58.453 276.125,53.422 C276.125,48.391 280.210,44.312 285.250,44.312 z" fill="#8772D1" /><path id="circles_bg-copy-" d="M362.047,86.531 C367.078,86.531 371.156,90.617 371.156,95.656 C371.156,100.696 367.078,104.781 362.047,104.781 C357.016,104.781 352.937,100.696 352.937,95.656 C352.937,90.617 357.016,86.531 362.047,86.531 z" fill="#B266D8" /><path id="circles_bg-copy-" d="M413.891,162.875 C418.922,162.875 423.000,166.960 423.000,172.000 C423.000,177.040 418.922,181.125 413.891,181.125 C408.860,181.125 404.781,177.040 404.781,172.000 C404.781,166.960 408.860,162.875 413.891,162.875 z" fill="#CC5EDD" /><path id="circles_bg-copy-" d="M421.557,262.230 C426.593,262.230 430.676,266.313 430.676,271.350 C430.676,276.386 426.593,280.469 421.557,280.469 C416.520,280.469 412.437,276.386 412.437,271.350 C412.437,266.313 416.520,262.230 421.557,262.230 z" fill="#CF5DDE" /><path id="circles_bg-copy-" d="M373.562,358.219 C378.602,358.219 382.687,362.304 382.687,367.344 C382.687,372.383 378.602,376.469 373.562,376.469 C368.523,376.469 364.438,372.383 364.438,367.344 C364.438,362.304 368.523,358.219 373.562,358.219 z" fill="#B764D9" /><path id="01" d="M104.431,371.152 C104.431,371.152 104.431,365.660 104.431,365.660 C104.431,365.162 104.452,364.644 104.493,364.108 C104.441,364.160 104.388,364.210 104.333,364.258 C104.278,364.306 103.747,364.724 102.740,365.511 C102.740,365.511 102.446,365.145 102.446,365.145 L104.493,363.613 L104.936,363.613 L104.936,371.152 L104.431,371.152 zM98.393,371.255 C97.606,371.255 97.008,370.928 96.599,370.273 C96.190,369.618 95.986,368.648 95.986,367.362 C95.986,366.049 96.184,365.076 96.581,364.443 C96.978,363.811 97.582,363.495 98.393,363.495 C99.187,363.495 99.792,363.822 100.208,364.477 C100.624,365.132 100.832,366.093 100.832,367.362 C100.832,368.685 100.630,369.665 100.226,370.301 C99.822,370.937 99.211,371.255 98.393,371.255 zM99.814,364.825 C99.516,364.247 99.043,363.959 98.393,363.959 C97.744,363.959 97.273,364.247 96.981,364.825 C96.688,365.402 96.542,366.248 96.542,367.362 C96.542,368.531 96.695,369.394 97.001,369.953 C97.307,370.512 97.771,370.791 98.393,370.791 C99.043,370.791 99.516,370.502 99.814,369.925 C100.111,369.347 100.260,368.493 100.260,367.362 C100.260,366.248 100.111,365.402 99.814,364.825 z" fill="#FFFFFF" /><path id="02" d="M56.324,275.133 L56.324,275.628 L51.606,275.628 L51.606,275.175 C51.606,275.175 53.612,273.081 53.612,273.081 C54.175,272.497 54.571,272.050 54.798,271.741 C55.024,271.431 55.191,271.136 55.298,270.854 C55.404,270.572 55.458,270.276 55.458,269.967 C55.458,269.516 55.310,269.150 55.014,268.868 C54.719,268.587 54.335,268.446 53.864,268.446 C53.235,268.446 52.634,268.674 52.060,269.131 C52.060,269.131 51.781,268.776 51.781,268.776 C52.410,268.246 53.108,267.981 53.875,267.981 C54.531,267.981 55.048,268.157 55.424,268.507 C55.800,268.858 55.989,269.341 55.989,269.956 C55.989,270.455 55.862,270.937 55.610,271.403 C55.357,271.869 54.896,272.444 54.225,273.128 C54.225,273.128 52.292,275.113 52.292,275.113 L52.292,275.133 L56.324,275.133 zM47.997,275.732 C47.210,275.732 46.612,275.404 46.203,274.749 C45.794,274.094 45.589,273.124 45.589,271.839 C45.589,270.525 45.788,269.553 46.185,268.920 C46.582,268.287 47.186,267.971 47.997,267.971 C48.791,267.971 49.396,268.299 49.812,268.953 C50.228,269.608 50.436,270.570 50.436,271.839 C50.436,273.162 50.234,274.142 49.830,274.778 C49.426,275.414 48.815,275.732 47.997,275.732 zM49.417,269.302 C49.120,268.724 48.647,268.435 47.997,268.435 C47.347,268.435 46.876,268.724 46.584,269.302 C46.292,269.879 46.146,270.725 46.146,271.839 C46.146,273.007 46.299,273.871 46.605,274.430 C46.911,274.988 47.375,275.268 47.997,275.268 C48.647,275.268 49.120,274.979 49.417,274.401 C49.715,273.824 49.863,272.970 49.863,271.839 C49.863,270.725 49.715,269.879 49.417,269.302 z" fill="#FFFFFF" /><path id="03" d="M60.207,171.814 C60.207,171.814 60.207,171.845 60.207,171.845 C60.812,171.921 61.272,172.114 61.588,172.423 C61.905,172.732 62.063,173.148 62.063,173.671 C62.063,174.376 61.823,174.921 61.343,175.308 C60.864,175.695 60.174,175.888 59.273,175.888 C58.507,175.888 57.838,175.745 57.268,175.460 C57.268,175.460 57.268,174.950 57.268,174.950 C57.556,175.101 57.880,175.219 58.240,175.305 C58.599,175.391 58.936,175.434 59.253,175.434 C60.012,175.434 60.583,175.280 60.965,174.973 C61.346,174.665 61.537,174.231 61.537,173.671 C61.537,173.172 61.342,172.789 60.952,172.521 C60.561,172.253 59.988,172.119 59.232,172.119 C59.232,172.119 58.418,172.119 58.418,172.119 L58.418,171.624 C58.418,171.624 59.242,171.624 59.242,171.624 C59.868,171.624 60.364,171.475 60.730,171.178 C61.096,170.880 61.279,170.477 61.279,169.968 C61.279,169.549 61.130,169.213 60.833,168.960 C60.536,168.708 60.146,168.581 59.665,168.581 C59.291,168.581 58.949,168.634 58.639,168.739 C58.330,168.844 57.983,169.023 57.598,169.278 C57.598,169.278 57.345,168.932 57.345,168.932 C57.637,168.688 57.990,168.495 58.402,168.352 C58.815,168.209 59.232,168.138 59.655,168.138 C60.349,168.138 60.885,168.302 61.264,168.630 C61.642,168.959 61.831,169.422 61.831,170.020 C61.831,170.488 61.684,170.881 61.390,171.201 C61.096,171.521 60.702,171.725 60.207,171.814 zM53.757,175.888 C52.969,175.888 52.371,175.561 51.962,174.906 C51.553,174.251 51.349,173.281 51.349,171.995 C51.349,170.682 51.547,169.709 51.944,169.076 C52.341,168.444 52.945,168.128 53.757,168.128 C54.551,168.128 55.156,168.455 55.571,169.110 C55.987,169.765 56.195,170.726 56.195,171.995 C56.195,173.318 55.993,174.298 55.590,174.934 C55.186,175.570 54.575,175.888 53.757,175.888 zM55.177,169.458 C54.880,168.880 54.406,168.592 53.757,168.592 C53.107,168.592 52.636,168.880 52.344,169.458 C52.052,170.035 51.906,170.881 51.906,171.995 C51.906,173.164 52.059,174.027 52.365,174.586 C52.670,175.145 53.134,175.424 53.757,175.424 C54.406,175.424 54.880,175.135 55.177,174.558 C55.474,173.980 55.623,173.126 55.623,171.995 C55.623,170.881 55.474,170.035 55.177,169.458 z" fill="#FFFFFF" /><path id="04" d="M111.283,97.539 L111.283,99.462 L110.798,99.462 L110.798,97.539 L106.921,97.539 L106.921,97.193 L110.659,91.882 L111.283,91.882 L111.283,97.095 L112.582,97.095 L112.582,97.539 L111.283,97.539 zM110.829,92.326 C110.761,92.453 110.549,92.776 110.195,93.295 C110.195,93.295 107.535,97.095 107.535,97.095 L110.798,97.095 C110.798,97.095 110.798,94.940 110.798,94.940 C110.798,93.902 110.822,93.030 110.871,92.326 C110.871,92.326 110.829,92.326 110.829,92.326 zM103.673,99.565 C102.886,99.565 102.288,99.238 101.879,98.583 C101.470,97.928 101.265,96.958 101.265,95.672 C101.265,94.359 101.464,93.386 101.861,92.754 C102.258,92.121 102.862,91.805 103.673,91.805 C104.467,91.805 105.072,92.132 105.488,92.787 C105.904,93.442 106.112,94.404 106.112,95.672 C106.112,96.996 105.910,97.975 105.506,98.611 C105.102,99.247 104.491,99.565 103.673,99.565 zM105.093,93.135 C104.796,92.558 104.323,92.269 103.673,92.269 C103.023,92.269 102.552,92.558 102.260,93.135 C101.968,93.713 101.822,94.558 101.822,95.672 C101.822,96.841 101.975,97.705 102.281,98.263 C102.587,98.822 103.051,99.101 103.673,99.101 C104.323,99.101 104.796,98.812 105.093,98.235 C105.391,97.657 105.539,96.803 105.539,95.672 C105.539,94.558 105.391,93.713 105.093,93.135 z" fill="#FFFFFF" /><path id="05" d="M189.804,52.838 C190.340,52.738 190.760,52.688 191.062,52.688 C191.867,52.688 192.500,52.882 192.962,53.271 C193.424,53.659 193.656,54.194 193.656,54.875 C193.656,55.648 193.415,56.250 192.934,56.679 C192.453,57.109 191.789,57.324 190.944,57.324 C190.569,57.324 190.213,57.287 189.876,57.213 C189.540,57.139 189.258,57.033 189.031,56.896 C189.031,56.896 189.031,56.365 189.031,56.365 C189.402,56.554 189.732,56.685 190.021,56.759 C190.310,56.833 190.617,56.870 190.944,56.870 C191.604,56.870 192.133,56.696 192.532,56.347 C192.930,55.998 193.130,55.526 193.130,54.931 C193.130,54.371 192.936,53.931 192.547,53.611 C192.159,53.291 191.631,53.132 190.964,53.132 C190.517,53.132 190.050,53.199 189.562,53.333 C189.562,53.333 189.253,53.132 189.253,53.132 L189.552,49.682 L193.181,49.682 L193.181,50.177 L190.036,50.177 C190.036,50.177 189.804,52.838 189.804,52.838 zM185.267,57.324 C184.480,57.324 183.882,56.996 183.473,56.342 C183.064,55.687 182.859,54.716 182.859,53.431 C182.859,52.118 183.058,51.145 183.455,50.512 C183.852,49.880 184.456,49.563 185.267,49.563 C186.061,49.563 186.666,49.891 187.082,50.546 C187.498,51.201 187.706,52.162 187.706,53.431 C187.706,54.754 187.504,55.734 187.100,56.370 C186.696,57.006 186.085,57.324 185.267,57.324 zM186.687,50.894 C186.390,50.316 185.917,50.027 185.267,50.027 C184.617,50.027 184.146,50.316 183.854,50.894 C183.562,51.471 183.416,52.317 183.416,53.431 C183.416,54.600 183.569,55.463 183.875,56.022 C184.181,56.580 184.645,56.860 185.267,56.860 C185.917,56.860 186.390,56.571 186.687,55.993 C186.985,55.416 187.133,54.562 187.133,53.431 C187.133,52.317 186.985,51.471 186.687,50.894 z" fill="#FFFFFF" /><path id="06" d="M287.224,51.394 C286.751,52.006 286.486,52.897 286.427,54.065 C286.427,54.065 286.494,54.065 286.494,54.065 C286.755,53.729 287.054,53.474 287.391,53.302 C287.728,53.130 288.084,53.044 288.459,53.044 C289.163,53.044 289.714,53.246 290.111,53.648 C290.508,54.050 290.707,54.605 290.707,55.313 C290.707,56.083 290.498,56.691 290.080,57.136 C289.663,57.581 289.100,57.804 288.392,57.804 C287.629,57.804 287.026,57.512 286.584,56.930 C286.143,56.347 285.922,55.533 285.922,54.488 C285.922,53.509 286.055,52.684 286.322,52.016 C286.588,51.347 286.966,50.851 287.456,50.528 C287.946,50.205 288.536,50.043 289.227,50.043 C289.550,50.043 289.846,50.083 290.114,50.162 C290.114,50.162 290.114,50.616 290.114,50.616 C289.863,50.523 289.560,50.477 289.206,50.477 C288.357,50.477 287.696,50.783 287.224,51.394 zM286.739,56.203 C286.909,56.555 287.140,56.834 287.430,57.041 C287.720,57.247 288.041,57.350 288.392,57.350 C288.955,57.350 289.394,57.173 289.706,56.819 C290.019,56.465 290.176,55.960 290.176,55.303 C290.176,54.725 290.021,54.275 289.712,53.952 C289.402,53.629 288.981,53.467 288.448,53.467 C288.098,53.467 287.772,53.545 287.471,53.699 C287.170,53.854 286.931,54.059 286.752,54.316 C286.573,54.572 286.484,54.834 286.484,55.102 C286.484,55.483 286.569,55.850 286.739,56.203 zM282.220,57.804 C281.433,57.804 280.835,57.476 280.426,56.822 C280.017,56.167 279.812,55.196 279.812,53.911 C279.812,52.598 280.011,51.625 280.408,50.992 C280.805,50.360 281.409,50.043 282.220,50.043 C283.014,50.043 283.619,50.371 284.035,51.026 C284.451,51.681 284.659,52.642 284.659,53.911 C284.659,55.234 284.457,56.214 284.053,56.850 C283.649,57.486 283.038,57.804 282.220,57.804 zM283.640,51.374 C283.343,50.796 282.870,50.507 282.220,50.507 C281.570,50.507 281.099,50.796 280.807,51.374 C280.515,51.951 280.369,52.797 280.369,53.911 C280.369,55.080 280.522,55.943 280.828,56.502 C281.134,57.061 281.598,57.340 282.220,57.340 C282.870,57.340 283.343,57.051 283.640,56.473 C283.938,55.896 284.086,55.042 284.086,53.911 C284.086,52.797 283.938,51.951 283.640,51.374 z" fill="#FFFFFF" /><path id="07" d="M364.846,99.942 L364.243,99.942 L367.347,92.899 L363.083,92.899 L363.083,92.404 L367.960,92.404 L367.960,92.780 L364.846,99.942 zM359.494,100.045 C358.707,100.045 358.109,99.718 357.700,99.063 C357.291,98.408 357.087,97.438 357.087,96.152 C357.087,94.839 357.285,93.866 357.682,93.234 C358.079,92.601 358.683,92.285 359.494,92.285 C360.288,92.285 360.893,92.612 361.309,93.267 C361.725,93.922 361.933,94.884 361.933,96.152 C361.933,97.476 361.731,98.455 361.327,99.091 C360.923,99.727 360.312,100.045 359.494,100.045 zM360.915,93.615 C360.618,93.038 360.144,92.749 359.494,92.749 C358.845,92.749 358.374,93.038 358.082,93.615 C357.790,94.193 357.643,95.038 357.643,96.152 C357.643,97.321 357.796,98.185 358.102,98.743 C358.408,99.302 358.872,99.581 359.494,99.581 C360.144,99.581 360.618,99.293 360.915,98.715 C361.212,98.137 361.361,97.283 361.361,96.152 C361.361,95.038 361.212,94.193 360.915,93.615 z" fill="#FFFFFF" /><path id="08" d="M417.466,171.773 C418.126,172.045 418.590,172.342 418.858,172.665 C419.126,172.988 419.260,173.380 419.260,173.841 C419.260,174.463 419.042,174.960 418.608,175.331 C418.173,175.702 417.589,175.888 416.857,175.888 C416.098,175.888 415.515,175.715 415.109,175.367 C414.704,175.020 414.501,174.515 414.501,173.851 C414.501,173.401 414.644,173.006 414.929,172.665 C415.214,172.325 415.656,172.035 416.254,171.794 C415.701,171.533 415.311,171.257 415.084,170.966 C414.857,170.676 414.743,170.328 414.743,169.922 C414.743,169.561 414.834,169.244 415.017,168.971 C415.199,168.697 415.454,168.487 415.782,168.339 C416.110,168.191 416.476,168.117 416.878,168.117 C417.517,168.117 418.032,168.281 418.422,168.607 C418.812,168.934 419.007,169.375 419.007,169.932 C419.007,170.317 418.886,170.658 418.644,170.953 C418.401,171.249 418.009,171.522 417.466,171.773 zM415.424,172.815 C415.159,173.111 415.027,173.482 415.027,173.929 C415.027,174.403 415.188,174.771 415.509,175.032 C415.830,175.293 416.280,175.424 416.857,175.424 C417.421,175.424 417.875,175.286 418.218,175.009 C418.562,174.732 418.734,174.357 418.734,173.882 C418.734,173.456 418.599,173.110 418.329,172.843 C418.059,172.577 417.540,172.297 416.770,172.005 C416.137,172.249 415.689,172.519 415.424,172.815 zM418.056,168.942 C417.766,168.702 417.369,168.581 416.868,168.581 C416.383,168.581 415.994,168.701 415.700,168.940 C415.406,169.179 415.259,169.506 415.259,169.922 C415.259,170.163 415.313,170.375 415.421,170.559 C415.530,170.743 415.686,170.910 415.891,171.059 C416.095,171.209 416.438,171.383 416.919,171.582 C417.479,171.366 417.882,171.127 418.126,170.866 C418.370,170.604 418.492,170.290 418.492,169.922 C418.492,169.510 418.346,169.183 418.056,168.942 zM410.851,175.888 C410.064,175.888 409.465,175.561 409.056,174.906 C408.647,174.251 408.443,173.281 408.443,171.995 C408.443,170.682 408.641,169.709 409.038,169.076 C409.435,168.444 410.039,168.128 410.851,168.128 C411.645,168.128 412.250,168.455 412.666,169.110 C413.081,169.765 413.289,170.726 413.289,171.995 C413.289,173.318 413.087,174.298 412.684,174.934 C412.280,175.570 411.669,175.888 410.851,175.888 zM412.271,169.458 C411.974,168.880 411.500,168.592 410.851,168.592 C410.201,168.592 409.730,168.880 409.438,169.458 C409.146,170.035 409.000,170.881 409.000,171.995 C409.000,173.164 409.153,174.027 409.459,174.586 C409.764,175.145 410.229,175.424 410.851,175.424 C411.500,175.424 411.974,175.135 412.271,174.558 C412.568,173.980 412.717,173.126 412.717,171.995 C412.717,170.881 412.568,170.035 412.271,169.458 z" fill="#FFFFFF" /><path id="09" d="M426.989,273.292 C426.729,273.959 426.351,274.452 425.855,274.772 C425.358,275.092 424.757,275.252 424.053,275.252 C423.695,275.252 423.365,275.207 423.063,275.118 C423.063,275.118 423.063,274.674 423.063,274.674 C423.210,274.722 423.388,274.759 423.596,274.785 C423.804,274.811 423.963,274.824 424.073,274.824 C424.922,274.824 425.587,274.517 426.068,273.903 C426.550,273.290 426.818,272.395 426.873,271.219 C426.873,271.219 426.811,271.219 426.811,271.219 C426.560,271.549 426.261,271.803 425.914,271.980 C425.567,272.157 425.204,272.245 424.826,272.245 C424.128,272.245 423.584,272.053 423.194,271.668 C422.804,271.283 422.609,270.736 422.609,270.028 C422.609,269.272 422.823,268.660 423.251,268.192 C423.679,267.725 424.235,267.491 424.919,267.491 C425.414,267.491 425.847,267.621 426.218,267.880 C426.589,268.140 426.875,268.521 427.076,269.023 C427.278,269.525 427.378,270.119 427.378,270.807 C427.378,271.797 427.248,272.625 426.989,273.292 zM426.581,269.064 C426.422,268.713 426.198,268.439 425.911,268.241 C425.624,268.044 425.293,267.945 424.919,267.945 C424.376,267.945 423.942,268.128 423.619,268.494 C423.296,268.860 423.135,269.361 423.135,269.997 C423.135,270.595 423.284,271.049 423.583,271.358 C423.882,271.668 424.310,271.823 424.867,271.823 C425.214,271.823 425.538,271.745 425.839,271.591 C426.140,271.436 426.379,271.230 426.556,270.974 C426.733,270.718 426.821,270.458 426.821,270.193 C426.821,269.791 426.741,269.415 426.581,269.064 zM419.010,275.252 C418.223,275.252 417.625,274.924 417.216,274.269 C416.807,273.614 416.602,272.644 416.602,271.358 C416.602,270.045 416.801,269.072 417.198,268.440 C417.595,267.807 418.199,267.491 419.010,267.491 C419.804,267.491 420.409,267.819 420.825,268.473 C421.241,269.128 421.449,270.090 421.449,271.358 C421.449,272.682 421.247,273.662 420.843,274.298 C420.439,274.934 419.828,275.252 419.010,275.252 zM420.431,268.822 C420.133,268.244 419.660,267.955 419.010,267.955 C418.360,267.955 417.889,268.244 417.597,268.822 C417.305,269.399 417.159,270.245 417.159,271.358 C417.159,272.527 417.312,273.391 417.618,273.950 C417.924,274.508 418.388,274.788 419.010,274.788 C419.660,274.788 420.133,274.499 420.431,273.921 C420.728,273.344 420.877,272.490 420.877,271.358 C420.877,270.245 420.728,269.399 420.431,268.822 z" fill="#FFFFFF" /><path id="10" d="M377.914,370.281 C377.510,370.917 376.899,371.235 376.081,371.235 C375.294,371.235 374.696,370.908 374.287,370.253 C373.878,369.598 373.673,368.628 373.673,367.342 C373.673,366.029 373.872,365.056 374.269,364.423 C374.666,363.791 375.270,363.475 376.081,363.475 C376.875,363.475 377.480,363.802 377.896,364.457 C378.312,365.112 378.520,366.073 378.520,367.342 C378.520,368.665 378.318,369.645 377.914,370.281 zM377.501,364.805 C377.204,364.227 376.730,363.939 376.081,363.939 C375.431,363.939 374.960,364.227 374.668,364.805 C374.376,365.382 374.230,366.228 374.230,367.342 C374.230,368.511 374.383,369.374 374.689,369.933 C374.995,370.492 375.459,370.771 376.081,370.771 C376.730,370.771 377.204,370.482 377.501,369.905 C377.799,369.327 377.947,368.473 377.947,367.342 C377.947,366.228 377.799,365.382 377.501,364.805 zM370.064,365.640 C370.064,365.142 370.085,364.624 370.126,364.088 C370.074,364.140 370.021,364.190 369.966,364.238 C369.911,364.286 369.380,364.704 368.373,365.491 C368.373,365.491 368.079,365.125 368.079,365.125 L370.126,363.593 L370.569,363.593 L370.569,371.132 L370.064,371.132 C370.064,371.132 370.064,365.640 370.064,365.640 z" fill="#FFFFFF" /></g><g id="Arrows-direction"><path id="Shape-53-copy-4" d="M89.366,346.576 L85.960,349.877 L86.984,341.618 L94.072,345.979 L89.366,346.576 zM76.960,332.877 L77.984,324.618 L85.072,328.978 L80.366,329.576 L76.960,332.877 zM67.960,315.876 L68.984,307.617 L76.072,311.978 L71.366,312.575 L67.960,315.876 zM58.960,298.875 L59.984,290.617 L67.072,294.977 L62.366,295.574 L58.960,298.875 z" fill="#338BC3" /><path id="Shape-53-copy-5" d="M55.553,194.879 L50.928,195.934 L56.088,189.405 L59.885,196.810 L55.553,194.879 zM58.759,216.013 L54.427,214.083 L49.802,215.137 L54.962,208.608 L58.759,216.013 zM57.133,235.216 L52.801,233.285 L48.176,234.340 L53.336,227.811 L57.133,235.216 zM56.007,254.420 L51.674,252.489 L47.050,253.544 L52.210,247.015 L56.007,254.420 z" fill="#D6EBF9" /><path id="Shape-53-copy-11" d="M413.719,227.784 L418.299,229.021 L422.705,227.264 L418.616,234.512 L413.719,227.784 zM412.357,208.560 L416.936,209.797 L421.342,208.040 L417.253,215.288 L412.357,208.560 zM410.500,189.414 L415.079,190.651 L419.485,188.893 L415.397,196.142 L410.500,189.414 zM424.061,246.410 L419.973,253.658 L415.076,246.930 L419.655,248.167 L424.061,246.410 z" fill="#E7D3F1" /><path id="Shape-53-copy-12" d="M408.613,298.169 L407.975,289.871 L411.224,293.327 L415.897,294.143 L408.613,298.169 zM399.510,307.145 L402.759,310.601 L407.432,311.416 L400.149,315.442 L399.510,307.145 zM391.085,324.225 L394.333,327.681 L399.006,328.497 L391.723,332.523 L391.085,324.225 zM382.694,341.236 L385.943,344.693 L390.616,345.508 L383.332,349.534 L382.694,341.236 z" fill="#B864DA" /><path id="Shape-53-copy-8" d="M266.095,53.781 L258.894,57.990 L260.602,53.513 L259.314,48.892 L266.095,53.781 zM242.871,53.337 L241.583,48.715 L248.364,53.605 L241.163,57.814 L242.871,53.337 zM225.115,53.156 L223.827,48.534 L230.608,53.423 L223.407,57.633 L225.115,53.156 zM207.384,52.980 L206.096,48.358 L212.877,53.247 L205.676,57.457 L207.384,52.980 z" fill="#D6D6F0" /><path id="Shape-53-copy-9" d="M334.435,85.708 L338.036,82.547 L339.055,77.858 L342.769,85.348 L334.435,85.708 zM322.419,74.097 L323.438,69.407 L327.151,76.897 L318.818,77.257 L322.419,74.097 zM306.821,65.662 L307.840,60.973 L311.554,68.462 L303.221,68.823 L306.821,65.662 z" fill="#F1E4F4" /><path id="Shape-53-copy-10" d="M395.500,151.850 L400.125,150.599 L403.107,146.840 L403.139,155.200 L395.500,151.850 zM387.832,133.130 L390.813,129.370 L390.845,137.730 L383.206,134.381 L387.832,133.130 zM375.548,114.684 L378.530,110.924 L378.562,119.284 L370.923,115.934 L375.548,114.684 z" fill="#E7D3F1" /><path id="Shape-53-copy-6" d="M95.862,122.791 L93.053,118.969 L88.512,117.598 L96.226,114.476 L95.862,122.791 zM82.139,134.852 L77.598,133.481 L85.313,130.360 L84.949,138.674 L82.139,134.852 zM71.160,151.484 L66.620,150.112 L74.334,146.992 L73.970,155.306 L71.160,151.484 z" fill="#D6EBF9" /><path id="Shape-53-copy-7" d="M164.315,72.295 L163.579,67.608 L160.179,64.301 L168.464,65.082 L164.315,72.295 zM146.580,76.686 L143.180,73.378 L151.465,74.158 L147.315,81.372 L146.580,76.686 zM129.178,86.396 L125.778,83.088 L134.063,83.869 L129.913,91.082 L129.178,86.396 z" fill="#D8E4F6" /></g></g></svg>