<svg version="1.1" xmlns="http://www.w3.org/2000/svg" xmlns:xlink="http://www.w3.org/1999/xlink" width="702" height="89" viewBox="0 0 702 89"><g id="title_DashedLine"><g id="line" ><path id="line-stroke" d="M0.992,88.000 C0.992,80.268 7.260,73.999 14.992,73.999 C14.992,73.999 315.000,73.999 315.000,73.999 C351.024,73.999 351.000,50.000 351.000,50.000 C351.000,50.000 351.000,73.999 387.000,73.999 C387.000,73.999 687.008,73.999 687.008,73.999 C694.740,73.999 701.008,80.268 701.008,88.000 " fill="none" stroke="#338BC3" stroke-width="2" stroke-linecap="square" stroke-linejoin="round" /></g><g id="dashed-line" ><path id="dashed-line-stroke" d="M576.008,1.000 C576.008,1.000 387.000,1.000 387.000,1.000 C350.976,1.000 351.000,24.999 351.000,24.999 C351.000,24.999 351.000,1.000 315.000,1.000 C315.000,1.000 125.992,1.000 125.992,1.000 " fill="none" stroke="#C1DFF2" stroke-width="2" stroke-linecap="round" stroke-linejoin="round" stroke-dasharray="8,4" /></g></g></svg>