<svg xmlns="http://www.w3.org/2000/svg" width="1263" height="149" viewBox="0 0 1263 149"><path d="M1258.891 37.062a3.574 3.574 0 0 1-2.95-1.554l-75.929 44.428 45.116 54.177a3.609 3.609 0 1 1-1.034 2.528c0-.823.278-1.578.741-2.185l-45.282-54.379-106.398-23.724a4.796 4.796 0 0 1-4.546 3.272c-.359 0-.708-.043-1.045-.118l-14.818 45.911a3.591 3.591 0 0 1 2.41 3.394 3.586 3.586 0 0 1-3.578 3.594 3.586 3.586 0 0 1-3.578-3.594c0-.184.018-.364.045-.541L940.977 86.149a4.792 4.792 0 0 1-4.336 2.757 4.792 4.792 0 0 1-4.151-2.399l-101.492 46.108c.041.216.065.438.065.666a3.602 3.602 0 0 1-3.61 3.594 3.604 3.604 0 0 1-3.543-2.917l-136.535-10.1a3.593 3.593 0 0 1-7-1.139c0-.338.05-.664.137-.975l-71.395-42.099-103.949 45.033c.155.546.219 1.126.167 1.724a4.798 4.798 0 0 1-5.201 4.359 4.798 4.798 0 0 1-4.361-5.199c.021-.232.063-.456.114-.676L339.703 63.172a3.581 3.581 0 0 1-3.634 1.147l-29.813 77.895a3.606 3.606 0 0 1 1.681 3.052 3.6 3.6 0 0 1-3.593 3.609 3.602 3.602 0 0 1-3.594-3.609 3.602 3.602 0 0 1 3.594-3.61 3.55 3.55 0 0 1 1.52.343l29.782-77.816a3.6 3.6 0 0 1-2.027-2.045l-171.001 8.066a4.794 4.794 0 0 1-9.524-.782c0-.553.098-1.081.27-1.575L73.899 21.359a3.602 3.602 0 0 1-2.633 1.141 3.6 3.6 0 0 1-3.604-3.478L-.053.991 1.559.977l66.114 17.602a3.602 3.602 0 0 1 3.593-3.266 3.608 3.608 0 0 1 3.45 2.537L100.909.981l.593.014L74.803 18.19c.032.157.05.319.06.483L128.319.986l1.471-.025-54.927 18.173a3.558 3.558 0 0 1-.696 1.904l79.35 46.421a4.795 4.795 0 0 1 4.374-2.834c.431 0 .847.062 1.245.169l17.711-63.713.454-.075-17.767 63.914a4.795 4.795 0 0 1 3.154 4.502c0 .127-.01.252-.02.377l170.825-8.057a3.588 3.588 0 0 1-.118-.898c0-.178.017-.351.042-.521L216.211 1.04l.746-.117L333.51 59.878a3.591 3.591 0 1 1 6.787-.386L440.601.969l.803.046L340.438 59.92c.079.295.125.604.125.924 0 .106-.007.212-.016.316l78.267-8.46-.002-.028a3.602 3.602 0 0 1 3.594-3.61c.703 0 1.357.206 1.911.557L453.442 1.03l.546-.048-29.309 48.895a3.608 3.608 0 0 1 .746 4.748l71.542 68.177a4.819 4.819 0 0 1 1.846-1.287L463.673 1.03l.482.068 35.079 120.275a4.773 4.773 0 0 1 4.335.875l64.384-80.676a3.598 3.598 0 0 1-.689-3.434L485.079.924l1.117.018 81.23 36.784a3.592 3.592 0 0 1 2.911-2.083l3.847-34.555.384-.006-3.846 34.545a3.597 3.597 0 0 1 3.498 2.956l66.826-6.355c.08-.96.536-1.811 1.22-2.408L615.92 1.049l.668.08 26.025 28.42a3.548 3.548 0 0 1 1.996-.612 3.58 3.58 0 0 1 3.291 2.182l68.969-16.208a3.55 3.55 0 0 1-.057-.614 3.608 3.608 0 0 1 3.535-3.606l1.311-9.669.456-.06-1.321 9.744a3.61 3.61 0 0 1 3.238 3.591c0 .407-.07.797-.195 1.162l78.092 27.091a3.6 3.6 0 0 1 2.372-2.417l1.885-39.104.442.06-1.877 38.938a3.574 3.574 0 0 1 2.982.827l45.939-33.926a4.77 4.77 0 0 1-1.015-2.944c0-1.133.393-2.174 1.05-2.994l1.554-.003-.023-.052.03.052 5.922-.012a4.776 4.776 0 0 1 1.061 3.009 4.786 4.786 0 0 1-1.786 3.732l72.192 73.723a4.792 4.792 0 0 1 5.951-1.702l48.322-76.543.18.113-.179-.113 1.394-2.2.591-.107-1.492 2.356 77.153 48.995a4.805 4.805 0 0 1 2.28-1.871L1049.798.947l.511.121 16.967 49.155c.424-.123.87-.192 1.333-.192.559 0 1.093.101 1.592.276l17.285-49.245.493-.065-17.366 49.477a4.802 4.802 0 0 1 1.817 1.462l51.67-40.965a3.564 3.564 0 0 1 .898-4.157L1120.91.983l.508-.049 3.929 5.605a3.606 3.606 0 0 1 2.044-.633c1.107 0 2.098.498 2.76 1.281l12.538-6.221.924.035-13.194 6.547c.366.562.581 1.232.581 1.952a3.58 3.58 0 0 1-1.423 2.855l49.877 66.855V1.089h.443v78.4l75.817-44.362a3.56 3.56 0 0 1-.402-1.643 3.577 3.577 0 0 1 2.724-3.471L1251.414.941l.477.096 6.582 28.896a3.578 3.578 0 1 1 .418 7.129zM425.163 54.986a3.581 3.581 0 0 1-2.757 1.295 3.597 3.597 0 0 1-3.56-3.139l-78.368 8.472a3.599 3.599 0 0 1-.5 1.192l156.03 61.651c.159-.476.39-.915.679-1.308l-71.524-68.163zm145.524-12.142a3.567 3.567 0 0 1-2.424-.951l-64.362 80.651a4.827 4.827 0 0 1 1.127 1.714l103.723-44.936-36.014-37.125a3.56 3.56 0 0 1-2.05.647zm70.351-10.171l-66.767 6.351c.004.07.01.139.01.21a3.6 3.6 0 0 1-1.197 2.684l36.029 37.139 33.011-43.944a3.59 3.59 0 0 1-1.086-2.44zm3.571 3.452a3.548 3.548 0 0 1-2.148-.725L609.46 79.332l71.199 41.984a3.597 3.597 0 0 1 1.258-1.545l-35.904-83.934a3.55 3.55 0 0 1-1.404.288zm72.359-20.782l-68.922 16.194a3.593 3.593 0 0 1-1.638 4.098l35.891 83.903a3.571 3.571 0 0 1 1.67-.413c.3 0 .591.041.87.111l33.953-101.722a3.611 3.611 0 0 1-1.824-2.171zm84.813 28.219c0-.197.02-.389.051-.578L723.667 15.87a3.606 3.606 0 0 1-3.245 2.036c-.429 0-.839-.078-1.221-.216l-33.939 101.679a3.607 3.607 0 0 1 1.791 1.511l114.985-75.99a3.573 3.573 0 0 1-.257-1.328zm3.241 3.576a3.591 3.591 0 0 1-2.795-1.843l-114.969 75.979a3.576 3.576 0 0 1 .234 2.149l136.363 10.088c-.004-.076-.011-.152-.011-.23 0-1.528.96-2.83 2.311-3.35l-21.133-82.793zm.461.013l21.095 82.647a3.66 3.66 0 0 1 .875-.111 3.609 3.609 0 0 1 3.435 2.491l101.399-46.064a4.767 4.767 0 0 1-.443-2.005c0-.083.008-.165.012-.247L808.58 45.182a3.588 3.588 0 0 1-3.097 1.969zm54.62-39.17c-.759.505-1.67.8-2.65.8a4.777 4.777 0 0 1-3.492-1.515l-45.91 33.903a3.577 3.577 0 0 1 .704 3.606L931.9 83.412a4.784 4.784 0 0 1 .519-1.581l-72.316-73.85zm127.083-4.362l-48.18 76.32a4.796 4.796 0 0 1 2.362 3.385l122.59-27.341a4.834 4.834 0 0 1-.146-1.155c0-.797.198-1.547.542-2.208L987.186 3.619zm76.899 52.79L941.42 83.765c.008.114.017.228.017.344 0 .571-.104 1.116-.287 1.623l106.987 22.104a3.579 3.579 0 0 1 4.181-2.539l14.817-45.905a4.804 4.804 0 0 1-3.05-2.983zm65.123-43.808a3.605 3.605 0 0 1-4.897-1.235l-51.63 40.934a4.77 4.77 0 0 1 .594 3.628l105.865 23.603-49.932-66.93zm50.467 67.276h.001-.001zM334.157 1.742l-6.595-.783 3.135-.027 3.366.4.075.208-.021-.221 3.639-.344 4.98-.026-8.577.812-.002-.019z" fill="#1F93E2" opacity=".22"/></svg>