<svg version="1.1" xmlns="http://www.w3.org/2000/svg" xmlns:xlink="http://www.w3.org/1999/xlink" width="56" height="219" viewBox="0 0 56 219"><g id="skobka_L"><path id="text-BG-copy-2" d="M56.000,217.000 C40.095,217.000 24.292,204.562 24.292,188.654 C24.292,188.654 24.292,211.303 24.292,144.533 C24.292,111.100 0.294,109.979 0.294,109.979 C0.294,109.979 24.292,109.158 24.292,74.465 C24.292,8.359 24.292,30.925 24.292,30.925 C24.292,15.018 40.095,2.000 56.000,2.000 " fill="#FFFFFF" /><g id="Skobka-left-copy" ><path id="Skobka-left-copy-stroke" d="M56.000,217.000 C37.908,217.000 24.000,204.908 24.000,189.000 C24.000,189.000 24.000,179.771 24.000,145.000 C24.000,111.567 0.294,109.979 0.294,109.979 C0.294,109.979 24.000,108.692 24.000,74.000 C24.000,36.456 24.000,31.000 24.000,31.000 C24.000,15.094 36.845,2.000 56.000,2.000 " fill="none" stroke="#FF2F4F" stroke-width="4" stroke-linejoin="bevel" /></g></g></svg>