<svg version="1.1" xmlns="http://www.w3.org/2000/svg" xmlns:xlink="http://www.w3.org/1999/xlink" width="52" height="62" viewBox="0 0 52 62"><path id="anyQuestions" d="M10.959,20.930 C12.406,21.808 14.027,22.247 15.649,22.247 C17.271,22.247 18.894,21.808 20.340,20.930 C23.782,18.842 25.648,14.711 25.461,9.597 C25.234,3.409 20.241,0.416 15.697,0.252 C15.665,0.251 15.634,0.250 15.602,0.252 C11.058,0.415 6.065,3.409 5.838,9.596 C5.651,14.711 7.517,18.842 10.959,20.930 zM15.649,3.009 C17.945,3.104 20.279,4.081 21.623,6.046 C17.837,7.787 13.134,8.914 8.572,9.174 C8.982,5.100 12.356,3.144 15.649,3.009 zM22.648,8.597 C22.710,8.948 22.750,9.315 22.764,9.700 C22.913,13.774 21.527,17.003 18.962,18.560 C16.919,19.799 14.380,19.799 12.337,18.560 C10.261,17.300 8.958,14.945 8.615,11.933 C13.496,11.667 18.551,10.463 22.648,8.597 zM44.738,44.504 C44.410,43.820 44.686,42.994 45.355,42.658 C45.355,42.658 47.484,41.591 47.484,41.591 C48.153,41.255 48.962,41.538 49.291,42.221 C49.619,42.904 49.343,43.731 48.674,44.066 C48.674,44.066 46.545,45.133 46.545,45.133 C46.353,45.229 46.150,45.275 45.951,45.275 C45.452,45.275 44.973,44.991 44.738,44.504 zM24.882,34.518 C24.882,34.518 25.659,38.817 25.659,38.817 C25.795,39.566 26.498,40.060 27.232,39.922 C27.965,39.783 28.450,39.065 28.314,38.316 C28.314,38.316 27.536,34.015 27.536,34.015 C26.422,27.871 20.749,25.099 15.618,25.099 C15.615,25.099 15.612,25.099 15.609,25.099 C15.605,25.099 15.601,25.099 15.596,25.099 C10.469,25.099 4.804,27.875 3.690,34.015 C3.690,34.015 0.512,51.580 0.512,51.580 C0.439,51.982 0.546,52.404 0.802,52.719 C1.059,53.034 1.439,53.223 1.840,53.223 C1.840,53.223 18.208,53.223 18.208,53.223 C18.953,53.223 19.558,52.599 19.558,51.837 C19.558,51.076 18.953,50.455 18.208,50.455 C18.208,50.455 3.462,50.454 3.462,50.454 C3.462,50.454 6.345,34.520 6.345,34.520 C6.858,31.691 8.736,29.816 11.042,28.797 C11.042,28.797 13.699,35.577 13.699,35.577 C13.699,35.577 13.053,35.577 13.053,35.577 C12.307,35.577 11.693,36.207 11.693,36.968 C11.693,36.968 11.693,44.687 11.693,44.687 C11.693,45.448 12.307,46.054 13.053,46.054 C13.053,46.054 18.211,46.054 18.211,46.054 C18.956,46.054 19.522,45.448 19.522,44.687 C19.522,44.687 19.522,36.968 19.522,36.968 C19.522,36.207 18.956,35.577 18.211,35.577 C18.211,35.577 17.600,35.577 17.600,35.577 C17.600,35.577 20.247,28.823 20.247,28.823 C22.524,29.848 24.373,31.715 24.882,34.518 zM16.822,43.297 L14.393,43.297 L14.393,38.333 L16.822,38.333 L16.822,43.297 zM15.649,33.146 C15.649,33.146 13.646,28.029 13.646,28.029 C14.301,27.918 14.963,27.863 15.613,27.861 C16.286,27.863 16.971,27.922 17.648,28.041 C17.648,28.041 15.649,33.146 15.649,33.146 zM51.511,49.575 C51.511,50.336 50.907,50.954 50.162,50.954 C50.162,50.954 47.812,50.954 47.812,50.954 C47.067,50.954 46.462,50.336 46.462,49.575 C46.462,48.813 47.067,48.197 47.812,48.196 C47.812,48.196 50.161,48.196 50.161,48.196 C50.907,48.196 51.511,48.812 51.511,49.575 zM49.291,56.929 C49.056,57.417 48.577,57.700 48.078,57.700 C47.878,57.700 47.676,57.655 47.484,57.559 C47.484,57.559 45.355,56.491 45.355,56.491 C44.686,56.156 44.410,55.329 44.738,54.645 C45.067,53.963 45.875,53.680 46.545,54.016 C46.545,54.016 48.674,55.084 48.674,55.084 C49.343,55.419 49.619,56.245 49.291,56.929 zM41.343,40.134 C40.981,39.876 40.515,39.837 40.100,39.993 C40.100,39.993 30.701,43.573 30.701,43.573 C30.701,43.573 24.168,43.573 24.168,43.573 C23.422,43.573 22.761,44.149 22.761,44.910 C22.761,44.910 22.761,60.370 22.761,60.370 C22.761,61.131 23.365,61.749 24.111,61.749 C24.856,61.749 25.461,61.131 25.461,60.370 C25.461,60.370 25.461,55.566 25.461,55.566 L30.701,55.566 C30.701,55.566 40.098,59.151 40.098,59.151 C40.512,59.308 40.981,59.261 41.343,59.003 C41.706,58.745 41.928,58.335 41.928,57.884 C41.928,57.884 41.928,41.265 41.928,41.265 C41.928,40.815 41.706,40.391 41.343,40.134 zM29.645,52.809 L25.461,52.809 L25.461,46.329 L29.645,46.329 L29.645,52.809 zM39.228,55.903 L32.344,53.280 L32.344,45.869 L39.228,43.247 L39.228,55.903 z" fill="#208BCE" /></svg>