<svg version="1.1" xmlns="http://www.w3.org/2000/svg" xmlns:xlink="http://www.w3.org/1999/xlink" width="40" height="30" viewBox="0 0 40 30"><path id="-Block9_icon2" d="M39.333,30.000 C39.333,30.000 0.667,30.000 0.667,30.000 C0.309,30.000 -0.000,30.042 -0.000,29.685 C-0.000,29.327 0.290,29.038 0.648,29.038 C0.648,29.038 1.667,28.999 1.667,28.999 C1.667,28.999 1.667,2.000 1.667,2.000 C1.667,0.880 2.293,0.000 3.413,0.000 C3.413,0.000 36.333,0.000 36.333,0.000 C37.682,0.000 38.333,0.880 38.333,2.000 C38.333,2.000 38.333,28.999 38.333,28.999 C38.333,28.999 39.352,29.038 39.352,29.038 C39.710,29.038 40.000,29.327 40.000,29.685 C40.000,30.042 39.692,30.000 39.333,30.000 zM37.333,2.000 C37.313,1.512 36.967,1.000 36.333,1.000 C36.333,1.000 3.667,1.000 3.667,1.000 C3.262,1.000 2.667,1.595 2.667,2.000 C2.667,2.000 2.667,28.999 2.667,28.999 L37.333,28.999 C37.333,28.999 37.333,2.000 37.333,2.000 zM4.333,3.667 C4.333,3.308 4.642,3.000 5.000,3.000 C5.000,3.000 35.000,3.000 35.000,3.000 C35.358,3.000 35.667,3.308 35.667,3.667 C35.667,3.667 35.667,26.666 35.667,26.666 C35.667,27.025 35.358,27.333 35.000,27.333 C35.000,27.333 4.667,27.333 4.667,27.333 C4.309,27.333 4.333,27.358 4.333,27.000 C4.333,27.000 4.333,3.667 4.333,3.667 zM5.333,26.333 L34.667,26.333 L34.667,4.000 L5.333,4.000 L5.333,26.333 zM32.000,12.667 C32.358,12.667 32.743,12.821 32.743,13.179 C32.743,13.537 32.358,13.667 32.000,13.667 C32.000,13.667 29.667,13.667 29.667,13.667 C29.308,13.667 29.000,13.358 29.000,13.000 C29.000,13.000 29.000,12.000 29.000,12.000 C29.000,11.071 29.738,10.667 30.667,10.667 C30.667,10.667 31.333,10.667 31.333,10.667 C31.548,10.667 31.667,10.214 31.667,10.000 C31.667,9.785 31.214,9.333 31.000,9.333 C31.000,9.333 30.333,9.333 30.333,9.333 C30.310,9.333 30.000,9.642 30.000,9.666 C30.000,10.025 29.691,10.000 29.333,10.000 C28.975,10.000 29.028,10.080 29.028,9.723 C29.028,8.984 29.595,8.333 30.333,8.333 C30.333,8.333 31.000,8.333 31.000,8.333 C31.929,8.333 32.667,9.071 32.667,10.000 C32.667,10.929 31.929,11.667 31.000,11.667 C31.000,11.667 30.667,11.667 30.667,11.667 C30.452,11.667 29.991,11.928 29.991,12.142 C29.991,12.142 30.000,12.667 30.000,12.667 C30.000,12.667 32.000,12.667 32.000,12.667 zM30.229,14.826 C30.465,15.095 30.438,15.504 30.169,15.741 C29.900,15.977 29.569,15.936 29.333,15.666 C29.067,15.363 28.687,15.000 28.333,15.000 C27.548,15.000 26.667,16.023 26.667,17.000 C26.667,17.977 27.548,19.000 28.333,19.000 C28.687,19.000 28.989,18.586 29.255,18.283 C29.491,18.013 29.900,17.986 30.169,18.222 C30.438,18.458 30.465,18.869 30.229,19.137 C29.714,19.725 29.026,20.050 28.294,20.050 C26.793,20.050 25.667,18.692 25.667,17.000 C25.667,15.308 26.833,14.000 28.333,14.000 C29.066,14.000 29.714,14.238 30.229,14.826 zM24.147,20.050 C23.789,20.050 23.667,19.691 23.667,19.333 C23.667,19.333 23.667,16.000 23.667,16.000 C23.667,15.595 23.447,14.979 22.667,15.000 C22.262,15.011 22.000,15.595 22.000,16.000 C22.000,16.000 22.000,19.333 22.000,19.333 C22.000,19.691 21.740,20.050 21.382,20.050 C21.025,20.050 21.000,19.691 21.000,19.333 C21.000,19.333 21.000,16.000 21.000,16.000 C21.000,15.595 20.884,15.000 20.000,15.000 C19.324,15.000 19.000,15.595 19.000,16.000 C19.000,16.000 19.000,19.333 19.000,19.333 C19.000,19.691 18.976,20.050 18.618,20.050 C18.260,20.050 18.000,20.024 18.000,19.667 C18.000,19.667 18.000,15.000 18.000,15.000 C18.000,14.643 17.976,14.012 18.333,14.000 C18.961,13.980 18.881,14.203 19.000,14.333 C19.272,14.197 19.676,14.000 20.000,14.000 C20.534,14.000 21.020,14.121 21.382,14.458 C21.745,14.121 22.128,14.011 22.662,14.018 C23.767,14.032 24.664,14.883 24.667,16.000 C24.667,16.000 24.667,19.333 24.667,19.333 C24.667,19.691 24.505,20.050 24.147,20.050 zM16.000,17.667 C16.000,17.667 14.471,17.667 14.471,17.667 C14.113,17.667 13.823,17.377 13.823,17.018 C13.823,16.661 13.976,16.667 14.333,16.667 C14.333,16.667 16.000,16.667 16.000,16.667 C16.358,16.667 16.501,16.661 16.501,17.018 C16.501,17.377 16.358,17.667 16.000,17.667 zM16.000,15.666 C16.000,15.666 14.333,15.666 14.333,15.666 C13.976,15.666 13.823,15.611 13.823,15.253 C13.823,14.895 13.976,14.666 14.333,14.666 C14.333,14.666 16.000,14.666 16.000,14.666 C16.358,14.666 16.501,14.895 16.501,15.253 C16.501,15.611 16.358,15.666 16.000,15.666 zM12.667,19.000 C13.024,19.000 13.046,19.376 13.046,19.735 C13.046,20.093 13.024,20.000 12.667,20.000 C12.667,20.000 8.667,20.000 8.667,20.000 C8.667,20.000 8.333,20.000 8.333,20.000 C7.976,20.000 7.667,19.691 7.667,19.333 C7.667,19.333 7.667,11.334 7.667,11.334 C7.667,10.975 7.976,10.667 8.333,10.667 C8.333,10.667 12.333,10.667 12.333,10.667 C12.691,10.667 13.046,10.747 13.046,11.105 C13.046,11.463 12.691,11.667 12.333,11.667 C12.333,11.667 8.667,11.667 8.667,11.667 L8.667,14.666 C8.667,14.666 11.000,14.666 11.000,14.666 C11.358,14.666 11.663,14.895 11.663,15.253 C11.663,15.611 11.358,15.666 11.000,15.666 C11.000,15.666 8.667,15.666 8.667,15.666 L8.667,19.000 C8.667,19.000 12.667,19.000 12.667,19.000 z" fill="#338BC3" /></svg>