<svg version="1.1" xmlns="http://www.w3.org/2000/svg" xmlns:xlink="http://www.w3.org/1999/xlink" width="42" height="39" viewBox="0 0 42 39"><path id="icon_calendar_1m" d="M33.062,10.187 C33.062,9.738 33.551,9.500 34.000,9.500 C34.000,9.500 35.500,9.500 35.500,9.500 C35.949,9.500 36.312,9.738 36.312,10.187 C36.312,10.636 35.948,10.999 35.499,10.999 C35.499,10.999 33.875,10.999 33.875,10.999 C33.426,10.999 33.062,10.636 33.062,10.187 zM35.880,14.500 C35.880,14.500 37.293,14.500 37.293,14.500 C37.683,14.500 38.000,14.817 38.000,15.208 C38.000,15.599 37.683,15.916 37.293,15.916 C37.293,15.916 35.880,15.916 35.880,15.916 C35.490,15.916 35.173,15.599 35.173,15.208 C35.173,14.817 35.490,14.500 35.880,14.500 zM35.880,18.042 C35.880,18.042 37.293,18.042 37.293,18.042 C37.683,18.042 38.000,18.359 38.000,18.749 C38.000,19.141 37.683,19.458 37.293,19.458 C37.293,19.458 35.880,19.458 35.880,19.458 C35.490,19.458 35.173,19.141 35.173,18.749 C35.173,18.359 35.490,18.042 35.880,18.042 zM35.880,21.583 C35.880,21.583 37.293,21.583 37.293,21.583 C37.683,21.583 38.000,21.900 38.000,22.291 C38.000,22.683 37.683,23.000 37.293,23.000 C37.293,23.000 35.880,23.000 35.880,23.000 C35.490,23.000 35.173,22.683 35.173,22.291 C35.173,21.900 35.490,21.583 35.880,21.583 zM35.880,28.667 C35.880,28.667 37.293,28.667 37.293,28.667 C37.683,28.667 38.000,28.984 38.000,29.374 C38.000,29.766 37.683,30.083 37.293,30.083 C37.293,30.083 35.880,30.083 35.880,30.083 C35.490,30.083 35.173,29.766 35.173,29.374 C35.173,28.984 35.490,28.667 35.880,28.667 zM35.880,25.125 C35.880,25.125 37.293,25.125 37.293,25.125 C37.683,25.125 38.000,25.442 38.000,25.833 C38.000,26.224 37.683,26.541 37.293,26.541 C37.293,26.541 35.880,26.541 35.880,26.541 C35.490,26.541 35.173,26.224 35.173,25.833 C35.173,25.442 35.490,25.125 35.880,25.125 zM6.620,30.083 C6.620,30.083 5.206,30.083 5.206,30.083 C4.816,30.083 4.500,29.766 4.500,29.374 C4.500,28.984 4.816,28.667 5.206,28.667 C5.206,28.667 6.620,28.667 6.620,28.667 C7.010,28.667 7.326,28.984 7.326,29.374 C7.326,29.766 7.010,30.083 6.620,30.083 zM6.620,26.541 C6.620,26.541 5.206,26.541 5.206,26.541 C4.816,26.541 4.500,26.224 4.500,25.833 C4.500,25.442 4.816,25.125 5.206,25.125 C5.206,25.125 6.620,25.125 6.620,25.125 C7.010,25.125 7.326,25.442 7.326,25.833 C7.326,26.224 7.010,26.541 6.620,26.541 zM6.620,23.000 C6.620,23.000 5.206,23.000 5.206,23.000 C4.816,23.000 4.500,22.683 4.500,22.291 C4.500,21.900 4.816,21.583 5.206,21.583 C5.206,21.583 6.620,21.583 6.620,21.583 C7.010,21.583 7.326,21.900 7.326,22.291 C7.326,22.683 7.010,23.000 6.620,23.000 zM6.620,15.916 C6.620,15.916 5.206,15.916 5.206,15.916 C4.816,15.916 4.500,15.599 4.500,15.208 C4.500,14.817 4.816,14.500 5.206,14.500 C5.206,14.500 6.620,14.500 6.620,14.500 C7.010,14.500 7.326,14.817 7.326,15.208 C7.326,15.599 7.010,15.916 6.620,15.916 zM6.620,19.458 C6.620,19.458 5.206,19.458 5.206,19.458 C4.816,19.458 4.500,19.141 4.500,18.749 C4.500,18.359 4.816,18.042 5.206,18.042 C5.206,18.042 6.620,18.042 6.620,18.042 C7.010,18.042 7.326,18.359 7.326,18.749 C7.326,19.141 7.010,19.458 6.620,19.458 zM38.000,38.000 C38.000,38.000 30.500,38.000 30.500,38.000 C30.051,38.000 29.687,37.573 29.687,37.125 C29.687,36.675 30.051,36.500 30.500,36.500 C30.500,36.500 38.000,36.500 38.000,36.500 C39.344,36.500 40.500,35.344 40.500,34.000 C40.500,34.000 40.500,11.000 40.500,11.000 C40.500,11.000 38.750,10.999 38.750,10.999 C38.301,10.999 37.937,10.636 37.937,10.187 C37.937,9.738 38.051,9.500 38.500,9.500 C38.500,9.500 40.500,9.500 40.500,9.500 C40.500,9.500 40.500,7.499 40.500,7.499 C40.500,6.156 39.344,5.000 38.000,5.000 C38.000,5.000 37.000,5.000 37.000,5.000 C37.000,5.000 37.000,6.000 37.000,6.000 C37.000,7.344 35.844,8.500 34.500,8.500 C33.156,8.500 32.000,7.344 32.000,6.000 C32.000,6.000 32.000,5.000 32.000,5.000 L10.500,5.000 C10.500,5.000 10.500,6.000 10.500,6.000 C10.500,7.344 9.344,8.500 8.000,8.500 C6.656,8.500 5.500,7.344 5.500,6.000 C5.500,6.000 5.500,5.000 5.500,5.000 C5.500,5.000 4.500,5.000 4.500,5.000 C3.156,5.000 2.000,6.156 2.000,7.499 C2.000,7.499 2.000,9.500 2.000,9.500 C2.000,9.500 30.500,9.500 30.500,9.500 C30.949,9.500 31.437,9.738 31.437,10.187 C31.437,10.636 31.074,10.999 30.625,10.999 C30.625,10.999 2.000,11.000 2.000,11.000 C2.000,11.000 2.000,34.000 2.000,34.000 C2.000,35.344 3.156,36.500 4.500,36.500 C4.500,36.500 12.000,36.500 12.000,36.500 C12.449,36.500 12.812,36.675 12.812,37.125 C12.812,37.573 12.449,37.938 12.000,37.938 C12.000,37.938 4.562,37.938 4.562,37.938 C2.322,37.938 0.500,36.115 0.500,33.875 C0.500,33.875 0.500,7.625 0.500,7.625 C0.500,5.385 2.260,3.500 4.500,3.500 C4.500,3.500 5.500,3.500 5.500,3.500 C5.500,3.500 5.500,2.500 5.500,2.500 C5.500,1.156 6.656,-0.000 8.000,-0.000 C9.344,-0.000 10.500,1.156 10.500,2.500 C10.500,2.500 10.500,3.500 10.500,3.500 L32.000,3.500 C32.000,3.500 32.000,2.500 32.000,2.500 C32.000,1.156 33.156,-0.000 34.500,-0.000 C35.844,-0.000 37.000,1.156 37.000,2.500 C37.000,2.500 37.000,3.500 37.000,3.500 C37.000,3.500 38.000,3.500 38.000,3.500 C40.240,3.500 42.000,5.385 42.000,7.625 C42.000,7.625 42.000,33.875 42.000,33.875 C42.000,36.115 40.240,38.000 38.000,38.000 zM9.000,2.500 C9.000,2.052 8.448,1.500 8.000,1.500 C7.552,1.500 7.000,1.989 7.000,2.437 C7.000,2.437 7.000,6.000 7.000,6.000 C7.000,6.449 7.552,7.000 8.000,7.000 C8.448,7.000 9.000,6.449 9.000,6.000 C9.000,6.000 9.000,2.500 9.000,2.500 zM35.500,2.500 C35.500,2.052 34.948,1.500 34.500,1.500 C34.052,1.500 33.500,2.052 33.500,2.500 C33.500,2.500 33.500,6.000 33.500,6.000 C33.500,6.449 34.052,7.000 34.500,7.000 C34.948,7.000 35.500,6.449 35.500,6.000 C35.500,6.000 35.499,4.377 35.499,4.377 C35.499,4.376 35.499,4.375 35.499,4.374 C35.499,4.374 35.499,4.374 35.499,4.373 C35.499,4.373 35.500,2.500 35.500,2.500 zM10.652,21.790 C10.784,21.922 10.859,22.105 10.859,22.291 C10.859,22.478 10.784,22.661 10.652,22.792 C10.520,22.925 10.339,23.000 10.152,23.000 C9.967,23.000 9.784,22.925 9.652,22.792 C9.520,22.661 9.445,22.478 9.445,22.291 C9.445,22.104 9.520,21.922 9.652,21.790 C9.784,21.658 9.966,21.583 10.152,21.583 C10.339,21.583 10.520,21.658 10.652,21.790 zM11.565,15.916 C11.565,15.916 10.152,15.916 10.152,15.916 C9.762,15.916 9.445,15.599 9.445,15.208 C9.445,14.817 9.762,14.500 10.152,14.500 C10.152,14.500 11.565,14.500 11.565,14.500 C11.955,14.500 12.272,14.817 12.272,15.208 C12.272,15.599 11.955,15.916 11.565,15.916 zM11.565,19.458 C11.565,19.458 10.152,19.458 10.152,19.458 C9.762,19.458 9.445,19.141 9.445,18.749 C9.445,18.359 9.762,18.042 10.152,18.042 C10.152,18.042 11.565,18.042 11.565,18.042 C11.955,18.042 12.272,18.359 12.272,18.749 C12.272,19.141 11.955,19.458 11.565,19.458 zM15.598,15.916 C15.208,15.916 14.891,15.599 14.891,15.208 C14.891,14.817 15.208,14.500 15.598,14.500 C15.598,14.500 17.010,14.500 17.010,14.500 C17.401,14.500 17.717,14.817 17.717,15.208 C17.717,15.599 17.401,15.916 17.010,15.916 C17.010,15.916 15.598,15.916 15.598,15.916 zM20.543,15.916 C20.153,15.916 19.837,15.599 19.837,15.208 C19.837,14.817 20.153,14.500 20.543,14.500 C20.543,14.500 21.956,14.500 21.956,14.500 C22.347,14.500 22.663,14.817 22.663,15.208 C22.663,15.599 22.347,15.916 21.956,15.916 C21.956,15.916 20.543,15.916 20.543,15.916 zM25.489,15.916 C25.099,15.916 24.783,15.599 24.783,15.208 C24.783,14.817 25.099,14.500 25.489,14.500 C25.489,14.500 26.902,14.500 26.902,14.500 C27.292,14.500 27.608,14.817 27.608,15.208 C27.608,15.599 27.292,15.916 26.902,15.916 C26.902,15.916 25.489,15.916 25.489,15.916 zM32.847,22.792 C32.716,22.925 32.534,23.000 32.348,23.000 C32.161,23.000 31.980,22.925 31.848,22.792 C31.716,22.661 31.641,22.478 31.641,22.291 C31.641,22.104 31.716,21.922 31.848,21.790 C31.980,21.658 32.161,21.583 32.348,21.583 C32.533,21.583 32.716,21.658 32.847,21.790 C32.979,21.922 33.054,22.104 33.054,22.291 C33.054,22.478 32.979,22.661 32.847,22.792 zM32.348,15.916 C32.348,15.916 30.935,15.916 30.935,15.916 C30.544,15.916 30.228,15.599 30.228,15.208 C30.228,14.817 30.544,14.500 30.935,14.500 C30.935,14.500 32.348,14.500 32.348,14.500 C32.738,14.500 33.054,14.817 33.054,15.208 C33.054,15.599 32.738,15.916 32.348,15.916 zM32.348,19.458 C32.348,19.458 30.935,19.458 30.935,19.458 C30.544,19.458 30.228,19.141 30.228,18.749 C30.228,18.359 30.544,18.042 30.935,18.042 C30.935,18.042 32.348,18.042 32.348,18.042 C32.738,18.042 33.054,18.359 33.054,18.749 C33.054,19.141 32.738,19.458 32.348,19.458 zM21.250,17.750 C27.093,17.750 31.848,22.515 31.848,28.375 C31.848,34.233 27.093,39.000 21.250,39.000 C15.406,39.000 10.652,34.233 10.652,28.375 C10.652,22.515 15.406,17.750 21.250,17.750 zM20.543,37.556 C20.543,37.556 20.543,36.874 20.543,36.874 C20.543,36.484 20.860,36.166 21.250,36.166 C21.640,36.166 21.956,36.484 21.956,36.874 C21.956,36.874 21.956,37.556 21.956,37.556 C26.459,37.212 30.064,33.597 30.408,29.083 C30.408,29.083 29.728,29.083 29.728,29.083 C29.338,29.083 29.021,28.765 29.021,28.375 C29.021,27.984 29.338,27.666 29.728,27.666 C29.728,27.666 30.408,27.666 30.408,27.666 C30.064,23.153 26.459,19.539 21.956,19.193 C21.956,19.193 21.956,19.875 21.956,19.875 C21.956,20.266 21.640,20.583 21.250,20.583 C20.860,20.583 20.543,20.266 20.543,19.875 C20.543,19.875 20.543,19.193 20.543,19.193 C16.041,19.539 12.436,23.153 12.092,27.666 C12.092,27.666 12.772,27.666 12.772,27.666 C13.162,27.666 13.478,27.984 13.478,28.375 C13.478,28.765 13.162,29.083 12.772,29.083 C12.772,29.083 12.092,29.083 12.092,29.083 C12.436,33.597 16.041,37.212 20.543,37.556 zM22.000,23.500 L22.000,33.500 L20.500,33.500 L20.500,26.000 L18.500,27.500 L18.500,25.500 L20.500,23.500 L22.000,23.500 z" fill="#338BC3" /></svg>