<svg version="1.1" xmlns="http://www.w3.org/2000/svg" xmlns:xlink="http://www.w3.org/1999/xlink" width="41" height="36" viewBox="0 0 41 36"><path id="-icon_diagram_1" d="M40.194,2.137 C40.194,2.137 37.841,6.190 37.841,6.190 C38.554,6.913 38.996,7.904 38.996,8.998 C38.996,11.205 37.202,13.000 34.996,13.000 C34.323,13.000 33.699,12.817 33.142,12.523 C33.142,12.523 27.119,17.587 27.119,17.587 C27.006,17.437 26.872,17.305 26.739,17.173 C27.211,17.829 27.496,18.628 27.496,19.497 C27.496,21.704 25.702,23.499 23.496,23.499 C22.421,23.499 21.448,23.068 20.729,22.376 C20.729,22.376 13.677,24.434 13.677,24.434 C13.882,24.915 13.996,25.443 13.996,25.998 C13.996,28.205 12.202,30.000 9.996,30.000 C9.006,30.000 8.111,29.625 7.411,29.027 C7.411,29.027 1.795,34.709 1.795,34.709 C1.647,34.885 1.435,34.976 1.222,34.976 C1.052,34.976 0.881,34.918 0.741,34.800 C0.424,34.533 0.384,34.060 0.650,33.743 C0.650,33.743 6.463,27.836 6.463,27.836 C6.174,27.283 5.995,26.664 5.995,25.998 C5.995,23.792 7.790,21.996 9.996,21.996 C11.105,21.996 12.108,22.451 12.834,23.182 C12.834,23.182 19.834,21.098 19.834,21.098 C19.619,20.607 19.495,20.067 19.495,19.497 C19.495,17.290 21.290,15.495 23.496,15.495 C24.500,15.495 25.408,15.880 26.111,16.493 C26.111,16.493 31.959,11.573 31.959,11.573 C31.367,10.875 30.995,9.983 30.995,8.998 C30.995,6.791 32.790,4.996 34.996,4.996 C35.569,4.996 36.112,5.122 36.605,5.340 C36.605,5.340 38.808,1.570 38.808,1.570 C38.964,1.188 39.401,1.004 39.784,1.160 C40.167,1.316 40.350,1.754 40.194,2.137 zM9.996,23.216 C8.463,23.216 7.216,24.465 7.216,25.998 C7.216,27.531 8.463,28.778 9.996,28.778 C11.529,28.778 12.776,27.531 12.776,25.998 C12.776,24.465 11.529,23.216 9.996,23.216 zM23.496,16.716 C21.963,16.716 20.716,17.964 20.716,19.497 C20.716,21.031 21.963,22.279 23.496,22.279 C25.029,22.279 26.276,21.031 26.276,19.497 C26.276,17.964 25.029,16.716 23.496,16.716 zM34.996,6.216 C33.463,6.216 32.216,7.464 32.216,8.998 C32.216,10.531 33.463,11.779 34.996,11.779 C36.529,11.779 37.776,10.531 37.776,8.998 C37.776,7.464 36.529,6.216 34.996,6.216 zM35.080,10.500 C34.254,10.500 33.583,9.828 33.583,8.999 C33.583,8.171 34.254,7.499 35.080,7.499 C35.907,7.499 36.577,8.171 36.577,8.999 C36.577,9.828 35.907,10.500 35.080,10.500 zM23.580,21.000 C22.754,21.000 22.083,20.328 22.083,19.500 C22.083,18.671 22.754,18.000 23.580,18.000 C24.407,18.000 25.077,18.671 25.077,19.500 C25.077,20.328 24.407,21.000 23.580,21.000 zM10.080,27.501 C9.254,27.501 8.583,26.828 8.583,26.000 C8.583,25.171 9.254,24.500 10.080,24.500 C10.907,24.500 11.577,25.171 11.577,26.000 C11.577,26.828 10.907,27.501 10.080,27.501 zM1.000,27.497 C0.448,27.497 -0.000,27.017 -0.000,26.426 C-0.000,25.836 0.448,25.356 1.000,25.356 C1.552,25.356 2.000,25.836 2.000,26.426 C2.000,27.017 1.552,27.497 1.000,27.497 zM1.000,21.533 C0.448,21.533 -0.000,21.053 -0.000,20.462 C-0.000,19.872 0.448,19.393 1.000,19.393 C1.552,19.393 2.000,19.872 2.000,20.462 C2.000,21.053 1.552,21.533 1.000,21.533 zM1.000,15.569 C0.448,15.569 -0.000,15.090 -0.000,14.499 C-0.000,13.908 0.448,13.429 1.000,13.429 C1.552,13.429 2.000,13.908 2.000,14.499 C2.000,15.090 1.552,15.569 1.000,15.569 zM1.000,9.105 C0.448,9.105 -0.000,8.626 -0.000,8.035 C-0.000,7.445 0.448,6.965 1.000,6.965 C1.552,6.965 2.000,7.445 2.000,8.035 C2.000,8.626 1.552,9.105 1.000,9.105 zM1.000,2.642 C0.448,2.642 -0.000,2.163 -0.000,1.572 C-0.000,0.980 0.448,0.502 1.000,0.502 C1.552,0.502 2.000,0.980 2.000,1.572 C2.000,2.163 1.552,2.642 1.000,2.642 zM10.074,33.500 C10.665,33.500 11.144,33.948 11.144,34.499 C11.144,35.052 10.665,35.500 10.074,35.500 C9.483,35.500 9.004,35.052 9.004,34.499 C9.004,33.948 9.483,33.500 10.074,33.500 zM16.537,33.500 C17.128,33.500 17.607,33.948 17.607,34.499 C17.607,35.052 17.128,35.500 16.537,35.500 C15.946,35.500 15.467,35.052 15.467,34.499 C15.467,33.948 15.946,33.500 16.537,33.500 zM23.001,33.500 C23.592,33.500 24.071,33.948 24.071,34.499 C24.071,35.052 23.592,35.500 23.001,35.500 C22.410,35.500 21.931,35.052 21.931,34.499 C21.931,33.948 22.410,33.500 23.001,33.500 zM29.464,33.500 C30.055,33.500 30.534,33.948 30.534,34.499 C30.534,35.052 30.055,35.500 29.464,35.500 C28.873,35.500 28.394,35.052 28.394,34.499 C28.394,33.948 28.873,33.500 29.464,33.500 zM35.928,33.500 C36.519,33.500 36.998,33.948 36.998,34.499 C36.998,35.052 36.519,35.500 35.928,35.500 C35.337,35.500 34.858,35.052 34.858,34.499 C34.858,33.948 35.337,33.500 35.928,33.500 z" fill="#208BCE" /></svg>