<svg xmlns="http://www.w3.org/2000/svg" width="36" height="24" viewBox="0 0 36 24">
  <defs>
    <style>
      .cls-1 {
        fill: #208bce;
        fill-rule: evenodd;
      }
    </style>
  </defs>
  <path id="SVG:_Block2_icon2" data-name="SVG: Block2_icon2" class="cls-1" d="M637.437,2180.96v5.22a0.68,0.68,0,0,1-.757.71h0a0.711,0.711,0,0,1-.758-0.75v-3.37l-17.533,17.11a0.834,0.834,0,0,1-1.171,0l-4.559-4.47a0.853,0.853,0,0,0-1.171,0l-8.638,8.47a0.834,0.834,0,0,1-1.171,0h0a0.8,0.8,0,0,1,0-1.15l9.809-9.61a0.834,0.834,0,0,1,1.171,0l4.559,4.47a0.834,0.834,0,0,0,1.171,0l16.4-15.95h-3.411a0.709,0.709,0,0,1-.758-0.74h0a0.711,0.711,0,0,1,.758-0.75h5.235A0.817,0.817,0,0,1,637.437,2180.96ZM611.9,2198.18l-4.67,4.58a0.792,0.792,0,0,0,0,1.14h0a0.834,0.834,0,0,0,1.171,0l4.67-4.57a0.8,0.8,0,0,0,0-1.15h0A0.833,0.833,0,0,0,611.9,2198.18Zm21.527-9.46L619.1,2202.76a0.792,0.792,0,0,0,0,1.14h0a0.834,0.834,0,0,0,1.171,0l14.321-14.03a0.8,0.8,0,0,0,0-1.15h0A0.833,0.833,0,0,0,633.426,2188.72Zm-8.216,15.18h0a0.834,0.834,0,0,0,1.171,0l10.23-10.02a0.8,0.8,0,0,0,0-1.15h0a0.834,0.834,0,0,0-1.171,0l-10.23,10.03A0.792,0.792,0,0,0,625.21,2203.9Zm6.1,0h0a0.834,0.834,0,0,0,1.171,0l3.95-3.87a0.792,0.792,0,0,0,0-1.14h0a0.834,0.834,0,0,0-1.171,0l-3.95,3.87A0.792,0.792,0,0,0,631.314,2203.9Zm-18.049-.02h0a0.834,0.834,0,0,0,1.171,0l1.411-1.38a0.8,0.8,0,0,0,0-1.15h0a0.834,0.834,0,0,0-1.171,0l-1.411,1.38A0.8,0.8,0,0,0,613.265,2203.88Zm-0.585-.57" transform="translate(-601.438 -2180.16)"/>
</svg>
