<svg version="1.1" xmlns="http://www.w3.org/2000/svg" xmlns:xlink="http://www.w3.org/1999/xlink" width="45" height="61" viewBox="0 0 45 61"><path id="infoBusinessman" d="M15.584,22.147 C18.179,22.147 20.616,21.100 22.446,19.198 C24.025,17.557 25.866,14.524 25.674,9.391 C25.454,3.511 20.880,0.492 16.443,0.026 C16.172,-0.002 15.114,-0.010 14.903,0.009 C10.410,0.412 5.716,3.433 5.493,9.391 C5.302,14.524 7.143,17.557 8.721,19.198 C10.551,21.100 12.988,22.147 15.584,22.147 zM20.447,17.269 C19.145,18.622 17.418,19.367 15.584,19.367 C13.750,19.367 12.023,18.622 10.721,17.269 C9.406,15.902 8.602,14.018 8.346,11.746 C13.366,11.477 18.565,10.265 22.779,8.384 C22.843,8.737 22.885,9.107 22.900,9.496 C23.023,12.785 22.175,15.473 20.447,17.269 zM15.584,2.749 C17.944,2.845 20.343,3.833 21.724,5.812 C17.832,7.566 12.997,8.703 8.307,8.965 C8.730,4.859 12.197,2.886 15.584,2.749 zM32.691,36.351 C25.904,36.351 20.383,41.880 20.383,48.675 C20.383,55.471 25.904,61.000 32.691,61.000 C39.478,61.000 45.000,55.471 45.000,48.675 C45.000,41.880 39.478,36.351 32.691,36.351 zM32.691,58.219 C27.435,58.219 23.159,53.938 23.159,48.675 C23.159,43.412 27.435,39.131 32.691,39.131 C37.947,39.131 42.224,43.412 42.224,48.675 C42.224,53.938 37.947,58.219 32.691,58.219 zM34.079,48.608 C34.079,48.608 34.080,53.628 34.080,53.628 C34.080,54.396 33.458,55.018 32.692,55.018 C31.925,55.018 31.303,54.396 31.303,53.628 C31.303,53.628 31.303,48.608 31.303,48.608 C31.303,47.841 31.924,47.218 32.691,47.218 C33.458,47.218 34.079,47.840 34.079,48.608 zM34.080,43.723 C34.080,44.490 33.458,45.112 32.691,45.112 C31.925,45.112 31.303,44.490 31.303,43.722 C31.303,42.955 31.924,42.333 32.691,42.333 C32.691,42.333 32.691,42.333 32.691,42.333 C33.458,42.333 34.080,42.955 34.080,43.723 zM15.876,51.924 C15.876,52.692 15.255,53.314 14.488,53.314 C14.488,53.314 1.387,53.314 1.387,53.314 C0.975,53.314 0.584,53.143 0.320,52.826 C0.056,52.508 -0.053,52.103 0.022,51.697 C0.022,51.697 3.297,34.012 3.297,34.012 C4.445,27.806 10.301,25.027 15.596,25.027 C21.255,25.027 25.924,27.950 27.489,32.472 C27.741,33.198 27.357,33.988 26.632,34.240 C25.908,34.491 25.117,34.106 24.866,33.380 C23.442,29.265 18.982,27.801 15.596,27.801 C11.451,27.801 6.884,29.870 6.027,34.506 C6.027,34.506 3.056,50.533 3.056,50.533 C3.056,50.533 14.488,50.533 14.488,50.533 C15.255,50.533 15.876,51.157 15.876,51.924 z" fill="#208BCE" /></svg>