<svg version="1.1" xmlns="http://www.w3.org/2000/svg" xmlns:xlink="http://www.w3.org/1999/xlink" width="56" height="60" viewBox="0 0 56 60"><g id="moreMoney"><path id="-Block2_icon4" d="M46.829,58.000 C46.829,58.000 44.720,58.000 44.720,58.000 C42.972,58.000 41.549,56.576 41.549,54.824 C41.549,54.824 41.000,54.000 41.000,54.000 L8.000,54.000 C8.000,54.000 8.451,54.824 8.451,54.824 C8.451,56.576 7.028,58.000 5.280,58.000 C5.280,58.000 3.171,58.000 3.171,58.000 C1.422,58.000 -0.000,56.576 -0.000,54.824 C-0.000,54.824 -0.000,5.219 -0.000,5.219 C-0.000,2.341 2.369,-0.001 5.282,-0.001 C5.282,-0.001 44.718,-0.001 44.718,-0.001 C47.631,-0.001 50.000,2.341 50.000,5.219 C50.000,5.219 50.000,54.824 50.000,54.824 C50.000,56.576 48.578,58.000 46.829,58.000 zM43.662,54.824 C43.662,55.408 44.137,55.885 44.720,55.885 C44.720,55.885 46.829,55.885 46.829,55.885 C47.413,55.885 47.887,55.408 47.887,54.824 C47.887,54.824 47.887,53.768 47.887,53.768 L43.662,53.768 C43.662,53.768 43.662,54.824 43.662,54.824 zM2.113,54.824 C2.113,55.408 2.587,55.885 3.171,55.885 C3.171,55.885 5.280,55.885 5.280,55.885 C5.863,55.885 6.338,55.408 6.338,54.824 C6.338,54.824 6.338,53.768 6.338,53.768 L2.113,53.768 C2.113,53.768 2.113,54.824 2.113,54.824 zM48.000,5.000 C48.000,3.288 46.747,2.000 45.000,2.000 C45.000,2.000 5.000,2.000 5.000,2.000 C3.253,2.000 2.000,3.288 2.000,5.000 C2.000,5.000 2.000,52.000 2.000,52.000 L48.000,52.000 C48.000,52.000 48.000,5.000 48.000,5.000 zM25.055,18.585 C30.006,18.212 34.155,22.143 34.155,27.026 C34.155,31.693 30.364,35.493 25.704,35.493 C20.830,35.493 16.906,31.336 17.278,26.375 C17.588,22.237 20.924,18.896 25.055,18.585 zM25.704,33.376 C29.348,33.376 32.283,30.279 32.026,26.574 C31.809,23.447 29.281,20.912 26.159,20.692 C22.460,20.433 19.367,23.374 19.367,27.026 C19.367,30.528 22.210,33.376 25.704,33.376 zM25.704,22.792 C26.439,22.792 26.998,23.544 26.659,24.322 C26.495,24.697 26.105,24.907 25.696,24.909 C24.447,24.914 23.450,26.010 23.608,27.293 C23.724,28.242 24.490,29.010 25.437,29.127 C26.718,29.284 27.812,28.286 27.817,27.035 C27.819,26.625 28.029,26.234 28.404,26.069 C29.180,25.730 29.930,26.290 29.930,27.026 C29.930,29.521 27.767,31.517 25.221,31.233 C23.283,31.015 21.722,29.452 21.506,27.510 C21.222,24.960 23.215,22.792 25.704,22.792 zM6.000,10.000 C6.000,10.000 6.000,7.000 6.000,7.000 C6.000,6.416 6.416,6.000 7.000,6.000 C7.000,6.000 43.000,6.000 43.000,6.000 C43.584,6.000 44.000,6.416 44.000,7.000 C44.000,7.000 44.000,46.000 44.000,46.000 C44.000,46.585 43.584,48.000 43.000,48.000 C43.000,48.000 8.000,48.000 8.000,48.000 C7.416,48.000 6.000,46.585 6.000,46.000 C6.000,46.000 6.000,44.000 6.000,44.000 C4.771,43.565 4.000,42.381 4.000,41.000 C4.000,41.000 4.000,39.000 4.000,39.000 C4.000,37.620 4.771,36.436 6.000,36.000 C6.000,36.000 6.000,21.000 6.000,21.000 C6.000,20.371 6.357,19.922 7.000,20.000 C7.536,20.066 8.000,20.458 8.000,21.000 C8.000,21.000 8.000,36.000 8.000,36.000 C9.229,36.436 10.000,37.620 10.000,39.000 C10.000,39.000 10.000,41.000 10.000,41.000 C10.000,42.381 9.229,43.565 8.000,44.000 C8.000,44.000 8.000,46.000 8.000,46.000 L42.000,46.000 C42.000,46.000 41.549,37.502 41.549,37.502 C39.141,37.010 37.324,34.872 37.324,32.317 C37.324,32.317 37.324,21.736 37.324,21.736 C37.324,19.179 39.592,17.492 42.000,17.000 C42.000,17.000 42.000,8.000 42.000,8.000 L8.000,8.000 C8.000,8.000 8.000,10.000 8.000,10.000 C9.229,10.439 10.000,11.619 10.000,13.000 C10.000,13.000 10.000,15.000 10.000,15.000 C10.000,16.848 8.978,18.149 7.099,17.978 C5.456,17.827 4.000,16.653 4.000,15.000 C4.000,15.000 4.000,13.000 4.000,13.000 C4.000,11.619 4.771,10.439 6.000,10.000 zM8.000,39.000 C8.000,38.500 7.488,38.106 7.000,38.000 C6.315,37.851 6.000,38.340 6.000,39.000 C6.000,39.000 6.000,41.000 6.000,41.000 C6.000,41.663 6.315,42.149 7.000,42.000 C7.488,41.893 8.000,41.501 8.000,41.000 C8.000,41.000 8.000,39.000 8.000,39.000 zM41.549,18.741 C40.320,19.178 39.437,20.355 39.437,21.736 C39.437,21.736 39.437,32.317 39.437,32.317 C39.437,33.697 40.320,34.873 41.549,35.310 C41.549,35.310 41.549,18.741 41.549,18.741 zM6.000,15.000 C6.000,15.501 6.450,16.017 7.000,16.000 C7.701,15.977 8.000,15.661 8.000,15.000 C8.000,15.000 8.000,13.000 8.000,13.000 C7.972,12.379 7.472,12.042 6.933,11.983 C6.436,11.928 6.000,12.500 6.000,13.000 C6.000,13.000 6.000,15.000 6.000,15.000 z" fill="#208BCE" /><path id="Rounded-Rectangl" d="M32.000,16.000 C32.000,16.000 51.000,16.000 51.000,16.000 C53.761,16.000 56.000,18.239 56.000,21.000 C56.000,21.000 56.000,55.000 56.000,55.000 C56.000,57.761 53.761,60.000 51.000,60.000 C51.000,60.000 32.000,60.000 32.000,60.000 C29.239,60.000 27.000,57.761 27.000,55.000 C27.000,55.000 27.000,21.000 27.000,21.000 C27.000,18.239 29.239,16.000 32.000,16.000 z" fill="#FFFFFF" /><path id="Shape-72" d="M54.000,27.000 L29.000,27.000 C29.000,27.000 29.000,20.000 29.000,20.000 C29.000,18.920 29.933,18.000 31.000,18.000 C31.000,18.000 52.000,18.000 52.000,18.000 C53.067,18.000 54.000,18.920 54.000,20.000 C54.000,20.000 54.000,28.000 54.000,28.000 L54.000,27.000 zM54.067,56.089 C54.067,57.168 53.201,58.044 52.133,58.044 C52.133,58.044 30.867,58.044 30.867,58.044 C29.799,58.044 28.933,57.168 28.933,56.089 C28.933,56.089 29.000,29.000 29.000,29.000 L54.000,29.000 L54.067,56.089 C54.067,56.089 54.067,56.089 54.067,56.089 zM52.133,16.000 C52.133,16.000 30.867,16.000 30.867,16.000 C28.731,16.000 27.000,17.751 27.000,19.911 C27.000,19.911 27.000,56.089 27.000,56.089 C27.000,58.249 28.731,60.000 30.867,60.000 C30.867,60.000 52.133,60.000 52.133,60.000 C54.269,60.000 56.000,58.249 56.000,56.089 C56.000,56.089 56.000,19.911 56.000,19.911 C56.000,17.751 54.269,16.000 52.133,16.000 C52.133,16.000 52.133,16.000 52.133,16.000 z" fill="#208BCE" /><path id="Rounded-Rectangl" d="M50.500,57.000 C50.500,57.000 48.500,57.000 48.500,57.000 C47.672,57.000 47.000,56.328 47.000,55.500 C47.000,55.500 47.000,46.500 47.000,46.500 C47.000,45.672 47.672,45.000 48.500,45.000 C48.500,45.000 50.500,45.000 50.500,45.000 C51.328,45.000 52.000,45.672 52.000,46.500 C52.000,46.500 52.000,55.500 52.000,55.500 C52.000,56.328 51.328,57.000 50.500,57.000 zM50.500,43.000 C50.500,43.000 48.500,43.000 48.500,43.000 C47.672,43.000 47.000,42.328 47.000,41.500 C47.000,41.500 47.000,39.500 47.000,39.500 C47.000,38.672 47.672,38.000 48.500,38.000 C48.500,38.000 50.500,38.000 50.500,38.000 C51.328,38.000 52.000,38.672 52.000,39.500 C52.000,39.500 52.000,41.500 52.000,41.500 C52.000,42.328 51.328,43.000 50.500,43.000 zM50.500,36.000 C50.500,36.000 48.500,36.000 48.500,36.000 C47.672,36.000 47.000,35.328 47.000,34.500 C47.000,34.500 47.000,32.500 47.000,32.500 C47.000,31.672 47.672,31.000 48.500,31.000 C48.500,31.000 50.500,31.000 50.500,31.000 C51.328,31.000 52.000,31.672 52.000,32.500 C52.000,32.500 52.000,34.500 52.000,34.500 C52.000,35.328 51.328,36.000 50.500,36.000 zM42.500,57.000 C42.500,57.000 40.500,57.000 40.500,57.000 C39.672,57.000 39.000,56.328 39.000,55.500 C39.000,55.500 39.000,53.500 39.000,53.500 C39.000,52.672 39.672,52.000 40.500,52.000 C40.500,52.000 42.500,52.000 42.500,52.000 C43.328,52.000 44.000,52.672 44.000,53.500 C44.000,53.500 44.000,55.500 44.000,55.500 C44.000,56.328 43.328,57.000 42.500,57.000 zM42.500,50.000 C42.500,50.000 40.500,50.000 40.500,50.000 C39.672,50.000 39.000,49.328 39.000,48.500 C39.000,48.500 39.000,46.500 39.000,46.500 C39.000,45.672 39.672,45.000 40.500,45.000 C40.500,45.000 42.500,45.000 42.500,45.000 C43.328,45.000 44.000,45.672 44.000,46.500 C44.000,46.500 44.000,48.500 44.000,48.500 C44.000,49.328 43.328,50.000 42.500,50.000 zM42.500,43.000 C42.500,43.000 40.500,43.000 40.500,43.000 C39.672,43.000 39.000,42.328 39.000,41.500 C39.000,41.500 39.000,39.500 39.000,39.500 C39.000,38.672 39.672,38.000 40.500,38.000 C40.500,38.000 42.500,38.000 42.500,38.000 C43.328,38.000 44.000,38.672 44.000,39.500 C44.000,39.500 44.000,41.500 44.000,41.500 C44.000,42.328 43.328,43.000 42.500,43.000 zM42.500,36.000 C42.500,36.000 40.500,36.000 40.500,36.000 C39.672,36.000 39.000,35.328 39.000,34.500 C39.000,34.500 39.000,32.500 39.000,32.500 C39.000,31.672 39.672,31.000 40.500,31.000 C40.500,31.000 42.500,31.000 42.500,31.000 C43.328,31.000 44.000,31.672 44.000,32.500 C44.000,32.500 44.000,34.500 44.000,34.500 C44.000,35.328 43.328,36.000 42.500,36.000 zM34.500,57.000 C34.500,57.000 32.500,57.000 32.500,57.000 C31.672,57.000 31.000,56.328 31.000,55.500 C31.000,55.500 31.000,53.500 31.000,53.500 C31.000,52.672 31.672,52.000 32.500,52.000 C32.500,52.000 34.500,52.000 34.500,52.000 C35.328,52.000 36.000,52.672 36.000,53.500 C36.000,53.500 36.000,55.500 36.000,55.500 C36.000,56.328 35.328,57.000 34.500,57.000 zM34.500,50.000 C34.500,50.000 32.500,50.000 32.500,50.000 C31.672,50.000 31.000,49.328 31.000,48.500 C31.000,48.500 31.000,46.500 31.000,46.500 C31.000,45.672 31.672,45.000 32.500,45.000 C32.500,45.000 34.500,45.000 34.500,45.000 C35.328,45.000 36.000,45.672 36.000,46.500 C36.000,46.500 36.000,48.500 36.000,48.500 C36.000,49.328 35.328,50.000 34.500,50.000 zM34.500,43.000 C34.500,43.000 32.500,43.000 32.500,43.000 C31.672,43.000 31.000,42.328 31.000,41.500 C31.000,41.500 31.000,39.500 31.000,39.500 C31.000,38.672 31.672,38.000 32.500,38.000 C32.500,38.000 34.500,38.000 34.500,38.000 C35.328,38.000 36.000,38.672 36.000,39.500 C36.000,39.500 36.000,41.500 36.000,41.500 C36.000,42.328 35.328,43.000 34.500,43.000 zM34.500,36.000 C34.500,36.000 32.500,36.000 32.500,36.000 C31.672,36.000 31.000,35.328 31.000,34.500 C31.000,34.500 31.000,32.500 31.000,32.500 C31.000,31.672 31.672,31.000 32.500,31.000 C32.500,31.000 34.500,31.000 34.500,31.000 C35.328,31.000 36.000,31.672 36.000,32.500 C36.000,32.500 36.000,34.500 36.000,34.500 C36.000,35.328 35.328,36.000 34.500,36.000 z" fill="#208BCE" /><g id="Rounded-Rectangl" ><path id="Rounded-Rectangl-stroke" d="M32.326,19.950 C32.326,19.950 50.674,19.950 50.674,19.950 C51.434,19.950 52.050,20.439 52.050,21.043 C52.050,21.043 52.050,23.957 52.050,23.957 C52.050,24.561 51.434,25.050 50.674,25.050 C50.674,25.050 32.326,25.050 32.326,25.050 C31.566,25.050 30.950,24.561 30.950,23.957 C30.950,23.957 30.950,21.043 30.950,21.043 C30.950,20.439 31.566,19.950 32.326,19.950 z" fill="none" stroke="#208BCE" stroke-width="2" /></g></g></svg>