<svg version="1.1" xmlns="http://www.w3.org/2000/svg" xmlns:xlink="http://www.w3.org/1999/xlink" width="44" height="62" viewBox="0 0 44 62"><path id="freeAccess" d="M17.702,33.628 C17.056,33.199 16.885,32.338 17.319,31.701 C17.319,31.701 19.608,28.349 19.608,28.349 C18.122,27.888 16.525,27.721 15.016,27.813 C14.068,27.871 13.057,28.047 12.066,28.358 C12.066,28.358 14.348,31.701 14.348,31.701 C14.782,32.337 14.611,33.198 13.965,33.626 C13.319,34.053 12.444,33.884 12.010,33.247 C12.010,33.247 9.489,29.552 9.489,29.552 C7.847,30.621 6.541,32.219 6.116,34.480 C6.116,34.480 3.104,50.483 3.104,50.483 C3.104,50.483 12.929,50.483 12.929,50.483 C13.707,50.483 14.337,51.105 14.337,51.870 C14.337,52.636 13.707,53.258 12.929,53.258 C12.929,53.258 1.410,53.258 1.410,53.258 C0.991,53.258 0.595,53.085 0.327,52.768 C0.059,52.452 -0.052,52.045 0.025,51.639 C0.025,51.639 3.345,33.985 3.345,33.985 C4.298,28.923 8.810,25.412 14.841,25.044 C17.642,24.873 20.445,25.444 22.733,26.653 C25.329,28.025 27.141,30.119 27.976,32.709 C28.211,33.439 27.800,34.219 27.059,34.451 C26.317,34.682 25.525,34.279 25.290,33.548 C24.725,31.793 23.599,30.476 22.186,29.547 C22.186,29.547 19.658,33.250 19.658,33.250 C19.223,33.886 18.348,34.055 17.702,33.628 zM44.000,38.784 C44.000,38.784 44.000,44.126 44.000,44.126 C44.000,44.139 44.000,44.154 44.000,44.168 C44.000,44.168 44.000,55.881 44.000,55.881 C44.000,56.576 43.498,57.165 42.799,57.257 C42.799,57.257 31.314,58.778 31.305,58.779 C31.304,58.780 28.852,58.499 28.852,58.499 C28.852,58.499 28.852,60.612 28.852,60.612 C28.852,61.378 28.221,61.999 27.442,62.000 C26.664,62.000 26.032,61.378 26.032,60.612 C26.032,60.612 26.028,58.126 26.028,58.126 C26.028,58.126 19.450,57.257 19.450,57.257 C18.750,57.165 18.217,56.576 18.217,55.881 C18.217,55.881 18.217,38.784 18.217,38.784 C18.217,38.384 18.403,38.003 18.709,37.740 C19.014,37.476 19.431,37.356 19.834,37.409 C19.834,37.409 31.135,38.904 31.135,38.904 C31.135,38.904 42.434,37.409 42.434,37.409 C42.836,37.356 43.233,37.476 43.539,37.740 C43.845,38.003 44.000,38.384 44.000,38.784 zM29.770,41.518 L21.035,40.371 L21.035,54.668 C21.035,54.668 27.606,55.534 27.606,55.534 C27.623,55.536 27.660,55.538 27.676,55.540 C27.676,55.540 29.770,55.815 29.770,55.815 L29.770,41.518 L29.770,41.518 zM41.182,40.371 L32.588,41.518 L32.588,55.815 L41.182,54.668 L41.182,45.731 C41.182,45.731 36.949,46.293 36.949,46.293 C36.178,46.395 35.484,45.863 35.380,45.103 C35.276,44.343 35.807,43.645 36.579,43.543 C36.579,43.543 41.182,42.932 41.182,42.932 L41.182,40.371 zM5.592,9.406 C5.829,3.178 11.042,0.165 15.784,0.001 C15.817,-0.001 15.850,-0.001 15.883,0.001 C16.417,0.019 16.957,0.073 17.495,0.165 C17.564,0.172 17.631,0.184 17.696,0.201 C21.866,0.979 25.869,3.966 26.075,9.406 C26.271,14.554 24.323,18.711 20.730,20.813 C19.220,21.697 17.527,22.139 15.834,22.139 C14.141,22.139 12.448,21.697 10.938,20.814 C7.345,18.712 5.397,14.554 5.592,9.406 zM16.709,8.011 C18.481,9.695 20.942,10.327 23.265,9.685 C23.264,9.627 23.262,9.568 23.259,9.510 C23.133,6.194 21.071,4.165 18.549,3.283 C18.232,5.061 17.607,6.660 16.709,8.011 zM8.403,9.678 C9.933,9.707 11.449,9.219 12.688,8.278 C13.037,8.012 13.408,7.679 13.770,7.263 C13.801,7.223 13.834,7.184 13.870,7.146 C14.685,6.171 15.440,4.770 15.781,2.778 C12.216,2.939 8.577,5.072 8.408,9.510 C8.406,9.566 8.404,9.622 8.403,9.678 zM8.593,12.454 C9.066,15.152 10.378,17.259 12.377,18.427 C14.509,19.675 17.159,19.675 19.291,18.427 C21.259,17.276 22.562,15.215 23.052,12.576 C20.104,13.078 17.099,12.184 14.860,10.110 C14.713,10.236 14.563,10.358 14.410,10.475 C12.726,11.755 10.677,12.440 8.593,12.454 z" fill="#238CCF" /></svg>