<svg version="1.1" xmlns="http://www.w3.org/2000/svg" xmlns:xlink="http://www.w3.org/1999/xlink" width="36" height="36" viewBox="0 0 36 36"><g id="-Block4.1_next"><g id="circle" ><path id="circle-fill" d="M17.885,0.469 C27.430,0.469 35.167,8.206 35.167,17.750 C35.167,27.294 27.430,35.031 17.885,35.031 C8.341,35.031 0.604,27.294 0.604,17.750 C0.604,8.206 8.341,0.469 17.885,0.469 z" fill="#FFFFFF" /><path id="circle-stroke" d="M17.885,0.573 C27.372,0.573 35.062,8.263 35.062,17.750 C35.062,27.237 27.372,34.927 17.885,34.927 C8.399,34.927 0.708,27.237 0.708,17.750 C0.708,8.263 8.399,0.573 17.885,0.573 z" fill="none" stroke="#ECECEC" stroke-opacity="1.000" stroke-width="0.66666666666667" /></g><path id="" d="M21.726,18.025 L21.660,18.115 L21.676,18.138 L21.619,18.170 L16.516,25.116 L15.967,24.809 L20.893,18.106 L16.017,11.337 L16.556,11.032 L21.507,17.903 L21.726,18.025 z" fill="#C8C8C8" /></g></svg>