<svg version="1.1" xmlns="http://www.w3.org/2000/svg" xmlns:xlink="http://www.w3.org/1999/xlink" width="53" height="72" viewBox="0 0 53 72"><g id="noMistakes"><path id="-Block7_icon6-co" d="M8.954,26.397 C8.954,25.749 9.458,24.951 10.104,24.951 C10.104,24.951 37.243,24.951 37.243,24.951 C37.888,24.951 38.486,25.749 38.486,26.397 C38.486,27.047 38.633,27.202 37.988,27.202 C37.988,27.202 10.849,27.202 10.849,27.202 C10.203,27.202 8.954,27.050 8.954,26.397 zM10.104,37.712 C10.104,37.712 37.243,37.712 37.243,37.712 C37.888,37.712 38.486,37.246 38.486,36.598 C38.486,35.950 37.888,35.459 37.243,35.459 C37.243,35.459 10.104,35.459 10.104,35.459 C9.458,35.459 8.954,35.948 8.954,36.598 C8.954,37.248 9.458,37.712 10.104,37.712 zM23.085,45.219 C23.085,45.219 10.104,45.219 10.104,45.219 C9.458,45.219 8.957,46.145 8.957,46.794 C8.957,47.446 9.458,47.470 10.104,47.470 C10.104,47.470 23.085,47.470 23.085,47.470 C23.732,47.470 24.069,47.446 24.069,46.794 C24.069,46.145 23.732,45.219 23.085,45.219 zM19.904,55.818 C19.904,55.818 20.128,55.818 20.128,55.818 C19.481,55.818 18.957,56.347 18.957,56.996 C18.957,57.644 19.481,58.174 20.128,58.174 C20.128,58.174 19.904,58.174 19.904,58.174 C20.551,58.174 21.075,57.644 21.075,56.996 C21.075,56.347 20.551,55.818 19.904,55.818 zM52.994,57.189 C52.994,65.354 46.384,71.996 38.255,71.996 C34.455,71.996 31.000,70.535 28.383,68.153 C28.380,68.153 29.796,68.489 29.791,68.489 C29.791,68.489 5.946,68.489 5.946,68.489 C2.318,68.489 -0.016,66.230 -0.016,62.484 C-0.016,62.484 -0.016,15.942 -0.016,15.942 C-0.016,12.946 2.178,10.689 5.201,10.689 C5.201,10.689 11.162,10.689 11.162,10.689 C11.162,10.689 11.162,7.686 11.162,7.686 C11.162,7.038 12.006,6.184 12.652,6.184 C12.652,6.184 17.123,6.184 17.123,6.184 C17.123,6.168 17.093,6.301 17.093,6.282 C17.093,2.815 19.904,-0.008 23.357,-0.008 C26.811,-0.008 29.623,2.815 29.623,6.282 C29.623,6.301 29.791,6.168 29.791,6.184 C29.791,6.184 34.262,6.184 34.262,6.184 C34.910,6.184 35.007,7.038 35.007,7.686 C35.007,7.686 35.007,10.689 35.007,10.689 C35.007,10.689 41.714,10.689 41.714,10.689 C45.668,10.689 46.930,13.744 46.930,15.942 C46.930,15.942 46.930,45.219 46.930,45.219 C50.755,47.897 52.994,52.159 52.994,57.189 zM13.397,14.441 L32.772,14.441 L32.772,8.437 C32.772,8.437 28.301,8.437 28.301,8.437 C27.942,8.437 27.577,8.530 27.354,8.245 C27.131,7.956 27.055,7.585 27.144,7.231 C27.235,6.873 27.277,6.574 27.277,6.284 C27.277,4.116 25.517,2.348 23.355,2.348 C21.193,2.348 19.433,4.116 19.433,6.284 C19.433,6.574 19.476,6.883 19.564,7.237 C19.651,7.589 19.572,7.961 19.351,8.246 C19.131,8.530 18.975,8.437 18.614,8.437 C18.614,8.437 13.397,8.437 13.397,8.437 L13.397,14.441 zM5.946,66.237 C5.946,66.237 26.811,66.237 26.811,66.237 C25.073,63.809 23.514,60.400 23.514,57.189 C23.514,49.024 30.126,42.377 38.253,42.377 C40.410,42.377 42.844,42.878 44.695,43.718 C44.695,43.718 44.695,23.651 44.695,15.942 C44.695,14.441 43.716,12.940 41.714,12.940 C39.107,12.940 35.007,12.940 35.007,12.940 C35.007,12.940 34.842,15.635 34.842,15.635 C34.842,16.283 34.164,16.693 33.517,16.693 C33.517,16.693 12.652,16.693 12.652,16.693 C12.006,16.693 11.118,16.283 11.118,15.635 C11.118,15.635 11.162,12.940 11.162,12.940 C11.162,12.940 7.801,12.940 5.154,12.940 C3.633,12.940 2.228,14.551 2.227,15.896 C2.222,25.829 2.191,62.084 2.220,62.484 C2.220,66.080 5.946,66.237 5.946,66.237 zM50.651,57.189 C50.651,50.322 45.089,44.731 38.255,44.731 C31.421,44.731 25.859,50.322 25.859,57.189 C25.859,64.056 31.421,69.643 38.255,69.643 C45.089,69.643 50.651,64.056 50.651,57.189 z" fill="#338BC3" /><path id="Rounded-Rectangl" d="M39.968,57.488 C39.968,57.488 43.680,61.201 43.680,61.201 C44.089,61.609 44.089,62.272 43.680,62.680 C43.272,63.088 42.610,63.088 42.201,62.680 C42.201,62.680 38.489,58.968 38.489,58.968 C38.489,58.968 34.777,62.680 34.777,62.680 C34.369,63.088 33.706,63.088 33.298,62.680 C32.889,62.272 32.889,61.609 33.298,61.201 C33.298,61.201 37.010,57.488 37.010,57.488 C37.010,57.488 33.298,53.776 33.298,53.776 C32.889,53.367 32.889,52.706 33.298,52.297 C33.706,51.889 34.369,51.889 34.777,52.297 C34.777,52.297 38.489,56.009 38.489,56.009 C38.489,56.009 42.201,52.297 42.201,52.297 C42.610,51.889 43.272,51.889 43.680,52.297 C44.089,52.706 44.089,53.367 43.680,53.776 C43.680,53.776 39.968,57.488 39.968,57.488 z" fill="#338BC3" /></g></svg>