<svg version="1.1" xmlns="http://www.w3.org/2000/svg" xmlns:xlink="http://www.w3.org/1999/xlink" width="28" height="28" viewBox="0 0 28 28"><path id="-Block7_icon8" d="M27.375,27.375 C26.972,27.778 26.435,28.001 25.864,28.001 C25.294,28.001 24.757,27.778 24.354,27.375 C24.354,27.375 18.507,21.529 18.507,21.529 C18.104,21.125 17.881,20.589 17.881,20.018 C17.881,19.581 18.012,19.164 18.254,18.812 C18.254,18.812 16.890,17.447 16.890,17.447 C15.094,19.109 12.695,20.125 10.062,20.125 C4.513,20.125 -0.001,15.611 -0.001,10.062 C-0.001,4.514 4.513,-0.001 10.062,-0.001 C15.611,-0.001 20.126,4.514 20.126,10.062 C20.126,12.664 19.133,15.039 17.506,16.827 C17.506,16.827 18.885,18.206 18.885,18.206 C19.222,17.994 19.611,17.881 20.018,17.881 C20.589,17.881 21.125,18.104 21.529,18.507 C21.529,18.507 27.375,24.353 27.375,24.353 C27.779,24.757 28.001,25.293 28.001,25.864 C28.001,26.435 27.779,26.971 27.375,27.375 zM19.250,10.062 C19.250,4.996 15.129,0.874 10.062,0.874 C4.996,0.874 0.874,4.996 0.874,10.062 C0.874,15.129 4.996,19.250 10.062,19.250 C15.129,19.250 19.250,15.129 19.250,10.062 zM26.757,24.972 C26.757,24.972 20.910,19.126 20.910,19.126 C20.672,18.887 20.355,18.756 20.018,18.756 C19.681,18.756 19.364,18.887 19.126,19.126 C18.888,19.364 18.756,19.681 18.756,20.018 C18.756,20.355 18.887,20.672 19.126,20.910 C19.126,20.910 24.972,26.756 24.972,26.756 C25.211,26.995 25.527,27.126 25.864,27.126 C26.201,27.126 26.518,26.995 26.757,26.756 C26.995,26.518 27.126,26.202 27.126,25.864 C27.126,25.527 26.995,25.211 26.757,24.972 zM15.312,14.875 C14.589,14.875 14.000,14.287 14.000,13.562 C14.000,13.360 14.046,13.168 14.128,12.997 C14.128,12.997 14.128,12.997 14.128,12.997 L12.816,11.684 C12.816,11.684 12.816,11.684 12.815,11.684 C12.644,11.767 12.452,11.812 12.250,11.812 C12.099,11.812 11.954,11.786 11.819,11.739 C11.819,11.739 9.864,14.182 9.864,14.182 C9.989,14.383 10.062,14.621 10.062,14.875 C10.062,15.599 9.474,16.188 8.750,16.188 C8.026,16.188 7.437,15.599 7.437,14.875 C7.437,14.531 7.570,14.219 7.787,13.984 C7.787,13.984 4.564,7.861 4.564,7.861 C4.502,7.869 4.439,7.874 4.374,7.874 C3.651,7.874 3.062,7.285 3.062,6.562 C3.062,5.839 3.651,5.250 4.374,5.250 C5.098,5.250 5.687,5.839 5.687,6.562 C5.687,6.905 5.554,7.218 5.338,7.453 C5.338,7.453 8.561,13.576 8.561,13.576 C8.623,13.567 8.686,13.562 8.750,13.562 C8.901,13.562 9.046,13.588 9.181,13.635 C9.181,13.635 11.136,11.192 11.136,11.192 C11.010,10.992 10.937,10.754 10.937,10.500 C10.937,9.776 11.526,9.187 12.250,9.187 C12.974,9.187 13.563,9.776 13.563,10.500 C13.563,10.702 13.516,10.894 13.434,11.065 C13.434,11.065 14.747,12.378 14.747,12.378 C14.747,12.378 14.747,12.378 14.747,12.378 C14.918,12.296 15.110,12.250 15.312,12.250 C16.036,12.250 16.625,12.838 16.625,13.562 C16.625,14.287 16.036,14.875 15.312,14.875 zM4.374,6.125 C4.133,6.125 3.937,6.321 3.937,6.562 C3.937,6.803 4.133,6.999 4.374,6.999 C4.616,6.999 4.812,6.803 4.812,6.562 C4.812,6.321 4.616,6.125 4.374,6.125 zM8.750,14.438 C8.508,14.438 8.312,14.634 8.312,14.875 C8.312,15.116 8.508,15.313 8.750,15.313 C8.991,15.313 9.187,15.116 9.187,14.875 C9.187,14.634 8.991,14.438 8.750,14.438 zM12.250,10.062 C12.009,10.062 11.812,10.258 11.812,10.500 C11.812,10.741 12.009,10.937 12.250,10.937 C12.491,10.937 12.687,10.741 12.687,10.500 C12.687,10.258 12.491,10.062 12.250,10.062 zM15.312,13.125 C15.071,13.125 14.875,13.321 14.875,13.562 C14.875,13.804 15.071,14.000 15.312,14.000 C15.554,14.000 15.750,13.804 15.750,13.562 C15.750,13.321 15.554,13.125 15.312,13.125 z" fill="#338BC3" /></svg>