<svg version="1.1" xmlns="http://www.w3.org/2000/svg" xmlns:xlink="http://www.w3.org/1999/xlink" width="45" height="43" viewBox="0 0 45 43"><g id="-Block5_icon7"><g id="Rounded-Rectangl" ><!-- <path id="Rounded-Rectangl-fill" d="M4.852,0.219 C4.852,0.219 40.398,0.219 40.398,0.219 C43.049,0.219 45.198,2.368 45.198,5.018 C45.198,5.018 45.198,37.909 45.198,37.909 C45.198,40.559 43.049,42.708 40.398,42.708 C40.398,42.708 4.852,42.708 4.852,42.708 C2.201,42.708 0.052,40.559 0.052,37.909 C0.052,37.909 0.052,5.018 0.052,5.018 C0.052,2.368 2.201,0.219 4.852,0.219 z" fill="#FFFFFF" /> -->
<!-- <path id="Rounded-Rectangl-stroke" d="M4.976,0.375 C4.976,0.375 40.274,0.375 40.274,0.375 C42.906,0.375 45.040,2.508 45.040,5.140 C45.040,5.140 45.040,37.788 45.040,37.788 C45.040,40.419 42.906,42.552 40.274,42.552 C40.274,42.552 4.976,42.552 4.976,42.552 C2.344,42.552 0.210,40.419 0.210,37.788 C0.210,37.788 0.210,5.140 0.210,5.140 C0.210,2.508 2.344,0.375 4.976,0.375 z" fill="none" stroke="#C2E0F3" stroke-width="1" /> -->
</g><path id="Shape-34" d="M38.333,22.000 C38.333,23.712 36.601,25.274 33.455,26.398 C33.365,26.431 33.273,26.462 33.181,26.494 C33.224,26.581 33.266,26.667 33.307,26.755 C34.737,29.774 34.858,32.103 33.647,33.314 C33.095,33.866 32.309,34.142 31.331,34.142 C30.166,34.142 28.729,33.751 27.088,32.974 C27.001,32.933 26.914,32.891 26.827,32.847 C26.795,32.940 26.763,33.032 26.731,33.122 C25.608,36.268 24.046,37.999 22.333,37.999 C20.621,37.999 19.059,36.268 17.936,33.121 C17.903,33.032 17.872,32.940 17.840,32.847 C17.753,32.891 17.666,32.933 17.579,32.974 C15.938,33.751 14.501,34.142 13.336,34.142 C12.358,34.142 11.572,33.866 11.019,33.314 C9.809,32.103 9.929,29.774 11.359,26.755 C11.400,26.667 11.443,26.580 11.486,26.494 C11.393,26.462 11.302,26.430 11.212,26.398 C8.066,25.274 6.333,23.712 6.333,22.000 C6.333,20.287 8.066,18.726 11.212,17.602 C11.302,17.570 11.393,17.538 11.486,17.506 C11.443,17.420 11.400,17.332 11.359,17.246 C9.929,14.227 9.809,11.897 11.019,10.686 C12.231,9.476 14.560,9.596 17.579,11.026 C17.666,11.067 17.753,11.109 17.840,11.152 C17.872,11.060 17.903,10.969 17.936,10.878 C19.059,7.732 20.621,6.000 22.333,6.000 C24.046,6.000 25.608,7.732 26.731,10.878 C26.763,10.969 26.795,11.060 26.827,11.152 C26.914,11.109 27.001,11.067 27.088,11.026 C30.107,9.596 32.436,9.476 33.647,10.686 C34.858,11.897 34.737,14.227 33.307,17.246 C33.266,17.332 33.224,17.420 33.181,17.506 C33.273,17.538 33.365,17.570 33.455,17.602 C36.601,18.726 38.333,20.287 38.333,22.000 zM27.531,32.037 C30.087,33.248 32.049,33.446 32.914,32.581 C33.779,31.715 33.581,29.754 32.371,27.198 C32.309,27.069 32.245,26.938 32.179,26.807 C30.908,27.174 29.502,27.464 28.005,27.671 C27.797,29.168 27.507,30.574 27.141,31.846 C27.272,31.911 27.402,31.976 27.531,32.037 zM28.373,22.821 C28.603,22.548 28.826,22.274 29.043,22.000 C28.826,21.726 28.603,21.452 28.373,21.179 C28.378,21.452 28.381,21.725 28.381,22.000 C28.381,22.275 28.378,22.549 28.373,22.821 zM29.693,21.154 C30.455,20.130 31.124,19.113 31.680,18.129 C30.590,17.826 29.399,17.580 28.136,17.395 C28.212,18.089 28.271,18.800 28.311,19.524 C28.794,20.064 29.256,20.609 29.693,21.154 zM28.311,24.476 C28.271,25.200 28.212,25.911 28.136,26.606 C29.399,26.421 30.590,26.175 31.680,25.872 C31.124,24.887 30.456,23.871 29.693,22.847 C29.256,23.392 28.794,23.936 28.311,24.476 zM22.333,16.989 C21.640,16.989 20.954,17.006 20.278,17.038 C19.778,17.493 19.281,17.966 18.790,18.457 C18.300,18.947 17.826,19.444 17.372,19.945 C17.339,20.620 17.322,21.306 17.322,22.000 C17.322,22.694 17.339,23.380 17.372,24.056 C17.826,24.556 18.300,25.053 18.790,25.544 C19.281,26.034 19.778,26.507 20.278,26.962 C20.954,26.995 21.640,27.011 22.333,27.011 C23.027,27.011 23.713,26.995 24.389,26.962 C24.889,26.507 25.386,26.034 25.876,25.544 C26.367,25.053 26.840,24.556 27.295,24.056 C27.328,23.380 27.344,22.694 27.344,22.000 C27.344,21.306 27.328,20.620 27.296,19.945 C26.841,19.444 26.367,18.947 25.877,18.457 C25.386,17.966 24.889,17.493 24.389,17.038 C23.713,17.006 23.027,16.989 22.333,16.989 zM23.155,15.960 C22.881,15.730 22.607,15.508 22.333,15.291 C22.059,15.508 21.785,15.730 21.512,15.960 C21.785,15.955 22.058,15.953 22.333,15.953 C22.608,15.953 22.882,15.955 23.155,15.960 zM21.512,28.040 C21.785,28.269 22.059,28.493 22.333,28.710 C22.607,28.493 22.881,28.269 23.155,28.040 C22.882,28.045 22.608,28.048 22.333,28.048 C22.058,28.048 21.785,28.045 21.512,28.040 zM27.185,25.690 C26.996,25.886 26.804,26.081 26.610,26.276 C26.415,26.470 26.220,26.662 26.023,26.852 C26.379,26.821 26.731,26.784 27.078,26.744 C27.118,26.397 27.154,26.046 27.185,25.690 zM26.939,27.803 C26.244,27.879 25.533,27.937 24.809,27.978 C24.269,28.461 23.725,28.922 23.180,29.360 C24.204,30.122 25.220,30.790 26.205,31.347 C26.508,30.257 26.754,29.066 26.939,27.803 zM18.912,32.773 C19.863,35.436 21.110,36.963 22.333,36.963 C23.557,36.963 24.804,35.436 25.755,32.773 C25.803,32.638 25.850,32.500 25.896,32.361 C24.738,31.721 23.538,30.932 22.333,30.020 C21.128,30.932 19.929,31.721 18.771,32.361 C18.817,32.500 18.864,32.638 18.912,32.773 zM18.462,31.347 C19.447,30.790 20.463,30.122 21.487,29.360 C20.942,28.922 20.398,28.461 19.857,27.978 C19.134,27.937 18.422,27.879 17.728,27.803 C17.913,29.066 18.159,30.257 18.462,31.347 zM17.589,26.744 C17.936,26.784 18.288,26.821 18.644,26.852 C18.447,26.662 18.252,26.470 18.057,26.277 C17.863,26.081 17.671,25.886 17.482,25.690 C17.513,26.046 17.549,26.397 17.589,26.744 zM11.753,32.581 C12.618,33.446 14.579,33.248 17.135,32.038 C17.265,31.976 17.395,31.911 17.526,31.846 C17.160,30.574 16.870,29.168 16.662,27.671 C15.165,27.464 13.759,27.174 12.488,26.807 C12.422,26.938 12.358,27.069 12.296,27.198 C11.086,29.754 10.888,31.716 11.753,32.581 zM16.294,21.179 C16.064,21.452 15.841,21.726 15.624,22.000 C15.841,22.274 16.064,22.548 16.294,22.821 C16.288,22.549 16.286,22.275 16.286,22.000 C16.286,21.725 16.288,21.452 16.294,21.179 zM16.355,19.524 C16.396,18.800 16.455,18.089 16.531,17.395 C15.268,17.580 14.077,17.826 12.987,18.129 C13.543,19.113 14.211,20.130 14.973,21.154 C15.411,20.609 15.873,20.064 16.355,19.524 zM16.355,24.476 C15.873,23.936 15.411,23.392 14.973,22.847 C14.211,23.871 13.543,24.887 12.987,25.872 C14.077,26.175 15.268,26.421 16.531,26.606 C16.455,25.911 16.396,25.200 16.355,24.476 zM7.370,22.000 C7.370,23.223 8.898,24.471 11.560,25.422 C11.695,25.470 11.833,25.517 11.972,25.563 C12.612,24.405 13.401,23.205 14.313,22.000 C13.401,20.795 12.612,19.595 11.972,18.438 C11.833,18.483 11.695,18.530 11.560,18.579 C8.898,19.529 7.370,20.777 7.370,22.000 zM17.135,11.963 C15.630,11.250 14.330,10.888 13.339,10.888 C12.649,10.888 12.108,11.064 11.753,11.419 C10.888,12.284 11.086,14.246 12.296,16.802 C12.358,16.931 12.422,17.062 12.488,17.193 C13.759,16.826 15.165,16.536 16.662,16.329 C16.870,14.832 17.160,13.426 17.526,12.154 C17.395,12.089 17.265,12.024 17.135,11.963 zM17.482,18.310 C17.671,18.114 17.863,17.918 18.057,17.724 C18.252,17.530 18.447,17.337 18.644,17.148 C18.288,17.180 17.936,17.215 17.589,17.256 C17.549,17.603 17.513,17.954 17.482,18.310 zM17.728,16.198 C18.422,16.122 19.134,16.063 19.857,16.022 C20.398,15.539 20.942,15.078 21.487,14.640 C20.463,13.878 19.447,13.210 18.462,12.653 C18.159,13.743 17.913,14.934 17.728,16.198 zM25.755,11.227 C24.804,8.565 23.557,7.036 22.333,7.036 C21.110,7.036 19.863,8.565 18.912,11.227 C18.864,11.363 18.817,11.500 18.771,11.639 C19.929,12.279 21.128,13.067 22.333,13.979 C23.538,13.067 24.738,12.279 25.896,11.639 C25.850,11.500 25.803,11.363 25.755,11.227 zM26.205,12.653 C25.220,13.210 24.204,13.878 23.180,14.640 C23.725,15.078 24.269,15.539 24.809,16.022 C25.533,16.063 26.244,16.122 26.939,16.198 C26.754,14.934 26.508,13.743 26.205,12.653 zM27.078,17.256 C26.731,17.215 26.379,17.180 26.023,17.148 C26.220,17.337 26.415,17.530 26.610,17.724 C26.804,17.918 26.996,18.114 27.185,18.310 C27.154,17.954 27.118,17.603 27.078,17.256 zM32.914,11.419 C32.559,11.065 32.018,10.888 31.327,10.888 C30.337,10.888 29.037,11.250 27.531,11.963 C27.402,12.024 27.272,12.089 27.140,12.154 C27.507,13.426 27.797,14.832 28.004,16.329 C29.502,16.536 30.908,16.827 32.179,17.193 C32.245,17.062 32.309,16.931 32.370,16.802 C33.581,14.246 33.779,12.284 32.914,11.419 zM33.106,18.579 C32.971,18.530 32.834,18.483 32.695,18.438 C32.054,19.595 31.266,20.795 30.353,22.000 C31.266,23.205 32.054,24.405 32.695,25.563 C32.834,25.517 32.971,25.470 33.106,25.422 C35.770,24.471 37.297,23.223 37.297,22.000 C37.297,20.777 35.770,19.529 33.106,18.579 zM26.169,22.000 C26.169,24.115 24.449,25.836 22.333,25.836 C20.218,25.836 18.498,24.115 18.498,22.000 C18.498,19.885 20.218,18.164 22.333,18.164 C24.449,18.164 26.169,19.885 26.169,22.000 zM22.333,19.201 C20.790,19.201 19.534,20.456 19.534,22.000 C19.534,23.544 20.790,24.800 22.333,24.800 C23.877,24.800 25.133,23.544 25.133,22.000 C25.133,20.456 23.877,19.201 22.333,19.201 zM23.439,22.518 C23.153,22.518 22.921,22.286 22.921,22.000 C22.921,21.676 22.657,21.412 22.333,21.412 C22.047,21.412 21.815,21.180 21.815,20.894 C21.815,20.608 22.047,20.376 22.333,20.376 C23.229,20.376 23.958,21.105 23.958,22.000 C23.958,22.286 23.725,22.518 23.439,22.518 z" fill="#2E8DD6" /></g></svg>