<svg version="1.1" xmlns="http://www.w3.org/2000/svg" xmlns:xlink="http://www.w3.org/1999/xlink" width="42" height="62" viewBox="0 0 42 62"><path id="alumniBusinessTr" d="M39.721,61.750 C39.721,61.750 22.169,61.750 22.169,61.750 C21.394,61.750 20.765,61.124 20.765,60.354 C20.765,60.354 20.765,47.239 20.765,47.239 C20.765,46.469 21.394,45.844 22.169,45.844 C22.169,45.844 39.721,45.844 39.721,45.844 C40.496,45.844 41.125,46.469 41.125,47.239 C41.125,47.239 41.125,60.354 41.125,60.354 C41.125,61.124 40.496,61.750 39.721,61.750 zM38.317,48.635 L23.573,48.635 L23.573,58.959 L38.317,58.959 L38.317,48.635 zM35.158,43.169 C35.158,43.169 26.697,43.169 26.697,43.169 C25.922,43.169 25.293,42.544 25.293,41.773 C25.293,41.002 25.922,40.378 26.697,40.378 C26.697,40.378 35.158,40.378 35.158,40.378 C35.934,40.378 36.562,41.002 36.562,41.773 C36.562,42.544 35.934,43.169 35.158,43.169 zM24.978,39.167 C24.283,39.295 23.615,38.831 23.486,38.124 C23.486,38.124 23.163,36.354 23.163,36.354 C22.802,34.369 21.725,32.882 20.299,31.857 C20.299,31.857 18.370,38.876 18.370,38.876 C18.215,39.439 17.711,39.820 17.137,39.820 C17.137,39.820 11.194,39.820 11.194,39.820 C10.620,39.820 10.116,39.439 9.961,38.877 C9.961,38.877 8.102,32.117 8.102,32.117 C6.835,33.131 5.890,34.542 5.555,36.379 C5.555,36.379 2.819,51.402 2.819,51.402 C2.819,51.402 15.432,51.402 15.432,51.402 C16.138,51.402 16.712,51.984 16.712,52.703 C16.712,53.422 16.138,54.005 15.432,54.005 C15.432,54.005 1.280,54.005 1.280,54.005 C0.900,54.005 0.539,53.826 0.296,53.529 C0.053,53.232 -0.048,52.833 0.021,52.453 C0.021,52.453 3.038,35.891 3.038,35.891 C4.098,30.073 9.495,27.458 14.374,27.458 C14.374,27.458 14.374,27.458 14.374,27.458 C19.240,27.458 24.623,30.066 25.681,35.871 C25.681,35.871 26.003,37.650 26.003,37.650 C26.132,38.356 25.673,39.035 24.978,39.167 zM14.374,30.076 C13.043,30.076 11.665,30.309 10.401,30.801 C10.401,30.801 12.165,37.218 12.165,37.218 L16.165,37.218 C16.165,37.218 17.968,30.663 17.968,30.663 C16.810,30.263 15.573,30.076 14.374,30.076 zM23.853,2.602 C23.853,2.602 22.286,2.602 22.286,2.602 C22.286,2.602 22.286,8.130 22.286,8.130 C23.182,9.488 23.645,11.073 23.711,12.849 C23.888,17.677 22.087,21.576 18.823,23.548 C17.451,24.376 15.912,24.791 14.374,24.791 C12.836,24.791 11.298,24.376 9.926,23.548 C7.001,21.781 5.277,18.466 5.078,14.323 C5.076,14.293 5.076,14.264 5.076,14.234 C5.057,13.782 5.059,13.319 5.076,12.849 C5.142,11.073 5.644,9.488 6.540,8.130 C6.540,8.130 6.540,2.602 6.540,2.602 C6.540,2.602 4.895,2.602 4.895,2.602 C4.188,2.602 3.615,2.020 3.615,1.301 C3.615,0.582 4.188,0.000 4.895,0.000 C4.895,0.000 7.782,0.000 7.782,0.000 C7.797,0.000 7.813,0.000 7.829,0.000 C7.829,0.000 20.933,0.000 20.933,0.000 C20.939,0.000 20.946,0.000 20.952,0.000 C20.952,0.000 23.853,0.000 23.853,0.000 C24.560,0.000 25.133,0.582 25.133,1.301 C25.133,2.020 24.560,2.602 23.853,2.602 zM11.233,21.309 C13.170,22.480 15.577,22.480 17.515,21.309 C19.363,20.194 20.566,18.166 20.975,15.570 C18.403,16.045 15.744,15.309 13.718,13.537 C13.280,13.920 12.807,14.260 12.300,14.552 C10.915,15.352 9.359,15.745 7.795,15.707 C8.225,18.238 9.417,20.213 11.233,21.309 zM7.627,12.967 C7.625,13.016 7.624,13.059 7.623,13.107 C9.357,13.209 11.272,12.567 12.684,10.939 C12.721,10.888 12.763,10.850 12.808,10.803 C13.040,10.520 13.258,10.150 13.457,9.889 C13.457,9.889 8.484,9.889 8.484,9.889 C7.958,10.800 7.670,11.803 7.627,12.967 zM19.725,2.546 L9.101,2.546 L9.101,7.287 C9.101,7.287 15.402,7.287 15.402,7.287 C15.421,7.287 15.442,7.287 15.461,7.287 C15.461,7.287 19.725,7.287 19.725,7.287 L19.725,2.546 zM20.263,9.889 C20.263,9.889 16.317,9.889 16.317,9.889 C16.060,10.410 15.755,11.077 15.407,11.613 C17.001,12.992 19.133,13.466 21.117,12.887 C21.065,11.755 20.778,10.670 20.263,9.889 z" fill="#208BCE" /></svg>