<svg version="1.1" xmlns="http://www.w3.org/2000/svg" xmlns:xlink="http://www.w3.org/1999/xlink" width="34" height="16" viewBox="0 0 34 16"><path id="-Block2_icon6" d="M32.634,6.874 C32.565,6.874 32.496,6.883 32.429,6.898 C32.429,6.898 32.000,7.000 32.000,7.000 C32.000,7.000 32.000,5.333 32.000,5.333 C32.000,5.018 31.722,4.756 31.475,4.560 C31.228,4.366 30.910,4.295 30.604,4.369 C28.159,4.951 22.212,6.361 19.787,6.883 C18.785,7.098 17.737,7.645 17.136,8.586 C17.278,7.680 17.785,6.889 18.567,6.481 C18.567,6.481 29.342,1.316 29.342,1.316 C29.512,1.235 29.583,1.030 29.502,0.861 C29.421,0.691 29.217,0.618 29.047,0.701 C29.047,0.701 18.267,5.869 18.267,5.869 C18.264,5.870 18.261,5.872 18.258,5.873 C16.832,6.613 16.133,8.352 16.521,10.053 C16.521,10.053 15.263,10.053 15.263,10.053 C15.263,10.053 1.510,6.959 1.510,6.959 C1.444,6.944 1.377,6.936 1.309,6.936 C0.771,6.936 0.333,7.411 0.333,7.994 C0.333,7.994 0.333,8.486 0.333,8.486 C0.333,8.994 0.669,9.431 1.131,9.524 C1.131,9.524 14.333,12.334 14.333,12.334 C14.333,12.334 14.333,13.000 14.333,13.000 C14.333,14.272 15.821,15.320 16.971,15.320 C18.122,15.320 19.667,14.272 19.667,13.000 C19.667,13.000 19.667,12.334 19.667,12.334 C19.667,12.334 32.816,9.461 32.816,9.461 C33.276,9.367 33.610,8.930 33.610,8.423 C33.610,8.423 33.610,7.932 33.610,7.932 C33.610,7.350 33.172,6.874 32.634,6.874 C32.634,6.874 32.634,6.874 32.634,6.874 zM19.931,7.549 C22.362,7.026 28.315,5.615 30.762,5.032 C30.864,5.007 30.970,5.031 31.052,5.097 C31.134,5.161 31.333,5.228 31.333,5.333 C31.333,5.333 31.333,7.000 31.333,7.000 L18.679,10.053 L17.905,10.053 C17.905,10.053 18.472,9.574 18.472,9.574 C18.477,9.570 18.482,9.565 18.487,9.561 C19.081,8.994 19.801,8.643 20.569,8.545 C20.578,8.544 20.587,8.542 20.596,8.541 C20.596,8.541 30.511,6.474 30.511,6.474 C30.696,6.435 30.814,6.255 30.776,6.069 C30.737,5.885 30.556,5.767 30.372,5.806 C30.372,5.806 20.470,7.870 20.470,7.870 C19.564,7.988 18.719,8.399 18.024,9.059 C18.024,9.059 17.432,9.559 17.432,9.559 C17.871,8.113 19.406,7.662 19.931,7.549 C19.931,7.549 19.931,7.549 19.931,7.549 zM16.667,10.667 C16.667,10.667 16.970,10.735 16.970,10.735 C16.971,10.735 17.000,10.668 17.000,10.667 C17.022,10.586 17.000,10.667 17.000,10.667 C17.000,10.667 17.333,10.667 17.333,10.667 C17.333,10.667 17.333,12.667 17.333,12.667 C17.333,12.789 17.094,12.974 16.972,12.974 C16.849,12.974 16.667,12.789 16.667,12.667 C16.667,12.667 16.667,10.667 16.667,10.667 zM32.928,8.423 C32.928,8.605 32.820,8.764 32.678,8.793 C32.678,8.793 18.982,11.687 18.982,11.687 C18.824,11.720 18.710,11.860 18.710,12.022 C18.710,12.022 18.710,13.015 18.710,13.015 C18.710,13.910 17.775,14.333 17.000,14.333 C16.225,14.333 15.333,13.895 15.333,13.000 C15.333,13.000 15.333,12.001 15.333,12.001 C15.333,11.837 15.119,11.720 14.960,11.687 C14.960,11.687 1.266,8.856 1.266,8.856 C1.123,8.827 1.000,8.516 1.000,8.334 C1.000,8.334 1.000,8.000 1.000,8.000 C1.000,7.775 1.168,7.618 1.309,7.618 C1.326,7.618 1.344,7.620 1.361,7.624 C1.361,7.624 14.885,10.667 14.885,10.667 C14.885,10.667 14.885,10.876 14.885,10.876 C14.885,11.064 15.037,11.216 15.226,11.216 C15.414,11.216 15.567,11.064 15.567,10.876 C15.567,10.876 15.567,10.735 15.567,10.735 L16.000,10.667 C16.000,10.667 16.000,12.667 16.000,12.667 C16.000,13.165 16.473,13.656 16.971,13.656 C17.470,13.656 18.000,13.165 18.000,12.667 C18.000,12.667 18.000,10.667 18.000,10.667 L18.377,10.735 C18.377,10.735 18.377,10.876 18.377,10.876 C18.377,11.064 18.529,11.216 18.718,11.216 C18.906,11.216 19.059,11.064 19.059,10.876 C19.059,10.876 19.059,10.666 19.059,10.666 C19.059,10.666 32.581,7.563 32.581,7.563 C32.599,7.558 32.616,7.556 32.634,7.556 C32.776,7.556 32.928,7.707 32.928,7.932 C32.928,7.932 32.928,8.423 32.928,8.423 z" fill="#208BCE" /></svg>