<svg version="1.1" xmlns="http://www.w3.org/2000/svg" xmlns:xlink="http://www.w3.org/1999/xlink" width="32" height="54" viewBox="0 0 32 54"><path id="doingNohting" d="M11.047,21.012 C12.574,21.906 14.287,22.353 15.999,22.353 C17.711,22.353 19.423,21.906 20.950,21.012 C24.583,18.888 26.553,14.684 26.356,9.479 C26.219,5.890 24.447,3.357 22.061,1.811 C21.979,1.746 21.382,1.404 21.172,1.295 C19.815,0.591 18.315,0.170 16.831,0.023 C16.570,-0.003 15.476,-0.006 15.238,0.016 C10.646,0.444 5.870,3.493 5.642,9.479 C5.445,14.684 7.415,18.888 11.047,21.012 zM8.490,9.584 C8.661,5.076 12.376,2.921 15.999,2.776 C17.192,2.824 18.396,3.090 19.480,3.586 C18.403,6.334 15.626,7.542 13.214,7.744 C12.430,7.809 11.848,8.489 11.915,9.261 C11.981,10.032 12.670,10.605 13.455,10.539 C17.264,10.220 20.352,8.226 21.829,5.276 C22.802,6.348 23.440,7.777 23.508,9.584 C23.666,13.730 22.203,17.016 19.495,18.600 C17.339,19.862 14.660,19.862 12.503,18.600 C9.795,17.016 8.332,13.730 8.490,9.584 zM30.833,53.814 C30.059,53.955 29.316,53.454 29.172,52.691 C29.172,52.691 25.815,34.846 25.815,34.846 C24.934,30.166 20.250,28.077 15.999,28.077 C11.748,28.077 7.064,30.185 6.184,34.864 C6.184,34.864 3.136,51.194 3.136,51.194 C3.136,51.194 20.828,51.194 20.828,51.194 C21.615,51.194 22.253,51.822 22.253,52.597 C22.253,53.372 21.615,54.000 20.828,54.000 C20.828,54.000 1.425,54.000 1.425,54.000 C1.002,54.000 0.600,53.790 0.330,53.469 C0.059,53.150 -0.053,52.704 0.023,52.294 C0.023,52.294 3.381,34.332 3.381,34.332 C4.560,28.064 10.568,25.260 15.999,25.259 C21.430,25.259 27.438,28.064 28.617,34.329 C28.617,34.329 31.974,52.177 31.974,52.177 C32.118,52.940 31.606,53.673 30.833,53.814 zM20.880,34.639 C21.667,34.639 22.304,35.267 22.305,36.042 C22.305,36.817 21.667,37.445 20.880,37.445 C20.880,37.445 18.101,37.445 18.101,37.445 C17.314,37.445 16.676,36.817 16.676,36.042 C16.676,35.268 17.314,34.639 18.101,34.639 C18.101,34.639 20.880,34.639 20.880,34.639 z" fill="#208BCF" /></svg>