<svg version="1.1" xmlns="http://www.w3.org/2000/svg" xmlns:xlink="http://www.w3.org/1999/xlink" width="53" height="53" viewBox="0 0 53 53"><path id="icon_molecular" d="M49.835,28.914 C48.663,28.914 47.666,28.154 47.310,27.100 C47.310,27.100 35.223,27.100 35.223,27.100 C35.165,27.720 35.044,28.322 34.867,28.899 C34.867,28.899 39.328,30.747 39.328,30.747 C40.060,29.909 41.272,29.588 42.355,30.036 C43.713,30.598 44.359,32.161 43.797,33.519 C43.524,34.176 43.013,34.688 42.355,34.961 C42.026,35.095 41.681,35.165 41.335,35.165 C40.990,35.165 40.644,35.096 40.315,34.961 C39.658,34.688 39.146,34.176 38.874,33.519 C38.714,33.132 38.651,32.723 38.678,32.319 C38.678,32.319 34.213,30.469 34.213,30.469 C33.924,31.012 33.583,31.522 33.194,31.991 C33.194,31.991 41.743,40.541 41.743,40.541 C42.106,40.359 42.509,40.263 42.928,40.263 C43.639,40.263 44.308,40.541 44.812,41.043 C45.315,41.546 45.592,42.216 45.592,42.928 C45.592,43.639 45.315,44.308 44.812,44.811 C44.292,45.331 43.610,45.591 42.928,45.591 C42.245,45.591 41.563,45.331 41.043,44.811 C40.215,43.983 40.049,42.741 40.542,41.745 C40.542,41.745 31.992,33.195 31.992,33.195 C31.522,33.583 31.012,33.925 30.469,34.213 C30.469,34.213 32.318,38.677 32.318,38.677 C33.427,38.603 34.512,39.233 34.960,40.316 C35.233,40.973 35.233,41.697 34.960,42.355 C34.688,43.013 34.176,43.524 33.518,43.797 C33.186,43.935 32.841,44.000 32.502,44.000 C31.456,44.000 30.461,43.380 30.037,42.355 C29.764,41.697 29.764,40.973 30.037,40.316 C30.197,39.929 30.441,39.595 30.747,39.330 C30.747,39.330 28.899,34.866 28.899,34.866 C28.322,35.044 27.720,35.165 27.100,35.223 C27.100,35.223 27.100,47.310 27.100,47.310 C28.154,47.667 28.915,48.664 28.915,49.835 C28.915,51.304 27.719,52.500 26.250,52.500 C24.781,52.500 23.585,51.304 23.585,49.835 C23.585,48.664 24.346,47.667 25.400,47.310 C25.400,47.310 25.400,35.223 25.400,35.223 C24.780,35.165 24.178,35.044 23.601,34.866 C23.601,34.866 21.753,39.329 21.753,39.329 C22.059,39.595 22.303,39.929 22.463,40.316 C22.736,40.973 22.736,41.697 22.463,42.355 C22.039,43.380 21.044,44.000 19.998,44.000 C19.659,44.000 19.314,43.934 18.982,43.797 C17.624,43.235 16.977,41.673 17.540,40.316 C17.988,39.233 19.073,38.602 20.182,38.677 C20.182,38.677 22.031,34.213 22.031,34.213 C21.488,33.925 20.979,33.583 20.508,33.195 C20.508,33.195 11.960,41.742 11.960,41.742 C12.141,42.107 12.237,42.509 12.237,42.928 C12.237,43.638 11.960,44.308 11.457,44.811 C10.938,45.331 10.255,45.590 9.573,45.590 C8.890,45.591 8.208,45.331 7.688,44.811 C7.185,44.308 6.908,43.638 6.908,42.928 C6.908,42.216 7.185,41.546 7.689,41.043 C8.191,40.541 8.861,40.263 9.573,40.263 C9.991,40.263 10.394,40.359 10.757,40.541 C10.757,40.541 19.306,31.991 19.306,31.991 C18.917,31.522 18.576,31.012 18.287,30.469 C18.287,30.469 13.822,32.319 13.822,32.319 C13.850,32.723 13.786,33.132 13.627,33.519 C13.354,34.176 12.842,34.688 12.185,34.961 C11.856,35.095 11.510,35.164 11.165,35.164 C10.819,35.164 10.474,35.095 10.145,34.960 C9.488,34.687 8.975,34.176 8.703,33.519 C8.431,32.860 8.431,32.136 8.703,31.478 C8.975,30.821 9.488,30.309 10.145,30.036 C10.803,29.765 11.527,29.765 12.185,30.036 C12.571,30.196 12.904,30.440 13.171,30.747 C13.171,30.747 17.633,28.899 17.633,28.899 C17.455,28.322 17.335,27.720 17.277,27.100 C17.277,27.100 5.190,27.100 5.190,27.100 C4.834,28.154 3.837,28.914 2.665,28.914 C1.195,28.914 -0.000,27.719 -0.000,26.249 C-0.000,24.780 1.195,23.585 2.665,23.585 C3.837,23.585 4.834,24.346 5.190,25.399 C5.190,25.399 17.277,25.399 17.277,25.399 C17.335,24.780 17.455,24.178 17.633,23.601 C17.633,23.601 13.171,21.753 13.171,21.753 C12.904,22.058 12.571,22.303 12.185,22.462 C11.856,22.599 11.510,22.667 11.165,22.667 C10.819,22.667 10.474,22.599 10.145,22.463 C9.487,22.191 8.975,21.680 8.702,21.021 C8.431,20.363 8.431,19.639 8.702,18.981 C8.975,18.323 9.487,17.812 10.145,17.540 C10.802,17.267 11.527,17.267 12.185,17.540 C12.842,17.812 13.354,18.323 13.626,18.980 C13.786,19.367 13.850,19.776 13.822,20.182 C13.822,20.182 18.287,22.031 18.287,22.031 C18.576,21.488 18.917,20.977 19.306,20.508 C19.306,20.508 10.757,11.960 10.757,11.960 C10.394,12.140 9.991,12.237 9.573,12.237 C8.861,12.237 8.192,11.960 7.688,11.457 C7.185,10.953 6.908,10.284 6.908,9.572 C6.908,8.861 7.185,8.191 7.689,7.687 C8.727,6.650 10.418,6.650 11.457,7.687 C11.960,8.191 12.237,8.861 12.237,9.572 C12.237,9.990 12.141,10.394 11.960,10.757 C11.960,10.757 20.508,19.305 20.508,19.305 C20.979,18.916 21.488,18.575 22.031,18.286 C22.031,18.286 20.182,13.822 20.182,13.822 C20.123,13.826 20.064,13.829 20.005,13.829 C18.959,13.829 17.964,13.209 17.540,12.184 C16.977,10.827 17.624,9.264 18.982,8.703 C20.339,8.140 21.901,8.786 22.463,10.144 C22.736,10.802 22.736,11.527 22.463,12.184 C22.303,12.570 22.059,12.904 21.753,13.170 C21.753,13.170 23.601,17.633 23.601,17.633 C24.179,17.454 24.780,17.335 25.400,17.277 C25.400,17.277 25.400,5.189 25.400,5.189 C24.347,4.833 23.585,3.836 23.585,2.665 C23.585,1.195 24.781,0.000 26.250,0.000 C27.719,0.000 28.915,1.195 28.915,2.665 C28.915,3.836 28.154,4.833 27.100,5.189 C27.100,5.189 27.100,17.277 27.100,17.277 C27.720,17.335 28.322,17.454 28.899,17.633 C28.899,17.633 30.748,13.170 30.748,13.170 C30.441,12.904 30.197,12.570 30.037,12.184 C29.765,11.527 29.765,10.802 30.037,10.144 C30.599,8.786 32.161,8.140 33.518,8.703 C34.176,8.975 34.688,9.486 34.961,10.144 C35.233,10.802 35.233,11.527 34.961,12.184 C34.536,13.209 33.541,13.829 32.495,13.829 C32.437,13.829 32.378,13.826 32.318,13.822 C32.318,13.822 30.470,18.286 30.470,18.286 C31.012,18.575 31.522,18.916 31.992,19.305 C31.992,19.305 40.542,10.755 40.542,10.755 C40.050,9.759 40.215,8.516 41.043,7.687 C42.083,6.650 43.773,6.650 44.812,7.687 C45.315,8.191 45.592,8.861 45.592,9.573 C45.592,10.284 45.315,10.953 44.812,11.457 C44.308,11.960 43.640,12.238 42.928,12.238 C42.510,12.238 42.106,12.141 41.743,11.960 C41.743,11.960 33.195,20.508 33.195,20.508 C33.584,20.978 33.925,21.488 34.213,22.031 C34.213,22.031 38.679,20.182 38.679,20.182 C38.651,19.776 38.714,19.367 38.874,18.981 C39.146,18.323 39.658,17.812 40.316,17.540 C40.974,17.267 41.698,17.267 42.356,17.540 C43.013,17.812 43.525,18.323 43.797,18.981 C44.360,20.339 43.713,21.901 42.356,22.463 C42.023,22.601 41.679,22.666 41.339,22.666 C40.573,22.666 39.837,22.334 39.329,21.753 C39.329,21.753 34.867,23.601 34.867,23.601 C35.044,24.179 35.165,24.780 35.223,25.399 C35.223,25.399 47.311,25.399 47.311,25.399 C47.666,24.347 48.664,23.585 49.836,23.585 C51.305,23.585 52.500,24.780 52.500,26.249 C52.500,27.719 51.305,28.914 49.835,28.914 zM40.445,32.867 C40.544,33.106 40.729,33.290 40.967,33.388 C41.205,33.487 41.467,33.487 41.705,33.388 C41.942,33.290 42.128,33.106 42.226,32.867 C42.429,32.376 42.195,31.811 41.705,31.608 C41.584,31.558 41.459,31.535 41.337,31.535 C40.958,31.535 40.599,31.758 40.445,32.130 C40.346,32.367 40.346,32.629 40.445,32.867 zM42.246,43.609 C42.621,43.984 43.233,43.985 43.609,43.609 C43.791,43.427 43.892,43.185 43.892,42.928 C43.892,42.669 43.791,42.427 43.609,42.247 C43.427,42.064 43.185,41.964 42.928,41.964 C42.670,41.964 42.428,42.064 42.246,42.247 C41.870,42.622 41.870,43.233 42.246,43.609 zM31.608,41.704 C31.812,42.195 32.376,42.429 32.868,42.226 C33.106,42.128 33.290,41.942 33.389,41.704 C33.488,41.466 33.488,41.204 33.389,40.967 C33.186,40.475 32.621,40.241 32.130,40.445 C31.892,40.544 31.707,40.729 31.608,40.967 C31.510,41.204 31.510,41.466 31.608,41.704 zM20.892,40.967 C20.794,40.729 20.608,40.544 20.371,40.445 C20.250,40.395 20.125,40.372 20.003,40.372 C19.624,40.372 19.264,40.595 19.111,40.967 C18.908,41.457 19.141,42.022 19.633,42.226 C20.124,42.429 20.689,42.195 20.892,41.704 C20.991,41.466 20.991,41.204 20.892,40.967 zM10.255,42.247 C10.255,42.247 10.254,42.247 10.254,42.247 C10.072,42.064 9.830,41.964 9.573,41.964 C9.316,41.964 9.073,42.064 8.891,42.247 C8.709,42.427 8.609,42.669 8.609,42.928 C8.609,43.185 8.709,43.427 8.891,43.609 C9.267,43.985 9.879,43.984 10.254,43.609 C10.436,43.427 10.536,43.185 10.536,42.928 C10.536,42.669 10.437,42.427 10.255,42.247 zM12.055,32.130 C11.956,31.891 11.771,31.707 11.533,31.608 C11.414,31.559 11.290,31.534 11.165,31.534 C11.040,31.534 10.914,31.559 10.796,31.608 C10.558,31.707 10.372,31.891 10.274,32.130 C10.176,32.367 10.176,32.629 10.274,32.867 C10.372,33.106 10.558,33.290 10.796,33.388 C11.033,33.487 11.295,33.487 11.533,33.388 C11.771,33.290 11.956,33.106 12.055,32.867 C12.154,32.630 12.154,32.367 12.055,32.130 zM2.665,25.286 C2.133,25.286 1.701,25.719 1.701,26.249 C1.701,26.781 2.133,27.213 2.665,27.213 C3.196,27.213 3.629,26.781 3.629,26.249 C3.629,25.719 3.196,25.286 2.665,25.286 zM12.055,19.632 C11.956,19.394 11.772,19.209 11.533,19.111 C11.414,19.062 11.290,19.037 11.165,19.037 C11.040,19.037 10.915,19.062 10.796,19.111 C10.558,19.209 10.372,19.394 10.274,19.632 C10.176,19.870 10.176,20.133 10.274,20.370 C10.373,20.608 10.558,20.794 10.796,20.892 C11.034,20.990 11.296,20.990 11.533,20.892 C11.772,20.794 11.956,20.608 12.055,20.370 C12.154,20.133 12.154,19.870 12.055,19.632 zM10.255,8.891 C10.066,8.703 9.819,8.609 9.573,8.609 C9.326,8.609 9.079,8.703 8.891,8.891 C8.709,9.074 8.609,9.316 8.609,9.573 C8.609,9.829 8.709,10.072 8.891,10.254 C9.074,10.436 9.316,10.536 9.573,10.536 C9.830,10.536 10.072,10.437 10.254,10.254 C10.436,10.072 10.536,9.829 10.536,9.573 C10.536,9.316 10.436,9.074 10.255,8.891 zM20.892,10.795 C20.689,10.304 20.124,10.071 19.633,10.274 C19.141,10.477 18.908,11.043 19.111,11.533 C19.314,12.024 19.880,12.258 20.371,12.054 C20.608,11.956 20.794,11.771 20.892,11.533 C20.991,11.296 20.991,11.033 20.892,10.795 zM31.608,11.533 C31.707,11.771 31.892,11.956 32.130,12.054 C32.621,12.258 33.186,12.024 33.389,11.533 C33.488,11.296 33.488,11.033 33.389,10.795 C33.290,10.557 33.106,10.372 32.868,10.274 C32.747,10.225 32.623,10.201 32.500,10.201 C32.122,10.201 31.762,10.425 31.608,10.795 C31.510,11.033 31.510,11.296 31.608,11.533 zM42.246,10.254 C42.428,10.436 42.670,10.536 42.928,10.536 C43.185,10.536 43.427,10.436 43.609,10.254 C43.791,10.072 43.892,9.829 43.892,9.572 C43.892,9.316 43.791,9.073 43.609,8.891 C43.421,8.703 43.175,8.609 42.928,8.609 C42.681,8.609 42.434,8.703 42.246,8.891 C41.870,9.266 41.870,9.878 42.246,10.254 zM25.286,49.835 C25.286,50.367 25.718,50.799 26.250,50.799 C26.781,50.799 27.214,50.367 27.214,49.835 C27.214,49.304 26.781,48.872 26.250,48.872 C25.718,48.872 25.286,49.304 25.286,49.835 zM27.214,2.665 C27.214,2.133 26.781,1.700 26.250,1.700 C25.718,1.700 25.286,2.133 25.286,2.665 C25.286,3.196 25.718,3.628 26.250,3.628 C26.781,3.628 27.214,3.196 27.214,2.665 zM26.250,18.936 C22.217,18.936 18.937,22.216 18.937,26.249 C18.937,30.283 22.217,33.563 26.250,33.563 C30.283,33.563 33.564,30.283 33.564,26.249 C33.564,22.216 30.283,18.936 26.250,18.936 zM40.445,20.370 C40.649,20.861 41.214,21.095 41.705,20.892 C42.196,20.689 42.429,20.123 42.226,19.632 C42.128,19.394 41.942,19.209 41.705,19.111 C41.586,19.062 41.460,19.037 41.336,19.037 C41.211,19.037 41.086,19.062 40.967,19.111 C40.729,19.209 40.544,19.394 40.445,19.632 C40.346,19.870 40.346,20.133 40.445,20.370 zM49.836,25.286 C49.304,25.286 48.872,25.719 48.872,26.249 C48.872,26.781 49.304,27.213 49.836,27.213 C50.367,27.213 50.799,26.781 50.799,26.249 C50.799,25.719 50.367,25.286 49.836,25.286 zM30.788,27.100 C30.318,27.100 29.937,26.719 29.937,26.249 C29.937,25.780 30.317,25.399 30.787,25.399 C30.787,25.399 30.788,25.399 30.788,25.399 C31.258,25.399 31.638,25.780 31.638,26.249 C31.638,26.719 31.258,27.100 30.788,27.100 zM27.158,32.544 C25.688,32.544 24.493,31.348 24.493,29.879 C24.493,28.409 25.688,27.213 27.158,27.213 C28.626,27.213 29.822,28.409 29.822,29.879 C29.822,31.348 28.626,32.544 27.158,32.544 zM27.158,28.914 C26.626,28.914 26.194,29.346 26.194,29.879 C26.194,30.410 26.626,30.842 27.158,30.842 C27.688,30.842 28.121,30.410 28.121,29.879 C28.121,29.346 27.688,28.914 27.158,28.914 zM28.067,23.473 C27.597,23.473 27.216,23.091 27.216,22.621 C27.216,22.152 27.596,21.772 28.066,21.772 C28.066,21.772 28.067,21.772 28.067,21.772 C28.537,21.772 28.917,22.152 28.917,22.621 C28.917,23.091 28.537,23.473 28.067,23.473 zM23.529,26.193 C22.059,26.193 20.864,24.999 20.864,23.529 C20.864,22.059 22.059,20.864 23.529,20.864 C24.998,20.864 26.194,22.059 26.194,23.529 C26.194,24.999 24.998,26.193 23.529,26.193 zM23.529,22.565 C22.997,22.565 22.565,22.997 22.565,23.529 C22.565,24.060 22.997,24.492 23.529,24.492 C24.060,24.492 24.493,24.060 24.493,23.529 C24.493,22.997 24.060,22.565 23.529,22.565 z" fill="#2E8DD6" /></svg>