<svg xmlns="http://www.w3.org/2000/svg" width="684.781" height="500.3" viewBox="0 0 684.781 500.3">
  <defs>
    <style>
      .cls-1 {
        fill: #ececec;
        fill-rule: evenodd;
      }
    </style>
  </defs>
  <path id="Grey_dots_lines_copy_4" data-name="Grey dots + lines copy 4" class="cls-1" d="M-591.2,10921.5l-46.546-55.9,0.338-.3,46.546,55.9Zm111.067,24.8-110.948-24.7,0.1-.4,110.947,24.7Zm0.261-.1-0.422-.1,17.3-53.7,0.423,0.2Zm132.837-29.5-115.791-24,0.09-.4,115.791,23.9ZM-670.3,10968l-0.227-.3,79.376-46.5,0.227,0.4Zm79.484,50.4h-0.443v-97h0.443v97Zm52.746-26-0.275-.3,58.117-46.1,0.276,0.3Zm-52.871,26.2-0.193-.4,52.83-26.2,0.193,0.4Zm80.5,13.6-27.949-39.8,0.363-.3,27.95,39.9Zm70.512,31-40.372-117,0.42-.1,40.371,117Zm-40.114-116.9-0.1-.4,133.093-29.7,0.1,0.5Zm-30.006,85.9-0.42-.2,30.168-85.9,0.42,0.1Zm-137.069,39-23.513-103.3,0.433-.1,23.513,103.3Zm-92.5,1,0-.4,92.722-.9,0,0.4Zm92.874-.9-0.307-.3,55.863-52.7,0.307,0.3Zm55.6,33.4-55.863-33.4,0.219-.4,55.863,33.4Zm0.331-.2h-0.443v-86.1h0.443v86.1Zm-0.074.1-0.3-.3,80.78-72.4,0.294,0.4Zm-113.507,43.3-0.355-.2,57.674-76.7,0.355,0.2Zm69.7,3-12.422-79.8h0.439l12.422,79.8H-634.7Zm0.21,0.2-70.1-3.1,0.019-.4,70.1,3.1Zm194.68-87.8-70.539-31,0.178-.4,70.54,31Zm-151.172,41.4-0.115-.4,151.32-41.4,0.114,0.5Zm-43.335,46.3-0.327-.3,43.441-46.4,0.327,0.3Zm136.373,2.3-93.2-48.6,0.211-.4,93.2,48.6Zm0.292-.1-0.372-.2,58.117-90,0.373,0.3Zm-93.537,38.2-43.441-40.3,0.3-.4,43.441,40.4Zm81.32,20-81.223-20,0.105-.4,81.224,20Zm12.028-58.1-136.643-2.2,0.007-.4,136.643,2.2Zm-11.758,57.9-0.435-.1,11.979-58,0.435,0.1Zm-81.356-19.8-0.169-.4,93.2-38.1,0.168,0.4Zm156.376,52.7-63.441-90.9,0.364-.2,63.441,90.8Zm44.934-62.4-108.249-28.4,0.113-.4,108.249,28.4Zm-44.84,62.5-75.42-32.8,0.177-.4,75.42,32.8Zm-113.189,12.1-0.265-.4,37.99-44.9,0.265,0.3Zm113.458-12.2-0.361-.3,44.808-62.5,0.361,0.3Zm44.423-62.5-50.132-118.4,0.409-.1,50.132,118.3Zm0.4,0-0.392-.2,51.906-98,0.392,0.2Zm-0.16.1-0.073-.4,134.868-22.6,0.073,0.4Zm91.318,37.5-91.464-37.5,0.219-.4,91.463,37.5Zm-136.144,25-0.038-.5,136.272-24.9,0.038,0.4Zm179.509-85.2-82.962-75.3,0.3-.3,82.962,75.3Zm-43.066,60.1-0.38-.2,43.405-60.1,0.379,0.2Zm-100.645-220.9-81.631-51.9,0.238-.4,81.63,51.9Zm-40.953,65.1-0.375-.3,41.259-65.1,0.375,0.2Zm41.26-65.2-0.377-.2,51.463-81.6,0.377,0.3Zm60.548,85.6-102.039-20.3,0.087-.5,102.038,20.4Zm-0.138,0-60.78-85.6,0.363-.2,60.779,85.5Zm122.117-125.8-131.319-41.3,0.133-.4,131.319,41.2Zm-52.6,38.9-0.263-.3,52.794-39,0.263,0.3Zm-69.167,86.9-0.346-.3,69.208-86.9,0.347,0.3Zm-0.395-.2-9.316-167.1h0.443l9.317,167.1H-337.9Zm69.272-86.7-78.525-80.2,0.317-.3,78.525,80.2Zm52.737-39.1-23.069-90.4,0.43-.1,23.069,90.4Zm-131.012-41.1-0.183-.4,108.249-49.2,0.184,0.4Zm215.447,70.5-84.292-29.2,0.145-.5,84.293,29.3Zm-90.179,90.3-47.026-80.6,0.383-.3,47.026,80.7Zm-116.031,6.3-0.024-.4,116.235-6.2,0.024,0.4Zm166.472,97.8-50.438-104.1,0.378-.2,50.438,104Zm0.406-.1-0.435-.1,28.088-109.3h0.435Zm-50.64-103.9-0.03-.4,78.525-5.3,0.03,0.4Zm-33.083,81.5-0.411-.2,33.274-81.6,0.41,0.2Zm83.477,22.6-83.712-22.5,0.059-.5,83.711,22.5Zm-127,37.6-0.182-.4,127.116-37.6,0.182,0.4Zm82.476-261.4-0.244-.3,120.672-79.8,0.244,0.4Zm120.533-79.7-143.741-10.6,0.033-.5,143.741,10.7Zm38.854,91.2-39.041-91.3,0.407-.2,39.041,91.3Zm35.621-47.2-74.569-44,0.222-.4,74.569,44Zm-35.237,47.2-0.36-.2,35.528-47.4,0.361,0.3Zm35.433-47.2-0.171-.4,108.657-47.1,0.172,0.4Zm39.092,40.1-0.347-.3,69.652-87.3,0.347,0.3Zm-74.685,7.2-0.041-.4,74.532-7.1,0.041,0.4Zm-37.115,133.8-0.343-.3,103.016-62,0.343,0.2Zm221.115-91.3-109.58-49.6,0.184-.4,109.58,49.6Zm-109.649-49.7-39-40.2,0.322-.3,39,40.2Zm47.351,120.2-56.09-41.2,0.234-.4,56.09,41.2Zm-55.965-41.2-0.016-.4,118.363-29.3,0.016,0.4Zm0.169-.1-0.353-.2,8.783-78.9,0.353,0.2ZM-93.229,11103m72.314-27.8-0.222,0,30.7-34.2h0.444l-30.7,34.2h-0.444Zm0.444,59.4h-0.444v-59.4h0.444v59.4Zm-0.308.2-72.314-31.6,0.171-.4,72.314,31.6Zm-149.947,46.8-0.114-.5,150.089-46.7,0.114,0.4Zm199.254,71.6-49.444-118.6h0.444l49.444,118.6H28.307Zm0.19,0.2-199.533-71.8,0.062-.5,199.533,71.8Zm-162.222-17.4-0.178-.4L28.44,11253l0.178,0.4Zm-0.309-.2-37.191-54.4,0.44-.1,37.191,54.4Zm0.193,0.2-164.307-16.8,0.054-.4,164.307,16.7Zm117.092,113.2-0.409-.2,45.482-95.9,0.409,0.2Zm-49.182-22.6-68.059-90.7,0.354-.3,68.059,90.7Zm0.375,0-0.4-.2,48.8,22.6,0.4,0.2Zm-68.235-90.6-0.045-.5,116.861,113.4,0.045,0.5ZM28.6,11253.4l-0.14-.4,55.045-54.3,0.141,0.4Zm55.19-54.5-0.43-.1-17.7-116.7,0.43,0.1Zm-104.627-64.1-0.154-.4L65.8,11082l0.154,0.4Zm104.356,64.3-104.489-64.3,0.113-.4,104.489,64.3Zm-12.346,132.2-0.333-.3,12.569-132.3,0.333,0.3Zm-0.237.1-42.477-78,0.14-.4,42.477,77.9Zm-87.805,17.9-0.166-.4,87.959-17.9,0.166,0.4Zm179.215-61.7-91.391,43.8,0.1-.5,91.391-43.7Zm-0.144-.1L83.378,11199l0.393-.2,78.823,88.5Zm-78.619-88.4-0.014-.4,66.314-42.3,0.014,0.5Zm66.136-42.3-84.012-74.5,0.341-.3,84.012,74.5Zm12.781,130.8-0.2-.4,71.639-46.9,0.2,0.4Zm71.321-47.1-84.148-83.8,0.433-.1,84.148,83.8ZM65.959,11082.4l-0.165-.4,126.159-39,0.164,0.4Zm163.816,1.3-37.928-40.4,0.376-.2,37.928,40.3Zm0.149,0.1-164.086-1.4,0.078-.4L230,11083.3Zm-3.285,86.9,3.121-87.1,0.406-.1-3.121,87.1Zm0.134,0.2-76.954-14,0.139-.5,76.953,14Zm7.282,69.8-0.038-.5-7.194-69.8,0.038,0.5Zm-3.958-157-0.268-.3,87.18-39.7,0.268,0.3Zm-0.106.1-0.056-.5,112.523,21.3,0.056,0.4Zm88.687,80.9-88.813-81,0.2-.4,88.813,81Zm0.292-.1-0.388-.2,23.71-59.7,0.388,0.2Zm-92.037,6.3-0.182-.4,91.934-6.2,0.182,0.4Zm-34.895-127.5-0.006-.5,125.108,0.7,0.006,0.5Zm0.138-.1-0.282-.3,62.554-43.4,0.282,0.3Zm-0.258.1-63.885-31.5,0.234-.4,63.885,31.5Zm-125.837,38.9-0.409-.2,62.274-70.5,0.409,0.2Zm62.09-70.4-0.042-.4,126.439-12,0.042,0.5ZM317,11044l-62.554-44.1,0.278-.3,62.553,44.1Zm25.34,61L317,11044l0.284-.3,25.343,61Zm-25.134-60.9-0.134-.5,106.5-2.3,0.133,0.4Zm25.478,60.8-0.4-.2,81.161-63.3,0.4,0.2Zm-0.18.1-0.045-.4,130.828,5.3,0.045,0.4Zm-23.685,59.7-0.094-.4,80.342-18.1,0.094,0.5Zm80.471-18.1-0.352-.3,74.195-36.4,0.352,0.3Zm-0.332,0L342.33,11105l0.312-.3,56.632,41.6Zm-20.988,42.8,20.944-42.8,0.4-.2-20.945,42.8Zm0.121,0.1-59.4-24.8,0.156-.4,59.4,24.8Zm95.056-79.3-49.667-68.6,0.325-.3,49.666,68.6Zm-49.4-68.5-0.217-.4,256.693-30.2,0.217,0.4Zm256.477-30.2-163.412-29.9,0.215-.4,163.412,29.9Zm-256.371,30-0.429-.1,93.281-60.1,0.428,0.1Zm-16.975-23.5-0.206-.4,110.144-36.4,0.206,0.4Zm16.639,23.7-16.863-23.7,0.243-.3,16.863,23.6Zm93.368-60.1-86.024-50.3,0.068-.5,86.024,50.4Zm-110.331,36.3,24.12-86.8,0.442-.1L407,11017.8Zm-151.9-17.9-0.15-.4,152.194,18,0.151,0.4Zm-2.818-60.3L88.141,10875l0.163-.4,163.705,64.7Zm0.184,0-0.206-.4,178.976-8.5,0.206,0.4ZM406.7,11018l-154.856-78.3,0.166-.4,154.857,78.3Zm-278.438-6.1-0.224-.4,123.777-72.2,0.224,0.4Zm-0.325-.1-39.928-137,0.426-.1,39.928,137Zm124.2-72.2-0.414-.2,32.386-84.6,0.414,0.1Zm-473.354,137.7h-0.444l5.768-119.7,0.443,0.1Zm78.523-5.3h-0.44l11.535-85.1h0.44Zm11.366-84.9-0.1-.4,75.419-17.7,0.1,0.4Zm140.935,54-65.75-71.8,0.366-.2,65.75,71.8Zm-152.428,31.1-0.186-.4,152.7-31,0.185,0.4Zm-28.025,109.3-0.31-.3,77.775-78.3,0.31,0.3Zm77.5-78.3-49.689-31,0.236-.4,49.688,31Zm-37.825-116.2-0.422-.2,36.379-109,0.421,0.1Zm-407.213,5.4-52.83-70.9,0.359-.2,52.83,70.8Zm28.089,39.9-80.78-13.6,0.08-.5,80.78,13.7Zm676-83.3-77.638-74.1,0.307-.3,77.638,74Zm-37.366,62.8-0.381-.2,37.709-62.9,0.382,0.2Zm37.543-62.8-0.048-.4,86.067-9.3,0.048,0.4Zm-836.134,15.2a3.589,3.589,0,0,1,3.594,3.6,3.589,3.589,0,0,1-3.594,3.6,3.589,3.589,0,0,1-3.594-3.6A3.589,3.589,0,0,1-670.25,10964.2Zm230.375,95a3.655,3.655,0,0,1,3.594,3.6,3.589,3.589,0,0,1-3.594,3.6,3.589,3.589,0,0,1-3.594-3.6A3.655,3.655,0,0,1-439.875,11059.2Zm-194.391,88.4a3.6,3.6,0,0,1,3.61,3.6,3.663,3.663,0,0,1-3.61,3.6,3.663,3.663,0,0,1-3.609-3.6A3.6,3.6,0,0,1-634.266,11147.6Zm85.922,105.6a3.589,3.589,0,0,1,3.594,3.6,3.589,3.589,0,0,1-3.594,3.6,3.589,3.589,0,0,1-3.593-3.6A3.589,3.589,0,0,1-548.344,11253.2Zm309.578-388.9a3.684,3.684,0,0,1,3.61,3.7,3.663,3.663,0,0,1-3.61,3.6,3.663,3.663,0,0,1-3.609-3.6A3.683,3.683,0,0,1-238.766,10864.3Zm182.86,100.9a3.589,3.589,0,0,1,3.594,3.6,3.589,3.589,0,0,1-3.594,3.6,3.589,3.589,0,0,1-3.594-3.6A3.589,3.589,0,0,1-55.906,10965.2Zm-39.359-90.3a3.6,3.6,0,0,1,3.609,3.6,3.6,3.6,0,0,1-3.609,3.6,3.6,3.6,0,0,1-3.609-3.6A3.6,3.6,0,0,1-95.266,10874.9Zm-36.468,108.5a3.6,3.6,0,0,1,3.609,3.6,3.6,3.6,0,0,1-3.609,3.6,3.6,3.6,0,0,1-3.61-3.6A3.6,3.6,0,0,1-131.734,10983.4Zm197.547,95.2a3.6,3.6,0,1,1-3.594,3.6A3.589,3.589,0,0,1,65.813,11078.6Zm160.766,88.1a3.6,3.6,0,1,1-3.609,3.6A3.6,3.6,0,0,1,226.578,11166.7Zm151.219,18.9a3.6,3.6,0,1,1-3.609,3.6A3.6,3.6,0,0,1,377.8,11185.6ZM150,11154.3a3.6,3.6,0,1,1-3.594,3.6A3.589,3.589,0,0,1,150,11154.3Zm166.547-114a3.6,3.6,0,1,1-3.61,3.6A3.6,3.6,0,0,1,316.547,11040.3ZM162,11283.8a3.6,3.6,0,1,1-3.594,3.6A3.589,3.589,0,0,1,162,11283.8Zm30.234-243.6a3.6,3.6,0,1,1-3.609,3.6A3.6,3.6,0,0,1,192.234,11040.2Zm-25.922-95.2a3.6,3.6,0,1,1-3.593,3.6A3.589,3.589,0,0,1,166.312,10945Zm85.438-8.2a3.655,3.655,0,0,1,3.594,3.6,3.594,3.594,0,1,1-7.188,0A3.655,3.655,0,0,1,251.75,10936.8Zm-268.781,408.6a3.589,3.589,0,0,1,3.594,3.6,3.589,3.589,0,0,1-3.594,3.6,3.589,3.589,0,0,1-3.594-3.6A3.589,3.589,0,0,1-17.031,11345.4ZM406.438,11014a3.6,3.6,0,1,1-3.594,3.6A3.589,3.589,0,0,1,406.438,11014Zm-151.813-16.7a3.6,3.6,0,1,1-3.594,3.6A3.589,3.589,0,0,1,254.625,10997.3Zm262.875-18.5a3.6,3.6,0,1,1-3.594,3.6A3.589,3.589,0,0,1,517.5,10978.8Zm-94.234,59.2a3.6,3.6,0,0,1,3.609,3.6,3.61,3.61,0,0,1-7.219,0A3.6,3.6,0,0,1,423.266,11038Zm-189.688,199.3a3.6,3.6,0,1,1-3.609,3.6A3.6,3.6,0,0,1,233.578,11237.3Zm164.547-95a3.6,3.6,0,1,1-3.594,3.6A3.589,3.589,0,0,1,398.125,11142.3ZM681.172,11008a3.6,3.6,0,1,1-3.61,3.6A3.6,3.6,0,0,1,681.172,11008Zm-250.313-81a4.831,4.831,0,0,1,4.8,4.8,4.8,4.8,0,1,1-9.594,0A4.832,4.832,0,0,1,430.859,10927Zm-146.468-74.7a3.65,3.65,0,1,1-3.61,3.7A3.683,3.683,0,0,1,284.391,10852.3Zm187.828,254.4a3.6,3.6,0,1,1-3.594,3.6A3.589,3.589,0,0,1,472.219,11106.7Zm-242.391-28a4.75,4.75,0,1,1-4.8,4.8A4.768,4.768,0,0,1,229.828,11078.7ZM83.3,11195.7a4.831,4.831,0,0,1,4.8,4.8,4.8,4.8,0,1,1-9.594,0A4.831,4.831,0,0,1,83.3,11195.7Zm-304.8-122a3.569,3.569,0,0,1,3.594,3.5,3.589,3.589,0,0,1-3.594,3.6,3.589,3.589,0,0,1-3.594-3.6A3.569,3.569,0,0,1-221.5,11073.7Zm-33.109,81.6a3.577,3.577,0,0,1,3.609,3.5,3.6,3.6,0,0,1-3.609,3.6,3.6,3.6,0,0,1-3.61-3.6A3.578,3.578,0,0,1-254.609,11155.3Zm161.265-55.7a3.589,3.589,0,0,1,3.594,3.6,3.655,3.655,0,0,1-3.594,3.6,3.655,3.655,0,0,1-3.594-3.6A3.589,3.589,0,0,1-93.344,11099.6Zm-49.672-32.2a4.831,4.831,0,0,1,4.8,4.8,4.767,4.767,0,0,1-4.8,4.8,4.768,4.768,0,0,1-4.8-4.8A4.832,4.832,0,0,1-143.016,11067.4Zm161.032-109a3.65,3.65,0,1,1-3.609,3.6A3.663,3.663,0,0,1,18.016,10958.4Zm-657.079-97.4a3.589,3.589,0,0,1,3.594,3.6,3.589,3.589,0,0,1-3.594,3.6,3.589,3.589,0,0,1-3.593-3.6A3.589,3.589,0,0,1-639.063,10861Zm-66.718,285.1a3.589,3.589,0,0,1,3.594,3.6,3.589,3.589,0,0,1-3.594,3.6,3.589,3.589,0,0,1-3.594-3.6A3.589,3.589,0,0,1-705.781,11146.1Zm-36-76.8a3.589,3.589,0,0,1,3.594,3.6,3.589,3.589,0,0,1-3.594,3.6,3.589,3.589,0,0,1-3.594-3.6A3.589,3.589,0,0,1-741.781,11069.3Zm525.094-115.2a3.589,3.589,0,0,1,3.593,3.6,3.589,3.589,0,0,1-3.593,3.6,3.589,3.589,0,0,1-3.594-3.6A3.589,3.589,0,0,1-216.687,10954.1Zm-52.079,38.4a4.831,4.831,0,0,1,4.8,4.8,4.767,4.767,0,0,1-4.8,4.8,4.768,4.768,0,0,1-4.8-4.8A4.832,4.832,0,0,1-268.766,10992.5Zm-211.187-50.9a4.832,4.832,0,0,1,4.8,4.8,4.853,4.853,0,0,1-4.8,4.9,4.853,4.853,0,0,1-4.8-4.9A4.832,4.832,0,0,1-479.953,10941.6Zm17.047-52.8a3.655,3.655,0,0,1,3.594,3.6,3.589,3.589,0,0,1-3.594,3.6,3.589,3.589,0,0,1-3.594-3.6A3.655,3.655,0,0,1-462.906,10888.8ZM-647.453,11066a4.768,4.768,0,0,1,4.8,4.8,4.832,4.832,0,0,1-4.8,4.8,4.832,4.832,0,0,1-4.8-4.8A4.768,4.768,0,0,1-647.453,11066Zm149.25,82.5a4.832,4.832,0,0,1,4.8,4.8,4.768,4.768,0,0,1-4.8,4.8,4.768,4.768,0,0,1-4.8-4.8A4.832,4.832,0,0,1-498.2,11148.5Zm108.969,27.4a4.767,4.767,0,0,1,4.8,4.8,4.831,4.831,0,0,1-4.8,4.8,4.831,4.831,0,0,1-4.8-4.8A4.767,4.767,0,0,1-389.234,11175.9Zm-121.438,30.7a4.768,4.768,0,0,1,4.8,4.8,4.768,4.768,0,0,1-4.8,4.8,4.768,4.768,0,0,1-4.8-4.8A4.768,4.768,0,0,1-510.672,11206.6Zm76.547,33.1a3.589,3.589,0,0,1,3.594,3.6,3.589,3.589,0,0,1-3.594,3.6,3.589,3.589,0,0,1-3.594-3.6A3.589,3.589,0,0,1-434.125,11239.7Zm300.7-9.1a4.768,4.768,0,0,1,4.8,4.8,4.768,4.768,0,0,1-4.8,4.8,4.768,4.768,0,0,1-4.8-4.8A4.768,4.768,0,0,1-133.422,11230.6Zm261.094-223.7a4.832,4.832,0,0,1,4.8,4.8,4.8,4.8,0,1,1-9.594,0A4.832,4.832,0,0,1,127.672,11006.9Zm-637.86,20.7a4.776,4.776,0,0,1,4.813,4.8,4.84,4.84,0,0,1-4.813,4.8,4.839,4.839,0,0,1-4.812-4.8A4.775,4.775,0,0,1-510.188,11027.6Zm-28.562-39.4a3.589,3.589,0,0,1,3.594,3.6,3.589,3.589,0,0,1-3.594,3.6,3.589,3.589,0,0,1-3.594-3.6A3.589,3.589,0,0,1-538.75,10988.2Zm190.8-75.9a4.832,4.832,0,0,1,4.8,4.8,4.768,4.768,0,0,1-4.8,4.8,4.768,4.768,0,0,1-4.8-4.8A4.832,4.832,0,0,1-347.953,10912.3Zm0,0a4.832,4.832,0,0,1,4.8,4.8,4.768,4.768,0,0,1-4.8,4.8,4.768,4.768,0,0,1-4.8-4.8A4.832,4.832,0,0,1-347.953,10912.3Zm418.375,414.1a4.831,4.831,0,0,1,4.8,4.8,4.8,4.8,0,1,1-9.594,0A4.831,4.831,0,0,1,70.422,11326.4Zm-407.813-248a4.831,4.831,0,0,1,4.8,4.8,4.767,4.767,0,0,1-4.8,4.8,4.768,4.768,0,0,1-4.8-4.8A4.832,4.832,0,0,1-337.391,11078.4Zm425.967-207.9a4.769,4.769,0,1,1-5.2,4.3A4.746,4.746,0,0,1,88.576,10870.5Zm-259.583,305.7a4.746,4.746,0,0,1,4.361,5.2,4.734,4.734,0,0,1-5.2,4.3,4.746,4.746,0,0,1-4.361-5.2A4.733,4.733,0,0,1-171.007,11176.2Zm513.818-75.7a4.818,4.818,0,0,1-.84,9.6,4.863,4.863,0,0,1-4.361-5.2A4.811,4.811,0,0,1,342.811,11100.5Zm-23.107,59.8a4.863,4.863,0,0,1,4.361,5.2,4.8,4.8,0,1,1-9.563-.8A4.882,4.882,0,0,1,319.7,11160.3Zm-617.436,53.7a4.746,4.746,0,0,1,4.361,5.2,4.734,4.734,0,0,1-5.2,4.3,4.746,4.746,0,0,1-4.361-5.2A4.734,4.734,0,0,1-297.732,11214Z" transform="translate(0 -10852.3)"/>
</svg>
