<svg xmlns="http://www.w3.org/2000/svg" width="684.781" height="500.3" viewBox="0 0 684.781 500.3"><defs><style>.cls-1{fill:#ececec;fill-rule:evenodd}</style></defs><path id="Grey_dots_lines_copy_4" data-name="Grey dots + lines copy 4" class="cls-1" d="M-591.2 10921.5l-46.546-55.9.338-.3 46.546 55.9zm111.067 24.8l-110.948-24.7.1-.4 110.947 24.7zm.261-.1l-.422-.1 17.3-53.7.423.2zm132.837-29.5l-115.791-24 .09-.4 115.791 23.9zM-670.3 10968l-.227-.3 79.376-46.5.227.4zm79.484 50.4h-.443v-97h.443v97zm52.746-26l-.275-.3 58.117-46.1.276.3zm-52.871 26.2l-.193-.4 52.83-26.2.193.4zm80.5 13.6l-27.949-39.8.363-.3 27.95 39.9zm70.512 31l-40.372-117 .42-.1 40.371 117zm-40.114-116.9l-.1-.4 133.093-29.7.1.5zm-30.006 85.9l-.42-.2 30.168-85.9.42.1zm-137.069 39l-23.513-103.3.433-.1 23.513 103.3zm-92.5 1v-.4l92.722-.9v.4zm92.874-.9l-.307-.3 55.863-52.7.307.3zm55.6 33.4l-55.863-33.4.219-.4 55.863 33.4zm.331-.2h-.443v-86.1h.443v86.1zm-.074.1l-.3-.3 80.78-72.4.294.4zm-113.507 43.3l-.355-.2 57.674-76.7.355.2zm69.7 3l-12.422-79.8h.439l12.422 79.8h-.445zm.21.2l-70.1-3.1.019-.4 70.1 3.1zm194.68-87.8l-70.539-31 .178-.4 70.54 31zm-151.172 41.4l-.115-.4 151.32-41.4.114.5zm-43.335 46.3l-.327-.3 43.441-46.4.327.3zm136.373 2.3l-93.2-48.6.211-.4 93.2 48.6zm.292-.1l-.372-.2 58.117-90 .373.3zm-93.537 38.2l-43.441-40.3.3-.4 43.441 40.4zm81.32 20l-81.223-20 .105-.4 81.224 20zm12.028-58.1l-136.643-2.2.007-.4 136.643 2.2zm-11.758 57.9l-.435-.1 11.979-58 .435.1zm-81.356-19.8l-.169-.4 93.2-38.1.168.4zm156.376 52.7l-63.441-90.9.364-.2 63.441 90.8zm44.934-62.4l-108.249-28.4.113-.4 108.249 28.4zm-44.84 62.5l-75.42-32.8.177-.4 75.42 32.8zm-113.189 12.1l-.265-.4 37.99-44.9.265.3zm113.458-12.2l-.361-.3 44.808-62.5.361.3zm44.423-62.5l-50.132-118.4.409-.1 50.132 118.3zm.4 0l-.392-.2 51.906-98 .392.2zm-.16.1l-.073-.4 134.868-22.6.073.4zm91.318 37.5l-91.464-37.5.219-.4 91.463 37.5zm-136.144 25l-.038-.5 136.272-24.9.038.4zm179.509-85.2l-82.962-75.3.3-.3 82.962 75.3zm-43.066 60.1l-.38-.2 43.405-60.1.379.2zm-100.645-220.9l-81.631-51.9.238-.4 81.63 51.9zm-40.953 65.1l-.375-.3 41.259-65.1.375.2zm41.26-65.2l-.377-.2 51.463-81.6.377.3zm60.548 85.6l-102.039-20.3.087-.5 102.038 20.4zm-.138 0l-60.78-85.6.363-.2 60.779 85.5zm122.117-125.8l-131.319-41.3.133-.4 131.319 41.2zm-52.6 38.9l-.263-.3 52.794-39 .263.3zm-69.167 86.9l-.346-.3 69.208-86.9.347.3zm-.395-.2l-9.316-167.1h.443l9.317 167.1h-.441zm69.272-86.7l-78.525-80.2.317-.3 78.525 80.2zm52.737-39.1l-23.069-90.4.43-.1 23.069 90.4zm-131.012-41.1l-.183-.4 108.249-49.2.184.4zm215.447 70.5l-84.292-29.2.145-.5 84.293 29.3zm-90.179 90.3l-47.026-80.6.383-.3 47.026 80.7zm-116.031 6.3l-.024-.4 116.235-6.2.024.4zm166.472 97.8l-50.438-104.1.378-.2 50.438 104zm.406-.1l-.435-.1 28.088-109.3h.435zm-50.64-103.9l-.03-.4 78.525-5.3.03.4zm-33.083 81.5l-.411-.2 33.274-81.6.41.2zm83.477 22.6l-83.712-22.5.059-.5 83.711 22.5zm-127 37.6l-.182-.4 127.116-37.6.182.4zm82.476-261.4l-.244-.3 120.672-79.8.244.4zm120.533-79.7l-143.741-10.6.033-.5 143.741 10.7zm38.854 91.2l-39.041-91.3.407-.2 39.041 91.3zm35.621-47.2l-74.569-44 .222-.4 74.569 44zm-35.237 47.2l-.36-.2 35.528-47.4.361.3zm35.433-47.2l-.171-.4 108.657-47.1.172.4zm39.092 40.1l-.347-.3 69.652-87.3.347.3zm-74.685 7.2l-.041-.4 74.532-7.1.041.4zm-37.115 133.8l-.343-.3 103.016-62 .343.2zm221.115-91.3l-109.58-49.6.184-.4 109.58 49.6zm-109.649-49.7l-39-40.2.322-.3 39 40.2zm47.351 120.2l-56.09-41.2.234-.4 56.09 41.2zm-55.965-41.2l-.016-.4 118.363-29.3.016.4zm.169-.1l-.353-.2 8.783-78.9.353.2zM-20.915 11075.2h-.222l30.7-34.2h.444l-30.7 34.2h-.444zm.444 59.4h-.444v-59.4h.444v59.4zm-.308.2l-72.314-31.6.171-.4 72.314 31.6zm-149.947 46.8l-.114-.5 150.089-46.7.114.4zm199.254 71.6l-49.444-118.6h.444l49.444 118.6h-.665zm.19.2l-199.533-71.8.062-.5 199.533 71.8zm-162.222-17.4l-.178-.4L28.44 11253l.178.4zm-.309-.2l-37.191-54.4.44-.1 37.191 54.4zm.193.2l-164.307-16.8.054-.4 164.307 16.7zm117.092 113.2l-.409-.2 45.482-95.9.409.2zm-49.182-22.6l-68.059-90.7.354-.3 68.059 90.7zm.375 0l-.4-.2 48.8 22.6.4.2zm-68.235-90.6l-.045-.5 116.861 113.4.045.5zm162.17 17.4l-.14-.4 55.045-54.3.141.4zm55.19-54.5l-.43-.1-17.7-116.7.43.1zm-104.627-64.1l-.154-.4L65.8 11082l.154.4zm104.356 64.3l-104.489-64.3.113-.4 104.489 64.3zm-12.346 132.2l-.333-.3 12.569-132.3.333.3zm-.237.1l-42.477-78 .14-.4 42.477 77.9zm-87.805 17.9l-.166-.4 87.959-17.9.166.4zm179.215-61.7l-91.391 43.8.1-.5 91.391-43.7zm-.144-.1l-78.824-88.5.393-.2 78.823 88.5zm-78.619-88.4l-.014-.4 66.314-42.3.014.5zm66.136-42.3l-84.012-74.5.341-.3 84.012 74.5zm12.781 130.8l-.2-.4 71.639-46.9.2.4zm71.321-47.1l-84.148-83.8.433-.1 84.148 83.8zm-167.862-158.1l-.165-.4 126.159-39 .164.4zm163.816 1.3l-37.928-40.4.376-.2 37.928 40.3zm.149.1l-164.086-1.4.078-.4 164.084 1.3zm-3.285 86.9l3.121-87.1.406-.1-3.121 87.1zm.134.2l-76.954-14 .139-.5 76.953 14zm7.282 69.8l-.038-.5-7.194-69.8.038.5zm-3.958-157l-.268-.3 87.18-39.7.268.3zm-.106.1l-.056-.5 112.523 21.3.056.4zm88.687 80.9l-88.813-81 .2-.4 88.813 81zm.292-.1l-.388-.2 23.71-59.7.388.2zm-92.037 6.3l-.182-.4 91.934-6.2.182.4zm-34.895-127.5l-.006-.5 125.108.7.006.5zm.138-.1l-.282-.3 62.554-43.4.282.3zm-.258.1l-63.885-31.5.234-.4 63.885 31.5zm-125.837 38.9l-.409-.2 62.274-70.5.409.2zm62.09-70.4l-.042-.4 126.439-12 .042.5zM317 11044l-62.554-44.1.278-.3 62.553 44.1zm25.34 61l-25.34-61 .284-.3 25.343 61zm-25.134-60.9l-.134-.5 106.5-2.3.133.4zm25.478 60.8l-.4-.2 81.161-63.3.4.2zm-.18.1l-.045-.4 130.828 5.3.045.4zm-23.685 59.7l-.094-.4 80.342-18.1.094.5zm80.471-18.1l-.352-.3 74.195-36.4.352.3zm-.332 0l-56.628-41.6.312-.3 56.632 41.6zm-20.988 42.8l20.944-42.8.4-.2-20.945 42.8zm.121.1l-59.4-24.8.156-.4 59.4 24.8zm95.056-79.3l-49.667-68.6.325-.3 49.666 68.6zm-49.4-68.5l-.217-.4 256.693-30.2.217.4zm256.477-30.2l-163.412-29.9.215-.4 163.412 29.9zm-256.371 30l-.429-.1 93.281-60.1.428.1zm-16.975-23.5l-.206-.4 110.144-36.4.206.4zm16.639 23.7l-16.863-23.7.243-.3 16.863 23.6zm93.368-60.1l-86.024-50.3.068-.5 86.024 50.4zm-110.331 36.3l24.12-86.8.442-.1-24.116 86.8zm-151.9-17.9l-.15-.4 152.194 18 .151.4zm-2.818-60.3L88.141 10875l.163-.4 163.705 64.7zm.184 0l-.206-.4 178.976-8.5.206.4zm154.68 78.3l-154.856-78.3.166-.4 154.857 78.3zm-278.438-6.1l-.224-.4 123.777-72.2.224.4zm-.325-.1l-39.928-137 .426-.1 39.928 137zm124.2-72.2l-.414-.2 32.386-84.6.414.1zm-473.354 137.7h-.444l5.768-119.7.443.1zm78.523-5.3h-.44l11.535-85.1h.44zm11.366-84.9l-.1-.4 75.419-17.7.1.4zm140.935 54l-65.75-71.8.366-.2 65.75 71.8zm-152.428 31.1l-.186-.4 152.7-31 .185.4zm-28.025 109.3l-.31-.3 77.775-78.3.31.3zm77.5-78.3l-49.689-31 .236-.4 49.688 31zm-37.825-116.2l-.422-.2 36.379-109 .421.1zm-407.213 5.4l-52.83-70.9.359-.2 52.83 70.8zm28.089 39.9l-80.78-13.6.08-.5 80.78 13.7zm676-83.3l-77.638-74.1.307-.3 77.638 74zm-37.366 62.8l-.381-.2 37.709-62.9.382.2zm37.543-62.8l-.048-.4 86.067-9.3.048.4zm-836.134 15.2a3.589 3.589 0 0 1 3.594 3.6 3.589 3.589 0 0 1-3.594 3.6 3.589 3.589 0 0 1-3.594-3.6 3.589 3.589 0 0 1 3.596-3.6zm230.375 95a3.655 3.655 0 0 1 3.594 3.6 3.589 3.589 0 0 1-3.594 3.6 3.589 3.589 0 0 1-3.594-3.6 3.655 3.655 0 0 1 3.596-3.6zm-194.391 88.4a3.6 3.6 0 0 1 3.61 3.6 3.663 3.663 0 0 1-3.61 3.6 3.663 3.663 0 0 1-3.609-3.6 3.6 3.6 0 0 1 3.611-3.6zm85.922 105.6a3.589 3.589 0 0 1 3.594 3.6 3.589 3.589 0 0 1-3.594 3.6 3.589 3.589 0 0 1-3.593-3.6 3.589 3.589 0 0 1 3.595-3.6zm309.578-388.9a3.684 3.684 0 0 1 3.61 3.7 3.663 3.663 0 0 1-3.61 3.6 3.663 3.663 0 0 1-3.609-3.6 3.683 3.683 0 0 1 3.611-3.7zm182.86 100.9a3.589 3.589 0 0 1 3.594 3.6 3.589 3.589 0 0 1-3.594 3.6 3.589 3.589 0 0 1-3.594-3.6 3.589 3.589 0 0 1 3.596-3.6zm-39.359-90.3a3.6 3.6 0 0 1 3.609 3.6 3.6 3.6 0 0 1-3.609 3.6 3.6 3.6 0 0 1-3.609-3.6 3.6 3.6 0 0 1 3.61-3.6zm-36.468 108.5a3.6 3.6 0 0 1 3.609 3.6 3.6 3.6 0 0 1-3.609 3.6 3.6 3.6 0 0 1-3.61-3.6 3.6 3.6 0 0 1 3.611-3.6zm197.547 95.2a3.6 3.6 0 1 1-3.594 3.6 3.589 3.589 0 0 1 3.595-3.6zm160.766 88.1a3.6 3.6 0 1 1-3.609 3.6 3.6 3.6 0 0 1 3.609-3.6zm151.219 18.9a3.6 3.6 0 1 1-3.609 3.6 3.6 3.6 0 0 1 3.612-3.6zM150 11154.3a3.6 3.6 0 1 1-3.594 3.6 3.589 3.589 0 0 1 3.594-3.6zm166.547-114a3.6 3.6 0 1 1-3.61 3.6 3.6 3.6 0 0 1 3.61-3.6zM162 11283.8a3.6 3.6 0 1 1-3.594 3.6 3.589 3.589 0 0 1 3.594-3.6zm30.234-243.6a3.6 3.6 0 1 1-3.609 3.6 3.6 3.6 0 0 1 3.609-3.6zm-25.922-95.2a3.6 3.6 0 1 1-3.593 3.6 3.589 3.589 0 0 1 3.593-3.6zm85.438-8.2a3.655 3.655 0 0 1 3.594 3.6 3.594 3.594 0 1 1-7.188 0 3.655 3.655 0 0 1 3.594-3.6zm-268.781 408.6a3.589 3.589 0 0 1 3.594 3.6 3.589 3.589 0 0 1-3.594 3.6 3.589 3.589 0 0 1-3.594-3.6 3.589 3.589 0 0 1 3.594-3.6zm423.469-331.4a3.6 3.6 0 1 1-3.594 3.6 3.589 3.589 0 0 1 3.594-3.6zm-151.813-16.7a3.6 3.6 0 1 1-3.594 3.6 3.589 3.589 0 0 1 3.594-3.6zm262.875-18.5a3.6 3.6 0 1 1-3.594 3.6 3.589 3.589 0 0 1 3.594-3.6zm-94.234 59.2a3.6 3.6 0 0 1 3.609 3.6 3.61 3.61 0 0 1-7.219 0 3.6 3.6 0 0 1 3.61-3.6zm-189.688 199.3a3.6 3.6 0 1 1-3.609 3.6 3.6 3.6 0 0 1 3.609-3.6zm164.547-95a3.6 3.6 0 1 1-3.594 3.6 3.589 3.589 0 0 1 3.594-3.6zm283.047-134.3a3.6 3.6 0 1 1-3.61 3.6 3.6 3.6 0 0 1 3.61-3.6zm-250.313-81a4.831 4.831 0 0 1 4.8 4.8 4.8 4.8 0 1 1-9.594 0 4.832 4.832 0 0 1 4.794-4.8zm-146.468-74.7a3.65 3.65 0 1 1-3.61 3.7 3.683 3.683 0 0 1 3.61-3.7zm187.828 254.4a3.6 3.6 0 1 1-3.594 3.6 3.589 3.589 0 0 1 3.594-3.6zm-242.391-28a4.75 4.75 0 1 1-4.8 4.8 4.768 4.768 0 0 1 4.8-4.8zm-146.528 117a4.831 4.831 0 0 1 4.8 4.8 4.8 4.8 0 1 1-9.594 0 4.831 4.831 0 0 1 4.794-4.8zm-304.8-122a3.569 3.569 0 0 1 3.594 3.5 3.589 3.589 0 0 1-3.594 3.6 3.589 3.589 0 0 1-3.594-3.6 3.569 3.569 0 0 1 3.594-3.5zm-33.109 81.6a3.577 3.577 0 0 1 3.609 3.5 3.6 3.6 0 0 1-3.609 3.6 3.6 3.6 0 0 1-3.61-3.6 3.578 3.578 0 0 1 3.61-3.5zm161.265-55.7a3.589 3.589 0 0 1 3.594 3.6 3.655 3.655 0 0 1-3.594 3.6 3.655 3.655 0 0 1-3.594-3.6 3.589 3.589 0 0 1 3.594-3.6zm-49.672-32.2a4.831 4.831 0 0 1 4.8 4.8 4.767 4.767 0 0 1-4.8 4.8 4.768 4.768 0 0 1-4.8-4.8 4.832 4.832 0 0 1 4.8-4.8zm161.032-109a3.65 3.65 0 1 1-3.609 3.6 3.663 3.663 0 0 1 3.609-3.6zm-657.079-97.4a3.589 3.589 0 0 1 3.594 3.6 3.589 3.589 0 0 1-3.594 3.6 3.589 3.589 0 0 1-3.593-3.6 3.589 3.589 0 0 1 3.593-3.6zm-66.718 285.1a3.589 3.589 0 0 1 3.594 3.6 3.589 3.589 0 0 1-3.594 3.6 3.589 3.589 0 0 1-3.594-3.6 3.589 3.589 0 0 1 3.594-3.6zm-36-76.8a3.589 3.589 0 0 1 3.594 3.6 3.589 3.589 0 0 1-3.594 3.6 3.589 3.589 0 0 1-3.594-3.6 3.589 3.589 0 0 1 3.594-3.6zm525.094-115.2a3.589 3.589 0 0 1 3.593 3.6 3.589 3.589 0 0 1-3.593 3.6 3.589 3.589 0 0 1-3.594-3.6 3.589 3.589 0 0 1 3.594-3.6zm-52.079 38.4a4.831 4.831 0 0 1 4.8 4.8 4.767 4.767 0 0 1-4.8 4.8 4.768 4.768 0 0 1-4.8-4.8 4.832 4.832 0 0 1 4.8-4.8zm-211.187-50.9a4.832 4.832 0 0 1 4.8 4.8 4.853 4.853 0 0 1-4.8 4.9 4.853 4.853 0 0 1-4.8-4.9 4.832 4.832 0 0 1 4.8-4.8zm17.047-52.8a3.655 3.655 0 0 1 3.594 3.6 3.589 3.589 0 0 1-3.594 3.6 3.589 3.589 0 0 1-3.594-3.6 3.655 3.655 0 0 1 3.594-3.6zm-184.547 177.2a4.768 4.768 0 0 1 4.8 4.8 4.832 4.832 0 0 1-4.8 4.8 4.832 4.832 0 0 1-4.8-4.8 4.768 4.768 0 0 1 4.8-4.8zm149.25 82.5a4.832 4.832 0 0 1 4.8 4.8 4.768 4.768 0 0 1-4.8 4.8 4.768 4.768 0 0 1-4.8-4.8 4.832 4.832 0 0 1 4.803-4.8zm108.969 27.4a4.767 4.767 0 0 1 4.8 4.8 4.831 4.831 0 0 1-4.8 4.8 4.831 4.831 0 0 1-4.8-4.8 4.767 4.767 0 0 1 4.8-4.8zm-121.438 30.7a4.768 4.768 0 0 1 4.8 4.8 4.768 4.768 0 0 1-4.8 4.8 4.768 4.768 0 0 1-4.8-4.8 4.768 4.768 0 0 1 4.8-4.8zm76.547 33.1a3.589 3.589 0 0 1 3.594 3.6 3.589 3.589 0 0 1-3.594 3.6 3.589 3.589 0 0 1-3.594-3.6 3.589 3.589 0 0 1 3.594-3.6zm300.7-9.1a4.768 4.768 0 0 1 4.8 4.8 4.768 4.768 0 0 1-4.8 4.8 4.768 4.768 0 0 1-4.8-4.8 4.768 4.768 0 0 1 4.803-4.8zm261.094-223.7a4.832 4.832 0 0 1 4.8 4.8 4.8 4.8 0 1 1-9.594 0 4.832 4.832 0 0 1 4.797-4.8zm-637.86 20.7a4.776 4.776 0 0 1 4.813 4.8 4.84 4.84 0 0 1-4.813 4.8 4.839 4.839 0 0 1-4.812-4.8 4.775 4.775 0 0 1 4.815-4.8zm-28.562-39.4a3.589 3.589 0 0 1 3.594 3.6 3.589 3.589 0 0 1-3.594 3.6 3.589 3.589 0 0 1-3.594-3.6 3.589 3.589 0 0 1 3.597-3.6zm190.8-75.9a4.832 4.832 0 0 1 4.8 4.8 4.768 4.768 0 0 1-4.8 4.8 4.768 4.768 0 0 1-4.8-4.8 4.832 4.832 0 0 1 4.8-4.8zm0 0a4.832 4.832 0 0 1 4.8 4.8 4.768 4.768 0 0 1-4.8 4.8 4.768 4.768 0 0 1-4.8-4.8 4.832 4.832 0 0 1 4.8-4.8zm418.375 414.1a4.831 4.831 0 0 1 4.8 4.8 4.8 4.8 0 1 1-9.594 0 4.831 4.831 0 0 1 4.794-4.8zm-407.813-248a4.831 4.831 0 0 1 4.8 4.8 4.767 4.767 0 0 1-4.8 4.8 4.768 4.768 0 0 1-4.8-4.8 4.832 4.832 0 0 1 4.8-4.8zm425.967-207.9a4.769 4.769 0 1 1-5.2 4.3 4.746 4.746 0 0 1 5.2-4.3zm-259.583 305.7a4.746 4.746 0 0 1 4.361 5.2 4.734 4.734 0 0 1-5.2 4.3 4.746 4.746 0 0 1-4.361-5.2 4.733 4.733 0 0 1 5.2-4.3zm513.818-75.7a4.818 4.818 0 0 1-.84 9.6 4.863 4.863 0 0 1-4.361-5.2 4.811 4.811 0 0 1 5.201-4.4zm-23.107 59.8a4.863 4.863 0 0 1 4.361 5.2 4.8 4.8 0 1 1-9.563-.8 4.882 4.882 0 0 1 5.198-4.4zm-617.436 53.7a4.746 4.746 0 0 1 4.361 5.2 4.734 4.734 0 0 1-5.2 4.3 4.746 4.746 0 0 1-4.361-5.2 4.734 4.734 0 0 1 5.2-4.3z" transform="translate(0 -10852.3)"/></svg>