<svg version="1.1" xmlns="http://www.w3.org/2000/svg" xmlns:xlink="http://www.w3.org/1999/xlink" width="30" height="30" viewBox="0 0 30 30"><path id="mail" d="M15.000,19.365 L1.875,9.375 L14.981,2.185 L28.125,9.375 L15.000,19.365 L15.000,19.365 zM28.125,26.250 C28.125,26.440 28.088,26.620 28.036,26.792 C28.036,26.792 19.627,18.382 19.627,18.382 L28.125,11.602 L28.125,26.250 C28.125,26.250 28.125,26.250 28.125,26.250 zM3.334,28.074 L11.946,19.463 L15.000,21.563 L18.054,19.463 C18.054,19.463 26.666,28.074 26.666,28.074 C26.532,28.105 3.468,28.105 3.334,28.074 C3.334,28.074 3.334,28.074 3.334,28.074 zM1.875,26.250 L1.875,11.602 L10.374,18.382 C10.374,18.382 1.964,26.792 1.964,26.792 C1.912,26.620 1.875,26.440 1.875,26.250 C1.875,26.250 1.875,26.250 1.875,26.250 zM15.000,0.000 L-0.000,8.438 C-0.000,8.438 -0.000,26.250 -0.000,26.250 C-0.000,28.321 1.679,30.000 3.750,30.000 C3.750,30.000 26.250,30.000 26.250,30.000 C28.321,30.000 30.000,28.321 30.000,26.250 C30.000,26.250 30.000,8.438 30.000,8.438 L15.000,0.000 L15.000,0.000 z" fill="#FF2F4F" /></svg>