<svg xmlns="http://www.w3.org/2000/svg" width="29" height="29" viewBox="0 0 29 29"><path d="M2.21 7.255c-.353-.706-.547-2.175.123-2.805l1.709-1.708c.471-.472 1.236-.631 1.708 0l2.563 3.416c.392.578.472 1.237 0 1.708l-2.156 2.156c4.4 7.153 12.31 12.349 12.806 12.698l2.105-2.105c.473-.471 1.13-.391 1.709 0l3.417 2.563c.512.432.353 1.116 0 1.707l-1.708 1.708c-.472.472-2.189.448-2.807.123 0 0-8.013-5.039-11.412-8.724-2.948-3.066-6.471-7.716-8.057-10.737zM.869 3.23c-1.484 1.483-.77 3.252 0 5.368 0 0 3.692 6.289 8.465 11.061 5.075 5.072 11.002 8.398 11.002 8.398 1.958 1.008 3.887 1.483 5.37 0l2.686-2.683c.741-.742.9-2.063 0-2.684l-5.371-4.026c-.909-.617-1.944-.742-2.685 0l-1.589 1.587c-1.862-1.39-3.934-3.082-5.796-4.943-1.647-1.646-3.11-3.43-4.328-5.067l1.644-1.643c.741-.741.615-1.776 0-2.684L6.239.547a1.898 1.898 0 0 0-2.685 0L.869 3.23z" fill="#FF2F4F"/></svg>