<svg version="1.1" xmlns="http://www.w3.org/2000/svg" xmlns:xlink="http://www.w3.org/1999/xlink" width="29" height="29" viewBox="0 0 29 29"><path id="phone" d="M2.210,7.255 C1.857,6.549 1.663,5.080 2.333,4.450 C2.333,4.450 4.042,2.742 4.042,2.742 C4.513,2.270 5.278,2.111 5.750,2.742 C5.750,2.742 8.313,6.158 8.313,6.158 C8.705,6.736 8.785,7.395 8.313,7.866 C8.313,7.866 6.157,10.022 6.157,10.022 C10.557,17.175 18.467,22.371 18.963,22.720 C18.963,22.720 21.068,20.615 21.068,20.615 C21.541,20.144 22.198,20.224 22.777,20.615 C22.777,20.615 26.194,23.178 26.194,23.178 C26.706,23.610 26.547,24.294 26.194,24.885 C26.194,24.885 24.486,26.593 24.486,26.593 C24.014,27.065 22.297,27.041 21.679,26.716 C21.679,26.716 13.666,21.677 10.267,17.992 C7.319,14.926 3.796,10.276 2.210,7.255 C2.210,7.255 2.210,7.255 2.210,7.255 zM0.869,3.230 C-0.615,4.713 0.099,6.482 0.869,8.598 C0.869,8.598 4.561,14.887 9.334,19.659 C14.409,24.731 20.336,28.057 20.336,28.057 C22.294,29.065 24.223,29.540 25.706,28.057 C25.706,28.057 28.392,25.374 28.392,25.374 C29.133,24.632 29.292,23.311 28.392,22.690 C28.392,22.690 23.021,18.664 23.021,18.664 C22.112,18.047 21.077,17.922 20.336,18.664 C20.336,18.664 18.747,20.251 18.747,20.251 C16.885,18.861 14.813,17.169 12.951,15.308 C11.304,13.662 9.841,11.878 8.623,10.241 C8.623,10.241 10.267,8.598 10.267,8.598 C11.008,7.857 10.882,6.822 10.267,5.914 C10.267,5.914 6.239,0.547 6.239,0.547 C5.497,-0.195 4.295,-0.195 3.554,0.547 C3.554,0.547 0.869,3.230 0.869,3.230 C0.869,3.230 0.869,3.230 0.869,3.230 z" fill="#FF2F4F" /></svg>