<svg xmlns="http://www.w3.org/2000/svg" width="35" height="34" viewBox="0 0 35 34"><defs><filter id="a" filterUnits="userSpaceOnUse"><feFlood flood-color="#FF2F4F" flood-opacity="1"/><feComposite operator="in" in2="SourceGraphic"/><feBlend in2="SourceGraphic" result="colorOverlay"/></filter></defs><path d="M32.139 31.527c-1.858 1.86-3.663 2.567-6.279 2.462-1.609-.078-2.603-.34-3.793-1.06l-.837-.498-1.518.223c-2.223.327-4.839.091-7.207-.655-1.831-.563-4.644-2.344-6.122-3.864-1.569-1.624-3.191-4.23-3.754-6.024-.745-2.37-.981-4.977-.654-7.216l.223-1.519-.497-.838C.981 11.346.72 10.35.641 8.74.536 6.12 1.243 4.313 3.1 2.453 4.317 1.235 5.507.528 6.959.162c1.086-.262 3.532-.197 4.578.131.432.144 1.164.484 1.635.759l.837.498 1.518-.223c2.223-.327 4.839-.092 7.207.655 1.831.563 4.643 2.344 6.122 3.863 1.569 1.624 3.191 4.23 3.754 6.025.745 2.37.981 4.976.654 7.216l-.223 1.519.497.838c.72 1.192.981 2.187 1.06 3.798.105 2.619-.602 4.427-2.459 6.286zm.235-6.155c-.052-1.506-.222-2.004-1.229-3.562l-.484-.747.248-1.218c.353-1.755.34-4.492-.052-6.011-1.269-5.016-5.075-8.827-10.085-10.097-1.517-.393-4.395-.419-6.069-.053l-1.152.236-.745-.471a15.412 15.412 0 0 0-1.465-.838c-.628-.302-.903-.354-2.158-.38-1.151-.026-1.57.013-2.119.222-1.832.668-3.336 2.201-3.99 4.047-.209.59-.248.996-.209 2.109.052 1.506.222 2.003 1.229 3.562l.484.746-.248 1.218c-.353 1.755-.34 4.492.052 6.012 1.269 5.015 5.075 8.826 10.085 10.097 1.517.393 4.395.419 6.069.052l1.152-.236.745.472c1.557 1.008 2.054 1.179 3.558 1.231 1.112.039 1.517 0 2.106-.21a6.698 6.698 0 0 0 4.055-4.059c.222-.616.261-.996.222-2.122zM16.115 14.607c.824.275 3.65.943 3.99.943.118 0 .641.17 1.177.38 3.545 1.362 4.565 2.697 4.068 5.264-.275 1.388-1.203 2.567-2.538 3.235-1.373.681-4.211 1.153-6.174 1.009-2.668-.197-4.525-.878-5.768-2.122-.667-.655-.811-.891-.968-1.519-.262-1.1-.052-1.677.733-2.056 1.072-.524 1.975-.21 2.733.943.563.851 1.701 1.781 2.473 2.003.392.118 1.177.197 1.962.197 1.111 0 1.425-.053 1.975-.315 1.125-.51 1.648-1.532 1.229-2.344-.431-.838-1.295-1.323-3.047-1.729-2.106-.471-4.814-1.309-5.638-1.741-.785-.393-1.871-1.493-2.106-2.096-.353-.93-.301-2.174.105-2.973.876-1.689 3.021-2.894 5.533-3.117 1.517-.131 3.231.014 4.826.433 1.766.445 3.074 1.309 3.611 2.37.431.825.353 1.388-.262 1.978-.497.458-.589.497-1.282.497-.824 0-1.177-.209-2.459-1.519-.981-.982-1.661-1.27-3.113-1.283-1.452-.013-2.25.248-2.747.903-.824 1.087-.236 2.017 1.687 2.659z" filter="url(#a)"/></svg>