<svg version="1.1" xmlns="http://www.w3.org/2000/svg" xmlns:xlink="http://www.w3.org/1999/xlink" width="361" height="24" viewBox="0 0 361 24"><g id="timeLine"><path id="Rectangle-31-cop" d="M237.000,24.000 L237.000,22.000 L238.000,22.000 L238.000,24.000 L237.000,24.000 zM234.000,22.000 L235.000,22.000 L235.000,24.000 L234.000,24.000 L234.000,22.000 zM231.000,22.000 L232.000,22.000 L232.000,24.000 L231.000,24.000 L231.000,22.000 zM228.000,22.000 L229.000,22.000 L229.000,24.000 L228.000,24.000 L228.000,22.000 zM225.000,20.031 L226.000,20.031 L226.000,24.000 L225.000,24.000 L225.000,20.031 zM222.000,22.000 L223.000,22.000 L223.000,24.000 L222.000,24.000 L222.000,22.000 zM219.031,22.000 L220.031,22.000 L220.031,24.000 L219.031,24.000 L219.031,22.000 zM216.000,22.000 L217.000,22.000 L217.000,24.000 L216.000,24.000 L216.000,22.000 zM213.000,22.000 L214.000,22.000 L214.000,24.000 L213.000,24.000 L213.000,22.000 zM56.969,22.000 L57.969,22.000 L57.969,24.000 L56.969,24.000 L56.969,22.000 zM53.969,22.000 L54.969,22.000 L54.969,24.000 L53.969,24.000 L53.969,22.000 zM50.969,22.000 L51.969,22.000 L51.969,24.000 L50.969,24.000 L50.969,22.000 zM47.969,22.000 L48.969,22.000 L48.969,24.000 L47.969,24.000 L47.969,22.000 zM45.000,20.031 L46.000,20.031 L46.000,24.000 L45.000,24.000 L45.000,20.031 zM42.000,22.000 L43.000,22.000 L43.000,24.000 L42.000,24.000 L42.000,22.000 zM39.000,22.000 L40.000,22.000 L40.000,24.000 L39.000,24.000 L39.000,22.000 zM36.000,22.000 L37.000,22.000 L37.000,24.000 L36.000,24.000 L36.000,22.000 zM33.000,22.000 L34.000,22.000 L34.000,24.000 L33.000,24.000 L33.000,22.000 zM30.000,18.000 L31.000,18.000 L31.000,24.000 L30.000,24.000 L30.000,18.000 z" fill="#CCCCCC" /><path id="Rectangle-31-cop" d="M27.000,24.000 L27.000,22.000 L28.000,22.000 L28.000,24.000 L27.000,24.000 zM24.000,22.000 L25.000,22.000 L25.000,24.000 L24.000,24.000 L24.000,22.000 zM21.000,22.000 L22.000,22.000 L22.000,24.000 L21.000,24.000 L21.000,22.000 zM18.000,22.000 L19.000,22.000 L19.000,24.000 L18.000,24.000 L18.000,22.000 zM15.000,20.031 L16.000,20.031 L16.000,24.000 L15.000,24.000 L15.000,20.031 zM12.000,22.000 L13.000,22.000 L13.000,24.000 L12.000,24.000 L12.000,22.000 zM9.000,22.000 L10.000,22.000 L10.000,24.000 L9.000,24.000 L9.000,22.000 zM6.000,22.000 L7.000,22.000 L7.000,24.000 L6.000,24.000 L6.000,22.000 zM3.000,22.000 L4.000,22.000 L4.000,24.000 L3.000,24.000 L3.000,22.000 zM-0.000,18.000 L1.000,18.000 L1.000,24.000 L-0.000,24.000 L-0.000,18.000 z" fill="#CCCCCC" /><path id="Rectangle-31-cop" d="M360.009,23.998 L360.009,17.970 L361.010,17.970 L361.010,23.998 L360.009,23.998 zM357.000,22.000 L358.000,22.000 L358.000,24.000 L357.000,24.000 L357.000,22.000 zM354.000,22.000 L355.000,22.000 L355.000,24.000 L354.000,24.000 L354.000,22.000 zM351.000,22.000 L352.000,22.000 L352.000,24.000 L351.000,24.000 L351.000,22.000 zM348.000,22.000 L349.000,22.000 L349.000,24.000 L348.000,24.000 L348.000,22.000 zM345.000,20.000 L346.000,20.000 L346.000,24.000 L345.000,24.000 L345.000,20.000 zM342.000,22.000 L343.000,22.000 L343.000,24.000 L342.000,24.000 L342.000,22.000 zM339.000,22.000 L340.000,22.000 L340.000,24.000 L339.000,24.000 L339.000,22.000 zM336.000,22.000 L337.000,22.000 L337.000,24.000 L336.000,24.000 L336.000,22.000 zM333.000,22.000 L334.000,22.000 L334.000,24.000 L333.000,24.000 L333.000,22.000 zM329.969,17.969 L331.000,17.969 L331.000,24.000 L329.969,24.000 L329.969,17.969 zM326.969,22.000 L327.969,22.000 L327.969,24.000 L326.969,24.000 L326.969,22.000 zM323.969,22.000 L324.969,22.000 L324.969,24.000 L323.969,24.000 L323.969,22.000 zM320.969,22.000 L321.969,22.000 L321.969,24.000 L320.969,24.000 L320.969,22.000 zM317.969,22.000 L318.969,22.000 L318.969,24.000 L317.969,24.000 L317.969,22.000 zM314.969,20.000 L315.969,20.000 L315.969,24.000 L314.969,24.000 L314.969,20.000 zM311.969,22.000 L312.969,22.000 L312.969,24.000 L311.969,24.000 L311.969,22.000 zM308.969,22.000 L309.969,22.000 L309.969,24.000 L308.969,24.000 L308.969,22.000 zM305.969,22.000 L306.969,22.000 L306.969,24.000 L305.969,24.000 L305.969,22.000 zM302.969,22.000 L303.969,22.000 L303.969,24.000 L302.969,24.000 L302.969,22.000 z" fill="#CCCCCC" /><path id="Rectangle-31-cop" d="M207.000,24.000 L207.000,22.000 L208.000,22.000 L208.000,24.000 L207.000,24.000 zM204.000,22.000 L205.000,22.000 L205.000,24.000 L204.000,24.000 L204.000,22.000 zM201.000,22.000 L202.000,22.000 L202.000,24.000 L201.000,24.000 L201.000,22.000 zM198.000,22.000 L199.000,22.000 L199.000,24.000 L198.000,24.000 L198.000,22.000 zM195.000,20.031 L196.000,20.031 L196.000,24.000 L195.000,24.000 L195.000,20.031 zM192.031,22.000 L193.031,22.000 L193.031,24.000 L192.031,24.000 L192.031,22.000 zM189.031,22.000 L190.031,22.000 L190.031,24.000 L189.031,24.000 L189.031,22.000 zM186.031,22.000 L187.031,22.000 L187.031,24.000 L186.031,24.000 L186.031,22.000 zM183.031,22.000 L184.031,22.000 L184.031,24.000 L183.031,24.000 L183.031,22.000 zM180.031,18.000 L181.031,18.000 L181.031,24.000 L180.031,24.000 L180.031,18.000 zM177.000,22.000 L178.000,22.000 L178.000,24.000 L177.000,24.000 L177.000,22.000 zM174.000,22.000 L175.000,22.000 L175.000,24.000 L174.000,24.000 L174.000,22.000 zM171.000,22.000 L172.000,22.000 L172.000,24.000 L171.000,24.000 L171.000,22.000 zM168.000,22.000 L169.000,22.000 L169.000,24.000 L168.000,24.000 L168.000,22.000 zM165.000,20.031 L166.000,20.031 L166.000,24.000 L165.000,24.000 L165.000,20.031 zM162.031,22.000 L163.031,22.000 L163.031,24.000 L162.031,24.000 L162.031,22.000 zM159.031,22.000 L160.031,22.000 L160.031,24.000 L159.031,24.000 L159.031,22.000 zM156.031,22.000 L157.031,22.000 L157.031,24.000 L156.031,24.000 L156.031,22.000 zM153.031,22.000 L154.031,22.000 L154.031,24.000 L153.031,24.000 L153.031,22.000 zM150.031,18.000 L151.031,18.000 L151.031,24.000 L150.031,24.000 L150.031,18.000 zM147.031,22.000 L148.031,22.000 L148.031,24.000 L147.031,24.000 L147.031,22.000 zM144.031,22.000 L145.031,22.000 L145.031,24.000 L144.031,24.000 L144.031,22.000 zM141.000,22.000 L142.000,22.000 L142.000,24.000 L141.000,24.000 L141.000,22.000 zM138.000,22.000 L139.000,22.000 L139.000,24.000 L138.000,24.000 L138.000,22.000 zM135.000,20.031 L136.000,20.031 L136.000,24.000 L135.000,24.000 L135.000,20.031 zM132.031,22.000 L133.031,22.000 L133.031,24.000 L132.031,24.000 L132.031,22.000 zM129.000,22.000 L130.031,22.000 L130.031,24.000 L129.000,24.000 L129.000,22.000 zM126.000,22.000 L127.000,22.000 L127.000,24.000 L126.000,24.000 L126.000,22.000 zM123.000,22.000 L124.000,22.000 L124.000,24.000 L123.000,24.000 L123.000,22.000 zM120.000,18.000 L121.000,18.000 L121.000,24.000 L120.000,24.000 L120.000,18.000 zM117.000,22.000 L118.000,22.000 L118.000,24.000 L117.000,24.000 L117.000,22.000 zM114.000,22.000 L115.000,22.000 L115.000,24.000 L114.000,24.000 L114.000,22.000 zM111.000,22.000 L112.000,22.000 L112.000,24.000 L111.000,24.000 L111.000,22.000 zM108.000,22.000 L109.000,22.000 L109.000,24.000 L108.000,24.000 L108.000,22.000 zM105.000,20.031 L106.000,20.031 L106.000,24.000 L105.000,24.000 L105.000,20.031 zM102.000,22.000 L103.000,22.000 L103.000,24.000 L102.000,24.000 L102.000,22.000 zM99.000,22.000 L100.000,22.000 L100.000,24.000 L99.000,24.000 L99.000,22.000 zM96.000,22.000 L97.000,22.000 L97.000,24.000 L96.000,24.000 L96.000,22.000 zM93.000,22.000 L94.000,22.000 L94.000,24.000 L93.000,24.000 L93.000,22.000 zM90.000,18.000 L91.000,18.000 L91.000,24.000 L90.000,24.000 L90.000,18.000 zM87.000,22.000 L88.000,22.000 L88.000,24.000 L87.000,24.000 L87.000,22.000 zM84.000,22.000 L85.000,22.000 L85.000,24.000 L84.000,24.000 L84.000,22.000 zM81.000,22.000 L82.000,22.000 L82.000,24.000 L81.000,24.000 L81.000,22.000 zM78.000,22.000 L79.000,22.000 L79.000,24.000 L78.000,24.000 L78.000,22.000 zM75.000,20.031 L76.000,20.031 L76.000,24.000 L75.000,24.000 L75.000,20.031 zM72.031,22.000 L73.031,22.000 L73.031,24.000 L72.031,24.000 L72.031,22.000 zM69.031,22.000 L70.031,22.000 L70.031,24.000 L69.031,24.000 L69.031,22.000 zM66.000,22.000 L67.031,22.000 L67.031,24.000 L66.000,24.000 L66.000,22.000 zM63.000,22.000 L64.000,22.000 L64.000,24.000 L63.000,24.000 L63.000,22.000 zM60.000,18.000 L61.000,18.000 L61.000,24.000 L60.000,24.000 L60.000,18.000 z" fill="#FF2F4F" /><path id="Rectangle-31-cop" d="M300.000,24.000 L300.000,18.000 L301.000,18.000 L301.000,24.000 L300.000,24.000 zM297.000,22.000 L298.000,22.000 L298.000,24.000 L297.000,24.000 L297.000,22.000 zM294.000,22.000 L295.000,22.000 L295.000,24.000 L294.000,24.000 L294.000,22.000 zM290.969,22.000 L291.969,22.000 L291.969,24.000 L290.969,24.000 L290.969,22.000 zM287.969,22.000 L288.969,22.000 L288.969,24.000 L287.969,24.000 L287.969,22.000 zM285.000,20.031 L285.969,20.031 L285.969,24.000 L285.000,24.000 L285.000,20.031 zM282.000,22.000 L283.000,22.000 L283.000,24.000 L282.000,24.000 L282.000,22.000 zM279.000,22.000 L280.000,22.000 L280.000,24.000 L279.000,24.000 L279.000,22.000 zM276.000,22.000 L277.000,22.000 L277.000,24.000 L276.000,24.000 L276.000,22.000 zM273.000,22.000 L274.000,22.000 L274.000,24.000 L273.000,24.000 L273.000,22.000 zM270.000,18.000 L271.000,18.000 L271.000,24.000 L270.000,24.000 L270.000,18.000 zM267.000,22.000 L268.000,22.000 L268.000,24.000 L267.000,24.000 L267.000,22.000 zM264.000,22.000 L265.000,22.000 L265.000,24.000 L264.000,24.000 L264.000,22.000 zM261.000,22.000 L262.000,22.000 L262.000,24.000 L261.000,24.000 L261.000,22.000 zM258.000,22.000 L259.000,22.000 L259.000,24.000 L258.000,24.000 L258.000,22.000 zM255.000,20.031 L256.000,20.031 L256.000,24.000 L255.000,24.000 L255.000,20.031 zM252.000,22.000 L253.000,22.000 L253.000,24.000 L252.000,24.000 L252.000,22.000 zM249.000,22.000 L250.000,22.000 L250.000,24.000 L249.000,24.000 L249.000,22.000 zM246.000,22.000 L247.000,22.000 L247.000,24.000 L246.000,24.000 L246.000,22.000 zM243.000,22.000 L244.000,22.000 L244.000,24.000 L243.000,24.000 L243.000,22.000 zM240.000,18.000 L241.000,18.000 L241.000,24.000 L240.000,24.000 L240.000,18.000 zM237.000,22.000 L238.000,22.000 L238.000,24.000 L237.000,24.000 L237.000,22.000 zM234.000,22.000 L235.000,22.000 L235.000,24.000 L234.000,24.000 L234.000,22.000 zM231.000,22.000 L232.000,22.000 L232.000,24.000 L231.000,24.000 L231.000,22.000 zM228.000,22.000 L229.000,22.000 L229.000,24.000 L228.000,24.000 L228.000,22.000 zM225.031,20.031 L226.000,20.031 L226.000,24.000 L225.031,24.000 L225.031,20.031 zM222.031,22.000 L223.031,22.000 L223.031,24.000 L222.031,24.000 L222.031,22.000 zM219.031,22.000 L220.031,22.000 L220.031,24.000 L219.031,24.000 L219.031,22.000 zM216.000,22.000 L217.000,22.000 L217.000,24.000 L216.000,24.000 L216.000,22.000 zM213.000,22.000 L214.000,22.000 L214.000,24.000 L213.000,24.000 L213.000,22.000 zM210.000,18.000 L211.000,18.000 L211.000,24.000 L210.000,24.000 L210.000,18.000 z" fill="#FF2F4F" /><path id="10:00" d="M76.466,9.799 C75.930,10.646 75.119,11.070 74.034,11.070 C72.989,11.070 72.195,10.634 71.653,9.761 C71.110,8.889 70.838,7.597 70.838,5.884 C70.838,4.135 71.102,2.839 71.629,1.996 C72.156,1.154 72.957,0.733 74.034,0.733 C75.087,0.733 75.890,1.169 76.442,2.041 C76.994,2.913 77.270,4.194 77.270,5.884 C77.270,7.647 77.002,8.952 76.466,9.799 zM75.919,2.505 C75.524,1.735 74.896,1.351 74.034,1.351 C73.172,1.351 72.547,1.735 72.159,2.505 C71.771,3.274 71.577,4.400 71.577,5.884 C71.577,7.441 71.780,8.591 72.186,9.335 C72.592,10.080 73.208,10.452 74.034,10.452 C74.896,10.452 75.524,10.067 75.919,9.298 C76.313,8.528 76.511,7.391 76.511,5.884 C76.511,4.400 76.313,3.274 75.919,2.505 zM66.035,11.070 C64.991,11.070 64.197,10.634 63.654,9.761 C63.111,8.889 62.840,7.597 62.840,5.884 C62.840,4.135 63.103,2.839 63.630,1.996 C64.157,1.154 64.959,0.733 66.035,0.733 C67.089,0.733 67.892,1.169 68.444,2.041 C68.996,2.913 69.272,4.194 69.272,5.884 C69.272,7.647 69.004,8.952 68.468,9.799 C67.932,10.646 67.121,11.070 66.035,11.070 zM67.920,2.505 C67.526,1.735 66.897,1.351 66.035,1.351 C65.173,1.351 64.548,1.735 64.161,2.505 C63.773,3.274 63.579,4.400 63.579,5.884 C63.579,7.441 63.782,8.591 64.188,9.335 C64.594,10.080 65.210,10.452 66.035,10.452 C66.897,10.452 67.526,10.067 67.920,9.298 C68.315,8.528 68.512,7.391 68.512,5.884 C68.512,4.400 68.315,3.274 67.920,2.505 zM60.377,11.070 C60.012,11.070 59.830,10.845 59.830,10.397 C59.830,9.948 60.012,9.724 60.377,9.724 C60.751,9.724 60.938,9.948 60.938,10.397 C60.938,10.845 60.751,11.070 60.377,11.070 zM60.377,4.943 C60.222,4.943 60.092,4.890 59.987,4.785 C59.882,4.680 59.830,4.506 59.830,4.263 C59.830,3.814 60.012,3.590 60.377,3.590 C60.751,3.590 60.938,3.814 60.938,4.263 C60.938,4.506 60.884,4.680 60.777,4.785 C60.670,4.890 60.537,4.943 60.377,4.943 zM54.705,11.070 C53.660,11.070 52.867,10.634 52.324,9.761 C51.781,8.889 51.510,7.597 51.510,5.884 C51.510,4.135 51.773,2.839 52.300,1.996 C52.827,1.154 53.628,0.733 54.705,0.733 C55.759,0.733 56.561,1.169 57.113,2.041 C57.665,2.913 57.941,4.194 57.941,5.884 C57.941,7.647 57.673,8.952 57.137,9.799 C56.601,10.646 55.790,11.070 54.705,11.070 zM56.590,2.505 C56.195,1.735 55.567,1.351 54.705,1.351 C53.843,1.351 53.218,1.735 52.830,2.505 C52.442,3.274 52.249,4.400 52.249,5.884 C52.249,7.441 52.451,8.591 52.857,9.335 C53.263,10.080 53.879,10.452 54.705,10.452 C55.567,10.452 56.195,10.067 56.590,9.298 C56.984,8.528 57.182,7.391 57.182,5.884 C57.182,4.400 56.984,3.274 56.590,2.505 zM46.720,3.617 C46.720,2.953 46.748,2.264 46.802,1.550 C46.734,1.619 46.663,1.685 46.590,1.749 C46.517,1.813 45.812,2.370 44.476,3.418 C44.476,3.418 44.086,2.931 44.086,2.931 L46.802,0.891 L47.391,0.891 L47.391,10.932 L46.720,10.932 C46.720,10.932 46.720,3.617 46.720,3.617 z" fill="#000000" /><path id="Shape-44" d="M59.990,16.996 L60.991,16.996 L60.991,15.999 L61.991,15.999 L61.991,15.002 L62.992,15.002 L62.992,14.005 L63.993,14.005 L63.993,13.008 L56.987,13.008 L56.987,14.005 L57.988,14.005 L57.988,15.002 L58.989,15.002 L58.989,15.999 L59.990,15.999 L59.990,16.996 z" fill="#FF2F4F" /><path id="19:00" d="M316.681,9.799 C316.145,10.646 315.335,11.070 314.249,11.070 C313.204,11.070 312.411,10.634 311.868,9.761 C311.325,8.889 311.054,7.597 311.054,5.884 C311.054,4.135 311.317,2.839 311.844,1.996 C312.371,1.154 313.172,0.733 314.249,0.733 C315.303,0.733 316.105,1.169 316.657,2.041 C317.209,2.913 317.485,4.194 317.485,5.884 C317.485,7.647 317.217,8.952 316.681,9.799 zM316.134,2.505 C315.739,1.735 315.111,1.351 314.249,1.351 C313.387,1.351 312.762,1.735 312.374,2.505 C311.987,3.274 311.793,4.400 311.793,5.884 C311.793,7.441 311.996,8.591 312.402,9.335 C312.808,10.080 313.423,10.452 314.249,10.452 C315.111,10.452 315.739,10.067 316.134,9.298 C316.528,8.528 316.726,7.391 316.726,5.884 C316.726,4.400 316.528,3.274 316.134,2.505 zM306.251,11.070 C305.206,11.070 304.412,10.634 303.870,9.761 C303.327,8.889 303.055,7.597 303.055,5.884 C303.055,4.135 303.319,2.839 303.846,1.996 C304.372,1.154 305.174,0.733 306.251,0.733 C307.304,0.733 308.107,1.169 308.659,2.041 C309.211,2.913 309.487,4.194 309.487,5.884 C309.487,7.647 309.219,8.952 308.683,9.799 C308.147,10.646 307.336,11.070 306.251,11.070 zM308.136,2.505 C307.741,1.735 307.113,1.351 306.251,1.351 C305.389,1.351 304.764,1.735 304.376,2.505 C303.988,3.274 303.794,4.400 303.794,5.884 C303.794,7.441 303.997,8.591 304.403,9.335 C304.809,10.080 305.425,10.452 306.251,10.452 C307.113,10.452 307.741,10.067 308.136,9.298 C308.530,8.528 308.727,7.391 308.727,5.884 C308.727,4.400 308.530,3.274 308.136,2.505 zM300.592,11.070 C300.227,11.070 300.045,10.845 300.045,10.397 C300.045,9.948 300.227,9.724 300.592,9.724 C300.966,9.724 301.153,9.948 301.153,10.397 C301.153,10.845 300.966,11.070 300.592,11.070 zM300.592,4.943 C300.437,4.943 300.307,4.890 300.202,4.785 C300.097,4.680 300.045,4.506 300.045,4.263 C300.045,3.814 300.227,3.590 300.592,3.590 C300.966,3.590 301.153,3.814 301.153,4.263 C301.153,4.506 301.100,4.680 300.992,4.785 C300.885,4.890 300.752,4.943 300.592,4.943 zM296.005,10.431 C295.345,10.857 294.548,11.070 293.613,11.070 C293.139,11.070 292.701,11.010 292.300,10.891 C292.300,10.891 292.300,10.300 292.300,10.300 C292.496,10.365 292.732,10.414 293.008,10.448 C293.284,10.482 293.495,10.500 293.641,10.500 C294.767,10.500 295.650,10.091 296.289,9.274 C296.927,8.456 297.283,7.265 297.356,5.699 C297.356,5.699 297.274,5.699 297.274,5.699 C296.941,6.138 296.544,6.476 296.083,6.712 C295.623,6.948 295.141,7.065 294.640,7.065 C293.714,7.065 292.992,6.809 292.474,6.296 C291.956,5.783 291.698,5.055 291.698,4.112 C291.698,3.105 291.981,2.289 292.549,1.667 C293.117,1.044 293.855,0.733 294.763,0.733 C295.420,0.733 295.994,0.905 296.487,1.251 C296.980,1.597 297.359,2.104 297.626,2.773 C297.893,3.441 298.026,4.233 298.026,5.149 C298.026,6.468 297.854,7.571 297.510,8.460 C297.165,9.348 296.664,10.005 296.005,10.431 zM296.969,2.827 C296.757,2.360 296.461,1.995 296.080,1.732 C295.699,1.469 295.260,1.337 294.763,1.337 C294.042,1.337 293.467,1.581 293.039,2.069 C292.610,2.556 292.395,3.224 292.395,4.071 C292.395,4.867 292.594,5.472 292.991,5.884 C293.388,6.296 293.955,6.502 294.694,6.502 C295.155,6.502 295.585,6.399 295.984,6.193 C296.383,5.987 296.700,5.713 296.935,5.372 C297.170,5.031 297.288,4.684 297.288,4.332 C297.288,3.796 297.181,3.295 296.969,2.827 zM286.935,3.617 C286.935,2.953 286.963,2.264 287.018,1.550 C286.949,1.619 286.878,1.685 286.805,1.749 C286.732,1.813 286.028,2.370 284.691,3.418 C284.691,3.418 284.301,2.931 284.301,2.931 L287.018,0.891 L287.606,0.891 L287.606,10.932 L286.935,10.932 C286.935,10.932 286.935,3.617 286.935,3.617 z" fill="#000000" /><path id="Shape-44-copy" d="M300.004,16.996 L301.000,16.996 L301.000,15.999 L301.997,15.999 L301.997,15.002 L302.993,15.002 L302.993,14.005 L303.990,14.005 L303.990,13.008 L297.015,13.008 L297.015,14.005 L298.011,14.005 L298.011,15.002 L299.008,15.002 L299.008,15.999 L300.004,15.999 L300.004,16.996 z" fill="#FF2F4F" /></g></svg>