<svg version="1.1" xmlns="http://www.w3.org/2000/svg" xmlns:xlink="http://www.w3.org/1999/xlink" width="486" height="294" viewBox="0 0 486 294"><path id="leftCornerDots" d="M-0.030,8.848 C2.239,6.320 4.642,3.643 6.958,1.061 C6.958,1.061 -0.030,8.848 -0.030,8.848 zM3.641,5.235 C2.372,6.649 1.112,8.053 -0.103,9.407 C-0.103,9.407 3.641,5.235 3.641,5.235 zM482.219,59.937 C480.961,59.937 479.858,59.286 479.216,58.303 C479.216,58.303 411.674,91.429 411.674,91.429 C411.692,91.576 411.719,91.722 411.719,91.875 C411.719,93.860 410.110,95.469 408.125,95.469 C408.018,95.469 407.918,95.446 407.813,95.437 C407.813,95.437 389.823,132.217 389.823,132.217 C390.778,132.866 391.406,133.961 391.406,135.203 C391.406,137.197 389.790,138.813 387.797,138.813 C385.803,138.813 384.188,137.197 384.188,135.203 C384.188,134.763 384.278,134.347 384.422,133.957 C384.422,133.957 333.748,112.831 333.748,112.831 C333.002,114.785 331.049,116.101 328.863,115.910 C326.326,115.687 324.445,113.522 324.506,111.011 C324.506,111.011 240.156,116.643 240.156,116.643 C240.012,118.285 238.781,119.607 237.178,119.877 C237.178,119.877 243.717,183.326 243.717,183.326 C245.644,183.400 247.187,184.969 247.187,186.906 C247.187,188.891 245.572,190.500 243.578,190.500 C242.354,190.500 241.277,189.890 240.625,188.963 C240.625,188.963 175.206,231.822 175.206,231.822 C175.446,232.306 175.594,232.844 175.594,233.422 C175.594,235.415 173.985,237.031 172.000,237.031 C170.685,237.031 169.546,236.314 168.920,235.255 C168.920,235.255 84.881,275.495 84.881,275.495 C85.093,276.035 85.219,276.619 85.219,277.234 C85.219,279.884 83.071,282.031 80.422,282.031 C78.194,282.031 76.338,280.505 75.798,278.446 C60.616,281.548 16.794,290.502 -0.111,293.956 C-0.111,293.956 -0.002,293.487 -0.002,293.487 C17.125,289.988 60.669,281.092 75.704,278.020 C75.662,277.763 75.625,277.504 75.625,277.234 C75.625,275.279 76.799,273.603 78.478,272.856 C78.478,272.856 38.574,199.591 38.574,199.591 C36.379,204.221 11.947,255.771 -0.106,281.199 C-0.106,281.199 -0.044,280.038 -0.044,280.038 C12.257,254.085 36.366,203.217 38.208,199.330 C35.687,199.060 20.368,197.418 0.028,195.238 C0.028,195.238 -0.121,194.833 -0.121,194.833 C18.072,196.782 32.267,198.304 36.856,198.796 C32.269,197.145 18.420,192.161 0.029,185.543 C0.029,185.543 0.017,185.078 0.017,185.078 C20.736,192.534 35.669,197.909 38.153,198.803 C36.098,193.873 13.900,140.644 0.004,107.321 C0.004,107.321 0.047,106.355 0.047,106.355 C13.931,139.649 36.580,193.962 38.604,198.815 C38.604,198.815 89.175,148.932 89.175,148.932 C88.757,148.220 88.500,147.401 88.500,146.516 C88.500,145.107 89.118,143.853 90.085,142.975 C76.171,134.417 23.179,101.822 -0.009,87.560 C-0.009,87.560 0.026,87.083 0.026,87.083 C23.289,101.392 76.834,134.326 90.431,142.689 C91.131,142.165 91.974,141.837 92.896,141.759 C92.896,141.759 76.216,31.772 76.216,31.772 C76.082,31.787 75.951,31.812 75.812,31.812 C74.586,31.812 73.505,31.193 72.857,30.251 C61.297,37.234 19.847,62.275 -0.048,74.294 C-0.048,74.294 -0.052,73.788 -0.052,73.788 C19.874,61.750 61.050,36.876 72.644,29.872 C72.381,29.371 72.219,28.809 72.219,28.203 C72.219,27.464 72.442,26.778 72.822,26.205 C66.495,21.562 51.092,10.257 38.479,1.000 C38.479,1.000 39.178,1.000 39.178,1.000 C39.178,1.000 39.242,1.010 39.242,1.010 C51.785,10.216 66.892,21.305 73.099,25.860 C73.758,25.091 74.723,24.594 75.812,24.594 C76.663,24.594 77.433,24.903 78.049,25.398 C81.974,20.958 90.315,11.522 99.566,1.057 C99.566,1.057 99.825,1.000 99.825,1.000 C99.825,1.000 100.178,1.000 100.178,1.000 C90.768,11.645 82.281,21.247 78.370,25.671 C78.717,26.024 78.984,26.452 79.163,26.925 C90.896,23.298 131.459,10.758 162.809,1.066 C162.809,1.066 163.518,1.000 163.518,1.000 C163.518,1.000 164.523,1.000 164.523,1.000 C132.937,10.764 91.161,23.680 79.294,27.348 C79.344,27.554 79.371,27.766 79.384,27.984 C79.384,27.984 235.048,29.287 235.048,29.287 C235.091,28.043 235.597,26.917 236.414,26.088 C231.186,20.523 220.861,9.531 212.848,1.000 C212.848,1.000 213.445,1.000 213.445,1.000 C221.405,9.473 231.554,20.277 236.746,25.805 C237.582,25.099 238.648,24.656 239.828,24.656 C241.741,24.656 243.379,25.784 244.149,27.404 C254.502,22.689 281.514,10.386 301.917,1.092 C301.917,1.092 302.786,1.000 302.786,1.000 C302.786,1.000 303.167,1.000 303.167,1.000 C282.574,10.378 254.730,23.060 244.315,27.803 C244.506,28.319 244.625,28.871 244.625,29.453 C244.625,29.709 244.588,29.955 244.550,30.200 C244.550,30.200 347.869,49.735 347.869,49.735 C348.329,48.404 349.346,47.367 350.625,46.857 C346.766,37.570 337.277,14.739 331.567,1.000 C331.567,1.000 331.957,1.000 331.957,1.000 C331.957,1.000 331.994,1.002 331.994,1.002 C337.760,14.877 347.218,37.634 350.992,46.714 C351.565,46.539 352.178,46.462 352.811,46.518 C354.007,46.623 355.046,47.172 355.821,47.971 C366.029,40.003 396.326,16.357 415.923,1.061 C415.923,1.061 416.345,1.000 416.345,1.000 C416.345,1.000 416.641,1.000 416.641,1.000 C396.985,16.341 366.251,40.328 356.095,48.254 C356.679,48.964 357.060,49.839 357.160,50.790 C357.160,50.790 478.691,55.666 478.691,55.666 C478.914,54.463 479.725,53.468 480.819,53.003 C474.202,43.864 454.985,17.323 443.168,1.003 C443.168,1.003 443.766,1.078 443.766,1.078 C455.679,17.531 474.814,43.958 481.263,52.864 C481.569,52.779 481.885,52.719 482.219,52.719 C484.204,52.719 485.812,54.335 485.812,56.328 C485.812,58.322 484.204,59.937 482.219,59.937 zM333.900,112.414 C333.900,112.414 384.605,133.552 384.605,133.552 C385.205,132.394 386.402,131.594 387.797,131.594 C388.451,131.594 389.055,131.781 389.584,132.085 C389.584,132.085 407.524,95.408 407.524,95.408 C406.432,95.223 405.518,94.547 404.998,93.614 C404.998,93.614 333.833,109.608 333.833,109.608 C334.036,110.214 334.124,110.869 334.065,111.546 C334.038,111.846 333.977,112.134 333.900,112.414 zM243.578,183.313 C243.623,183.313 243.665,183.324 243.709,183.326 C243.709,183.326 237.171,119.878 237.171,119.878 C236.977,119.910 236.781,119.938 236.578,119.938 C234.585,119.938 232.969,118.322 232.969,116.328 C232.969,116.276 232.982,116.228 232.984,116.176 C232.984,116.176 163.560,103.545 163.560,103.545 C163.571,103.655 163.594,103.762 163.594,103.875 C163.594,104.510 163.415,105.098 163.126,105.615 C163.126,105.615 241.685,183.859 241.685,183.859 C242.237,183.518 242.881,183.313 243.578,183.313 zM172.000,229.813 C173.252,229.813 174.352,230.457 174.995,231.433 C174.995,231.433 240.403,188.582 240.403,188.582 C240.135,188.079 239.969,187.515 239.969,186.906 C239.969,185.751 240.526,184.735 241.376,184.078 C241.376,184.078 162.929,105.946 162.929,105.946 C162.278,106.865 161.212,107.469 160.000,107.469 C158.402,107.469 157.063,106.419 156.596,104.976 C156.596,104.976 96.683,143.119 96.683,143.119 C97.554,143.987 98.094,145.188 98.094,146.516 C98.094,147.384 97.845,148.187 97.441,148.890 C97.441,148.890 170.025,230.410 170.025,230.410 C170.592,230.034 171.270,229.813 172.000,229.813 zM89.388,149.281 C89.388,149.281 38.749,199.233 38.749,199.233 C38.749,199.233 78.786,272.743 78.786,272.743 C79.298,272.556 79.845,272.437 80.422,272.437 C80.711,272.437 80.991,272.474 81.266,272.523 C81.266,272.523 92.787,151.261 92.787,151.261 C91.385,151.111 90.163,150.374 89.388,149.281 zM81.619,272.606 C83.002,272.964 84.137,273.915 84.740,275.180 C84.740,275.180 168.756,234.951 168.756,234.951 C168.538,234.486 168.406,233.971 168.406,233.422 C168.406,232.318 168.910,231.342 169.688,230.680 C169.688,230.680 97.209,149.277 97.209,149.277 C96.340,150.505 94.915,151.313 93.297,151.313 C93.245,151.313 93.196,151.299 93.145,151.297 C93.145,151.297 81.619,272.606 81.619,272.606 zM76.621,31.713 C76.621,31.713 93.303,141.719 93.303,141.719 C94.478,141.721 95.540,142.161 96.374,142.864 C96.374,142.864 156.479,104.600 156.479,104.600 C156.431,104.366 156.406,104.123 156.406,103.875 C156.406,102.735 156.947,101.731 157.775,101.073 C157.775,101.073 78.398,30.701 78.398,30.701 C77.923,31.197 77.311,31.553 76.621,31.713 zM235.059,29.725 C235.059,29.725 79.384,28.421 79.384,28.421 C79.340,29.149 79.087,29.815 78.676,30.363 C78.676,30.363 158.142,100.813 158.142,100.813 C158.685,100.482 159.317,100.281 160.000,100.281 C161.713,100.281 163.141,101.482 163.501,103.087 C163.501,103.087 233.028,115.738 233.028,115.738 C233.311,114.027 234.787,112.719 236.578,112.719 C236.648,112.719 236.714,112.735 236.783,112.739 C236.783,112.739 239.596,34.227 239.596,34.227 C237.149,34.107 235.198,32.167 235.059,29.725 zM239.995,34.233 C239.995,34.233 237.180,112.779 237.180,112.779 C238.851,113.062 240.126,114.485 240.177,116.224 C240.177,116.224 324.524,110.594 324.524,110.594 C324.636,109.587 325.054,108.692 325.677,107.980 C325.677,107.980 243.239,32.822 243.239,32.822 C242.406,33.665 241.262,34.189 239.995,34.233 zM347.610,50.880 C347.632,50.625 347.691,50.382 347.751,50.141 C347.751,50.141 244.467,30.614 244.467,30.614 C244.291,31.318 243.958,31.952 243.510,32.494 C243.510,32.494 325.976,107.676 325.976,107.676 C326.940,106.753 328.269,106.220 329.703,106.346 C329.862,106.360 330.009,106.404 330.162,106.433 C330.162,106.433 350.342,55.623 350.342,55.623 C348.581,54.788 347.429,52.936 347.610,50.880 zM351.971,56.081 C351.540,56.043 351.137,55.932 350.749,55.790 C350.749,55.790 330.602,106.517 330.602,106.517 C331.991,106.913 333.086,107.916 333.653,109.195 C333.653,109.195 404.792,93.205 404.792,93.205 C404.628,92.793 404.531,92.346 404.531,91.875 C404.531,91.115 404.770,90.412 405.173,89.832 C405.173,89.832 356.368,53.949 356.368,53.949 C355.425,55.359 353.780,56.240 351.971,56.081 zM478.625,56.328 C478.625,56.251 478.643,56.180 478.647,56.104 C478.647,56.104 357.166,51.230 357.166,51.230 C357.168,51.394 357.187,51.554 357.172,51.720 C357.113,52.395 356.914,53.023 356.610,53.583 C356.610,53.583 405.452,89.494 405.452,89.494 C406.110,88.755 407.058,88.281 408.125,88.281 C409.813,88.281 411.220,89.450 411.605,91.019 C411.605,91.019 479.026,57.953 479.026,57.953 C478.778,57.462 478.625,56.916 478.625,56.328 z" fill="#ECECEC" /></svg>