<svg version="1.1" xmlns="http://www.w3.org/2000/svg" xmlns:xlink="http://www.w3.org/1999/xlink" width="307" height="201" viewBox="0 0 307 201"><path id="rightCornerDots" d="M307.310,182.337 C293.904,176.507 252.423,158.469 239.836,152.995 C239.179,154.868 237.419,156.219 235.328,156.219 C234.404,156.219 233.549,155.944 232.817,155.490 C232.817,155.490 200.118,194.148 200.118,194.148 C200.812,194.806 201.250,195.732 201.250,196.766 C201.250,198.759 199.641,200.375 197.656,200.375 C195.671,200.375 194.063,198.759 194.063,196.766 C194.063,194.772 195.671,193.156 197.656,193.156 C198.456,193.156 199.188,193.428 199.785,193.872 C199.785,193.872 232.459,155.242 232.459,155.242 C231.295,154.364 230.531,152.980 230.531,151.406 C230.531,150.936 230.620,150.490 230.745,150.060 C230.745,150.060 154.913,131.439 154.913,131.439 L154.965,131.224 L154.965,131.224 L154.815,131.387 C154.815,131.387 114.252,93.726 114.252,93.726 C113.601,94.358 112.715,94.750 111.734,94.750 C109.741,94.750 108.125,93.141 108.125,91.156 C108.125,91.091 108.141,91.029 108.144,90.965 C108.144,90.965 43.410,88.099 43.410,88.099 C43.659,88.588 43.813,89.133 43.813,89.719 C43.813,91.704 42.204,93.313 40.219,93.313 C38.234,93.313 36.625,91.704 36.625,89.719 C36.625,87.734 38.234,86.125 40.219,86.125 C40.880,86.125 41.492,86.316 42.024,86.628 C42.024,86.628 96.029,14.832 96.029,14.832 C94.834,14.091 94.003,12.845 93.813,11.388 C93.813,11.388 7.741,12.210 7.741,12.210 C7.787,12.441 7.812,12.678 7.812,12.922 C7.812,14.915 6.204,16.531 4.219,16.531 C2.234,16.531 0.625,14.915 0.625,12.922 C0.625,10.928 2.234,9.313 4.219,9.313 C5.800,9.313 7.127,10.344 7.608,11.769 C7.608,11.769 93.768,10.946 93.768,10.946 C93.766,10.884 93.750,10.827 93.750,10.766 C93.750,8.399 95.467,6.445 97.722,6.052 C97.396,4.621 97.009,2.924 96.571,1.000 C96.571,1.000 96.902,1.000 96.902,1.000 C96.902,1.000 97.040,1.057 97.040,1.057 C97.469,2.940 97.848,4.603 98.167,6.007 C98.295,5.997 98.417,5.969 98.547,5.969 C100.072,5.969 101.415,6.694 102.293,7.803 C104.073,6.125 106.458,3.877 109.271,1.224 C109.271,1.224 109.781,1.000 109.781,1.000 C109.781,1.000 110.155,1.000 110.155,1.000 C107.091,3.889 104.467,6.362 102.564,8.157 C103.053,8.908 103.344,9.802 103.344,10.766 C103.344,11.591 103.116,12.356 102.749,13.035 C102.749,13.035 154.744,44.076 154.744,44.076 C154.744,41.116 154.744,21.143 154.744,1.222 C154.744,1.222 155.187,1.222 155.187,1.222 C155.187,20.908 155.187,40.651 155.187,43.970 C158.355,41.133 181.971,19.980 202.803,1.321 C202.803,1.321 203.572,1.000 203.572,1.000 C203.572,1.000 203.827,1.000 203.827,1.000 C183.443,19.257 160.106,40.160 155.813,44.005 C155.813,44.005 302.703,3.887 302.703,3.887 C302.602,3.555 302.531,3.209 302.531,2.844 C302.531,2.480 302.602,2.136 302.702,1.804 C302.147,1.560 301.539,1.293 300.873,1.000 C300.873,1.000 301.975,1.000 301.975,1.000 C302.283,1.135 302.575,1.264 302.857,1.388 C302.883,1.330 302.895,1.266 302.923,1.210 C302.923,1.210 303.176,1.528 303.176,1.528 C304.462,2.094 305.396,2.504 305.909,2.730 C305.781,2.358 305.581,1.779 305.312,1.000 C305.312,1.000 305.501,1.000 305.501,1.000 C305.501,1.000 305.791,1.028 305.791,1.028 C306.047,1.770 306.227,2.292 306.344,2.630 C306.482,2.412 306.672,2.112 306.920,1.721 C306.920,1.721 306.514,3.111 306.514,3.111 C306.569,3.240 306.739,3.642 307.027,4.321 C307.027,4.321 307.037,5.484 307.037,5.484 C306.667,4.611 306.401,3.981 306.244,3.610 C306.244,3.610 305.612,4.588 305.612,4.588 C305.612,4.588 306.999,6.330 306.999,6.330 C306.719,6.400 306.427,6.437 306.125,6.437 C305.591,6.437 305.088,6.313 304.633,6.104 C304.633,6.104 250.727,89.555 250.727,89.555 C251.855,90.432 252.594,91.788 252.594,93.328 C252.594,93.565 252.557,93.793 252.524,94.021 C261.865,96.469 285.020,102.536 307.124,108.328 C307.124,108.328 307.257,108.821 307.257,108.821 C285.106,103.016 261.842,96.920 252.446,94.458 C252.220,95.390 251.725,96.210 251.044,96.840 C260.787,110.793 294.442,158.993 307.010,176.992 C307.010,176.992 307.194,178.030 307.194,178.030 C295.102,160.712 260.636,111.351 250.701,97.123 C249.893,97.742 248.894,98.125 247.797,98.125 C247.650,98.125 247.511,98.095 247.368,98.082 C247.368,98.082 237.272,147.014 237.272,147.014 C238.951,147.763 240.125,149.444 240.125,151.406 C240.125,151.809 240.061,152.195 239.968,152.569 C252.492,158.015 293.469,175.834 307.182,181.798 C307.182,181.798 307.310,182.337 307.310,182.337 zM155.012,130.965 C155.012,130.965 243.276,94.869 243.276,94.869 C243.110,94.383 243.000,93.870 243.000,93.328 C243.000,93.300 243.008,93.274 243.008,93.246 C243.008,93.246 115.342,91.176 115.342,91.176 C115.337,92.017 115.032,92.780 114.541,93.390 C114.541,93.390 155.012,130.965 155.012,130.965 zM98.547,15.563 C97.781,15.563 97.066,15.366 96.424,15.047 C96.424,15.047 42.394,86.876 42.394,86.876 C42.680,87.095 42.935,87.350 43.144,87.643 C43.144,87.643 108.189,90.522 108.189,90.522 C108.436,89.148 109.465,88.056 110.803,87.699 C110.803,87.699 99.553,15.453 99.553,15.453 C99.228,15.522 98.893,15.563 98.547,15.563 zM102.537,13.425 C101.936,14.324 101.033,14.988 99.981,15.320 C99.981,15.320 111.238,87.612 111.238,87.612 C111.402,87.590 111.564,87.563 111.734,87.563 C112.484,87.563 113.181,87.791 113.758,88.181 C113.758,88.181 154.615,44.516 154.615,44.516 C154.615,44.516 102.537,13.425 102.537,13.425 zM155.013,44.742 C155.013,44.742 114.101,88.462 114.101,88.462 C114.755,89.032 115.193,89.827 115.301,90.732 C115.301,90.732 243.053,92.804 243.053,92.804 C243.125,92.150 243.324,91.539 243.632,90.991 C243.632,90.991 155.013,44.742 155.013,44.742 zM305.321,4.222 L305.784,3.504 L304.934,3.736 L305.321,4.222 zM304.634,3.360 C304.634,3.360 305.624,3.089 305.624,3.089 C305.215,2.910 304.583,2.632 303.770,2.274 C303.770,2.274 304.634,3.360 304.634,3.360 zM247.797,88.531 C248.746,88.531 249.624,88.815 250.369,89.291 C250.369,89.291 304.242,5.892 304.242,5.892 C303.632,5.515 303.143,4.966 302.848,4.306 C302.848,4.306 155.569,44.531 155.569,44.531 C155.569,44.531 243.852,90.607 243.852,90.607 C244.717,89.355 246.160,88.531 247.797,88.531 zM246.923,98.037 C245.356,97.748 244.061,96.701 243.426,95.286 C243.426,95.286 155.681,131.171 155.681,131.171 C155.681,131.171 230.877,149.635 230.877,149.635 C231.581,147.856 233.304,146.594 235.328,146.594 C235.863,146.594 236.369,146.702 236.850,146.864 C236.850,146.864 246.923,98.037 246.923,98.037 z" fill="#ECECEC" /></svg>