<?xml version="1.0" encoding="utf-8"?>
<!-- Generator: Adobe Illustrator 19.2.0, SVG Export Plug-In . SVG Version: 6.00 Build 0)  -->
<svg version="1.1" id="Layer_1" xmlns="http://www.w3.org/2000/svg" xmlns:xlink="http://www.w3.org/1999/xlink" x="0px" y="0px"
	 viewBox="0 0 446 74" style="enable-background:new 0 0 446 74;" xml:space="preserve">
<style type="text/css">
	.st0{fill:#4284F4;}
	.st1{fill:#096D3C;}
	.st2{fill:#0F9D58;}
	.st3{fill:#7e7e7e;}
</style>
<g id="adWords_Symbol">
	<path id="Shape-57" class="st0" d="M24.7,0L24.7,0L24.7,0L0,74l0,0h18.1c2.6,0,4.9-1.1,6.6-2.8c0.9-0.9,1.6-2,2.1-3.3c0,0,0,0,0,0
		L49.5,0L24.7,0L24.7,0L24.7,0z"/>
	<path id="Shape-58" class="st1" d="M37.1,36.9l10.3,30.9c0,0,0,0,0,0c0.5,1.2,1.2,2.4,2.1,3.3V0.1l0-0.1L37.1,36.9z"/>
	<path id="Shape-59" class="st2" d="M56.1,74l18.1,0l0,0l-25-74v71C50.8,72.7,53.5,74,56.1,74"/>
	<path id="Google-Adwords" class="st3" d="M439.9,37c-0.8-0.7-2.1-0.8-3.6-0.8c-1.7,0-2.5,0.3-3.3,0.8c-0.8,0.4-1.2,1.3-1.2,2.1
		c0,0.5,0.2,1,0.5,1.4c0.3,0.4,0.8,0.8,1.4,1.1c0.4,0.1,1.2,0.4,3,0.9c2.7,0.7,4.5,1.4,5.6,1.8c1.1,0.5,1.9,1.2,2.5,2.1
		c0.6,0.9,1.2,2.1,1.2,3.5c0,1.3-0.3,2.7-1,3.8c-0.7,1.2-1.7,2.2-3.1,2.8c-1.4,0.6-3.3,1.2-5,1.2c-2.9,0-5.3-0.8-6.8-2
		c-1.5-1.3-3.1-2.3-3.5-4.8l3.7-1.5c0.3,1,1.3,2.3,2.2,3.1c1,0.8,2.4,1,4.1,1c1.7,0,3-0.3,3.8-1c0.8-0.7,1.2-1.2,1.2-2.2
		c0-0.9-0.4-1.8-1.2-2.3c-0.5-0.4-2.6-0.7-4.7-1.3c-2.8-0.7-4.5-1.6-5.5-2.1c-1.1-0.5-1.3-1-1.9-1.9c-0.5-0.9-0.8-2-0.8-3.1
		c0-1,0.2-2,0.7-2.9c0.5-0.9,1.1-1.6,1.8-2.2c0.6-0.5,1.8-1,2.8-1.3c1-0.3,2.1-0.5,3.3-0.5c1.7,0,3.6,0.2,4.9,0.7
		c1.3,0.5,2.3,1.2,2.9,2.1c0.6,0.9,1,1.4,1.5,2.9l-3.9,1.2C441.4,38.2,440.7,37.7,439.9,37z M418.5,53.4c-1.5,2.4-4.4,3.9-7.3,3.9
		c-1.9,0-5-0.3-6.6-1.4c-1.6-1.1-2.9-2.6-3.8-4.5c-0.9-1.9-1.3-4.1-1.3-6.6c0-2.4,0.3-3.7,1.1-5.7c0.8-2,2.6-3.9,4.2-4.9
		c1.6-1.1,3.5-1.8,6.6-1.8c1.5,0,2.9,0.5,4,1.3c1.4,0.9,2.1,1.8,2.8,2.8V22.2h4.5v34.2h-4.2V53.4z M416,38.3
		c-1.3-1.6-3.8-1.8-5.7-1.8c-1.8,0-3.4,0.8-4.6,2.3c-1.2,1.5-2,3.1-2,6.3c0,3.1,0.9,4.7,2.2,6.2c1.3,1.6,2.9,2.3,4.6,2.3
		c1.8,0,4.8-0.7,6.1-2.2c1.3-1.5,1.9-3.7,1.9-6.8C418.6,41.3,417.3,39.8,416,38.3z M389.3,44.3v12.2h-4.1V33.2h4v3.5
		c0.9-1.6,5.4-5.3,10.2-3.7l-1.4,4C390.4,35.3,389.3,42.6,389.3,44.3z M375.8,55.6c-1.8,0.9-3.9,1.4-6,1.4c-3.5,0-6.3-1-8.5-3.1
		c-2.2-2.1-3.2-5.1-3.2-9c0-4.3,1.3-7.5,3.9-9.6c2.2-1.7,4.8-2.6,7.9-2.6c3.4,0,6.2,1,8.4,3.1c2.2,2.1,3.3,5,3.3,8.7
		c0,3-0.5,5.3-1.4,7.1C379.1,53.3,377.7,54.6,375.8,55.6z M375,38.2c-1.4-1.5-3.2-2.2-5.2-2.2c-2.1,0-3.9,0.7-5.3,2.2
		c-1.4,1.5-2.1,3.7-2.1,6.7c0,3,0.7,5.2,2.1,6.7c1.4,1.5,3.2,2.2,5.3,2.2c2.1,0,3.9-0.7,5.3-2.2c1.4-1.5,2.1-3.8,2.1-6.8
		C377.1,41.9,376.4,39.7,375,38.2z M345,56.5c0,0-7.6-21.7-7.7-22.2c-0.4,1.6-7.4,22.2-7.4,22.2h-4.5l-9.4-34.2h4.6l7.2,27.5
		l7.3-22.9h4.6l7.3,22.6c0.4-2.1,6.9-27.2,6.9-27.2h4.5l-8.9,34.2H345z M308.4,53.4c-1.5,2.4-4.3,3.9-7.3,3.9c-1.9,0-5-0.3-6.6-1.4
		c-1.6-1.1-2.9-2.6-3.8-4.5c-0.9-1.9-1.3-4.1-1.3-6.6c0-2.4,0.3-3.7,1.1-5.7c0.8-2,2.6-3.9,4.2-4.9c1.6-1.1,3.5-1.8,6.6-1.8
		c1.5,0,2.9,0.5,4,1.3c1.4,0.9,2.1,1.8,2.8,2.8V22.2h4.5v34.2h-4.2V53.4z M305.9,38.3c-1.3-1.6-3.8-1.8-5.7-1.8
		c-1.8,0-3.4,0.8-4.6,2.3c-1.2,1.5-2,3.1-2,6.3c0,3.1,0.9,4.7,2.2,6.2s2.9,2.3,4.6,2.3c1.8,0,4.8-0.7,6.1-2.2
		c1.3-1.5,1.9-3.7,1.9-6.8C308.4,41.3,307.2,39.8,305.9,38.3z M279.8,47.1h-14l-3.4,9.4h-5l12.9-34.2h4.8L288,56.5h-4.6L279.8,47.1z
		 M274.9,33.2c-1.1-2.8-2.3-5.6-2.3-5.6s-1.2,3-1.9,5.1l-3.5,10.5h10.9L274.9,33.2z M235.7,53.2c3.2,0,5.2-1.8,6.3-3.6l4.5,3
		c-2,2.7-5.3,5.7-10.8,5.7c-6.5,0-12.6-4.8-12.6-13c0-7.7,5.5-13,12-13l0,0c5.1,0,9,3.5,10.7,7.6l0.9,2.1l-17.3,7.2
		C230.4,51.2,232.1,53.2,235.7,53.2z M240.1,40.1c-0.7-1.5-2.4-2.8-4.8-2.8c-3.7,0-7.3,3.9-6.8,7.6L240.1,40.1z M214.8,19.3h5.7
		v38.2h-5.7V19.3z M198.9,70c-6.3,0-9.8-3.9-11.6-7.6l4.9-2.1c0.7,1.7,2.7,4.6,6.6,4.6c4.1,0,6.8-2.7,6.8-7.2v-2.6
		c-1.4,1.7-3.4,3.2-7.1,3.2c-5.9,0-12.2-5.2-12.2-13c0-6.9,5.4-13,12.4-13v0c3,0,5.3,1.2,6.9,3v-2.2h5.4v23.3
		C211.1,65.6,205.8,70,198.9,70z M199.2,37.5L199.2,37.5c-3.6,0-7.2,3-7.2,7.9c0,4.8,3.4,7.8,7.1,7.8c3.5,0,7-2.8,7-7.9
		C206.1,40.4,202.6,37.5,199.2,37.5z M171.2,58.3c-7.8,0-13-6-13-13.1c0-6.9,5.4-12.9,12.9-12.9l0,0c6.2,0,12.9,4.4,12.9,13
		C184,52.9,178.3,58.3,171.2,58.3z M171.2,37.5c-4.2,0-7.4,3.4-7.4,7.8c0,4.6,3.2,7.9,7.4,7.9c3.7,0,7.2-3.1,7.2-7.9
		C178.4,40.5,174.9,37.5,171.2,37.5z M143.1,58.3c-7.8,0-13-6-13-13.1c0-6.9,5.4-12.9,12.9-12.9c6.2,0,12.9,4.4,12.9,13
		C155.9,52.9,150.1,58.3,143.1,58.3z M143,37.5c-4.2,0-7.4,3.4-7.4,7.8c0,4.6,3.2,7.9,7.4,7.9c3.7,0,7.2-3.1,7.2-7.9
		C150.3,40.5,146.8,37.5,143,37.5z M109.7,58.3c-12.2,0-20.5-10-20.5-20.2C89.2,27.7,98,18,109.4,18c8.9,0,13.8,5.5,13.8,5.5l-3.8,4
		c0,0-3.6-4-9.8-4c-8,0-14.4,6.4-14.4,14.7c0,8.5,6.7,14.6,14.4,14.6c6,0,12.4-3.3,13-11h-13v-5.5h18.4c0,0,0.3,1.3,0.3,3.6
		C128.2,50.9,120.4,58.3,109.7,58.3z M127.9,36.4L127.9,36.4L127.9,36.4L127.9,36.4z"/>
</g>
</svg>
