<svg id="Layer_1" xmlns="http://www.w3.org/2000/svg" viewBox="0 0 446 74"><style>.st0{fill:#4284f4}.st1{fill:#096d3c}.st2{fill:#0f9d58}.st3{fill:#7e7e7e}</style><g id="adWords_Symbol"><path id="Shape-57" class="st0" d="M24.7 0L0 74h18.1c2.6 0 4.9-1.1 6.6-2.8.9-.9 1.6-2 2.1-3.3L49.5 0H24.7z"/><path id="Shape-58" class="st1" d="M37.1 36.9l10.3 30.9c.5 1.2 1.2 2.4 2.1 3.3V0L37.1 36.9z"/><path id="Shape-59" class="st2" d="M56.1 74h18.1l-25-74v71c1.6 1.7 4.3 3 6.9 3"/><path id="Google-Adwords" class="st3" d="M439.9 37c-.8-.7-2.1-.8-3.6-.8-1.7 0-2.5.3-3.3.8-.8.4-1.2 1.3-1.2 2.1 0 .5.2 1 .5 1.4.3.4.8.8 1.4 1.1.4.1 1.2.4 3 .9 2.7.7 4.5 1.4 5.6 1.8 1.1.5 1.9 1.2 2.5 2.1.6.9 1.2 2.1 1.2 3.5 0 1.3-.3 2.7-1 3.8-.7 1.2-1.7 2.2-3.1 2.8-1.4.6-3.3 1.2-5 1.2-2.9 0-5.3-.8-6.8-2-1.5-1.3-3.1-2.3-3.5-4.8l3.7-1.5c.3 1 1.3 2.3 2.2 3.1 1 .8 2.4 1 4.1 1 1.7 0 3-.3 3.8-1 .8-.7 1.2-1.2 1.2-2.2 0-.9-.4-1.8-1.2-2.3-.5-.4-2.6-.7-4.7-1.3-2.8-.7-4.5-1.6-5.5-2.1-1.1-.5-1.3-1-1.9-1.9-.5-.9-.8-2-.8-3.1 0-1 .2-2 .7-2.9.5-.9 1.1-1.6 1.8-2.2.6-.5 1.8-1 2.8-1.3 1-.3 2.1-.5 3.3-.5 1.7 0 3.6.2 4.9.7 1.3.5 2.3 1.2 2.9 2.1.6.9 1 1.4 1.5 2.9l-3.9 1.2c-.1-1.4-.8-1.9-1.6-2.6zm-21.4 16.4c-1.5 2.4-4.4 3.9-7.3 3.9-1.9 0-5-.3-6.6-1.4-1.6-1.1-2.9-2.6-3.8-4.5-.9-1.9-1.3-4.1-1.3-6.6 0-2.4.3-3.7 1.1-5.7s2.6-3.9 4.2-4.9c1.6-1.1 3.5-1.8 6.6-1.8 1.5 0 2.9.5 4 1.3 1.4.9 2.1 1.8 2.8 2.8V22.2h4.5v34.2h-4.2v-3zM416 38.3c-1.3-1.6-3.8-1.8-5.7-1.8-1.8 0-3.4.8-4.6 2.3-1.2 1.5-2 3.1-2 6.3 0 3.1.9 4.7 2.2 6.2 1.3 1.6 2.9 2.3 4.6 2.3 1.8 0 4.8-.7 6.1-2.2 1.3-1.5 1.9-3.7 1.9-6.8.1-3.3-1.2-4.8-2.5-6.3zm-26.7 6v12.2h-4.1V33.2h4v3.5c.9-1.6 5.4-5.3 10.2-3.7l-1.4 4c-7.6-1.7-8.7 5.6-8.7 7.3zm-13.5 11.3c-1.8.9-3.9 1.4-6 1.4-3.5 0-6.3-1-8.5-3.1s-3.2-5.1-3.2-9c0-4.3 1.3-7.5 3.9-9.6 2.2-1.7 4.8-2.6 7.9-2.6 3.4 0 6.2 1 8.4 3.1s3.3 5 3.3 8.7c0 3-.5 5.3-1.4 7.1-1.1 1.7-2.5 3-4.4 4zm-.8-17.4c-1.4-1.5-3.2-2.2-5.2-2.2-2.1 0-3.9.7-5.3 2.2-1.4 1.5-2.1 3.7-2.1 6.7s.7 5.2 2.1 6.7c1.4 1.5 3.2 2.2 5.3 2.2 2.1 0 3.9-.7 5.3-2.2 1.4-1.5 2.1-3.8 2.1-6.8-.1-2.9-.8-5.1-2.2-6.6zm-30 18.3s-7.6-21.7-7.7-22.2c-.4 1.6-7.4 22.2-7.4 22.2h-4.5L316 22.3h4.6l7.2 27.5 7.3-22.9h4.6l7.3 22.6c.4-2.1 6.9-27.2 6.9-27.2h4.5l-8.9 34.2H345zm-36.6-3.1c-1.5 2.4-4.3 3.9-7.3 3.9-1.9 0-5-.3-6.6-1.4-1.6-1.1-2.9-2.6-3.8-4.5-.9-1.9-1.3-4.1-1.3-6.6 0-2.4.3-3.7 1.1-5.7s2.6-3.9 4.2-4.9c1.6-1.1 3.5-1.8 6.6-1.8 1.5 0 2.9.5 4 1.3 1.4.9 2.1 1.8 2.8 2.8V22.2h4.5v34.2h-4.2v-3zm-2.5-15.1c-1.3-1.6-3.8-1.8-5.7-1.8-1.8 0-3.4.8-4.6 2.3-1.2 1.5-2 3.1-2 6.3 0 3.1.9 4.7 2.2 6.2s2.9 2.3 4.6 2.3c1.8 0 4.8-.7 6.1-2.2 1.3-1.5 1.9-3.7 1.9-6.8 0-3.3-1.2-4.8-2.5-6.3zm-26.1 8.8h-14l-3.4 9.4h-5l12.9-34.2h4.8L288 56.5h-4.6l-3.6-9.4zm-4.9-13.9c-1.1-2.8-2.3-5.6-2.3-5.6s-1.2 3-1.9 5.1l-3.5 10.5h10.9l-3.2-10zm-39.2 20c3.2 0 5.2-1.8 6.3-3.6l4.5 3c-2 2.7-5.3 5.7-10.8 5.7-6.5 0-12.6-4.8-12.6-13 0-7.7 5.5-13 12-13 5.1 0 9 3.5 10.7 7.6l.9 2.1-17.3 7.2c1 2 2.7 4 6.3 4zm4.4-13.1c-.7-1.5-2.4-2.8-4.8-2.8-3.7 0-7.3 3.9-6.8 7.6l11.6-4.8zm-25.3-20.8h5.7v38.2h-5.7V19.3zM198.9 70c-6.3 0-9.8-3.9-11.6-7.6l4.9-2.1c.7 1.7 2.7 4.6 6.6 4.6 4.1 0 6.8-2.7 6.8-7.2v-2.6c-1.4 1.7-3.4 3.2-7.1 3.2-5.9 0-12.2-5.2-12.2-13 0-6.9 5.4-13 12.4-13 3 0 5.3 1.2 6.9 3v-2.2h5.4v23.3c.1 9.2-5.2 13.6-12.1 13.6zm.3-32.5c-3.6 0-7.2 3-7.2 7.9 0 4.8 3.4 7.8 7.1 7.8 3.5 0 7-2.8 7-7.9 0-4.9-3.5-7.8-6.9-7.8zm-28 20.8c-7.8 0-13-6-13-13.1 0-6.9 5.4-12.9 12.9-12.9 6.2 0 12.9 4.4 12.9 13 0 7.6-5.7 13-12.8 13zm0-20.8c-4.2 0-7.4 3.4-7.4 7.8 0 4.6 3.2 7.9 7.4 7.9 3.7 0 7.2-3.1 7.2-7.9 0-4.8-3.5-7.8-7.2-7.8zm-28.1 20.8c-7.8 0-13-6-13-13.1 0-6.9 5.4-12.9 12.9-12.9 6.2 0 12.9 4.4 12.9 13 0 7.6-5.8 13-12.8 13zm-.1-20.8c-4.2 0-7.4 3.4-7.4 7.8 0 4.6 3.2 7.9 7.4 7.9 3.7 0 7.2-3.1 7.2-7.9.1-4.8-3.4-7.8-7.2-7.8zm-33.3 20.8c-12.2 0-20.5-10-20.5-20.2C89.2 27.7 98 18 109.4 18c8.9 0 13.8 5.5 13.8 5.5l-3.8 4s-3.6-4-9.8-4c-8 0-14.4 6.4-14.4 14.7 0 8.5 6.7 14.6 14.4 14.6 6 0 12.4-3.3 13-11h-13v-5.5H128s.3 1.3.3 3.6c-.1 11-7.9 18.4-18.6 18.4zm18.2-21.9z"/></g></svg>