<svg version="1.1" xmlns="http://www.w3.org/2000/svg" xmlns:xlink="http://www.w3.org/1999/xlink" width="154" height="764" viewBox="0 0 154 764"><g id="bg_LeftSide"><path id="Rectangle-32" d="M0.000,-0.000 L154.000,-0.000 L154.000,764.000 L0.000,764.000 L0.000,-0.000 z" fill="#FFFFFF" /><path id="Grey-dots-+-line" d="M111.516,759.659 C113.863,759.866 115.662,761.732 115.868,764.000 C115.868,764.000 106.319,764.000 106.319,764.000 C106.409,763.021 106.786,762.137 107.362,761.425 C107.362,761.425 26.683,697.038 26.683,697.038 C26.054,697.572 25.249,697.906 24.359,697.906 C23.974,697.906 23.610,697.830 23.261,697.718 C23.261,697.718 0.000,749.088 0.000,749.088 L0.000,748.013 C0.000,748.013 22.844,697.563 22.844,697.563 C21.717,697.039 20.918,695.952 20.787,694.661 C20.787,694.661 0.000,692.346 0.000,692.346 L0.000,691.963 C0.000,691.963 20.752,694.274 20.752,694.274 C20.764,692.518 22.029,691.064 23.698,690.754 C23.698,690.754 17.346,623.970 17.346,623.970 C16.376,623.891 15.521,623.437 14.920,622.744 C14.920,622.744 0.000,636.407 0.000,636.407 L0.000,635.812 C0.000,635.812 14.641,622.404 14.641,622.404 C14.257,621.833 14.031,621.146 14.031,620.406 C14.031,618.918 14.939,617.642 16.234,617.096 C16.234,617.096 0.028,548.125 0.028,548.125 C0.019,548.126 0.009,548.126 0.000,548.127 C0.000,548.127 0.000,541.026 0.000,541.026 C0.195,541.063 0.385,541.115 0.569,541.179 C0.569,541.179 27.670,463.055 27.670,463.055 C26.528,462.716 25.632,461.832 25.275,460.698 C25.275,460.698 0.000,459.479 0.000,459.479 L0.000,459.035 C0.000,459.035 25.157,460.247 25.157,460.247 C25.121,460.044 25.094,459.838 25.094,459.625 C25.094,458.725 25.436,457.912 25.983,457.281 C25.983,457.281 0.000,422.097 0.000,422.097 L0.000,421.350 C0.000,421.350 26.297,456.959 26.297,456.959 C26.933,456.389 27.765,456.031 28.687,456.031 C29.110,456.031 29.510,456.118 29.887,456.252 C29.887,456.252 68.517,333.128 68.517,333.128 C67.949,333.043 67.412,332.863 66.928,332.596 C66.928,332.596 0.000,398.135 0.000,398.135 L0.000,397.514 C0.000,397.514 66.537,332.357 66.537,332.357 C65.663,331.761 64.996,330.883 64.667,329.854 C64.667,329.854 0.000,333.462 0.000,333.462 L0.000,333.017 C0.000,333.017 64.550,329.416 64.550,329.416 C64.478,329.085 64.438,328.743 64.438,328.391 C64.438,327.681 64.596,327.009 64.872,326.403 C64.872,326.403 0.000,285.448 0.000,285.448 L0.000,284.922 C0.000,284.922 65.076,326.006 65.076,326.006 C65.779,324.784 67.003,323.903 68.446,323.664 C68.446,323.664 41.099,201.044 41.099,201.044 C40.731,201.134 40.349,201.188 39.953,201.188 C39.153,201.188 38.400,200.989 37.736,200.642 C37.736,200.642 0.000,260.072 0.000,260.072 L0.000,259.244 C0.000,259.244 37.355,200.419 37.355,200.419 C36.516,199.877 35.859,199.081 35.490,198.139 C35.490,198.139 0.000,210.390 0.000,210.390 L0.000,209.921 C0.000,209.921 35.347,197.720 35.347,197.720 C35.225,197.297 35.156,196.852 35.156,196.391 C35.156,195.832 35.257,195.299 35.432,194.800 C35.432,194.800 0.000,182.364 0.000,182.364 L0.000,181.893 C0.000,181.893 35.598,194.388 35.598,194.388 C35.929,193.670 36.432,193.049 37.055,192.575 C37.055,192.575 0.000,145.834 0.000,145.834 L0.000,145.123 C0.000,145.123 37.420,192.323 37.420,192.323 C38.156,191.863 39.022,191.594 39.953,191.594 C40.329,191.594 40.692,191.641 41.043,191.723 C41.043,191.723 64.646,85.858 64.646,85.858 L0.000,134.089 L0.000,133.536 L64.325,85.545 L0.000,85.545 L0.000,85.102 L64.605,85.102 C64.605,85.102 20.251,9.296 20.251,9.296 C19.753,9.557 19.195,9.719 18.594,9.719 C16.901,9.719 15.491,8.544 15.110,6.968 C15.110,6.968 0.000,10.410 0.000,10.410 L0.000,9.954 C0.000,9.954 15.041,6.528 15.041,6.528 C15.025,6.394 15.000,6.263 15.000,6.125 C15.000,4.140 16.609,2.531 18.594,2.531 C20.579,2.531 22.188,4.140 22.188,6.125 C22.188,7.350 21.572,8.429 20.636,9.078 C20.636,9.078 65.051,84.986 65.051,84.986 C65.051,84.986 119.228,39.869 119.228,39.869 C118.567,39.218 118.156,38.314 118.156,37.313 C118.156,35.328 119.765,33.719 121.750,33.719 C123.735,33.719 125.344,35.328 125.344,37.313 C125.344,39.297 123.735,40.906 121.750,40.906 C120.929,40.906 120.182,40.620 119.577,40.157 C119.577,40.157 65.191,85.446 65.191,85.446 C65.191,85.446 41.470,191.842 41.470,191.842 C43.375,192.477 44.750,194.272 44.750,196.391 C44.750,196.751 44.707,197.100 44.632,197.437 C44.632,197.437 90.557,212.260 90.557,212.260 C91.047,210.857 92.367,209.844 93.938,209.844 C95.922,209.844 97.531,211.453 97.531,213.437 C97.531,215.422 95.922,217.031 93.938,217.031 C93.747,217.031 93.563,217.004 93.381,216.975 C93.381,216.975 71.258,324.046 71.258,324.046 C72.894,324.810 74.031,326.465 74.031,328.391 C74.031,330.164 73.066,331.709 71.635,332.539 C71.635,332.539 117.730,434.004 117.730,434.004 C117.945,433.964 118.164,433.938 118.391,433.938 C120.384,433.938 122.000,435.553 122.000,437.547 C122.000,439.307 120.738,440.769 119.070,441.088 C119.070,441.088 108.971,577.636 108.971,577.636 C110.400,578.113 111.438,579.451 111.438,581.047 C111.438,583.040 109.829,584.656 107.844,584.656 C107.496,584.656 107.167,584.591 106.849,584.499 C106.849,584.499 64.760,655.877 64.760,655.877 C64.760,655.877 109.792,759.826 109.792,759.826 C110.338,759.671 110.918,759.607 111.516,759.659 zM24.138,690.710 C24.213,690.705 24.284,690.688 24.359,690.688 C25.430,690.688 26.381,691.163 27.042,691.903 C27.042,691.903 64.171,655.882 64.171,655.882 C64.171,655.882 20.246,622.884 20.246,622.884 C19.622,623.534 18.757,623.944 17.792,623.985 C17.792,623.985 24.138,690.710 24.138,690.710 zM0.456,548.013 C0.456,548.013 16.658,616.964 16.658,616.964 C16.972,616.875 17.298,616.813 17.641,616.813 C18.966,616.813 20.112,617.532 20.740,618.592 C20.740,618.592 104.662,582.692 104.662,582.692 C104.408,582.197 104.250,581.643 104.250,581.047 C104.250,580.740 104.300,580.448 104.371,580.164 C104.371,580.164 2.603,546.194 2.603,546.194 C2.167,547.063 1.397,547.722 0.456,548.013 zM28.687,463.219 C28.487,463.219 28.293,463.191 28.101,463.160 C28.101,463.160 0.980,541.348 0.980,541.348 C2.172,541.935 3.000,543.154 3.000,544.578 C3.000,545.004 2.913,545.406 2.779,545.785 C2.779,545.785 104.502,579.740 104.502,579.740 C104.793,578.990 105.326,578.370 106.005,577.961 C106.005,577.961 30.008,462.961 30.008,462.961 C29.598,463.123 29.155,463.219 28.687,463.219 zM92.947,216.876 C91.447,216.443 90.344,215.076 90.344,213.437 C90.344,213.179 90.374,212.927 90.426,212.684 C90.426,212.684 44.516,197.867 44.516,197.867 C44.054,199.296 42.940,200.427 41.525,200.919 C41.525,200.919 68.888,323.611 68.888,323.611 C69.003,323.603 69.118,323.594 69.234,323.594 C69.799,323.594 70.338,323.696 70.841,323.875 C70.841,323.875 92.947,216.876 92.947,216.876 zM71.241,332.743 C70.630,333.026 69.952,333.187 69.234,333.187 C69.144,333.187 69.056,333.179 68.967,333.174 C68.967,333.174 30.296,456.427 30.296,456.427 C31.437,457.003 32.227,458.158 32.270,459.513 C32.270,459.513 114.900,438.421 114.900,438.421 C114.830,438.140 114.781,437.850 114.781,437.547 C114.781,435.937 115.843,434.589 117.298,434.124 C117.298,434.124 71.241,332.743 71.241,332.743 zM107.844,577.438 C108.081,577.438 108.312,577.464 108.537,577.508 C108.537,577.508 118.625,441.133 118.625,441.133 C118.546,441.138 118.471,441.156 118.391,441.156 C116.856,441.156 115.554,440.195 115.032,438.845 C115.032,438.845 32.246,459.976 32.246,459.976 C32.127,461.183 31.420,462.206 30.407,462.762 C30.407,462.762 106.395,577.748 106.395,577.748 C106.839,577.551 107.327,577.438 107.844,577.438 zM106.417,584.358 C105.792,584.085 105.258,583.640 104.877,583.081 C104.877,583.081 20.953,618.983 20.953,618.983 C21.143,619.419 21.250,619.900 21.250,620.406 C21.250,621.210 20.976,621.944 20.528,622.543 C20.528,622.543 64.447,655.535 64.447,655.535 C64.447,655.535 106.417,584.358 106.417,584.358 zM64.436,656.243 C64.436,656.243 27.325,692.245 27.325,692.245 C27.729,692.828 27.969,693.534 27.969,694.297 C27.969,695.238 27.600,696.088 27.009,696.731 C27.009,696.731 107.658,761.093 107.658,761.093 C108.139,760.600 108.724,760.217 109.371,759.966 C109.371,759.966 64.436,656.243 64.436,656.243 z" fill="#ECECEC" /></g></svg>