<svg version="1.1" xmlns="http://www.w3.org/2000/svg" xmlns:xlink="http://www.w3.org/1999/xlink" width="1366" height="703" viewBox="0 0 1366 703"><g id="bgArrowsGeometry"><path id="Rectangle-29" d="M1389.406,589.469 L1326.406,611.469 L1244.406,634.968 L1177.406,655.469 L1099.406,653.969 L1023.906,638.968 L975.406,670.469 L851.906,649.468 L733.406,684.969 L611.406,659.469 L471.406,668.469 L336.406,667.469 L247.906,630.969 L166.406,632.968 L85.906,628.468 L11.906,604.469 L-12.094,590.969 L-12.094,573.969 L-0.000,573.973 L-0.000,-0.000 L682.500,40.000 L1366.000,-0.000 L1366.000,574.461 L1388.406,574.469 L1389.406,589.469 z" fill="#F9F9F9" /><path id="Grey-dots-+-line" d="M1388.125,593.969 C1386.658,593.969 1385.400,593.087 1384.842,591.826 C1384.842,591.826 1330.111,610.798 1330.111,610.798 C1330.113,610.846 1330.125,610.890 1330.125,610.938 C1330.125,612.922 1328.516,614.531 1326.531,614.531 C1325.269,614.531 1324.164,613.878 1323.523,612.894 C1323.523,612.894 1181.128,654.346 1181.128,654.346 C1181.410,655.033 1181.540,655.794 1181.471,656.585 C1181.406,657.323 1181.173,658.004 1180.819,658.602 C1180.819,658.602 1219.018,685.869 1219.018,685.869 C1219.679,685.130 1220.631,684.656 1221.703,684.656 C1223.697,684.656 1225.312,686.265 1225.312,688.250 C1225.312,690.235 1223.697,691.844 1221.703,691.844 C1219.710,691.844 1218.094,690.235 1218.094,688.250 C1218.094,687.487 1218.336,686.782 1218.744,686.200 C1218.744,686.200 1180.585,658.962 1180.585,658.962 C1179.628,660.291 1178.019,661.100 1176.270,660.947 C1173.629,660.715 1171.676,658.385 1171.908,655.744 C1171.910,655.723 1171.915,655.702 1171.917,655.680 C1171.917,655.680 1103.035,654.452 1103.035,654.452 C1102.757,656.161 1101.279,657.469 1099.484,657.469 C1097.491,657.469 1095.875,655.860 1095.875,653.875 C1095.875,653.794 1095.894,653.718 1095.899,653.638 C1095.899,653.638 1027.055,639.840 1027.055,639.840 C1026.859,641.649 1025.345,643.063 1023.484,643.063 C1022.245,643.063 1021.152,642.437 1020.502,641.485 C1020.502,641.485 978.113,668.878 978.113,668.878 C978.353,669.359 978.500,669.895 978.500,670.469 C978.500,672.454 976.891,674.063 974.906,674.063 C972.921,674.063 971.312,672.454 971.312,670.469 C971.312,670.301 971.340,670.140 971.362,669.978 C971.362,669.978 856.048,650.129 856.048,650.129 C855.654,652.381 853.693,654.094 851.328,654.094 C849.264,654.094 847.509,652.787 846.833,650.958 C846.833,650.958 736.399,684.350 736.399,684.350 C736.443,684.576 736.469,684.808 736.469,685.047 C736.469,687.040 734.860,688.656 732.875,688.656 C730.890,688.656 729.281,687.040 729.281,685.047 C729.281,684.895 729.308,684.751 729.326,684.605 C729.326,684.605 616.498,660.565 616.498,660.565 C615.835,662.420 614.067,663.750 611.984,663.750 C609.628,663.750 607.673,662.050 607.268,659.810 C607.268,659.810 477.545,668.439 477.545,668.439 C477.542,668.526 477.543,668.612 477.535,668.699 C477.303,671.340 474.974,673.292 472.334,673.060 C469.980,672.853 468.177,670.979 467.977,668.704 C467.977,668.704 339.751,667.262 339.751,667.262 C339.355,668.815 337.958,669.969 336.281,669.969 C334.296,669.969 332.687,668.360 332.687,666.375 C332.687,666.210 332.715,666.053 332.736,665.894 C332.736,665.894 251.287,632.459 251.287,632.459 C250.655,634.370 248.857,635.750 246.734,635.750 C246.071,635.750 245.439,635.615 244.864,635.372 C244.864,635.372 206.227,695.960 206.227,695.960 C207.090,696.617 207.656,697.644 207.656,698.812 C207.656,700.797 206.047,702.406 204.062,702.406 C202.078,702.406 200.469,700.797 200.469,698.812 C200.469,696.828 202.078,695.219 204.062,695.219 C204.730,695.219 205.347,695.413 205.882,695.729 C205.882,695.729 244.489,635.191 244.489,635.191 C243.012,634.406 241.997,632.873 241.945,631.096 C241.945,631.096 166.319,633.477 166.319,633.477 L166.372,633.261 L166.222,633.423 C166.222,633.423 88.736,628.352 88.736,628.352 C88.664,630.274 87.088,631.813 85.141,631.813 C83.147,631.813 81.531,630.204 81.531,628.219 C81.531,627.835 81.608,627.473 81.719,627.127 C81.719,627.127 15.062,605.766 15.062,605.766 C15.154,606.085 15.219,606.416 15.219,606.766 C15.219,608.759 13.610,610.375 11.625,610.375 C9.640,610.375 8.031,608.759 8.031,606.766 C8.031,604.772 9.640,603.156 11.625,603.156 C12.358,603.156 13.037,603.379 13.606,603.757 C13.606,603.757 101.844,516.473 101.844,516.473 C100.960,515.717 100.356,514.645 100.200,513.430 C100.200,513.430 14.147,514.252 14.147,514.252 C14.193,514.484 14.219,514.723 14.219,514.969 C14.219,516.954 12.610,518.563 10.625,518.563 C8.640,518.563 7.031,516.954 7.031,514.969 C7.031,512.984 8.640,511.375 10.625,511.375 C12.202,511.375 13.528,512.398 14.011,513.811 C14.011,513.811 100.165,512.987 100.165,512.987 C100.163,512.929 100.156,512.871 100.156,512.812 C100.156,510.823 101.360,509.116 103.076,508.383 C103.076,508.383 51.791,396.737 51.791,396.737 C51.433,396.857 51.055,396.938 50.656,396.938 C48.671,396.938 47.063,395.329 47.063,393.344 C47.063,391.359 48.671,389.750 50.656,389.750 C51.320,389.750 51.933,389.942 52.467,390.256 C52.467,390.256 107.117,312.943 107.117,312.943 C107.117,312.943 78.217,267.336 78.217,267.336 C77.583,267.898 76.758,268.250 75.844,268.250 C73.859,268.250 72.250,266.641 72.250,264.656 C72.250,262.671 73.859,261.062 75.844,261.062 C77.829,261.062 79.437,262.671 79.437,264.656 C79.437,265.564 79.090,266.384 78.534,267.016 C78.534,267.016 107.497,312.722 107.497,312.722 C107.497,312.722 218.233,320.153 218.233,320.153 C218.627,317.901 220.588,316.187 222.953,316.187 C223.997,316.187 224.959,316.524 225.746,317.090 C225.746,317.090 272.059,265.124 272.059,265.124 C271.354,264.467 270.906,263.539 270.906,262.500 C270.906,260.515 272.515,258.906 274.500,258.906 C276.485,258.906 278.094,260.515 278.094,262.500 C278.094,263.052 277.959,263.569 277.737,264.036 C277.737,264.036 396.548,329.826 396.548,329.826 C397.417,328.950 398.621,328.406 399.953,328.406 C401.963,328.406 403.681,329.643 404.395,331.396 C404.395,331.396 478.536,312.969 478.536,312.969 C478.562,310.997 480.163,309.406 482.141,309.406 C484.134,309.406 485.750,311.022 485.750,313.016 C485.750,313.363 485.685,313.692 485.594,314.009 C485.594,314.009 572.044,363.075 572.044,363.075 C572.700,362.396 573.619,361.969 574.641,361.969 C575.774,361.969 576.773,362.500 577.435,363.313 C577.435,363.313 664.198,312.300 664.198,312.300 C663.864,311.569 663.706,310.746 663.781,309.889 C664.013,307.249 666.342,305.297 668.982,305.529 C671.427,305.744 673.278,307.755 673.356,310.148 C673.356,310.148 804.395,321.712 804.395,321.712 C804.395,321.712 804.395,321.712 804.395,321.712 C804.395,321.712 804.395,321.712 804.395,321.712 C804.511,321.218 804.701,320.757 804.953,320.338 C804.956,320.334 804.959,320.329 804.961,320.325 C805.215,319.907 805.529,319.532 805.892,319.212 C805.892,319.212 805.892,319.212 805.892,319.212 C805.895,319.209 805.898,319.207 805.901,319.204 C806.090,319.038 806.293,318.889 806.506,318.754 C806.506,318.754 806.506,318.754 806.506,318.754 C806.526,318.741 806.546,318.729 806.566,318.717 C806.787,318.582 807.018,318.463 807.260,318.365 C807.260,318.365 807.260,318.365 807.260,318.365 C807.326,318.338 807.392,318.314 807.459,318.290 C807.459,318.290 807.459,318.290 807.459,318.290 C807.530,318.265 807.601,318.240 807.673,318.218 C807.673,318.218 807.673,318.218 807.673,318.218 C807.740,318.198 807.808,318.181 807.876,318.164 C807.951,318.144 808.027,318.124 808.104,318.108 C808.104,318.108 808.104,318.108 808.104,318.108 C808.189,318.091 808.275,318.078 808.362,318.066 C808.362,318.066 808.362,318.066 808.362,318.066 C808.425,318.056 808.488,318.045 808.552,318.038 C808.552,318.038 808.552,318.038 808.552,318.038 C808.650,318.028 808.750,318.024 808.849,318.019 C809.058,318.010 809.269,318.010 809.482,318.029 C809.619,318.041 809.753,318.060 809.885,318.085 C810.027,318.109 810.167,318.141 810.304,318.178 C810.322,318.182 810.340,318.186 810.357,318.191 C810.357,318.191 810.357,318.191 810.357,318.191 C810.591,318.256 810.816,318.340 811.033,318.438 C811.033,318.438 811.033,318.438 811.033,318.438 C811.067,318.453 811.099,318.469 811.132,318.484 C811.354,318.591 811.568,318.711 811.769,318.849 C811.769,318.849 811.769,318.849 811.769,318.849 C811.795,318.866 811.818,318.885 811.843,318.903 C811.843,318.903 811.843,318.903 811.843,318.903 C812.045,319.047 812.238,319.203 812.414,319.375 C812.414,319.375 812.414,319.375 812.414,319.375 C812.415,319.376 812.416,319.377 812.416,319.377 C812.416,319.377 812.416,319.377 812.416,319.377 C812.594,319.551 812.754,319.741 812.903,319.940 C812.903,319.940 812.903,319.940 812.903,319.940 C812.921,319.964 812.940,319.988 812.958,320.012 C812.958,320.012 812.958,320.012 812.958,320.012 C813.098,320.207 813.222,320.413 813.332,320.628 C813.332,320.628 813.332,320.628 813.332,320.628 C813.340,320.643 813.347,320.658 813.355,320.673 C813.473,320.909 813.573,321.155 813.651,321.410 C813.656,321.426 813.660,321.442 813.664,321.457 C813.664,321.457 813.664,321.457 813.664,321.457 C813.738,321.707 813.794,321.963 813.826,322.226 C813.826,322.226 1032.301,327.241 1032.301,327.241 C1032.633,326.358 1033.297,325.644 1034.146,325.249 C1034.146,325.249 991.151,261.232 991.151,261.232 C990.517,261.781 989.701,262.125 988.797,262.125 C986.803,262.125 985.188,260.509 985.188,258.516 C985.188,256.522 986.803,254.906 988.797,254.906 C990.790,254.906 992.406,256.522 992.406,258.516 C992.406,259.512 992.002,260.415 991.349,261.068 C991.349,261.068 1034.388,325.148 1034.388,325.148 C1034.784,324.998 1035.208,324.906 1035.656,324.906 C1037.208,324.906 1038.518,325.895 1039.021,327.272 C1039.021,327.272 1159.558,324.979 1159.558,324.979 C1159.984,322.766 1161.928,321.094 1164.266,321.094 C1166.915,321.094 1169.063,323.241 1169.063,325.891 C1169.063,326.200 1169.031,326.501 1168.975,326.793 C1168.975,326.793 1247.069,359.255 1247.069,359.255 C1247.727,358.402 1248.747,357.844 1249.906,357.844 C1251.891,357.844 1253.500,359.453 1253.500,361.437 C1253.500,361.744 1253.450,362.036 1253.378,362.320 C1253.378,362.320 1320.461,397.844 1320.461,397.844 C1321.084,396.766 1322.239,396.031 1323.578,396.031 C1325.572,396.031 1327.188,397.640 1327.188,399.625 C1327.188,401.610 1325.572,403.219 1323.578,403.219 C1323.070,403.219 1322.587,403.112 1322.148,402.923 C1322.148,402.923 1304.880,486.723 1304.880,486.723 C1306.276,487.221 1307.281,488.542 1307.281,490.109 C1307.281,491.004 1306.944,491.812 1306.405,492.443 C1306.405,492.443 1386.877,587.017 1386.877,587.017 C1387.267,586.872 1387.684,586.781 1388.125,586.781 C1390.110,586.781 1391.719,588.390 1391.719,590.375 C1391.719,592.360 1390.110,593.969 1388.125,593.969 zM1326.531,607.344 C1328.339,607.344 1329.820,608.682 1330.073,610.420 C1330.073,610.420 1384.721,591.475 1384.721,591.475 C1384.608,591.127 1384.531,590.761 1384.531,590.375 C1384.531,589.849 1384.650,589.354 1384.853,588.904 C1384.853,588.904 1240.936,542.055 1240.936,542.055 C1240.825,542.480 1240.659,542.879 1240.445,543.247 C1240.445,543.247 1323.957,608.437 1323.957,608.437 C1324.610,607.764 1325.520,607.344 1326.531,607.344 zM1180.939,653.941 C1180.939,653.941 1323.307,612.496 1323.307,612.496 C1323.077,612.023 1322.938,611.499 1322.938,610.938 C1322.938,610.122 1323.219,609.379 1323.677,608.776 C1323.677,608.776 1240.205,543.619 1240.205,543.619 C1239.250,544.959 1237.635,545.777 1235.877,545.622 C1235.256,545.567 1234.675,545.393 1234.150,545.130 C1234.150,545.130 1178.448,651.700 1178.448,651.700 C1179.532,652.127 1180.410,652.932 1180.939,653.941 zM968.693,377.983 C968.693,377.983 813.678,324.120 813.678,324.120 C813.678,324.120 813.678,324.120 813.678,324.120 C813.678,324.120 813.678,324.120 813.678,324.120 C813.535,324.624 813.314,325.091 813.029,325.509 C813.029,325.509 813.029,325.509 813.029,325.509 C813.029,325.509 988.831,480.242 988.831,480.242 C989.539,479.589 990.443,479.147 991.446,479.015 C991.446,479.015 972.273,382.245 972.273,382.245 C972.255,382.245 972.237,382.250 972.219,382.250 C970.234,382.250 968.625,380.641 968.625,378.656 C968.625,378.426 968.651,378.202 968.693,377.983 zM812.436,326.220 C812.436,326.220 812.436,326.220 812.436,326.220 C812.420,326.236 812.402,326.252 812.385,326.267 C812.139,326.503 811.869,326.711 811.579,326.890 C811.579,326.890 811.579,326.890 811.579,326.890 C811.574,326.894 811.569,326.897 811.564,326.900 C811.378,327.014 811.187,327.119 810.986,327.207 C810.986,327.207 810.986,327.207 810.986,327.207 C810.985,327.207 810.984,327.208 810.983,327.208 C810.654,327.353 810.305,327.456 809.945,327.523 C809.945,327.523 809.945,327.523 809.945,327.523 C809.936,327.525 809.927,327.526 809.919,327.528 C809.741,327.560 809.560,327.581 809.376,327.593 C809.376,327.593 809.376,327.593 809.376,327.593 C809.319,327.597 809.263,327.602 809.205,327.604 C809.205,327.604 809.205,327.604 809.205,327.604 C809.019,327.609 808.832,327.607 808.642,327.590 C808.436,327.572 808.236,327.537 808.039,327.494 C808.039,327.494 808.039,327.494 808.039,327.494 C808.039,327.494 808.039,327.494 808.039,327.494 C808.039,327.494 791.502,393.377 791.502,393.377 C792.699,393.962 793.531,395.176 793.531,396.594 C793.531,396.958 793.461,397.303 793.359,397.635 C793.359,397.635 987.850,481.500 987.850,481.500 C988.045,481.138 988.288,480.806 988.565,480.507 C988.565,480.507 812.806,325.812 812.806,325.812 C812.806,325.812 812.806,325.812 812.806,325.812 C812.806,325.812 812.806,325.812 812.806,325.812 C812.691,325.956 812.567,326.091 812.436,326.220 zM621.693,432.492 C621.693,432.492 627.119,474.951 627.119,474.951 C627.209,474.946 627.299,474.938 627.391,474.938 C629.808,474.938 631.802,476.733 632.134,479.066 C632.134,479.066 781.084,470.377 781.084,470.377 C781.084,470.377 699.077,413.310 699.077,413.310 C698.424,413.984 697.513,414.406 696.500,414.406 C695.013,414.406 693.738,413.503 693.191,412.216 C693.191,412.216 624.219,428.429 624.219,428.429 C624.254,428.630 624.281,428.835 624.281,429.047 C624.281,430.683 623.185,432.049 621.693,432.492 zM617.063,429.042 C617.063,429.042 566.290,427.491 566.290,427.491 C566.172,429.377 564.627,430.875 562.719,430.875 C562.696,430.875 562.676,430.869 562.654,430.868 C562.654,430.868 532.381,516.012 532.381,516.012 C533.176,516.373 533.814,517.013 534.174,517.811 C534.174,517.811 622.831,481.239 622.831,481.239 C622.678,480.770 622.594,480.270 622.594,479.750 C622.594,477.331 624.375,475.335 626.692,474.994 C626.692,474.994 621.274,432.596 621.274,432.596 C621.077,432.629 620.878,432.656 620.672,432.656 C618.678,432.656 617.063,431.040 617.063,429.047 C617.063,429.045 617.063,429.044 617.063,429.042 zM486.721,443.035 C486.721,443.035 529.307,516.080 529.307,516.080 C529.791,515.837 530.329,515.688 530.906,515.688 C531.283,515.688 531.639,515.762 531.980,515.870 C531.980,515.870 562.218,430.824 562.218,430.824 C560.732,430.614 559.538,429.504 559.216,428.050 C559.216,428.050 488.308,438.269 488.308,438.269 C488.390,438.620 488.437,438.984 488.437,439.359 C488.437,440.836 487.770,442.155 486.721,443.035 zM316.050,505.625 C316.050,505.625 410.297,524.455 410.297,524.455 C410.484,523.403 411.012,522.473 411.764,521.777 C411.764,521.777 353.961,440.429 353.961,440.429 C353.961,440.429 314.863,502.165 314.863,502.165 C315.629,502.826 316.125,503.796 316.125,504.891 C316.125,505.142 316.099,505.388 316.050,505.625 zM410.219,525.297 C410.219,525.161 410.228,525.028 410.239,524.896 C410.239,524.896 315.918,506.052 315.918,506.052 C315.616,506.940 314.985,507.665 314.164,508.089 C314.164,508.089 360.937,618.491 360.937,618.491 C361.605,618.139 362.364,617.937 363.172,617.937 C363.924,617.937 364.633,618.116 365.267,618.424 C365.267,618.424 412.470,529.357 412.470,529.357 C411.119,528.509 410.219,527.010 410.219,525.297 zM109.179,515.090 C109.179,515.090 161.150,546.116 161.150,546.116 L161.150,461.005 C161.150,461.005 108.975,510.195 108.975,510.195 C109.463,510.949 109.750,511.846 109.750,512.812 C109.750,513.637 109.543,514.412 109.179,515.090 zM161.482,460.189 C161.482,460.189 210.642,435.789 210.642,435.789 C210.279,435.228 210.063,434.562 210.063,433.844 C210.063,432.803 210.512,431.873 211.219,431.217 C211.219,431.217 107.961,313.938 107.961,313.938 L161.482,460.189 zM237.483,473.592 C237.483,473.592 161.594,460.754 161.594,460.754 L161.594,546.010 C161.594,546.010 238.349,477.265 238.349,477.265 C237.759,476.468 237.406,475.487 237.406,474.422 C237.406,474.138 237.436,473.862 237.483,473.592 zM210.919,436.147 C210.919,436.147 162.082,460.387 162.082,460.387 C162.082,460.387 237.580,473.159 237.580,473.159 C237.869,472.105 238.507,471.198 239.365,470.566 C239.365,470.566 215.700,436.795 215.700,436.795 C215.119,437.198 214.417,437.437 213.656,437.437 C212.553,437.437 211.578,436.930 210.919,436.147 zM238.629,477.609 C238.629,477.609 162.218,546.046 162.218,546.046 C162.218,546.046 309.107,505.930 309.107,505.930 C309.007,505.599 308.937,505.255 308.937,504.891 C308.937,504.525 309.008,504.179 309.108,503.846 C309.108,503.846 246.617,476.363 246.617,476.363 C245.869,478.044 244.183,479.219 242.219,479.219 C240.790,479.219 239.511,478.595 238.629,477.609 zM161.975,546.572 C161.975,546.572 250.252,592.643 250.252,592.643 C251.117,591.387 252.563,590.562 254.203,590.562 C255.154,590.562 256.037,590.842 256.782,591.319 C256.782,591.319 310.639,507.947 310.639,507.947 C310.030,507.567 309.543,507.014 309.249,506.350 C309.249,506.350 161.975,546.572 161.975,546.572 zM257.145,591.576 C258.272,592.454 259.000,593.820 259.000,595.359 C259.000,595.599 258.977,595.832 258.943,596.062 C258.943,596.062 358.418,622.127 358.418,622.127 C358.598,620.701 359.403,619.471 360.552,618.719 C360.552,618.719 313.759,508.270 313.759,508.270 C313.374,508.411 312.964,508.500 312.531,508.500 C311.993,508.500 311.488,508.373 311.029,508.160 C311.029,508.160 257.145,591.576 257.145,591.576 zM365.656,618.637 C366.958,619.428 367.851,620.818 367.953,622.427 C367.953,622.427 494.225,601.264 494.225,601.264 C494.212,601.140 494.187,601.019 494.187,600.891 C494.187,600.066 494.475,599.316 494.940,598.708 C494.940,598.708 418.122,528.948 418.122,528.948 C417.285,529.661 416.202,530.094 415.016,530.094 C414.238,530.094 413.505,529.904 412.855,529.576 C412.855,529.576 365.656,618.637 365.656,618.637 zM592.698,581.564 C592.789,580.527 593.207,579.598 593.837,578.864 C593.837,578.864 533.365,521.918 533.365,521.918 C532.721,522.527 531.860,522.906 530.906,522.906 C530.529,522.906 530.173,522.832 529.832,522.724 C529.832,522.724 499.278,597.606 499.278,597.606 C500.275,598.057 501.024,598.945 501.291,600.028 C501.291,600.028 592.819,583.122 592.819,583.122 C592.698,582.625 592.651,582.102 592.698,581.564 zM987.286,483.662 C987.286,483.662 782.486,470.819 782.486,470.819 C782.486,470.819 878.431,536.008 878.431,536.008 C879.089,535.190 880.087,534.656 881.219,534.656 C882.575,534.656 883.741,535.416 884.353,536.525 C884.353,536.525 987.794,485.915 987.794,485.915 C987.469,485.268 987.281,484.539 987.281,483.766 C987.281,483.731 987.286,483.697 987.286,483.662 zM631.578,482.095 C631.578,482.095 684.870,518.861 684.870,518.861 C685.529,518.109 686.485,517.625 687.563,517.625 C688.830,517.625 689.938,518.284 690.578,519.275 C690.578,519.275 780.776,470.810 780.776,470.810 C780.776,470.810 632.174,479.478 632.174,479.478 C632.179,479.569 632.187,479.658 632.187,479.750 C632.187,480.602 631.965,481.401 631.578,482.095 zM690.774,519.635 C691.011,520.115 691.156,520.648 691.156,521.219 C691.156,521.890 690.961,522.510 690.641,523.047 C690.641,523.047 748.798,567.209 748.798,567.209 C749.425,566.153 750.562,565.438 751.875,565.438 C751.950,565.438 752.020,565.455 752.094,565.460 C752.094,565.460 767.270,523.257 767.270,523.257 L767.272,523.257 L781.363,470.958 C781.363,470.958 690.774,519.635 690.774,519.635 zM767.714,523.248 L767.484,523.257 L767.714,523.257 C767.714,523.257 752.522,565.503 752.522,565.503 C753.817,565.740 754.856,566.674 755.267,567.904 C755.267,567.904 877.685,538.843 877.685,538.843 C877.652,538.649 877.625,538.453 877.625,538.250 C877.625,537.557 877.830,536.916 878.170,536.368 C878.170,536.368 781.817,470.902 781.817,470.902 L767.714,523.248 zM881.219,541.844 C880.851,541.844 880.504,541.772 880.170,541.670 C880.170,541.670 859.325,595.069 859.325,595.069 C860.598,595.527 861.622,596.503 862.137,597.748 C862.137,597.748 1009.657,599.925 1009.657,599.925 C1009.786,599.649 1009.952,599.397 1010.143,599.165 C1010.143,599.165 884.393,539.902 884.393,539.902 C883.793,541.051 882.605,541.844 881.219,541.844 zM879.755,541.526 C878.807,541.101 878.089,540.277 877.790,539.269 C877.790,539.269 755.396,568.324 755.396,568.324 C755.443,568.558 755.469,568.799 755.469,569.047 C755.469,569.406 755.401,569.745 755.304,570.072 C755.304,570.072 853.951,596.595 853.951,596.595 C854.830,595.491 856.182,594.781 857.703,594.781 C858.119,594.781 858.520,594.840 858.905,594.939 C858.905,594.939 879.755,541.526 879.755,541.526 zM755.163,570.495 C754.607,571.766 753.346,572.656 751.875,572.656 C751.492,572.656 751.130,572.580 750.784,572.469 C750.784,572.469 744.132,624.021 744.132,624.021 C745.442,624.304 746.473,625.306 746.826,626.593 C746.826,626.593 852.946,598.990 852.946,598.990 C853.036,598.256 853.291,597.574 853.674,596.981 C853.674,596.981 755.163,570.495 755.163,570.495 zM750.361,572.310 C749.294,571.809 748.520,570.802 748.336,569.592 C748.336,569.592 602.266,582.239 602.266,582.239 C602.263,582.294 602.265,582.349 602.260,582.405 C602.228,582.772 602.152,583.123 602.043,583.459 C602.043,583.459 739.984,626.401 739.984,626.401 C740.462,624.973 741.792,623.938 743.375,623.938 C743.485,623.938 743.588,623.960 743.696,623.970 C743.696,623.970 750.361,572.310 750.361,572.310 zM602.271,581.801 C602.271,581.801 748.292,569.158 748.292,569.158 C748.291,569.120 748.281,569.085 748.281,569.047 C748.281,568.528 748.395,568.037 748.591,567.591 C748.591,567.591 690.399,523.402 690.399,523.402 C689.741,524.254 688.722,524.812 687.563,524.812 C686.387,524.812 685.353,524.240 684.698,523.367 C684.698,523.367 601.834,579.976 601.834,579.976 C602.094,580.538 602.247,581.155 602.271,581.801 zM684.460,523.002 C684.156,522.474 683.969,521.871 683.969,521.219 C683.969,520.472 684.197,519.778 684.587,519.203 C684.587,519.203 631.345,482.472 631.345,482.472 C630.480,483.734 629.032,484.563 627.391,484.563 C627.019,484.563 626.659,484.516 626.312,484.436 C626.312,484.436 599.502,577.637 599.502,577.637 C600.402,578.056 601.143,578.740 601.632,579.584 C601.632,579.584 684.460,523.002 684.460,523.002 zM625.886,484.317 C624.574,483.883 623.512,482.898 622.975,481.633 C622.975,481.633 534.315,518.206 534.315,518.206 C534.425,518.552 534.500,518.914 534.500,519.297 C534.500,520.177 534.174,520.972 533.653,521.598 C533.653,521.598 594.130,578.551 594.130,578.551 C595.096,577.609 596.450,577.075 597.899,577.202 C598.316,577.239 598.713,577.334 599.090,577.468 C599.090,577.468 625.886,484.317 625.886,484.317 zM529.415,522.572 C528.316,522.066 527.527,521.024 527.361,519.777 C527.361,519.777 419.801,525.518 419.801,525.518 C419.746,526.733 419.243,527.829 418.448,528.644 C418.448,528.644 495.222,598.366 495.222,598.366 C495.877,597.698 496.787,597.281 497.797,597.281 C498.169,597.281 498.521,597.354 498.859,597.458 C498.859,597.458 529.415,522.572 529.415,522.572 zM419.801,525.074 C419.801,525.074 527.316,519.335 527.316,519.335 C527.316,519.322 527.312,519.310 527.312,519.297 C527.312,518.042 527.951,516.939 528.918,516.292 C528.918,516.292 486.365,443.305 486.365,443.305 C485.591,443.841 484.653,444.156 483.641,444.156 C482.526,444.156 481.503,443.773 480.689,443.135 C480.689,443.135 418.131,521.654 418.131,521.654 C419.106,522.488 419.738,523.706 419.801,525.074 zM781.543,470.192 C781.543,470.192 789.862,400.181 789.862,400.181 C788.206,400.154 786.833,399.017 786.438,397.484 C786.438,397.484 700.087,410.883 700.087,410.883 C700.071,411.678 699.793,412.401 699.342,412.989 C699.342,412.989 781.543,470.192 781.543,470.192 zM781.911,470.341 C781.911,470.341 987.314,483.221 987.314,483.221 C987.367,482.758 987.483,482.314 987.658,481.900 C987.658,481.900 793.214,398.055 793.214,398.055 C792.694,399.214 791.576,400.033 790.250,400.155 C790.250,400.155 781.911,470.341 781.911,470.341 zM987.955,486.208 C987.955,486.208 884.513,536.820 884.513,536.820 C884.559,536.926 884.587,537.040 884.623,537.151 C884.623,537.151 1051.531,495.341 1051.531,495.341 C1051.532,494.996 1051.596,494.668 1051.688,494.352 C1051.688,494.352 996.779,484.721 996.779,484.721 C996.336,486.912 994.400,488.562 992.078,488.562 C990.322,488.562 988.791,487.616 987.955,486.208 zM884.805,538.320 C884.805,538.320 1089.975,557.413 1089.975,557.413 C1090.143,556.001 1090.921,554.777 1092.041,554.015 C1092.041,554.015 1057.005,498.407 1057.005,498.407 C1056.460,498.737 1055.826,498.938 1055.141,498.938 C1053.299,498.938 1051.796,497.559 1051.576,495.784 C1051.576,495.784 884.744,537.573 884.744,537.573 C884.786,537.793 884.812,538.018 884.812,538.250 C884.812,538.274 884.806,538.296 884.805,538.320 zM1176.656,495.683 C1176.199,495.119 1175.912,494.421 1175.865,493.652 C1175.865,493.652 1058.705,494.896 1058.705,494.896 C1058.723,495.044 1058.750,495.190 1058.750,495.344 C1058.750,496.487 1058.204,497.493 1057.369,498.151 C1057.369,498.151 1092.419,553.784 1092.419,553.784 C1093.106,553.405 1093.894,553.187 1094.734,553.187 C1096.272,553.187 1097.638,553.914 1098.516,555.040 C1098.516,555.040 1176.656,495.683 1176.656,495.683 zM1098.773,555.403 C1099.132,555.963 1099.375,556.602 1099.475,557.289 C1099.475,557.289 1231.504,540.752 1231.504,540.752 C1231.506,540.641 1231.506,540.531 1231.516,540.420 C1231.612,539.332 1232.067,538.364 1232.750,537.614 C1232.750,537.614 1182.336,495.579 1182.336,495.579 C1181.678,496.456 1180.637,497.031 1179.453,497.031 C1178.479,497.031 1177.599,496.643 1176.949,496.018 C1176.949,496.018 1098.773,555.403 1098.773,555.403 zM996.875,483.766 C996.875,483.951 996.862,484.133 996.842,484.312 C996.842,484.312 1051.811,493.956 1051.811,493.956 C1052.357,492.661 1053.641,491.750 1055.141,491.750 C1055.386,491.750 1055.625,491.775 1055.857,491.822 C1055.857,491.822 1073.650,446.019 1073.650,446.019 C1072.849,445.523 1072.259,444.728 1072.039,443.784 C1072.039,443.784 996.532,481.990 996.532,481.990 C996.751,482.540 996.875,483.138 996.875,483.766 zM1056.229,491.935 C1057.406,492.307 1058.316,493.254 1058.625,494.454 C1058.625,494.454 1175.867,493.208 1175.867,493.208 C1175.901,492.687 1176.044,492.201 1176.277,491.765 C1176.277,491.765 1079.023,443.786 1079.023,443.786 C1078.652,445.375 1077.234,446.563 1075.531,446.563 C1074.979,446.563 1074.461,446.428 1073.994,446.205 C1073.994,446.205 1056.229,491.935 1056.229,491.935 zM1079.125,442.969 C1079.125,443.094 1079.101,443.213 1079.088,443.335 C1079.088,443.335 1176.493,491.388 1176.493,491.388 C1177.145,490.456 1178.226,489.844 1179.453,489.844 C1181.327,489.844 1182.850,491.272 1183.027,493.091 C1183.027,493.091 1300.082,489.915 1300.082,489.915 C1300.113,489.345 1300.276,488.815 1300.541,488.346 C1300.541,488.346 1084.872,370.107 1084.872,370.107 C1084.258,371.075 1083.196,371.723 1081.975,371.768 C1081.975,371.768 1075.809,439.403 1075.809,439.403 C1077.661,439.547 1079.125,441.079 1079.125,442.969 zM1300.086,490.341 C1300.086,490.341 1183.055,493.515 1183.055,493.515 C1183.041,494.131 1182.865,494.702 1182.578,495.204 C1182.578,495.204 1233.065,537.299 1233.065,537.299 C1234.022,536.425 1235.325,535.936 1236.717,536.058 C1237.951,536.167 1239.030,536.736 1239.811,537.578 C1239.811,537.578 1300.762,492.228 1300.762,492.228 C1300.370,491.691 1300.131,491.044 1300.086,490.341 zM1177.110,651.384 C1177.425,651.412 1177.730,651.471 1178.024,651.555 C1178.024,651.555 1233.763,544.913 1233.763,544.913 C1232.488,544.118 1231.630,542.749 1231.516,541.197 C1231.516,541.197 1099.518,557.731 1099.518,557.731 C1099.523,557.815 1099.531,557.899 1099.531,557.984 C1099.531,559.378 1098.933,560.629 1097.984,561.506 C1097.984,561.506 1173.777,652.357 1173.777,652.357 C1174.696,651.654 1175.867,651.275 1177.110,651.384 zM1099.759,650.309 C1101.622,650.451 1103.094,651.984 1103.094,653.875 C1103.094,653.936 1103.079,653.992 1103.076,654.052 C1103.076,654.052 1171.973,655.281 1171.973,655.281 C1172.170,654.222 1172.711,653.301 1173.466,652.616 C1173.466,652.616 1097.675,561.769 1097.675,561.769 C1097.006,562.289 1096.197,562.636 1095.313,562.743 C1095.313,562.743 1099.759,650.309 1099.759,650.309 zM1099.343,650.295 C1099.343,650.295 1094.900,562.773 1094.900,562.773 C1094.844,562.775 1094.790,562.781 1094.734,562.781 C1092.085,562.781 1089.937,560.634 1089.937,557.984 C1089.937,557.940 1089.943,557.897 1089.944,557.853 C1089.944,557.853 884.761,538.760 884.761,538.760 C884.722,539.031 884.660,539.292 884.564,539.539 C884.564,539.539 1010.420,598.851 1010.420,598.851 C1011.066,598.230 1011.939,597.844 1012.906,597.844 C1014.891,597.844 1016.500,599.453 1016.500,601.438 C1016.500,601.695 1016.470,601.946 1016.419,602.188 C1016.419,602.188 1096.471,651.903 1096.471,651.903 C1097.091,650.965 1098.142,650.343 1099.343,650.295 zM1023.484,635.844 C1025.464,635.844 1027.068,637.439 1027.090,639.414 C1027.090,639.414 1095.942,653.213 1095.942,653.213 C1096.004,652.883 1096.118,652.575 1096.264,652.283 C1096.264,652.283 1016.286,602.615 1016.286,602.615 C1015.955,603.565 1015.248,604.338 1014.330,604.735 C1014.330,604.735 1023.273,635.865 1023.273,635.865 C1023.344,635.861 1023.412,635.844 1023.484,635.844 zM974.906,666.875 C976.159,666.875 977.259,667.518 977.902,668.489 C977.902,668.489 1020.289,641.098 1020.289,641.098 C1020.033,640.603 1019.875,640.049 1019.875,639.453 C1019.875,637.686 1021.147,636.221 1022.825,635.910 C1022.825,635.910 1013.909,604.872 1013.909,604.872 C1013.589,604.965 1013.257,605.031 1012.906,605.031 C1010.921,605.031 1009.312,603.422 1009.312,601.438 C1009.312,601.061 1009.386,600.705 1009.494,600.364 C1009.494,600.364 862.295,598.194 862.295,598.194 C862.427,598.632 862.500,599.097 862.500,599.578 C862.500,599.869 862.470,600.151 862.420,600.428 C862.420,600.428 972.112,668.235 972.112,668.235 C972.770,667.412 973.771,666.875 974.906,666.875 zM856.125,649.297 C856.125,649.429 856.116,649.560 856.105,649.689 C856.105,649.689 971.448,669.544 971.448,669.544 C971.544,669.185 971.687,668.847 971.882,668.541 C971.882,668.541 862.331,600.822 862.331,600.822 C861.783,602.867 859.921,604.375 857.703,604.375 C857.601,604.375 857.502,604.366 857.401,604.360 C857.401,604.360 852.630,644.684 852.630,644.684 C854.646,645.251 856.125,647.099 856.125,649.297 zM851.328,644.500 C851.651,644.500 851.967,644.533 852.272,644.594 C852.272,644.594 857.038,604.324 857.038,604.324 C854.704,603.999 852.906,602.001 852.906,599.578 C852.906,599.537 852.911,599.497 852.912,599.455 C852.912,599.455 746.917,627.027 746.917,627.027 C746.941,627.199 746.969,627.369 746.969,627.547 C746.969,627.759 746.942,627.964 746.907,628.167 C746.907,628.167 846.729,647.940 846.729,647.940 C847.315,645.952 849.151,644.500 851.328,644.500 zM736.274,683.927 C736.274,683.927 846.699,650.538 846.699,650.538 C846.593,650.141 846.531,649.727 846.531,649.297 C846.531,648.979 846.564,648.669 846.623,648.368 C846.623,648.368 746.797,628.594 746.797,628.594 C746.348,630.073 744.994,631.156 743.375,631.156 C743.257,631.156 743.147,631.133 743.032,631.122 C743.032,631.122 733.826,681.582 733.826,681.582 C734.986,681.903 735.901,682.786 736.274,683.927 zM729.395,684.188 C729.780,682.612 731.186,681.438 732.875,681.438 C733.056,681.438 733.229,681.465 733.403,681.491 C733.403,681.491 742.602,631.068 742.602,631.068 C741.386,630.799 740.413,629.912 740.002,628.752 C740.002,628.752 616.731,658.298 616.731,658.298 C616.761,658.513 616.781,658.730 616.781,658.953 C616.781,659.371 616.722,659.773 616.622,660.160 C616.622,660.160 729.395,684.188 729.395,684.188 zM611.984,654.156 C614.259,654.156 616.160,655.741 616.653,657.866 C616.653,657.866 739.872,628.333 739.872,628.333 C739.816,628.079 739.781,627.818 739.781,627.547 C739.781,627.297 739.807,627.053 739.855,626.817 C739.855,626.817 601.892,583.869 601.892,583.869 C601.335,585.175 600.221,586.167 598.871,586.576 C598.871,586.576 610.923,654.278 610.923,654.278 C611.265,654.201 611.619,654.156 611.984,654.156 zM477.540,668.003 C477.540,668.003 607.209,659.378 607.209,659.378 C607.197,659.237 607.188,659.096 607.188,658.953 C607.188,656.824 608.575,655.022 610.495,654.395 C610.495,654.395 598.441,586.686 598.441,586.686 C597.997,586.776 597.534,586.807 597.059,586.765 C595.863,586.660 594.811,586.123 594.037,585.323 C594.037,585.323 476.944,665.939 476.944,665.939 C477.291,666.559 477.498,667.262 477.540,668.003 zM476.714,665.568 C476.714,665.568 593.745,584.995 593.745,584.995 C593.395,584.560 593.119,584.066 592.937,583.530 C592.937,583.530 501.361,600.444 501.361,600.444 C501.380,600.592 501.406,600.738 501.406,600.891 C501.406,602.884 499.790,604.500 497.797,604.500 C497.402,604.500 497.028,604.421 496.673,604.303 C496.673,604.303 474.724,663.906 474.724,663.906 C475.534,664.271 476.222,664.849 476.714,665.568 zM473.174,663.497 C473.574,663.532 473.956,663.620 474.319,663.746 C474.319,663.746 496.266,604.148 496.266,604.148 C495.279,603.683 494.538,602.790 494.287,601.703 C494.287,601.703 367.962,622.873 367.962,622.873 C367.938,623.690 367.712,624.454 367.330,625.119 C367.330,625.119 468.309,666.466 468.309,666.466 C469.083,664.567 471.025,663.308 473.174,663.497 zM339.875,666.375 C339.875,666.529 339.848,666.675 339.830,666.823 C339.830,666.823 467.957,668.262 467.957,668.262 C467.958,668.129 467.961,667.995 467.972,667.859 C468.002,667.521 468.067,667.194 468.162,666.881 C468.162,666.881 367.091,625.495 367.091,625.495 C366.222,626.726 364.792,627.531 363.172,627.531 C362.367,627.531 361.610,627.331 360.944,626.981 C360.944,626.981 338.428,663.508 338.428,663.508 C339.302,664.164 339.875,665.198 339.875,666.375 zM336.281,662.781 C336.930,662.781 337.531,662.967 338.056,663.268 C338.056,663.268 360.563,626.756 360.563,626.756 C359.247,625.901 358.375,624.421 358.375,622.734 C358.375,622.681 358.381,622.630 358.383,622.577 C358.383,622.577 258.858,596.498 258.858,596.498 C258.722,597.057 258.493,597.579 258.180,598.042 C258.180,598.042 333.323,664.339 333.323,664.339 C333.971,663.399 335.053,662.781 336.281,662.781 zM251.531,630.953 C251.531,631.323 251.485,631.682 251.406,632.029 C251.406,632.029 332.823,665.450 332.823,665.450 C332.891,665.194 332.987,664.953 333.107,664.723 C333.107,664.723 257.922,598.388 257.922,598.388 C257.042,599.467 255.703,600.156 254.203,600.156 C254.074,600.156 253.947,600.147 253.820,600.137 C253.820,600.137 248.637,626.550 248.637,626.550 C250.339,627.287 251.531,628.980 251.531,630.953 zM88.729,628.006 C88.729,628.006 166.413,633.091 166.413,633.091 L166.425,633.046 C166.425,633.046 241.952,630.669 241.952,630.669 C242.100,628.153 244.181,626.156 246.734,626.156 C247.251,626.156 247.748,626.240 248.215,626.392 C248.215,626.392 253.379,600.081 253.379,600.081 C251.445,599.745 249.908,598.257 249.509,596.346 C249.509,596.346 88.657,627.432 88.657,627.432 C88.699,627.618 88.717,627.811 88.729,628.006 zM88.528,627.016 C88.528,627.016 249.441,595.918 249.441,595.918 C249.420,595.735 249.406,595.549 249.406,595.359 C249.406,594.509 249.630,593.712 250.018,593.019 C250.018,593.019 161.419,546.781 161.419,546.781 C161.419,546.781 87.499,625.519 87.499,625.519 C87.962,625.919 88.317,626.430 88.528,627.016 zM87.155,625.237 C87.155,625.237 161.021,546.556 161.021,546.556 C161.021,546.556 108.950,515.471 108.950,515.471 C108.091,516.769 106.622,517.625 104.953,517.625 C104.942,517.625 104.932,517.623 104.921,517.623 C104.921,517.623 85.726,624.684 85.726,624.684 C86.248,624.769 86.735,624.955 87.155,625.237 zM102.194,516.745 C102.194,516.745 13.950,604.034 13.950,604.034 C14.342,604.371 14.663,604.784 14.882,605.260 C14.882,605.260 81.866,626.726 81.866,626.726 C82.437,625.489 83.684,624.625 85.141,624.625 C85.198,624.625 85.251,624.639 85.308,624.642 C85.308,624.642 104.499,517.602 104.499,517.602 C103.645,517.521 102.858,517.215 102.194,516.745 zM107.310,313.373 C107.310,313.373 52.805,390.479 52.805,390.479 C53.678,391.135 54.250,392.169 54.250,393.344 C54.250,394.774 53.408,396.000 52.198,396.578 C52.198,396.578 103.485,508.232 103.485,508.232 C103.948,508.082 104.441,508.000 104.953,508.000 C106.479,508.000 107.836,508.717 108.714,509.831 C108.714,509.831 161.124,460.421 161.124,460.421 L107.310,313.373 zM218.156,320.984 C218.156,320.850 218.166,320.718 218.176,320.587 C218.176,320.587 107.889,313.188 107.889,313.188 C107.889,313.188 211.560,430.935 211.560,430.935 C212.151,430.509 212.871,430.250 213.656,430.250 C213.894,430.250 214.126,430.276 214.351,430.320 C214.351,430.320 222.285,325.729 222.285,325.729 C219.953,325.404 218.156,323.406 218.156,320.984 zM222.953,325.781 C222.829,325.781 222.707,325.772 222.584,325.763 C222.584,325.763 214.646,430.405 214.646,430.405 C216.146,430.837 217.250,432.205 217.250,433.844 C217.250,434.908 216.778,435.854 216.043,436.512 C216.043,436.512 239.733,470.320 239.733,470.320 C240.234,470.018 240.792,469.805 241.390,469.701 C241.390,469.701 223.260,325.766 223.260,325.766 C223.158,325.772 223.057,325.781 222.953,325.781 zM223.655,325.724 C223.655,325.724 241.784,469.647 241.784,469.647 C241.927,469.634 242.072,469.625 242.219,469.625 C244.877,469.625 247.031,471.773 247.031,474.422 C247.031,474.957 246.940,475.469 246.778,475.950 C246.778,475.950 309.252,503.426 309.252,503.426 C309.567,502.715 310.108,502.137 310.779,501.758 C310.779,501.758 224.866,325.382 224.866,325.382 C224.486,325.548 224.079,325.662 223.655,325.724 zM225.261,325.189 C225.261,325.189 311.169,501.553 311.169,501.553 C311.590,501.380 312.049,501.281 312.531,501.281 C313.266,501.281 313.947,501.505 314.516,501.884 C314.516,501.884 353.665,440.068 353.665,440.068 C353.665,440.068 226.441,324.271 226.441,324.271 C226.098,324.634 225.702,324.947 225.261,325.189 zM277.534,264.409 C276.898,265.418 275.781,266.094 274.500,266.094 C273.701,266.094 272.969,265.824 272.373,265.382 C272.373,265.382 226.067,317.340 226.067,317.340 C227.050,318.180 227.685,319.411 227.740,320.792 C227.740,320.792 395.340,331.902 395.340,331.902 C395.523,331.251 395.836,330.655 396.255,330.149 C396.255,330.149 277.534,264.409 277.534,264.409 zM395.156,333.203 C395.156,332.902 395.187,332.608 395.241,332.323 C395.241,332.323 227.738,321.218 227.738,321.218 C227.689,322.243 227.320,323.183 226.726,323.940 C226.726,323.940 353.871,439.664 353.871,439.664 C353.871,439.664 398.382,337.731 398.382,337.731 C396.506,337.080 395.156,335.301 395.156,333.203 zM401.075,337.863 C400.714,337.949 400.340,338.000 399.953,338.000 C399.558,338.000 399.175,337.947 398.808,337.857 C398.808,337.857 354.202,440.004 354.202,440.004 C354.202,440.004 412.105,521.490 412.105,521.490 C412.695,521.039 413.390,520.721 414.150,520.582 C414.150,520.582 401.075,337.863 401.075,337.863 zM401.511,337.736 C401.511,337.736 414.591,520.521 414.591,520.521 C414.731,520.509 414.872,520.500 415.016,520.500 C416.046,520.500 416.999,520.828 417.781,521.381 C417.781,521.381 480.353,442.846 480.353,442.846 C479.426,441.972 478.844,440.735 478.844,439.359 C478.844,437.674 479.715,436.194 481.029,435.339 C481.029,435.339 403.614,336.299 403.614,336.299 C403.061,336.952 402.337,337.452 401.511,337.736 zM403.891,335.938 C403.891,335.938 481.412,435.113 481.412,435.113 C482.078,434.763 482.836,434.563 483.641,434.563 C485.777,434.563 487.585,435.960 488.206,437.890 C488.206,437.890 559.165,427.663 559.165,427.663 C559.150,427.531 559.125,427.402 559.125,427.266 C559.125,426.480 559.381,425.759 559.805,425.167 C559.805,425.167 404.470,334.804 404.470,334.804 C404.327,335.210 404.133,335.591 403.891,335.938 zM482.141,316.625 C480.282,316.625 478.769,315.214 478.571,313.408 C478.571,313.408 404.542,331.807 404.542,331.807 C404.676,332.249 404.750,332.717 404.750,333.203 C404.750,333.610 404.694,334.003 404.599,334.380 C404.599,334.380 560.082,424.829 560.082,424.829 C560.399,424.484 560.778,424.202 561.207,424.002 C561.207,424.002 484.404,315.806 484.404,315.806 C483.783,316.310 483.003,316.625 482.141,316.625 zM571.031,365.562 C571.031,364.741 571.319,363.993 571.785,363.388 C571.785,363.388 485.473,314.400 485.473,314.400 C485.295,314.827 485.037,315.211 484.719,315.537 C484.719,315.537 561.606,423.851 561.606,423.851 C561.958,423.735 562.328,423.656 562.719,423.656 C563.231,423.656 563.717,423.768 564.158,423.962 C564.158,423.962 574.001,369.092 574.001,369.092 C572.314,368.790 571.031,367.329 571.031,365.562 zM574.641,369.156 C574.526,369.156 574.418,369.133 574.306,369.123 C574.306,369.123 564.440,424.116 564.440,424.116 C565.496,424.699 566.222,425.790 566.293,427.068 C566.293,427.068 617.105,428.621 617.105,428.621 C617.236,427.521 617.850,426.574 618.742,426.006 C618.742,426.006 577.091,368.188 577.091,368.188 C576.446,368.784 575.590,369.156 574.641,369.156 zM577.277,368.002 C577.277,368.002 618.972,425.881 618.972,425.881 C619.480,425.607 620.054,425.437 620.672,425.437 C622.298,425.437 623.657,426.520 624.108,427.999 C624.108,427.999 693.059,411.793 693.059,411.793 C692.969,411.479 692.906,411.155 692.906,410.812 C692.906,410.558 692.934,410.311 692.984,410.072 C692.984,410.072 578.162,366.334 578.162,366.334 C578.022,366.971 577.708,367.541 577.277,368.002 zM669.721,314.964 C669.218,315.089 668.688,315.139 668.142,315.091 C666.437,314.942 665.023,313.915 664.295,312.496 C664.295,312.496 577.576,363.484 577.576,363.484 C577.997,364.071 578.250,364.786 578.250,365.562 C578.250,365.720 578.223,365.870 578.204,366.022 C578.204,366.022 693.076,409.778 693.076,409.778 C693.402,408.700 694.209,407.841 695.257,407.453 C695.257,407.453 669.721,314.964 669.721,314.964 zM669.990,314.892 C669.990,314.892 695.524,407.370 695.524,407.370 C695.837,407.281 696.159,407.219 696.500,407.219 C698.357,407.219 699.868,408.633 700.056,410.441 C700.056,410.441 786.359,397.049 786.359,397.049 C786.339,396.898 786.313,396.750 786.313,396.594 C786.313,395.789 786.587,395.054 787.036,394.456 C787.036,394.456 672.502,313.046 672.502,313.046 C671.895,313.918 671.013,314.573 669.990,314.892 zM673.351,310.541 C673.348,310.604 673.349,310.667 673.344,310.731 C673.281,311.439 673.064,312.096 672.734,312.677 C672.734,312.677 787.314,394.120 787.314,394.120 C787.972,393.433 788.894,393.000 789.922,393.000 C790.346,393.000 790.747,393.086 791.125,393.220 C791.125,393.220 807.648,327.395 807.648,327.395 C807.383,327.314 807.130,327.209 806.889,327.086 C806.884,327.084 806.880,327.083 806.876,327.081 C806.876,327.081 806.876,327.081 806.876,327.081 C806.653,326.966 806.443,326.833 806.242,326.687 C806.242,326.687 806.242,326.687 806.242,326.687 C806.229,326.678 806.217,326.669 806.204,326.659 C805.985,326.496 805.781,326.317 805.594,326.120 C805.584,326.110 805.575,326.099 805.565,326.089 C805.565,326.089 805.565,326.089 805.565,326.089 C805.394,325.907 805.235,325.715 805.094,325.509 C805.094,325.508 805.094,325.507 805.093,325.507 C805.093,325.507 805.093,325.507 805.093,325.507 C804.954,325.303 804.835,325.086 804.728,324.862 C804.728,324.862 804.728,324.862 804.728,324.862 C804.717,324.838 804.705,324.815 804.694,324.792 C804.582,324.545 804.492,324.288 804.423,324.023 C804.420,324.011 804.416,323.999 804.413,323.987 C804.413,323.987 804.413,323.987 804.413,323.987 C804.352,323.744 804.309,323.495 804.286,323.241 C804.284,323.215 804.283,323.190 804.281,323.165 C804.281,323.165 804.281,323.165 804.281,323.165 C804.262,322.910 804.258,322.652 804.281,322.390 C804.290,322.291 804.307,322.195 804.322,322.098 C804.322,322.098 673.351,310.541 673.351,310.541 zM1032.062,328.500 C1032.062,328.208 1032.107,327.928 1032.173,327.656 C1032.173,327.656 813.856,322.642 813.856,322.642 C813.862,322.836 813.861,323.032 813.844,323.230 C813.829,323.399 813.805,323.564 813.774,323.727 C813.774,323.727 813.774,323.727 813.774,323.727 C813.774,323.727 813.774,323.727 813.774,323.727 C813.774,323.727 968.803,377.595 968.803,377.595 C969.258,376.132 970.606,375.062 972.219,375.062 C973.235,375.062 974.148,375.488 974.802,376.166 C974.802,376.166 1032.415,330.028 1032.415,330.028 C1032.195,329.563 1032.062,329.049 1032.062,328.500 zM1032.597,330.363 C1032.597,330.363 975.040,376.455 975.040,376.455 C975.517,377.065 975.813,377.822 975.813,378.656 C975.813,380.510 974.404,382.017 972.603,382.211 C972.603,382.211 991.776,478.984 991.776,478.984 C991.877,478.978 991.976,478.969 992.078,478.969 C992.628,478.969 993.155,479.066 993.647,479.237 C993.647,479.237 1034.465,331.876 1034.465,331.876 C1033.680,331.599 1033.024,331.063 1032.597,330.363 zM1035.656,332.094 C1035.348,332.094 1035.054,332.043 1034.769,331.970 C1034.769,331.970 993.947,479.346 993.947,479.346 C994.997,479.791 995.851,480.601 996.361,481.615 C996.361,481.615 1071.976,443.353 1071.976,443.353 C1071.962,443.225 1071.938,443.100 1071.938,442.969 C1071.938,440.984 1073.546,439.375 1075.531,439.375 C1075.562,439.375 1075.591,439.383 1075.622,439.384 C1075.622,439.384 1081.786,371.775 1081.786,371.775 C1079.828,371.744 1078.250,370.152 1078.250,368.187 C1078.250,367.323 1078.568,366.540 1079.076,365.920 C1079.076,365.920 1038.721,330.354 1038.721,330.354 C1038.091,331.393 1036.960,332.094 1035.656,332.094 zM1159.469,325.891 C1159.469,325.717 1159.479,325.546 1159.497,325.378 C1159.497,325.378 1039.143,327.667 1039.143,327.667 C1039.207,327.936 1039.250,328.212 1039.250,328.500 C1039.250,329.028 1039.130,329.526 1038.925,329.977 C1038.925,329.977 1079.352,365.605 1079.352,365.605 C1079.999,364.982 1080.875,364.594 1081.844,364.594 C1083.310,364.594 1084.567,365.475 1085.125,366.734 C1085.125,366.734 1159.717,327.407 1159.717,327.407 C1159.558,326.930 1159.469,326.421 1159.469,325.891 zM1168.872,327.217 C1168.296,329.220 1166.454,330.687 1164.266,330.687 C1162.211,330.687 1160.463,329.393 1159.780,327.578 C1159.780,327.578 1085.191,366.903 1085.191,366.903 C1085.326,367.255 1085.404,367.633 1085.421,368.029 C1085.421,368.029 1246.494,360.363 1246.494,360.363 C1246.577,360.100 1246.685,359.851 1246.823,359.619 C1246.823,359.619 1168.872,327.217 1168.872,327.217 zM1251.008,364.841 C1250.658,364.954 1250.293,365.031 1249.906,365.031 C1247.921,365.031 1246.313,363.422 1246.313,361.437 C1246.313,361.209 1246.339,360.988 1246.380,360.771 C1246.380,360.771 1085.413,368.431 1085.413,368.431 C1085.382,368.890 1085.271,369.323 1085.083,369.718 C1085.083,369.718 1300.776,487.973 1300.776,487.973 C1301.200,487.400 1301.786,486.963 1302.471,486.720 C1302.471,486.720 1251.008,364.841 1251.008,364.841 zM1321.882,402.779 C1320.748,402.173 1319.969,400.996 1319.969,399.625 C1319.969,399.131 1320.069,398.661 1320.250,398.233 C1320.250,398.233 1253.244,362.751 1253.244,362.751 C1252.895,363.637 1252.209,364.351 1251.338,364.731 C1251.338,364.731 1302.804,486.617 1302.804,486.617 C1303.083,486.548 1303.371,486.500 1303.672,486.500 C1303.996,486.500 1304.303,486.556 1304.602,486.636 C1304.602,486.636 1321.882,402.779 1321.882,402.779 zM1306.097,492.766 C1305.456,493.352 1304.609,493.719 1303.672,493.719 C1302.613,493.719 1301.669,493.254 1301.009,492.527 C1301.009,492.527 1240.063,537.872 1240.063,537.872 C1240.794,538.798 1241.190,539.992 1241.079,541.260 C1241.067,541.395 1241.046,541.526 1241.023,541.657 C1241.023,541.657 1385.049,588.542 1385.049,588.542 C1385.388,587.976 1385.874,587.517 1386.459,587.209 C1386.459,587.209 1306.097,492.766 1306.097,492.766 z" fill="#E9E9E9" /></g></svg>