<svg xmlns="http://www.w3.org/2000/svg" xmlns:xlink="http://www.w3.org/1999/xlink" preserveAspectRatio="xMidYMid" width="375" height="80" viewBox="0 0 375 80">
  <defs>
    <style>
      .cls-1 {
        fill: #fff;
        fill-rule: evenodd;
      }
    </style>
  </defs>
  <path d="M373.548,67.677 L373.548,58.110 L375.000,58.110 L375.000,67.677 L373.548,67.677 ZM369.075,37.021 C369.272,37.021 369.372,36.952 369.372,36.809 C369.372,36.698 369.237,36.500 368.969,36.217 C368.700,35.936 368.396,35.611 368.058,35.244 L357.545,24.074 L357.545,36.387 C357.545,36.809 357.842,37.021 358.436,37.021 L358.436,37.782 L353.222,37.782 L353.222,37.021 C353.730,37.021 353.984,36.809 353.984,36.387 L353.984,20.563 C353.984,20.139 353.730,19.929 353.222,19.929 L353.222,19.166 L359.453,19.166 L359.453,19.929 C359.255,19.957 359.156,20.028 359.156,20.139 C359.156,20.282 359.467,20.662 360.088,21.282 L370.261,32.029 L370.261,20.563 C370.261,20.139 369.979,19.929 369.414,19.929 L369.414,19.166 L374.586,19.166 L374.586,19.929 C374.077,19.929 373.822,20.139 373.822,20.563 L373.822,36.387 C373.822,36.809 374.077,37.021 374.586,37.021 L374.586,37.782 L369.075,37.782 L369.075,37.021 ZM356.102,66.280 L356.373,65.468 L356.749,64.438 L359.347,58.127 L361.192,58.127 L361.192,67.677 L359.906,67.677 L359.906,59.776 L359.732,60.283 L359.224,61.618 L356.749,67.677 L355.534,67.677 L353.059,61.601 C352.750,60.822 352.537,60.214 352.420,59.776 L352.420,67.677 L351.126,67.677 L351.126,58.127 L352.901,58.127 L355.411,64.193 C355.662,64.834 355.893,65.530 356.102,66.280 ZM346.771,66.315 L346.702,66.315 C346.224,66.914 345.747,67.319 345.272,67.533 C344.797,67.745 344.203,67.851 343.493,67.851 C342.542,67.851 341.797,67.607 341.258,67.118 C340.718,66.628 340.449,65.933 340.449,65.032 C340.449,63.100 341.997,62.087 345.093,61.994 L346.719,61.941 L346.719,61.348 C346.719,60.597 346.557,60.044 346.234,59.685 C345.910,59.328 345.393,59.148 344.682,59.148 C343.883,59.148 342.979,59.393 341.971,59.881 L341.525,58.774 C341.997,58.517 342.514,58.316 343.077,58.171 C343.639,58.025 344.203,57.953 344.769,57.953 C345.912,57.953 346.759,58.206 347.310,58.712 C347.860,59.218 348.136,60.030 348.136,61.146 L348.136,67.677 L347.060,67.677 L346.771,66.315 ZM346.684,62.972 L345.232,63.033 C344.078,63.074 343.246,63.253 342.736,63.570 C342.225,63.887 341.971,64.379 341.971,65.049 C341.971,65.573 342.129,65.972 342.447,66.244 C342.765,66.518 343.209,66.654 343.781,66.654 C344.684,66.654 345.394,66.408 345.910,65.913 C346.426,65.418 346.684,64.725 346.684,63.836 L346.684,62.972 ZM339.488,37.021 C339.940,37.021 340.251,36.973 340.421,36.873 C340.590,36.775 340.675,36.613 340.675,36.387 L340.675,20.563 C340.675,20.337 340.590,20.175 340.421,20.076 C340.251,19.978 339.940,19.929 339.488,19.929 L339.488,19.166 L345.931,19.166 L345.931,19.929 C345.140,19.929 344.744,20.139 344.744,20.563 L344.744,36.387 C344.744,36.809 345.140,37.021 345.931,37.021 L345.931,37.782 L339.488,37.782 L339.488,37.021 ZM336.619,59.349 L333.742,59.349 C333.584,61.422 333.366,63.064 333.086,64.282 C332.806,65.497 332.444,66.387 331.997,66.951 C331.551,67.516 330.984,67.799 330.296,67.799 C329.982,67.799 329.731,67.763 329.544,67.694 L329.544,66.620 C329.673,66.654 329.818,66.673 329.982,66.673 C330.652,66.673 331.186,65.964 331.582,64.551 C331.978,63.137 332.279,60.990 332.483,58.110 L338.088,58.110 L338.088,67.677 L336.619,67.677 L336.619,59.349 ZM332.240,30.252 L324.992,30.252 C324.765,30.252 324.603,30.337 324.504,30.505 C324.405,30.675 324.356,30.844 324.356,31.014 L323.593,31.014 L323.593,25.936 L324.356,25.936 C324.356,26.444 324.568,26.697 324.992,26.697 L332.240,26.697 C332.466,26.697 332.628,26.614 332.728,26.444 C332.827,26.275 332.876,26.105 332.876,25.936 L333.639,25.936 L333.639,31.014 L332.876,31.014 C332.876,30.505 332.664,30.252 332.240,30.252 ZM328.828,58.110 L324.691,62.727 L329.169,67.677 L327.472,67.677 L323.100,62.832 L323.100,67.677 L321.648,67.677 L321.648,58.110 L323.100,58.110 L323.100,62.763 L327.236,58.110 L328.828,58.110 ZM318.676,37.826 C318.449,37.796 318.167,37.782 317.828,37.782 L301.211,37.782 L301.211,37.021 C301.946,37.021 302.314,36.809 302.314,36.387 L302.314,20.563 C302.314,20.139 301.946,19.929 301.211,19.929 L301.211,19.166 L307.358,19.166 L307.358,19.929 C306.707,19.929 306.383,20.139 306.383,20.563 L306.383,34.652 L317.828,34.652 C318.167,34.652 318.449,34.574 318.676,34.420 C318.902,34.265 319.015,34.046 319.015,33.764 L319.778,33.764 L319.778,38.206 L319.015,38.206 C319.015,37.980 318.902,37.853 318.676,37.826 ZM302.008,59.419 L302.078,59.419 C302.450,58.896 302.885,58.517 303.381,58.284 C303.876,58.052 304.444,57.936 305.086,57.936 C306.357,57.936 307.337,58.369 308.028,59.235 C308.719,60.102 309.065,61.318 309.065,62.885 C309.065,64.455 308.713,65.675 308.011,66.546 C307.308,67.415 306.333,67.851 305.086,67.851 C304.462,67.851 303.892,67.735 303.376,67.506 C302.860,67.276 302.427,66.922 302.078,66.445 L301.972,66.445 C302.042,67.004 302.078,67.533 302.078,68.034 L302.078,71.970 L300.626,71.970 L300.626,58.110 L301.806,58.110 L302.008,59.419 ZM302.078,62.885 C302.078,64.229 302.301,65.191 302.750,65.769 C303.200,66.348 303.920,66.637 304.911,66.637 C305.738,66.637 306.387,66.303 306.857,65.633 C307.325,64.965 307.560,64.042 307.560,62.866 C307.560,61.674 307.325,60.758 306.857,60.121 C306.387,59.484 305.727,59.165 304.875,59.165 C303.896,59.165 303.188,59.436 302.750,59.977 C302.314,60.519 302.089,61.380 302.078,62.560 L302.078,62.885 ZM295.108,37.826 C294.881,37.796 294.599,37.782 294.260,37.782 L277.643,37.782 L277.643,37.021 C278.378,37.021 278.746,36.809 278.746,36.387 L278.746,20.563 C278.746,20.139 278.378,19.929 277.643,19.929 L277.643,19.166 L283.790,19.166 L283.790,19.929 C283.139,19.929 282.815,20.139 282.815,20.563 L282.815,34.652 L294.260,34.652 C294.599,34.652 294.881,34.574 295.108,34.420 C295.334,34.265 295.446,34.046 295.446,33.764 L296.210,33.764 L296.210,38.206 L295.446,38.206 C295.446,37.980 295.334,37.853 295.108,37.826 ZM280.893,59.270 C281.683,60.161 282.078,61.366 282.078,62.885 C282.078,64.444 281.684,65.661 280.897,66.537 C280.111,67.414 279.023,67.851 277.636,67.851 C276.778,67.851 276.018,67.650 275.354,67.248 C274.689,66.848 274.176,66.271 273.814,65.520 C273.453,64.769 273.272,63.890 273.272,62.885 C273.272,61.324 273.662,60.110 274.444,59.239 C275.225,58.370 276.310,57.936 277.697,57.936 C279.038,57.936 280.103,58.379 280.893,59.270 ZM275.502,60.099 C275.018,60.723 274.776,61.651 274.776,62.885 C274.776,64.107 275.021,65.038 275.511,65.678 C276.000,66.317 276.720,66.637 277.671,66.637 C278.621,66.637 279.342,66.319 279.835,65.681 C280.328,65.044 280.574,64.111 280.574,62.885 C280.574,61.668 280.328,60.744 279.835,60.113 C279.342,59.481 278.615,59.165 277.653,59.165 C276.703,59.165 275.985,59.478 275.502,60.099 ZM265.818,37.021 C265.930,37.021 266.072,36.980 266.242,36.895 C266.411,36.809 266.496,36.683 266.496,36.514 C266.496,36.233 266.383,35.864 266.157,35.414 L264.546,32.282 L254.203,32.282 L252.677,35.288 C252.394,35.880 252.253,36.302 252.253,36.556 C252.253,36.867 252.521,37.021 253.059,37.021 L253.059,37.782 L247.039,37.782 L247.039,37.021 C247.406,36.966 247.697,36.782 247.908,36.472 C248.120,36.161 248.325,35.809 248.523,35.414 L256.365,18.955 C256.562,18.590 256.739,18.251 256.895,17.940 C257.050,17.629 257.128,17.361 257.128,17.136 C257.128,16.854 257.029,16.656 256.831,16.543 C256.633,16.430 256.421,16.347 256.195,16.290 L256.195,15.529 L263.359,15.529 L263.359,16.290 C263.161,16.347 262.963,16.424 262.766,16.522 C262.567,16.621 262.468,16.826 262.468,17.136 C262.468,17.361 262.518,17.587 262.617,17.813 C262.716,18.039 262.864,18.334 263.062,18.701 L271.879,35.922 C272.020,36.233 272.211,36.457 272.451,36.599 C272.691,36.740 272.966,36.881 273.278,37.021 L273.278,37.782 L265.818,37.782 L265.818,37.021 ZM259.459,21.282 L255.475,29.152 L263.020,29.152 L259.459,21.282 ZM249.494,57.936 C249.955,57.936 250.416,57.985 250.876,58.084 C251.337,58.183 251.698,58.299 251.961,58.432 L251.515,59.663 C251.194,59.535 250.844,59.430 250.465,59.345 C250.086,59.261 249.751,59.218 249.460,59.218 C247.512,59.218 246.539,60.457 246.539,62.938 C246.539,64.111 246.776,65.015 247.252,65.643 C247.726,66.271 248.431,66.585 249.364,66.585 C250.162,66.585 250.981,66.413 251.821,66.070 L251.821,67.353 C251.179,67.686 250.372,67.851 249.398,67.851 C248.011,67.851 246.937,67.424 246.176,66.572 C245.415,65.720 245.035,64.514 245.035,62.955 C245.035,61.354 245.420,60.118 246.194,59.244 C246.966,58.372 248.066,57.936 249.494,57.936 ZM242.097,67.677 L237.724,62.832 L237.724,67.677 L236.273,67.677 L236.273,58.110 L237.724,58.110 L237.724,62.763 L241.861,58.110 L243.452,58.110 L239.315,62.727 L243.793,67.677 L242.097,67.677 ZM228.048,65.712 C228.587,66.294 229.346,66.585 230.326,66.585 C231.358,66.585 232.378,66.370 233.386,65.940 L233.386,67.231 C232.874,67.452 232.388,67.612 231.930,67.707 C231.472,67.803 230.921,67.851 230.273,67.851 C228.857,67.851 227.739,67.420 226.920,66.558 C226.101,65.698 225.691,64.501 225.691,62.972 C225.691,61.430 226.071,60.205 226.832,59.297 C227.593,58.389 228.615,57.936 229.897,57.936 C231.098,57.936 232.049,58.330 232.748,59.117 C233.448,59.906 233.797,60.947 233.797,62.238 L233.797,63.154 L227.195,63.154 C227.224,64.278 227.508,65.131 228.048,65.712 ZM232.241,61.975 C232.241,61.063 232.037,60.364 231.629,59.877 C231.221,59.391 230.638,59.148 229.880,59.148 C229.110,59.148 228.497,59.399 228.039,59.898 C227.581,60.399 227.312,61.092 227.230,61.975 L232.241,61.975 ZM230.805,22.467 C230.607,22.354 230.395,22.297 230.170,22.297 L224.658,22.297 L224.658,36.387 C224.658,36.809 224.913,37.021 225.422,37.021 L225.422,37.782 L219.953,37.782 L219.953,37.021 C220.095,37.021 220.236,36.973 220.377,36.873 C220.518,36.775 220.589,36.613 220.589,36.387 L220.589,22.297 L215.079,22.297 C214.852,22.297 214.640,22.354 214.443,22.467 C214.245,22.580 214.146,22.762 214.146,23.016 L213.383,23.016 L213.383,18.152 L214.146,18.152 C214.146,18.546 214.245,18.814 214.443,18.955 C214.640,19.097 214.852,19.166 215.079,19.166 L230.170,19.166 C230.395,19.166 230.607,19.097 230.805,18.955 C231.002,18.814 231.102,18.546 231.102,18.152 L231.864,18.152 L231.864,23.016 L231.102,23.016 C231.102,22.762 231.002,22.580 230.805,22.467 ZM214.786,58.110 L214.786,67.677 L213.334,67.677 L213.334,63.364 L207.965,63.364 L207.965,67.677 L206.513,67.677 L206.513,58.110 L207.965,58.110 L207.965,62.116 L213.334,62.116 L213.334,58.110 L214.786,58.110 ZM207.152,31.436 L207.618,31.014 L210.755,35.498 L210.331,35.710 C209.992,35.569 209.752,35.498 209.611,35.498 C209.384,35.498 209.017,35.625 208.509,35.880 C208.000,36.134 207.356,36.423 206.580,36.746 C205.802,37.071 204.898,37.346 203.867,37.572 C202.835,37.796 201.684,37.909 200.412,37.909 C199.112,37.909 197.827,37.727 196.555,37.360 C195.283,36.993 194.152,36.407 193.164,35.605 C192.175,34.800 191.369,33.800 190.748,32.601 C190.126,31.401 189.815,30.012 189.815,28.433 C189.815,26.853 190.126,25.471 190.748,24.286 C191.369,23.101 192.189,22.107 193.206,21.302 C194.224,20.500 195.390,19.901 196.703,19.505 C198.017,19.111 199.366,18.913 200.751,18.913 C201.825,18.913 202.807,19.012 203.698,19.208 C204.587,19.406 205.372,19.632 206.050,19.886 C206.728,20.139 207.293,20.367 207.745,20.563 C208.197,20.761 208.522,20.859 208.720,20.859 C208.861,20.859 208.981,20.817 209.081,20.732 C209.180,20.648 209.286,20.577 209.399,20.521 L209.907,20.817 L207.109,24.837 L206.644,24.498 C206.644,24.442 206.636,24.385 206.622,24.329 C206.608,24.272 206.601,24.201 206.601,24.117 C206.601,23.977 206.459,23.785 206.177,23.545 C205.894,23.307 205.491,23.073 204.969,22.848 C204.446,22.622 203.831,22.431 203.125,22.277 C202.418,22.122 201.641,22.043 200.794,22.043 C199.776,22.043 198.851,22.178 198.017,22.445 C197.183,22.715 196.456,23.117 195.834,23.652 C195.212,24.187 194.732,24.851 194.393,25.639 C194.054,26.430 193.884,27.333 193.884,28.348 C193.884,29.364 194.075,30.273 194.457,31.077 C194.838,31.880 195.339,32.573 195.962,33.150 C196.583,33.728 197.290,34.166 198.081,34.462 C198.872,34.759 199.677,34.905 200.497,34.905 C201.260,34.905 202.037,34.808 202.828,34.610 C203.619,34.412 204.340,34.180 204.990,33.911 C205.640,33.643 206.169,33.354 206.580,33.045 C206.989,32.734 207.195,32.452 207.195,32.199 L207.195,31.860 C207.195,31.690 207.180,31.549 207.152,31.436 ZM193.580,58.110 L189.444,62.727 L193.920,67.677 L192.224,67.677 L187.852,62.832 L187.852,67.677 L186.400,67.677 L186.400,58.110 L187.852,58.110 L187.852,62.763 L191.988,58.110 L193.580,58.110 ZM184.771,37.826 C184.544,37.796 183.339,38.000 183.000,38.000 L168.000,38.000 L168.367,37.021 C168.508,37.021 168.649,36.973 168.791,36.873 C168.932,36.775 169.003,36.613 169.003,36.387 L169.003,20.563 C169.003,20.337 168.932,20.175 168.791,20.076 C168.649,19.978 168.508,19.929 168.367,19.929 L168.000,18.999 L183.000,18.999 C183.876,18.999 184.729,18.913 184.729,18.405 L185.492,18.405 L185.492,23.101 L184.729,23.101 C184.729,22.566 183.876,22.000 183.000,22.000 L173.000,22.000 L173.000,27.000 L180.000,27.000 C180.480,27.000 180.433,26.493 180.659,26.423 C180.885,26.352 180.998,26.162 180.998,25.851 L181.762,25.851 L181.762,30.337 L180.914,30.337 C180.998,30.027 180.885,29.835 180.575,29.766 C180.263,29.695 179.565,29.000 179.000,29.000 L173.000,29.000 L173.000,35.000 L184.000,35.000 C184.339,35.000 184.544,34.574 184.771,34.420 C184.997,34.265 185.110,34.059 185.110,33.806 L185.873,33.806 L185.873,38.249 L185.110,38.249 C185.110,37.994 184.997,37.853 184.771,37.826 ZM167.980,61.928 C167.621,62.252 167.118,62.467 166.471,62.579 L166.471,62.658 C167.287,62.767 167.883,63.007 168.259,63.372 C168.635,63.740 168.823,64.246 168.823,64.893 C168.823,65.782 168.495,66.469 167.839,66.951 C167.184,67.435 166.226,67.677 164.967,67.677 L160.743,67.677 L160.743,58.110 L164.950,58.110 C167.328,58.110 168.517,58.910 168.517,60.509 C168.517,61.133 168.338,61.606 167.980,61.928 ZM162.195,66.462 L164.862,66.462 C166.535,66.462 167.372,65.907 167.372,64.795 C167.372,64.278 167.175,63.901 166.782,63.666 C166.388,63.429 165.736,63.312 164.827,63.312 L162.195,63.312 L162.195,66.462 ZM166.563,59.659 C166.204,59.464 165.661,59.366 164.932,59.366 L162.195,59.366 L162.195,62.064 L164.652,62.064 C165.550,62.064 166.182,61.954 166.550,61.733 C166.917,61.511 167.101,61.150 167.101,60.650 C167.101,60.184 166.921,59.853 166.563,59.659 ZM156.456,37.021 C156.823,37.021 157.007,36.895 157.007,36.641 C157.007,36.359 156.795,35.922 156.371,35.329 L153.000,29.999 L147.000,29.999 L147.130,36.387 C147.130,36.613 147.222,36.775 147.406,36.873 C147.589,36.973 147.766,37.021 147.936,37.021 L148.000,38.000 L142.000,38.000 L142.298,37.021 C142.807,37.021 143.000,37.423 143.000,37.000 L143.000,20.999 C143.000,20.577 142.807,19.929 142.298,19.929 L142.000,18.999 L154.000,18.999 C156.514,18.999 158.476,19.583 159.889,20.415 C161.302,21.247 162.009,22.665 162.009,24.666 C162.009,25.429 161.867,26.105 161.585,26.697 C161.302,27.290 160.928,27.805 160.461,28.242 C159.996,28.680 159.479,29.033 158.914,29.300 C158.349,29.568 157.770,29.772 157.177,29.913 L161.330,35.963 C161.556,36.274 161.803,36.508 162.072,36.663 C162.341,36.817 162.630,36.936 162.942,37.021 L163.000,38.000 L157.000,38.000 L156.456,37.021 ZM158.067,24.581 C158.067,23.878 157.734,23.321 157.071,22.911 C156.406,22.503 155.354,22.297 153.913,22.297 L147.215,22.297 L147.215,27.206 L153.913,27.206 C156.682,27.206 158.067,26.332 158.067,24.581 ZM138.846,67.677 L137.394,67.677 L137.394,59.349 L134.316,59.349 L134.316,58.110 L141.959,58.110 L141.959,59.349 L138.846,59.349 L138.846,67.677 ZM135.135,37.021 L135.000,38.000 L129.000,38.000 L128.692,37.021 C129.143,37.021 129.454,36.973 129.624,36.873 C129.794,36.775 130.000,36.226 130.000,36.001 L130.000,20.999 C130.000,20.775 129.794,20.175 129.624,20.076 C129.454,19.978 129.143,19.929 128.692,19.929 L129.000,18.999 L135.000,18.999 L135.135,19.929 C134.343,19.929 133.948,20.139 133.948,20.563 L133.948,36.387 C133.948,36.809 134.343,37.021 135.135,37.021 ZM130.967,58.110 L132.419,58.110 L132.419,67.677 L130.967,67.677 L130.967,63.364 L125.598,63.364 L125.598,67.677 L124.146,67.677 L124.146,58.110 L125.598,58.110 L125.598,62.116 L130.967,62.116 L130.967,58.110 ZM119.325,35.054 C118.335,35.971 117.169,36.655 115.828,37.106 C114.485,37.558 112.554,38.000 111.000,38.000 L97.000,38.000 L97.000,37.000 C97.649,37.000 99.000,36.508 99.000,36.001 L99.000,17.000 C99.000,16.492 97.649,16.000 97.000,16.000 L97.000,15.000 L111.000,15.000 C112.554,15.000 114.485,15.754 115.828,16.205 C117.169,16.656 118.335,17.340 119.325,18.257 C120.313,19.174 121.090,20.330 121.656,21.726 C122.221,23.123 122.503,24.765 122.503,26.655 C122.503,28.546 122.221,30.188 121.656,31.585 C121.090,32.981 120.313,34.138 119.325,35.054 ZM117.184,23.016 C116.859,22.059 116.371,21.290 115.721,20.710 C115.071,20.133 114.252,19.731 113.263,19.505 C112.273,19.279 110.328,18.999 109.000,18.999 L103.000,18.999 L103.000,34.001 L109.000,34.001 C110.328,34.001 112.273,34.032 113.263,33.806 C114.252,33.580 115.071,33.178 115.721,32.601 C116.371,32.022 116.859,31.254 117.184,30.295 C117.509,29.336 117.671,28.122 117.671,26.655 C117.671,25.189 117.509,23.977 117.184,23.016 ZM101.536,59.685 C101.213,59.328 100.695,59.148 99.984,59.148 C99.185,59.148 98.282,59.393 97.273,59.881 L96.827,58.774 C97.299,58.517 97.817,58.316 98.379,58.171 C98.942,58.025 99.506,57.953 100.072,57.953 C101.214,57.953 102.061,58.206 102.612,58.712 C103.163,59.218 103.438,60.030 103.438,61.146 L103.438,67.677 L102.363,67.677 L102.074,66.315 L102.004,66.315 C101.526,66.914 101.049,67.319 100.574,67.533 C100.099,67.745 99.506,67.851 98.795,67.851 C97.845,67.851 97.100,67.607 96.560,67.118 C96.021,66.628 95.752,65.933 95.752,65.032 C95.752,63.100 97.299,62.087 100.395,61.994 L102.022,61.941 L102.022,61.348 C102.022,60.597 101.860,60.044 101.536,59.685 ZM101.987,62.972 L100.535,63.033 C99.381,63.074 98.548,63.253 98.038,63.570 C97.528,63.887 97.273,64.379 97.273,65.049 C97.273,65.573 97.432,65.972 97.750,66.244 C98.067,66.518 98.512,66.654 99.083,66.654 C99.987,66.654 100.697,66.408 101.213,65.913 C101.729,65.418 101.987,64.725 101.987,63.836 L101.987,62.972 ZM-0.000,-0.000 L80.000,-0.000 L80.000,80.001 L-0.000,80.001 L-0.000,-0.000 ZM4.000,75.999 L76.000,75.999 L76.000,4.000 L4.000,4.000 L4.000,75.999 ZM59.270,56.342 C57.242,58.127 54.854,59.459 52.104,60.336 C49.353,61.215 46.184,62.000 43.000,62.000 L14.000,62.000 L14.000,58.001 C15.331,58.001 20.000,57.988 20.000,57.000 L20.000,45.001 L33.000,45.001 L33.000,55.000 L39.000,55.000 C41.721,55.000 42.850,54.355 44.878,53.914 C46.904,53.476 47.926,52.694 49.259,51.566 C50.590,50.443 51.589,48.948 52.256,47.081 C52.921,45.216 53.000,42.855 53.000,40.000 C53.000,37.147 52.921,34.786 52.256,32.920 C51.589,31.054 50.590,29.559 49.259,28.434 C47.926,27.308 46.904,26.527 44.878,26.086 C42.850,25.649 41.721,25.001 39.000,25.001 L33.000,25.001 L33.000,34.001 L20.000,34.001 L20.000,23.001 C20.000,22.011 15.331,22.000 14.000,22.000 L14.000,18.000 L43.000,18.000 C46.184,18.000 49.353,18.788 52.104,19.664 C54.854,20.543 57.242,21.875 59.270,23.658 C61.296,25.441 62.888,27.692 64.047,30.409 C65.205,33.125 66.000,36.324 66.000,40.000 C66.000,43.678 65.205,46.875 64.047,49.591 C62.888,52.309 61.296,54.559 59.270,56.342 ZM112.201,59.349 L107.881,59.349 L107.881,67.677 L106.429,67.677 L106.429,58.110 L112.201,58.110 L112.201,59.349 ZM117.771,57.936 C118.972,57.936 119.922,58.330 120.622,59.117 C121.322,59.906 121.671,60.947 121.671,62.238 L121.671,63.154 L115.069,63.154 C115.098,64.278 115.382,65.131 115.922,65.712 C116.461,66.294 117.220,66.585 118.200,66.585 C119.231,66.585 120.252,66.370 121.260,65.940 L121.260,67.231 C120.747,67.452 120.262,67.612 119.804,67.707 C119.347,67.803 118.794,67.851 118.147,67.851 C116.731,67.851 115.612,67.420 114.793,66.558 C113.974,65.698 113.565,64.501 113.565,62.972 C113.565,61.430 113.945,60.205 114.706,59.297 C115.467,58.389 116.488,57.936 117.771,57.936 ZM120.115,61.975 C120.115,61.063 119.910,60.364 119.502,59.877 C119.094,59.391 118.511,59.148 117.754,59.148 C116.984,59.148 116.370,59.399 115.913,59.898 C115.455,60.399 115.185,61.092 115.104,61.975 L120.115,61.975 ZM147.783,57.936 C148.244,57.936 148.705,57.985 149.165,58.084 C149.625,58.183 149.987,58.299 150.249,58.432 L149.803,59.663 C149.483,59.535 149.133,59.430 148.754,59.345 C148.375,59.261 148.040,59.218 147.748,59.218 C145.801,59.218 144.827,60.457 144.827,62.938 C144.827,64.111 145.065,65.015 145.540,65.643 C146.015,66.271 146.719,66.585 147.652,66.585 C148.451,66.585 149.270,66.413 150.109,66.070 L150.109,67.353 C149.468,67.686 148.660,67.851 147.687,67.851 C146.299,67.851 145.225,67.424 144.465,66.572 C143.704,65.720 143.323,64.514 143.323,62.955 C143.323,61.354 143.710,60.118 144.482,59.244 C145.255,58.372 146.355,57.936 147.783,57.936 ZM158.846,59.349 L155.732,59.349 L155.732,67.677 L154.281,67.677 L154.281,59.349 L151.203,59.349 L151.203,58.110 L158.846,58.110 L158.846,59.349 ZM174.822,57.936 C176.163,57.936 177.228,58.379 178.018,59.270 C178.809,60.161 179.203,61.366 179.203,62.885 C179.203,64.444 178.810,65.661 178.023,66.537 C177.236,67.414 176.149,67.851 174.761,67.851 C173.904,67.851 173.143,67.650 172.478,67.248 C171.814,66.848 171.301,66.271 170.940,65.520 C170.578,64.769 170.397,63.890 170.397,62.885 C170.397,61.324 170.788,60.110 171.569,59.239 C172.350,58.370 173.435,57.936 174.822,57.936 ZM172.636,65.678 C173.126,66.317 173.846,66.637 174.796,66.637 C175.746,66.637 176.468,66.319 176.961,65.681 C177.453,65.044 177.699,64.111 177.699,62.885 C177.699,61.668 177.453,60.744 176.961,60.113 C176.468,59.481 175.741,59.165 174.779,59.165 C173.828,59.165 173.111,59.478 172.627,60.099 C172.143,60.723 171.901,61.651 171.901,62.885 C171.901,64.107 172.146,65.038 172.636,65.678 ZM199.588,57.936 C200.929,57.936 201.993,58.379 202.784,59.270 C203.574,60.161 203.969,61.366 203.969,62.885 C203.969,64.444 203.575,65.661 202.788,66.537 C202.001,67.414 200.914,67.851 199.526,67.851 C198.669,67.851 197.909,67.650 197.244,67.248 C196.579,66.848 196.066,66.271 195.705,65.520 C195.343,64.769 195.163,63.890 195.163,62.885 C195.163,61.324 195.553,60.110 196.334,59.239 C197.116,58.370 198.200,57.936 199.588,57.936 ZM197.401,65.678 C197.891,66.317 198.611,66.637 199.561,66.637 C200.512,66.637 201.233,66.319 201.725,65.681 C202.218,65.044 202.464,64.111 202.464,62.885 C202.464,61.668 202.218,60.744 201.725,60.113 C201.233,59.481 200.506,59.165 199.543,59.165 C198.593,59.165 197.876,59.478 197.392,60.099 C196.909,60.723 196.667,61.651 196.667,62.885 C196.667,64.107 196.912,65.038 197.401,65.678 ZM224.327,59.349 L221.214,59.349 L221.214,67.677 L219.762,67.677 L219.762,59.349 L216.684,59.349 L216.684,58.110 L224.327,58.110 L224.327,59.349 ZM260.557,59.349 L257.444,59.349 L257.444,67.677 L255.992,67.677 L255.992,59.349 L252.914,59.349 L252.914,58.110 L260.557,58.110 L260.557,59.349 ZM263.906,62.116 L269.275,62.116 L269.275,58.110 L270.727,58.110 L270.727,67.677 L269.275,67.677 L269.275,63.364 L263.906,63.364 L263.906,67.677 L262.454,67.677 L262.454,58.110 L263.906,58.110 L263.906,62.116 ZM288.724,56.844 C287.646,56.844 286.859,56.636 286.363,56.220 C285.867,55.804 285.590,55.119 285.532,54.165 L286.896,54.165 C286.949,54.770 287.108,55.192 287.373,55.430 C287.638,55.668 288.100,55.787 288.759,55.787 C289.359,55.787 289.804,55.660 290.093,55.404 C290.381,55.148 290.557,54.734 290.622,54.165 L291.995,54.165 C291.925,55.083 291.630,55.761 291.111,56.194 C290.592,56.627 289.797,56.844 288.724,56.844 ZM285.987,64.176 L285.926,65.765 L285.899,66.263 L291.085,58.110 L292.896,58.110 L292.896,67.677 L291.540,67.677 L291.540,61.827 L291.566,60.676 L291.610,59.541 L286.433,67.677 L284.623,67.677 L284.623,58.110 L285.987,58.110 L285.987,64.176 ZM315.273,57.936 C316.474,57.936 317.424,58.330 318.123,59.117 C318.823,59.906 319.173,60.947 319.173,62.238 L319.173,63.154 L312.571,63.154 C312.600,64.278 312.884,65.131 313.423,65.712 C313.962,66.294 314.722,66.585 315.702,66.585 C316.733,66.585 317.753,66.370 318.762,65.940 L318.762,67.231 C318.249,67.452 317.763,67.612 317.306,67.707 C316.848,67.803 316.296,67.851 315.649,67.851 C314.232,67.851 313.114,67.420 312.296,66.558 C311.476,65.698 311.067,64.501 311.067,62.972 C311.067,61.430 311.447,60.205 312.208,59.297 C312.969,58.389 313.991,57.936 315.273,57.936 ZM317.617,61.975 C317.617,61.063 317.413,60.364 317.005,59.877 C316.597,59.391 316.013,59.148 315.256,59.148 C314.486,59.148 313.873,59.399 313.414,59.898 C312.957,60.399 312.688,61.092 312.606,61.975 L317.617,61.975 ZM365.739,62.064 L368.353,62.064 C369.572,62.064 370.474,62.289 371.060,62.740 C371.646,63.191 371.939,63.864 371.939,64.761 C371.939,65.722 371.629,66.447 371.008,66.939 C370.387,67.431 369.473,67.677 368.266,67.677 L364.287,67.677 L364.287,58.110 L365.739,58.110 L365.739,62.064 ZM365.739,66.462 L368.196,66.462 C369.735,66.462 370.504,65.924 370.504,64.848 C370.504,64.313 370.327,63.923 369.971,63.678 C369.616,63.434 369.010,63.312 368.152,63.312 L365.739,63.312 L365.739,66.462 Z" class="cls-1"/>
</svg>
