<svg xmlns="http://www.w3.org/2000/svg" preserveAspectRatio="xMidYMid" width="375" height="80" viewBox="0 0 375 80"><defs><style>.cls-1{fill:#fff;fill-rule:evenodd}</style></defs><path d="M373.548 67.677V58.11H375v9.567h-1.452zm-4.473-30.656c.197 0 .297-.069.297-.212 0-.111-.135-.309-.403-.592a70.155 70.155 0 0 1-.911-.973l-10.513-11.17v12.313c0 .422.297.634.891.634v.761h-5.214v-.761c.508 0 .762-.212.762-.634V20.563c0-.424-.254-.634-.762-.634v-.763h6.231v.763c-.198.028-.297.099-.297.21 0 .143.311.523.932 1.143l10.173 10.747V20.563c0-.424-.282-.634-.847-.634v-.763h5.172v.763c-.509 0-.764.21-.764.634v15.824c0 .422.255.634.764.634v.761h-5.511v-.761zM356.102 66.28l.271-.812.376-1.03 2.598-6.311h1.845v9.55h-1.286v-7.901l-.174.507-.508 1.335-2.475 6.059h-1.215l-2.475-6.076c-.309-.779-.522-1.387-.639-1.825v7.901h-1.294v-9.55h1.775l2.51 6.066c.251.641.482 1.337.691 2.087zm-9.331.035h-.069c-.478.599-.955 1.004-1.43 1.218-.475.212-1.069.318-1.779.318-.951 0-1.696-.244-2.235-.733-.54-.49-.809-1.185-.809-2.086 0-1.932 1.548-2.945 4.644-3.038l1.626-.053v-.593c0-.751-.162-1.304-.485-1.663-.324-.357-.841-.537-1.552-.537-.799 0-1.703.245-2.711.733l-.446-1.107a6.751 6.751 0 0 1 1.552-.603 6.703 6.703 0 0 1 1.692-.218c1.143 0 1.99.253 2.541.759.55.506.826 1.318.826 2.434v6.531h-1.076l-.289-1.362zm-.087-3.343l-1.452.061c-1.154.041-1.986.22-2.496.537-.511.317-.765.809-.765 1.479 0 .524.158.923.476 1.195.318.274.762.41 1.334.41.903 0 1.613-.246 2.129-.741s.774-1.188.774-2.077v-.864zm-7.196-25.951c.452 0 .763-.048.933-.148.169-.098.254-.26.254-.486V20.563c0-.226-.085-.388-.254-.487-.17-.098-.481-.147-.933-.147v-.763h6.443v.763c-.791 0-1.187.21-1.187.634v15.824c0 .422.396.634 1.187.634v.761h-6.443v-.761zm-2.869 22.328h-2.877c-.158 2.073-.376 3.715-.656 4.933-.28 1.215-.642 2.105-1.089 2.669-.446.565-1.013.848-1.701.848-.314 0-.565-.036-.752-.105V66.62c.129.034.274.053.438.053.67 0 1.204-.709 1.6-2.122.396-1.414.697-3.561.901-6.441h5.605v9.567h-1.469v-8.328zm-4.379-29.097h-7.248c-.227 0-.389.085-.488.253-.099.17-.148.339-.148.509h-.763v-5.078h.763c0 .508.212.761.636.761h7.248c.226 0 .388-.083.488-.253a.998.998 0 0 0 .148-.508h.763v5.078h-.763c0-.509-.212-.762-.636-.762zm-3.412 27.858l-4.137 4.617 4.478 4.95h-1.697l-4.372-4.845v4.845h-1.452V58.11h1.452v4.653l4.136-4.653h1.592zm-10.152-20.284a6.664 6.664 0 0 0-.848-.044h-16.617v-.761c.735 0 1.103-.212 1.103-.634V20.563c0-.424-.368-.634-1.103-.634v-.763h6.147v.763c-.651 0-.975.21-.975.634v14.089h11.445c.339 0 .621-.078.848-.232a.75.75 0 0 0 .339-.656h.763v4.442h-.763c0-.226-.113-.353-.339-.38zm-16.668 21.593h.07c.372-.523.807-.902 1.303-1.135.495-.232 1.063-.348 1.705-.348 1.271 0 2.251.433 2.942 1.299.691.867 1.037 2.083 1.037 3.65 0 1.57-.352 2.79-1.054 3.661-.703.869-1.678 1.305-2.925 1.305a4.17 4.17 0 0 1-1.71-.345 3.21 3.21 0 0 1-1.298-1.061h-.106c.07.559.106 1.088.106 1.589v3.936h-1.452V58.11h1.18l.202 1.309zm.07 3.466c0 1.344.223 2.306.672 2.884.45.579 1.17.868 2.161.868.827 0 1.476-.334 1.946-1.004.468-.668.703-1.591.703-2.767 0-1.192-.235-2.108-.703-2.745-.47-.637-1.13-.956-1.982-.956-.979 0-1.687.271-2.125.812-.436.542-.661 1.403-.672 2.583v.325zm-6.97-25.059a6.664 6.664 0 0 0-.848-.044h-16.617v-.761c.735 0 1.103-.212 1.103-.634V20.563c0-.424-.368-.634-1.103-.634v-.763h6.147v.763c-.651 0-.975.21-.975.634v14.089h11.445c.339 0 .621-.078.848-.232a.75.75 0 0 0 .338-.656h.764v4.442h-.764c0-.226-.112-.353-.338-.38zM280.893 59.27c.79.891 1.185 2.096 1.185 3.615 0 1.559-.394 2.776-1.181 3.652-.786.877-1.874 1.314-3.261 1.314-.858 0-1.618-.201-2.282-.603-.665-.4-1.178-.977-1.54-1.728-.361-.751-.542-1.63-.542-2.635 0-1.561.39-2.775 1.172-3.646.781-.869 1.866-1.303 3.253-1.303 1.341 0 2.406.443 3.196 1.334zm-5.391.829c-.484.624-.726 1.552-.726 2.786 0 1.222.245 2.153.735 2.793.489.639 1.209.959 2.16.959.95 0 1.671-.318 2.164-.956.493-.637.739-1.57.739-2.796 0-1.217-.246-2.141-.739-2.772-.493-.632-1.22-.948-2.182-.948-.95 0-1.668.313-2.151.934zm-9.684-23.078a.998.998 0 0 0 .424-.126c.169-.086.254-.212.254-.381 0-.281-.113-.65-.339-1.1l-1.611-3.132h-10.343l-1.526 3.006c-.283.592-.424 1.014-.424 1.268 0 .311.268.465.806.465v.761h-6.02v-.761c.367-.055.658-.239.869-.549.212-.311.417-.663.615-1.058l7.842-16.459c.197-.365.374-.704.53-1.015.155-.311.233-.579.233-.804 0-.282-.099-.48-.297-.593a2.515 2.515 0 0 0-.636-.253v-.761h7.164v.761a3.513 3.513 0 0 0-.593.232c-.199.099-.298.304-.298.614 0 .225.05.451.149.677.099.226.247.521.445.888l8.817 17.221c.141.311.332.535.572.677.24.141.515.282.827.422v.761h-7.46v-.761zm-6.359-15.739l-3.984 7.87h7.545l-3.561-7.87zm-9.965 36.654c.461 0 .922.049 1.382.148.461.099.822.215 1.085.348l-.446 1.231a6.926 6.926 0 0 0-1.05-.318 4.72 4.72 0 0 0-1.005-.127c-1.948 0-2.921 1.239-2.921 3.72 0 1.173.237 2.077.713 2.705.474.628 1.179.942 2.112.942.798 0 1.617-.172 2.457-.515v1.283c-.642.333-1.449.498-2.423.498-1.387 0-2.461-.427-3.222-1.279-.761-.852-1.141-2.058-1.141-3.617 0-1.601.385-2.837 1.159-3.711.772-.872 1.872-1.308 3.3-1.308zm-7.397 9.741l-4.373-4.845v4.845h-1.451V58.11h1.451v4.653l4.137-4.653h1.591l-4.137 4.617 4.478 4.95h-1.696zm-14.049-1.965c.539.582 1.298.873 2.278.873a7.736 7.736 0 0 0 3.06-.645v1.291a7.6 7.6 0 0 1-1.456.476c-.458.096-1.009.144-1.657.144-1.416 0-2.534-.431-3.353-1.293-.819-.86-1.229-2.057-1.229-3.586 0-1.542.38-2.767 1.141-3.675.761-.908 1.783-1.361 3.065-1.361 1.201 0 2.152.394 2.851 1.181.7.789 1.049 1.83 1.049 3.121v.916h-6.602c.029 1.124.313 1.977.853 2.558zm4.193-3.737c0-.912-.204-1.611-.612-2.098-.408-.486-.991-.729-1.749-.729-.77 0-1.383.251-1.841.75-.458.501-.727 1.194-.809 2.077h5.011zm-1.436-39.508a1.262 1.262 0 0 0-.635-.17h-5.512v14.09c0 .422.255.634.764.634v.761h-5.469v-.761a.725.725 0 0 0 .424-.148c.141-.098.212-.26.212-.486v-14.09h-5.51c-.227 0-.439.057-.636.17-.198.113-.297.295-.297.549h-.763v-4.864h.763c0 .394.099.662.297.803.197.142.409.211.636.211h15.091c.225 0 .437-.069.635-.211.197-.141.297-.409.297-.803h.762v4.864h-.762c0-.254-.1-.436-.297-.549zM214.786 58.11v9.567h-1.452v-4.313h-5.369v4.313h-1.452V58.11h1.452v4.006h5.369V58.11h1.452zm-7.634-26.674l.466-.422 3.137 4.484-.424.212c-.339-.141-.579-.212-.72-.212-.227 0-.594.127-1.102.382-.509.254-1.153.543-1.929.866-.778.325-1.682.6-2.713.826-1.032.224-2.183.337-3.455.337-1.3 0-2.585-.182-3.857-.549a9.498 9.498 0 0 1-3.391-1.755 9.38 9.38 0 0 1-2.416-3.004c-.622-1.2-.933-2.589-.933-4.168 0-1.58.311-2.962.933-4.147a9.206 9.206 0 0 1 2.458-2.984 10.48 10.48 0 0 1 3.497-1.797 14.018 14.018 0 0 1 4.048-.592c1.074 0 2.056.099 2.947.295.889.198 1.674.424 2.352.678.678.253 1.243.481 1.695.677.452.198.777.296.975.296a.538.538 0 0 0 .361-.127c.099-.084.205-.155.318-.211l.508.296-2.798 4.02-.465-.339a.7.7 0 0 0-.022-.169.908.908 0 0 1-.021-.212c0-.14-.142-.332-.424-.572-.283-.238-.686-.472-1.208-.697a10.093 10.093 0 0 0-1.844-.571 10.89 10.89 0 0 0-2.331-.234c-1.018 0-1.943.135-2.777.402a6.262 6.262 0 0 0-2.183 1.207 5.388 5.388 0 0 0-1.441 1.987c-.339.791-.509 1.694-.509 2.709 0 1.016.191 1.925.573 2.729a6.717 6.717 0 0 0 1.505 2.073 6.35 6.35 0 0 0 2.119 1.312 6.819 6.819 0 0 0 2.416.443c.763 0 1.54-.097 2.331-.295.791-.198 1.512-.43 2.162-.699.65-.268 1.179-.557 1.59-.866.409-.311.615-.593.615-.846v-.339c0-.17-.015-.311-.043-.424zM193.58 58.11l-4.136 4.617 4.476 4.95h-1.696l-4.372-4.845v4.845H186.4V58.11h1.452v4.653l4.136-4.653h1.592zm-8.809-20.284c-.227-.03-1.432.174-1.771.174h-15l.367-.979a.73.73 0 0 0 .424-.148c.141-.098.212-.26.212-.486V20.563c0-.226-.071-.388-.212-.487a.743.743 0 0 0-.424-.147l-.367-.93h15c.876 0 1.729-.086 1.729-.594h.763v4.696h-.763c0-.535-.853-1.101-1.729-1.101h-10v5h7c.48 0 .433-.507.659-.577.226-.071.339-.261.339-.572h.764v4.486h-.848c.084-.31-.029-.502-.339-.571-.312-.071-1.01-.766-1.575-.766h-6v6h11c.339 0 .544-.426.771-.58.226-.155.339-.361.339-.614h.763v4.443h-.763c0-.255-.113-.396-.339-.423zM167.98 61.928c-.359.324-.862.539-1.509.651v.079c.816.109 1.412.349 1.788.714.376.368.564.874.564 1.521 0 .889-.328 1.576-.984 2.058-.655.484-1.613.726-2.872.726h-4.224V58.11h4.207c2.378 0 3.567.8 3.567 2.399 0 .624-.179 1.097-.537 1.419zm-5.785 4.534h2.667c1.673 0 2.51-.555 2.51-1.667 0-.517-.197-.894-.59-1.129-.394-.237-1.046-.354-1.955-.354h-2.632v3.15zm4.368-6.803c-.359-.195-.902-.293-1.631-.293h-2.737v2.698h2.457c.898 0 1.53-.11 1.898-.331.367-.222.551-.583.551-1.083 0-.466-.18-.797-.538-.991zm-10.107-22.638c.367 0 .551-.126.551-.38 0-.282-.212-.719-.636-1.312L153 29.999h-6l.13 6.388c0 .226.092.388.276.486.183.1.36.148.53.148L148 38h-6l.298-.979c.509 0 .702.402.702-.021V20.999c0-.422-.193-1.07-.702-1.07l-.298-.93h12c2.514 0 4.476.584 5.889 1.416 1.413.832 2.12 2.25 2.12 4.251 0 .763-.142 1.439-.424 2.031a5.103 5.103 0 0 1-1.124 1.545 5.962 5.962 0 0 1-1.547 1.058 8.786 8.786 0 0 1-1.737.613l4.153 6.05c.226.311.473.545.742.7.269.154.558.273.87.358L163 38h-6l-.544-.979zm1.611-12.44c0-.703-.333-1.26-.996-1.67-.665-.408-1.717-.614-3.158-.614h-6.698v4.909h6.698c2.769 0 4.154-.874 4.154-2.625zm-19.221 43.096h-1.452v-8.328h-3.078V58.11h7.643v1.239h-3.113v8.328zm-3.711-30.656L135 38h-6l-.308-.979c.451 0 .762-.048.932-.148.17-.098.376-.647.376-.872V20.999c0-.224-.206-.824-.376-.923-.17-.098-.481-.147-.932-.147l.308-.93h6l.135.93c-.792 0-1.187.21-1.187.634v15.824c0 .422.395.634 1.187.634zm-4.168 21.089h1.452v9.567h-1.452v-4.313h-5.369v4.313h-1.452V58.11h1.452v4.006h5.369V58.11zm-11.642-23.056a9.563 9.563 0 0 1-3.497 2.052c-1.343.452-3.274.894-4.828.894H97v-1c.649 0 2-.492 2-.999V17c0-.508-1.351-1-2-1v-1h14c1.554 0 3.485.754 4.828 1.205a9.563 9.563 0 0 1 3.497 2.052c.988.917 1.765 2.073 2.331 3.469.565 1.397.847 3.039.847 4.929 0 1.891-.282 3.533-.847 4.93-.566 1.396-1.343 2.553-2.331 3.469zm-2.141-12.038c-.325-.957-.813-1.726-1.463-2.306-.65-.577-1.469-.979-2.458-1.205-.99-.226-2.935-.506-4.263-.506h-6v15.002h6c1.328 0 3.273.031 4.263-.195.989-.226 1.808-.628 2.458-1.205.65-.579 1.138-1.347 1.463-2.306.325-.959.487-2.173.487-3.64 0-1.466-.162-2.678-.487-3.639zm-15.648 36.669c-.323-.357-.841-.537-1.552-.537-.799 0-1.702.245-2.711.733l-.446-1.107c.472-.257.99-.458 1.552-.603a6.717 6.717 0 0 1 1.693-.218c1.142 0 1.989.253 2.54.759.551.506.826 1.318.826 2.434v6.531h-1.075l-.289-1.362h-.07c-.478.599-.955 1.004-1.43 1.218-.475.212-1.068.318-1.779.318-.95 0-1.695-.244-2.235-.733-.539-.49-.808-1.185-.808-2.086 0-1.932 1.547-2.945 4.643-3.038l1.627-.053v-.593c0-.751-.162-1.304-.486-1.663zm.451 3.287l-1.452.061c-1.154.041-1.987.22-2.497.537-.51.317-.765.809-.765 1.479 0 .524.159.923.477 1.195.317.274.762.41 1.333.41.904 0 1.614-.246 2.13-.741.516-.495.774-1.188.774-2.077v-.864zM0 0h80v80.001H0V0zm4 75.999h72V4H4v71.999zm55.27-19.657c-2.028 1.785-4.416 3.117-7.166 3.994C49.353 61.215 46.184 62 43 62H14v-3.999c1.331 0 6-.013 6-1.001V45.001h13V55h6c2.721 0 3.85-.645 5.878-1.086 2.026-.438 3.048-1.22 4.381-2.348 1.331-1.123 2.33-2.618 2.997-4.485.665-1.865.744-4.226.744-7.081 0-2.853-.079-5.214-.744-7.08-.667-1.866-1.666-3.361-2.997-4.486-1.333-1.126-2.355-1.907-4.381-2.348-2.028-.437-3.157-1.085-5.878-1.085h-6v9H20v-11c0-.99-4.669-1.001-6-1.001v-4h29c3.184 0 6.353.788 9.104 1.664 2.75.879 5.138 2.211 7.166 3.994 2.026 1.783 3.618 4.034 4.777 6.751A24.257 24.257 0 0 1 66 40a24.25 24.25 0 0 1-1.953 9.591c-1.159 2.718-2.751 4.968-4.777 6.751zm52.931 3.007h-4.32v8.328h-1.452V58.11h5.772v1.239zm5.57-1.413c1.201 0 2.151.394 2.851 1.181.7.789 1.049 1.83 1.049 3.121v.916h-6.602c.029 1.124.313 1.977.853 2.558.539.582 1.298.873 2.278.873a7.74 7.74 0 0 0 3.06-.645v1.291a7.622 7.622 0 0 1-1.456.476c-.457.096-1.01.144-1.657.144-1.416 0-2.535-.431-3.354-1.293-.819-.86-1.228-2.057-1.228-3.586 0-1.542.38-2.767 1.141-3.675.761-.908 1.782-1.361 3.065-1.361zm2.344 4.039c0-.912-.205-1.611-.613-2.098-.408-.486-.991-.729-1.748-.729-.77 0-1.384.251-1.841.75-.458.501-.728 1.194-.809 2.077h5.011zm27.668-4.039c.461 0 .922.049 1.382.148.46.099.822.215 1.084.348l-.446 1.231a6.878 6.878 0 0 0-1.049-.318 4.72 4.72 0 0 0-1.006-.127c-1.947 0-2.921 1.239-2.921 3.72 0 1.173.238 2.077.713 2.705.475.628 1.179.942 2.112.942.799 0 1.618-.172 2.457-.515v1.283c-.641.333-1.449.498-2.422.498-1.388 0-2.462-.427-3.222-1.279-.761-.852-1.142-2.058-1.142-3.617 0-1.601.387-2.837 1.159-3.711.773-.872 1.873-1.308 3.301-1.308zm11.063 1.413h-3.114v8.328h-1.451v-8.328h-3.078V58.11h7.643v1.239zm15.976-1.413c1.341 0 2.406.443 3.196 1.334.791.891 1.185 2.096 1.185 3.615 0 1.559-.393 2.776-1.18 3.652-.787.877-1.874 1.314-3.262 1.314-.857 0-1.618-.201-2.283-.603-.664-.4-1.177-.977-1.538-1.728-.362-.751-.543-1.63-.543-2.635 0-1.561.391-2.775 1.172-3.646.781-.869 1.866-1.303 3.253-1.303zm-2.186 7.742c.49.639 1.21.959 2.16.959.95 0 1.672-.318 2.165-.956.492-.637.738-1.57.738-2.796 0-1.217-.246-2.141-.738-2.772-.493-.632-1.22-.948-2.182-.948-.951 0-1.668.313-2.152.934-.484.624-.726 1.552-.726 2.786 0 1.222.245 2.153.735 2.793zm26.952-7.742c1.341 0 2.405.443 3.196 1.334.79.891 1.185 2.096 1.185 3.615 0 1.559-.394 2.776-1.181 3.652-.787.877-1.874 1.314-3.262 1.314-.857 0-1.617-.201-2.282-.603-.665-.4-1.178-.977-1.539-1.728-.362-.751-.542-1.63-.542-2.635 0-1.561.39-2.775 1.171-3.646.782-.869 1.866-1.303 3.254-1.303zm-2.187 7.742c.49.639 1.21.959 2.16.959.951 0 1.672-.318 2.164-.956.493-.637.739-1.57.739-2.796 0-1.217-.246-2.141-.739-2.772-.492-.632-1.219-.948-2.182-.948-.95 0-1.667.313-2.151.934-.483.624-.725 1.552-.725 2.786 0 1.222.245 2.153.734 2.793zm26.926-6.329h-3.113v8.328h-1.452v-8.328h-3.078V58.11h7.643v1.239zm36.23 0h-3.113v8.328h-1.452v-8.328h-3.078V58.11h7.643v1.239zm3.349 2.767h5.369V58.11h1.452v9.567h-1.452v-4.313h-5.369v4.313h-1.452V58.11h1.452v4.006zm24.818-5.272c-1.078 0-1.865-.208-2.361-.624-.496-.416-.773-1.101-.831-2.055h1.364c.053.605.212 1.027.477 1.265s.727.357 1.386.357c.6 0 1.045-.127 1.334-.383.288-.256.464-.67.529-1.239h1.373c-.07.918-.365 1.596-.884 2.029-.519.433-1.314.65-2.387.65zm-2.737 7.332l-.061 1.589-.027.498 5.186-8.153h1.811v9.567h-1.356v-5.85l.026-1.151.044-1.135-5.177 8.136h-1.81V58.11h1.364v6.066zm29.286-6.24c1.201 0 2.151.394 2.85 1.181.7.789 1.05 1.83 1.05 3.121v.916h-6.602c.029 1.124.313 1.977.852 2.558.539.582 1.299.873 2.279.873a7.743 7.743 0 0 0 3.06-.645v1.291a7.645 7.645 0 0 1-1.456.476c-.458.096-1.01.144-1.657.144-1.417 0-2.535-.431-3.353-1.293-.82-.86-1.229-2.057-1.229-3.586 0-1.542.38-2.767 1.141-3.675.761-.908 1.783-1.361 3.065-1.361zm2.344 4.039c0-.912-.204-1.611-.612-2.098-.408-.486-.992-.729-1.749-.729-.77 0-1.383.251-1.842.75-.457.501-.726 1.194-.808 2.077h5.011zm48.122.089h2.614c1.219 0 2.121.225 2.707.676.586.451.879 1.124.879 2.021 0 .961-.31 1.686-.931 2.178s-1.535.738-2.742.738h-3.979V58.11h1.452v3.954zm0 4.398h2.457c1.539 0 2.308-.538 2.308-1.614 0-.535-.177-.925-.533-1.17-.355-.244-.961-.366-1.819-.366h-2.413v3.15z" class="cls-1"/></svg>